<svg width="870" height="425" viewBox="0 0 870 425" fill="none" xmlns="http://www.w3.org/2000/svg">
<path opacity="0.2" d="M319.264 257.96H551.88V351.194H319.264V257.96Z" stroke="white" stroke-width="0.941764"/>
<path opacity="0.2" d="M319.028 295.395H552.115V340.128H319.028V295.395Z" stroke="white" stroke-width="0.470882"/>
<path opacity="0.2" d="M411.133 275.848C411.133 271.248 414.863 267.518 419.464 267.518H451.676C456.277 267.518 460.007 271.248 460.007 275.848C460.007 280.449 456.277 284.179 451.676 284.179H419.464C414.863 284.179 411.133 280.449 411.133 275.848Z" stroke="white" stroke-width="1.11075"/>
<line opacity="0.2" x1="420.578" y1="275.849" x2="450.568" y2="275.849" stroke="white" stroke-width="2.2215"/>
<path opacity="0.2" d="M554.47 257.724H604.67C609.054 257.724 612.401 257.432 614.926 256.199C617.426 254.979 619.089 252.852 620.185 249.281L732.874 268.977C728.936 283.35 724.025 294.962 716.855 304.304C709.646 313.696 700.144 320.806 687.022 326.113C660.792 336.723 620.123 340.12 554.47 340.128V257.724Z" stroke="white" stroke-width="0.470882"/>
<path opacity="0.2" d="M316.675 257.724H266.475C262.09 257.724 258.743 257.432 256.219 256.199C253.719 254.979 252.055 252.852 250.96 249.281L138.27 268.977C142.208 283.35 147.12 294.962 154.29 304.304C161.499 313.696 171.001 320.806 184.122 326.113C210.353 336.723 251.022 340.12 316.675 340.128V257.724Z" stroke="white" stroke-width="0.470882"/>
<path opacity="0.2" d="M554.47 257.724H604.67C609.054 257.724 612.401 257.432 614.926 256.199C617.426 254.979 619.089 252.852 620.185 249.281L732.874 268.977C728.936 283.35 724.025 294.962 716.855 304.304C709.646 313.696 700.144 320.806 687.022 326.113C660.792 336.723 620.123 340.12 554.47 340.128V257.724Z" stroke="white" stroke-width="0.470882"/>
<path opacity="0.2" d="M316.675 257.724H266.475C262.09 257.724 258.743 257.432 256.219 256.199C253.719 254.979 252.055 252.852 250.96 249.281L138.27 268.977C142.208 283.35 147.12 294.962 154.29 304.304C161.499 313.696 171.001 320.806 184.122 326.113C210.353 336.723 251.022 340.12 316.675 340.128V257.724Z" stroke="white" stroke-width="0.470882"/>
<path opacity="0.2" d="M555.176 258.537H604.67C609.001 258.537 612.52 258.458 615.211 257.238C617.84 256.045 619.562 253.839 620.694 250.091L732.017 270.102C728.116 285.902 723.266 298.761 716.26 309.19C709.122 319.815 699.718 327.957 686.708 334.103C660.738 346.371 620.426 350.682 555.176 350.723V258.537Z" stroke="white" stroke-width="1.88353"/>
<path opacity="0.2" d="M315.968 258.537H266.475C262.143 258.537 258.625 258.458 255.933 257.238C253.304 256.045 251.583 253.839 250.451 250.091L139.128 270.102C143.028 285.902 147.878 298.761 154.885 309.19C162.023 319.815 171.427 327.957 184.436 334.103C210.406 346.371 250.719 350.682 315.968 350.723V258.537Z" stroke="white" stroke-width="1.88353"/>
<circle opacity="0.2" cx="352.695" cy="317.762" r="9.88853" stroke="white" stroke-width="0.941764"/>
<circle opacity="0.2" cx="352.696" cy="317.762" r="12.0075" stroke="white" stroke-width="0.470882"/>
<path opacity="0.2" d="M606.238 259.225C604.722 259.212 608.57 258.929 606.974 258.929C604.318 258.929 601.91 258.87 600.176 258.048H604.914C613.685 258.048 617.996 258.157 620.159 249.955L632.415 252.074V253.251C630.346 258.631 617.247 259.322 606.238 259.225Z" stroke="white" stroke-width="0.470882"/>
<path opacity="0.2" d="M264.906 259.225C266.422 259.212 262.574 258.929 264.17 258.929C266.826 258.929 269.234 258.87 270.969 258.048H266.23C257.459 258.048 253.149 258.157 250.986 249.955L238.729 252.074V253.251C240.799 258.631 253.898 259.322 264.906 259.225Z" stroke="white" stroke-width="0.470882"/>
<path opacity="0.2" d="M738.063 265.703L738.064 265.691L738.073 265.625C742.277 233.792 742.246 205.803 738.422 176.031C733.826 140.259 699.396 118.417 664.759 122.935C643.742 125.676 630.73 142.041 616.719 162.817C612.343 169.306 608.07 174.479 602.52 178.038C596.98 181.591 590.125 183.56 580.541 183.56H290.068C280.482 183.56 273.368 181.59 267.698 178.036C262.025 174.479 257.756 169.31 253.904 162.839C245.887 149.372 239.122 140.074 231.733 133.805C224.326 127.521 216.315 124.3 205.85 122.935C171.212 118.417 136.782 140.259 132.187 176.031C128.362 205.803 128.332 233.792 132.536 265.625L132.545 265.692L132.545 265.692L132.546 265.703L132.865 267.741L132.866 267.748L132.867 267.756L133.229 269.67L133.232 269.683L133.235 269.696L133.272 269.848L133.728 269.736L133.272 269.848C141.249 302.116 153.557 324.229 180.825 337.719C207.241 350.787 247.016 355.35 308.434 355.763H308.438L562.152 355.763L562.156 355.763L562.174 355.763C623.593 355.35 663.368 350.787 689.783 337.719C717.052 324.229 729.36 302.116 737.336 269.848L736.879 269.735L737.336 269.848L737.374 269.696L737.377 269.683L737.38 269.67L737.741 267.756L737.743 267.748L737.744 267.741L738.063 265.703Z" stroke="white" stroke-width="0.941764"/>
<path d="M634.788 166.346C637.161 149.449 650.535 136.21 667.455 134.003C697.95 130.026 727.044 149.266 730.891 179.217C734.486 207.203 734.316 233.6 730.593 263.405L624.416 244.668C627.715 217.352 630.612 196.09 634.788 166.346Z" stroke="white" stroke-width="6"/>
<path d="M643.296 185.827C645.281 172.742 656.517 163.052 669.75 163.052C686.984 163.052 700.533 177.851 698.613 194.97C697.857 201.713 697.118 207.888 696.379 214.071C694.822 227.087 693.261 240.144 691.517 258.627L633.139 248.82C637.125 225.678 639.719 209.403 643.296 185.827Z" stroke="white" stroke-width="0.470882"/>
<path d="M663.569 219.73L664.145 216.649L680.316 219.669L679.741 222.75L673.622 221.607L670.265 239.587L666.331 238.853L669.688 220.873L663.569 219.73Z" fill="white"/>
<path d="M645.228 234.913L649.16 213.852L656.595 215.24C658.813 215.654 660.43 216.56 661.447 217.957C662.465 219.345 662.79 221.027 662.421 223.004C662.046 225.01 661.119 226.498 659.641 227.47C658.162 228.441 656.323 228.721 654.125 228.311L650.624 227.657L649.133 235.642L645.228 234.913ZM651.153 224.822L654.292 225.408C655.585 225.649 656.555 225.476 657.204 224.889C657.852 224.301 658.278 223.463 658.482 222.373C658.683 221.293 658.586 220.372 658.189 219.609C657.793 218.847 656.949 218.345 655.656 218.103L652.517 217.517L651.153 224.822ZM656.322 236.984L653.406 226.545L657.357 226.714L660.662 237.795L656.322 236.984Z" fill="white"/>
<path d="M236.352 166.346C233.98 149.449 220.605 136.21 203.685 134.003C173.191 130.026 144.097 149.266 140.249 179.217C136.654 207.203 136.825 233.6 140.548 263.405L246.725 244.668C243.426 217.352 240.528 196.09 236.352 166.346Z" stroke="white" stroke-width="6"/>
<path d="M227.845 185.827C225.859 172.742 214.624 163.052 201.39 163.052C184.156 163.052 170.607 177.851 172.528 194.97C173.284 201.713 174.022 207.888 174.762 214.071C176.318 227.087 177.88 240.144 179.624 258.627L238.001 248.82C234.015 225.678 231.422 209.403 227.845 185.827Z" stroke="white" stroke-width="0.470882"/>
<path d="M201.528 219.652L200.957 216.57L217.133 213.572L217.704 216.654L211.584 217.788L214.917 235.773L210.981 236.502L207.648 218.518L201.528 219.652Z" fill="white"/>
<path d="M193.837 239.68L189.934 218.613L193.84 217.889L197.173 235.874L206.086 234.222L206.657 237.304L193.837 239.68Z" fill="white"/>
<g opacity="0.2">
<path d="M554.47 295.395H604.67C608.257 295.395 610.089 296.128 611.899 296.852C611.954 296.874 612.009 296.897 612.064 296.919C613.957 297.675 615.875 298.393 619.698 298.22C631.013 297.708 646.523 295.345 660.359 289.748C674.126 284.179 686.279 275.389 690.948 261.992L732.874 268.979C728.936 283.351 724.024 294.962 716.855 304.304C709.646 313.696 700.144 320.806 687.022 326.113C660.792 336.723 620.123 340.12 554.47 340.128V295.395Z" stroke="white" stroke-width="0.470882"/>
<path d="M555.734 259.096H604.67C608.969 259.096 612.619 259.027 615.442 257.747C618.146 256.521 619.913 254.297 621.079 250.728L731.331 270.547C727.464 286.05 722.667 298.654 715.796 308.88C708.717 319.417 699.393 327.494 686.47 333.599C660.701 345.773 620.665 350.1 555.734 350.165V259.096Z" stroke="white" stroke-width="3"/>
<path d="M649.418 300.588L653.09 279.48L660.643 280.794C662.789 281.167 664.362 281.909 665.364 283.019C666.377 284.121 666.723 285.596 666.402 287.442C666.197 288.621 665.761 289.551 665.095 290.231C664.431 290.902 663.668 291.307 662.807 291.446L662.797 291.504C663.754 291.96 664.482 292.669 664.981 293.632C665.481 294.595 665.607 295.787 665.36 297.208C665.032 299.092 664.143 300.451 662.694 301.285C661.256 302.11 659.483 302.339 657.377 301.972L649.418 300.588ZM653.763 298.446L657.46 299.089C658.639 299.295 659.557 299.141 660.214 298.628C660.871 298.115 661.29 297.336 661.471 296.292C661.653 295.248 661.522 294.369 661.079 293.655C660.636 292.941 659.824 292.481 658.645 292.276L654.949 291.633L653.763 298.446ZM655.39 289.095L658.71 289.673C659.87 289.875 660.753 289.75 661.359 289.298C661.965 288.845 662.354 288.131 662.523 287.155C662.692 286.189 662.564 285.405 662.141 284.803C661.718 284.202 660.926 283.8 659.767 283.599L656.447 283.021L655.39 289.095Z" fill="white"/>
<path d="M631.816 297.526L635.488 276.418L642.94 277.714C645.163 278.101 646.791 278.987 647.825 280.372C648.86 281.747 649.205 283.425 648.861 285.406C648.511 287.416 647.603 288.916 646.136 289.906C644.67 290.895 642.834 291.198 640.631 290.815L637.122 290.205L635.73 298.207L631.816 297.526ZM637.617 287.363L640.763 287.91C642.058 288.136 643.026 287.951 643.667 287.355C644.309 286.76 644.724 285.916 644.914 284.824C645.103 283.741 644.994 282.821 644.588 282.064C644.182 281.306 643.332 280.815 642.036 280.589L638.891 280.042L637.617 287.363ZM642.935 299.461L639.891 289.058L643.843 289.178L647.285 300.217L642.935 299.461Z" fill="white"/>
</g>
<g opacity="0.2">
<path d="M316.671 295.395H266.471C262.884 295.395 261.052 296.128 259.242 296.852C259.187 296.874 259.132 296.897 259.076 296.919C257.184 297.675 255.266 298.393 251.443 298.22C240.128 297.708 224.618 295.345 210.782 289.748C197.015 284.179 184.861 275.389 180.193 261.992L138.267 268.979C142.205 283.351 147.116 294.962 154.286 304.304C161.495 313.696 170.997 320.806 184.119 326.113C210.349 336.723 251.018 340.12 316.671 340.128V295.395Z" stroke="white" stroke-width="0.470882"/>
<path d="M315.406 259.096H266.471C262.171 259.096 258.521 259.027 255.699 257.747C252.995 256.521 251.227 254.297 250.062 250.728L139.809 270.547C143.677 286.05 148.474 298.654 155.344 308.88C162.423 319.417 171.748 327.494 184.671 333.599C210.439 345.773 250.476 350.1 315.406 350.165V259.096Z" stroke="white" stroke-width="3"/>
<path d="M216.397 300.014L212.676 278.915L220.226 277.583C222.371 277.205 224.103 277.367 225.422 278.071C226.75 278.763 227.576 280.032 227.901 281.877C228.109 283.056 228.016 284.078 227.621 284.945C227.224 285.802 226.645 286.442 225.882 286.865L225.893 286.923C226.947 287.026 227.873 287.446 228.67 288.182C229.467 288.918 229.991 289.996 230.241 291.416C230.574 293.3 230.2 294.88 229.12 296.156C228.048 297.421 226.459 298.239 224.353 298.611L216.397 300.014ZM219.756 296.523L223.451 295.871C224.63 295.663 225.441 295.206 225.884 294.501C226.328 293.795 226.457 292.92 226.273 291.877C226.089 290.833 225.667 290.051 225.008 289.53C224.348 289.009 223.429 288.852 222.25 289.06L218.555 289.712L219.756 296.523ZM218.108 287.176L221.426 286.591C222.585 286.386 223.373 285.968 223.79 285.337C224.207 284.706 224.329 283.902 224.157 282.926C223.986 281.96 223.6 281.266 222.998 280.845C222.395 280.423 221.514 280.314 220.355 280.519L217.037 281.104L218.108 287.176Z" fill="white"/>
<path d="M201.093 302.713L197.371 281.614L201.284 280.924L204.461 298.937L213.388 297.362L213.932 300.449L201.093 302.713Z" fill="white"/>
</g>
<path opacity="0.2" d="M738.496 267.55C773.949 266.797 826.098 225.171 847.741 204.452" stroke="white" stroke-width="0.941764"/>
<path opacity="0.2" d="M132.77 267.55C96.9141 266.797 44.1732 225.171 22.2846 204.452" stroke="white" stroke-width="0.941764"/>
<rect opacity="0.2" x="286.862" y="186.385" width="303.719" height="71.3387" stroke="white" stroke-width="0.470882"/>
<path opacity="0.2" d="M555.254 380.791C555.254 377.724 557.741 375.238 560.808 375.238H580.779C584.938 375.238 588.712 372.8 590.422 369.009V369.009C591.421 364.82 588.902 363.8 597.967 362.387L462.235 364.13C457.929 364.13 465.603 364.82 466.602 369.008V369.008C468.313 372.8 472.086 375.238 476.246 375.238H496.867C499.934 375.238 502.421 377.724 502.421 380.791V399.192C502.421 401.032 500.929 402.524 499.088 402.524H481.971C477.665 402.524 474.489 406.546 475.488 410.735L477.485 419.105C477.962 421.106 479.75 422.518 481.806 422.518H575.218C577.275 422.518 579.063 421.106 579.54 419.105L581.536 410.735C582.535 406.546 579.36 402.524 575.054 402.524H558.587C556.746 402.524 555.254 401.032 555.254 399.192V380.791Z" stroke="white" stroke-width="2"/>
<path opacity="0.2" d="M434.843 183.524C440.433 183.501 445.479 183.478 449.8 183.457V183.579C486.7 183.698 553.442 183.826 581.442 183.524C610.121 183.524 618.178 162.929 630.922 131.253C634.619 122.063 637.924 113.846 640.773 107.939C663.847 60.0943 695.459 47.1582 719.646 38.9172C735.185 33.6227 752.372 31.6619 774.268 33.6227C793.275 35.3248 809.036 42.236 821.827 49.5055C832.192 55.3956 866.06 75.5146 866.06 138.236C866.06 200.958 788.835 296.036 769.058 319.93C749.281 343.825 721.369 351.774 681.474 357.763C651.166 362.312 543.19 363.963 434.843 363.626C326.495 363.963 218.519 362.312 188.211 357.763C148.316 351.774 120.404 343.825 100.627 319.93C80.8497 296.036 3.625 200.958 3.625 138.236C3.625 75.5146 37.4933 55.3956 47.8576 49.5055C60.6491 42.236 76.4097 35.3248 95.4167 33.6227C117.313 31.6619 134.5 33.6227 150.039 38.9172C174.226 47.1582 205.839 60.0943 228.912 107.939C231.761 113.846 235.066 122.063 238.763 131.253C251.507 162.929 259.314 183.524 288.243 183.524C316.243 183.826 382.985 183.698 419.885 183.579V183.457C424.206 183.478 429.252 183.501 434.843 183.524Z" stroke="white" stroke-width="6"/>
<path opacity="0.2" d="M143.078 344.643L143.455 343.716L142.381 345.359L143.078 344.643ZM155.819 369.008L154.847 369.24L154.869 369.332L154.908 369.419L155.819 369.008ZM164.705 410.734L165.678 410.502L164.705 410.734ZM166.702 419.105L165.729 419.337H165.729L166.702 419.105ZM268.757 419.105L267.785 418.873V418.873L268.757 419.105ZM270.754 410.734L269.781 410.502L270.754 410.734ZM279.64 369.008L280.551 369.419L280.59 369.332L280.612 369.24L279.64 369.008ZM279.697 368.767L280.67 368.998L280.67 368.998L279.697 368.767ZM284.95 362.351L285.216 363.315L284.974 361.351L284.95 362.351ZM188.211 356.563L188.389 355.579L188.211 356.563ZM142.381 345.359C151.153 353.89 153.987 365.636 154.847 369.24L156.792 368.776C155.93 365.159 152.998 352.894 143.775 343.926L142.381 345.359ZM154.908 369.419C156.78 373.569 160.91 376.237 165.463 376.237V374.237C161.697 374.237 158.28 372.03 156.731 368.597L154.908 369.419ZM165.463 376.237H186.084V374.237H165.463V376.237ZM186.084 376.237C188.599 376.237 190.638 378.276 190.638 380.791H192.638C192.638 377.171 189.704 374.237 186.084 374.237V376.237ZM190.638 380.791V399.191H192.638V380.791H190.638ZM190.638 399.191C190.638 400.479 189.594 401.523 188.306 401.523V403.523C190.698 403.523 192.638 401.584 192.638 399.191H190.638ZM188.306 401.523H171.188V403.523H188.306V401.523ZM171.188 401.523C166.236 401.523 162.584 406.149 163.733 410.966L165.678 410.502C164.829 406.942 167.528 403.523 171.188 403.523V401.523ZM163.733 410.966L165.729 419.337L167.674 418.873L165.678 410.502L163.733 410.966ZM165.729 419.337C166.313 421.788 168.504 423.517 171.023 423.517V421.517C169.43 421.517 168.044 420.423 167.674 418.873L165.729 419.337ZM171.023 423.517H264.435V421.517H171.023V423.517ZM264.435 423.517C266.955 423.517 269.145 421.788 269.73 419.337L267.785 418.873C267.415 420.423 266.029 421.517 264.435 421.517V423.517ZM269.73 419.337L271.726 410.966L269.781 410.502L267.785 418.873L269.73 419.337ZM271.726 410.966C272.875 406.149 269.223 401.523 264.271 401.523V403.523C267.931 403.523 270.63 406.942 269.781 410.502L271.726 410.966ZM264.271 401.523H247.804V403.523H264.271V401.523ZM247.804 401.523C246.516 401.523 245.472 400.479 245.472 399.191H243.472C243.472 401.584 245.411 403.523 247.804 403.523V401.523ZM245.472 399.191V380.791H243.472V399.191H245.472ZM245.472 380.791C245.472 378.276 247.51 376.237 250.025 376.237V374.237C246.406 374.237 243.472 377.171 243.472 380.791H245.472ZM250.025 376.237H269.996V374.237H250.025V376.237ZM269.996 376.237C274.549 376.237 278.679 373.569 280.551 369.419L278.728 368.597C277.179 372.03 273.762 374.237 269.996 374.237V376.237ZM280.612 369.24C280.632 369.158 280.651 369.078 280.67 368.998L278.724 368.535C278.705 368.615 278.686 368.695 278.667 368.776L280.612 369.24ZM280.67 368.998C281.028 367.49 281.311 366.347 281.923 365.422C282.493 364.56 283.408 363.813 285.216 363.315L284.684 361.387C282.502 361.988 281.139 362.981 280.254 364.319C279.411 365.594 279.063 367.109 278.724 368.535L280.67 368.998ZM284.974 361.351C239.337 360.23 203.756 358.349 188.389 355.579L188.034 357.547C203.585 360.35 239.334 362.231 284.925 363.351L284.974 361.351ZM188.389 355.579C171.252 352.491 156.39 348.977 143.455 343.716L142.701 345.569C155.83 350.908 170.853 354.451 188.034 357.547L188.389 355.579Z" fill="white"/>
<g opacity="0.2">
<mask id="path-38-inside-1_701_101981" fill="white">
<path fill-rule="evenodd" clip-rule="evenodd" d="M308.17 361.524L307.942 375.691C307.908 377.771 309.568 379.485 311.648 379.518L341.78 380.004C343.86 380.038 345.574 378.379 345.608 376.298L345.837 362.042C332.875 361.914 320.267 361.742 308.17 361.524Z"/>
</mask>
<path d="M307.942 375.691L306.059 375.661L307.942 375.691ZM308.17 361.524L308.204 359.641L306.318 359.607L306.287 361.494L308.17 361.524ZM311.648 379.518L311.678 377.635H311.678L311.648 379.518ZM341.78 380.004L341.75 381.888L341.78 380.004ZM345.608 376.298L347.491 376.329V376.329L345.608 376.298ZM345.837 362.042L347.721 362.073L347.751 360.178L345.856 360.159L345.837 362.042ZM309.825 375.721L310.054 361.554L306.287 361.494L306.059 375.661L309.825 375.721ZM311.678 377.635C310.638 377.618 309.808 376.762 309.825 375.721L306.059 375.661C306.008 378.781 308.497 381.351 311.617 381.402L311.678 377.635ZM341.811 378.121L311.678 377.635L311.617 381.402L341.75 381.888L341.811 378.121ZM343.724 376.268C343.708 377.308 342.851 378.138 341.811 378.121L341.75 381.888C344.87 381.938 347.441 379.449 347.491 376.329L343.724 376.268ZM343.954 362.012L343.724 376.268L347.491 376.329L347.721 362.073L343.954 362.012ZM345.856 360.159C332.898 360.03 320.295 359.858 308.204 359.641L308.136 363.407C320.239 363.625 332.852 363.797 345.819 363.926L345.856 360.159Z" fill="white" mask="url(#path-38-inside-1_701_101981)"/>
</g>
<path opacity="0.2" d="M583.002 369.055L582.575 364.308C629.211 363.194 665.85 361.298 681.641 358.452C709.844 353.37 732.237 347.086 750.005 333.596C750.257 333.965 750.423 334.4 750.475 334.876L752.524 353.644C753.251 360.307 748.859 366.461 742.318 367.873C690.67 379.028 655.132 382.702 595.627 380.989C589.009 380.799 583.596 375.659 583.002 369.055L582.064 369.139L583.002 369.055Z" stroke="white" stroke-width="1.88353"/>
<path opacity="0.2" d="M640.197 362.509C658.823 361.507 673.197 360.261 681.642 358.739L681.642 358.739C689.869 357.256 697.598 355.671 704.858 353.838L706.037 366.949C706.445 371.482 703.201 375.528 698.692 376.082C681.694 378.171 668.782 379.318 650.019 380.433C645.468 380.703 641.528 377.296 641.119 372.751L640.197 362.509Z" stroke="white" stroke-width="1.88353"/>
<path opacity="0.2" d="M271.219 375.235L271.437 361.749C303.808 362.698 342.255 363.218 382.554 363.368L382.333 377.027C382.308 378.587 381.023 379.832 379.463 379.806L273.999 378.106C272.439 378.081 271.194 376.796 271.219 375.235L271.219 375.235Z" stroke="white" stroke-width="1.88353"/>
</svg>
