<svg width="870" height="614" fill="none" xmlns="http://www.w3.org/2000/svg"><path d="M551.602 50.676c-81.298.221-152.202.47-233.557-.026V25.415h233.557v25.26Z" stroke="#fff" stroke-width="1.884"/><path d="M318.045 26.186h233.557" stroke="#fff" stroke-width="5.651"/><path d="M143.572 57.476c-1.723 2.549-3.26 5.263-4.685 8.217a77.99 77.99 0 0 1 2.386-1.715 50.775 50.775 0 0 1 2.299-6.502Zm106.636-13.827a38.833 38.833 0 0 0-4.278-8.644l-5.803-8.778-8.086-16.459c8.263-1.981 16.368-3.477 24.006-4.455l2.987-.384h.002c20.396-2.633 33.815-4.365 37.4 4.621l.488 1.225.063.16c4.222 10.613 9.503 13.815 19.174 14.48v25.317c-30.124 0-50.736-3.363-65.953-7.083Z" stroke="#fff" stroke-width="1.884"/><path d="M232.041 10.54c8.262-1.981 16.367-3.478 24.006-4.455a2903 2903 0 0 0 2.986-.385h.002c20.397-2.632 33.816-4.364 37.4 4.622l.488 1.225.063.159c4.223 10.614 9.504 13.816 19.175 14.48" stroke="#fff" stroke-width="5.651"/><path d="M727.413 59.19a50.745 50.745 0 0 1 2.086 6.69 78.01 78.01 0 0 1 2.434 1.851c-1.387-3.081-2.867-5.903-4.52-8.542Zm-107.388-15.4c-14.315 3.68-34.582 6.968-66.316 6.968V25.415c9.671-.665 14.952-3.867 19.174-14.48l.024-.06.527-1.325c3.585-8.986 17.004-7.254 37.4-4.622h.002l.009.002 2.978.383c7.752.992 15.984 2.519 24.374 4.544l-8.042 16.37-5.803 8.778a38.793 38.793 0 0 0-4.327 8.785Z" stroke="#fff" stroke-width="1.884"/><path d="M553.709 26.187c9.671-.665 14.952-3.867 19.174-14.481l.024-.06.527-1.324c3.585-8.986 17.004-7.254 37.4-4.622h.002l.009.001c.977.126 1.969.255 2.978.384 7.752.992 15.984 2.518 24.374 4.543" stroke="#fff" stroke-width="5.651"/><path d="M613.9 58.483H256.696c-6.997 39.477-37.039 71.803-77.248 80.873-23.439 5.287-45.513-13.099-44.553-37.107l1.081-27.017c-14.145 16.193-24.929 38.292-35.005 60.54C81.194 179.44 3.97 353.206 3.97 467.836c0 114.63 65.923 138.284 73.457 140.104.936.226 1.916.522 2.937.831 3.078.931 6.535 1.976 10.322 1.562 17.76 1.471 51.397-14.424 74.313-43.182 9.147-11.478 17.132-30.344 24.009-46.589 3.82-9.027 7.299-17.244 10.444-22.936 6.055-10.959 10.873-19.68 14.519-23.71a113.792 113.792 0 0 1 10.387-10.093c14.349-10.093 30.488-16.51 50.84-16.912 28-.552 108.132-.441 145.032-.223v.223c4.349-.04 9.434-.082 15.068-.123a7950.4 7950.4 0 0 1 15.068.123v-.223c36.9-.218 117.032-.329 145.032.223 20.287.4 36.388 6.778 50.703 16.816a113.78 113.78 0 0 1 10.499 10.189c3.646 4.03 8.465 12.751 14.52 23.71 3.474 6.288 6.183 14.487 9.063 23.206v.001c4.419 13.375 9.241 27.975 17.855 38.784 22.82 28.637 63.072 51.321 81.567 50.679 3.906.507 7.466-.569 10.626-1.525 1.022-.309 2.001-.605 2.937-.831 7.534-1.82 73.458-25.474 73.458-140.104 0-114.63-77.225-288.396-97.002-332.064-9.641-21.288-21.051-42.404-34.916-58.357l.993 24.834c.96 24.008-21.114 42.394-44.553 37.107-40.209-9.07-70.251-41.396-77.248-80.873Z" stroke="#fff" stroke-width=".942"/><path d="M135.976 75.232c-14.145 16.193-24.929 38.292-35.005 60.539C81.194 179.44 3.97 353.205 3.97 467.836c0 114.63 65.923 138.284 73.457 140.104.936.226 1.916.522 2.937.831 3.078.931 6.535 1.976 10.322 1.562 17.76 1.47 51.397-14.424 74.313-43.182 9.147-11.478 17.132-30.344 24.009-46.589 3.82-9.027 7.299-17.245 10.444-22.936 6.055-10.959 10.873-19.68 14.519-23.71a113.792 113.792 0 0 1 10.387-10.093c14.349-10.093 30.488-16.511 50.84-16.912 28-.552 108.132-.441 145.032-.223v.223c4.349-.04 9.434-.082 15.068-.123a7950.4 7950.4 0 0 1 15.068.123v-.223c36.9-.218 117.032-.329 145.032.223 20.287.4 36.388 6.778 50.703 16.816a113.65 113.65 0 0 1 10.499 10.189c3.646 4.03 8.465 12.751 14.52 23.71 3.474 6.288 6.183 14.486 9.063 23.206v.001c4.419 13.375 9.241 27.974 17.855 38.784 22.82 28.636 63.072 51.321 81.567 50.679 3.906.507 7.466-.57 10.626-1.525 1.022-.309 2.001-.605 2.937-.831 7.534-1.82 73.458-25.474 73.458-140.104 0-114.631-77.225-288.396-97.002-332.065-9.641-21.287-21.051-42.404-34.916-58.356" stroke="#fff" stroke-width="6" stroke-linecap="round" stroke-linejoin="round"/><path d="M680.774 137.592c0 91.148 28.253 153.813 54.623 222.175 26.369 68.362 45.204 159.51 43.321 250.659M187.923 137.592c0 91.148-28.253 153.813-54.622 222.175-26.37 68.362-45.205 159.51-43.322 250.659" stroke="#fff" stroke-width=".471"/><path d="M561.642 431.893c0 1.546-1.266 3.073-3.602 4.24-2.307 1.154-5.529 1.882-9.112 1.882-3.584 0-6.805-.728-9.113-1.882-2.335-1.167-3.601-2.694-3.601-4.24 0-1.546 1.266-3.072 3.601-4.24 2.308-1.154 5.529-1.881 9.113-1.881 3.583 0 6.805.727 9.112 1.881 2.336 1.168 3.602 2.694 3.602 4.24Z" stroke="#fff" stroke-width=".942"/><path d="M554.108 430.009c0 .506-.423 1.091-1.395 1.577-.944.472-2.282.778-3.785.778-1.503 0-2.841-.306-3.785-.778-.973-.486-1.395-1.071-1.395-1.577 0-.505.422-1.09 1.395-1.576.944-.472 2.282-.778 3.785-.778 1.503 0 2.841.306 3.785.778.972.486 1.395 1.071 1.395 1.576Z" stroke="#fff" stroke-width=".942"/><rect x="375.172" y="422.946" width="124.637" height="17.423" rx="3.296" stroke="#fff" stroke-width=".942"/><rect x="373.053" y="418.473" width="128.875" height="23.073" rx="4.473" stroke="#fff" stroke-width=".471"/><path d="m238.804 36.092.048.088.058.08 5.803 8.05a32.654 32.654 0 0 1 5.004 10.362c1.918 6.901 1.421 14.18-1.426 20.815l-1.058 2.467-4.381 9.425a44.196 44.196 0 0 1-3.998 6.89l-1.826 2.582c-11.419 16.155-28.314 28.454-48.116 34.992l-3.831 1.265c-11.022 3.638-23.269 2.265-32.997-3.682-3.995-2.442-7.046-5.943-8.759-10.006l-.53-1.259c-2.2-5.216-3.185-10.791-2.898-16.369l1.193-23.118c.891-9.59 5.124-18.683 12.101-25.929l.585-.607a77.392 77.392 0 0 0 7.964-9.734l20.202-29.289-1.184-.816 1.184.816a12.823 12.823 0 0 1 2.179-2.421l-.98-1.136.98 1.136a14.115 14.115 0 0 1 5.436-2.885l4.932-1.375a37.076 37.076 0 0 1 19.717-.031l5.493 1.511c1.8.495 3.425 1.389 4.734 2.59a10.26 10.26 0 0 1 2.119 2.714l12.252 22.874Zm488.683 82.069 1.383.583-1.383-.583-.53 1.259c-1.713 4.063-4.765 7.564-8.759 10.006-9.728 5.947-21.976 7.32-32.997 3.682l-3.831-1.265c-19.802-6.538-36.697-18.837-48.116-34.992l-1.826-2.582a44.282 44.282 0 0 1-3.999-6.89l-4.38-9.425-1.058-2.467-1.379.592 1.379-.592c-2.847-6.634-3.344-13.914-1.426-20.815a32.654 32.654 0 0 1 5.004-10.362l5.803-8.05.058-.08.047-.088 12.253-22.874-1.322-.708 1.322.708c.535-1 1.25-1.917 2.119-2.714l-1.014-1.106 1.014 1.106c1.309-1.201 2.934-2.095 4.733-2.59l5.494-1.511a37.076 37.076 0 0 1 19.717.031l4.932 1.375a14.115 14.115 0 0 1 5.436 2.885 12.826 12.826 0 0 1 2.179 2.421l1.235-.851-1.235.851 20.202 29.289a77.392 77.392 0 0 0 7.964 9.734l.585.607 1.08-1.04-1.08 1.04c6.977 7.246 11.21 16.339 12.101 25.929l1.192 23.118c.288 5.578-.697 11.153-2.897 16.369Z" stroke="#fff" stroke-width="3"/></svg>