<svg width="870" height="613" fill="none" xmlns="http://www.w3.org/2000/svg"><path d="M68.972 117.273c19.777-45.205 42.379-68.323 87.584-71.574 192.725-13.863 364.751-13.773 557.484 0 40.496 2.893 67.807 26.37 87.584 71.574 19.777 45.204 65.002 225.081 65.002 343.744 0 118.662-65.924 143.148-73.458 145.032-.936.234-1.915.54-2.937.86-1.5.47-3.091.968-4.766 1.305-.916.481-1.957.845-3.138 1.075-16.952 3.296-60.273-20.248-84.288-50.384-8.614-10.809-13.437-25.409-17.855-38.784-2.88-8.72-5.589-16.919-9.063-23.207-6.056-10.959-10.874-19.68-14.52-23.71-8.947-9.888-30.607-30.136-58.389-30.136H272.361c-27.782 0-49.442 20.248-58.389 30.136-3.646 4.03-8.464 12.751-14.52 23.71-3.145 5.691-6.623 13.909-10.444 22.936-6.876 16.245-14.861 35.111-24.008 46.589-24.015 30.136-59.802 46.146-76.754 42.85-1.187-.231-2.233-.598-3.152-1.082-1.662-.338-3.24-.832-4.73-1.298-1.021-.32-2-.626-2.937-.86-7.534-1.884-73.457-26.37-73.457-145.032 0-118.663 45.224-298.54 65.002-343.744Z" stroke="#fff" stroke-width="6"/><path d="M271.8 21.833c8.826 7.776 18.914 14.753 39.09 15.313a4390.08 4390.08 0 0 1 82.264-1.57c-77.252.892-155.073 4.259-236.598 10.123-28.33 2.038-47.783 11.878-63.226 30.067 16.906-30.95 37.951-47.157 73.565-49.859 15.482-1.174 29.658-2.834 43.581-4.463 16.248-1.902 32.151-3.764 49.382-4.767 2.846-.166 5.765.76 8.093 2.406l1.026.725c1.407.992 2.633 1.857 2.823 2.025ZM778.394 78.39c-18.073-32.748-41.891-50.01-74.694-52.483-15.521-1.17-29.731-2.829-43.689-4.458-16.221-1.893-32.101-3.747-49.304-4.748-2.842-.165-5.759.758-8.085 2.4l-1.001.707c-1.408.993-2.637 1.86-2.825 2.025-8.827 7.776-21.016 14.815-39.09 15.313a5222.115 5222.115 0 0 0-68.3-1.368c72.673 1.133 146.018 4.446 222.634 9.921 26.61 1.901 47.527 12.69 64.354 32.69Z" stroke="#fff" stroke-width="2"/></svg>