<svg width="870" height="614" fill="none" xmlns="http://www.w3.org/2000/svg"><circle cx="217.75" cy="174.458" r="79.579" stroke="#fff" stroke-width=".942"/><circle cx="217.75" cy="174.458" r="63.569" stroke="#fff" stroke-width=".942"/><circle cx="217.75" cy="174.459" r="51.797" stroke="#fff" stroke-width="6"/><circle cx="217.75" cy="174.459" r="30.607" stroke="#fff" stroke-width=".942"/><circle cx="528.532" cy="315.724" r="79.579" stroke="#fff" stroke-width=".942"/><circle cx="528.532" cy="315.724" r="63.569" stroke="#fff" stroke-width=".942"/><circle cx="528.533" cy="315.723" r="51.797" stroke="#fff" stroke-width="6"/><circle cx="528.533" cy="315.723" r="30.607" stroke="#fff" stroke-width=".942"/><g opacity=".2" stroke="#fff"><circle cx="326.995" cy="316.664" r="71.103" stroke-width=".942"/><circle cx="326.995" cy="316.666" r="56.035" stroke-width=".942"/><path d="M377.895 334.56c1.621 0 3.073-1.034 3.511-2.595a56.566 56.566 0 0 0 2.095-15.299c0-5.302-.73-10.433-2.095-15.299-.438-1.561-1.89-2.595-3.511-2.595h-31.123a1.883 1.883 0 0 1-1.883-1.883v-31.123c0-1.621-1.034-3.072-2.595-3.51a56.527 56.527 0 0 0-15.299-2.096c-5.302 0-10.433.73-15.299 2.096-1.561.438-2.594 1.889-2.594 3.51v31.123c0 1.04-.844 1.884-1.884 1.884h-31.122c-1.622 0-3.073 1.033-3.511 2.594a56.527 56.527 0 0 0-2.096 15.299c0 5.302.73 10.433 2.096 15.299.438 1.561 1.889 2.595 3.511 2.595h31.122c1.04 0 1.884.843 1.884 1.883v31.123c0 1.621 1.033 3.072 2.594 3.51a56.527 56.527 0 0 0 15.299 2.096c5.302 0 10.433-.73 15.299-2.096 1.561-.438 2.595-1.889 2.595-3.51v-31.123c0-1.04.843-1.883 1.883-1.883h31.123Z" stroke-width="3"/></g><g opacity=".2"><circle cx="660.38" cy="117.011" r="26.84" stroke="#fff" stroke-width="2.825"/><circle cx="660.38" cy="231.907" r="26.84" stroke="#fff" stroke-width="2.825"/><circle cx="602.933" cy="173.517" r="26.84" stroke="#fff" stroke-width="2.825"/><circle cx="716.886" cy="173.517" r="26.84" stroke="#fff" stroke-width="2.825"/><path d="M656.604 133.022v-11.189l-9.571-18.271h6.03l5.604 11.028c.176.364.331.701.466 1.011.148.311.29.641.425.992h.101c.135-.351.27-.681.404-.992.149-.31.317-.647.506-1.011l5.605-11.028h5.422l-9.469 18.19v11.27h-5.523Zm-66.118 55.563 9.915-16.875h.971l7.021-12.585h5.341l-9.287 16.126h-.93l-7.608 13.334h-5.423Zm.486-29.46h6.11l7.163 12.565h.04l9.935 16.895h-6.151l-7.668-13.334h-.041l-9.388-16.126Zm55.919 86.907 9.995-29.52h6.009l9.975 29.52h-5.605l-6.859-21.387a33.426 33.426 0 0 1-.404-1.375 89.843 89.843 0 0 1-.304-1.214h-.101c-.094.391-.196.795-.303 1.214-.108.404-.243.863-.405 1.375l-6.738 21.387h-5.26Zm5.179-6.778 1.052-3.925h13.253l1.093 3.925H652.07Zm55.121-50.669v-29.46h10.542c2.927 0 5.166.634 6.717 1.902 1.552 1.268 2.327 3.163 2.327 5.685 0 1.66-.371 3.035-1.113 4.128-.728 1.079-1.659 1.821-2.792 2.226v.081c1.403.377 2.556 1.166 3.46 2.367.904 1.187 1.356 2.785 1.356 4.795 0 2.617-.85 4.654-2.55 6.111-1.686 1.443-3.972 2.165-6.859 2.165h-11.088Zm5.382-3.905h4.958c1.591 0 2.765-.425 3.52-1.275.756-.85 1.133-2.003 1.133-3.46 0-1.47-.377-2.637-1.133-3.5-.755-.877-1.929-1.316-3.52-1.316h-4.958v9.551Zm0-12.97h4.432c1.578 0 2.718-.384 3.419-1.153.701-.769 1.052-1.841 1.052-3.217 0-1.376-.351-2.422-1.052-3.136-.701-.715-1.841-1.08-3.419-1.093h-4.432v8.599Z" fill="#fff"/></g><path opacity=".2" d="M299.8 87.163c0-8.794 7.128-15.923 15.922-15.923s15.923 7.129 15.923 15.923v22.409c0 8.794-7.129 15.922-15.923 15.922s-15.922-7.128-15.922-15.922v-22.41Zm245.506.589c0-9.12 7.392-16.512 16.512-16.512 9.119 0 16.512 7.393 16.512 16.512v21.23c0 9.12-7.393 16.512-16.512 16.512-9.12 0-16.512-7.392-16.512-16.512v-21.23Z" stroke="#fff"/><path opacity=".2" d="M68.972 117.953c19.777-45.205 42.379-68.323 87.584-71.575 192.725-13.862 364.751-13.772 557.484 0 40.496 2.894 67.807 26.37 87.584 71.575 19.777 45.204 65.002 225.081 65.002 343.744 0 118.662-65.924 143.148-73.458 145.031-.936.234-1.915.541-2.937.861-1.5.469-3.091.967-4.766 1.305-.916.481-1.957.845-3.138 1.075-16.952 3.296-60.273-20.248-84.288-50.385-8.614-10.809-13.437-25.409-17.855-38.783-2.88-8.72-5.589-16.919-9.063-23.208-6.056-10.959-10.874-19.68-14.52-23.709-8.947-9.889-30.607-30.137-58.389-30.137H272.361c-27.782 0-49.442 20.248-58.389 30.137-3.646 4.029-8.464 12.75-14.52 23.709-3.145 5.692-6.623 13.91-10.444 22.936-6.876 16.246-14.861 35.111-24.008 46.59-24.015 30.136-59.802 46.146-76.754 42.85-1.187-.231-2.233-.598-3.152-1.083-1.662-.337-3.24-.831-4.73-1.297-1.021-.32-2-.627-2.937-.861-7.534-1.883-73.457-26.369-73.457-145.031 0-118.663 45.224-298.54 65.002-343.744Z" stroke="#fff" stroke-width="6"/><path d="M271.8 22.512c8.826 7.777 18.914 14.754 39.09 15.314a4390.08 4390.08 0 0 1 82.264-1.57c-77.252.891-155.073 4.259-236.598 10.123-28.33 2.038-47.783 11.878-63.226 30.067 16.906-30.95 37.951-47.157 73.565-49.86 15.482-1.173 29.658-2.833 43.581-4.463 16.248-1.902 32.151-3.763 49.382-4.766 2.846-.166 5.765.76 8.093 2.405l1.026.725c1.407.993 2.633 1.858 2.823 2.026ZM778.394 79.07c-18.073-32.748-41.891-50.011-74.694-52.483-15.521-1.17-29.731-2.829-43.689-4.458-16.221-1.894-32.101-3.747-49.304-4.748-2.842-.165-5.759.758-8.085 2.4l-1.001.707c-1.408.993-2.637 1.86-2.825 2.024-8.827 7.777-21.016 14.816-39.09 15.314a5222.115 5222.115 0 0 0-68.3-1.368c72.673 1.133 146.018 4.446 222.634 9.92 26.61 1.902 47.527 12.69 64.354 32.691Z" opacity=".2" stroke="#fff" stroke-width="2"/></svg>