<svg width="870" height="613" fill="none" xmlns="http://www.w3.org/2000/svg"><circle cx="217.75" cy="173.927" r="79.579" stroke="#fff" stroke-width=".942"/><circle cx="217.75" cy="173.927" r="63.569" stroke="#fff" stroke-width=".942"/><circle cx="217.75" cy="173.928" r="50.297" stroke="#fff" stroke-width="3"/><circle cx="217.75" cy="173.928" r="30.607" stroke="#fff" stroke-width=".942"/><circle cx="528.532" cy="315.193" r="79.579" stroke="#fff" stroke-width=".942"/><circle cx="528.532" cy="315.192" r="63.569" stroke="#fff" stroke-width=".942"/><circle cx="528.533" cy="315.192" r="50.297" stroke="#fff" stroke-width="3"/><circle cx="528.533" cy="315.191" r="30.607" stroke="#fff" stroke-width=".942"/><circle cx="326.995" cy="316.133" r="71.103" stroke="#fff" stroke-width=".942"/><circle cx="326.995" cy="316.135" r="56.035" stroke="#fff" stroke-width=".942"/><path d="M377.895 334.028c1.621 0 3.073-1.034 3.511-2.594a56.566 56.566 0 0 0 2.095-15.299c0-5.302-.73-10.433-2.095-15.299-.438-1.561-1.89-2.595-3.511-2.595h-31.123a1.883 1.883 0 0 1-1.883-1.883v-31.123c0-1.621-1.034-3.073-2.595-3.511a56.566 56.566 0 0 0-15.299-2.095c-5.302 0-10.433.73-15.299 2.095-1.561.438-2.594 1.89-2.594 3.511v31.123c0 1.04-.844 1.883-1.884 1.883h-31.122c-1.622 0-3.073 1.034-3.511 2.595a56.527 56.527 0 0 0-2.096 15.299c0 5.302.73 10.433 2.096 15.299.438 1.56 1.889 2.594 3.511 2.594h31.122c1.04 0 1.884.844 1.884 1.884v31.122c0 1.621 1.033 3.073 2.594 3.511a56.567 56.567 0 0 0 15.299 2.096c5.302 0 10.433-.731 15.299-2.096 1.561-.438 2.595-1.89 2.595-3.511v-31.122c0-1.04.843-1.884 1.883-1.884h31.123Z" stroke="#fff" stroke-width="3"/><circle cx="660.38" cy="116.479" r="26.84" stroke="#fff" stroke-width="2.825"/><circle cx="660.38" cy="231.376" r="26.84" stroke="#fff" stroke-width="2.825"/><circle cx="602.933" cy="172.985" r="26.84" stroke="#fff" stroke-width="2.825"/><circle cx="716.886" cy="172.985" r="26.84" stroke="#fff" stroke-width="2.825"/><path d="M656.604 132.491v-11.189l-9.571-18.271h6.03l5.604 11.027c.176.365.331.702.466 1.012.148.31.29.641.425.991h.101c.135-.35.27-.681.404-.991.149-.31.317-.647.506-1.012l5.605-11.027h5.422l-9.469 18.19v11.27h-5.523Zm-66.118 55.562 9.915-16.874h.971l7.021-12.585h5.341l-9.287 16.126h-.93l-7.608 13.333h-5.423Zm.486-29.459h6.11l7.163 12.565h.04l9.935 16.894h-6.151l-7.668-13.333h-.041l-9.388-16.126Zm55.919 86.907 9.995-29.521h6.009l9.975 29.521h-5.605l-6.859-21.387a32.98 32.98 0 0 1-.404-1.376 82.912 82.912 0 0 1-.304-1.214h-.101c-.094.392-.196.796-.303 1.214-.108.405-.243.864-.405 1.376l-6.738 21.387h-5.26Zm5.179-6.778 1.052-3.926h13.253l1.093 3.926H652.07Zm55.121-50.67v-29.459h10.542c2.927 0 5.166.634 6.717 1.902 1.552 1.268 2.327 3.163 2.327 5.685 0 1.659-.371 3.035-1.113 4.128-.728 1.079-1.659 1.821-2.792 2.225v.081c1.403.378 2.556 1.167 3.46 2.368.904 1.187 1.356 2.785 1.356 4.795 0 2.617-.85 4.654-2.55 6.11-1.686 1.444-3.972 2.165-6.859 2.165h-11.088Zm5.382-3.905h4.958c1.591 0 2.765-.425 3.52-1.274.756-.85 1.133-2.003 1.133-3.46 0-1.471-.377-2.637-1.133-3.501-.755-.876-1.929-1.315-3.52-1.315h-4.958v9.55Zm0-12.969h4.432c1.578 0 2.718-.385 3.419-1.153.701-.769 1.052-1.842 1.052-3.218 0-1.375-.351-2.421-1.052-3.136-.701-.715-1.841-1.079-3.419-1.092h-4.432v8.599Z" fill="#fff"/><path d="M299.8 86.631c0-8.793 7.128-15.922 15.922-15.922s15.923 7.129 15.923 15.922v22.41c0 8.793-7.129 15.922-15.923 15.922s-15.922-7.129-15.922-15.922v-22.41Zm245.506.59c0-9.12 7.392-16.512 16.512-16.512 9.119 0 16.512 7.393 16.512 16.512v21.23c0 9.119-7.393 16.512-16.512 16.512-9.12 0-16.512-7.393-16.512-16.512v-21.23Z" stroke="#fff"/><path d="M68.972 117.421c19.777-45.205 42.379-68.322 87.584-71.574 192.725-13.863 364.751-13.772 557.484 0 40.496 2.894 67.807 26.37 87.584 71.574 19.777 45.205 65.002 225.082 65.002 343.744 0 118.663-65.924 143.148-73.458 145.032-.936.234-1.915.541-2.937.86-1.5.47-3.091.968-4.766 1.305-.916.481-1.957.846-3.138 1.076-16.952 3.296-60.273-20.248-84.288-50.385-8.614-10.809-13.437-25.409-17.855-38.784-2.88-8.719-5.589-16.918-9.063-23.207-6.056-10.959-10.874-19.68-14.52-23.709-8.947-9.889-30.607-30.137-58.389-30.137H272.361c-27.782 0-49.442 20.248-58.389 30.137-3.646 4.029-8.464 12.75-14.52 23.709-3.145 5.692-6.623 13.909-10.444 22.936-6.876 16.245-14.861 35.111-24.008 46.589-24.015 30.137-59.802 46.147-76.754 42.851-1.187-.231-2.233-.598-3.152-1.083-1.662-.337-3.24-.831-4.73-1.298-1.021-.319-2-.626-2.937-.86-7.534-1.884-73.457-26.369-73.457-145.032 0-118.662 45.224-298.539 65.002-343.744Z" stroke="#fff" stroke-width="6"/><path d="M271.8 21.981c8.826 7.777 18.914 14.754 39.09 15.313a4390.08 4390.08 0 0 1 82.264-1.569c-77.252.891-155.073 4.258-236.598 10.123-28.33 2.038-47.783 11.878-63.226 30.067 16.906-30.95 37.951-47.157 73.565-49.86 15.482-1.174 29.658-2.833 43.581-4.463 16.248-1.902 32.151-3.763 49.382-4.767 2.846-.165 5.765.76 8.093 2.406l1.026.725c1.407.993 2.633 1.858 2.823 2.025Zm506.594 56.557c-18.073-32.747-41.891-50.01-74.694-52.482-15.521-1.17-29.731-2.829-43.689-4.458-16.221-1.894-32.101-3.747-49.304-4.748-2.842-.165-5.759.757-8.085 2.4l-1.001.706c-1.408.994-2.637 1.86-2.825 2.025-8.827 7.777-21.016 14.816-39.09 15.313a5220.363 5220.363 0 0 0-68.3-1.367c72.673 1.133 146.018 4.446 222.634 9.92 26.61 1.902 47.527 12.69 64.354 32.691Z" stroke="#fff" stroke-width="2"/></svg>