<svg width="870" height="614" viewBox="0 0 870 614" fill="none" xmlns="http://www.w3.org/2000/svg">
<g opacity="0.2">
<circle cx="217.749" cy="174.458" r="79.5791" stroke="white" stroke-width="0.941764"/>
<circle cx="217.751" cy="174.458" r="63.5691" stroke="white" stroke-width="0.941764"/>
<circle cx="217.75" cy="174.459" r="50.297" stroke="white" stroke-width="3"/>
<circle cx="217.75" cy="174.459" r="30.6073" stroke="white" stroke-width="0.941764"/>
</g>
<g opacity="0.2">
<circle cx="528.53" cy="315.724" r="79.5791" stroke="white" stroke-width="0.941764"/>
<circle cx="528.532" cy="315.724" r="63.5691" stroke="white" stroke-width="0.941764"/>
<circle cx="528.531" cy="315.723" r="50.297" stroke="white" stroke-width="3"/>
<circle cx="528.531" cy="315.723" r="30.6073" stroke="white" stroke-width="0.941764"/>
</g>
<g opacity="0.2">
<circle cx="326.996" cy="316.664" r="71.1032" stroke="white" stroke-width="0.941764"/>
<circle cx="326.998" cy="316.666" r="56.035" stroke="white" stroke-width="0.941764"/>
<path d="M377.898 334.56C379.519 334.56 380.97 333.526 381.408 331.965C382.774 327.099 383.504 321.968 383.504 316.666C383.504 311.364 382.774 306.233 381.408 301.367C380.97 299.806 379.519 298.772 377.898 298.772H346.775C345.735 298.772 344.892 297.929 344.892 296.889V265.766C344.892 264.145 343.858 262.694 342.297 262.256C337.431 260.89 332.3 260.16 326.998 260.16C321.696 260.16 316.565 260.89 311.699 262.256C310.138 262.694 309.105 264.145 309.105 265.766V296.889C309.105 297.929 308.261 298.773 307.221 298.773H276.098C274.477 298.773 273.026 299.806 272.588 301.367C271.222 306.233 270.492 311.364 270.492 316.666C270.492 321.968 271.222 327.099 272.588 331.965C273.026 333.526 274.477 334.56 276.098 334.56H307.221C308.261 334.56 309.105 335.403 309.105 336.443V367.566C309.105 369.187 310.138 370.638 311.699 371.076C316.565 372.442 321.696 373.172 326.998 373.172C332.3 373.172 337.431 372.442 342.297 371.076C343.858 370.638 344.892 369.187 344.892 367.566V336.443C344.892 335.403 345.735 334.56 346.775 334.56H377.898Z" stroke="white" stroke-width="3"/>
</g>
<g opacity="0.2">
<circle cx="660.378" cy="117.011" r="26.8403" stroke="white" stroke-width="2.82529"/>
<circle cx="660.378" cy="231.907" r="26.8403" stroke="white" stroke-width="2.82529"/>
<circle cx="602.933" cy="173.517" r="26.8403" stroke="white" stroke-width="2.82529"/>
<circle cx="716.886" cy="173.517" r="26.8403" stroke="white" stroke-width="2.82529"/>
<path d="M656.602 133.022V121.833L647.031 103.562H653.061L658.665 114.59C658.841 114.954 658.996 115.291 659.131 115.601C659.279 115.912 659.421 116.242 659.556 116.593H659.657C659.792 116.242 659.927 115.912 660.061 115.601C660.21 115.291 660.378 114.954 660.567 114.59L666.172 103.562H671.594L662.125 121.752V133.022H656.602Z" fill="white"/>
<path d="M590.484 188.585L600.399 171.71H601.37L608.391 159.125H613.732L604.445 175.251H603.515L595.907 188.585H590.484ZM590.97 159.125H597.08L604.243 171.69H604.283L614.218 188.585H608.067L600.399 175.251H600.358L590.97 159.125Z" fill="white"/>
<path d="M646.891 246.032L656.886 216.512H662.895L672.87 246.032H667.265L660.406 224.645C660.245 224.133 660.11 223.674 660.002 223.27C659.894 222.851 659.793 222.447 659.698 222.056H659.597C659.503 222.447 659.401 222.851 659.294 223.27C659.186 223.674 659.051 224.133 658.889 224.645L652.151 246.032H646.891ZM652.07 239.254L653.122 235.329H666.375L667.468 239.254H652.07Z" fill="white"/>
<path d="M707.191 188.585V159.125H717.733C720.66 159.125 722.899 159.759 724.45 161.027C726.002 162.295 726.777 164.19 726.777 166.712C726.777 168.372 726.406 169.747 725.664 170.84C724.936 171.919 724.005 172.661 722.872 173.066V173.147C724.275 173.524 725.428 174.313 726.332 175.514C727.236 176.701 727.688 178.299 727.688 180.309C727.688 182.926 726.838 184.963 725.138 186.42C723.452 187.863 721.166 188.585 718.279 188.585H707.191ZM712.573 184.68H717.531C719.122 184.68 720.296 184.255 721.051 183.405C721.807 182.555 722.184 181.402 722.184 179.945C722.184 178.475 721.807 177.308 721.051 176.445C720.296 175.568 719.122 175.129 717.531 175.129H712.573V184.68ZM712.573 171.71H717.005C718.583 171.71 719.723 171.326 720.424 170.557C721.125 169.788 721.476 168.716 721.476 167.34C721.476 165.964 721.125 164.918 720.424 164.204C719.723 163.489 718.583 163.124 717.005 163.111H712.573V171.71Z" fill="white"/>
</g>
<path opacity="0.2" d="M299.797 87.1626C299.797 78.3689 306.926 71.2402 315.719 71.2402V71.2402C324.513 71.2402 331.642 78.3689 331.642 87.1626V109.572C331.642 118.366 324.513 125.494 315.719 125.494V125.494C306.926 125.494 299.797 118.366 299.797 109.572V87.1626Z" stroke="white"/>
<path opacity="0.2" d="M545.305 87.7523C545.305 78.6329 552.697 71.2402 561.817 71.2402V71.2402C570.936 71.2402 578.329 78.6329 578.329 87.7523V108.982C578.329 118.102 570.936 125.494 561.817 125.494V125.494C552.697 125.494 545.305 118.102 545.305 108.982V87.7523Z" stroke="white"/>
<path opacity="0.2" d="M68.9705 117.952C88.7475 72.7478 111.35 49.63 156.555 46.3784C349.28 32.5154 521.306 32.6061 714.039 46.3784C754.535 49.2721 781.846 72.7478 801.623 117.952C821.4 163.157 866.625 343.034 866.625 461.696C866.625 580.359 800.701 604.845 793.167 606.728C792.231 606.962 791.252 607.269 790.23 607.589C788.73 608.058 787.139 608.556 785.464 608.894C784.548 609.375 783.507 609.739 782.326 609.969C765.374 613.265 722.053 589.721 698.038 559.584C689.424 548.775 684.601 534.175 680.183 520.8C677.303 512.081 674.594 503.882 671.12 497.593C665.064 486.634 660.246 477.913 656.6 473.884C647.653 463.995 625.993 443.747 598.211 443.747H272.36C244.578 443.747 222.918 463.995 213.971 473.884C210.325 477.913 205.507 486.634 199.451 497.593C196.307 503.285 192.828 511.503 189.007 520.529C182.131 536.775 174.146 555.64 164.999 567.118C140.984 597.255 105.197 613.265 88.2454 609.969C87.0584 609.738 86.0118 609.371 85.0929 608.886C83.4313 608.549 81.8529 608.055 80.3634 607.589C79.342 607.269 78.3624 606.962 77.4264 606.728C69.8923 604.845 3.96875 580.359 3.96875 461.696C3.96875 343.034 49.1934 163.157 68.9705 117.952Z" stroke="white" stroke-width="6"/>
<g opacity="0.2">
<path d="M271.798 22.5124C280.624 30.2891 290.712 37.2661 310.888 37.8255C339.097 37.0295 366.298 36.5122 393.152 36.2561C315.9 37.1472 238.079 40.5145 156.554 46.3787C128.224 48.4165 108.771 58.2566 93.3281 76.4458C110.234 45.4965 131.279 29.2886 166.893 26.5868C182.375 25.4123 196.551 23.753 210.474 22.1232C226.722 20.2213 242.625 18.3598 259.856 17.3564C262.702 17.1907 265.622 18.1164 267.949 19.7623C268.294 20.0061 268.64 20.2503 268.976 20.4872C270.382 21.4801 271.608 22.3449 271.798 22.5124Z" stroke="white" stroke-width="2"/>
<path d="M778.392 79.0692C760.319 46.3218 736.501 29.0588 703.698 26.5868C688.177 25.417 673.967 23.7582 660.009 22.1288C643.789 20.2353 627.908 18.3815 610.705 17.3811C607.863 17.2158 604.946 18.1383 602.62 19.7811C602.284 20.0185 601.947 20.2563 601.619 20.4873C600.211 21.4806 598.982 22.3471 598.794 22.5124C589.967 30.2891 577.778 37.3276 559.704 37.8255C536.371 37.212 513.729 36.7528 491.404 36.4575C564.077 37.5911 637.422 40.9039 714.038 46.3787C740.648 48.2802 761.565 59.0685 778.392 79.0692Z" stroke="white" stroke-width="2"/>
</g>
<g opacity="0.2">
<rect x="312.472" y="97.8597" width="11.037" height="7.42558" stroke="white" stroke-width="1.58365"/>
<path fill-rule="evenodd" clip-rule="evenodd" d="M307.584 93.5837H317.037V95.9415H318.621V93.5837V92H317.037H307.584H306V93.5837V99.4256V101.009H307.584H310.417V99.4256H307.584V93.5837Z" fill="white"/>
</g>
<g opacity="0.2">
<path fill-rule="evenodd" clip-rule="evenodd" d="M554 93H569V94.7143H554V93ZM554 98.1429H569V99.8571H554V98.1429ZM569 103.286H554V105H569V103.286Z" fill="white"/>
</g>
</svg>
