<svg width="870" height="425" viewBox="0 0 870 425" fill="none" xmlns="http://www.w3.org/2000/svg">
<path d="M319.264 258.491H551.88V351.726H319.264V258.491Z" stroke="white" stroke-width="0.941764"/>
<path d="M319.028 295.926H552.115V340.66H319.028V295.926Z" stroke="white" stroke-width="0.470882"/>
<path d="M411.133 276.38C411.133 271.779 414.863 268.049 419.464 268.049H451.676C456.277 268.049 460.007 271.779 460.007 276.38C460.007 280.981 456.277 284.71 451.676 284.71H419.464C414.863 284.71 411.133 280.981 411.133 276.38Z" stroke="white" stroke-width="1.11075"/>
<line x1="420.578" y1="276.38" x2="450.568" y2="276.38" stroke="white" stroke-width="2.2215"/>
<path d="M554.47 258.255H604.67C609.054 258.255 612.401 257.964 614.926 256.731C617.426 255.51 619.089 253.383 620.185 249.812L732.874 269.508C728.936 283.881 724.025 295.493 716.855 304.835C709.646 314.227 700.144 321.337 687.022 326.644C660.792 337.254 620.123 340.652 554.47 340.66V258.255Z" stroke="white" stroke-width="0.470882"/>
<path d="M316.675 258.255H266.475C262.09 258.255 258.743 257.964 256.219 256.731C253.719 255.51 252.055 253.383 250.96 249.812L138.27 269.508C142.208 283.881 147.12 295.493 154.29 304.835C161.499 314.227 171.001 321.337 184.122 326.644C210.353 337.254 251.022 340.652 316.675 340.66V258.255Z" stroke="white" stroke-width="0.470882"/>
<path d="M554.47 258.255H604.67C609.054 258.255 612.401 257.964 614.926 256.731C617.426 255.51 619.089 253.383 620.185 249.812L732.874 269.508C728.936 283.881 724.025 295.493 716.855 304.835C709.646 314.227 700.144 321.337 687.022 326.644C660.792 337.254 620.123 340.652 554.47 340.66V258.255Z" stroke="white" stroke-width="0.470882"/>
<path d="M316.675 258.255H266.475C262.09 258.255 258.743 257.964 256.219 256.731C253.719 255.51 252.055 253.383 250.96 249.812L138.27 269.508C142.208 283.881 147.12 295.493 154.29 304.835C161.499 314.227 171.001 321.337 184.122 326.644C210.353 337.254 251.022 340.652 316.675 340.66V258.255Z" stroke="white" stroke-width="0.470882"/>
<path d="M555.176 259.068H604.67C609.001 259.068 612.52 258.989 615.211 257.769C617.84 256.577 619.562 254.37 620.694 250.622L732.017 270.634C728.116 286.433 723.266 299.293 716.26 309.722C709.122 320.346 699.718 328.488 686.708 334.634C660.738 346.903 620.426 351.213 555.176 351.254V259.068Z" stroke="white" stroke-width="1.88353"/>
<path d="M315.968 259.068H266.475C262.143 259.068 258.625 258.989 255.933 257.769C253.304 256.577 251.583 254.37 250.451 250.622L139.128 270.634C143.028 286.433 147.878 299.293 154.885 309.722C162.023 320.346 171.427 328.488 184.436 334.634C210.406 346.903 250.719 351.213 315.968 351.254V259.068Z" stroke="white" stroke-width="1.88353"/>
<circle cx="352.695" cy="318.293" r="9.88853" stroke="white" stroke-width="0.941764"/>
<circle cx="352.696" cy="318.293" r="12.0075" stroke="white" stroke-width="0.470882"/>
<path d="M606.238 259.756C604.722 259.743 608.57 259.46 606.974 259.46C604.318 259.46 601.91 259.401 600.176 258.579H604.914C613.685 258.579 617.996 258.688 620.159 250.486L632.415 252.605V253.782C630.346 259.162 617.247 259.854 606.238 259.756Z" stroke="white" stroke-width="0.470882"/>
<path d="M264.906 259.756C266.422 259.743 262.574 259.46 264.17 259.46C266.826 259.46 269.234 259.401 270.969 258.579H266.23C257.459 258.579 253.149 258.688 250.986 250.486L238.729 252.605V253.782C240.799 259.162 253.898 259.854 264.906 259.756Z" stroke="white" stroke-width="0.470882"/>
<path d="M738.063 266.234L738.064 266.222L738.073 266.156C742.277 234.324 742.246 206.335 738.422 176.562C733.826 140.79 699.396 118.948 664.759 123.466C643.742 126.207 630.73 142.573 616.719 163.348C612.343 169.837 608.07 175.011 602.52 178.57C596.98 182.122 590.125 184.092 580.541 184.092H290.068C280.482 184.092 273.368 182.121 267.698 178.567C262.025 175.01 257.756 169.841 253.904 163.37C245.887 149.903 239.122 140.605 231.733 134.336C224.326 128.052 216.315 124.831 205.85 123.466C171.212 118.948 136.782 140.79 132.187 176.562C128.362 206.335 128.332 234.324 132.536 266.156L132.545 266.223L132.545 266.223L132.546 266.234L132.865 268.272L132.866 268.28L132.867 268.287L133.229 270.202L133.232 270.215L133.235 270.227L133.272 270.38L133.728 270.267L133.272 270.38C141.249 302.647 153.557 324.76 180.825 338.25C207.241 351.318 247.078 355.882 308.497 356.294H308.5L562.152 356.294L562.156 356.294L562.174 356.294C623.593 355.882 663.368 351.318 689.783 338.25C717.052 324.76 729.36 302.647 737.336 270.38L736.879 270.267L737.336 270.38L737.374 270.227L737.377 270.214L737.38 270.202L737.741 268.287L737.743 268.28L737.744 268.272L738.063 266.234Z" stroke="white" stroke-width="0.941764"/>
<path d="M633.303 166.668C635.769 149.103 649.672 135.341 667.261 133.047C698.437 128.981 728.409 148.649 732.379 179.557C736.055 208.17 735.811 235.128 731.883 265.687L622.756 246.43C626.128 218.416 629.055 196.927 633.303 166.668Z" stroke="white" stroke-width="3"/>
<path d="M643.296 186.358C645.281 173.273 656.517 163.583 669.75 163.583C686.984 163.583 700.533 178.382 698.613 195.501C697.857 202.244 697.118 208.419 696.379 214.603C694.822 227.619 693.261 240.675 691.517 259.158L633.139 249.351C637.125 226.209 639.719 209.934 643.296 186.358Z" stroke="white" stroke-width="0.470882"/>
<path d="M663.569 220.262L664.145 217.181L680.316 220.2L679.741 223.281L673.622 222.139L670.265 240.119L666.331 239.384L669.688 221.404L663.569 220.262Z" fill="white"/>
<path d="M645.228 235.444L649.16 214.383L656.595 215.771C658.813 216.185 660.43 217.091 661.447 218.488C662.465 219.876 662.79 221.558 662.421 223.535C662.046 225.541 661.119 227.03 659.641 228.001C658.162 228.972 656.323 229.253 654.125 228.842L650.624 228.188L649.133 236.173L645.228 235.444ZM651.153 225.353L654.292 225.939C655.585 226.181 656.555 226.008 657.204 225.42C657.852 224.833 658.278 223.994 658.482 222.904C658.683 221.824 658.586 220.903 658.189 220.14C657.793 219.378 656.949 218.876 655.656 218.635L652.517 218.048L651.153 225.353ZM656.322 237.516L653.406 227.076L657.357 227.245L660.662 238.326L656.322 237.516Z" fill="white"/>
<path d="M237.838 166.668C235.372 149.103 221.468 135.341 203.879 133.047C172.704 128.981 142.732 148.649 138.761 179.557C135.086 208.17 135.33 235.128 139.258 265.687L248.384 246.43C245.012 218.416 242.086 196.927 237.838 166.668Z" stroke="white" stroke-width="3"/>
<path d="M227.845 186.358C225.859 173.273 214.624 163.583 201.39 163.583C184.156 163.583 170.607 178.382 172.528 195.501C173.284 202.244 174.022 208.419 174.762 214.603C176.318 227.619 177.88 240.675 179.624 259.158L238.001 249.351C234.015 226.209 231.422 209.934 227.845 186.358Z" stroke="white" stroke-width="0.470882"/>
<path d="M201.528 220.183L200.957 217.101L217.133 214.103L217.704 217.185L211.584 218.319L214.917 236.304L210.981 237.033L207.648 219.049L201.528 220.183Z" fill="white"/>
<path d="M193.837 240.211L189.934 219.145L193.84 218.421L197.173 236.405L206.086 234.754L206.657 237.835L193.837 240.211Z" fill="white"/>
<path d="M554.47 295.926H604.67C608.257 295.926 610.089 296.659 611.899 297.384C611.954 297.406 612.009 297.428 612.064 297.45C613.957 298.206 615.875 298.924 619.698 298.751C631.013 298.239 646.523 295.876 660.359 290.279C674.126 284.71 686.279 275.921 690.948 262.523L732.874 269.51C728.936 283.882 724.024 295.494 716.855 304.835C709.646 314.227 700.144 321.337 687.022 326.644C660.792 337.254 620.123 340.652 554.47 340.66V295.926Z" stroke="white" stroke-width="0.470882"/>
<path d="M555.734 259.628H604.67C608.969 259.628 612.619 259.558 615.442 258.278C618.146 257.052 619.913 254.828 621.079 251.259L731.331 271.079C727.464 286.582 722.667 299.185 715.796 309.411C708.717 319.948 699.393 328.025 686.47 334.131C660.701 346.304 620.665 350.631 555.734 350.697V259.628Z" stroke="white" stroke-width="3"/>
<path d="M649.418 301.119L653.09 280.011L660.643 281.325C662.789 281.698 664.362 282.44 665.364 283.55C666.377 284.653 666.723 286.127 666.402 287.973C666.197 289.152 665.761 290.082 665.095 290.763C664.431 291.434 663.668 291.839 662.807 291.978L662.797 292.036C663.754 292.491 664.482 293.2 664.981 294.163C665.481 295.126 665.607 296.318 665.36 297.739C665.032 299.624 664.143 300.983 662.694 301.816C661.256 302.641 659.483 302.87 657.377 302.504L649.418 301.119ZM653.763 298.977L657.46 299.621C658.639 299.826 659.557 299.672 660.214 299.159C660.871 298.646 661.29 297.867 661.471 296.824C661.653 295.78 661.522 294.901 661.079 294.186C660.636 293.472 659.824 293.012 658.645 292.807L654.949 292.164L653.763 298.977ZM655.39 289.627L658.71 290.204C659.87 290.406 660.753 290.281 661.359 289.829C661.965 289.377 662.354 288.663 662.523 287.686C662.692 286.72 662.564 285.936 662.141 285.335C661.718 284.733 660.926 284.332 659.767 284.13L656.447 283.552L655.39 289.627Z" fill="white"/>
<path d="M631.816 298.057L635.488 276.949L642.94 278.246C645.163 278.632 646.791 279.518 647.825 280.903C648.86 282.278 649.205 283.956 648.861 285.937C648.511 287.948 647.603 289.447 646.136 290.437C644.67 291.426 642.834 291.73 640.631 291.346L637.122 290.736L635.73 298.738L631.816 298.057ZM637.617 287.894L640.763 288.442C642.058 288.667 643.026 288.482 643.667 287.886C644.309 287.291 644.724 286.447 644.914 285.355C645.103 284.273 644.994 283.353 644.588 282.595C644.182 281.837 643.332 281.346 642.036 281.12L638.891 280.573L637.617 287.894ZM642.935 299.992L639.891 289.589L643.843 289.709L647.285 300.748L642.935 299.992Z" fill="white"/>
<path d="M316.671 295.926H266.471C262.884 295.926 261.052 296.659 259.242 297.384C259.187 297.406 259.132 297.428 259.076 297.45C257.184 298.206 255.266 298.924 251.443 298.751C240.128 298.239 224.618 295.876 210.782 290.279C197.015 284.71 184.861 275.921 180.193 262.523L138.267 269.51C142.205 283.882 147.116 295.494 154.286 304.835C161.495 314.227 170.997 321.337 184.119 326.644C210.349 337.254 251.018 340.652 316.671 340.66V295.926Z" stroke="white" stroke-width="0.470882"/>
<path d="M315.406 259.628H266.471C262.171 259.628 258.521 259.558 255.699 258.278C252.995 257.052 251.227 254.828 250.062 251.259L139.809 271.079C143.677 286.582 148.474 299.185 155.344 309.411C162.423 319.948 171.748 328.025 184.671 334.131C210.439 346.304 250.476 350.631 315.406 350.697V259.628Z" stroke="white" stroke-width="3"/>
<path d="M216.397 300.545L212.676 279.446L220.226 278.114C222.371 277.736 224.103 277.899 225.422 278.602C226.75 279.294 227.576 280.563 227.901 282.408C228.109 283.587 228.016 284.61 227.621 285.476C227.224 286.333 226.645 286.973 225.882 287.397L225.893 287.455C226.947 287.558 227.873 287.977 228.67 288.713C229.467 289.449 229.991 290.527 230.241 291.947C230.574 293.831 230.2 295.411 229.12 296.687C228.048 297.952 226.459 298.771 224.353 299.142L216.397 300.545ZM219.756 297.054L223.451 296.402C224.63 296.194 225.441 295.738 225.884 295.032C226.328 294.326 226.457 293.451 226.273 292.408C226.089 291.365 225.667 290.582 225.008 290.061C224.348 289.54 223.429 289.383 222.25 289.591L218.555 290.243L219.756 297.054ZM218.108 287.707L221.426 287.122C222.585 286.917 223.373 286.499 223.79 285.868C224.207 285.237 224.329 284.433 224.157 283.457C223.986 282.491 223.6 281.797 222.998 281.376C222.395 280.954 221.514 280.845 220.355 281.05L217.037 281.635L218.108 287.707Z" fill="white"/>
<path d="M201.093 303.245L197.371 282.145L201.284 281.455L204.461 299.468L213.388 297.893L213.932 300.98L201.093 303.245Z" fill="white"/>
<path d="M738.496 268.082C773.949 267.328 826.098 225.702 847.741 204.983" stroke="white" stroke-width="0.941764"/>
<path d="M132.77 268.082C96.9141 267.328 44.1732 225.702 22.2846 204.983" stroke="white" stroke-width="0.941764"/>
<rect x="286.862" y="186.917" width="303.719" height="71.3387" stroke="white" stroke-width="0.470882"/>
<path d="M555.254 381.323C555.254 378.255 557.741 375.769 560.808 375.769H580.779C584.938 375.769 588.712 373.331 590.422 369.54V369.54C591.421 365.351 588.902 364.331 597.967 362.918L462.235 364.661C457.929 364.661 465.603 365.351 466.602 369.54V369.54C468.313 373.331 472.086 375.769 476.246 375.769H496.867C499.934 375.769 502.421 378.255 502.421 381.323V399.723C502.421 401.564 500.929 403.055 499.088 403.055H481.971C477.665 403.055 474.489 407.078 475.488 411.266L477.485 419.637C477.962 421.637 479.75 423.049 481.806 423.049H575.218C577.275 423.049 579.063 421.637 579.54 419.637L581.536 411.266C582.535 407.078 579.36 403.055 575.054 403.055H558.587C556.746 403.055 555.254 401.564 555.254 399.723V381.323Z" stroke="white" stroke-width="2"/>
<path d="M434.843 184.055C440.433 184.032 445.479 184.01 449.8 183.988V184.11C486.7 184.229 553.442 184.357 581.442 184.055C610.121 184.055 618.178 163.46 630.922 131.784C634.619 122.595 637.924 114.377 640.773 108.47C663.847 60.6255 695.459 47.6895 719.646 39.4484C735.185 34.154 752.372 32.1931 774.268 34.154C793.275 35.8561 809.036 42.7672 821.827 50.0368C832.192 55.9269 866.06 76.0459 866.06 138.768C866.06 201.489 788.835 296.568 769.058 320.462C749.281 344.356 721.369 352.306 681.474 358.294C651.166 362.843 543.19 364.495 434.843 364.157C326.495 364.495 218.519 362.843 188.211 358.294C148.316 352.306 120.404 344.356 100.627 320.462C80.8497 296.568 3.625 201.489 3.625 138.768C3.625 76.0458 37.4933 55.9269 47.8576 50.0368C60.6491 42.7672 76.4097 35.8561 95.4167 34.154C117.313 32.1931 134.5 34.154 150.039 39.4484C174.226 47.6895 205.839 60.6255 228.912 108.47C231.761 114.377 235.066 122.595 238.763 131.784C251.507 163.46 259.314 184.055 288.243 184.055C316.243 184.357 382.985 184.229 419.885 184.11V183.988C424.206 184.01 429.252 184.032 434.843 184.055Z" stroke="white" stroke-width="6"/>
<path d="M143.078 345.174L143.455 344.248L142.381 345.891L143.078 345.174ZM155.819 369.539L154.847 369.771L154.869 369.863L154.908 369.95L155.819 369.539ZM164.705 411.265L165.678 411.033L164.705 411.265ZM166.702 419.636L165.729 419.868H165.729L166.702 419.636ZM268.757 419.636L267.785 419.404V419.404L268.757 419.636ZM270.754 411.265L269.781 411.033L270.754 411.265ZM279.64 369.539L280.551 369.95L280.59 369.864L280.612 369.771L279.64 369.539ZM279.697 369.298L280.67 369.529L280.67 369.529L279.697 369.298ZM284.95 362.882L285.216 363.846L284.974 361.882L284.95 362.882ZM188.211 357.094L188.389 356.11L188.211 357.094ZM142.381 345.891C151.153 354.421 153.987 366.167 154.847 369.771L156.792 369.307C155.93 365.69 152.998 353.425 143.775 344.457L142.381 345.891ZM154.908 369.95C156.78 374.1 160.91 376.768 165.463 376.768V374.768C161.697 374.768 158.28 372.561 156.731 369.128L154.908 369.95ZM165.463 376.768H186.084V374.768H165.463V376.768ZM186.084 376.768C188.599 376.768 190.638 378.807 190.638 381.322H192.638C192.638 377.702 189.704 374.768 186.084 374.768V376.768ZM190.638 381.322V399.722H192.638V381.322H190.638ZM190.638 399.722C190.638 401.011 189.594 402.055 188.306 402.055V404.055C190.698 404.055 192.638 402.115 192.638 399.722H190.638ZM188.306 402.055H171.188V404.055H188.306V402.055ZM171.188 402.055C166.236 402.055 162.584 406.68 163.733 411.497L165.678 411.033C164.829 407.473 167.528 404.055 171.188 404.055V402.055ZM163.733 411.497L165.729 419.868L167.674 419.404L165.678 411.033L163.733 411.497ZM165.729 419.868C166.313 422.319 168.504 424.048 171.023 424.048V422.048C169.43 422.048 168.044 420.954 167.674 419.404L165.729 419.868ZM171.023 424.048H264.435V422.048H171.023V424.048ZM264.435 424.048C266.955 424.048 269.145 422.319 269.73 419.868L267.785 419.404C267.415 420.954 266.029 422.048 264.435 422.048V424.048ZM269.73 419.868L271.726 411.497L269.781 411.033L267.785 419.404L269.73 419.868ZM271.726 411.497C272.875 406.68 269.223 402.055 264.271 402.055V404.055C267.931 404.055 270.63 407.473 269.781 411.033L271.726 411.497ZM264.271 402.055H247.804V404.055H264.271V402.055ZM247.804 402.055C246.516 402.055 245.472 401.011 245.472 399.722H243.472C243.472 402.115 245.411 404.055 247.804 404.055V402.055ZM245.472 399.722V381.322H243.472V399.722H245.472ZM245.472 381.322C245.472 378.807 247.51 376.768 250.025 376.768V374.768C246.406 374.768 243.472 377.702 243.472 381.322H245.472ZM250.025 376.768H269.996V374.768H250.025V376.768ZM269.996 376.768C274.549 376.768 278.679 374.1 280.551 369.95L278.728 369.128C277.179 372.561 273.762 374.768 269.996 374.768V376.768ZM280.612 369.771C280.632 369.69 280.651 369.609 280.67 369.529L278.724 369.067C278.705 369.147 278.686 369.227 278.667 369.307L280.612 369.771ZM280.67 369.529C281.028 368.022 281.311 366.878 281.923 365.954C282.493 365.092 283.408 364.344 285.216 363.846L284.684 361.918C282.502 362.519 281.139 363.513 280.254 364.85C279.411 366.125 279.063 367.64 278.724 369.067L280.67 369.529ZM284.974 361.882C239.337 360.761 203.756 358.88 188.389 356.11L188.034 358.079C203.585 360.881 239.334 362.762 284.925 363.882L284.974 361.882ZM188.389 356.11C171.252 353.022 156.39 349.508 143.455 344.248L142.701 346.1C155.83 351.439 170.853 354.982 188.034 358.079L188.389 356.11Z" fill="white"/>
<mask id="path-38-inside-1_610_78267" fill="white">
<path fill-rule="evenodd" clip-rule="evenodd" d="M308.17 362.055L307.942 376.222C307.908 378.303 309.568 380.016 311.648 380.05L341.78 380.536C343.86 380.569 345.574 378.91 345.608 376.83L345.837 362.574C332.875 362.445 320.267 362.273 308.17 362.055Z"/>
</mask>
<path d="M307.942 376.222L306.059 376.192L307.942 376.222ZM308.17 362.055L308.204 360.172L306.318 360.138L306.287 362.025L308.17 362.055ZM311.648 380.05L311.678 378.166H311.678L311.648 380.05ZM341.78 380.536L341.75 382.419L341.78 380.536ZM345.608 376.83L347.491 376.86V376.86L345.608 376.83ZM345.837 362.574L347.721 362.604L347.751 360.709L345.856 360.69L345.837 362.574ZM309.825 376.253L310.054 362.086L306.287 362.025L306.059 376.192L309.825 376.253ZM311.678 378.166C310.638 378.15 309.808 377.293 309.825 376.253L306.059 376.192C306.008 379.312 308.497 381.883 311.617 381.933L311.678 378.166ZM341.811 378.652L311.678 378.166L311.617 381.933L341.75 382.419L341.811 378.652ZM343.724 376.799C343.708 377.839 342.851 378.669 341.811 378.652L341.75 382.419C344.87 382.469 347.441 379.98 347.491 376.86L343.724 376.799ZM343.954 362.543L343.724 376.799L347.491 376.86L347.721 362.604L343.954 362.543ZM345.856 360.69C332.898 360.562 320.295 360.39 308.204 360.172L308.136 363.938C320.239 364.156 332.852 364.328 345.819 364.457L345.856 360.69Z" fill="white" mask="url(#path-38-inside-1_610_78267)"/>
<path d="M583.002 369.586L582.575 364.839C629.211 363.726 665.85 361.829 681.641 358.984C709.844 353.901 732.237 347.617 750.005 334.127C750.257 334.496 750.423 334.931 750.475 335.407L752.524 354.175C753.251 360.838 748.859 366.992 742.318 368.405C690.67 379.559 655.132 383.233 595.627 381.52C589.009 381.33 583.596 376.19 583.002 369.586L582.064 369.67L583.002 369.586Z" stroke="white" stroke-width="1.88353"/>
<path d="M640.197 363.04C658.823 362.038 673.197 360.792 681.642 359.27L681.642 359.27C689.869 357.787 697.598 356.203 704.858 354.369L706.037 367.48C706.445 372.013 703.201 376.059 698.692 376.613C681.694 378.702 668.782 379.85 650.019 380.964C645.468 381.234 641.528 377.827 641.119 373.282L640.197 363.04Z" stroke="white" stroke-width="1.88353"/>
<path d="M271.219 375.767L271.437 362.28C303.808 363.229 342.255 363.749 382.554 363.9L382.333 377.559C382.308 379.118 381.023 380.363 379.463 380.338L273.999 378.637C272.439 378.612 271.194 377.327 271.219 375.767L271.219 375.767Z" stroke="white" stroke-width="1.88353"/>
</svg>
