<svg width="1767" height="289" viewBox="0 0 1767 289" fill="none" xmlns="http://www.w3.org/2000/svg">
<path opacity="0.2" d="M1490.35 119.797L1493.85 116.652L1491.85 114.891L1493.85 111.747L1490.35 110.615L1493.85 108.35L1489.73 106.715L1492.85 104.577L1488.98 102.061L1492.85 100.804L1489.73 98.0363L1492.85 97.03L1490.35 94.3886L1493.85 93.7597L1491.85 90.112H1495.48L1493.85 86.7159H1497.73L1496.85 83.194L1500.73 83.9487L1499.73 80.6783L1503.73 81.3072V77.9111L1507.1 79.1689V75.5212L1510.97 77.1564L1511.97 74.2634L1514.22 75.5212L1515.6 71.8735" stroke="white"/>
<path opacity="0.2" d="M1406.94 132.143L1406.94 132.145L1410.34 134.7C1411.24 135.425 1412.15 136.196 1413.1 137L1413.43 136.618L1413.1 137L1413.11 137.004C1420.05 142.863 1428.81 150.262 1445.91 152.242L1445.94 152.246H1445.97H1492.82C1493.09 152.246 1493.32 152.469 1493.32 152.746V227.718C1493.32 233.002 1489.06 237.281 1483.82 237.281H281.998C276.757 237.281 272.502 233.002 272.502 227.718V152.746C272.502 152.469 272.726 152.246 273.002 152.246H319.874H319.902L319.931 152.242C337.032 150.262 345.796 142.863 352.735 137.004L352.739 137L352.739 137C354.594 135.433 356.304 133.989 358.01 132.783L358.01 132.783C358.928 132.133 359.78 131.506 360.6 130.9C364.335 128.148 367.392 125.898 372.974 124.315C378.58 122.726 386.754 121.806 400.706 121.806H1365.14C1379.09 121.806 1387.26 122.726 1392.87 124.315C1398.45 125.898 1401.51 128.148 1405.24 130.9C1405.79 131.305 1406.35 131.719 1406.94 132.143Z" stroke="white"/>
<line opacity="0.2" x1="272.002" y1="226.967" x2="1493.82" y2="226.967" stroke="white"/>
<path opacity="0.2" d="M1494.32 152.991C1494.32 152.162 1494.99 151.491 1495.82 151.491H1753.72V227.781C1753.72 233.027 1749.47 237.281 1744.22 237.281H1503.82C1498.57 237.281 1494.32 233.027 1494.32 227.781V152.991Z" stroke="white"/>
<path opacity="0.2" d="M272.252 152.991C272.252 152.162 271.58 151.491 270.752 151.491H12.8447V227.781C12.8447 233.027 17.098 237.281 22.3447 237.281H262.752C267.999 237.281 272.252 233.027 272.252 227.781V152.991Z" stroke="white"/>
<path opacity="0.2" d="M1538.05 240.491C1537.05 240.491 1536.21 239.748 1536.07 238.781H1589.01C1588.87 239.748 1588.04 240.491 1587.03 240.491H1538.05Z" stroke="white" stroke-width="2"/>
<rect opacity="0.2" x="1687.06" y="237.837" width="50.4813" height="5.73563" stroke="white" stroke-width="2"/>
<rect opacity="0.2" x="1634.33" y="237.837" width="51.7309" height="5.73563" stroke="white" stroke-width="2"/>
<rect opacity="0.2" x="1582.79" y="237.837" width="50.4813" height="5.73563" stroke="white" stroke-width="2"/>
<path opacity="0.2" d="M1737.19 245.573C1717.9 248.614 1706.69 248.603 1687.41 245.573H1737.19Z" stroke="white" stroke-width="2"/>
<path opacity="0.2" d="M1685.68 245.573C1665.93 248.614 1654.45 248.603 1634.71 245.573H1685.68Z" stroke="white" stroke-width="2"/>
<path opacity="0.2" d="M1632.92 245.573C1613.63 248.614 1602.42 248.603 1583.14 245.573H1632.92Z" stroke="white" stroke-width="2"/>
<path opacity="0.2" d="M1516.88 239.078C1519.39 240.575 1521.3 242.656 1523.13 245.711H1589.03V237.837H1514.35C1515.25 238.2 1516.09 238.608 1516.88 239.078Z" stroke="white" stroke-width="2"/>
<path opacity="0.2" d="M153.708 242.081C152.979 243.106 152.135 244.289 150.854 245.711H48.1742C46.7274 243.115 45.2557 241.154 43.196 239.609C42.3036 238.939 41.3145 238.358 40.1901 237.837H158.332C157.464 238.22 156.766 238.659 156.159 239.174C155.2 239.987 154.506 240.961 153.748 242.025L153.708 242.081Z" stroke="white" stroke-width="2"/>
<path opacity="0.2" d="M1535.86 287.779C1530.87 287.779 1527.8 281.471 1527.8 278.534C1527.8 275.641 1527.87 273.314 1532.68 270.799C1537.49 268.283 1541.18 267.088 1549.36 267.088C1552.99 267.088 1556 267.187 1559.35 267.297C1563.37 267.429 1567.88 267.576 1574.52 267.59C1581.16 267.576 1585.67 267.429 1589.69 267.297C1593.04 267.187 1596.06 267.088 1599.68 267.088C1607.87 267.088 1611.55 268.283 1616.36 270.799C1621.17 273.314 1621.24 275.641 1621.24 278.534C1621.24 281.471 1618.17 287.779 1613.18 287.779H1535.86Z" stroke="white" stroke-width="2"/>
<path opacity="0.2" d="M61.4073 287.779C56.4091 287.779 53.3477 281.471 53.3477 278.534C53.3476 275.641 53.4102 273.314 58.221 270.799C63.0318 268.283 66.718 267.088 74.9026 267.088C78.5288 267.088 81.5418 267.187 84.8979 267.297C88.9149 267.429 93.4234 267.576 100.063 267.59C106.703 267.576 111.212 267.429 115.229 267.297C118.585 267.187 121.598 267.088 125.224 267.088C133.409 267.088 137.095 268.283 141.906 270.799C146.717 273.314 146.779 275.641 146.779 278.534C146.779 281.471 143.718 287.779 138.72 287.779H61.4073Z" stroke="white" stroke-width="2"/>
<rect opacity="0.2" x="1560.67" y="247.711" width="27.7394" height="19.2572" stroke="white" stroke-width="2"/>
<rect opacity="0.2" x="-1" y="1" width="27.7394" height="20.2635" transform="matrix(-1 0 0 1 112.934 245.705)" stroke="white" stroke-width="2"/>
<path opacity="0.2" d="M643.869 194.248C643.869 193.419 644.541 192.748 645.369 192.748H709.845C710.673 192.748 711.345 193.419 711.345 194.248V199.807C711.345 200.635 710.673 201.307 709.845 201.307H645.369C644.541 201.307 643.869 200.635 643.869 199.807V194.248Z" stroke="white"/>
<path opacity="0.2" d="M514.416 201.248C514.416 196.829 517.998 193.248 522.416 193.248H560.396C564.814 193.248 568.396 196.829 568.396 201.248V205.763C568.396 210.181 564.814 213.763 560.396 213.763H522.416C517.998 213.763 514.416 210.181 514.416 205.763V201.248Z" stroke="white" stroke-width="2"/>
<path opacity="0.2" d="M159.543 237.837H205.401V242.095C205.401 244.856 203.162 247.095 200.401 247.095H164.543C161.782 247.095 159.543 244.856 159.543 242.095V237.837Z" stroke="white" stroke-width="2"/>
<path opacity="0.2" d="M180.41 240.051C179.361 240.051 178.5 239.243 178.417 238.215H230.384C230.301 239.243 229.44 240.051 228.391 240.051H180.41Z" stroke="white" stroke-width="2"/>
<path opacity="0.2" d="M199.027 237.837H251.008V241.661C251.008 244.56 248.551 246.851 245.659 246.649L200.888 243.519C199.84 243.446 199.027 242.574 199.027 241.524V237.837Z" stroke="white" stroke-width="2"/>
<path opacity="0.2" d="M397.395 203.191C397.395 215.074 387.825 224.703 376.027 224.703C364.23 224.703 354.66 215.074 354.66 203.191C354.66 191.307 364.23 181.679 376.027 181.679C387.825 181.679 397.395 191.307 397.395 203.191Z" stroke="white"/>
<path opacity="0.2" d="M1321.13 202.121C1321.13 208.795 1315.75 214.2 1309.13 214.2C1302.51 214.2 1297.14 208.795 1297.14 202.121C1297.14 195.448 1302.51 190.043 1309.13 190.043C1315.75 190.043 1321.13 195.448 1321.13 202.121Z" stroke="white"/>
<path opacity="0.2" d="M1417.84 198.285C1417.84 213.573 1405.53 225.96 1390.35 225.96C1375.17 225.96 1362.86 213.573 1362.86 198.285C1362.86 182.997 1375.17 170.61 1390.35 170.61C1405.53 170.61 1417.84 182.997 1417.84 198.285Z" stroke="white"/>
<path opacity="0.2" d="M1413.34 198.285C1413.34 211.079 1403.04 221.437 1390.35 221.437C1377.66 221.437 1367.36 211.079 1367.36 198.285C1367.36 185.491 1377.66 175.133 1390.35 175.133C1403.04 175.133 1413.34 185.491 1413.34 198.285Z" stroke="white" stroke-width="2.5"/>
<path opacity="0.2" d="M472.867 203.191C472.867 215.074 463.298 224.703 451.5 224.703C439.702 224.703 430.133 215.074 430.133 203.191C430.133 191.307 439.702 181.679 451.5 181.679C463.298 181.679 472.867 191.307 472.867 203.191Z" stroke="white"/>
<path opacity="0.2" d="M470.431 203.19C470.431 213.725 461.949 222.253 451.501 222.253C441.052 222.253 432.57 213.725 432.57 203.19C432.57 192.656 441.052 184.128 451.501 184.128C461.949 184.128 470.431 192.656 470.431 203.19Z" stroke="white" stroke-width="2"/>
<path opacity="0.2" d="M395.146 203.19C395.146 213.725 386.664 222.253 376.216 222.253C365.767 222.253 357.285 213.725 357.285 203.19C357.285 192.656 365.767 184.128 376.216 184.128C386.664 184.128 395.146 192.656 395.146 203.19Z" stroke="white" stroke-width="2"/>
<line opacity="0.2" x1="522.662" y1="203.197" x2="560.898" y2="203.197" stroke="white" stroke-width="2"/>
<rect opacity="0.2" x="365.219" y="200.798" width="21.9918" height="4.786" rx="1.5" stroke="white"/>
<path opacity="0.2" d="M454.374 205.584H453.874V206.084V213.379C453.874 214.218 453.2 214.892 452.374 214.892H450.625C449.8 214.892 449.126 214.218 449.126 213.379V206.084V205.584H448.626H442.003C441.178 205.584 440.504 204.91 440.504 204.071V202.31C440.504 201.471 441.178 200.798 442.003 200.798H448.626H449.126V200.298V194.26C449.126 193.421 449.8 192.748 450.625 192.748H452.374C452.715 192.748 453.028 192.861 453.279 193.053L453.279 193.053C453.641 193.33 453.874 193.767 453.874 194.26V200.298V200.798H454.374H460.996C461.821 200.798 462.496 201.471 462.496 202.31V204.071C462.496 204.91 461.821 205.584 460.996 205.584H454.374Z" stroke="white"/>
<path opacity="0.2" d="M1493.82 152.878L1492.82 152.816L1492.45 152.794L1491.76 152.752L1490.83 152.695C1490.85 152.369 1490.9 152.052 1490.98 151.746H1492.82C1493.37 151.746 1493.82 152.196 1493.82 152.752L1493.82 152.878ZM1493.82 152.878L1495.72 152.818L1495.82 152.816L1496.82 152.784L1496.82 152.752H1495.82H1495.68L1493.83 152.751M1493.82 152.878C1493.82 152.835 1493.83 152.793 1493.83 152.751M1493.83 152.751L1495.65 152.695L1495.82 152.69L1496.82 152.659L1496.82 152.691C1496.81 152.084 1496.66 151.507 1496.41 150.991H1495.82C1495.45 150.991 1495.11 151.09 1494.81 151.264M1493.83 152.751C1493.91 152.116 1494.28 151.573 1494.81 151.264M1494.81 151.264L1494.81 151.265L1494.81 151.264ZM1757.35 150.846L1757.08 145.302L1760.1 148.138V215.225L1753.6 222.268C1752.24 222.555 1751.22 223.76 1751.22 225.203V227.718C1751.22 231.637 1748.07 234.781 1744.23 234.781H1503.81C1500.06 234.781 1496.96 231.778 1496.82 227.986C1496.76 226.373 1495.44 225.096 1493.82 225.096H1493.81C1492.2 225.096 1490.87 226.373 1490.81 227.986C1490.67 231.778 1487.58 234.781 1483.82 234.781H281.998C278.814 234.781 276.1 232.623 275.265 229.647C274.902 228.352 273.722 227.457 272.377 227.457C271.032 227.457 269.851 228.352 269.488 229.647C268.653 232.624 265.941 234.781 262.755 234.781H22.3408C18.4958 234.781 15.3444 231.637 15.3444 227.718V222.765C15.3444 222.011 15.0605 221.284 14.5491 220.73L9.33344 215.078L6.11906 188.098L9.35096 161.213L14.7339 154.121C14.7664 154.079 14.7977 154.035 14.8277 153.991H270.267C270.687 154.431 271.234 154.737 271.839 154.86C272.38 154.97 272.936 154.928 273.448 154.746H319.874C319.989 154.746 320.104 154.739 320.219 154.726C338.069 152.658 347.304 144.861 354.342 138.919L354.352 138.91L354.353 138.909C356.226 137.326 357.851 135.957 359.453 134.825L359.456 134.823C360.394 134.158 361.264 133.518 362.085 132.912C365.784 130.186 368.535 128.172 373.655 126.72C378.922 125.227 386.818 124.306 400.706 124.306H1365.14C1379.02 124.306 1386.92 125.227 1392.19 126.72C1397.31 128.172 1400.06 130.185 1403.76 132.91C1404.3 133.317 1404.88 133.737 1405.47 134.169L1405.48 134.178L1406.38 134.815L1406.39 134.826C1407.16 135.369 1407.94 135.975 1408.77 136.642L1408.77 136.643C1409.32 137.092 1409.89 137.565 1410.48 138.062L1411.49 138.91L1411.49 138.912L1411.5 138.919C1418.54 144.861 1427.77 152.658 1445.62 154.726C1445.74 154.739 1445.85 154.746 1445.97 154.746H1491.47C1492.01 155.425 1492.84 155.863 1493.78 155.877C1495.05 155.896 1496.16 155.116 1496.61 153.991H1754.35C1755.17 153.991 1755.95 153.655 1756.52 153.06C1757.09 152.466 1757.38 151.666 1757.35 150.846Z" stroke="white" stroke-width="6" stroke-linejoin="round"/>
<path opacity="0.2" d="M386.622 145.205L388.232 142.31H401.286L402.436 145.205L401.286 148.099H388.232L386.622 145.205Z" stroke="white" stroke-width="0.5"/>
<path opacity="0.2" d="M386.622 157.783L388.232 154.888H401.286L402.436 157.783L401.286 160.678H388.232L386.622 157.783Z" stroke="white" stroke-width="0.5"/>
<path opacity="0.2" d="M423.108 145.205L424.719 142.31H437.772L438.922 145.205L437.772 148.099H424.719L423.108 145.205Z" stroke="white" stroke-width="0.5"/>
<path opacity="0.2" d="M423.108 157.783L424.719 154.888H437.772L438.922 157.783L437.772 160.678H424.719L423.108 157.783Z" stroke="white" stroke-width="0.5"/>
<path opacity="0.2" d="M459.597 145.205L461.207 142.31H474.26L475.411 145.205L474.26 148.099H461.207L459.597 145.205Z" stroke="white" stroke-width="0.5"/>
<path opacity="0.2" d="M459.597 157.783L461.207 154.888H474.26L475.411 157.783L474.26 160.678H461.207L459.597 157.783Z" stroke="white" stroke-width="0.5"/>
<path opacity="0.2" d="M368.128 151.494L369.738 148.599H382.792L383.942 151.494L382.792 154.388H369.738L368.128 151.494Z" stroke="white" stroke-width="0.5"/>
<path opacity="0.2" d="M404.991 151.494L406.601 148.599H419.655L420.805 151.494L419.655 154.388H406.601L404.991 151.494Z" stroke="white" stroke-width="0.5"/>
<path opacity="0.2" d="M441.852 151.494L443.463 148.599H456.516L457.667 151.494L456.516 154.388H443.463L441.852 151.494Z" stroke="white" stroke-width="0.5"/>
<path opacity="0.2" d="M478.714 151.494L480.324 148.599H493.378L494.528 151.494L493.378 154.388H480.324L478.714 151.494Z" stroke="white" stroke-width="0.5"/>
<path opacity="0.2" d="M1495.48 137.909C1495.88 136.199 1494.64 134.178 1493.98 133.381L1490.23 130.111M1495.48 137.909L1493.35 151.494C1493.75 149.18 1490.44 144.995 1488.73 143.192L1490.23 130.111M1495.48 137.909C1495.69 136.777 1496.5 133.331 1497.6 131.117C1498.98 128.35 1499.85 126.841 1499.6 122.061C1499.35 117.281 1500.1 114.011 1502.48 108.35C1504.37 103.822 1511.26 87.0094 1514.47 79.1689C1497.6 104.703 1491.73 120.551 1490.23 130.111M1487.36 132.501L1490.23 119.922M1486.11 129.482L1488.73 117.91M1484.86 126.212L1487.36 114.891M1483.48 122.941L1486.11 111.118M1482.48 118.79L1485.48 107.093M1482.48 113.759L1487.36 93.1308" stroke="white"/>
<path d="M237.753 160.558C237.038 159.323 235.719 158.562 234.291 158.562H6.84766L3.34766 187.062L6.84766 215.562H234.291C235.719 215.562 237.038 214.802 237.753 213.567L251.937 189.067C252.655 187.827 252.655 186.298 251.937 185.058L237.753 160.558Z" stroke="white" stroke-width="6"/>
<path d="M242.896 153.316C241.914 151.612 240.097 150.562 238.13 150.562H13.5949L6.95071 159.258L3.60126 186.938L6.94777 214.841L14.8157 223.312H238.13C240.097 223.312 241.914 222.263 242.896 220.559L260.688 189.684C261.668 187.984 261.668 185.891 260.688 184.191L242.896 153.316Z" stroke="white"/>
<path d="M188.395 197V180.607L183.459 182.453V179.322L190.158 176.875H192.086V197H188.395Z" fill="white"/>
<path d="M168.844 197V177.094H172.535V194.102H181.08V197H168.844Z" fill="white"/>
<path d="M1529.44 160.558C1530.16 159.323 1531.48 158.562 1532.9 158.562H1763.72V215.562H1532.9C1531.48 215.562 1530.16 214.802 1529.44 213.567L1515.26 189.067C1514.54 187.827 1514.54 186.298 1515.26 185.058L1529.44 160.558Z" stroke="white" stroke-width="6"/>
<path d="M1754.97 150.562H1755.5L1755.47 150.038L1754.91 138.393L1763.22 146.155V150.062V214.866L1755.38 223.312H1529.07C1527.1 223.312 1525.28 222.263 1524.3 220.559L1506.51 189.684C1505.53 187.984 1505.53 185.891 1506.51 184.191L1524.3 153.316C1525.28 151.612 1527.1 150.562 1529.06 150.562H1754.97Z" stroke="white"/>
<path d="M1592.55 197V180.607L1587.62 182.453V179.322L1594.32 176.875H1596.25V197H1592.55Z" fill="white"/>
<path d="M1570.84 197V177.094H1577.87C1580 177.094 1581.66 177.645 1582.85 178.748C1584.03 179.842 1584.62 181.327 1584.62 183.205C1584.62 185.101 1584.02 186.618 1582.82 187.758C1581.62 188.888 1579.96 189.453 1577.84 189.453H1574.54V197H1570.84ZM1574.54 186.76H1577.56C1578.81 186.76 1579.68 186.436 1580.18 185.789C1580.68 185.142 1580.93 184.308 1580.93 183.287C1580.93 182.266 1580.68 181.441 1580.18 180.812C1579.68 180.184 1578.81 179.869 1577.56 179.869H1574.54V186.76ZM1581.45 197L1576.94 187.922L1580.62 187.471L1585.55 197H1581.45Z" fill="white"/>
<g opacity="0.2">
<path d="M86.7252 150.562C58.7252 150.562 33.4752 150.562 28.7252 150.562C23.9752 150.562 25.7252 146.812 25.9752 141.812C26.2252 136.812 33.7252 69.5615 56.7252 45.0615C79.7252 20.5615 105.475 6.81153 144.725 9.31153C183.975 11.8115 217.845 35.1496 237.475 63.5615C257.589 92.6741 261.493 134.802 261.099 139.937C260.704 145.071 262.225 150.562 258.225 150.562C255.025 150.562 142.558 150.562 86.7252 150.562ZM271.723 150.562L269.473 134.062C268.056 131.728 265.173 125.962 264.973 121.562C264.723 116.062 263.973 112.562 261.099 102.812C258.225 93.0615 244.973 53.0615 206.223 26.0615C167.473 -0.938475 122.223 -3.68847 91.4727 9.31153C60.7227 22.3115 36.9777 48.3135 28.7252 75.5625C22.1232 97.3617 15.806 134.645 13.4727 150.562H271.723Z" stroke="white" stroke-width="3"/>
<path d="M235.973 76.5626C248.473 95.3126 251.223 133.813 248.973 150.063H37.2227C33.2227 150.063 33.7227 148.312 33.9727 144.562C34.2227 140.812 43.4727 97.5625 49.9727 79.5625C56.4727 61.5625 71.2227 39.0626 98.4727 27.0626C125.723 15.0626 159.223 18.5626 184.223 30.0626C209.223 41.5626 223.473 57.8126 235.973 76.5626Z" stroke="white"/>
<path d="M178.51 118V115.648L185.4 107.965C186.166 107.108 186.772 106.315 187.219 105.586C187.665 104.848 187.889 104.082 187.889 103.289C187.889 102.451 187.647 101.781 187.164 101.279C186.69 100.769 186.025 100.514 185.168 100.514C184.302 100.514 183.591 100.801 183.035 101.375C182.479 101.94 182.201 102.829 182.201 104.041V104.396H178.482V103.863C178.482 102.04 179.102 100.564 180.342 99.4336C181.581 98.2943 183.195 97.7246 185.182 97.7246C187.242 97.7246 188.827 98.235 189.939 99.2559C191.061 100.268 191.621 101.557 191.621 103.125C191.621 104.41 191.298 105.559 190.65 106.57C190.003 107.582 189.174 108.639 188.162 109.742L183.473 115.033H192.086V118H178.51Z" fill="white"/>
<path d="M164.797 118V98.0938H168.488V115.102H177.033V118H164.797Z" fill="white"/>
</g>
<g opacity="0.2">
<path d="M1680.1 150.562C1708.1 150.562 1733.35 150.562 1738.1 150.562C1742.85 150.562 1741.1 146.812 1740.85 141.812C1740.6 136.812 1733.1 69.5615 1710.1 45.0615C1687.1 20.5615 1661.35 6.81153 1622.1 9.31153C1582.85 11.8115 1548.97 35.1496 1529.35 63.5615C1509.23 92.6741 1505.33 134.802 1505.72 139.937C1506.12 145.071 1504.6 150.562 1508.6 150.562C1511.8 150.562 1624.26 150.562 1680.1 150.562ZM1495.1 150.562L1497.35 134.062C1498.76 131.728 1501.65 125.962 1501.85 121.562C1502.1 116.062 1502.85 112.562 1505.72 102.812C1508.6 93.0615 1521.85 53.0615 1560.6 26.0615C1599.35 -0.938475 1644.6 -3.68847 1675.35 9.31153C1706.1 22.3115 1729.84 48.3135 1738.1 75.5625C1744.55 96.8598 1750.72 132.936 1753.18 149.429C1753.27 150.032 1752.8 150.562 1752.19 150.562H1495.1Z" stroke="white" stroke-width="3"/>
<path d="M1530.85 76.5626C1518.35 95.3126 1515.6 133.813 1517.85 150.063H1729.6C1733.6 150.063 1733.1 148.312 1732.85 144.562C1732.6 140.812 1723.35 97.5625 1716.85 79.5625C1710.35 61.5625 1695.6 39.0626 1668.35 27.0626C1641.1 15.0626 1607.6 18.5626 1582.6 30.0626C1557.6 41.5626 1543.35 57.8126 1530.85 76.5626Z" stroke="white"/>
<path d="M1586.72 118V115.648L1593.61 107.965C1594.37 107.108 1594.98 106.315 1595.43 105.586C1595.87 104.848 1596.1 104.082 1596.1 103.289C1596.1 102.451 1595.85 101.781 1595.37 101.279C1594.9 100.769 1594.23 100.514 1593.38 100.514C1592.51 100.514 1591.8 100.801 1591.24 101.375C1590.69 101.94 1590.41 102.829 1590.41 104.041V104.396H1586.69V103.863C1586.69 102.04 1587.31 100.564 1588.55 99.4336C1589.79 98.2943 1591.4 97.7246 1593.39 97.7246C1595.45 97.7246 1597.03 98.235 1598.15 99.2559C1599.27 100.268 1599.83 101.557 1599.83 103.125C1599.83 104.41 1599.5 105.559 1598.86 106.57C1598.21 107.582 1597.38 108.639 1596.37 109.742L1591.68 115.033H1600.29V118H1586.72Z" fill="white"/>
<path d="M1570.84 118V98.0938H1577.87C1580 98.0938 1581.66 98.6452 1582.85 99.748C1584.03 100.842 1584.62 102.327 1584.62 104.205C1584.62 106.101 1584.02 107.618 1582.82 108.758C1581.62 109.888 1579.96 110.453 1577.84 110.453H1574.54V118H1570.84ZM1574.54 107.76H1577.56C1578.81 107.76 1579.68 107.436 1580.18 106.789C1580.68 106.142 1580.93 105.308 1580.93 104.287C1580.93 103.266 1580.68 102.441 1580.18 101.812C1579.68 101.184 1578.81 100.869 1577.56 100.869H1574.54V107.76ZM1581.45 118L1576.94 108.922L1580.62 108.471L1585.55 118H1581.45Z" fill="white"/>
</g>
</svg>
