<svg width="1761" height="773" fill="none" xmlns="http://www.w3.org/2000/svg"><rect x="-.5" y=".5" width="1220.6" height="760.08" rx="11.5" transform="matrix(-1 0 0 1 1491.74 7.5)" stroke="#fff"/><path d="M271.02 29.44c0-4.625-.001-8.057-.265-10.72-.263-2.657-.785-4.483-1.782-5.923-1.254-1.81-3-3.221-5.032-4.067-1.617-.674-3.512-.8-6.165-.501-2.659.3-6.015 1.019-10.538 1.988l-94.728 20.31c-27.384 5.872-47.892 10.27-64.016 15.16-16.116 4.888-27.815 10.258-37.588 18.056a106.499 106.499 0 0 0-28.898 35.751c-5.576 11.191-8.375 23.755-9.776 40.539-1.401 16.79-1.402 37.765-1.402 65.771v356.053c0 44.325.01 66.335 8.165 84.878a96.502 96.502 0 0 0 21.399 30.663c14.59 14.051 35.246 21.653 76.85 36.945l127.333 46.801c4.942 1.817 8.612 3.165 11.533 3.912 2.918.747 5.014.873 6.826.309a11.5 11.5 0 0 0 5.712-3.986c1.154-1.506 1.759-3.517 2.065-6.513.306-3 .307-6.91.307-12.175V29.441Z" stroke="#fff"/><path d="M10.423 285.06 1.5 277.682v-70.664c0-59.477 0-89.215 11.964-113.103A113.001 113.001 0 0 1 44.377 55.91c20.95-16.579 50.064-22.636 108.294-34.751l93.72-19.5a873.74 873.74 0 0 1 3.186-.658l11 6.757c-3.065-.055-7.139.819-13.351 2.15l-94.728 20.31c-54.752 11.74-82.128 17.61-101.81 33.315A107 107 0 0 0 21.652 99.45c-11.23 22.538-11.23 50.536-11.23 106.532v79.077Zm-.093 152.751v-152.75l-8.75 8.5v134l8.75 10.25ZM1492.24 29.487c0-4.625 0-8.057.26-10.72.26-2.657.78-4.483 1.78-5.924 1.26-1.809 3-3.22 5.03-4.066 1.62-.674 3.52-.8 6.17-.501 2.66.3 6.01 1.019 10.54 1.988l94.72 20.31c27.39 5.872 47.9 10.269 64.02 15.16 16.12 4.888 27.82 10.258 37.59 18.056a106.569 106.569 0 0 1 28.9 35.751c5.57 11.191 8.37 23.755 9.77 40.538 1.4 16.791 1.4 37.765 1.4 65.772v356.053c0 44.325-.01 66.335-8.16 84.878a96.48 96.48 0 0 1-21.4 30.663c-14.59 14.051-35.24 21.653-76.85 36.945l-127.33 46.801c-4.94 1.816-8.61 3.165-11.54 3.912-2.91.747-5.01.872-6.82.309a11.469 11.469 0 0 1-5.71-3.986c-1.16-1.506-1.76-3.517-2.07-6.514-.3-2.999-.3-6.909-.3-12.174V29.488Z" stroke="#fff"/><path d="m1751.91 147.123 8.34-10.007c-1.49-17.829-4.48-31.22-10.46-43.152a112.975 112.975 0 0 0-30.91-38.006c-20.95-16.579-50.07-22.637-108.3-34.752l-93.72-19.499c-1.13-.235-2.19-.455-3.18-.658l-11 6.757c3.06-.055 7.14.819 13.35 2.15l94.73 20.31c54.75 11.74 82.12 17.61 101.81 33.315a107.105 107.105 0 0 1 29.03 35.918c6.36 12.761 9.12 27.272 10.31 47.624Z" stroke="#fff"/><path d="m1495.39 16.803-5.9.013c-.2-1.07-.48-1.812-.84-2.417a9.01 9.01 0 0 0-3.16-3.165l1.52-2.575-1.52 2.575c-.88-.516-2.04-.868-4.09-1.057-2.09-.194-4.78-.197-8.65-.197H291.461c-3.871 0-6.569.003-8.66.197-2.047.189-3.209.54-4.082 1.057a9 9 0 0 0-3.165 3.165c-.552.933-.914 2.192-1.093 4.503l-5.981.019c-.233-2.78-.703-4.225-1.392-5.22a9.001 9.001 0 0 0-3.938-3.183c-1.048-.436-2.449-.603-4.924-.324-2.507.283-5.721.968-10.294 1.949l-94.727 20.31c-27.425 5.88-47.814 10.254-63.815 15.107-15.958 4.84-27.325 10.094-36.754 17.618a104.003 104.003 0 0 0-28.22 34.912c-5.38 10.798-8.135 23.013-9.522 39.631-1.391 16.663-1.393 37.516-1.393 65.564v356.053c0 44.561.06 65.926 7.953 83.871a94 94 0 0 0 20.844 29.869c14.12 13.598 34.153 21.026 75.979 36.399l127.333 46.802c4.992 1.835 8.522 3.128 11.29 3.836 2.751.704 4.307.704 5.463.344a8.997 8.997 0 0 0 4.47-3.12c.727-.948 1.261-2.383 1.552-5.137l5.981.204c.126 3.442.498 5.069 1.188 6.235a9.004 9.004 0 0 0 3.165 3.166c.873.516 2.035.868 4.082 1.057 2.091.193 4.789.196 8.66.196H1472.75c3.87 0 6.56-.003 8.65-.196 2.05-.189 3.21-.541 4.09-1.057a9.014 9.014 0 0 0 3.16-3.166c.49-.817.83-1.889 1.02-3.707l5.91-.342c.3 1.315.7 2.164 1.18 2.794a9.023 9.023 0 0 0 4.47 3.12c1.16.359 2.71.36 5.47-.344 2.76-.708 6.29-2.002 11.29-3.837l127.33-46.801c41.82-15.373 61.86-22.801 75.98-36.399a93.904 93.904 0 0 0 20.84-29.869c7.89-17.945 7.95-39.31 7.95-83.871V205.332c0-28.048 0-48.901-1.39-65.564-1.39-16.618-4.14-28.833-9.52-39.631a103.918 103.918 0 0 0-28.22-34.912c-9.43-7.524-20.8-12.778-36.75-17.618-16.01-4.853-36.39-9.227-63.82-15.107l-94.73-20.31c-4.57-.98-7.78-1.666-10.29-1.95-2.48-.279-3.88-.111-4.93.325a8.975 8.975 0 0 0-3.93 3.183c-.48.693-.86 1.61-1.12 3.055Z" stroke="#fff" stroke-width="6"/><rect x="284.775" y="25" width="1194" height="726" rx="5" stroke="#fff" stroke-width="2"/><path stroke="#fff" d="M385.315 371.08h958.944v397H385.315z"/><path d="M687.542 589.522h-.395l-.732.733.732.732h.395l.732-.732-.732-.733Zm225.945-40.505 13.012 7.492 1.014-.281-.281-.958-13.013-7.548-1.014.281.282 1.014Zm-164.542 40.786h-.451l-.676.732.676.732h.451l.732-.732-.732-.732Z" fill="#fff"/><path d="M749.227 590.536v-.451l-.733-.676-.676.676v.451l.676.732.733-.732Zm-.733-13.745h35.546l.732-.732-.732-.733h-35.546l-.676.733.676.732Zm190.397 28.278v-15.041l-.732-.732-.732.732v15.041l.732.732.732-.732Zm-29.964-49.628c-1.916 4.45-2.873 9.351-2.873 14.196l.732.732.732-.732a35.5 35.5 0 0 1 2.761-13.632l-.395-.958-.957.394Zm-29.631-20.168v68.669l.732.732.732-.732v-68.669l-.732-.732-.732.732Zm-47.324 69.063c-1.408 0-2.816-.112-4.225-.281-1.464-.169-2.873-.451-4.337-.789a26.417 26.417 0 0 1-4.225-1.352 36.27 36.27 0 0 1-4-1.803 48.682 48.682 0 0 1-3.661-2.196c-1.127-.789-2.254-1.634-3.267-2.535-1.014-.902-2.028-1.859-2.93-2.873-.901-1.014-1.746-2.141-2.535-3.268-.788-1.183-1.521-2.365-2.197-3.661-.676-1.296-1.239-2.591-1.802-3.943-.507-1.352-.958-2.704-1.296-4.056-.338-1.352-.619-2.704-.788-4.112-.169-1.296-.226-2.592-.226-3.944l-.732-.732-.732.732c0 1.352.112 2.761.281 4.113.169 1.464.451 2.873.789 4.281a26.317 26.317 0 0 0 1.352 4.225 29.684 29.684 0 0 0 1.859 4.112 32.242 32.242 0 0 0 2.309 3.774c.845 1.183 1.69 2.366 2.648 3.436a38.634 38.634 0 0 0 3.042 3.042 30.962 30.962 0 0 0 3.436 2.648c1.239.845 2.535 1.577 3.831 2.309a30.331 30.331 0 0 0 4.168 1.859 44.13 44.13 0 0 0 4.394 1.409c1.465.394 2.986.676 4.507.845 1.464.169 2.929.281 4.393.281l.733-.732-.733-.732-.056-.057Zm-5.465-40.222v13.576l.732.733.733-.733v-13.576l-.733-.676-.732.676Zm24.453 13.24-.281.619.338.958 1.014-.338.281-.62-.394-.957-.958.338Zm-65.743 26.982v-.395l-.733-.732-.732.732v.395l.732.732.733-.732Z" fill="#fff"/><path d="M749.674 590.084v-13.632l-.733-.732-.732.732v13.632l.732.733.733-.733Zm0-27.997v-12.731l-.733-.732-.732.732v12.731l.732.733.733-.733Zm35.543-12.73v-.394l-.733-.733-.732.733v.394l.732.733.733-.733Zm-52.613-9.521v59.542l.732.733.732-.733v-59.542l-.732-.732-.732.732Zm94.245 38.982h.395l.732-.732-.732-.732h-.395l-.732.732.732.732Zm69.287 25.518v-.395l-.732-.732-.732.732v.395l.732.732.732-.732ZM878.9 534.88v.394l.676.733.733-.733v-.394l-.733-.733-.676.733Zm.676 70.189h.451l.732-.732-.732-.733h-.451l-.676.733.676.732Zm65.965-15.324v.338l.732.732.733-.732v-.338l-.733-.732-.732.732Zm44.048 15.324h.394l.732-.732-.732-.733h-.394l-.733.733.733.732Zm62.701-6.535V534.88l-.74-.733-.73.733v63.654l.73.733.74-.733Zm-313.939-64.387c-.957 0-2.028.226-2.929.676l-.338.958.958.338c.676-.338 1.521-.507 2.309-.507l.733-.732-.733-.733Zm130.914 34.42c0-.902-.226-1.803-.676-2.648l-.958-.338-.338.958c.338.619.507 1.352.507 2.028l.732.732.733-.732Zm43.604-19.436.394.225 1.014-.282-.282-1.014-.394-.225-.957.282.225 1.014Zm14.873 7.492c1.634-1.859 3.662-3.379 5.859-4.506l.338-.958-.958-.338c-2.366 1.24-4.563 2.873-6.309 4.901v1.014l1.07-.056v-.057Zm30.811.676.282-.169.281-.958-1.014-.281-.281.169-.282.957 1.014.282Zm16.842-2.197-.395.225-.281.957 1.014.282.394-.169.282-1.014-1.014-.281Zm-29.009 51.207.451-.056.619-.789-.788-.676-.451.056-.676.789.845.676Zm90.124-30.588-34.64-39.544-1.07-.057-.06 1.014 34.65 39.545 1.07.113.05-1.071Z" fill="#fff"/><path d="M1035.62 576.226v1.071l.73.732.73-.732v-1.071l-.73-.732-.73.732Zm-30.14-12.787v-1.07l-.68-.732-.73.732v1.07l.73.733.68-.733Zm-12.453-28.504-.901.563-.113.113-.901.788-.056.113-.733.957-.056.113-.507 1.07-.056.113-.338 1.127v.112l-.113 1.127.676.789.789-.676.112-1.014.282-1.014.451-.958.619-.845.733-.676.901-.563.225-1.014-1.014-.225Zm-124.832 31.04-.789-1.07-.113-.113c-1.126-1.014-2.647-1.408-3.999-1.408l-.732.732.732.732c1.126 0 2.309.338 3.042 1.014l.507-.507-.564.451.789 1.07 1.014.169.169-1.014-.056-.056Zm-53.122-28.672c-3.38 1.69-6.479 3.943-9.182 6.591a35.552 35.552 0 0 0-7.943 11.548c-1.915 4.45-2.929 9.294-2.929 14.082l.732.733.732-.733c0-4.619.958-9.294 2.817-13.519 1.802-4.169 4.394-7.887 7.605-11.041a35.849 35.849 0 0 1 8.787-6.309l.338-.958-.957-.338v-.056Zm81.063-2.029v-.394l-.732-.733-.732.733v.394l.732.733.732-.733ZM878.9 603.941v.395l.676.732.733-.732v-.395l-.733-.732-.676.732Zm16.114 1.128h.394l.732-.732-.732-.733h-.394l-.733.733.733.732Zm93.842-1.128v.395l.733.732.732-.732v-.395l-.732-.732-.733.732Zm15.944 1.128h.39l.74-.732-.74-.733h-.39l-.73.733.73.732Z" fill="#fff"/><path d="M863.35 562.99h-.056l-.732.733.732.732h.056l.732-.732-.732-.733Zm75.993 27.039v-.338l-.733-.732-.732.732v.338l.732.733.733-.733Zm49.91-48.839v62.754l.732.732.733-.732V541.19l-.733-.732-.732.732Zm50.417 62.131.79.789.11.056.96.62.11.056 1.07.451h.11l1.18.281h1.47l1.18-.225.17-.056 1.07-.451.11-.056 1.02-.62.11-.056.85-.789.11-.112.67-.958.12-.113.5-1.07.06-.113.28-1.126.06-.169.11-1.071-.68-.788-.78.619-.12 1.071-.28.957-.45.958-.62.901-.79.676-.84.564-1.02.338-1.01.225h-1.07l-1.07-.225-.9-.338-.85-.564-.79-.732-1.01.056.06 1.014Zm-212.431-24.896h24.392l.732-.733-.732-.732h-24.392l-.732.732.732.733Zm4.737 27.376h1.577l.732-.733-.732-.732h-1.577l-.733.732.733.733Z" fill="#fff"/><path d="M833.611 605.801a32.365 32.365 0 0 0 4.619-.507 37.385 37.385 0 0 0 4.338-.958 33.905 33.905 0 0 0 4.224-1.464 37.82 37.82 0 0 0 4-1.972 41.527 41.527 0 0 0 3.718-2.366 30.798 30.798 0 0 0 3.323-2.76v-1.014h-1.013c-1.014.957-2.085 1.802-3.211 2.647-1.127.845-2.31 1.578-3.549 2.31-1.24.676-2.535 1.352-3.887 1.859a38.513 38.513 0 0 1-4.056 1.408c-1.352.394-2.76.676-4.169.901a39.436 39.436 0 0 1-4.45.451l-.676.789.789.676Z" fill="#fff"/><path d="m857.832 595.775 1.014-1.014.057-1.014h-1.071l-1.014.958v1.07h1.014Z" fill="#fff"/><path d="M858.846 594.76c3.38-3.379 5.915-7.548 7.548-12.055 1.69-4.562 2.366-9.35 2.422-14.139l-.732-.732-.732.732c-.057 4.62-.733 9.295-2.366 13.632-1.577 4.338-4 8.338-7.211 11.549v1.013h1.071Zm-36.11-43.599 1.295-.62a23.19 23.19 0 0 1 3.831-1.183c1.352-.282 2.76-.394 4.112-.451 1.521 0 2.986.169 4.45.451 1.409.338 2.817.789 4.169 1.408 2.591 1.183 4.957 3.042 6.759 5.239l1.015.113.112-1.014c-1.971-2.366-4.506-4.338-7.267-5.633a17.94 17.94 0 0 0-4.45-1.465 22.65 22.65 0 0 0-4.788-.507c-1.465 0-2.986.169-4.45.451a20.508 20.508 0 0 0-4.112 1.295c-.451.169-.902.395-1.352.62l-.338.958.957.338h.057Zm40.56 11.829h-36.447l-.732.733.732.732h36.447l.732-.732-.732-.733Zm32.11-28.843h-15.83l-.676.733.676.732h15.83l.732-.732-.732-.733Zm156.154 0h-15.61l-.73.733.73.732h15.61l.73-.732-.73-.733Zm-190.234 13.576c-3.154-4.619-7.605-8.393-12.562-10.928-2.535-1.296-5.239-2.254-7.999-2.93a35.92 35.92 0 0 0-4.281-.732c-1.465-.169-2.929-.281-4.394-.281-2.535 0-5.07.225-7.548.732-2.423.507-4.732 1.183-7.042 2.14a56.17 56.17 0 0 0-2.647 1.24l-.338.957.957.338c.845-.45 1.69-.788 2.535-1.183a35.91 35.91 0 0 1 6.76-2.028c2.366-.507 4.845-.732 7.267-.732 1.408 0 2.816.056 4.225.225 1.408.169 2.76.395 4.112.733a33.793 33.793 0 0 1 7.661 2.816c4.788 2.423 9.013 6.084 12.055 10.478l1.014.169.169-1.014h.056Z" fill="#fff"/><path d="M850.336 577.747c-1.69 3.38-4.225 6.478-7.323 8.563a19.1 19.1 0 0 1-5.07 2.422 18.964 18.964 0 0 1-5.633.845h-.056c-1.352 0-2.704-.113-4.056-.395a23.095 23.095 0 0 1-3.831-1.183 20.142 20.142 0 0 1-6.478-4.337c-1.859-1.803-3.38-4-4.394-6.422a22.543 22.543 0 0 1-1.183-3.774 19.844 19.844 0 0 1-.394-4.056c0-1.352.113-2.704.394-4.056a22.572 22.572 0 0 1 1.183-3.774 20.53 20.53 0 0 1 4.338-6.422 20.554 20.554 0 0 1 5.126-3.718l.338-.957-.958-.338a21.282 21.282 0 0 0-5.52 3.999 21.709 21.709 0 0 0-4.619 6.873c-.564 1.295-.958 2.647-1.24 4.055a22.278 22.278 0 0 0-.45 4.338c0 1.465.169 2.929.45 4.337a20.044 20.044 0 0 0 1.296 4.056c1.07 2.535 2.704 4.901 4.676 6.873 1.971 1.971 4.393 3.549 6.928 4.619 1.352.563 2.704.958 4.113 1.239 1.408.282 2.872.451 4.337.451h.113c2.028 0 4.056-.338 6.027-.901 1.916-.62 3.774-1.465 5.464-2.648 3.324-2.253 6.028-5.52 7.831-9.126l-.339-.957-.957.338-.113.056Zm151.474-41.629-.84-.789-.11-.112-1.017-.62-.169-.113-1.127-.45-.112-.057-1.296-.225h-1.521l-1.296.225-.112.057-1.183.45h-.057l-.056.057-.338.957 1.014.338 1.07-.45 1.127-.169h1.183l1.07.225 1.071.394.899.564.79.788 1.01-.056v-1.014Zm-26.583 19.547-13.182 7.323-.281.958.957.281 13.182-7.266.282-1.014-.958-.282Z" fill="#fff"/><path d="M961.705 563.834c.563 1.915.845 3.83.845 5.858l.732.733.732-.733c0-2.14-.338-4.224-.957-6.252l-.902-.507-.507.901h.057Zm-176.939-14.872v-13.689l-.732-.732-.732.732v13.689l.732.676.732-.676Zm-35.539 13.521v-.394l-.733-.733-.676.733v.394l.676.732.733-.732Zm35.539 41.459v-13.407l-.732-.732-.732.732v13.407l.732.732.732-.732Zm-51.767-4.564c0 1.352.394 2.816 1.408 3.887 1.071 1.014 2.535 1.408 3.887 1.408l.732-.732-.732-.733c-1.07 0-2.197-.338-2.816-1.014-.676-.619-1.014-1.802-1.014-2.816l-.733-.732-.732.732Zm193.328-42.528.281.225 1.014-.282-.281-1.014-.282-.169-1.014.282.282.958Zm-13.345-9.182-.338.394.169 1.014 1.013-.169.338-.394-.169-1.014-1.013.169Zm-241.551-12.337v64.049l.732.732.732-.732v-64.049l-.732-.732-.732.732Zm5.297 69.343h45.235l.732-.733-.732-.732h-45.235l-.732.732.732.733Z" fill="#fff"/><path d="M671.431 599.378c0 1.352.394 2.816 1.408 3.887 1.07 1.014 2.535 1.408 3.887 1.408l.732-.732-.732-.733c-1.07 0-2.197-.338-2.817-1.014-.676-.619-1.014-1.802-1.014-2.816l-.732-.732-.732.732Zm113.786-8.842v-.451l-.733-.676-.732.676v.451l.732.732.733-.732Zm-1.183-13.352h.451l.732-.732-.732-.732h-.451l-.732.732.732.732Zm161.507 27.94v.451l.732.732.733-.732v-.451l-.733-.732-.732.732Zm-223.582-.055h.394l.733-.732-.733-.733h-.394l-.732.733.732.732Zm250.055-55.206.394-.225.282-.958-1.014-.282-.394.226-.282.957 1.014.282Zm4.622 6.029-.169-.451-.957-.394-.395.958.169.45.958.395.394-.958Zm-37.293 49.457v-.113l-.733-.732-.732.732v.113l.732.732.733-.732Zm-190.116-55.992v-.394l-.733-.733-.676.733v.394l.676.733.733-.733Zm-.395 12.392h-.338l-.676.732.676.733h.338l.676-.733-.676-.732Zm.395 14.704v-.394l-.733-.733-.676.733v.394l.676.732.733-.732Zm-13.751-41.181-.901.676h-.113c-1.014 1.127-1.408 2.592-1.408 3.944l.732.732.732-.732c0-1.071.338-2.197 1.014-2.817l-.507-.507.451.62.901-.676.169-1.014-1.014-.169-.056-.057Zm190.458 1.972c-5.182 2.648-9.238 6.028-12.674 10.703l.169 1.014 1.014-.169c3.323-4.506 7.154-7.717 12.167-10.252l.338-.958-.957-.338h-.057Zm7.496 14.479.676-.338-.338-.676.281.676a17.686 17.686 0 0 1 4-1.352c1.408-.338 2.873-.45 4.337-.45 1.465 0 2.986.169 4.451.507 1.408.338 2.76.788 4.112 1.408a19.916 19.916 0 0 1 6.703 5.126h1.014l.057-.957a21.65 21.65 0 0 0-7.211-5.521 20.29 20.29 0 0 0-4.394-1.521 22.52 22.52 0 0 0-4.732-.507c-1.577 0-3.154.169-4.675.507-1.465.338-2.929.789-4.338 1.465l-.676.338-.338.957.958.338h.113Zm56.555 52.951h14.815l.68-.733-.68-.732h-14.815l-.732.732.732.733Zm-109.957 0h14.984l.733-.733-.733-.732h-14.984l-.732.732.732.733Z" fill="#fff"/><path d="M784.487 589.409h-35.546l-.732.676.732.732h35.546l.732-.732-.732-.676Zm.73-12.956v-14.364l-.733-.733-.732.733v14.364l.732.733.733-.733Z" fill="#fff"/><path d="M784.487 561.356h-35.546l-.732.733.732.732h35.546l.732-.732-.732-.733Zm.73-26.082v-.394l-.733-.733-.732.733v.394l.732.733.733-.733Z" fill="#fff"/><path d="M784.487 534.147h-46.136l-.732.733.732.732h46.136l.732-.732-.732-.733Zm-61.399 70.19v-14.533l-.733-.733-.732.733v14.533l.732.732.733-.732Z" fill="#fff"/><path d="M722.357 589.071h-34.813l-.732.733.732.732h34.813l.732-.732-.732-.733Z" fill="#fff"/><path d="M688.276 589.803V534.88l-.732-.733-.732.733v54.923l.732.732.732-.732Z" fill="#fff"/><path d="M687.539 534.147h-15.773l-.732.733.732.732h15.773l.733-.732-.733-.733Zm160.66 22.59 13.125-7.605.282-.958-1.014-.281-13.069 7.548-.282 1.014.958.282Zm89.847 49.516.451.056.789-.676-.62-.789-.451-.056-.788.62.619.845Zm34.589-57.629c-7.098-10.139-18.533-15.772-30.194-15.772a36.689 36.689 0 0 0-16.674 3.999l-.338.958.957.338a35.418 35.418 0 0 1 16.055-3.831c11.21 0 22.195 5.352 29.011 15.153l1.014.169.169-1.014Zm-10.479 21.067c0 4.394-1.634 9.013-4.507 12.506-2.816 3.436-6.928 5.859-11.21 6.76l-.563.845.845.563c4.563-.958 8.957-3.549 11.999-7.267 3.098-3.774 4.788-8.675 4.844-13.407l-.732-.732-.732.732h.056Z" fill="#fff"/><path d="M945.937 590.084v15.04l.732.733.732-.733v-15.04l-.732-.732-.732.732Z" fill="#fff"/><path d="M946.779 605.857c18.984-2.254 32.166-18.421 32.166-36.165 0-4.507-.845-9.126-2.648-13.633l-.958-.394-.394.958c1.746 4.337 2.591 8.787 2.591 13.069 0 17.012-12.618 32.559-30.869 34.7l-.62.789.789.619-.057.057Zm-198.285-56.218h35.546l.732-.676-.732-.733h-35.546l-.676.733.676.676Zm-10.143 55.035h45.685l.733-.733-.733-.732h-45.685l-.732.732.732.733Zm220.261-47.881 13.182-7.267.281-1.014-.957-.282-13.182 7.267-.282 1.014.958.282Zm-35.094 5.69-13.745-7.943-.958.282.226.957 13.745 7.943 1.014-.281-.282-.958Z" fill="#fff"/><path d="M938.443 588.958c-4.225-.902-8.338-3.38-11.154-6.816a18.76 18.76 0 0 1-3.267-5.746 19.625 19.625 0 0 1-1.183-6.76c0-1.07.056-2.084.225-3.098.169-1.014.394-1.972.732-2.93l-.45-.901-.902.451c-.338 1.014-.563 2.084-.788 3.154a21.446 21.446 0 0 0-.282 3.324c0 2.478.451 4.901 1.296 7.21.788 2.254 1.971 4.338 3.549 6.14 3.041 3.662 7.379 6.309 11.998 7.267l.845-.563-.563-.845-.056.113Zm96.777-54.078v41.347l.73.733.74-.733V534.88l-.74-.733-.73.733Zm-29.29 69.456v-40.897l-.73-.732-.74.732v40.897l.74.732.73-.732Zm-179.813-26.644v.395l.732.732.733-.732v-.395l-.733-.732-.732.732Zm69.629 26.25v-68.669l-.732-.732-.733.732v68.669l.733.732.732-.732Zm10.308-34.249c0 18.42 13.745 33.911 32.052 36.165l.789-.62-.62-.789c-17.575-2.14-30.757-17.012-30.757-34.7l-.732-.732-.732.732v-.056Z" fill="#fff"/><path d="m1004.24 562.875 35.37 40.39 1.02.112.05-1.07-35.37-40.39-1.02-.112-.05 1.07Zm30.87 14.084.73.845 1.02.057.05-1.014-.73-.845-1.01-.057-.06 1.014ZM1350.71 5.69c0-.976.7-1.812 1.67-1.965 13.08-2.088 21.31-1.883 34.97.03.99.137 1.72.981 1.72 1.975v.77c0 1.104-.89 2-2 2h-34.36c-1.11 0-2-.896-2-2v-.81Zm-60.91-3.336c-3.81.195-7.79.644-12.35 1.372-.64.103-1.17.513-1.45 1.067-.14.271-.22.577-.22.898V6.5c0 1.104.9 2 2 2h34.37c1.1 0 2-.896 2-2v-.77c0-.993-.73-1.836-1.72-1.974-4.81-.674-8.94-1.136-12.86-1.36-1.01 1.123-2.81 1.869-4.86 1.869-2.08 0-3.9-.765-4.91-1.911Z" fill="#fff"/><path d="m1737.71 115.251-.14.285H1504.6l-.08-.409c-1.66-9.006-2.24-25.832-2.24-42.033 0-18.52 1.25-36.666 3.01-50.438.37-2.908 1.15-5.044 2.29-6.567 1.14-1.533 2.62-2.41 4.32-2.842 1.69-.43 3.58-.419 5.57-.201 1.98.217 4.1.647 6.23 1.08l.02.003c1.74.355 3.51.714 5.26.971 4.94.727 44.33 8.991 79.05 16.278l.11.022c25.25 5.3 42.91 9.095 54.33 12.464 2.64.78 5.1 1.476 7.43 2.137 9.52 2.696 16.97 4.806 26.16 9.523 9.3 4.776 24.99 15.322 37.38 32.15l.01.012v.012c7.71 11.88 7.26 21.258 4.26 27.553Z" stroke="#fff"/><mask id="Device Type=Legion Go, View=Back__a" fill="#fff"><path d="M1526.82 615.969a4.773 4.773 0 0 0-4.77 4.771v.229c6.99 0 12.65 5.664 12.65 12.652v20.196c0 6.987-5.66 12.652-12.65 12.652v1.229a4.773 4.773 0 0 0 4.77 4.771c9.32 0 16.88-7.558 16.88-16.882V632.85c0-9.323-7.56-16.881-16.88-16.881Z"/></mask><path d="m1522.05 667.698-1-.001v.001h1Zm1-46.958a3.772 3.772 0 0 1 3.77-3.771v-2a5.768 5.768 0 0 0-5.77 5.771h2Zm0 .229v-.229h-2v.229h2Zm-1 1v-2 2-2 2-2 2Zm0 0c6.44 0 11.65 5.217 11.65 11.652h2c0-7.54-6.11-13.652-13.65-13.652v2Zm11.65 11.652v20.196h2v-20.196h-2Zm0 20.196c0 6.435-5.21 11.652-11.65 11.652v2c7.54 0 13.65-6.112 13.65-13.652h-2Zm-11.65 11.652v2-2 2-2 2-2Zm1 2.229v-1.229l-2-.001v1.229l2 .001Zm3.77 3.771a3.772 3.772 0 0 1-3.77-3.771h-2a5.769 5.769 0 0 0 5.77 5.771v-2Zm15.88-15.882c0 8.771-7.11 15.882-15.88 15.882v2c9.88 0 17.88-8.006 17.88-17.882h-2Zm0-22.737v22.737h2V632.85h-2Zm-15.88-15.881c8.77 0 15.88 7.11 15.88 15.881h2c0-9.875-8-17.881-17.88-17.881v2Z" fill="#fff" mask="url(#Device Type=Legion Go, View=Back__a)"/><rect x="1508.9" y="620.469" width="26.304" height="46.5" rx="13.152" stroke="#fff"/><rect x="1519.79" y="632.469" width="4.16" height="23.25" rx="2.08" stroke="#fff"/><mask id="Device Type=Legion Go, View=Back__b" fill="#fff"><path d="M1522.08 620.969c6.97.015 12.62 5.674 12.62 12.652v20.196c0 6.987-5.66 12.652-12.65 12.652v.424c0 3.08 2.5 5.576 5.58 5.576 10.89 0 19.72-8.833 19.72-19.729v-17.043c0-10.896-8.83-19.728-19.72-19.728a5.578 5.578 0 0 0-5.55 5Z"/></mask><path d="m1522.08 620.969-1-.102-.11 1.099 1.11.003v-1Zm-.03 45.924-1-.001v.001h1Zm.03-44.924c6.42.014 11.62 5.225 11.62 11.652h2c0-7.53-6.09-13.635-13.62-13.652v2Zm11.62 11.652v20.196h2v-20.196h-2Zm0 20.196c0 6.435-5.21 11.652-11.65 11.652v2c7.54 0 13.65-6.112 13.65-13.652h-2Zm-11.65 11.652v2-2 2-2 2-2Zm1 1.426v-.425l-2-.002v.424l2 .003Zm4.58 4.574a4.578 4.578 0 0 1-4.58-4.576h-2a6.574 6.574 0 0 0 6.58 6.576v-2Zm18.72-18.729c0 10.344-8.38 18.729-18.72 18.729v2c11.44 0 20.72-9.281 20.72-20.729h-2Zm0-17.043v17.043h2v-17.043h-2Zm-18.72-18.728c10.34 0 18.72 8.385 18.72 18.728h2c0-11.448-9.28-20.728-20.72-20.728v2Zm-4.56 4.102a4.585 4.585 0 0 1 4.56-4.102v-2a6.58 6.58 0 0 0-6.55 5.898l1.99.204Z" fill="#fff" mask="url(#Device Type=Legion Go, View=Back__b)"/><path d="M1492.18 120.969c0-3.038 2.46-5.5 5.5-5.5h245.37c2.63 0 4.9 1.866 5.37 4.449 1.83 9.955 2.56 16.426 3.1 26.415h-259.34v-25.364Z" stroke="#fff"/><path d="M1492.18 120.969c0-3.038 2.46-5.5 5.5-5.5h245.34c2.64 0 4.92 1.884 5.38 4.484 2.51 14.248 3.18 23.051 3.54 37.016h-259.76v-36Z" stroke="#fff"/><path d="M1492.18 28.94c0-4.625 0-8.057.26-10.72.26-2.657.79-4.483 1.78-5.923 1.26-1.81 3-3.221 5.03-4.067 1.62-.674 3.52-.8 6.17-.501 2.66.3 6.02 1.019 10.54 1.988l94.73 20.31c27.38 5.872 47.89 10.27 64.01 15.16 16.12 4.888 27.82 10.258 37.59 18.056a106.568 106.568 0 0 1 28.9 35.751c5.57 11.191 8.37 23.755 9.77 40.539 1.41 16.79 1.41 37.765 1.41 65.771v356.053c0 44.325-.01 66.335-8.17 84.878a96.32 96.32 0 0 1-21.4 30.663c-14.59 14.051-35.24 21.653-76.85 36.945l-127.33 46.801c-4.94 1.817-8.61 3.165-11.53 3.912-2.92.747-5.02.873-6.83.309a11.469 11.469 0 0 1-5.71-3.986c-1.16-1.506-1.76-3.517-2.07-6.513-.3-3-.3-6.91-.3-12.175V28.941Z" stroke="#fff"/><path d="M1730.72 83.75c-.34.25-.84.587-2.06 1.23-2.38 1.25-7.88 2.626-15.13 0-2.35-.851-7.23-3.203-13.42-6.189-12.9-6.215-31.49-15.176-44.83-19.06-19.75-5.75-30.87-7-49-4.5-17.04 2.35-28.56 7.574-39.53 12.554-.7.316-1.4.632-2.09.946-1.8.812-3.79 1.747-5.9 2.736-11.51 5.398-22.85 11.752-31.48 9.639-6.5-2.126-9.12-8-10.37-23.375-.95-11.613-.96-27.432-.54-39.541-7.96-.428-14.15 4.702-12.34 36.29 2 34.875 7.38 38.875 14.88 41.875 7.5 3 23.37-5.125 45-17.375 21.62-12.25 42.37-17.875 67.37-16.5 22.97 1.264 47.42 14.343 67.13 24.894 1.75.934 3.46 1.847 5.12 2.731 20.5 10.875 30.13 12.375 33.13 12.5 1.09 0 1.69-.199 2.69-.636-.91-5.906-4.16-12.406-8.63-18.219ZM25.488 115.799l.136.285h232.974l.076-.409c1.665-9.006 2.239-25.833 2.239-42.033 0-18.52-1.251-36.666-3.004-50.438-.37-2.908-1.15-5.044-2.288-6.567-1.146-1.534-2.628-2.41-4.327-2.843-1.685-.428-3.578-.418-5.565-.2-1.983.217-4.098.647-6.235 1.08l-.013.003c-1.75.355-3.516.714-5.266.971-4.937.727-44.325 8.991-79.052 16.278l-.103.022c-25.258 5.3-42.915 9.095-54.332 12.464-2.64.78-5.1 1.476-7.435 2.137-9.518 2.696-16.968 4.806-26.152 9.523-9.301 4.776-24.993 15.322-37.382 32.15l-.009.012-.008.012c-7.71 11.881-7.252 21.258-4.254 27.553Z" stroke="#fff"/><mask id="Device Type=Legion Go, View=Back__c" fill="#fff"><path d="M237.376 616.517a4.77 4.77 0 0 1 4.77 4.77v.23c.001 0 0 0 0 0-6.987 0-12.652 5.664-12.652 12.651v20.197c0 6.987 5.665 12.652 12.652 12.652v1.229a4.77 4.77 0 0 1-4.77 4.771c-9.324 0-16.882-7.559-16.882-16.882v-22.737c0-9.323 7.558-16.881 16.882-16.881Z"/></mask><path d="m242.146 668.246 1-.001v.001h-1Zm-1-46.959a3.77 3.77 0 0 0-3.77-3.77v-2a5.77 5.77 0 0 1 5.77 5.77h-2Zm0 .23v-.23h2v.23h-2Zm1 1v-2 2-2 2-2 2Zm0 0c-6.435 0-11.652 5.216-11.652 11.651h-2c0-7.539 6.113-13.651 13.652-13.651v2Zm-11.652 11.651v20.197h-2v-20.197h2Zm0 20.197c0 6.435 5.217 11.652 11.652 11.652v2c-7.54 0-13.652-6.113-13.652-13.652h2Zm11.652 11.652v2-2 2-2 2-2Zm-1 2.229v-1.229l2-.001v1.229l-2 .001Zm-3.77 3.771a3.771 3.771 0 0 0 3.77-3.771h2a5.77 5.77 0 0 1-5.77 5.771v-2Zm-15.882-15.882c0 8.771 7.11 15.882 15.882 15.882v2c-9.876 0-17.882-8.006-17.882-17.882h2Zm0-22.737v22.737h-2v-22.737h2Zm15.882-15.881c-8.772 0-15.882 7.11-15.882 15.881h-2c0-9.876 8.006-17.881 17.882-17.881v2Z" fill="#fff" mask="url(#Device Type=Legion Go, View=Back__c)"/><rect x=".5" y="-.5" width="26.304" height="46.5" rx="13.152" transform="matrix(-1 0 0 1 255.798 621.517)" stroke="#fff"/><rect x=".5" y="-.5" width="4.16" height="23.25" rx="2.08" transform="matrix(-1 0 0 1 244.904 633.517)" stroke="#fff"/><mask id="Device Type=Legion Go, View=Back__d" fill="#fff"><path d="M242.117 621.517c-6.974.015-12.623 5.674-12.623 12.651v20.197c0 6.987 5.665 12.652 12.652 12.652v.424a5.576 5.576 0 0 1-5.575 5.576c-10.896 0-19.728-8.833-19.728-19.729v-17.043c0-10.896 8.832-19.728 19.728-19.728a5.576 5.576 0 0 1 5.546 5Z"/></mask><path d="m242.117 621.517.995-.102.113 1.099-1.106.003-.002-1Zm.029 45.924 1-.001v.001h-1Zm-.027-44.924c-6.422.014-11.625 5.225-11.625 11.651h-2c0-7.529 6.095-13.635 13.621-13.651l.004 2Zm-11.625 11.651v20.197h-2v-20.197h2Zm0 20.197c0 6.435 5.217 11.652 11.652 11.652v2c-7.54 0-13.652-6.113-13.652-13.652h2Zm11.652 11.652v2-2 2-2 2-2Zm-1 1.425v-.424l2-.003v.425l-2 .002Zm-4.575 4.575a4.575 4.575 0 0 0 4.575-4.576h2a6.575 6.575 0 0 1-6.575 6.576v-2Zm-18.728-18.729c0 10.344 8.385 18.729 18.728 18.729v2c-11.448 0-20.728-9.281-20.728-20.729h2Zm0-17.043v17.043h-2v-17.043h2Zm18.728-18.728c-10.343 0-18.728 8.385-18.728 18.728h-2c0-11.448 9.28-20.728 20.728-20.728v2Zm4.551 4.102a4.576 4.576 0 0 0-4.551-4.102v-2a6.576 6.576 0 0 1 6.541 5.898l-1.99.204Z" fill="#fff" mask="url(#Device Type=Legion Go, View=Back__d)"/><path d="M271.02 29.488c0-4.625-.001-8.057-.265-10.72-.263-2.657-.785-4.483-1.782-5.924-1.254-1.809-3-3.22-5.032-4.066-1.617-.674-3.512-.8-6.165-.501-2.659.3-6.015 1.019-10.538 1.988l-94.728 20.31c-27.384 5.872-47.892 10.269-64.016 15.16C72.378 50.622 60.68 55.992 50.906 63.79a106.5 106.5 0 0 0-28.898 35.751c-5.576 11.191-8.375 23.755-9.776 40.538-1.401 16.791-1.402 37.765-1.402 65.772v356.053c0 44.325.01 66.335 8.165 84.878a96.502 96.502 0 0 0 21.399 30.663c14.59 14.051 35.246 21.653 76.85 36.945l127.333 46.801c4.942 1.816 8.612 3.165 11.533 3.912 2.918.747 5.014.872 6.826.309a11.5 11.5 0 0 0 5.712-3.986c1.154-1.506 1.759-3.517 2.065-6.514.306-2.999.307-6.909.307-12.174V29.489Z" stroke="#fff"/><path d="M32.476 84.298c.343.25.84.587 2.062 1.23 2.375 1.25 7.875 2.625 15.125 0 2.353-.851 7.232-3.203 13.425-6.189 12.894-6.215 31.483-15.176 44.825-19.06 19.75-5.75 30.875-7 49-4.5 17.042 2.35 28.559 7.574 39.537 12.554.698.316 1.393.632 2.088.945 1.799.813 3.793 1.748 5.9 2.736 11.508 5.4 22.85 11.753 31.475 9.64 6.5-2.126 9.125-8 10.375-23.376.944-11.612.961-27.43.536-39.54 7.963-.429 14.151 4.702 12.339 36.29-2 34.875-7.375 38.875-14.875 41.875s-23.375-5.125-45-17.375-42.375-17.875-67.375-16.5C108.945 64.291 84.5 77.371 64.782 87.922c-1.745.934-3.453 1.847-5.119 2.731-20.5 10.875-30.125 12.375-33.125 12.5-1.094 0-1.687-.199-2.687-.636.906-5.907 4.156-12.407 8.625-18.22Zm244.291 52.75c-.375-5-1.875-15-5.125-9.25s-6.25 10.126-13.875 19.376c-7.625 9.25-19.125 15-21.375 22.375s-1.25 9.625-1 11.625 2.25 10.875 2.625 12.75 3 4.375 4 4.625 3.75.5 5.375-1.25c1.3-1.4 5.875-5.75 8-7.75" stroke="#fff"/><path d="m245.336 199.058.034-.029.029-.034.095-.113.958-1.146-1.455.338a6.61 6.61 0 0 1-2.86-.01c-.146-.037-.429-.186-.813-.477a9.75 9.75 0 0 1-1.177-1.082c-.812-.873-1.482-1.882-1.641-2.679-.111-.553-.36-1.704-.662-3.098l-.002-.01c-.738-3.402-1.782-8.221-1.955-9.606-.038-.303-.092-.609-.147-.921l-.001-.006c-.162-.92-.349-1.98-.265-3.582.084-1.61.442-3.784 1.395-6.908.622-2.038 1.999-3.979 3.874-5.953 1.875-1.973 4.21-3.94 6.709-6.046l.016-.013c3.573-3.01 7.467-6.289 10.683-10.191 7.637-9.264 10.656-13.664 13.925-19.447.547-.969.976-1.348 1.252-1.448a.38.38 0 0 1 .291-.001c.101.041.23.133.379.315l.789.962.097-1.24.013-.171.024-.318-.278-.156c-.105-.059-.25-.135-.412-.22l-.007-.004c-.485-.254-1.184-.622-1.835-1.049-.669-.439-1.207-.891-1.442-1.293-.295-.506-.335-1.033-.375-1.654l-.002-.031c-.026-.411-.056-.889-.219-1.338-.178-.488-.502-.924-1.074-1.276l-.262.426.262-.426c-.22-.136-.452-.297-.702-.471l-.015-.01c-.357-.249-.752-.524-1.136-.724-.377-.197-.832-.373-1.288-.311-.513.07-.889.416-1.123.951-.224.512-.345 1.242-.373 2.227-.028 1.033-.437 2.488-1.098 4.173-.655 1.671-1.537 3.517-2.47 5.313-1.867 3.593-3.921 6.955-4.732 8.265-1.599 2.582-4.933 7.531-12.997 13.486-2.976 2.197-5.105 3.465-6.962 4.57-3.21 1.911-5.601 3.337-9.984 8.119-3.465 3.779-5.405 6.823-6.51 9.29-1.108 2.473-1.367 4.345-1.495 5.753-.13 1.433.033 5.416.676 9.513.323 2.055.769 4.157 1.368 5.997.595 1.828 1.357 3.452 2.339 4.501 3.72 3.977 8.142 5.318 11.724 4.522 3.43-.762 7.009-2.04 10.837-5.229Z" stroke="#fff"/><path d="M276.767 137.307c-.625-4-1.375-9.375-4.625-4s-6.25 9.876-10 14.126-11.25 12.375-14.875 15.25-6.625 4.75-8.25 10-1 6.5 0 12.125 2.125 8.25 3.875 9 3.25 1.125 5.125-.75c1.5-1.5 2.791-2.709 3.25-3.125" stroke="#fff"/><path d="M276.758 157.106v-1.746l-.733-.732-.732.732v1.746l.732.733.733-.733Zm-29.742 37.179-.789-.225-.845-.564-.845-.957-.563.45.62-.394a6.394 6.394 0 0 1-.62-1.239 9.701 9.701 0 0 1-.45-1.521l-.845-.564-.564.845c.113.62.282 1.183.507 1.747.226.563.451 1.07.789 1.521l.901 1.126.169.113 1.014.676.169.113.901.281.902-.507-.507-.901h.056Zm34.027-40.445.112-1.296-.676-.788-.788.676-.113 1.296.676.788.789-.676Zm-3.102 11.604.563-1.126.507-1.127-.394-.958-.958.395-.507 1.07-.506 1.07.337 1.014.958-.338Zm-3.208 5.633.676-1.127-.225-1.013-1.014.281-.676 1.127.225 1.014 1.014-.282Zm-14.197 18.364.845-.957v-1.014h-1.07l-.845.957.056 1.014h1.014Z" fill="#fff"/><path d="m250.283 192.989-1.127.789-1.07.451-1.127.056-.619.789.732.675 1.239-.112.226-.057 1.239-.45.113-.113 1.239-.845.169-1.014-1.014-.169Zm-8.616-12.223c-.112-.563-.169-1.127-.225-1.746v-1.859c0-.62.169-1.296.282-1.916.112-.619.338-1.295.507-1.915.225-.619.45-1.239.732-1.802.281-.564.563-1.127.901-1.634.338-.507.676-.958 1.014-1.408l1.127-1.127.112-1.014-1.014-.113c-.45.395-.901.789-1.295 1.296a37.65 37.65 0 0 0-1.183 1.577 51.949 51.949 0 0 0-1.014 1.803c-.282.62-.563 1.296-.789 1.972a22.544 22.544 0 0 0-.563 2.084c-.169.676-.225 1.408-.282 2.084 0 .451-.056.901-.056 1.296v.732c0 .676.113 1.352.282 1.972l.845.563.563-.845h.056Zm39.208-41.234-.113-1.07-.788-.676-.676.789.113 1.07.788.676.676-.789Zm-6.196 20.617 1.915.282.788-.62-.563-.845-1.915-.281-.789.619.564.845Zm-5.242-.903.901.169.789-.619-.563-.845-.902-.113-.845.563.62.845Zm-25.799 27.773c-.451.338-.958.675-1.408 1.013l-.169 1.014 1.014.169c.507-.338.957-.676 1.408-1.014l.169-1.013-1.014-.169Zm21.18-20.729-.451.676.225 1.014 1.014-.226.395-.676-.169-1.014-1.014.226Z" fill="#fff"/><path d="m243.529 189.837-.62-3.042c-.225-1.014-.394-2.028-.619-3.042-.226-1.014-.395-2.028-.62-3.042l-.845-.564-.563.845c.225 1.014.394 2.028.619 3.042.226 1.014.395 2.028.62 3.042.225 1.014.394 2.028.62 3.042l.845.563.563-.844Zm32.721-34.703v1.014l.732.676.676-.676v-1.014l-.676-.733-.732.733Zm-7.493 9.522 2.76 18.815.845.619.62-.788-2.761-18.815-.845-.62-.619.789Zm3.664-2.31.113.563.788.62.62-.845-.057-.563-.844-.62-.62.845Zm7.778-16.843 1.915 2.591 1.014.113.169-1.014-1.915-2.591-1.014-.113-.169 1.014Z" fill="#fff"/><path d="m280.534 145.108.62.282.957-.338-.394-.958-.62-.282-.957.339.394.957Z" fill="#fff"/><path d="m281.212 142.63.338 2.366.845.62.62-.845-.338-2.366-.845-.62-.62.845Z" fill="#fff"/><path d="m284.197 145.898-.169-1.127-.845-.62-.563.845.113 1.127.845.62.619-.845Zm-.846-2.762-.169-1.408-.845-.62-.619.845.225 1.409.789.619.619-.845Z" fill="#fff"/><path d="m283.801 145.953-.169-.902-.789-.619-.619.845.112.901.845.62.62-.845Zm-1.912-6.31c-.563-.225-1.07-.507-1.633-.732l-.958.338.338.958c.563.225 1.07.507 1.633.732l.958-.338-.338-.958Zm-5.803 2.197c.62-.338 1.071-.732 1.521-1.014.451-.282.958-.619 1.465-.901l.225-1.014-1.014-.225c-.45.281-1.014.563-1.521.901-.507.338-.957.676-1.464 1.014l-.226 1.014 1.014.225Z" fill="#fff"/><path d="m282.449 141.617-2.253-2.309h-1.014v1.014l2.253 2.309h1.014v-1.014Z" fill="#fff"/><path d="m278.733 139.081-1.183.789h-.057l-1.239.845-.169 1.014 1.014.169 1.183-.789 1.239-.789.226-.957-1.014-.282Zm3.772 8.731c-.057-.507-.113-1.014-.169-1.465l-.845-.619-.62.844c.056.507.113 1.014.225 1.465l.789.62.62-.845Zm-1.013-9.013c-.733-.62-1.465-1.296-2.253-1.915h-1.014l.056 1.126c.732.62 1.465 1.296 2.253 1.916h1.014l-.056-1.127Zm-6.478.788c.507-.394.901-.788 1.296-1.126l1.295-.958.169-1.014-1.014-.169-1.295.958c-.451.394-.845.732-1.296 1.07l-.169 1.014 1.014.169v.056Z" fill="#fff"/><path d="m277.271 136.771-1.07.789-.057.057-1.07.901-.056 1.014 1.014.056 1.014-.901 1.07-.789.169-1.014-1.014-.113Zm4.955 23.604.958-.788.112-1.014-1.014-.113-.957.789-.113 1.014 1.014.112Zm-.903-8.787c-.113-.62-.169-1.296-.282-1.916l-.789-.619-.619.845.281 1.915.845.62.62-.845h-.056Z" fill="#fff"/><path d="m279.407 136.378-.394-.338-1.014.169.113 1.014.394.282 1.014-.113-.113-1.014Z" fill="#fff"/><path d="m278.79 136.376-2.197-1.803-1.014.113.113 1.014 2.197 1.803 1.014-.113-.113-1.014Zm-38.138 39.038c.789 5.577 1.578 11.21 2.423 16.843l.845.62.619-.845c-.788-5.577-1.577-11.21-2.422-16.843l-.845-.62-.62.845Z" fill="#fff"/><path d="m244.313 192.654.451-.508-.056-1.07-1.014.057-.451.507.056 1.014h1.014Z" fill="#fff"/><path d="M245.328 191.919a2162.105 2162.105 0 0 0-2.76-18.927l-.845-.62-.619.845c.901 6.365 1.802 12.562 2.76 18.927l.845.62.619-.845Z" fill="#fff"/><path d="m247.973 190.905-2.592.338-.619.845.845.62 2.591-.338.62-.845-.845-.62Z" fill="#fff"/><path d="M245.443 172.43c.902 6.365 1.859 12.731 2.761 19.096l.845.62.619-.845c-.901-6.365-1.859-12.731-2.76-19.096l-.845-.62-.62.845Zm.222 18.869-.451-.281-1.014.169.226 1.014.394.338 1.014-.226-.169-1.014Z" fill="#fff"/><path d="M250.508 191.187c-.901-6.366-1.802-12.562-2.704-18.928l-.845-.619-.619.845c.901 6.365 1.802 12.562 2.704 18.927l.845.62.619-.845Zm.057-19.773c.902 6.366 1.859 12.731 2.817 19.097l.845.619.62-.845a2241.825 2241.825 0 0 0-2.817-19.096l-.845-.62-.62.845Zm-5.291-3.886c.507.282 1.07.507 1.464.732l1.24.676 1.014-.281-.282-1.014c-.394-.226-.789-.507-1.296-.733-.507-.225-1.014-.45-1.408-.676l-1.014.282.282 1.014Z" fill="#fff"/><path d="m247.753 172.147-.901-3.38-.902-.507-.507.901.902 3.38.901.507.507-.901Z" fill="#fff"/><path d="m248.259 168.147-1.07-.563v-.057l-1.183-.563-1.014.394.395.958 1.126.563 1.07.563.958-.281-.282-1.014Zm7.322 21.913c-.958-6.366-1.803-12.562-2.704-18.928l-.845-.619-.62.845c.901 6.365 1.746 12.562 2.704 18.927l.845.62.62-.845Zm-.114-19.998c.957 6.365 1.915 12.731 2.816 19.096l.845.62.62-.845c-.901-6.366-1.915-12.731-2.817-19.097l-.845-.619-.619.845Z" fill="#fff"/><path d="M260.482 188.708c-.901-6.365-1.746-12.562-2.704-18.927l-.845-.62-.62.845c.902 6.366 1.747 12.562 2.704 18.928l.845.619.62-.845Zm2.535-1.632c-.676.563-1.352 1.183-1.972 1.746v1.014l.958.057c.676-.564 1.352-1.183 1.971-1.747v-1.014l-.957-.056Z" fill="#fff"/><path d="M260.144 168.428c.902 6.366 1.916 12.731 2.817 19.096l.845.62.619-.845c-.901-6.365-1.915-12.731-2.872-19.096l-.845-.62-.62.845h.056Zm.731 20.28-1.014-.281-.901.507.507.901 1.014.282.901-.451-.507-.958Z" fill="#fff"/><path d="M265.101 186.962c-.901-6.365-1.746-12.562-2.647-18.927l-.845-.62-.62.845c.902 6.366 1.747 12.562 2.648 18.927l.845.62.619-.845Zm-.569-20.448.057.394.845.62.619-.789-.056-.45-.845-.62-.62.845Z" fill="#fff"/><path d="m262.34 167.753-2.197-2.985-1.014-.169-.169 1.014 2.197 2.985 1.014.169.169-1.014Zm.845-2.76.225.507.676-.338-.676.281c.225.451.394.958.563 1.409l.902.45.45-.901c-.169-.507-.394-1.014-.619-1.521l-.226-.507-.957-.338-.338.958Zm.053-.956-.112-.845v-.902l-.733-.676-.732.733.056.901v.113l.113.901.789.62.619-.845Z" fill="#fff"/><path d="m265.885 165.95-2.084-2.816-1.014-.169-.169 1.014 2.084 2.816 1.014.169.169-1.014Z" fill="#fff"/><path d="m266.791 165.893-.057-2.873-.732-.732-.732.732.056 2.873.789.733.676-.733Zm6.59 16.902c-.902-6.365-1.69-12.562-2.648-18.927l-.845-.62-.619.845c.901 6.365 1.69 12.562 2.647 18.927l.845.62.62-.845Z" fill="#fff"/><path d="m275.24 180.596-1.802 1.183-.169 1.014 1.014.225 1.746-1.239.225-1.014-1.014-.169Z" fill="#fff"/><path d="M275.295 180.541c-.733.732-1.465 1.521-2.197 2.253v1.014h1.07c.732-.732 1.465-1.521 2.197-2.253v-1.014h-1.07Zm-1.764-18.705c-.978-.678-2.017-1.293-2.995-1.971l-1.099.246.244 1.109c.978.677 2.016 1.293 2.994 1.97l1.1-.246-.244-1.108Z" fill="#fff"/><path d="M272.706 182.908c-.564 0-1.071 0-1.634-.056h-.394l-.733.676.733.732h.394c.563 0 1.07 0 1.634.056l.732-.732-.732-.732v.056Zm-2.199-23.603-.395-.563-.45-.845-1.014-.282-.282 1.014.451.845.056.056.394.564 1.014.225.226-1.014Zm6.366 21.066c-.901-6.366-1.69-12.618-2.591-18.984l-.845-.619-.62.845c.902 6.365 1.69 12.618 2.592 18.983l.845.62.619-.845Z" fill="#fff"/><path d="m276.756 181.779.451-.225.282-.958-.958-.338-.451.225-.281 1.014.957.282Z" fill="#fff"/><path d="m278.395 178.063-1.521 1.296-.112 1.014 1.07.056 1.521-1.295.056-1.014-1.014-.057Zm-3.266-15.944 1.521-1.295.113-1.07-1.07-.057-1.521 1.296-.057 1.014 1.014.112Z" fill="#fff"/><path d="M276.701 159.304c-.901-.564-1.859-1.071-2.76-1.634l-1.014.282.281 1.014c.902.563 1.859 1.07 2.761 1.633l1.014-.281-.282-1.014ZM274 160.938l-3.211-2.366-1.014.169.169 1.014 3.211 2.366 1.014-.169-.169-1.014Z" fill="#fff"/><path d="M272.422 157.332c-.564 0-1.071 0-1.69.056-.507 0-1.014.113-1.409.113l-.676.789.789.676c.507 0 1.014-.113 1.408-.113.564 0 1.071 0 1.634-.056l.732-.733-.732-.732h-.056Zm3.326 23.264v.113l.281.169v-.338l-.281.169.281.169v-.338h-.056l-.845.563.563.845.338.057.902-.451.281-.732-.619-.845-.845.619Z" fill="#fff"/><path d="m273.608 157.05-.733-.732-.619-.789-1.071-.056-.056 1.014.676.788h.056l.676.789h1.071v-1.014Zm6.021 18.927c-.788-5.746-1.521-11.436-2.366-17.182l-.845-.619-.619.845c.845 5.746 1.521 11.435 2.366 17.181l.845.62.619-.845Zm1.416-.62-1.296 1.352.056 1.07 1.014-.056 1.296-1.352-.056-1.07-1.014.056Z" fill="#fff"/><path d="m278.168 159.359 1.239-1.352-.056-1.014h-1.014l-1.239 1.408v1.014l1.07-.056Z" fill="#fff"/><path d="M279.297 156.544c-.901-.507-1.803-.958-2.704-1.465l-1.014.282.282 1.014c.901.507 1.802.957 2.704 1.464l1.014-.281-.282-1.014Zm-8.339-.283c.789-.057 1.521-.226 2.197-.282.676-.113 1.352-.169 2.028-.225l.676-.789-.789-.676c-.62.056-1.352.113-2.028.225-.732.113-1.408.226-2.14.282l-.676.789.788.676h-.056Zm5.973 2.028-3.436-2.141-.958.282.225.958 3.437 2.14 1.014-.225-.282-1.014Z" fill="#fff"/><path d="m277.267 158.684-.958-2.986-.901-.507-.451.902.901 3.042.958.45.451-.901Zm5.805 13.914-.958 1.408.169 1.014 1.014-.169.958-1.408-.169-1.014-1.014.169Zm-2.482-16.111.958-1.409-.169-1.014-1.014.169-.958 1.409.169 1.07 1.014-.225Z" fill="#fff"/><path d="M281.324 153.725c-.901-.45-1.746-.901-2.648-1.295l-.957.338.338.957c.845.451 1.746.902 2.647 1.296l.958-.338-.338-.958Zm-8.167.172c.789-.113 1.465-.338 2.141-.451a125.47 125.47 0 0 0 1.971-.338l.62-.845-.845-.619c-.62.112-1.296.225-2.028.338-.732.169-1.408.338-2.14.45l-.62.845.845.62h.056Zm6.194 1.633-3.154-1.634-1.014.338.338.958 3.154 1.634 1.014-.338-.338-.958Z" fill="#fff"/><path d="M277.158 152.263c-.564.112-1.071.169-1.69.281-.62.113-1.239.282-1.69.395l-.62.845.845.619c.62-.112 1.239-.281 1.746-.394.564-.113 1.071-.169 1.634-.282l.62-.845-.845-.619Zm3.826 22.758-.394.451.056 1.07 1.07-.113.395-.45-.113-1.071-1.014.113Zm.057-23.999a650.192 650.192 0 0 0 1.746 11.041l.845.619.62-.845c-.563-3.661-1.183-7.323-1.746-11.041l-.845-.619-.62.845Z" fill="#fff"/><path d="m282.453 153.501.676-1.409-.394-.957-.958.338-.62 1.408.338 1.014.958-.394Zm-3.608-3.154.563.225.957-.338-.394-.957-.563-.282-.958.394.395.958Z" fill="#fff"/><path d="M274.79 151.531c.789-.169 1.465-.394 2.085-.563a20.255 20.255 0 0 1 1.971-.451l.507-.901-.901-.563c-.62.169-1.296.281-1.972.507-.676.169-1.352.394-2.028.563l-.507.901.902.564-.057-.057Zm6.365 1.183-2.479-1.07-.957.338.394.957 2.479 1.071.957-.339-.394-.957Z" fill="#fff"/><path d="m281.382 152.769-1.295-2.591-1.014-.282-.282.958 1.296 2.591 1.014.338.281-1.014Z" fill="#fff"/><path d="M278.672 149.557c-.507.113-1.07.226-1.633.395-.564.169-1.183.338-1.69.45l-.507.902.901.563c.563-.169 1.183-.338 1.69-.507.507-.169 1.014-.225 1.634-.394l.507-.902-.902-.563v.056Zm3.105 23.886.225-.282c.338-.507.62-1.07.789-1.69l.113-1.07v-.733l-.902-.619-.619.845v1.239l-.507 1.127-.226.281.113 1.014 1.014-.112Z" fill="#fff"/><path d="m283.238 171.753-1.014.958v1.07h1.014l1.014-1.014v-1.014h-1.014Zm.62-2.479.168-.563.169-1.127-.056-.732-.845-.62-.619.845.056.507-.113.733.733.225-.733-.282-.169.564.507.901.902-.451Zm-4.054-21.124 1.69 2.76 1.014.225.225-1.014-1.69-2.704-1.014-.281-.225 1.014Z" fill="#fff"/><path d="M276.876 149.334a13.928 13.928 0 0 0 1.634-.62l1.52-.507.451-.901-.901-.451c-.507.169-1.014.282-1.577.507-.564.226-1.127.451-1.578.564l-.45.901.901.451v.056Z" fill="#fff"/><path d="m279.749 147.643.563.225.957-.45-.45-.958-.563-.169-.958.451.451.901Zm1.628 2.986.056.338.845.62.62-.845-.056-.338-.845-.62-.62.845Z" fill="#fff"/><path d="m286.336 168.542-2.648-18.364-.845-.619-.619.845 2.704 18.364.788.619.62-.845Z" fill="#fff"/><path d="M285.327 166.74c-.45.788-.901 1.633-1.408 2.422l.282 1.014 1.014-.282c.45-.788.901-1.633 1.408-2.422l-.282-1.014-1.014.282Zm-6.875-19.378.901.564.958-.282-.226-1.014-.901-.507-1.014.225.282 1.014Z" fill="#fff"/><path d="M279.8 146.347c-.563-.169-1.127-.282-1.577-.451-.451-.169-.902-.394-1.578-.563l-.901.507.507.901c.451.113.901.338 1.465.564.563.225 1.183.338 1.69.507l.901-.507-.507-.902v-.056Zm.23-2.649c-.563-.112-1.183-.169-1.746-.338-.507-.112-1.071-.394-1.916-.563l-.845.563.564.845c.676.113 1.183.338 1.802.507.676.169 1.296.225 1.803.338l.845-.563-.563-.845.056.056Zm-.341-2.644c-.62-.057-1.296-.113-1.859-.169-.563-.113-1.183-.282-2.084-.395l-.789.62.62.789c.732.056 1.295.225 1.971.394.676.113 1.409.169 1.916.225l.788-.619-.619-.789.056-.056Zm-.96-2.48c-.619 0-1.295 0-1.915-.057-.62 0-1.239-.225-2.197-.225l-.732.732.732.733c.789 0 1.352.169 2.084.225.733.056 1.409 0 1.972.056l.732-.732-.732-.732h.056Zm-1.571-2.367c-.563 0-1.239.056-1.802.056h-.169c-.507 0-1.127-.056-1.859-.056h-.451l-.676.789.732.732h.395c.619 0 1.183 0 1.802.056h.169c.676 0 1.352 0 1.859-.056l.733-.732-.733-.676v-.113Zm-1.639 18.252-1.07-.789-.451.564.507-.507s-.451-.62-1.07-1.071l-1.014.169.169 1.014.901.958h.057l1.07.845 1.014-.169-.169-1.014h.056Zm2.03-2.705-1.296-.732-.338.62.395-.62c-.282-.169-.62-.563-1.296-.958l-1.014.282.282 1.014c.45.225.676.507 1.183.845h.056l1.296.732 1.014-.281-.282-1.014v.112Zm1.41-2.701c-.507-.169-1.014-.395-1.408-.564-.394-.169-.789-.506-1.521-.844l-.958.394.395.958c.563.225.845.45 1.408.788.563.282 1.127.451 1.521.62l.957-.395-.394-.957Z" fill="#fff"/><path d="M279.297 141.164c-.507.225-1.07.507-1.69.845-.563.282-1.07.62-1.69.901l-.338.958.958.338c.676-.338 1.183-.676 1.69-.958.507-.281 1.07-.507 1.633-.788l.338-.958-.957-.338h.056Zm3.937 3.212-2.14-2.479-1.014-.056-.057 1.014 2.085 2.478 1.014.057.112-1.014Zm-12.391 14.252-.564-.563-.169-.113-.45-.169-.958.338.338.958.338.169.507.45 1.014-.056-.056-1.014Zm13.913 9.183.901-.507.282-.958-1.014-.282-.901.451-.282 1.014 1.014.282Zm-2.758-20.955c.113.732.225 1.408.338 2.14l.845.62.62-.845c-.113-.732-.226-1.408-.338-2.141l-.845-.619-.62.845Zm1.803 22.644-.563.451-.056 1.07 1.07.056.507-.507.056-1.014-1.014-.056Z" fill="#fff"/><path d="M283.803 166.906v.282l.732.732.732-.732v-.282l-.732-.732-.732.732Zm-7.045-6.531v-.619l-.733-.733-.732.733v.619l.732.733.733-.733Z" fill="#fff"/><path d="M276.758 159.586v-.281l-.733-.733-.732.733v.281l.732.733.733-.733Zm0-24.73v-.282l-.733-.732-.732.732v.282l.732.732.733-.732Zm-29.008 58.077v-.281l-.733-.676-.732.676v.281l.732.733.733-.733Zm0-20.56v-.226l-.733-.732-.732.732v.226l.732.732.733-.732Zm30.361-15.942-.056.281.507.845.901-.507.056-.281-.563-.845-.845.507Z" fill="#fff"/><path d="m277.942 157.049-.169.62.507.901.902-.507.169-.62-.507-.901-.902.507Zm-18.251 11.493.113.451v.056l.901.507.507-.901v-.057l-.112-.45-.902-.507-.507.901Zm18.199-14.872.788 1.07 1.014.169.169-1.013-.788-1.071-1.014-.169-.169 1.014Zm6.191 13.578.281-.564-.338-.957-.957.338-.282.563.338.958.958-.338Zm-6.251-1.634.113-.169-.338-1.014-.958.338-.056.169.281.957.958-.281Zm3.943-14.028.057.282.788.619.62-.845v-.281l-.845-.62-.62.845Zm-19.771 11.547.113.169.056.113.451.563 1.014.113.112-1.014-.394-.563-.056-.057-1.014-.281-.282.957Zm18.308-10.42.169.507.901.507.451-.902-.113-.507-.958-.506-.45.901Zm-32.447 19.546.902-2.76-.507-.901-.902.45-.901 2.761.507.901.901-.451Z" fill="#fff"/><path d="m278.788 152.489-.112.676v.281l.619.845.789-.676.056-.281.113-.676-.676-.789-.789.62Zm-27.038 39.148c-.507.45-1.014.901-1.521 1.408v1.014h.958c.507-.451 1.014-.958 1.521-1.408v-1.014h-1.014.056Zm33.742-27.659h.282l.732-.732-.732-.732h-.282l-.732.732.732.732Zm-1.011 4.903-.451.394-.056 1.014 1.014.056.507-.394.056-1.014-1.07-.056Zm-6.987-22.026c.507-.225 1.07-.507 1.521-.676.45-.225.957-.394 1.464-.563l.395-.958-.958-.394c-.507.169-.958.394-1.521.619-.507.226-1.07.507-1.465.676l-.394.958.958.394v-.056Z" fill="#fff"/><path d="m280.982 143.756-.563-.169-.901.507.507.901.563.169.901-.507-.507-.901Z" fill="#fff"/><path d="m278.504 144.659.788.338.958-.338-.338-.958-.789-.394-1.014.338.395 1.014Zm-5.069-7.213 1.07-1.126 1.07-1.014.057-1.014-1.014-.057-1.127 1.071-1.07 1.126v1.071l1.014-.057Zm-26.586 31.435-.113-.732-.056-.169-.056-.113-.958-.394-.338.957v.057l.113.619.788.62.62-.845Zm9.071-2.424-.282-.676-.112-.226-.564-.563h-1.014v1.014l.451.451.225.563.902.394.394-.957Z" fill="#fff"/><path d="m253.717 165.669.112.676.113.169.282.676 1.014.282.338-.958-.282-.563-.113-.564-.845-.563-.619.845Zm10.368-2.703-.394-.62-.113-.113h-.056l-1.014.057.056 1.014h.056l.451-.507-.563.394.394.62 1.014.169.169-1.014Zm3.607-2.084-.507-.564-.169-.169-.789-.394-.957.282.281 1.014.62.338.45.45 1.014.057.057-1.014Zm9.295-14.026.169.056.957-.451-.45-.957-.169-.057-.958.451.451.958Z" fill="#fff"/><path d="m266.508 161.782-.394-1.014-.676.225.732-.112s0-.676-.169-1.352l-.958-.451-.45.958s0 .507.112 1.07v.113l.451 1.014.958.45.45-.957-.056.056Zm-3.886 2.139-.112-1.07-.733.113h.733s.169-.507.169-1.07v-.282l-.845-.62-.62.789v.113s-.113.506-.169 1.013v.17l.169 1.07.789.619.619-.788v-.057Zm-4.282 1.861.112-1.126h-.732l.676.112c0-.225.338-.676.451-1.408l-.62-.789-.789.62s-.225.62-.394 1.127v.112l-.169 1.127.62.788.788-.619.057.056Zm-4.564 1.633.394-1.127-.676-.225.62.338s.507-.676.732-1.352l-.451-.902-.901.451c-.113.282-.394.62-.676 1.127v.112l-.394 1.127.45.901.902-.45Zm-4.789 1.239.62-1.127-.62-.338.564.451c.225-.282.676-.676 1.014-1.296l-.282-1.014-1.014.282c-.169.338-.563.676-.901 1.126l-.62 1.183.282 1.014 1.014-.281h-.057Zm31.209-22.362-.113-.057-.901.507.507.902.112.056.902-.507-.507-.901Zm4.845 22.139-.169.112-.057 1.014 1.014.057.169-.113.057-1.014-1.014-.056Zm-9.859-33.858-.957.902-.902.957.057 1.014h1.014l.901-.957.845-.845.056-1.014-1.014-.057Z" fill="#fff"/><path d="M249.667 166.682c.619.225 1.183.394 1.69.563.507.169.957.395 1.464.62l.958-.394-.394-.958c-.451-.169-.958-.394-1.521-.62-.564-.225-1.127-.338-1.634-.563l-.958.394.395.958Zm34.812 3.155-.676 1.408.394.958.958-.338.619-1.465-.338-.958-.957.395Zm-1.519 4.112.225-.056.451-.958-.901-.451-.226.057-.45.957.901.451Zm-4.906-22.192-.395-.226-1.013.282.337 1.014.338.169 1.014-.282-.281-.957Zm3.272 22.87-.169.226.113 1.014 1.014-.113.169-.169-.113-1.07-1.014.112Zm-27.377-9.127c.676.169 1.296.338 1.859.45.564.169 1.071.338 1.634.451l.901-.507-.507-.901a31.897 31.897 0 0 0-1.69-.507c-.619-.169-1.239-.282-1.802-.451l-.902.507.507.901v.057Z" fill="#fff"/><path d="m283.128 172.485-.057.113.113 1.014 1.07-.169.057-.113-.169-1.014-1.014.169Zm-1.185 1.747-.451.507.113 1.07 1.014-.112.451-.507-.113-1.014-1.014.056Z" fill="#fff"/><path d="m281.321 176.653.282-.056.507-.902-.901-.507-.282.113-.507.901.901.451Zm-2.868 1.353c-.451 0-.901.112-1.352.112l-.62.789.789.619c.451 0 .901-.112 1.352-.112l.676-.789-.789-.676-.056.057Zm-19.884-12.336c.282.507.507 1.07.733 1.633l.676-.281-.676.225.281.845.902.45.45-.901-.281-.845c-.226-.619-.507-1.183-.789-1.746l-.958-.338-.338.958Z" fill="#fff"/><path d="m261.555 167.979-1.746-2.985-.958-.282-.282.958 1.69 2.985 1.014.282.282-.958Zm5.964 17.18c-.676.62-1.408 1.296-2.084 1.915v1.014h.957c.733-.619 1.409-1.295 2.084-1.915v-1.014h-1.013.056Z" fill="#fff"/><path d="M261.665 167.922c-.169-.45-.338-.957-.563-1.408l-.225-.507-.958-.338-.338.958.225.507.676-.338-.676.281.507 1.296.958.451.451-.902h-.057Zm9.126-4.055-.394-3.155-.789-.619-.62.788.338 3.155.789.62.676-.789Zm-1.355 21.123c-.901-6.365-1.69-12.562-2.647-18.927l-.845-.62-.62.845c.902 6.366 1.69 12.562 2.648 18.928l.845.619.619-.845Zm2.2-2.026a74.844 74.844 0 0 0-2.141 2.084v1.014h1.014a76.18 76.18 0 0 0 2.141-2.084v-1.014h-1.014Zm-4.45-21.07-.338-.845-.225-.845-.901-.507-.507.902.225.901.057.056.281.845.958.451.45-.958Z" fill="#fff"/><path d="M261.83 162.4c.732.057 1.464.113 2.084.169.62 0 1.239.17 1.859.226l.788-.62-.619-.788c-.563-.057-1.239-.169-1.915-.226-.676-.056-1.352-.056-2.028-.169l-.789.62.62.788Zm4.791 3.269-2.592-2.76-1.014-.056-.056 1.014 2.591 2.816 1.014.056.057-1.07Z" fill="#fff"/><path d="M265.715 161.896c-.507-.056-1.014-.113-1.577-.169-.563 0-1.183-.056-1.634-.113l-.788.62.619.789c.564.056 1.183.056 1.69.112.507 0 1.014.113 1.521.169l.789-.619-.62-.789Zm3.385 23.152c-.45 0-.901-.113-1.408-.169l-.789.62.62.788c.451 0 .901.113 1.408.169l.789-.619-.62-.789Zm-3.946 1.97c-.45-.056-.845-.169-1.295-.225l-.845.563.563.845c.451.113.845.169 1.296.282l.845-.563-.564-.845v-.057Zm-3.379-23.154c-.45-.112-.957-.225-1.521-.281-.563-.057-1.126-.169-1.577-.226l-.845.564.563.845c.507.112 1.127.169 1.634.225.507.056.901.169 1.465.282l.845-.564-.564-.845Z" fill="#fff"/><path d="m262.454 168.204.225-3.155-.676-.788-.788.676-.226 3.154.676.789.789-.676Z" fill="#fff"/><path d="M258 164.091c.732.169 1.352.226 1.971.338.62.113 1.183.226 1.747.338l.845-.563-.564-.845a53.68 53.68 0 0 0-1.802-.338c-.676-.113-1.296-.169-1.915-.282l-.845.564.563.845v-.057Zm11.829-.395-2.422-2.647-1.014-.057-.056 1.071 2.422 2.647 1.014.056.056-1.07Zm-4.561-3.155h2.141c.676 0 1.295 0 1.971.056l.733-.676-.676-.732c-.62 0-1.296-.056-1.972-.056h-2.084l-.733.676.676.732h-.056Z" fill="#fff"/><path d="m270.566 163.416-2.929-2.592-1.014.057.056 1.014 2.873 2.591 1.071-.057-.057-1.013Zm-7.381 5.633 2.197-.958.338-.957-.958-.395-2.196 1.014-.338.958.957.338Z" fill="#fff"/><path d="M269.269 159.698c-.507 0-1.07-.056-1.634-.056h-1.633l-.732.676.732.732h1.69c.563 0 1.014 0 1.577.056l.732-.676-.732-.732Zm-1.804 25.406-2.197.958-.394.958.958.394 2.197-.958.394-1.014-.958-.338Z" fill="#fff"/><path d="m265.377 188.426.676-.112.563-.845-.844-.564-.62.113-.62.845.845.563Zm-7.712-16.616c-.113-.564-.225-1.183-.394-1.803l-.902-.507-.507.901a9.37 9.37 0 0 1 .338 1.634l.845.62.62-.845Zm-.174-6.254c-.451-.112-.845-.281-1.408-.394-.507-.112-1.071-.225-1.465-.338l-.901.507.507.902c.507.169 1.07.225 1.521.337.45.113.845.226 1.352.395l.901-.507-.507-.902Z" fill="#fff"/><path d="m257.777 169.95.507-3.098-.619-.845-.845.619-.451 3.155.563.789.845-.62Z" fill="#fff"/><path d="m257.718 169.5-1.802-3.155-1.014-.225-.282.958 1.803 3.154 1.014.282.281-1.014Zm15.664 13.125-.62.225-.45.958.957.451.62-.282.394-.901-.901-.451Zm3.717-3.097-.788.901.056 1.014 1.014-.056.845-.901-.056-1.014-1.071.056Zm-18.707-8.675 2.366-.845.451-.901-.958-.451-2.309.845-.451.958.901.394Zm4.567 16.166-2.366.844-.45.902.957.45 2.366-.845.451-.901-.958-.45Z" fill="#fff"/><path d="m260.931 190.173.676-.056.62-.789-.789-.676-.619.057-.676.845.788.619Zm-4.055-20.507-1.296-3.098-.957-.394-.394.957 1.295 3.099.958.394.394-.958Zm11.491-11.208c.789 0 1.521-.113 2.197-.169.676 0 1.352 0 1.972-.057l.732-.732-.732-.732c-.62 0-1.296 0-2.028.056-.733 0-1.409.113-2.141.169l-.732.732.732.733Zm-15.382 8.564c-.395-.169-.789-.338-1.24-.507-.45-.169-.957-.282-1.295-.451l-.958.395.395.957c.45.169.957.338 1.351.451l1.183.507.958-.394-.394-.958Z" fill="#fff"/><path d="m252.877 171.472.732-3.154-.563-.845-.845.507-.789 3.154.563.845.902-.507Z" fill="#fff"/><path d="m252.824 171.02-1.352-3.324-.958-.394-.394.957 1.352 3.324.958.394.394-.957Zm21.461-9.634-.676-3.098-.845-.563-.563.845.676 3.098.845.563.563-.845Zm5.014 17.914.563-.282.338-1.014-.957-.338-.62.282-.338 1.014 1.014.338Zm-25.912-6.927 2.478-.676.507-.901-.901-.507-2.479.676-.507.901.902.507Zm21.683-17.518c-.563 0-1.07.113-1.69.169-.619.056-1.239.225-1.746.225l-.676.789.789.676a17.073 17.073 0 0 0 1.802-.282c.564-.056 1.071-.112 1.634-.169l.676-.788-.789-.676v.056Zm-16.899 33.797-2.478.676-.507.902.901.507 2.478-.733.507-.845-.901-.507Z" fill="#fff"/><path d="m256.255 191.637.62-.056.676-.732-.732-.733-.62.057-.732.732.788.732Zm-4.278-20.504-.845-3.211-.901-.507-.507.845.845 3.267.901.507.507-.901Z" fill="#fff"/><path d="m249.609 168.937.507-.902.62-.901-.169-1.014-1.014.225-.676.902v.056l-.507.901.282 1.014.957-.281Zm-.054 23.038.507.226.957-.338-.338-.958-.507-.225-.957.338.338.957Zm27.769-38.98.563.282.958-.282-.282-1.014-.563-.225-.958.282.282.957Z" fill="#fff"/><path d="m279.687 155.923-1.183-2.986-.957-.394-.395.958 1.183 2.929.958.394.394-.901Zm-31.484 17.634 2.592-.564.563-.845-.901-.563-2.535.507-.564.901.845.564Z" fill="#fff"/><path d="m277.154 152.996.225.169 1.014-.057-.056-1.014-.225-.225-1.014.113.056 1.014Zm-23.996 36.952-2.535.507-.563.845.845.62 2.534-.563.564-.845-.845-.564Zm-6.252-17.687-.451-3.324-.788-.62-.62.845.394 3.268.845.619.62-.788Z" fill="#fff"/><path d="m244.711 169.895.676-.845.845-.901-.057-1.014h-1.07l-.789.901-.056.056-.676.902.113 1.014 1.014-.113Zm-2.087 3.097-.112-.619-.789-.62-.619.845.056.62.845.619.619-.845Zm41.174-1.69-.507.507v1.014l1.014.056.507-.507v-1.014l-1.014-.056Zm-40.894 3.044 2.591-.338.62-.845-.789-.62-2.591.394-.62.789.789.62Zm33.071-25.293c.733-.226 1.408-.507 1.972-.733.619-.225 1.239-.394 1.859-.619l.45-.902-.901-.45c-.563.169-1.239.394-1.915.619-.676.226-1.296.507-1.972.676l-.45.902.901.45.056.057Zm5.577-10.255-.676-.844-1.014-.113-.113 1.014.676.845 1.014.112.113-1.014Zm-2.819 1.127h.169l.845-.62-.619-.845h-.113l-.845.563.563.902Zm4.34 1.577-.62-1.296-.958-.338-.338 1.014.62 1.296 1.014.338.282-1.014Z" fill="#fff"/><path d="m279.125 139.927.281.169.958-.395-.338-.957-.282-.113-1.014.338.395.958Zm-6.084 17.066-.844-.845-.676-1.014-1.014-.226-.226 1.014.733 1.071.056.112.901.901 1.014.057.056-1.07Zm9.183-13.631.338 1.408.901.507.507-.901-.338-1.352-.845-.507-.563.845Zm1.915 4.055v-1.408l-.733-.733-.676.733v1.408l.676.732.733-.732Zm-3.32-3.266-.394.282-.226 1.014 1.014.225.395-.281.225-1.014-1.014-.226Zm-2.594 13.069.056.394.845.62.62-.845-.057-.394-.845-.62-.619.845Zm6.652 13.013.169-.057.338-.957-1.014-.338-.113.056-.338.958.958.338Zm-5.188-28.617c-.451.225-.901.451-1.408.676-.507.282-.958.563-1.352.732l-.338.958.957.338c.507-.225.958-.563 1.409-.789.45-.225.845-.451 1.352-.676l.338-.957-.958-.338v.056Zm5.183 23.377.507-.338.226-1.014-1.014-.225-.507.338-.226 1.014 1.014.225Z" fill="#fff"/><path d="m280.871 146.628.338 1.071.845.619.62-.845c-.057-.507-.226-1.014-.451-1.521l-.958-.338-.338.958-.056.056Zm-1.403-1.521.169.113 1.013-.225-.225-1.014-.169-.113-1.014.225.226 1.014Zm4.278 24.336-.169.338.225.957 1.014-.225.226-.338-.282-1.014-1.014.282Zm-3.271-16.055v.056l.901.564.563-.845v-.057l-.845-.563-.619.845Zm3.048 19.774.225-.113.395-.957-.958-.395-.225.113-.395.957.958.395Z" fill="#fff"/><path d="m283.974 169.668.056.338.789.62.619-.789-.056-.394-.789-.62-.619.845Zm-2.313-16.11-.057-.282-.845-.62-.619.789.056.338.845.62.62-.845Zm.336 20.448-.169.225.169 1.014 1.014-.169.169-.225-.169-1.014-1.014.169Zm-2.191-17.407-.056-.507-.845-.619-.62.788.113.564.788.619.62-.845Zm-.004 20.281-.169.226.056 1.07 1.07-.113.169-.281-.112-1.014-1.014.112Zm-7.434 4.787v-.057l.056-.788-.056-.902-.845-.619-.62.845.057.676-.057.563v.056l.62.845.845-.619Zm-4.959-17.97.338.845 1.014.338.338-.958-.394-.845-.958-.338-.338.958Zm-9.632 24.337-.225.338.112 1.014 1.014-.169.282-.282-.169-1.014-1.014.113Z" fill="#fff"/><path d="m259.072 189.948.394-.338.113-1.014-1.071-.056-.394.338-.056 1.014 1.014.056Zm-5.183.732.788.225.902-.507-.564-.901-.732-.226-.901.507.507.902Z" fill="#fff"/><path d="m254.06 189.271-.282-.113-.958.395.451.957.225.113.958-.394-.394-.958Zm-4.225 1.07-.225-.112-1.014.337.338.958.225.113 1.014-.282-.338-1.014Z" fill="#fff"/><path d="m248.314 190.512-.169.225.056 1.014 1.014-.056.225-.225-.056-1.071-1.07.113Z" fill="#fff"/><path d="m249.043 192.314.395-.338.056-1.014-1.014-.057-.394.282-.057 1.07 1.014.057Zm30.646-53.177c-.056-.45-.113-.901-.225-1.408l-.845-.62-.62.845c.056.451.113.902.169 1.409l.845.619.62-.845h.056Z" fill="#fff"/><path d="M279.75 139.643v-.112l-.845-.62-.62.789v.169l.845.619.62-.845Zm1.911 14.141-.057-.338-.845-.62-.619.845.056.338.845.62.62-.845Zm.617 5.406.338-1.014v-.112l.112-1.127-.056-.732-.789-.62-.619.789v.563l-.057.845.733.169-.733-.225-.281 1.014.45.957.902-.507Zm-24.391 5.069.225.676.056.169.395.619 1.014.226.225-1.014-.338-.564-.225-.563-.902-.451-.45.902Zm26.594-2.138.507-.338.169-1.014-1.014-.169-.507.338-.169 1.014 1.014.169Z" fill="#fff"/><path d="m282.677 163.417.901-.62.169-1.014-1.014-.169-.901.62-.169 1.014 1.014.169Z" fill="#fff"/><path d="m282.731 163.022.45-.563v-.113l.451-.901-.338-.958-.958.338-.394.845-.394.564.225 1.014.958-.226Zm-4.056-20.335.339.169.957-.226-.225-1.014-.338-.169-.958.226.225 1.014Zm1.632-.113.338.112.957-.338-.394-.957-.282-.169-.957.394.338.958Zm3.156 5.349v-.394l-.845-.62-.62.845.056.394.845.62.564-.845Zm1.806 19.153-.338 1.408.563.902.845-.564.338-1.464-.563-.845-.845.563Zm-25.238-2.59-.225-.338-.169-.169-.62-.507-1.014.112.113 1.014.507.451.169.225 1.014.226.225-1.014Zm-10.649 2.253.056.676v.226l.282.675.901.451.451-.901-.226-.563v-.62l-.732-.676-.732.732Z" fill="#fff"/><path d="m251.468 167.81-.169-.676-.113-.282-.45-.563-1.014-.169-.169 1.07.338.451.169.563.901.507.507-.901Zm20.107-3.154 1.803-1.24.169-1.014-1.014-.169-1.746 1.183-.225 1.014 1.013.226Zm-26.642 2.929-.056.676v.225l.169.733.845.563.563-.901-.112-.564.056-.563-.62-.845-.845.676Zm23.379 16.957.169-.733.056-.056v-.676l-.056-1.014-.845-.62-.564.845.057.789-.057.451.733.112-.733-.169-.169.733.564.845.845-.507Zm15.265-16.507.226-.338.056-.057.169-.281-.225-1.014-1.014.225-.169.282-.225.338.169 1.014 1.013-.169Zm2.028-2.534-.789.62-.056 1.07 1.014.056.732-.619.113-1.014-1.014-.113Zm-18.023 1.464 2.028-1.071.282-1.014-1.014-.281-2.028 1.126-.282.958 1.014.282Zm12.388-6.704c.113-.507.282-1.07.395-1.69.112-.563.225-1.183.338-1.802l-.62-.845-.845.619c-.112.62-.225 1.183-.338 1.747-.112.563-.225 1.07-.394 1.577l.507.901.901-.507h.056Zm-10.478 26.195.676-.169.507-.845-.845-.563-.676.169-.507.901.845.507Zm-10.476-20.448.057-.902.225-.901-.563-.901-.902.563-.169.958v.056l-.112.958.619.788.845-.619Zm17.798-31.208-.225-.395-1.014-.338-.282 1.014.225.395 1.014.338.282-1.014Zm-.564 24.166v.507l.732.732.676-.732v-.507l-.676-.733-.732.733Zm4.002-11.154.394.225.958-.394-.338-.957-.394-.169-.958.338.338.957Zm2.31.902-.338 1.408.563.901.845-.563.338-1.408-.563-.902-.845.564Z" fill="#fff"/><path d="M279.012 146.798v.112l.788.733.676-.789v-.113l-.732-.676-.732.733Z" fill="#fff"/><path d="M281.323 147.08v-.113l-.732-.676-.733.732v.113l.733.676.732-.732Zm-16.614 20.336v.057l.845.619.563-.845v-.056l-.788-.62-.62.845Zm-10.482 23.829.281-.282.113-1.014-1.014-.056-.338.281-.113 1.014 1.071.057Z" fill="#fff"/><path d="m254.734 190.172.169-.338v-.282l.112-.957c0-.507 0-.958-.112-1.521l-.845-.62-.62.845c.057.507.113.901.113 1.296h.732l-.732-.057v.845l-.169.226.338.957.957-.338.057-.056Zm25.015-35.936.113.619.845.62.563-.845-.056-.62-.845-.619-.62.845Zm-.851-2.142-.338-.113-.957.282.281 1.014.338.113.958-.282-.282-1.014Zm-9.123 7.098-.338-.619-.45-1.071-.902-.45-.45.957.45 1.127.057.169.394.62 1.014.225.225-.958Zm7.212 5.239-.338.169-.338 1.014 1.014.281.281-.169.338-.957-.957-.338Zm-33.572 5.745h.732l.733-.733-.733-.732h-.732l-.732.732.732.733Zm15.094.113c.169-1.127.282-2.254.45-3.38l-.619-.789-.789.62c-.169 1.126-.281 2.253-.45 3.38l.619.788.789-.619Zm7.997-8.393-.844.506-.282.958.958.282.844-.451.282-1.014-.958-.281Z" fill="#fff"/><path d="m265.94 162.628.338.395 1.071.056.056-1.014-.394-.394-1.014-.057-.057 1.014Zm13.525 14.477-.338.564.225.957 1.014-.225.338-.507-.281-1.014-.958.225Zm-33.237 16.279.451.169.958-.338-.338-.957-.451-.226-1.014.395.394.957Zm33.066-46.529-.112.451.563.845.845-.564.113-.45-.564-.902-.845.62Zm-35.655 23.547 1.915 2.591 1.014.169.169-1.014-1.972-2.648-1.014-.112-.112 1.014Z" fill="#fff"/><path d="M246.345 172.655c-.676-.901-1.408-1.859-2.084-2.76l-1.014-.169-.169 1.014c.676.901 1.408 1.858 2.084 2.76l1.014.169.169-1.014Zm2.251-3.098 2.14 2.479 1.014.056.057-1.014-2.141-2.479-1.014-.056-.056 1.014Z" fill="#fff"/><path d="M251.524 171.584c-.788-.901-1.521-1.746-2.309-2.647h-1.014l-.056.957c.788.901 1.521 1.746 2.309 2.648h1.014l.056-.958Z" fill="#fff"/><path d="m247.865 170.006.62.169.901-.563-.507-.845-.619-.169-.902.507.507.901Zm30.301-17.407-.563-.282-.957.282.281 1.014.563.282.958-.338-.282-.958Z" fill="#fff"/><path d="m248.763 169.106-.113-.507-.901-.507-.507.901.113.507.901.507.507-.901Zm30.021 8.338-.169.338.226 1.014 1.014-.225.225-.338-.282-1.014-1.014.225Zm-.726-18.703c-.395-1.071-.733-2.141-1.127-3.211l-.901-.451-.451.901c.394 1.071.732 2.141 1.127 3.211l.901.451.451-.901Zm-25.295 10.139.676.112.845-.619-.62-.845-.62-.113-.845.62.564.845Z" fill="#fff"/><path d="m253.555 167.866-.169-.45-.958-.395-.394.958.169.451.958.394.394-.958Zm1.071 22.983.507.281 1.014-.281-.338-.958-.507-.282-.957.282.281.958Zm20.445-29.403c-.282-1.127-.507-2.197-.789-3.324l-.901-.507-.564.901c.282 1.127.507 2.197.789 3.324l.901.507.564-.901Zm-16.901 4.9-.225-.451-1.014-.282-.282 1.014.282.451.958.282.281-1.014Z" fill="#fff"/><path d="m257.667 166.289.225.451 1.014.282.282-1.014-.282-.451-1.014-.282-.225 1.014Zm5.572 2.141c0-1.127.113-2.254.113-3.38l-.676-.733-.732.676c0 1.127-.113 2.254-.113 3.38l.676.733.732-.676Z" fill="#fff"/><path d="m262.51 164.543-.282-.395-1.014-.169-.169 1.015.282.45 1.07.113.113-1.014Z" fill="#fff"/><path d="m261.947 164.598.338.394 1.014.169.169-1.014-.338-.45-1.014-.113-.169 1.014Zm12.616 17.689-2.647-18.364-.845-.619-.62.845 2.704 18.364.789.619.619-.845Z" fill="#fff"/><path d="m261.892 165.218.958-.394.338-.958-.958-.394-.901.394-.394 1.014.957.338Zm4.166-1.465.676-.057.676-.732-.732-.676h-.676l-.732.732.788.733Z" fill="#fff"/><path d="m266.564 162.513-.394-.394-1.014-.057-.056 1.015.394.45 1.014.056.056-1.07Z" fill="#fff"/><path d="m265.997 163.247.845-.45.282-1.014-1.014-.282-.845.451-.282 1.014 1.014.281Z" fill="#fff"/><path d="m267.574 166.344-.169-3.38-.789-.676-.676.789.169 3.38.789.676.676-.789Z" fill="#fff"/><path d="m266.451 163.132.057.057 1.014-.169-.169-1.014-.057-.057-1.014.169.169 1.014Zm4.169 21.465-2.704-18.364-.789-.62-.619.845 2.647 18.364.845.62.62-.845Zm2.705-26.756-.451-.338-1.014.169.169 1.014.451.338 1.014-.169-.169-1.014Zm-11.097 7.827.958-.394.338-1.014-.958-.338-.901.394-.394.958.957.394Z" fill="#fff"/><path d="M261.942 165.725h.676l.733-.676-.733-.788h-.676l-.732.732.732.732Zm4.339 20.899-2.704-18.308-.845-.62-.62.789 2.704 18.364.845.62.62-.845Zm-8.73-19.661.958-.394.451-.902-.958-.45-.958.338-.45.957.957.451Z" fill="#fff"/><path d="m257.776 167.415 1.014-.338.451-.957-.958-.451-.957.338-.451.958.901.45Z" fill="#fff"/><path d="m257.495 167.472.676.056.789-.676-.676-.789-.676-.056-.789.619.676.846Zm22.193-16.281.563-.226.395-.957-.958-.395-.563.226-.395.957.958.395Zm-23.15 19.041-2.478-2.479h-1.014v1.014c.789.845 1.634 1.634 2.479 2.479h1.013v-1.014Zm-8.449-.731 1.07-.226.563-.844-.901-.564-1.07.226-.563.845.901.563Zm1.8 2.929 2.704 18.308.845.619.563-.788-2.648-18.364-.845-.62-.619.845Z" fill="#fff"/><path d="M253.215 190.061c-.564.45-1.127.957-1.69 1.408l-.113 1.014 1.014.112c.563-.45 1.127-.957 1.69-1.408l.113-1.014-1.014-.112Z" fill="#fff"/><path d="M250.062 191.975c.507.226 1.07.507 1.577.733l.958-.338-.338-.958c-.507-.225-1.071-.507-1.578-.732l-.957.338.338.957Zm-6.931-18.138c.395-1.07.845-2.14 1.24-3.267l-.395-.958-.957.395c-.395 1.07-.845 2.14-1.24 3.267l.395.958.957-.395Zm33.013-39.264-.507-.451-1.071.056.113 1.014.507.451 1.014-.056-.056-1.014Zm-34.029 39.771-.732.056-.676.789.845.676.676-.113.676-.789-.789-.619Zm38.867-29.461v-.62l-.732-.676-.732.676v.62l.732.732.732-.732Z" fill="#fff"/><path d="m280.025 145.557.563.169.901-.451-.507-.901-.563-.169-.901.451.507.901Zm-36.443 44.165.676-.113.676-.788-.788-.62-.733.056-.676.789.845.676Zm14.533-.902c-.563.507-1.126.958-1.746 1.465v1.014l.958.056c.563-.507 1.126-1.014 1.746-1.464v-1.014l-.958-.057Zm-11.04 4.903 3.492.564.845-.62-.619-.845-3.493-.563-.845.619.62.845Zm35.655-46.193 2.648 18.307.845.62.62-.789-2.704-18.364-.789-.619-.62.845Z" fill="#fff"/><path d="M283.409 150.007c-.619-.957-1.295-1.915-1.915-2.872l-1.014-.226-.225 1.014c.62.958 1.295 1.915 1.915 2.873l1.014.225.225-1.014Z" fill="#fff"/><path d="m282.565 148.995 2.648 18.252.845.619.62-.844-2.704-18.252-.789-.62-.62.845Zm-2.763-9.914-.563-.057-.789.564.564.845.563.112.845-.619-.62-.845Z" fill="#fff"/><path d="m280.422 139.701-.112-.45-.845-.62-.564.845.057.451.845.619.619-.845Z" fill="#fff"/><path d="m279.862 139.586-.057-.45-.845-.564-.619.845.113.451.788.563.62-.845Zm-33.635 52.277-2.703-18.308-.789-.619-.62.788 2.648 18.364.845.62.619-.845Z" fill="#fff"/><path d="M244.82 192.765c.451.225.901.394 1.352.62l.958-.395-.395-.957c-.45-.226-.901-.395-1.352-.62l-.957.394.394.958Z" fill="#fff"/><path d="M247.975 191.076c-.507.451-1.014.845-1.464 1.296v1.014l.957.056c.507-.45 1.014-.845 1.465-1.296v-1.013l-.958-.057Z" fill="#fff"/><path d="m244.706 173.388 2.648 18.364.845.62.619-.845-2.704-18.364-.788-.62-.62.845Zm-1.86-2.594.62.226.901-.451-.451-.958-.563-.169-.957.451.45.901Z" fill="#fff"/><path d="m243.184 170.85 1.127-.169.619-.845-.845-.619-1.07.169-.619.845.788.619Zm8.287 20.226-2.704-18.365-.789-.619-.62.845 2.648 18.364.845.62.62-.845Z" fill="#fff"/><path d="M248.37 172.993c.338-1.126.676-2.196 1.014-3.323l-.507-.901-.901.507c-.338 1.126-.676 2.196-1.014 3.323l.507.901.901-.507Z" fill="#fff"/><path d="m248.203 170.006 1.071-.226.563-.845-.845-.563-1.07.225-.564.845.845.564Zm8.395 19.885-2.648-18.307-.845-.62-.62.789 2.704 18.364.789.619.62-.845Zm-1.637-18.815 2.704 18.365.789.619.619-.845-2.647-18.364-.845-.62-.62.845Z" fill="#fff"/><path d="M253.552 171.808c.225-1.127.507-2.253.732-3.38l-.563-.845-.845.563c-.225 1.127-.507 2.254-.732 3.38l.563.845.845-.563Z" fill="#fff"/><path d="m253.101 168.879 1.014-.281.506-.902-.901-.507-1.014.282-.507.901.902.507Zm8.448 19.547-2.648-18.364-.845-.62-.619.845 2.703 18.364.789.62.62-.845Zm-1.747-18.983 2.704 18.364.788.619.62-.845-2.648-18.364-.845-.619-.619.845Z" fill="#fff"/><path d="m258.059 166.909 2.197 1.972 1.014-.113-.056-1.014-2.197-1.915-1.014.056.056 1.014Z" fill="#fff"/><path d="M261.272 168.542c-.845-.789-1.746-1.521-2.591-2.31h-1.014l.056 1.071c.845.788 1.747 1.521 2.592 2.309h1.014l-.057-1.07Zm3.095-1.013 2.648 18.364.845.619.619-.845-2.704-18.364-.845-.619-.563.845Z" fill="#fff"/><path d="m262.395 165.162 2.309 1.802 1.014-.112-.112-1.071-2.31-1.746-1.014.113.113 1.014Z" fill="#fff"/><path d="M265.776 166.571c-.902-.732-1.803-1.408-2.704-2.14l-1.014.112.112 1.014c.902.733 1.803 1.409 2.704 2.141l1.014-.113-.112-1.014Zm2.706-1.238 2.704 18.364.845.619.62-.845-2.704-18.364-.845-.563-.62.789Zm3.774-2.424 2.647 18.364.845.62.62-.845-2.704-18.308-.788-.62-.62.789Zm5.802 16.899-2.704-18.364-.789-.62-.62.845 2.648 18.308.845.62.62-.789Zm-2.589-19.49 2.704 18.364.788.62.62-.845-2.648-18.308-.845-.62-.619.789Zm5.577 16.785-2.704-18.364-.845-.563-.62.788 2.704 18.365.845.619.62-.845Z" fill="#fff"/><path d="m278.17 157.613 2.648 18.364.844.619.62-.845-2.704-18.364-.788-.619-.62.845Zm-2.366-1.014.619-.169.564-.845-.902-.564-.619.169-.564.845.902.564Z" fill="#fff"/><path d="m276.199 156.376.507-.563-.056-1.014h-1.014l-.564.619.057 1.014 1.07-.056Zm7.211 17.967-2.704-18.364-.788-.62-.62.845 2.647 18.308.845.62.62-.789Z" fill="#fff"/><path d="m280.255 154.796 2.704 18.308.788.62.62-.789-2.704-18.364-.788-.62-.62.845Z" fill="#fff"/><path d="m285.215 171.472-2.704-18.364-.845-.62-.563.845 2.647 18.308.845.62.62-.789Z" fill="#fff"/><path d="m281.718 151.869 2.704 18.364.788.619.62-.844-2.648-18.365-.845-.563-.619.789Zm-2.086-3.608.564.225.901-.45-.451-.958-.563-.169-.901.395.45.957Zm-3.492-1.577c.676-.282 1.352-.563 2.028-.788.676-.282 1.352-.507 1.972-.789l.394-.958-.958-.394c-.676.282-1.295.507-1.971.789-.676.281-1.352.563-2.028.788l-.394.958.957.394Zm-.225-12.279h-.226l-.732.676.676.789h.225l.733-.676-.676-.789Z" fill="#fff"/><path d="M270.165 120.241v-.001c-.189-.428-.504-.806-1.009-1.117-.221-.136-.454-.298-.703-.471l-.014-.01c-.358-.248-.753-.523-1.137-.724-.377-.197-.832-.373-1.288-.311-.513.07-.889.416-1.123.951-.224.512-.345 1.243-.372 2.227-.029 1.033-.438 2.489-1.099 4.173-.655 1.671-1.537 3.517-2.47 5.313-1.866 3.593-3.921 6.955-4.732 8.265l.426.263-.426-.263c-1.064 1.72-2.892 4.477-6.357 7.876h-238.2c.537-10.313 1.183-16.372 3.008-26.406.47-2.588 2.738-4.458 5.375-4.458h245.365a5.5 5.5 0 0 1 5.5 5.5v2.502a1.456 1.456 0 0 1-.083-.128l-.432.252.431-.252c-.294-.505-.335-1.033-.375-1.654l-.002-.035c-.029-.455-.062-.994-.283-1.492Z" stroke="#fff"/><path d="M270.165 120.241v-.001c-.189-.428-.504-.806-1.009-1.117-.221-.136-.454-.298-.703-.471l-.014-.01c-.358-.248-.753-.523-1.137-.724-.377-.197-.832-.373-1.288-.311-.513.07-.889.416-1.123.951-.224.512-.345 1.243-.372 2.227-.029 1.033-.438 2.489-1.099 4.173-.655 1.671-1.537 3.517-2.47 5.313-1.866 3.593-3.921 6.955-4.732 8.265-1.598 2.582-4.933 7.531-12.996 13.486-2.967 2.19-5.092 3.456-6.944 4.56l-.019.011.256.429-.256-.429-.218.129-.545.326H11.146c.362-13.965 1.035-22.768 3.545-37.016.457-2.599 2.73-4.484 5.376-4.484H265.41a5.5 5.5 0 0 1 5.5 5.5v2.502a1.456 1.456 0 0 1-.083-.128l-.432.252.431-.252c-.294-.505-.335-1.033-.375-1.654l-.002-.035c-.029-.455-.062-.994-.283-1.492Z" stroke="#fff"/><path d="m25.58 115.33.136.285h232.975l.076-.409c1.665-9.006 2.239-25.832 2.239-42.033 0-18.52-1.251-36.666-3.004-50.438-.37-2.908-1.15-5.044-2.288-6.567-1.146-1.533-2.628-2.41-4.327-2.842-1.686-.429-3.578-.419-5.565-.201-1.983.217-4.099.647-6.235 1.08l-.014.003c-1.749.355-3.515.714-5.265.971-4.938.727-44.325 8.992-79.053 16.278l-.102.022c-25.272 5.303-48.066 10.085-53.364 11.079-16.046 3.008-24.38 6.077-35.761 11.922-9.313 4.782-25.239 16.416-36.193 33.297-7.71 11.88-7.252 21.258-4.254 27.553Z" stroke="#fff"/><path d="M32.568 83.83c.344.25.84.586 2.063 1.23 2.375 1.25 7.875 2.625 15.125 0 2.352-.852 7.231-3.204 13.425-6.19 12.893-6.215 31.483-15.176 44.825-19.06 19.75-5.75 30.875-7 49-4.5 17.042 2.35 28.558 7.574 39.537 12.554l2.088.946c1.799.812 3.792 1.747 5.899 2.736 11.509 5.398 22.851 11.752 31.476 9.639 6.5-2.126 9.125-8 10.375-23.375.944-11.613.961-27.432.536-39.541 7.963-.428 14.15 4.702 12.339 36.29-2 34.875-7.375 38.875-14.875 41.875s-23.375-5.125-45-17.375-42.375-17.875-67.375-16.5c-22.968 1.264-47.413 14.343-67.132 24.894-1.744.934-3.452 1.847-5.118 2.731-20.5 10.875-30.125 12.375-33.125 12.5-1.094 0-1.688-.199-2.688-.636.907-5.906 4.157-12.406 8.625-18.219Z" stroke="#fff"/><rect x="1493.69" y="290.469" width="69.264" height="134.008" rx="19" stroke="#fff" stroke-width="2"/><rect x="1493.19" y="295.969" width="59.016" height="122" rx="12.5" stroke="#fff"/><path d="M1533.02 401.58v-15.846l-4.92 1.778v-3.61l6.7-2.42h2.64v20.098h-4.42Zm-17.5 0v-7.273l-6.67-12.633h4.84l3.62 7.096c.13.246.24.478.33.697.09.219.18.446.26.683h.08c.09-.237.17-.464.26-.683.1-.219.22-.451.34-.697l3.67-7.096h4.26l-6.56 12.482v7.424h-4.43Z" fill="#fff"/><rect x="1493.69" y="447.469" width="69.264" height="134.008" rx="19" stroke="#fff" stroke-width="2"/><rect x="1493.19" y="452.969" width="59.016" height="122" rx="12.5" stroke="#fff"/><path d="M1526.02 559v-2.68l6.92-7.615c.7-.784 1.26-1.513 1.68-2.187.42-.684.63-1.395.63-2.133 0-.748-.2-1.336-.61-1.764-.4-.437-.97-.656-1.72-.656-.76 0-1.37.255-1.83.765-.46.502-.68 1.327-.68 2.475v.438h-4.45v-.698c0-1.832.64-3.327 1.9-4.484 1.27-1.158 2.96-1.736 5.08-1.736 2.23 0 3.91.51 5.05 1.531 1.14 1.012 1.71 2.329 1.71 3.951 0 1.303-.32 2.461-.97 3.473-.64 1.002-1.45 2.041-2.43 3.117l-4.25 4.744h8.09V559h-14.12Zm-11.6 0v-7.273l-6.67-12.633h4.84l3.62 7.095c.13.247.24.479.33.698.09.218.18.446.26.683h.08c.09-.237.17-.465.26-.683.1-.219.22-.451.35-.698l3.66-7.095h4.27l-6.57 12.482V559h-4.43Z" fill="#fff"/><rect x="-1" y="1" width="98.496" height="134.008" rx="18" transform="matrix(-1 0 0 1 164.973 289.547)" stroke="#fff" stroke-width="2"/><rect x="-.5" y=".5" width="89.369" height="125.5" rx="12.5" transform="matrix(-1 0 0 1 161.125 294.25)" stroke="#fff"/><path d="M125.647 396.043v-.533h4.348v.451c.009.902.251 1.595.725 2.078.474.483 1.144.725 2.009.725.875 0 1.55-.242 2.024-.725s.711-1.253.711-2.31c0-1.021-.274-1.778-.82-2.27-.547-.492-1.327-.738-2.338-.738h-1.914v-2.926h1.804c.866 0 1.536-.233 2.01-.697.474-.465.711-1.158.711-2.078 0-.848-.196-1.477-.588-1.887-.392-.419-.957-.629-1.695-.629-.766 0-1.345.219-1.737.656-.382.438-.574 1.071-.574 1.901v.328h-4.306v-.369c0-1.668.601-3.036 1.804-4.102 1.213-1.076 2.858-1.613 4.936-1.613 2.133 0 3.76.496 4.881 1.49 1.121.984 1.681 2.21 1.681 3.678 0 1.103-.246 2.05-.738 2.843-.492.793-1.244 1.39-2.256 1.791v.055a4.674 4.674 0 0 1 2.598 1.627c.674.82 1.012 1.869 1.012 3.145 0 1.823-.643 3.281-1.928 4.375-1.285 1.093-3.058 1.64-5.319 1.64-2.251 0-3.987-.538-5.209-1.613-1.221-1.085-1.832-2.516-1.832-4.293Zm-23.994 5.537v-19.906h5.825l4.416 12.414c.109.31.205.606.287.889.082.282.15.592.205.929h.082c.054-.337.123-.647.205-.929.082-.283.178-.579.287-.889l4.43-12.414h5.879v19.906h-4.348v-12.373c0-.31.004-.652.014-1.025.009-.374.031-.711.068-1.012h-.096c-.054.31-.127.652-.219 1.025-.091.365-.186.702-.287 1.012l-4.347 12.373h-3.733l-4.334-12.373c-.1-.31-.2-.656-.3-1.039a10.83 10.83 0 0 1-.192-.998h-.109c.027.273.045.606.054.998.019.383.028.729.028 1.039v12.373h-3.815Z" fill="#fff"/><rect x="-1" y="1" width="69.264" height="134.008" rx="19" transform="matrix(-1 0 0 1 270.52 289.547)" stroke="#fff" stroke-width="2"/><rect x="-.5" y=".5" width="59.016" height="122" rx="12.5" transform="matrix(-1 0 0 1 271.52 295.547)" stroke="#fff"/><path d="M246.666 395.043v-.533h4.348v.451c.009.902.25 1.595.724 2.078.474.483 1.144.725 2.01.725.875 0 1.55-.242 2.023-.725.474-.483.711-1.253.711-2.31 0-1.021-.273-1.778-.82-2.27-.547-.492-1.326-.738-2.338-.738h-1.914v-2.926h1.805c.866 0 1.536-.233 2.01-.697.474-.465.711-1.158.711-2.078 0-.848-.196-1.477-.588-1.887-.392-.419-.957-.629-1.696-.629-.765 0-1.344.219-1.736.656-.383.438-.574 1.071-.574 1.901v.328h-4.307v-.369c0-1.668.602-3.036 1.805-4.102 1.212-1.076 2.857-1.613 4.935-1.613 2.133 0 3.76.496 4.881 1.49 1.121.984 1.682 2.21 1.682 3.678 0 1.103-.246 2.05-.738 2.843-.493.793-1.245 1.39-2.256 1.791v.055a4.668 4.668 0 0 1 2.597 1.627c.675.82 1.012 1.869 1.012 3.145 0 1.823-.642 3.281-1.928 4.375-1.285 1.093-3.058 1.64-5.318 1.64-2.251 0-3.988-.538-5.209-1.613-1.221-1.085-1.832-2.516-1.832-4.293Zm-11.293 5.537v-7.273l-6.672-12.633h4.84l3.623 7.096c.128.246.237.478.328.697.091.219.178.446.26.683h.082c.082-.237.169-.464.26-.683.1-.219.214-.451.342-.697l3.664-7.096h4.265l-6.562 12.482v7.424h-4.43Z" fill="#fff"/></svg>