<svg width="1761" height="290" viewBox="0 0 1761 290" fill="none" xmlns="http://www.w3.org/2000/svg">
<path d="M1487.35 120.328L1490.85 117.183L1488.85 115.422L1490.85 112.278L1487.35 111.146L1490.85 108.882L1486.73 107.247L1489.85 105.108L1485.98 102.593L1489.85 101.335L1486.73 98.5676L1489.85 97.5613L1487.35 94.9199L1490.85 94.2909L1488.85 90.6433H1492.48L1490.85 87.2471H1494.73L1493.85 83.7252L1497.73 84.4799L1496.73 81.2096L1500.73 81.8385V78.4423L1504.1 79.7002V76.0525L1507.97 77.6877L1508.97 74.7947L1511.22 76.0525L1512.6 72.4048" stroke="white"/>
<path d="M1403.94 132.675L1403.94 132.676L1407.34 135.231C1408.24 135.956 1409.15 136.727 1410.1 137.531L1410.43 137.149L1410.1 137.532L1410.11 137.535C1417.05 143.394 1425.81 150.793 1442.91 152.773L1442.94 152.777H1442.97H1489.82C1490.09 152.777 1490.32 153.001 1490.32 153.277V228.249C1490.32 233.533 1486.06 237.812 1480.82 237.812H278.998C273.757 237.812 269.502 233.533 269.502 228.249V153.277C269.502 153.001 269.726 152.777 270.002 152.777H316.874H316.902L316.931 152.773C334.032 150.793 342.796 143.394 349.735 137.535L349.739 137.531L349.739 137.531C351.594 135.964 353.304 134.52 355.01 133.315L355.01 133.314C355.928 132.665 356.78 132.037 357.6 131.432C361.335 128.68 364.392 126.429 369.974 124.846C375.58 123.257 383.754 122.337 397.706 122.337H1362.14C1376.09 122.337 1384.26 123.257 1389.87 124.846C1395.45 126.429 1398.51 128.679 1402.24 131.431C1402.79 131.837 1403.35 132.25 1403.94 132.675Z" stroke="white"/>
<line x1="269.002" y1="227.498" x2="1490.82" y2="227.498" stroke="white"/>
<path d="M1491.32 153.522C1491.32 152.694 1491.99 152.022 1492.82 152.022H1750.72V228.312C1750.72 233.559 1746.47 237.812 1741.22 237.812H1500.82C1495.57 237.812 1491.32 233.559 1491.32 228.312V153.522Z" stroke="white"/>
<path d="M269.252 153.522C269.252 152.694 268.58 152.022 267.752 152.022H9.84473V228.312C9.84473 233.559 14.098 237.812 19.3447 237.812H259.752C264.999 237.812 269.252 233.559 269.252 228.312V153.522Z" stroke="white"/>
<path d="M1535.05 241.023C1534.05 241.023 1533.21 240.279 1533.07 239.312H1586.01C1585.87 240.279 1585.04 241.023 1584.03 241.023H1535.05Z" stroke="white" stroke-width="2"/>
<rect x="1684.06" y="238.369" width="50.4813" height="5.73563" stroke="white" stroke-width="2"/>
<rect x="1631.33" y="238.369" width="51.7309" height="5.73563" stroke="white" stroke-width="2"/>
<rect x="1579.79" y="238.369" width="50.4813" height="5.73563" stroke="white" stroke-width="2"/>
<path d="M1734.19 246.104C1714.9 249.145 1703.69 249.134 1684.41 246.104H1734.19Z" stroke="white" stroke-width="2"/>
<path d="M1682.68 246.104C1662.93 249.145 1651.45 249.134 1631.71 246.104H1682.68Z" stroke="white" stroke-width="2"/>
<path d="M1629.92 246.104C1610.63 249.145 1599.42 249.134 1580.14 246.104H1629.92Z" stroke="white" stroke-width="2"/>
<path d="M1513.88 239.609C1516.39 241.106 1518.3 243.187 1520.13 246.243H1586.03V238.369H1511.35C1512.25 238.731 1513.09 239.139 1513.88 239.609Z" stroke="white" stroke-width="2"/>
<path d="M150.708 242.612C149.979 243.637 149.135 244.82 147.854 246.243H45.1742C43.7274 243.647 42.2557 241.685 40.196 240.14C39.3036 239.47 38.3145 238.889 37.1901 238.369H155.332C154.464 238.752 153.766 239.19 153.159 239.705C152.2 240.518 151.506 241.492 150.748 242.557L150.708 242.612Z" stroke="white" stroke-width="2"/>
<path d="M1532.86 288.311C1527.87 288.311 1524.8 282.002 1524.8 279.066C1524.8 276.173 1524.87 273.846 1529.68 271.33C1534.49 268.814 1538.18 267.619 1546.36 267.619C1549.99 267.619 1553 267.718 1556.35 267.828C1560.37 267.96 1564.88 268.108 1571.52 268.121C1578.16 268.108 1582.67 267.96 1586.69 267.828C1590.04 267.718 1593.06 267.619 1596.68 267.619C1604.87 267.619 1608.55 268.814 1613.36 271.33C1618.17 273.846 1618.24 276.173 1618.24 279.066C1618.24 282.002 1615.17 288.311 1610.18 288.311H1532.86Z" stroke="white" stroke-width="2"/>
<path d="M58.4073 288.311C53.4091 288.311 50.3477 282.002 50.3477 279.066C50.3476 276.173 50.4102 273.846 55.221 271.33C60.0318 268.814 63.718 267.619 71.9026 267.619C75.5288 267.619 78.5418 267.718 81.8979 267.828C85.9149 267.96 90.4234 268.108 97.0634 268.121C103.703 268.108 108.212 267.96 112.229 267.828C115.585 267.718 118.598 267.619 122.224 267.619C130.409 267.619 134.095 268.814 138.906 271.33C143.717 273.846 143.779 276.173 143.779 279.066C143.779 282.002 140.718 288.311 135.72 288.311H58.4073Z" stroke="white" stroke-width="2"/>
<rect x="1557.67" y="248.243" width="27.7394" height="19.2572" stroke="white" stroke-width="2"/>
<rect x="-1" y="1" width="27.7394" height="20.2635" transform="matrix(-1 0 0 1 109.934 246.236)" stroke="white" stroke-width="2"/>
<path d="M640.869 194.779C640.869 193.95 641.541 193.279 642.369 193.279H706.845C707.673 193.279 708.345 193.95 708.345 194.779V200.338C708.345 201.167 707.673 201.838 706.845 201.838H642.369C641.541 201.838 640.869 201.167 640.869 200.338V194.779Z" stroke="white"/>
<path d="M511.416 201.779C511.416 197.361 514.998 193.779 519.416 193.779H557.396C561.814 193.779 565.396 197.361 565.396 201.779V206.294C565.396 210.712 561.814 214.294 557.396 214.294H519.416C514.998 214.294 511.416 210.712 511.416 206.294V201.779Z" stroke="white" stroke-width="2"/>
<path d="M156.543 238.369H202.401V242.626C202.401 245.388 200.162 247.626 197.401 247.626H161.543C158.782 247.626 156.543 245.388 156.543 242.626V238.369Z" stroke="white" stroke-width="2"/>
<path d="M177.41 240.582C176.361 240.582 175.5 239.774 175.417 238.746H227.384C227.301 239.774 226.44 240.582 225.391 240.582H177.41Z" stroke="white" stroke-width="2"/>
<path d="M196.027 238.369H248.008V242.192C248.008 245.091 245.551 247.382 242.659 247.18L197.888 244.05C196.84 243.977 196.027 243.106 196.027 242.055V238.369Z" stroke="white" stroke-width="2"/>
<path d="M394.395 203.722C394.395 215.606 384.825 225.234 373.027 225.234C361.23 225.234 351.66 215.606 351.66 203.722C351.66 191.838 361.23 182.21 373.027 182.21C384.825 182.21 394.395 191.838 394.395 203.722Z" stroke="white"/>
<path d="M1318.13 202.653C1318.13 209.326 1312.75 214.731 1306.13 214.731C1299.51 214.731 1294.14 209.326 1294.14 202.653C1294.14 195.979 1299.51 190.574 1306.13 190.574C1312.75 190.574 1318.13 195.979 1318.13 202.653Z" stroke="white"/>
<path d="M1414.84 198.816C1414.84 214.104 1402.53 226.492 1387.35 226.492C1372.17 226.492 1359.86 214.104 1359.86 198.816C1359.86 183.529 1372.17 171.141 1387.35 171.141C1402.53 171.141 1414.84 183.529 1414.84 198.816Z" stroke="white"/>
<path d="M1410.34 198.816C1410.34 211.611 1400.04 221.968 1387.35 221.968C1374.66 221.968 1364.36 211.611 1364.36 198.816C1364.36 186.022 1374.66 175.665 1387.35 175.665C1400.04 175.665 1410.34 186.022 1410.34 198.816Z" stroke="white" stroke-width="2.5"/>
<path d="M469.867 203.722C469.867 215.606 460.298 225.234 448.5 225.234C436.702 225.234 427.133 215.606 427.133 203.722C427.133 191.838 436.702 182.21 448.5 182.21C460.298 182.21 469.867 191.838 469.867 203.722Z" stroke="white"/>
<path d="M467.431 203.722C467.431 214.256 458.949 222.784 448.501 222.784C438.052 222.784 429.57 214.256 429.57 203.722C429.57 193.188 438.052 184.659 448.501 184.659C458.949 184.659 467.431 193.188 467.431 203.722Z" stroke="white" stroke-width="2"/>
<path d="M392.146 203.722C392.146 214.256 383.664 222.784 373.216 222.784C362.767 222.784 354.285 214.256 354.285 203.722C354.285 193.188 362.767 184.659 373.216 184.659C383.664 184.659 392.146 193.188 392.146 203.722Z" stroke="white" stroke-width="2"/>
<line x1="519.662" y1="203.728" x2="557.898" y2="203.728" stroke="white" stroke-width="2"/>
<rect x="362.219" y="201.329" width="21.9918" height="4.786" rx="1.5" stroke="white"/>
<path d="M451.374 206.115H450.874V206.615V213.91C450.874 214.749 450.2 215.423 449.374 215.423H447.625C446.8 215.423 446.126 214.749 446.126 213.91V206.615V206.115H445.626H439.003C438.178 206.115 437.504 205.442 437.504 204.602V202.841C437.504 202.002 438.178 201.329 439.003 201.329H445.626H446.126V200.829V194.791C446.126 193.952 446.8 193.279 447.625 193.279H449.374C449.715 193.279 450.028 193.392 450.279 193.584L450.279 193.585C450.641 193.861 450.874 194.298 450.874 194.791V200.829V201.329H451.374H457.996C458.821 201.329 459.496 202.002 459.496 202.841V204.602C459.496 205.442 458.821 206.115 457.996 206.115H451.374Z" stroke="white"/>
<path d="M1490.82 153.409L1489.82 153.348L1489.45 153.325L1488.76 153.283L1487.83 153.226C1487.85 152.9 1487.9 152.583 1487.98 152.277H1489.82C1490.37 152.277 1490.82 152.727 1490.82 153.283L1490.82 153.409ZM1490.82 153.409L1492.72 153.35L1492.82 153.347L1493.82 153.316L1493.82 153.283H1492.82H1492.68L1490.83 153.283M1490.82 153.409C1490.82 153.366 1490.83 153.324 1490.83 153.283M1490.83 153.283L1492.65 153.226L1492.82 153.221L1493.82 153.19L1493.82 153.223C1493.81 152.615 1493.66 152.038 1493.41 151.522H1492.82C1492.45 151.522 1492.11 151.621 1491.81 151.795M1490.83 153.283C1490.91 152.648 1491.28 152.104 1491.81 151.795M1491.81 151.795L1491.81 151.796L1491.81 151.795ZM1754.35 151.378L1754.08 145.833L1757.1 148.669V215.756L1750.6 222.799C1749.24 223.086 1748.22 224.291 1748.22 225.734V228.249C1748.22 232.168 1745.07 235.312 1741.23 235.312H1500.81C1497.06 235.312 1493.96 232.31 1493.82 228.517C1493.76 226.904 1492.44 225.627 1490.82 225.627H1490.81C1489.2 225.627 1487.87 226.904 1487.81 228.517C1487.67 232.31 1484.58 235.312 1480.82 235.312H278.998C275.814 235.312 273.1 233.154 272.265 230.178C271.902 228.883 270.722 227.988 269.377 227.988C268.032 227.988 266.851 228.883 266.488 230.178C265.653 233.155 262.941 235.312 259.755 235.312H19.3408C15.4958 235.312 12.3444 232.168 12.3444 228.249V223.296C12.3444 222.542 12.0605 221.815 11.5491 221.261L6.33344 215.609L3.11906 188.63L6.35096 161.744L11.7339 154.653C11.7664 154.61 11.7977 154.566 11.8277 154.522H267.267C267.687 154.962 268.234 155.268 268.839 155.391C269.38 155.502 269.936 155.459 270.448 155.277H316.874C316.989 155.277 317.104 155.27 317.219 155.257C335.069 153.19 344.304 145.393 351.342 139.45L351.352 139.442L351.353 139.441C353.226 137.857 354.851 136.488 356.453 135.356L356.456 135.354C357.394 134.689 358.264 134.049 359.085 133.443C362.784 130.717 365.535 128.703 370.655 127.252C375.922 125.758 383.818 124.837 397.706 124.837H1362.14C1376.02 124.837 1383.92 125.758 1389.19 127.252C1394.31 128.703 1397.06 130.717 1400.76 133.442C1401.3 133.848 1401.88 134.268 1402.47 134.7L1402.48 134.71L1403.38 135.346L1403.39 135.357C1404.16 135.9 1404.94 136.507 1405.77 137.174L1405.77 137.174C1406.32 137.624 1406.89 138.096 1407.48 138.593L1408.49 139.442L1408.49 139.443L1408.5 139.45C1415.54 145.392 1424.77 153.19 1442.62 155.257C1442.74 155.27 1442.85 155.277 1442.97 155.277H1488.47C1489.01 155.956 1489.84 156.395 1490.78 156.408C1492.05 156.428 1493.16 155.647 1493.61 154.522H1751.35C1752.17 154.522 1752.95 154.186 1753.52 153.592C1754.09 152.998 1754.38 152.197 1754.35 151.378Z" stroke="white" stroke-width="6" stroke-linejoin="round"/>
<path d="M383.622 145.736L385.232 142.841H398.286L399.436 145.736L398.286 148.63H385.232L383.622 145.736Z" stroke="white" stroke-width="0.5"/>
<path d="M383.622 158.314L385.232 155.42H398.286L399.436 158.314L398.286 161.209H385.232L383.622 158.314Z" stroke="white" stroke-width="0.5"/>
<path d="M420.108 145.736L421.719 142.841H434.772L435.922 145.736L434.772 148.63H421.719L420.108 145.736Z" stroke="white" stroke-width="0.5"/>
<path d="M420.108 158.314L421.719 155.42H434.772L435.922 158.314L434.772 161.209H421.719L420.108 158.314Z" stroke="white" stroke-width="0.5"/>
<path d="M456.597 145.736L458.207 142.841H471.26L472.411 145.736L471.26 148.63H458.207L456.597 145.736Z" stroke="white" stroke-width="0.5"/>
<path d="M456.597 158.314L458.207 155.42H471.26L472.411 158.314L471.26 161.209H458.207L456.597 158.314Z" stroke="white" stroke-width="0.5"/>
<path d="M365.128 152.025L366.738 149.131H379.792L380.942 152.025L379.792 154.92H366.738L365.128 152.025Z" stroke="white" stroke-width="0.5"/>
<path d="M401.991 152.025L403.601 149.131H416.655L417.805 152.025L416.655 154.92H403.601L401.991 152.025Z" stroke="white" stroke-width="0.5"/>
<path d="M438.852 152.025L440.463 149.131H453.516L454.667 152.025L453.516 154.92H440.463L438.852 152.025Z" stroke="white" stroke-width="0.5"/>
<path d="M475.714 152.025L477.324 149.131H490.378L491.528 152.025L490.378 154.92H477.324L475.714 152.025Z" stroke="white" stroke-width="0.5"/>
<path d="M1492.48 138.441C1492.88 136.73 1491.64 134.709 1490.98 133.912L1487.23 130.642M1492.48 138.441L1490.35 152.025C1490.75 149.711 1487.44 145.526 1485.73 143.724L1487.23 130.642M1492.48 138.441C1492.69 137.309 1493.5 133.862 1494.6 131.648C1495.98 128.881 1496.85 127.372 1496.6 122.592C1496.35 117.812 1497.1 114.542 1499.48 108.882C1501.37 104.354 1508.26 87.5406 1511.47 79.7002C1494.6 105.234 1488.73 121.083 1487.23 130.642M1484.36 133.032L1487.23 120.454M1483.11 130.013L1485.73 118.441M1481.86 126.743L1484.36 115.422M1480.48 123.473L1483.11 111.649M1479.48 119.322L1482.48 107.624M1479.48 114.29L1484.36 93.6621" stroke="white"/>
<path d="M233.455 161.841C233.008 161.069 232.184 160.594 231.291 160.594H5.17471L1.85893 187.594L5.17471 214.594H231.291C232.184 214.594 233.008 214.118 233.455 213.346L247.639 188.846C248.088 188.072 248.088 187.116 247.639 186.341L233.455 161.841Z" stroke="white" stroke-width="3"/>
<path d="M239.896 153.848C238.914 152.144 237.097 151.094 235.13 151.094H10.5949L3.95071 159.789L0.601257 187.469L3.94777 215.373L11.8157 223.844H235.13C237.097 223.844 238.914 222.794 239.896 221.09L257.688 190.215C258.668 188.515 258.668 186.422 257.688 184.723L239.896 153.848Z" stroke="white"/>
<path d="M185.395 197.531V181.139L180.459 182.984V179.854L187.158 177.406H189.086V197.531H185.395Z" fill="white"/>
<path d="M165.844 197.531V177.625H169.535V194.633H178.08V197.531H165.844Z" fill="white"/>
<path d="M1527.74 161.841C1528.19 161.069 1529.01 160.594 1529.9 160.594H1759.22V214.594H1529.9C1529.01 214.594 1528.19 214.118 1527.74 213.346L1513.56 188.846C1513.11 188.072 1513.11 187.116 1513.56 186.341L1527.74 161.841Z" stroke="white" stroke-width="3"/>
<path d="M1751.97 151.094H1752.5L1752.47 150.57L1751.91 138.924L1760.22 146.686V150.594V215.397L1752.38 223.844H1526.07C1524.1 223.844 1522.28 222.794 1521.3 221.09L1503.51 190.215C1502.53 188.515 1502.53 186.422 1503.51 184.723L1521.3 153.848C1522.28 152.144 1524.1 151.094 1526.06 151.094H1751.97Z" stroke="white"/>
<path d="M1589.55 197.531V181.139L1584.62 182.984V179.854L1591.32 177.406H1593.25V197.531H1589.55Z" fill="white"/>
<path d="M1567.84 197.531V177.625H1574.87C1577 177.625 1578.66 178.176 1579.85 179.279C1581.03 180.373 1581.62 181.859 1581.62 183.736C1581.62 185.632 1581.02 187.15 1579.82 188.289C1578.62 189.419 1576.96 189.984 1574.84 189.984H1571.54V197.531H1567.84ZM1571.54 187.291H1574.56C1575.81 187.291 1576.68 186.967 1577.18 186.32C1577.68 185.673 1577.93 184.839 1577.93 183.818C1577.93 182.798 1577.68 181.973 1577.18 181.344C1576.68 180.715 1575.81 180.4 1574.56 180.4H1571.54V187.291ZM1578.45 197.531L1573.94 188.453L1577.62 188.002L1582.55 197.531H1578.45Z" fill="white"/>
<path d="M83.7252 151.093C55.7252 151.093 30.4752 151.093 25.7252 151.093C20.9752 151.093 22.7252 147.343 22.9752 142.343C23.2252 137.343 30.7252 70.0928 53.7252 45.5928C76.7252 21.0928 102.475 7.34278 141.725 9.84278C180.975 12.3428 214.845 35.6809 234.475 64.0928C254.589 93.2053 258.493 135.333 258.099 140.468C257.704 145.602 259.225 151.093 255.225 151.093C252.025 151.093 139.558 151.093 83.7252 151.093ZM268.723 151.093L266.473 134.593C265.056 132.259 262.173 126.493 261.973 122.093C261.723 116.593 260.973 113.093 258.099 103.343C255.225 93.5928 241.973 53.5928 203.223 26.5928C164.473 -0.407225 119.223 -3.15722 88.4727 9.84278C57.7227 22.8428 33.9777 48.8447 25.7252 76.0938C19.1232 97.893 12.806 135.176 10.4727 151.093H268.723Z" stroke="white" stroke-width="3"/>
<path d="M232.973 77.0939C245.473 95.8439 248.223 134.344 245.973 150.594H34.2227C30.2227 150.594 30.7227 148.844 30.9727 145.094C31.2227 141.344 40.4727 98.0938 46.9727 80.0938C53.4727 62.0938 68.2227 39.5939 95.4727 27.5939C122.723 15.5939 156.223 19.0939 181.223 30.5939C206.223 42.0939 220.473 58.3439 232.973 77.0939Z" stroke="white"/>
<path d="M175.51 118.531V116.18L182.4 108.496C183.166 107.639 183.772 106.846 184.219 106.117C184.665 105.379 184.889 104.613 184.889 103.82C184.889 102.982 184.647 102.312 184.164 101.811C183.69 101.3 183.025 101.045 182.168 101.045C181.302 101.045 180.591 101.332 180.035 101.906C179.479 102.471 179.201 103.36 179.201 104.572V104.928H175.482V104.395C175.482 102.572 176.102 101.095 177.342 99.9648C178.581 98.8255 180.195 98.2559 182.182 98.2559C184.242 98.2559 185.827 98.7663 186.939 99.7871C188.061 100.799 188.621 102.089 188.621 103.656C188.621 104.941 188.298 106.09 187.65 107.102C187.003 108.113 186.174 109.171 185.162 110.273L180.473 115.564H189.086V118.531H175.51Z" fill="white"/>
<path d="M161.797 118.531V98.625H165.488V115.633H174.033V118.531H161.797Z" fill="white"/>
<path d="M1677.1 151.093C1705.1 151.093 1730.35 151.093 1735.1 151.093C1739.85 151.093 1738.1 147.343 1737.85 142.343C1737.6 137.343 1730.1 70.0928 1707.1 45.5928C1684.1 21.0928 1658.35 7.34278 1619.1 9.84278C1579.85 12.3428 1545.97 35.6809 1526.35 64.0928C1506.23 93.2053 1502.33 135.333 1502.72 140.468C1503.12 145.602 1501.6 151.093 1505.6 151.093C1508.8 151.093 1621.26 151.093 1677.1 151.093ZM1492.1 151.093L1494.35 134.593C1495.76 132.259 1498.65 126.493 1498.85 122.093C1499.1 116.593 1499.85 113.093 1502.72 103.343C1505.6 93.5928 1518.85 53.5928 1557.6 26.5928C1596.35 -0.407225 1641.6 -3.15722 1672.35 9.84278C1703.1 22.8428 1726.84 48.8447 1735.1 76.0938C1741.55 97.391 1747.72 133.467 1750.18 149.96C1750.27 150.563 1749.8 151.093 1749.19 151.093H1492.1Z" stroke="white" stroke-width="3"/>
<path d="M1527.85 77.0939C1515.35 95.8439 1512.6 134.344 1514.85 150.594H1726.6C1730.6 150.594 1730.1 148.844 1729.85 145.094C1729.6 141.344 1720.35 98.0938 1713.85 80.0938C1707.35 62.0938 1692.6 39.5939 1665.35 27.5939C1638.1 15.5939 1604.6 19.0939 1579.6 30.5939C1554.6 42.0939 1540.35 58.3439 1527.85 77.0939Z" stroke="white"/>
<path d="M1583.72 118.531V116.18L1590.61 108.496C1591.37 107.639 1591.98 106.846 1592.43 106.117C1592.87 105.379 1593.1 104.613 1593.1 103.82C1593.1 102.982 1592.85 102.312 1592.37 101.811C1591.9 101.3 1591.23 101.045 1590.38 101.045C1589.51 101.045 1588.8 101.332 1588.24 101.906C1587.69 102.471 1587.41 103.36 1587.41 104.572V104.928H1583.69V104.395C1583.69 102.572 1584.31 101.095 1585.55 99.9648C1586.79 98.8255 1588.4 98.2559 1590.39 98.2559C1592.45 98.2559 1594.03 98.7663 1595.15 99.7871C1596.27 100.799 1596.83 102.089 1596.83 103.656C1596.83 104.941 1596.5 106.09 1595.86 107.102C1595.21 108.113 1594.38 109.171 1593.37 110.273L1588.68 115.564H1597.29V118.531H1583.72Z" fill="white"/>
<path d="M1567.84 118.531V98.625H1574.87C1577 98.625 1578.66 99.1764 1579.85 100.279C1581.03 101.373 1581.62 102.859 1581.62 104.736C1581.62 106.632 1581.02 108.15 1579.82 109.289C1578.62 110.419 1576.96 110.984 1574.84 110.984H1571.54V118.531H1567.84ZM1571.54 108.291H1574.56C1575.81 108.291 1576.68 107.967 1577.18 107.32C1577.68 106.673 1577.93 105.839 1577.93 104.818C1577.93 103.798 1577.68 102.973 1577.18 102.344C1576.68 101.715 1575.81 101.4 1574.56 101.4H1571.54V108.291ZM1578.45 118.531L1573.94 109.453L1577.62 109.002L1582.55 118.531H1578.45Z" fill="white"/>
</svg>
