<svg width="1761" height="773" fill="none" xmlns="http://www.w3.org/2000/svg"><rect x="279.499" y="18.519" width="1199.83" height="739.041" rx="29.5" stroke="#fff"/><rect x="327.652" y="43.161" width="1104.29" height="689.758" rx="11.5" stroke="#fff"/><rect x="269.519" y="8" width="1220.6" height="760.08" rx="11.5" stroke="#fff"/><circle cx="1455.12" cy="416.048" r="9.5" stroke="#fff"/><path d="M1490.73 29.44c0-4.626 0-8.058.27-10.72.26-2.657.78-4.484 1.78-5.924 1.25-1.81 3-3.22 5.03-4.067 1.62-.674 3.51-.8 6.17-.5 2.66.3 6.01 1.018 10.54 1.988l94.72 20.31c27.39 5.871 47.9 10.269 64.02 15.16 16.12 4.887 27.81 10.258 37.59 18.056a106.569 106.569 0 0 1 28.9 35.75c5.57 11.191 8.37 23.756 9.77 40.539 1.4 16.791 1.4 37.765 1.4 65.772v356.052c0 44.326-.01 66.336-8.16 84.878a96.628 96.628 0 0 1-21.4 30.663c-14.59 14.051-35.25 21.654-76.85 36.946l-127.33 46.801c-4.94 1.816-8.62 3.164-11.54 3.912-2.91.746-5.01.872-6.82.309a11.47 11.47 0 0 1-5.71-3.987c-1.16-1.506-1.76-3.517-2.07-6.513-.31-2.999-.31-6.91-.31-12.174V29.44Z" stroke="#fff"/><path d="M1501.68 756.221V16.198l112.07 25.139c24.8 5.564 43.38 9.731 57.98 14.304 14.6 4.57 25.18 9.536 34.02 16.677a97.586 97.586 0 0 1 26.12 32.63c5.03 10.185 7.56 21.601 8.83 36.841 1.26 15.248 1.26 34.285 1.26 59.708v356.495c0 42.941-.01 64.259-7.9 82.22a93.573 93.573 0 0 1-20.73 29.705c-14.13 13.612-34.13 20.983-74.43 35.812l-137.22 50.492Z" stroke="#fff"/><path d="m1751.33 285.06 8.92-7.378v-70.664c0-59.477 0-89.215-11.96-113.103a112.976 112.976 0 0 0-30.91-38.006c-20.95-16.579-50.07-22.636-108.3-34.751l-93.72-19.5c-1.13-.235-2.19-.455-3.18-.658l-11 6.757c3.06-.055 7.14.819 13.35 2.15l94.73 20.31c54.75 11.74 82.12 17.61 101.81 33.315a107.107 107.107 0 0 1 29.03 35.919c11.23 22.538 11.23 50.536 11.23 106.532v79.077Zm.09 152.75V285.06l8.75 8.5v134l-8.75 10.25Z" stroke="#fff"/><circle cx="1571.6" cy="318.984" r="66.777" stroke="#fff"/><circle cx="1571.75" cy="318.759" r="50.417" stroke="#fff" stroke-width="3"/><circle cx="1571.76" cy="318.758" r="45.77" stroke="#fff"/><rect x="1507.37" y="417.727" width="160.419" height="160.419" rx="2.5" stroke="#fff" stroke-width="3"/><rect x="1501.71" y="412.07" width="171.733" height="171.733" rx="7.5" stroke="#fff"/><path d="m1583.75 62.769-12.78-3.327-19.3 19.226-19.3 19.226 3.28 12.792 12.78 3.326 38.6-38.451-3.28-12.792Z" stroke="#fff"/><circle cx="1656.55" cy="121.126" r="26.076" stroke="#fff" stroke-width="3"/><circle cx="1605.94" cy="171.212" r="26.076" stroke="#fff" stroke-width="3"/><circle cx="1707.7" cy="172.14" r="26.076" stroke="#fff" stroke-width="3"/><circle cx="1656.55" cy="223.042" r="26.076" stroke="#fff" stroke-width="3"/><path d="m1595.3 184.506 8.7-14.625h.83l6.19-10.969h4.65l-8.15 13.992h-.79l-6.7 11.602h-4.73Zm.42-25.594 5.33.018 6.29 10.951h.05l8.74 14.625h-5.36l-6.73-11.584h-.06l-8.26-14.01Zm59.07-24.99v-9.651l-8.37-15.943h5.22l4.93 9.633c.15.316.29.615.42.896.13.27.25.557.37.862h.09c.11-.305.23-.592.35-.862.13-.281.27-.58.44-.896l4.94-9.633h4.71l-8.3 15.838v9.756h-4.8Zm45.31 51.584v-25.594h9.18c2.57 0 4.54.551 5.91 1.652 1.38 1.09 2.07 2.743 2.07 4.957 0 1.442-.32 2.631-.97 3.569-.63.937-1.44 1.576-2.42 1.916v.07c1.22.34 2.21 1.031 2.99 2.074.78 1.032 1.17 2.409 1.17 4.131 0 2.285-.75 4.061-2.25 5.326-1.48 1.266-3.49 1.899-6.03 1.899h-9.65Zm4.68-3.393h4.39c1.41 0 2.44-.369 3.1-1.107.67-.75 1-1.758 1-3.024 0-1.265-.33-2.273-1-3.023-.66-.75-1.69-1.125-3.1-1.125h-4.39v8.279Zm0-11.32h3.94c1.38 0 2.38-.328 2.99-.984.62-.657.93-1.582.93-2.778 0-1.183-.31-2.086-.93-2.707-.61-.621-1.61-.937-2.99-.949h-3.94v7.418Zm-59.51 64.615 8.82-25.664h5.17l8.82 25.664h-4.88l-6.07-18.58a20.19 20.19 0 0 1-.35-1.178c-.09-.363-.18-.714-.26-1.054h-.11c-.07.34-.16.691-.26 1.054-.1.352-.21.745-.34 1.178l-5.97 18.58h-4.57Zm4.58-5.906.95-3.428h11.52l.98 3.428h-13.45Z" fill="#fff"/><path d="M269.519 29.488c0-4.625-.001-8.057-.265-10.72-.263-2.657-.785-4.483-1.782-5.924-1.254-1.809-3-3.22-5.032-4.066-1.617-.674-3.512-.8-6.165-.501-2.659.3-6.015 1.019-10.538 1.988l-94.728 20.31c-27.384 5.872-47.892 10.269-64.016 15.16-16.116 4.888-27.815 10.258-37.588 18.056a106.5 106.5 0 0 0-28.898 35.751c-5.576 11.191-8.375 23.755-9.776 40.538-1.401 16.791-1.402 37.765-1.402 65.772v356.053c0 44.325.01 66.335 8.165 84.878a96.504 96.504 0 0 0 21.398 30.663c14.591 14.051 35.247 21.653 76.851 36.945l127.333 46.801c4.942 1.816 8.612 3.165 11.533 3.912 2.918.747 5.014.872 6.826.309a11.5 11.5 0 0 0 5.712-3.986c1.154-1.506 1.759-3.517 2.065-6.514.306-2.999.307-6.909.307-12.174V29.489Z" stroke="#fff"/><path d="M258.577 756.27V16.247L146.505 41.385c-24.806 5.565-43.382 9.732-57.983 14.304-14.594 4.57-25.18 9.536-34.016 16.677a97.5 97.5 0 0 0-26.122 32.63c-5.034 10.185-7.561 21.601-8.827 36.842-1.266 15.247-1.266 34.284-1.266 59.708V558.04c0 42.941.01 64.259 7.906 82.22a93.492 93.492 0 0 0 20.722 29.705c14.13 13.613 34.132 20.984 74.432 35.812l137.226 50.493Z" stroke="#fff"/><circle cx="67.277" cy="67.277" r="66.777" transform="matrix(-1 0 0 1 167.712 107.756)" stroke="#fff"/><circle cx="51.917" cy="51.917" r="50.417" transform="matrix(-1 0 0 1 152.194 122.891)" stroke="#fff" stroke-width="3"/><circle cx="46.27" cy="46.27" r="45.77" transform="matrix(-1 0 0 1 146.547 128.537)" stroke="#fff"/><path d="m176.506 62.817 12.78-3.326 19.296 19.225 19.297 19.226-3.28 12.792-12.78 3.327-38.593-38.452 3.28-12.792Zm-29.379 425.016 6.706-11.376h54.478l6.706 11.376-6.706 11.377h-54.478l-6.706-11.377Zm0 84.49 6.706-11.376h54.478l6.706 11.376-6.706 11.377h-54.478l-6.706-11.377ZM9.84 147.123 1.5 137.115c1.497-17.828 4.488-31.22 10.464-43.151a113 113 0 0 1 30.913-38.006C63.827 39.378 92.94 33.32 151.17 21.206l93.72-19.5c1.131-.234 2.19-.455 3.185-.658l11.001 6.758c-3.065-.055-7.14.818-13.351 2.15l-94.728 20.31C96.246 42.006 68.87 47.875 49.187 63.58a106.999 106.999 0 0 0-29.034 35.919c-6.358 12.761-9.117 27.272-10.313 47.624Zm186.894 98.971c5.799 0 10.5 4.701 10.5 10.5v32.125a3.5 3.5 0 0 0 3.5 3.5h32.125c5.799 0 10.5 4.701 10.5 10.5v31.5c0 5.799-4.701 10.5-10.5 10.5h-32.125a3.5 3.5 0 0 0-3.5 3.5v32.125c0 5.799-4.701 10.5-10.5 10.5h-31.5c-5.799 0-10.5-4.701-10.5-10.5v-32.125a3.5 3.5 0 0 0-3.5-3.5h-32.125c-5.799 0-10.5-4.701-10.5-10.5v-31.5c0-5.799 4.701-10.5 10.5-10.5h32.125a3.5 3.5 0 0 0 3.5-3.5v-32.125c0-5.799 4.701-10.5 10.5-10.5h31.5Z" stroke="#fff"/><path d="M197.484 251.574a4.5 4.5 0 0 1 4.5 4.5v33.895a7.5 7.5 0 0 0 7.5 7.5h33.895a4.5 4.5 0 0 1 4.5 4.5v33a4.5 4.5 0 0 1-4.5 4.5h-33.895a7.5 7.5 0 0 0-7.5 7.5v33.894a4.5 4.5 0 0 1-4.5 4.5h-33a4.5 4.5 0 0 1-4.5-4.5v-33.894a7.5 7.5 0 0 0-7.5-7.5H118.59a4.5 4.5 0 0 1-4.5-4.5v-33a4.5 4.5 0 0 1 4.5-4.5h33.894a7.5 7.5 0 0 0 7.5-7.5v-33.895a4.5 4.5 0 0 1 4.5-4.5h33Z" stroke="#fff" stroke-width="3"/><path d="m266.366 16.803 5.901.013c.199-1.07.477-1.812.835-2.417a8.992 8.992 0 0 1 3.165-3.165l-1.523-2.575 1.523 2.575c.873-.516 2.034-.868 4.082-1.057 2.09-.194 4.789-.197 8.659-.197H1470.29c3.87 0 6.57.003 8.66.197 2.05.189 3.21.54 4.08 1.057a8.95 8.95 0 0 1 3.17 3.165c.55.933.91 2.192 1.09 4.503l5.98.019c.24-2.78.71-4.225 1.4-5.22a8.974 8.974 0 0 1 3.93-3.183c1.05-.436 2.45-.603 4.93-.324 2.5.283 5.72.968 10.29 1.949l94.73 20.31c27.42 5.88 47.81 10.254 63.81 15.107 15.96 4.84 27.33 10.094 36.76 17.618a104.039 104.039 0 0 1 28.22 34.912c5.38 10.798 8.13 23.013 9.52 39.631 1.39 16.663 1.39 37.516 1.39 65.564v356.053c0 44.561-.06 65.926-7.95 83.871a93.904 93.904 0 0 1-20.84 29.869c-14.12 13.598-34.16 21.026-75.98 36.399l-127.34 46.802c-4.99 1.835-8.52 3.128-11.29 3.836-2.75.704-4.3.704-5.46.344a8.98 8.98 0 0 1-4.47-3.12c-.73-.948-1.26-2.383-1.55-5.137l-5.98.204c-.13 3.442-.5 5.069-1.19 6.235a8.96 8.96 0 0 1-3.17 3.166c-.87.516-2.03.868-4.08 1.057-2.09.193-4.79.196-8.66.196H289.008c-3.87 0-6.569-.003-8.659-.196-2.048-.189-3.209-.541-4.082-1.057a8.996 8.996 0 0 1-3.165-3.166c-.484-.817-.824-1.889-1.02-3.707l-5.908-.342c-.299 1.315-.699 2.164-1.182 2.794a9.001 9.001 0 0 1-4.47 3.12c-1.157.359-2.713.36-5.464-.344-2.768-.708-6.297-2.002-11.29-3.837l-127.333-46.801c-41.825-15.373-61.857-22.801-75.978-36.399a94 94 0 0 1-20.845-29.869c-7.891-17.945-7.953-39.31-7.953-83.871V205.332c0-28.048.003-48.901 1.393-65.564 1.388-16.618 4.142-28.833 9.522-39.631a104.001 104.001 0 0 1 28.22-34.912c9.43-7.524 20.797-12.778 36.755-17.618 16.001-4.853 36.39-9.227 63.814-15.107l94.728-20.31c4.573-.98 7.787-1.666 10.294-1.95 2.474-.279 3.875-.111 4.924.325a8.994 8.994 0 0 1 3.937 3.183c.48.693.858 1.61 1.12 3.055Z" stroke="#fff" stroke-width="6"/></svg>