<svg width="1761" height="291" fill="none" xmlns="http://www.w3.org/2000/svg"><path opacity=".2" d="m1487.36 121.797 3.49-3.145-1.99-1.761 1.99-3.144-3.49-1.132 3.49-2.265-4.12-1.635 3.13-2.138-3.88-2.516 3.88-1.257-3.13-2.768 3.13-1.006-2.5-2.641 3.49-.63-1.99-3.647h3.62l-1.63-3.396h3.88l-.88-3.522 3.88.755-1-3.27 4 .628v-3.396l3.37 1.258V77.52l3.87 1.635 1-2.893 2.25 1.258 1.38-3.647m-108.66 60.27v.002l3.4 2.555c.9.725 1.81 1.496 2.76 2.3l.33-.382-.33.382.01.004c6.94 5.859 15.7 13.258 32.8 15.238l.03.004h46.88c.27 0 .5.223.5.5v74.972c0 5.284-4.26 9.563-9.5 9.563H278.999c-5.241 0-9.496-4.279-9.496-9.563v-74.972a.5.5 0 0 1 .5-.5h46.9l.029-.004c17.101-1.98 25.864-9.379 32.804-15.238l.004-.004c1.855-1.567 3.565-3.011 5.271-4.217.918-.65 1.77-1.277 2.59-1.883 3.735-2.752 6.792-5.002 12.374-6.585 5.606-1.589 13.78-2.509 27.732-2.509h964.433c13.95 0 22.12.92 27.73 2.509 5.58 1.583 8.64 3.833 12.37 6.585.55.405 1.11.819 1.7 1.243ZM269.003 228.967H1490.82m.5-73.976c0-.829.67-1.5 1.5-1.5h257.9v76.29c0 5.246-4.25 9.5-9.5 9.5h-240.4c-5.25 0-9.5-4.254-9.5-9.5v-74.79Zm-1222.068 0a1.5 1.5 0 0 0-1.5-1.5H9.845v76.29a9.5 9.5 0 0 0 9.5 9.5h240.407a9.5 9.5 0 0 0 9.5-9.5v-74.79Z" stroke="#fff"/><path opacity=".2" d="M1535.05 242.491c-1 0-1.84-.743-1.98-1.71h52.94c-.14.967-.97 1.71-1.98 1.71h-48.98Zm149.01-2.654h50.481v5.736h-50.481zm-52.73 0h51.731v5.736h-51.731z" stroke="#fff" stroke-width="2"/><path opacity=".2" stroke="#fff" stroke-width="2" d="M1579.79 239.837h50.481v5.736h-50.481zm154.4 7.736c-19.29 3.041-30.5 3.03-49.78 0h49.78Zm-51.51 0c-19.75 3.041-31.23 3.03-50.97 0h50.97Zm-52.76 0c-19.29 3.041-30.5 3.03-49.78 0h49.78Z"/><path opacity=".2" d="M1513.88 241.078c2.51 1.497 4.42 3.578 6.25 6.633h65.9v-7.874h-74.68c.9.363 1.74.771 2.53 1.241Zm-1363.171 3.003c-.73 1.025-1.573 2.208-2.854 3.63H45.175c-1.447-2.596-2.918-4.557-4.978-6.102a16.524 16.524 0 0 0-3.006-1.772h118.142a8.737 8.737 0 0 0-2.173 1.337c-.959.813-1.653 1.787-2.411 2.851l-.04.056Zm1382.161 45.698c-5 0-8.06-6.308-8.06-9.245 0-2.893.06-5.22 4.87-7.735 4.81-2.516 8.5-3.711 16.68-3.711 3.63 0 6.64.099 10 .209 4.01.132 8.52.279 15.16.293 6.64-.014 11.15-.161 15.17-.293 3.35-.11 6.37-.209 9.99-.209 8.19 0 11.87 1.195 16.68 3.711 4.81 2.515 4.88 4.842 4.88 7.735 0 2.937-3.06 9.245-8.06 9.245h-77.31Zm-1474.462 0c-4.998 0-8.06-6.308-8.06-9.245 0-2.893.063-5.22 4.873-7.735 4.811-2.516 8.498-3.711 16.682-3.711 3.626 0 6.64.099 9.995.209 4.017.132 8.526.279 15.166.293 6.64-.014 11.148-.161 15.165-.293 3.357-.11 6.37-.209 9.996-.209 8.184 0 11.871 1.195 16.681 3.711 4.811 2.515 4.874 4.842 4.874 7.735 0 2.937-3.062 9.245-8.06 9.245H58.408Zm1499.262-40.068h27.739v19.257h-27.739zm-1446.736-1.006H83.195v20.264h27.739z" stroke="#fff" stroke-width="2"/><path opacity=".2" d="M640.871 196.248a1.5 1.5 0 0 1 1.5-1.5h64.475a1.5 1.5 0 0 1 1.5 1.5v5.559a1.5 1.5 0 0 1-1.5 1.5h-64.475a1.5 1.5 0 0 1-1.5-1.5v-5.559Z" stroke="#fff"/><path opacity=".2" d="M511.417 203.248a8 8 0 0 1 8-8h37.98a8 8 0 0 1 8 8v4.515a8 8 0 0 1-8 8h-37.98a8 8 0 0 1-8-8v-4.515Zm-354.874 36.589h45.858v4.258a5 5 0 0 1-5 5h-35.858a5 5 0 0 1-5-5v-4.258Z" stroke="#fff" stroke-width="2"/><path opacity=".2" d="M177.412 242.051a2 2 0 0 1-1.994-1.836h51.968a2 2 0 0 1-1.994 1.836h-47.98Z" stroke="#fff" stroke-width="2"/><path opacity=".2" d="M196.029 239.837h51.981v3.824a5 5 0 0 1-5.349 4.988l-44.771-3.13a2 2 0 0 1-1.861-1.995v-3.687Z" stroke="#fff" stroke-width="2"/><path opacity=".2" d="M394.396 205.191c0 11.883-9.57 21.512-21.368 21.512-11.797 0-21.367-9.629-21.367-21.512 0-11.884 9.57-21.512 21.367-21.512 11.798 0 21.368 9.628 21.368 21.512Zm923.734-1.07c0 6.674-5.37 12.079-12 12.079-6.62 0-11.99-5.405-11.99-12.079 0-6.673 5.37-12.078 11.99-12.078 6.63 0 12 5.405 12 12.078Zm96.71-3.836c0 15.288-12.31 27.675-27.49 27.675-15.17 0-27.49-12.387-27.49-27.675s12.32-27.675 27.49-27.675c15.18 0 27.49 12.387 27.49 27.675Z" stroke="#fff"/><path opacity=".2" d="M1410.35 200.285c0 12.794-10.31 23.152-23 23.152s-22.99-10.358-22.99-23.152 10.3-23.152 22.99-23.152c12.69 0 23 10.358 23 23.152Z" stroke="#fff" stroke-width="2.5"/><path opacity=".2" d="M469.869 205.191c0 11.883-9.57 21.512-21.368 21.512-11.797 0-21.367-9.629-21.367-21.512 0-11.884 9.57-21.512 21.367-21.512 11.798 0 21.368 9.628 21.368 21.512Z" stroke="#fff"/><path opacity=".2" d="M467.432 205.19c0 10.535-8.482 19.063-18.931 19.063-10.449 0-18.93-8.528-18.93-19.063 0-10.534 8.481-19.062 18.93-19.062s18.931 8.528 18.931 19.062Zm-75.286 0c0 10.535-8.482 19.063-18.93 19.063-10.449 0-18.931-8.528-18.931-19.063 0-10.534 8.482-19.062 18.931-19.062 10.448 0 18.93 8.528 18.93 19.062Zm127.518.007H557.9" stroke="#fff" stroke-width="2"/><rect opacity=".2" x="362.22" y="202.798" width="21.992" height="4.786" rx="1.5" stroke="#fff"/><path opacity=".2" d="M451.375 207.584h-.5v7.795c0 .839-.674 1.513-1.499 1.513h-1.749c-.825 0-1.5-.674-1.5-1.513v-7.795h-7.122c-.825 0-1.5-.674-1.5-1.513v-1.761c0-.839.675-1.512 1.5-1.512h7.122v-6.538c0-.839.675-1.512 1.5-1.512h1.749c.341 0 .653.113.904.305h.001c.361.277.594.714.594 1.207v6.538h7.123c.825 0 1.499.673 1.499 1.512v1.761c0 .839-.674 1.513-1.499 1.513h-6.623Z" stroke="#fff"/><path opacity=".2" d="m1490.82 154.878-1-.062-.37-.022-.69-.042-.93-.057c.02-.326.07-.643.15-.949h1.84c.55 0 1 .45 1 1.006v.126Zm0 0 1.9-.06.1-.002 1-.032v-.032h-1.13l-1.86-.001m-.01.127c0-.043.01-.085.01-.127m0 0 1.82-.056.17-.005 1-.031v.032a4.05 4.05 0 0 0-.41-1.7h-.59c-.37 0-.71.099-1.01.273m-.98 1.487c.08-.635.45-1.178.98-1.487m0 0v.001-.001Zm262.54-.418-.27-5.544 3.02 2.836v67.087l-6.5 7.043a3.002 3.002 0 0 0-2.38 2.935v2.515c0 3.919-3.15 7.063-6.99 7.063h-240.42c-3.75 0-6.85-3.003-6.99-6.795a2.998 2.998 0 0 0-3-2.89h-.01a3.005 3.005 0 0 0-3 2.89c-.14 3.792-3.23 6.795-6.99 6.795H278.999c-3.184 0-5.898-2.158-6.733-5.134a3 3 0 0 0-5.777 0c-.835 2.977-3.547 5.134-6.733 5.134H19.342c-3.845 0-6.997-3.144-6.997-7.063v-4.953c0-.754-.284-1.481-.795-2.035l-5.216-5.652-3.214-26.98 3.232-26.885 5.383-7.092c.032-.042.064-.086.094-.13h255.439a3 3 0 0 0 3.181.755h46.425c.116 0 .231-.007.346-.02 17.85-2.068 27.085-9.865 34.123-15.807l.01-.009.001-.001c1.873-1.583 3.498-2.952 5.1-4.084l.002-.002c.939-.665 1.809-1.305 2.63-1.911 3.698-2.726 6.45-4.74 11.57-6.192 5.267-1.493 13.163-2.414 27.051-2.414h964.433c13.89 0 21.78.921 27.05 2.414 5.12 1.452 7.87 3.465 11.57 6.19.55.407 1.12.827 1.71 1.259l.02.009.89.637.01.011c.77.543 1.56 1.149 2.38 1.816v.001c.56.449 1.12.922 1.71 1.419l1.01.848v.002l.01.007c7.04 5.942 16.27 13.739 34.12 15.807.12.013.23.02.35.02h45.5a3.004 3.004 0 0 0 5.14-.755h257.74c.82 0 1.61-.336 2.17-.931.57-.594.87-1.394.83-2.214Z" stroke="#fff" stroke-width="6" stroke-linejoin="round"/><path opacity=".2" d="m383.623 147.205 1.61-2.895h13.054l1.15 2.895-1.15 2.894h-13.054l-1.61-2.894Zm0 12.578 1.61-2.895h13.054l1.15 2.895-1.15 2.895h-13.054l-1.61-2.895Zm36.487-12.578 1.611-2.895h13.053l1.15 2.895-1.15 2.894h-13.053l-1.611-2.894Zm0 12.578 1.611-2.895h13.053l1.15 2.895-1.15 2.895h-13.053l-1.611-2.895Zm36.487-12.578 1.61-2.895h13.054l1.15 2.895-1.15 2.894h-13.054l-1.61-2.894Zm0 12.578 1.61-2.895h13.054l1.15 2.895-1.15 2.895h-13.054l-1.61-2.895Zm-91.467-6.289 1.61-2.895h13.054l1.15 2.895-1.15 2.894H366.74l-1.61-2.894Zm36.862 0 1.61-2.895h13.054l1.15 2.895-1.15 2.894h-13.054l-1.61-2.894Zm36.861 0 1.611-2.895h13.053l1.151 2.895-1.151 2.894h-13.053l-1.611-2.894Zm36.862 0 1.611-2.895h13.053l1.15 2.895-1.15 2.894h-13.053l-1.611-2.894Z" stroke="#fff" stroke-width=".5"/><path opacity=".2" d="M1492.48 139.909c.4-1.71-.83-3.731-1.5-4.528l-3.75-3.27m5.25 7.798-2.13 13.585c.4-2.314-2.91-6.499-4.62-8.302l1.5-13.081m5.25 7.798c.21-1.132 1.02-4.578 2.12-6.792 1.38-2.767 2.25-4.276 2-9.056-.25-4.78.5-8.05 2.88-13.711 1.9-4.528 8.78-21.34 11.99-29.181-16.87 25.534-22.74 41.382-24.24 50.942m-2.87 2.39 2.87-12.579m-4.12 9.56 2.62-11.572m-3.87 8.302 2.5-11.321m-3.88 8.05 2.63-11.823m-3.63 7.672 3-11.697m-3 6.666 4.88-20.628" stroke="#fff"/><g opacity=".2"><path d="M233.456 163.31a2.5 2.5 0 0 0-2.164-1.248H5.176l-3.316 27 3.316 27h226.116a2.5 2.5 0 0 0 2.164-1.247l14.184-24.5a2.498 2.498 0 0 0 0-2.505l-14.184-24.5Z" stroke="#fff" stroke-width="3"/><path d="M239.897 155.316a5.5 5.5 0 0 0-4.766-2.754H10.596l-6.644 8.696-3.35 27.68 3.347 27.903 7.868 8.471H235.13a5.5 5.5 0 0 0 4.766-2.753l17.792-30.875c.98-1.7.98-3.793 0-5.493l-17.792-30.875Z" stroke="#fff"/><path d="M185.396 199v-16.393l-4.935 1.846v-3.131l6.699-2.447h1.928V199h-3.692Zm-19.55 0v-19.906h3.691v17.008h8.545V199h-12.236Z" fill="#fff"/></g><g opacity=".2"><path d="M1527.74 163.31a2.501 2.501 0 0 1 2.16-1.248h229.33v54H1529.9a2.5 2.5 0 0 1-2.16-1.247l-14.18-24.5a2.493 2.493 0 0 1 0-2.505l14.18-24.5Z" stroke="#fff" stroke-width="3"/><path d="M1751.97 152.562h.53l-.03-.524-.56-11.645 8.32 7.762v68.711l-7.85 8.446h-226.31a5.5 5.5 0 0 1-4.77-2.753l-17.79-30.875a5.499 5.499 0 0 1 0-5.493l17.79-30.875a5.5 5.5 0 0 1 4.77-2.754h225.9Z" stroke="#fff"/><path d="M1589.56 199v-16.393l-4.94 1.846v-3.131l6.7-2.447h1.93V199h-3.69Zm-21.71 0v-19.906h7.02c2.14 0 3.79.551 4.98 1.654 1.18 1.094 1.78 2.579 1.78 4.457 0 1.896-.6 3.413-1.81 4.553-1.2 1.13-2.86 1.695-4.97 1.695h-3.31V199h-3.69Zm3.69-10.24h3.02c1.25 0 2.12-.324 2.62-.971s.76-1.481.76-2.502c0-1.021-.26-1.846-.76-2.475-.5-.628-1.37-.943-2.62-.943h-3.02v6.891Zm6.92 10.24-4.52-9.078 3.68-.451 4.94 9.529h-4.1Z" fill="#fff"/></g><path d="M83.726 152.562h-58c-4.75 0-3-3.75-2.75-8.75s7.75-72.25 30.75-96.75 48.75-38.25 88-35.75 73.12 25.838 92.75 54.25c20.114 29.112 24.018 71.24 23.624 76.375-.395 5.134 1.126 10.625-2.874 10.625h-171.5Zm184.998 0-2.25-16.5c-1.417-2.334-4.3-8.1-4.5-12.5-.25-5.5-1-9-3.874-18.75s-16.126-49.75-54.876-76.75-84-29.75-114.75-16.75-54.495 39.002-62.748 66.25c-6.602 21.8-12.919 59.083-15.252 75h258.25Z" stroke="#fff" stroke-width="6"/><path d="M232.974 78.563c12.5 18.75 15.25 57.25 13 73.5H34.224c-4 0-3.5-1.751-3.25-5.501.25-3.75 9.5-47 16-65s21.25-40.5 48.5-52.5 60.75-8.5 85.75 3 39.25 27.75 51.75 46.5Z" stroke="#fff"/><path d="M175.512 120v-2.352l6.89-7.683c.766-.857 1.372-1.65 1.819-2.379.446-.738.67-1.504.67-2.297 0-.838-.242-1.508-.725-2.01-.474-.51-1.139-.765-1.996-.765-.866 0-1.577.287-2.133.861-.556.565-.834 1.454-.834 2.666v.355h-3.719v-.533c0-1.823.62-3.299 1.86-4.429 1.239-1.14 2.853-1.71 4.84-1.71 2.059 0 3.645.511 4.757 1.532 1.121 1.012 1.682 2.301 1.682 3.869 0 1.285-.324 2.434-.971 3.445-.647 1.012-1.476 2.069-2.488 3.172l-4.689 5.291h8.613V120h-13.576Zm-13.713 0v-19.906h3.691v17.008h8.545V120h-12.236Z" fill="#fff"/><path d="M1677.1 152.562h58c4.75 0 3-3.75 2.75-8.75s-7.75-72.25-30.75-96.75-48.75-38.25-88-35.75-73.12 25.838-92.75 54.25c-20.12 29.112-24.02 71.24-23.63 76.375.4 5.134-1.12 10.625 2.88 10.625h171.5Zm-185 0 2.25-16.5c1.42-2.334 4.3-8.1 4.5-12.5.25-5.5 1-9 3.87-18.75 2.88-9.75 16.13-49.75 54.88-76.75s84-29.75 114.75-16.75 54.49 39.002 62.75 66.25c6.45 21.298 12.62 57.374 15.08 73.867a.99.99 0 0 1-.99 1.133H1492.1Z" stroke="#fff" stroke-width="6"/><path d="M1527.85 78.563c-12.5 18.75-15.25 57.25-13 73.5h211.75c4 0 3.5-1.751 3.25-5.501-.25-3.75-9.5-47-16-65s-21.25-40.5-48.5-52.5-60.75-8.5-85.75 3-39.25 27.75-51.75 46.5Z" stroke="#fff"/><path d="M1583.72 120v-2.352l6.89-7.683c.77-.857 1.37-1.65 1.82-2.379.44-.738.67-1.504.67-2.297 0-.838-.24-1.508-.73-2.01-.47-.51-1.14-.765-1.99-.765-.87 0-1.58.287-2.14.861-.55.565-.83 1.454-.83 2.666v.355h-3.72v-.533c0-1.823.62-3.299 1.86-4.429 1.24-1.14 2.85-1.71 4.84-1.71 2.06 0 3.65.511 4.76 1.532 1.12 1.012 1.68 2.301 1.68 3.869 0 1.285-.32 2.434-.97 3.445-.65 1.012-1.48 2.069-2.49 3.172l-4.69 5.291h8.61V120h-13.57Zm-15.87 0v-19.906h7.02c2.14 0 3.79.551 4.98 1.654 1.18 1.094 1.78 2.579 1.78 4.457 0 1.896-.6 3.413-1.81 4.553-1.2 1.13-2.86 1.695-4.97 1.695h-3.31V120h-3.69Zm3.69-10.24h3.02c1.25 0 2.12-.324 2.62-.971s.76-1.481.76-2.502c0-1.021-.26-1.846-.76-2.475-.5-.628-1.37-.943-2.62-.943h-3.02v6.891Zm6.92 10.24-4.52-9.078 3.68-.451 4.94 9.529h-4.1Z" fill="#fff"/></svg>