<svg width="1761" height="773" fill="none" xmlns="http://www.w3.org/2000/svg"><rect opacity=".2" x="279.499" y="18.05" width="1199.83" height="739.041" rx="29.5" stroke="#fff"/><rect opacity=".2" x="327.652" y="42.692" width="1104.29" height="689.758" rx="11.5" stroke="#fff"/><rect opacity=".2" x="269.519" y="7.531" width="1220.6" height="760.08" rx="11.5" stroke="#fff"/><circle opacity=".2" cx="1455.12" cy="415.58" r="9.5" stroke="#fff"/><path opacity=".2" d="M1490.73 28.971c0-4.625 0-8.058.27-10.72.26-2.657.78-4.484 1.78-5.924 1.25-1.809 3-3.22 5.03-4.067 1.62-.673 3.51-.8 6.17-.5 2.66.3 6.01 1.018 10.54 1.988l94.72 20.31c27.39 5.871 47.9 10.269 64.02 15.16 16.12 4.888 27.81 10.258 37.59 18.056a106.569 106.569 0 0 1 28.9 35.751c5.57 11.191 8.37 23.755 9.77 40.538 1.4 16.791 1.4 37.765 1.4 65.772v356.053c0 44.325-.01 66.335-8.16 84.877a96.632 96.632 0 0 1-21.4 30.664c-14.59 14.05-35.25 21.653-76.85 36.945l-127.33 46.801c-4.94 1.816-8.62 3.165-11.54 3.912-2.91.747-5.01.872-6.82.309a11.47 11.47 0 0 1-5.71-3.987c-1.16-1.505-1.76-3.516-2.07-6.513-.31-2.999-.31-6.909-.31-12.174V28.972Z" stroke="#fff"/><path opacity=".2" d="M1501.68 755.753V15.73l112.07 25.138c24.8 5.565 43.38 9.732 57.98 14.304 14.6 4.57 25.18 9.536 34.02 16.677a97.588 97.588 0 0 1 26.12 32.63c5.03 10.185 7.56 21.601 8.83 36.841 1.26 15.248 1.26 34.285 1.26 59.708v356.495c0 42.941-.01 64.259-7.9 82.22a93.55 93.55 0 0 1-20.73 29.705c-14.13 13.613-34.13 20.984-74.43 35.812l-137.22 50.493Z" stroke="#fff"/><path opacity=".2" d="m1751.33 284.591 8.92-7.378v-70.664c0-59.477 0-89.215-11.96-113.102a112.974 112.974 0 0 0-30.91-38.007c-20.95-16.579-50.07-22.636-108.3-34.751l-93.72-19.5c-1.13-.235-2.19-.455-3.18-.658l-11 6.758c3.06-.055 7.14.818 13.35 2.15l94.73 20.31c54.75 11.739 82.12 17.609 101.81 33.314a107.106 107.106 0 0 1 29.03 35.919c11.23 22.538 11.23 50.536 11.23 106.532v79.077Zm.09 152.75v-152.75l8.75 8.5v134l-8.75 10.25Z" stroke="#fff"/><g opacity=".2" stroke="#fff"><circle cx="1571.6" cy="318.515" r="66.777"/><circle cx="1571.75" cy="318.29" r="50.417" stroke-width="3"/><circle cx="1571.76" cy="318.289" r="45.77"/></g><g opacity=".2" stroke="#fff"><rect x="1507.37" y="417.258" width="160.419" height="160.419" rx="2.5" stroke-width="3"/><rect x="1501.71" y="411.602" width="171.733" height="171.733" rx="7.5"/></g><path opacity=".2" d="m1583.75 62.3-12.78-3.326-19.3 19.225-19.3 19.226 3.28 12.792 12.78 3.327 38.6-38.452-3.28-12.792Z" stroke="#fff"/><g opacity=".2"><circle cx="1656.55" cy="120.658" r="26.076" stroke="#fff" stroke-width="3"/><circle cx="1605.94" cy="170.744" r="26.076" stroke="#fff" stroke-width="3"/><circle cx="1707.7" cy="171.671" r="26.076" stroke="#fff" stroke-width="3"/><circle cx="1656.55" cy="222.574" r="26.076" stroke="#fff" stroke-width="3"/><path d="m1595.3 184.037 8.7-14.625h.83l6.19-10.969h4.65l-8.15 13.993h-.79l-6.7 11.601h-4.73Zm.42-25.594 5.33.018 6.29 10.951h.05l8.74 14.625h-5.36l-6.73-11.584h-.06l-8.26-14.01Zm59.07-24.99v-9.65l-8.37-15.944h5.22l4.93 9.633c.15.317.29.615.42.897.13.269.25.556.37.861h.09c.11-.305.23-.592.35-.861.13-.282.27-.58.44-.897l4.94-9.633h4.71l-8.3 15.838v9.756h-4.8Zm45.31 51.584v-25.594h9.18c2.57 0 4.54.551 5.91 1.653 1.38 1.09 2.07 2.742 2.07 4.957 0 1.441-.32 2.631-.97 3.568-.63.938-1.44 1.576-2.42 1.916v.07c1.22.34 2.21 1.032 2.99 2.075.78 1.031 1.17 2.408 1.17 4.13 0 2.286-.75 4.061-2.25 5.327-1.48 1.265-3.49 1.898-6.03 1.898h-9.65Zm4.68-3.392h4.39c1.41 0 2.44-.37 3.1-1.108.67-.75 1-1.758 1-3.023 0-1.266-.33-2.274-1-3.024-.66-.75-1.69-1.125-3.1-1.125h-4.39v8.28Zm0-11.321h3.94c1.38 0 2.38-.328 2.99-.984.62-.656.93-1.582.93-2.778 0-1.183-.31-2.085-.93-2.707-.61-.621-1.61-.937-2.99-.949h-3.94v7.418Zm-59.51 64.615 8.82-25.664h5.17l8.82 25.664h-4.88l-6.07-18.58c-.14-.433-.26-.826-.35-1.177-.09-.364-.18-.715-.26-1.055h-.11c-.07.34-.16.691-.26 1.055-.1.351-.21.744-.34 1.177l-5.97 18.58h-4.57Zm4.58-5.906.95-3.428h11.52l.98 3.428h-13.45Z" fill="#fff"/></g><path opacity=".2" d="M269.519 29.02c0-4.626-.001-8.058-.265-10.72-.263-2.658-.785-4.484-1.782-5.924-1.254-1.81-3-3.221-5.032-4.067-1.617-.674-3.512-.8-6.165-.501-2.659.3-6.015 1.019-10.538 1.989l-94.728 20.31c-27.384 5.87-47.892 10.268-64.016 15.159-16.116 4.888-27.815 10.259-37.588 18.056a106.499 106.499 0 0 0-28.898 35.751c-5.576 11.191-8.375 23.755-9.776 40.539-1.401 16.79-1.402 37.765-1.402 65.771v356.053c0 44.325.01 66.335 8.165 84.878a96.504 96.504 0 0 0 21.398 30.663c14.591 14.051 35.247 21.653 76.851 36.945l127.333 46.801c4.942 1.817 8.612 3.165 11.533 3.912 2.918.747 5.014.873 6.826.309a11.5 11.5 0 0 0 5.712-3.986c1.154-1.506 1.759-3.517 2.065-6.513.306-3 .307-6.91.307-12.175V29.02Z" stroke="#fff"/><path opacity=".2" d="M258.577 755.801V15.778L146.505 40.917c-24.806 5.564-43.382 9.731-57.983 14.304-14.594 4.57-25.18 9.535-34.016 16.676a97.5 97.5 0 0 0-26.122 32.63c-5.034 10.185-7.561 21.601-8.827 36.842-1.266 15.248-1.266 34.285-1.266 59.708v356.495c0 42.941.01 64.258 7.906 82.219a93.492 93.492 0 0 0 20.722 29.705c14.13 13.613 34.132 20.984 74.432 35.812l137.226 50.493Z" stroke="#fff"/><g opacity=".2" stroke="#fff"><circle cx="67.277" cy="67.277" r="66.777" transform="matrix(-1 0 0 1 167.712 107.287)"/><circle cx="51.917" cy="51.917" r="50.417" transform="matrix(-1 0 0 1 152.194 122.422)" stroke-width="3"/><circle cx="46.27" cy="46.27" r="45.77" transform="matrix(-1 0 0 1 146.547 128.068)"/></g><path opacity=".2" d="m176.506 62.349 12.78-3.327 19.296 19.226 19.297 19.225-3.28 12.792-12.78 3.327-38.593-38.451 3.28-12.792Zm-29.379 425.016 6.706-11.377h54.478l6.706 11.377-6.706 11.376h-54.478l-6.706-11.376Zm0 84.49 6.706-11.377h54.478l6.706 11.377-6.706 11.376h-54.478l-6.706-11.376ZM9.84 146.654 1.5 136.646c1.497-17.828 4.488-31.219 10.464-43.151a113.001 113.001 0 0 1 30.913-38.006c20.95-16.58 50.064-22.637 108.294-34.752l93.72-19.499c1.131-.235 2.19-.456 3.185-.658l11.001 6.757c-3.065-.055-7.14.819-13.351 2.15l-94.728 20.31C96.246 41.537 68.87 47.406 49.187 63.111a106.999 106.999 0 0 0-29.034 35.92c-6.358 12.76-9.117 27.271-10.313 47.623Z" stroke="#fff"/><path d="M196.734 245.625c5.799 0 10.5 4.701 10.5 10.5v32.125a3.5 3.5 0 0 0 3.5 3.5h32.125c5.799 0 10.5 4.701 10.5 10.5v31.5c0 5.799-4.701 10.5-10.5 10.5h-32.125a3.5 3.5 0 0 0-3.5 3.5v32.125c0 5.799-4.701 10.5-10.5 10.5h-31.5c-5.799 0-10.5-4.701-10.5-10.5V347.75a3.5 3.5 0 0 0-3.5-3.5h-32.125c-5.799 0-10.5-4.701-10.5-10.5v-31.5c0-5.799 4.701-10.5 10.5-10.5h32.125a3.5 3.5 0 0 0 3.5-3.5v-32.125c0-5.799 4.701-10.5 10.5-10.5h31.5Z" stroke="#fff"/><path d="M197.484 252.605a3 3 0 0 1 3 3V289.5a9 9 0 0 0 9 9h33.895a3 3 0 0 1 3 3v33a3 3 0 0 1-3 3h-33.895a9 9 0 0 0-9 9v33.895a3 3 0 0 1-3 3h-33c-1.656 0-3-1.344-3-3V346.5a9 9 0 0 0-9-9H118.59a3 3 0 0 1-3-3v-33a3 3 0 0 1 3-3h33.894a9 9 0 0 0 9-9v-33.895c0-1.656 1.344-3 3-3h33Z" stroke="#fff" stroke-width="6"/><path opacity=".2" d="m266.366 16.334 5.901.014c.199-1.07.477-1.813.835-2.418a8.993 8.993 0 0 1 3.165-3.165l-1.523-2.575 1.523 2.575c.873-.516 2.034-.868 4.082-1.057 2.09-.193 4.789-.196 8.659-.196H1470.29c3.87 0 6.57.003 8.66.196 2.05.19 3.21.54 4.08 1.057 1.31.772 2.4 1.86 3.17 3.165.55.934.91 2.192 1.09 4.503l5.98.019c.24-2.78.71-4.224 1.4-5.22a8.975 8.975 0 0 1 3.93-3.182c1.05-.437 2.45-.604 4.93-.325 2.5.283 5.72.969 10.29 1.949l94.73 20.31c27.42 5.88 47.81 10.254 63.81 15.107 15.96 4.84 27.33 10.094 36.76 17.619a104.037 104.037 0 0 1 28.22 34.912c5.38 10.797 8.13 23.013 9.52 39.631 1.39 16.662 1.39 37.515 1.39 65.563v356.053c0 44.561-.06 65.926-7.95 83.871a93.893 93.893 0 0 1-20.84 29.869c-14.12 13.599-34.16 21.027-75.98 36.4l-127.34 46.801c-4.99 1.835-8.52 3.128-11.29 3.836-2.75.704-4.3.704-5.46.344a8.98 8.98 0 0 1-4.47-3.12c-.73-.948-1.26-2.383-1.55-5.137l-5.98.205c-.13 3.441-.5 5.068-1.19 6.235a8.958 8.958 0 0 1-3.17 3.165c-.87.516-2.03.868-4.08 1.057-2.09.193-4.79.196-8.66.196H289.008c-3.87 0-6.569-.003-8.659-.196-2.048-.189-3.209-.541-4.082-1.057a8.993 8.993 0 0 1-3.165-3.165c-.484-.817-.824-1.89-1.02-3.708l-5.908-.342c-.299 1.316-.699 2.164-1.182 2.794a9.001 9.001 0 0 1-4.47 3.12c-1.157.36-2.713.36-5.464-.344-2.768-.708-6.297-2.001-11.29-3.836l-127.333-46.801c-41.825-15.374-61.857-22.802-75.978-36.4a94 94 0 0 1-20.845-29.869c-7.891-17.945-7.953-39.31-7.953-83.871V204.863c0-28.048.003-48.901 1.393-65.564 1.388-16.618 4.142-28.833 9.522-39.63a103.999 103.999 0 0 1 28.22-34.912c9.43-7.525 20.797-12.779 36.755-17.619 16.001-4.853 36.39-9.227 63.814-15.107l94.728-20.31c4.573-.98 7.787-1.666 10.294-1.949 2.474-.28 3.875-.112 4.924.325a8.994 8.994 0 0 1 3.937 3.182c.48.693.858 1.61 1.12 3.055Z" stroke="#fff" stroke-width="6"/></svg>