<svg width="1761" height="291" viewBox="0 0 1761 291" fill="none" xmlns="http://www.w3.org/2000/svg">
<path opacity="0.2" d="M1487.35 121.797L1490.85 118.652L1488.85 116.891L1490.85 113.747L1487.35 112.615L1490.85 110.35L1486.73 108.715L1489.85 106.577L1485.98 104.061L1489.85 102.804L1486.73 100.036L1489.85 99.03L1487.35 96.3886L1490.85 95.7597L1488.85 92.112H1492.48L1490.85 88.7159H1494.73L1493.85 85.194L1497.73 85.9487L1496.73 82.6783L1500.73 83.3072V79.9111L1504.1 81.1689V77.5212L1507.97 79.1564L1508.97 76.2634L1511.22 77.5212L1512.6 73.8735" stroke="white"/>
<path opacity="0.2" d="M1403.94 134.143L1403.94 134.145L1407.34 136.7C1408.24 137.425 1409.15 138.196 1410.1 139L1410.43 138.618L1410.1 139L1410.11 139.004C1417.05 144.863 1425.81 152.262 1442.91 154.242L1442.94 154.246H1442.97H1489.82C1490.09 154.246 1490.32 154.469 1490.32 154.746V229.718C1490.32 235.002 1486.06 239.281 1480.82 239.281H278.998C273.757 239.281 269.502 235.002 269.502 229.718V154.746C269.502 154.469 269.726 154.246 270.002 154.246H316.874H316.902L316.931 154.242C334.032 152.262 342.796 144.863 349.735 139.004L349.739 139L349.739 139C351.594 137.433 353.304 135.989 355.01 134.783L355.01 134.783C355.928 134.133 356.78 133.506 357.6 132.9C361.335 130.148 364.392 127.898 369.974 126.315C375.58 124.726 383.754 123.806 397.706 123.806H1362.14C1376.09 123.806 1384.26 124.726 1389.87 126.315C1395.45 127.898 1398.51 130.148 1402.24 132.9C1402.79 133.305 1403.35 133.719 1403.94 134.143Z" stroke="white"/>
<line opacity="0.2" x1="269.002" y1="228.967" x2="1490.82" y2="228.967" stroke="white"/>
<path opacity="0.2" d="M1491.32 154.991C1491.32 154.162 1491.99 153.491 1492.82 153.491H1750.72V229.781C1750.72 235.027 1746.47 239.281 1741.22 239.281H1500.82C1495.57 239.281 1491.32 235.027 1491.32 229.781V154.991Z" stroke="white"/>
<path opacity="0.2" d="M269.252 154.991C269.252 154.162 268.58 153.491 267.752 153.491H9.84473V229.781C9.84473 235.027 14.098 239.281 19.3447 239.281H259.752C264.999 239.281 269.252 235.027 269.252 229.781V154.991Z" stroke="white"/>
<path opacity="0.2" d="M1535.05 242.491C1534.05 242.491 1533.21 241.748 1533.07 240.781H1586.01C1585.87 241.748 1585.04 242.491 1584.03 242.491H1535.05Z" stroke="white" stroke-width="2"/>
<rect opacity="0.2" x="1684.06" y="239.837" width="50.4813" height="5.73563" stroke="white" stroke-width="2"/>
<rect opacity="0.2" x="1631.33" y="239.837" width="51.7309" height="5.73563" stroke="white" stroke-width="2"/>
<rect opacity="0.2" x="1579.79" y="239.837" width="50.4813" height="5.73563" stroke="white" stroke-width="2"/>
<path opacity="0.2" d="M1734.19 247.573C1714.9 250.614 1703.69 250.603 1684.41 247.573H1734.19Z" stroke="white" stroke-width="2"/>
<path opacity="0.2" d="M1682.68 247.573C1662.93 250.614 1651.45 250.603 1631.71 247.573H1682.68Z" stroke="white" stroke-width="2"/>
<path opacity="0.2" d="M1629.92 247.573C1610.63 250.614 1599.42 250.603 1580.14 247.573H1629.92Z" stroke="white" stroke-width="2"/>
<path opacity="0.2" d="M1513.88 241.078C1516.39 242.575 1518.3 244.656 1520.13 247.711H1586.03V239.837H1511.35C1512.25 240.2 1513.09 240.608 1513.88 241.078Z" stroke="white" stroke-width="2"/>
<path opacity="0.2" d="M150.708 244.081C149.979 245.106 149.135 246.289 147.854 247.711H45.1742C43.7274 245.115 42.2557 243.154 40.196 241.609C39.3036 240.939 38.3145 240.358 37.1901 239.837H155.332C154.464 240.22 153.766 240.659 153.159 241.174C152.2 241.987 151.506 242.961 150.748 244.025L150.708 244.081Z" stroke="white" stroke-width="2"/>
<path opacity="0.2" d="M1532.86 289.779C1527.87 289.779 1524.8 283.471 1524.8 280.534C1524.8 277.641 1524.87 275.314 1529.68 272.799C1534.49 270.283 1538.18 269.088 1546.36 269.088C1549.99 269.088 1553 269.187 1556.35 269.297C1560.37 269.429 1564.88 269.576 1571.52 269.59C1578.16 269.576 1582.67 269.429 1586.69 269.297C1590.04 269.187 1593.06 269.088 1596.68 269.088C1604.87 269.088 1608.55 270.283 1613.36 272.799C1618.17 275.314 1618.24 277.641 1618.24 280.534C1618.24 283.471 1615.17 289.779 1610.18 289.779H1532.86Z" stroke="white" stroke-width="2"/>
<path opacity="0.2" d="M58.4073 289.779C53.4091 289.779 50.3477 283.471 50.3477 280.534C50.3476 277.641 50.4102 275.314 55.221 272.799C60.0318 270.283 63.718 269.088 71.9026 269.088C75.5288 269.088 78.5418 269.187 81.8979 269.297C85.9149 269.429 90.4234 269.576 97.0634 269.59C103.703 269.576 108.212 269.429 112.229 269.297C115.585 269.187 118.598 269.088 122.224 269.088C130.409 269.088 134.095 270.283 138.906 272.799C143.717 275.314 143.779 277.641 143.779 280.534C143.779 283.471 140.718 289.779 135.72 289.779H58.4073Z" stroke="white" stroke-width="2"/>
<rect opacity="0.2" x="1557.67" y="249.711" width="27.7394" height="19.2572" stroke="white" stroke-width="2"/>
<rect opacity="0.2" x="-1" y="1" width="27.7394" height="20.2635" transform="matrix(-1 0 0 1 109.934 247.705)" stroke="white" stroke-width="2"/>
<path opacity="0.2" d="M640.869 196.248C640.869 195.419 641.541 194.748 642.369 194.748H706.845C707.673 194.748 708.345 195.419 708.345 196.248V201.807C708.345 202.635 707.673 203.307 706.845 203.307H642.369C641.541 203.307 640.869 202.635 640.869 201.807V196.248Z" stroke="white"/>
<path opacity="0.2" d="M511.416 203.248C511.416 198.829 514.998 195.248 519.416 195.248H557.396C561.814 195.248 565.396 198.829 565.396 203.248V207.763C565.396 212.181 561.814 215.763 557.396 215.763H519.416C514.998 215.763 511.416 212.181 511.416 207.763V203.248Z" stroke="white" stroke-width="2"/>
<path opacity="0.2" d="M156.543 239.837H202.401V244.095C202.401 246.856 200.162 249.095 197.401 249.095H161.543C158.782 249.095 156.543 246.856 156.543 244.095V239.837Z" stroke="white" stroke-width="2"/>
<path opacity="0.2" d="M177.41 242.051C176.361 242.051 175.5 241.243 175.417 240.215H227.384C227.301 241.243 226.44 242.051 225.391 242.051H177.41Z" stroke="white" stroke-width="2"/>
<path opacity="0.2" d="M196.027 239.837H248.008V243.661C248.008 246.56 245.551 248.851 242.659 248.649L197.888 245.519C196.84 245.446 196.027 244.574 196.027 243.524V239.837Z" stroke="white" stroke-width="2"/>
<path opacity="0.2" d="M394.395 205.191C394.395 217.074 384.825 226.703 373.027 226.703C361.23 226.703 351.66 217.074 351.66 205.191C351.66 193.307 361.23 183.679 373.027 183.679C384.825 183.679 394.395 193.307 394.395 205.191Z" stroke="white"/>
<path opacity="0.2" d="M1318.13 204.121C1318.13 210.795 1312.75 216.2 1306.13 216.2C1299.51 216.2 1294.14 210.795 1294.14 204.121C1294.14 197.448 1299.51 192.043 1306.13 192.043C1312.75 192.043 1318.13 197.448 1318.13 204.121Z" stroke="white"/>
<path opacity="0.2" d="M1414.84 200.285C1414.84 215.573 1402.53 227.96 1387.35 227.96C1372.17 227.96 1359.86 215.573 1359.86 200.285C1359.86 184.997 1372.17 172.61 1387.35 172.61C1402.53 172.61 1414.84 184.997 1414.84 200.285Z" stroke="white"/>
<path opacity="0.2" d="M1410.34 200.285C1410.34 213.079 1400.04 223.437 1387.35 223.437C1374.66 223.437 1364.36 213.079 1364.36 200.285C1364.36 187.491 1374.66 177.133 1387.35 177.133C1400.04 177.133 1410.34 187.491 1410.34 200.285Z" stroke="white" stroke-width="2.5"/>
<path opacity="0.2" d="M469.867 205.191C469.867 217.074 460.298 226.703 448.5 226.703C436.702 226.703 427.133 217.074 427.133 205.191C427.133 193.307 436.702 183.679 448.5 183.679C460.298 183.679 469.867 193.307 469.867 205.191Z" stroke="white"/>
<path opacity="0.2" d="M467.431 205.19C467.431 215.725 458.949 224.253 448.501 224.253C438.052 224.253 429.57 215.725 429.57 205.19C429.57 194.656 438.052 186.128 448.501 186.128C458.949 186.128 467.431 194.656 467.431 205.19Z" stroke="white" stroke-width="2"/>
<path opacity="0.2" d="M392.146 205.19C392.146 215.725 383.664 224.253 373.216 224.253C362.767 224.253 354.285 215.725 354.285 205.19C354.285 194.656 362.767 186.128 373.216 186.128C383.664 186.128 392.146 194.656 392.146 205.19Z" stroke="white" stroke-width="2"/>
<line opacity="0.2" x1="519.662" y1="205.197" x2="557.898" y2="205.197" stroke="white" stroke-width="2"/>
<rect opacity="0.2" x="362.219" y="202.798" width="21.9918" height="4.786" rx="1.5" stroke="white"/>
<path opacity="0.2" d="M451.374 207.584H450.874V208.084V215.379C450.874 216.218 450.2 216.892 449.374 216.892H447.625C446.8 216.892 446.126 216.218 446.126 215.379V208.084V207.584H445.626H439.003C438.178 207.584 437.504 206.91 437.504 206.071V204.31C437.504 203.471 438.178 202.798 439.003 202.798H445.626H446.126V202.298V196.26C446.126 195.421 446.8 194.748 447.625 194.748H449.374C449.715 194.748 450.028 194.861 450.279 195.053L450.279 195.053C450.641 195.33 450.874 195.767 450.874 196.26V202.298V202.798H451.374H457.996C458.821 202.798 459.496 203.471 459.496 204.31V206.071C459.496 206.91 458.821 207.584 457.996 207.584H451.374Z" stroke="white"/>
<path opacity="0.2" d="M1490.82 154.878L1489.82 154.816L1489.45 154.794L1488.76 154.752L1487.83 154.695C1487.85 154.369 1487.9 154.052 1487.98 153.746H1489.82C1490.37 153.746 1490.82 154.196 1490.82 154.752L1490.82 154.878ZM1490.82 154.878L1492.72 154.818L1492.82 154.816L1493.82 154.784L1493.82 154.752H1492.82H1492.68L1490.83 154.751M1490.82 154.878C1490.82 154.835 1490.83 154.793 1490.83 154.751M1490.83 154.751L1492.65 154.695L1492.82 154.69L1493.82 154.659L1493.82 154.691C1493.81 154.084 1493.66 153.507 1493.41 152.991H1492.82C1492.45 152.991 1492.11 153.09 1491.81 153.264M1490.83 154.751C1490.91 154.116 1491.28 153.573 1491.81 153.264M1491.81 153.264L1491.81 153.265L1491.81 153.264ZM1754.35 152.846L1754.08 147.302L1757.1 150.138V217.225L1750.6 224.268C1749.24 224.555 1748.22 225.76 1748.22 227.203V229.718C1748.22 233.637 1745.07 236.781 1741.23 236.781H1500.81C1497.06 236.781 1493.96 233.778 1493.82 229.986C1493.76 228.373 1492.44 227.096 1490.82 227.096H1490.81C1489.2 227.096 1487.87 228.373 1487.81 229.986C1487.67 233.778 1484.58 236.781 1480.82 236.781H278.998C275.814 236.781 273.1 234.623 272.265 231.647C271.902 230.352 270.722 229.457 269.377 229.457C268.032 229.457 266.851 230.352 266.488 231.647C265.653 234.624 262.941 236.781 259.755 236.781H19.3408C15.4958 236.781 12.3444 233.637 12.3444 229.718V224.765C12.3444 224.011 12.0605 223.284 11.5491 222.73L6.33344 217.078L3.11906 190.098L6.35096 163.213L11.7339 156.121C11.7664 156.079 11.7977 156.035 11.8277 155.991H267.267C267.687 156.431 268.234 156.737 268.839 156.86C269.38 156.97 269.936 156.928 270.448 156.746H316.874C316.989 156.746 317.104 156.739 317.219 156.726C335.069 154.658 344.304 146.861 351.342 140.919L351.352 140.91L351.353 140.909C353.226 139.326 354.851 137.957 356.453 136.825L356.456 136.823C357.394 136.158 358.264 135.518 359.085 134.912C362.784 132.186 365.535 130.172 370.655 128.72C375.922 127.227 383.818 126.306 397.706 126.306H1362.14C1376.02 126.306 1383.92 127.227 1389.19 128.72C1394.31 130.172 1397.06 132.185 1400.76 134.91C1401.3 135.317 1401.88 135.737 1402.47 136.169L1402.48 136.178L1403.38 136.815L1403.39 136.826C1404.16 137.369 1404.94 137.975 1405.77 138.642L1405.77 138.643C1406.32 139.092 1406.89 139.565 1407.48 140.062L1408.49 140.91L1408.49 140.912L1408.5 140.919C1415.54 146.861 1424.77 154.658 1442.62 156.726C1442.74 156.739 1442.85 156.746 1442.97 156.746H1488.47C1489.01 157.425 1489.84 157.863 1490.78 157.877C1492.05 157.896 1493.16 157.116 1493.61 155.991H1751.35C1752.17 155.991 1752.95 155.655 1753.52 155.06C1754.09 154.466 1754.38 153.666 1754.35 152.846Z" stroke="white" stroke-width="6" stroke-linejoin="round"/>
<path opacity="0.2" d="M383.622 147.205L385.232 144.31H398.286L399.436 147.205L398.286 150.099H385.232L383.622 147.205Z" stroke="white" stroke-width="0.5"/>
<path opacity="0.2" d="M383.622 159.783L385.232 156.888H398.286L399.436 159.783L398.286 162.678H385.232L383.622 159.783Z" stroke="white" stroke-width="0.5"/>
<path opacity="0.2" d="M420.108 147.205L421.719 144.31H434.772L435.922 147.205L434.772 150.099H421.719L420.108 147.205Z" stroke="white" stroke-width="0.5"/>
<path opacity="0.2" d="M420.108 159.783L421.719 156.888H434.772L435.922 159.783L434.772 162.678H421.719L420.108 159.783Z" stroke="white" stroke-width="0.5"/>
<path opacity="0.2" d="M456.597 147.205L458.207 144.31H471.26L472.411 147.205L471.26 150.099H458.207L456.597 147.205Z" stroke="white" stroke-width="0.5"/>
<path opacity="0.2" d="M456.597 159.783L458.207 156.888H471.26L472.411 159.783L471.26 162.678H458.207L456.597 159.783Z" stroke="white" stroke-width="0.5"/>
<path opacity="0.2" d="M365.128 153.494L366.738 150.599H379.792L380.942 153.494L379.792 156.388H366.738L365.128 153.494Z" stroke="white" stroke-width="0.5"/>
<path opacity="0.2" d="M401.991 153.494L403.601 150.599H416.655L417.805 153.494L416.655 156.388H403.601L401.991 153.494Z" stroke="white" stroke-width="0.5"/>
<path opacity="0.2" d="M438.852 153.494L440.463 150.599H453.516L454.667 153.494L453.516 156.388H440.463L438.852 153.494Z" stroke="white" stroke-width="0.5"/>
<path opacity="0.2" d="M475.714 153.494L477.324 150.599H490.378L491.528 153.494L490.378 156.388H477.324L475.714 153.494Z" stroke="white" stroke-width="0.5"/>
<path opacity="0.2" d="M1492.48 139.909C1492.88 138.199 1491.64 136.178 1490.98 135.381L1487.23 132.111M1492.48 139.909L1490.35 153.494C1490.75 151.18 1487.44 146.995 1485.73 145.192L1487.23 132.111M1492.48 139.909C1492.69 138.777 1493.5 135.331 1494.6 133.117C1495.98 130.35 1496.85 128.841 1496.6 124.061C1496.35 119.281 1497.1 116.011 1499.48 110.35C1501.37 105.822 1508.26 89.0094 1511.47 81.1689C1494.6 106.703 1488.73 122.551 1487.23 132.111M1484.36 134.501L1487.23 121.922M1483.11 131.482L1485.73 119.91M1481.86 128.212L1484.36 116.891M1480.48 124.941L1483.11 113.118M1479.48 120.79L1482.48 109.093M1479.48 115.759L1484.36 95.1308" stroke="white"/>
<g opacity="0.2">
<path d="M233.455 163.31C233.008 162.538 232.184 162.062 231.291 162.062H5.17471L1.85893 189.062L5.17471 216.062H231.291C232.184 216.062 233.008 215.587 233.455 214.815L247.639 190.315C248.088 189.54 248.088 188.585 247.639 187.81L233.455 163.31Z" stroke="white" stroke-width="3"/>
<path d="M239.896 155.316C238.914 153.612 237.097 152.562 235.13 152.562H10.5949L3.95071 161.258L0.601257 188.938L3.94777 216.841L11.8157 225.312H235.13C237.097 225.312 238.914 224.263 239.896 222.559L257.688 191.684C258.668 189.984 258.668 187.891 257.688 186.191L239.896 155.316Z" stroke="white"/>
<path d="M185.395 199V182.607L180.459 184.453V181.322L187.158 178.875H189.086V199H185.395Z" fill="white"/>
<path d="M165.844 199V179.094H169.535V196.102H178.08V199H165.844Z" fill="white"/>
</g>
<g opacity="0.2">
<path d="M1527.74 163.31C1528.19 162.538 1529.01 162.062 1529.9 162.062H1759.22V216.062H1529.9C1529.01 216.062 1528.19 215.587 1527.74 214.815L1513.56 190.315C1513.11 189.54 1513.11 188.585 1513.56 187.81L1527.74 163.31Z" stroke="white" stroke-width="3"/>
<path d="M1751.97 152.562H1752.5L1752.47 152.038L1751.91 140.393L1760.22 148.155V152.062V216.866L1752.38 225.312H1526.07C1524.1 225.312 1522.28 224.263 1521.3 222.559L1503.51 191.684C1502.53 189.984 1502.53 187.891 1503.51 186.191L1521.3 155.316C1522.28 153.612 1524.1 152.562 1526.06 152.562H1751.97Z" stroke="white"/>
<path d="M1589.55 199V182.607L1584.62 184.453V181.322L1591.32 178.875H1593.25V199H1589.55Z" fill="white"/>
<path d="M1567.84 199V179.094H1574.87C1577 179.094 1578.66 179.645 1579.85 180.748C1581.03 181.842 1581.62 183.327 1581.62 185.205C1581.62 187.101 1581.02 188.618 1579.82 189.758C1578.62 190.888 1576.96 191.453 1574.84 191.453H1571.54V199H1567.84ZM1571.54 188.76H1574.56C1575.81 188.76 1576.68 188.436 1577.18 187.789C1577.68 187.142 1577.93 186.308 1577.93 185.287C1577.93 184.266 1577.68 183.441 1577.18 182.812C1576.68 182.184 1575.81 181.869 1574.56 181.869H1571.54V188.76ZM1578.45 199L1573.94 189.922L1577.62 189.471L1582.55 199H1578.45Z" fill="white"/>
</g>
<path d="M83.7252 152.562C55.7252 152.562 30.4752 152.562 25.7252 152.562C20.9752 152.562 22.7252 148.812 22.9752 143.812C23.2252 138.812 30.7252 71.5615 53.7252 47.0615C76.7252 22.5615 102.475 8.81153 141.725 11.3115C180.975 13.8115 214.845 37.1496 234.475 65.5615C254.589 94.6741 258.493 136.802 258.099 141.937C257.704 147.071 259.225 152.562 255.225 152.562C252.025 152.562 139.558 152.562 83.7252 152.562ZM268.723 152.562L266.473 136.062C265.056 133.728 262.173 127.962 261.973 123.562C261.723 118.062 260.973 114.562 258.099 104.812C255.225 95.0615 241.973 55.0615 203.223 28.0615C164.473 1.06153 119.223 -1.68847 88.4727 11.3115C57.7227 24.3115 33.9777 50.3135 25.7252 77.5625C19.1232 99.3617 12.806 136.645 10.4727 152.562H268.723Z" stroke="white" stroke-width="6"/>
<path d="M232.973 78.5626C245.473 97.3126 248.223 135.813 245.973 152.063H34.2227C30.2227 152.063 30.7227 150.312 30.9727 146.562C31.2227 142.812 40.4727 99.5625 46.9727 81.5625C53.4727 63.5625 68.2227 41.0626 95.4727 29.0626C122.723 17.0626 156.223 20.5626 181.223 32.0626C206.223 43.5626 220.473 59.8126 232.973 78.5626Z" stroke="white"/>
<path d="M175.51 120V117.648L182.4 109.965C183.166 109.108 183.772 108.315 184.219 107.586C184.665 106.848 184.889 106.082 184.889 105.289C184.889 104.451 184.647 103.781 184.164 103.279C183.69 102.769 183.025 102.514 182.168 102.514C181.302 102.514 180.591 102.801 180.035 103.375C179.479 103.94 179.201 104.829 179.201 106.041V106.396H175.482V105.863C175.482 104.04 176.102 102.564 177.342 101.434C178.581 100.294 180.195 99.7246 182.182 99.7246C184.242 99.7246 185.827 100.235 186.939 101.256C188.061 102.268 188.621 103.557 188.621 105.125C188.621 106.41 188.298 107.559 187.65 108.57C187.003 109.582 186.174 110.639 185.162 111.742L180.473 117.033H189.086V120H175.51Z" fill="white"/>
<path d="M161.797 120V100.094H165.488V117.102H174.033V120H161.797Z" fill="white"/>
<path d="M1677.1 152.562C1705.1 152.562 1730.35 152.562 1735.1 152.562C1739.85 152.562 1738.1 148.812 1737.85 143.812C1737.6 138.812 1730.1 71.5615 1707.1 47.0615C1684.1 22.5615 1658.35 8.81153 1619.1 11.3115C1579.85 13.8115 1545.97 37.1496 1526.35 65.5615C1506.23 94.6741 1502.33 136.802 1502.72 141.937C1503.12 147.071 1501.6 152.562 1505.6 152.562C1508.8 152.562 1621.26 152.562 1677.1 152.562ZM1492.1 152.562L1494.35 136.062C1495.76 133.728 1498.65 127.962 1498.85 123.562C1499.1 118.062 1499.85 114.562 1502.72 104.812C1505.6 95.0615 1518.85 55.0615 1557.6 28.0615C1596.35 1.06153 1641.6 -1.68847 1672.35 11.3115C1703.1 24.3115 1726.84 50.3135 1735.1 77.5625C1741.55 98.8598 1747.72 134.936 1750.18 151.429C1750.27 152.032 1749.8 152.562 1749.19 152.562H1492.1Z" stroke="white" stroke-width="6"/>
<path d="M1527.85 78.5626C1515.35 97.3126 1512.6 135.813 1514.85 152.063H1726.6C1730.6 152.063 1730.1 150.312 1729.85 146.562C1729.6 142.812 1720.35 99.5625 1713.85 81.5625C1707.35 63.5625 1692.6 41.0626 1665.35 29.0626C1638.1 17.0626 1604.6 20.5626 1579.6 32.0626C1554.6 43.5626 1540.35 59.8126 1527.85 78.5626Z" stroke="white"/>
<path d="M1583.72 120V117.648L1590.61 109.965C1591.37 109.108 1591.98 108.315 1592.43 107.586C1592.87 106.848 1593.1 106.082 1593.1 105.289C1593.1 104.451 1592.85 103.781 1592.37 103.279C1591.9 102.769 1591.23 102.514 1590.38 102.514C1589.51 102.514 1588.8 102.801 1588.24 103.375C1587.69 103.94 1587.41 104.829 1587.41 106.041V106.396H1583.69V105.863C1583.69 104.04 1584.31 102.564 1585.55 101.434C1586.79 100.294 1588.4 99.7246 1590.39 99.7246C1592.45 99.7246 1594.03 100.235 1595.15 101.256C1596.27 102.268 1596.83 103.557 1596.83 105.125C1596.83 106.41 1596.5 107.559 1595.86 108.57C1595.21 109.582 1594.38 110.639 1593.37 111.742L1588.68 117.033H1597.29V120H1583.72Z" fill="white"/>
<path d="M1567.84 120V100.094H1574.87C1577 100.094 1578.66 100.645 1579.85 101.748C1581.03 102.842 1581.62 104.327 1581.62 106.205C1581.62 108.101 1581.02 109.618 1579.82 110.758C1578.62 111.888 1576.96 112.453 1574.84 112.453H1571.54V120H1567.84ZM1571.54 109.76H1574.56C1575.81 109.76 1576.68 109.436 1577.18 108.789C1577.68 108.142 1577.93 107.308 1577.93 106.287C1577.93 105.266 1577.68 104.441 1577.18 103.812C1576.68 103.184 1575.81 102.869 1574.56 102.869H1571.54V109.76ZM1578.45 120L1573.94 110.922L1577.62 110.471L1582.55 120H1578.45Z" fill="white"/>
</svg>
