<svg width="1761" height="773" fill="none" xmlns="http://www.w3.org/2000/svg"><rect x="269.519" y="8" width="1220.6" height="760.08" rx="11.5" stroke="#fff"/><path d="M1490.73 29.44c0-4.626 0-8.058.27-10.72.26-2.657.78-4.484 1.78-5.924 1.25-1.81 3-3.22 5.03-4.067 1.62-.674 3.51-.8 6.17-.5 2.66.3 6.01 1.018 10.54 1.988l94.72 20.31c27.39 5.871 47.9 10.269 64.02 15.16 16.12 4.887 27.81 10.258 37.59 18.056a106.569 106.569 0 0 1 28.9 35.75c5.57 11.191 8.37 23.756 9.77 40.539 1.4 16.791 1.4 37.765 1.4 65.772v356.052c0 44.326-.01 66.336-8.16 84.878a96.628 96.628 0 0 1-21.4 30.663c-14.59 14.051-35.25 21.654-76.85 36.946l-127.33 46.801c-4.94 1.816-8.62 3.164-11.54 3.912-2.91.746-5.01.872-6.82.309a11.47 11.47 0 0 1-5.71-3.987c-1.16-1.506-1.76-3.517-2.07-6.513-.31-2.999-.31-6.91-.31-12.174V29.44Z" stroke="#fff"/><path d="m1751.33 285.06 8.92-7.378v-70.664c0-59.477 0-89.215-11.96-113.103a112.976 112.976 0 0 0-30.91-38.006c-20.95-16.579-50.07-22.636-108.3-34.751l-93.72-19.5c-1.13-.235-2.19-.455-3.18-.658l-11 6.757c3.06-.055 7.14.819 13.35 2.15l94.73 20.31c54.75 11.74 82.12 17.61 101.81 33.315a107.107 107.107 0 0 1 29.03 35.919c11.23 22.538 11.23 50.536 11.23 106.532v79.077Zm.09 152.75V285.06l8.75 8.5v134l-8.75 10.25ZM269.519 29.488c0-4.625-.001-8.057-.265-10.72-.263-2.657-.785-4.483-1.782-5.924-1.254-1.809-3-3.22-5.032-4.066-1.617-.674-3.512-.8-6.165-.501-2.659.3-6.015 1.019-10.538 1.988l-94.728 20.31c-27.384 5.872-47.892 10.269-64.016 15.16-16.116 4.888-27.815 10.258-37.588 18.056a106.5 106.5 0 0 0-28.898 35.751c-5.576 11.191-8.375 23.755-9.776 40.538-1.401 16.791-1.402 37.765-1.402 65.772v356.053c0 44.325.01 66.335 8.165 84.878a96.504 96.504 0 0 0 21.398 30.663c14.591 14.051 35.247 21.653 76.851 36.945l127.333 46.801c4.942 1.816 8.612 3.165 11.533 3.912 2.918.747 5.014.872 6.826.309a11.5 11.5 0 0 0 5.712-3.986c1.154-1.506 1.759-3.517 2.065-6.514.306-2.999.307-6.909.307-12.174V29.489Z" stroke="#fff"/><path d="M9.84 147.123 1.5 137.115c1.497-17.828 4.488-31.22 10.464-43.151a113 113 0 0 1 30.913-38.006C63.827 39.378 92.94 33.32 151.17 21.206l93.72-19.5c1.131-.234 2.19-.455 3.185-.658l11.001 6.758c-3.065-.055-7.14.818-13.351 2.15l-94.728 20.31C96.246 42.006 68.87 47.875 49.187 63.58a106.999 106.999 0 0 0-29.034 35.919c-6.358 12.761-9.117 27.272-10.313 47.624Z" stroke="#fff"/><path d="m266.366 16.803 5.901.013c.199-1.07.477-1.812.835-2.417a8.992 8.992 0 0 1 3.165-3.165l-1.523-2.575 1.523 2.575c.873-.516 2.034-.868 4.082-1.057 2.09-.194 4.789-.197 8.659-.197H1470.29c3.87 0 6.57.003 8.66.197 2.05.189 3.21.54 4.08 1.057a8.95 8.95 0 0 1 3.17 3.165c.55.933.91 2.192 1.09 4.503l5.98.019c.24-2.78.71-4.225 1.4-5.22a8.974 8.974 0 0 1 3.93-3.183c1.05-.436 2.45-.603 4.93-.324 2.5.283 5.72.968 10.29 1.949l94.73 20.31c27.42 5.88 47.81 10.254 63.81 15.107 15.96 4.84 27.33 10.094 36.76 17.618a104.039 104.039 0 0 1 28.22 34.912c5.38 10.798 8.13 23.013 9.52 39.631 1.39 16.663 1.39 37.516 1.39 65.564v356.053c0 44.561-.06 65.926-7.95 83.871a93.904 93.904 0 0 1-20.84 29.869c-14.12 13.598-34.16 21.026-75.98 36.399l-127.34 46.802c-4.99 1.835-8.52 3.128-11.29 3.836-2.75.704-4.3.704-5.46.344a8.98 8.98 0 0 1-4.47-3.12c-.73-.948-1.26-2.383-1.55-5.137l-5.98.204c-.13 3.442-.5 5.069-1.19 6.235a8.96 8.96 0 0 1-3.17 3.166c-.87.516-2.03.868-4.08 1.057-2.09.193-4.79.196-8.66.196H289.008c-3.87 0-6.569-.003-8.659-.196-2.048-.189-3.209-.541-4.082-1.057a8.996 8.996 0 0 1-3.165-3.166c-.484-.817-.824-1.889-1.02-3.707l-5.908-.342c-.299 1.315-.699 2.164-1.182 2.794a9.001 9.001 0 0 1-4.47 3.12c-1.157.359-2.713.36-5.464-.344-2.768-.708-6.297-2.002-11.29-3.837l-127.333-46.801c-41.825-15.373-61.857-22.801-75.978-36.399a94 94 0 0 1-20.845-29.869c-7.891-17.945-7.953-39.31-7.953-83.871V205.332c0-28.048.003-48.901 1.393-65.564 1.388-16.618 4.142-28.833 9.522-39.631a104.001 104.001 0 0 1 28.22-34.912c9.43-7.524 20.797-12.778 36.755-17.618 16.001-4.853 36.39-9.227 63.814-15.107l94.728-20.31c4.573-.98 7.787-1.666 10.294-1.95 2.474-.279 3.875-.111 4.924.325a8.994 8.994 0 0 1 3.937 3.183c.48.693.858 1.61 1.12 3.055Z" stroke="#fff" stroke-width="6"/></svg>