<svg width="180" height="313" viewBox="0 0 180 313" fill="none" xmlns="http://www.w3.org/2000/svg">
<path d="M6.30664 90.3218C6.30664 71.5987 6.30664 62.2371 8.19934 54.7132C13.4639 33.7852 29.0038 17.8795 48.3995 13.5667C55.3726 12.0162 63.8857 12.6642 80.912 13.9602L-nan -nanL-nan -nanL80.912 13.9602C103.357 15.6688 114.58 16.523 123.817 19.8339C149.427 29.0132 168.951 51.9689 175.526 80.6318C177.897 90.9701 177.897 103.311 177.897 127.993V211.062C177.897 266.256 137.111 311 86.7982 311L-nan -nanL-nan -nanL86.7982 311C42.344 311 6.30664 271.466 6.30664 222.699V90.3218Z" stroke="white" stroke-width="2.57618"/>
<path d="M6.30664 77.3956C6.30664 58.9774 6.30664 49.7683 8.19934 42.3669C13.4639 21.7798 29.0038 6.13318 48.3995 1.89058C55.3726 0.365298 63.8857 1.00276 80.912 2.27769L-nan -nanL-nan -nanL80.912 2.27769C103.357 3.95841 114.58 4.79877 123.817 8.05568C149.427 17.0855 168.951 39.6673 175.526 67.8634C177.897 78.0333 177.897 90.1735 177.897 114.454V196.17C177.897 250.465 137.111 294.48 86.7982 294.48L-nan -nanL-nan -nanL86.7982 294.48C42.344 294.48 6.30664 255.59 6.30664 207.617V77.3956Z" stroke="white" stroke-width="0.429363"/>
<path d="M0.999675 81.7203C0.999675 80.0889 1.00059 78.9086 1.1216 78.0085C1.24096 77.1207 1.47002 76.5701 1.87998 76.1601C2.28994 75.7502 2.84055 75.5211 3.72831 75.4018C4.54746 75.2916 5.5987 75.281 7.01076 75.2799V110.487C5.5987 110.486 4.54746 110.476 3.72831 110.366C2.84055 110.246 2.28993 110.017 1.87998 109.607C1.47002 109.197 1.24096 108.647 1.1216 107.759C1.00059 106.859 0.999675 105.679 0.999675 104.047V81.7203Z" stroke="white" stroke-width="0.858726"/>
<path d="M0.999675 121.651C0.999675 120.02 1.00059 118.839 1.1216 117.939C1.24096 117.051 1.47002 116.501 1.87998 116.091C2.28994 115.681 2.84055 115.452 3.72831 115.333C4.54746 115.222 5.5987 115.212 7.01076 115.211V149.989C5.5987 149.988 4.54746 149.977 3.72831 149.867C2.84055 149.748 2.28993 149.519 1.87998 149.109C1.47002 148.699 1.24096 148.148 1.1216 147.26C1.00059 146.36 0.999675 145.18 0.999675 143.549V121.651Z" stroke="white" stroke-width="0.858726"/>
<path d="M80.8192 71.7118C80.8192 66.2127 85.277 61.7548 90.7761 61.7548C96.2752 61.7548 100.733 66.2127 100.733 71.7118V111.619C100.733 117.118 96.2752 121.576 90.7761 121.576C85.277 121.576 80.8192 117.118 80.8192 111.619V71.7118Z" stroke="white" stroke-width="0.429363"/>
<path d="M90.3339 14.5681H90.5486V14.3688L90.3499 14.354L90.3339 14.5681ZM80.913 13.8844L80.9283 13.6703L80.913 13.8844ZM90.3339 61.5495L90.3431 61.764L90.5486 61.7552V61.5495H90.3339ZM90.3339 121.781H90.5486V121.576L90.3431 121.567L90.3339 121.781ZM90.3339 149.27L90.328 149.484L90.5486 149.491V149.27H90.3339ZM6.30762 153.571H6.09294V153.816L6.33574 153.783L6.30762 153.571ZM8.20032 52.2557L8.40773 52.3112L8.20032 52.2557ZM48.4005 13.5139L48.3565 13.3038H48.3565L48.4005 13.5139ZM90.3499 14.354C87.4433 14.1372 84.3133 13.9129 80.9283 13.6703L80.8976 14.0986C84.2827 14.3412 87.4121 14.5655 90.318 14.7822L90.3499 14.354ZM90.5486 61.5495V14.5681H90.1192V61.5495H90.5486ZM80.8193 71.7117C80.8193 66.3578 85.0451 61.9907 90.3431 61.764L90.3248 61.3351C84.7979 61.5715 80.3899 66.1268 80.3899 71.7117H80.8193ZM80.8193 111.619V71.7117H80.3899V111.619H80.8193ZM90.3431 121.567C85.0451 121.34 80.8193 116.973 80.8193 111.619H80.3899C80.3899 117.204 84.7979 121.759 90.3248 121.996L90.3431 121.567ZM90.5486 149.27V121.781H90.1192V149.27H90.5486ZM73.5287 149.21C78.3811 149.21 84.1028 149.312 90.328 149.484L90.3399 149.055C84.1125 148.882 78.3865 148.781 73.5287 148.781V149.21ZM6.30762 153.571C6.33574 153.783 6.33586 153.783 6.33611 153.783C6.33637 153.783 6.33675 153.783 6.33727 153.783C6.33831 153.783 6.33987 153.783 6.34196 153.783C6.34614 153.782 6.35241 153.781 6.36075 153.78C6.37745 153.778 6.40246 153.775 6.43564 153.77C6.502 153.762 6.60105 153.749 6.73167 153.732C6.99291 153.699 7.38044 153.65 7.8853 153.587C8.89502 153.462 10.3741 153.283 12.2509 153.069C16.0046 152.64 21.3493 152.069 27.7124 151.497C40.4395 150.353 57.2377 149.21 73.5287 149.21V148.781C57.2198 148.781 40.4075 149.925 27.674 151.069C21.3069 151.641 15.9587 152.213 12.2022 152.642C10.3239 152.857 8.84351 153.036 7.83254 153.161C7.32706 153.224 6.93893 153.273 6.67711 153.306C6.5462 153.323 6.44686 153.336 6.38022 153.345C6.3469 153.349 6.32175 153.352 6.30492 153.354C6.2965 153.356 6.29016 153.356 6.28592 153.357C6.2838 153.357 6.2822 153.357 6.28113 153.358C6.28059 153.358 6.28018 153.358 6.27991 153.358C6.27964 153.358 6.27949 153.358 6.30762 153.571ZM6.09294 85.7833V153.571H6.5223V85.7833H6.09294ZM7.99291 52.2003C6.09108 59.3187 6.09294 68.1686 6.09294 85.7833H6.5223C6.5223 68.1403 6.52415 59.3612 8.40773 52.3112L7.99291 52.2003ZM48.3565 13.3038C28.8786 17.3818 13.2776 32.4201 7.99291 52.2003L8.40773 52.3112C13.6522 32.6816 29.131 17.7676 48.4445 13.724L48.3565 13.3038ZM80.9283 13.6703C63.9171 12.4511 55.3664 11.8362 48.3565 13.3038L48.4445 13.724C55.3807 12.2718 63.8563 12.8772 80.8976 14.0986L80.9283 13.6703Z" fill="white"/>
<path fill-rule="evenodd" clip-rule="evenodd" d="M177.898 153.57C177.898 153.57 125.914 150.257 90.334 149.27V121.781C90.4806 121.788 90.628 121.791 90.7762 121.791C96.3938 121.791 100.948 117.237 100.948 111.619V71.7115C100.948 66.0939 96.3938 61.5399 90.7762 61.5399C90.628 61.5399 90.4806 61.5431 90.334 61.5494V14.5679C106.698 15.7881 115.974 16.7674 123.818 19.4146C149.428 28.0575 168.952 49.6716 175.527 76.6594C177.898 86.3935 177.898 98.0137 177.898 121.253V153.57Z" fill="white"/>
<path d="M83.2231 72.1342C83.2231 67.9844 86.5872 64.6204 90.737 64.6204C94.8868 64.6204 98.2508 67.9844 98.2508 72.1342V111.636C98.2508 115.785 94.8868 119.149 90.737 119.149C86.5872 119.149 83.2231 115.785 83.2231 111.636V72.1342Z" fill="#1E1E1E" stroke="white" stroke-width="1.28809"/>
<line opacity="0.3" x1="87.3018" y1="72.0596" x2="94.1716" y2="72.0596" stroke="white" stroke-width="0.429363"/>
<line opacity="0.2" x1="88.5898" y1="69.9128" x2="92.8835" y2="69.9128" stroke="white" stroke-width="0.429363"/>
<line opacity="0.2" x1="88.5898" y1="114.996" x2="92.8835" y2="114.996" stroke="white" stroke-width="0.429363"/>
<line opacity="0.4" x1="87.3018" y1="74.2063" x2="94.1716" y2="74.2063" stroke="white" stroke-width="0.429363"/>
<line opacity="0.5" x1="87.3018" y1="76.3532" x2="94.1716" y2="76.3532" stroke="white" stroke-width="0.429363"/>
<line opacity="0.6" x1="87.3018" y1="78.5" x2="94.1716" y2="78.5" stroke="white" stroke-width="0.429363"/>
<line opacity="0.7" x1="87.3018" y1="80.6468" x2="94.1716" y2="80.6468" stroke="white" stroke-width="0.429363"/>
<line opacity="0.8" x1="87.3018" y1="82.7936" x2="94.1716" y2="82.7936" stroke="white" stroke-width="0.429363"/>
<line opacity="0.8" x1="87.3018" y1="84.9405" x2="94.1716" y2="84.9405" stroke="white" stroke-width="0.429363"/>
<line opacity="0.9" x1="87.3018" y1="87.0873" x2="94.1716" y2="87.0873" stroke="white" stroke-width="0.429363"/>
<line x1="87.3018" y1="89.234" x2="94.1716" y2="89.234" stroke="white" stroke-width="0.429363"/>
<line x1="87.3018" y1="91.3809" x2="94.1716" y2="91.3809" stroke="white" stroke-width="0.429363"/>
<line x1="87.3018" y1="93.5278" x2="94.1716" y2="93.5277" stroke="white" stroke-width="0.429363"/>
<line opacity="0.9" x1="87.3018" y1="95.6745" x2="94.1716" y2="95.6745" stroke="white" stroke-width="0.429363"/>
<line opacity="0.8" x1="87.3018" y1="97.8213" x2="94.1716" y2="97.8213" stroke="white" stroke-width="0.429363"/>
<line opacity="0.8" x1="87.3018" y1="99.9682" x2="94.1716" y2="99.9682" stroke="white" stroke-width="0.429363"/>
<line opacity="0.8" x1="87.3018" y1="102.115" x2="94.1716" y2="102.115" stroke="white" stroke-width="0.429363"/>
<line opacity="0.7" x1="87.3018" y1="104.262" x2="94.1716" y2="104.262" stroke="white" stroke-width="0.429363"/>
<line opacity="0.6" x1="87.3018" y1="106.409" x2="94.1716" y2="106.409" stroke="white" stroke-width="0.429363"/>
<line opacity="0.5" x1="87.3018" y1="108.555" x2="94.1716" y2="108.555" stroke="white" stroke-width="0.429363"/>
<line opacity="0.4" x1="87.3018" y1="110.702" x2="94.1716" y2="110.702" stroke="white" stroke-width="0.429363"/>
<line opacity="0.3" x1="87.3018" y1="112.849" x2="94.1716" y2="112.849" stroke="white" stroke-width="0.429363"/>
</svg>
