<svg width="416" height="723" viewBox="0 0 416 723" fill="none" xmlns="http://www.w3.org/2000/svg">
<path d="M16 127.843C16 58.2594 73.2447 2.29774 142.81 3.87479L231.215 5.87894C332.272 8.16989 413 90.7488 413 191.831V469.275C413 588.417 316.417 685 197.275 685V685C97.1595 685 16 603.841 16 503.725V127.843Z" stroke="white" stroke-width="6"/>
<path d="M1 189C1 185.2 1.00212 182.451 1.28398 180.355C1.56196 178.287 2.09545 177.005 3.05025 176.05C4.00506 175.095 5.28745 174.562 7.35507 174.284C9.26291 174.027 11.7113 174.003 15 174V256C11.7113 255.997 9.26291 255.973 7.35507 255.716C5.28745 255.438 4.00506 254.905 3.05025 253.95C2.09545 252.995 1.56196 251.713 1.28398 249.645C1.00212 247.549 1 244.8 1 241V189Z" stroke="white" stroke-width="2"/>
<path d="M1 282C1 278.2 1.00212 275.451 1.28398 273.355C1.56196 271.287 2.09545 270.005 3.05025 269.05C4.00506 268.095 5.28745 267.562 7.35507 267.284C9.26291 267.027 11.7113 267.003 15 267V348C11.7113 347.997 9.26291 347.973 7.35507 347.716C5.28745 347.438 4.00506 346.905 3.05025 345.95C2.09545 344.995 1.56196 343.713 1.28398 341.645C1.00212 339.549 1 336.8 1 333V282Z" stroke="white" stroke-width="2"/>
<path d="M186.898 165.69C186.898 152.883 197.281 142.5 210.088 142.5C222.896 142.5 233.278 152.883 233.278 165.69V258.636C233.278 271.444 222.896 281.826 210.088 281.826C197.281 281.826 186.898 271.444 186.898 258.636V165.69Z" stroke="white"/>
<path d="M209.059 32.6006H209.559V32.1365L209.097 32.102L209.059 32.6006ZM187.118 31.0084L187.082 31.5071L187.118 31.0084ZM209.059 142.022L209.081 142.522L209.559 142.501V142.022H209.059ZM209.059 282.304H209.559V281.825L209.081 281.805L209.059 282.304ZM209.059 346.325L209.046 346.825L209.559 346.839V346.325H209.059ZM13.3594 356.342H12.8594V356.912L13.4249 356.838L13.3594 356.342ZM17.7675 120.376L18.2506 120.505L17.7675 120.376ZM111.395 30.1455L111.293 29.6561L111.395 30.1455ZM209.097 32.102C202.327 31.5972 195.037 31.0747 187.153 30.5097L187.082 31.5071C194.966 32.0722 202.254 32.5946 209.022 33.0992L209.097 32.102ZM209.559 142.022V32.6006H208.559V142.022H209.559ZM186.899 165.69C186.899 153.221 196.741 143.05 209.081 142.522L209.038 141.523C196.166 142.073 185.899 152.683 185.899 165.69H186.899ZM186.899 258.636V165.69H185.899V258.636H186.899ZM209.081 281.805C196.741 281.277 186.899 271.106 186.899 258.636H185.899C185.899 271.644 196.166 282.253 209.038 282.804L209.081 281.805ZM209.559 346.325V282.304H208.559V346.325H209.559ZM169.919 346.187C181.221 346.187 194.547 346.423 209.046 346.825L209.073 345.826C194.57 345.423 181.233 345.187 169.919 345.187V346.187ZM13.3594 356.342C13.4249 356.838 13.4252 356.838 13.4257 356.838C13.4263 356.837 13.4272 356.837 13.4284 356.837C13.4309 356.837 13.4345 356.836 13.4394 356.836C13.4491 356.834 13.4637 356.833 13.4831 356.83C13.522 356.825 13.5803 356.817 13.6575 356.807C13.8121 356.787 14.0428 356.757 14.347 356.718C14.9555 356.64 15.858 356.526 17.0338 356.38C19.3855 356.089 22.8303 355.673 27.2015 355.174C35.944 354.175 48.3919 352.844 63.2119 351.512C92.8536 348.849 131.977 346.187 169.919 346.187V345.187C131.936 345.187 92.7792 347.852 63.1224 350.516C48.2931 351.849 35.8371 353.181 27.088 354.18C22.7135 354.68 19.2655 355.096 16.911 355.388C15.7337 355.534 14.8297 355.648 14.2199 355.726C13.915 355.765 13.6837 355.795 13.5285 355.816C13.4509 355.826 13.3923 355.833 13.3531 355.839C13.3335 355.841 13.3187 355.843 13.3088 355.844C13.3039 355.845 13.3002 355.845 13.2977 355.846C13.2964 355.846 13.2955 355.846 13.2949 355.846C13.2942 355.846 13.2939 355.846 13.3594 356.342ZM12.8594 198.463V356.342H13.8594V198.463H12.8594ZM17.2845 120.247C12.8551 136.826 12.8594 157.438 12.8594 198.463H13.8594C13.8594 157.372 13.8637 136.925 18.2506 120.505L17.2845 120.247ZM111.293 29.6561C65.9279 39.1539 29.5927 74.1785 17.2845 120.247L18.2506 120.505C30.465 74.7877 66.5157 40.0525 111.497 30.6349L111.293 29.6561ZM187.153 30.5097C147.534 27.6701 127.619 26.2379 111.293 29.6561L111.497 30.6349C127.652 27.2526 147.392 28.6625 187.082 31.5071L187.153 30.5097Z" fill="white"/>
<path d="M209.059 346.325H208.559V346.812L209.045 346.825L209.059 346.325ZM412.999 356.342L412.967 356.841L413.499 356.875V356.342H412.999ZM209.059 282.304L209.08 281.805L208.559 281.782V282.304H209.059ZM209.059 142.022H208.559V142.544L209.08 142.522L209.059 142.022ZM209.059 32.6006L209.096 32.102L208.559 32.0619V32.6006H209.059ZM287.045 43.8888L286.885 44.3626L287.045 43.8888ZM407.476 177.214L406.99 177.332L407.476 177.214ZM209.045 346.825C250.471 347.974 301.451 350.478 342.077 352.695C362.389 353.803 380.111 354.84 392.756 355.599C399.079 355.979 404.131 356.289 407.603 356.505C409.339 356.613 410.68 356.697 411.587 356.754C412.041 356.782 412.386 356.804 412.617 356.819C412.733 356.826 412.82 356.832 412.879 356.835C412.908 356.837 412.93 356.839 412.945 356.84C412.952 356.84 412.958 356.84 412.961 356.841C412.963 356.841 412.964 356.841 412.965 356.841C412.966 356.841 412.967 356.841 412.999 356.342C413.03 355.843 413.03 355.843 413.029 355.843C413.028 355.843 413.027 355.843 413.025 355.843C413.021 355.842 413.016 355.842 413.008 355.842C412.994 355.841 412.971 355.839 412.942 355.837C412.884 355.834 412.796 355.828 412.68 355.821C412.449 355.806 412.104 355.784 411.65 355.756C410.743 355.699 409.402 355.615 407.665 355.507C404.193 355.291 399.139 354.981 392.816 354.601C380.17 353.841 362.445 352.805 342.131 351.696C301.503 349.48 250.513 346.975 209.072 345.825L209.045 346.825ZM208.559 282.304V346.325H209.559V282.304H208.559ZM210.088 281.826C209.751 281.826 209.414 281.819 209.08 281.805L209.037 282.804C209.386 282.819 209.736 282.826 210.088 282.826V281.826ZM233.278 258.636C233.278 271.444 222.896 281.826 210.088 281.826V282.826C223.448 282.826 234.278 271.996 234.278 258.636H233.278ZM233.278 165.69V258.636H234.278V165.69H233.278ZM210.088 142.5C222.896 142.5 233.278 152.883 233.278 165.69H234.278C234.278 152.33 223.448 141.5 210.088 141.5V142.5ZM209.08 142.522C209.414 142.507 209.751 142.5 210.088 142.5V141.5C209.736 141.5 209.386 141.508 209.037 141.523L209.08 142.522ZM208.559 32.6006V142.022H209.559V32.6006H208.559ZM287.204 43.4151C268.865 37.2259 247.196 34.9431 209.096 32.102L209.021 33.0992C247.147 35.9422 268.686 38.2208 286.885 44.3626L287.204 43.4151ZM407.961 177.096C392.61 114.079 347.019 63.6012 287.204 43.4151L286.885 44.3626C346.364 64.4355 391.716 114.638 406.99 177.332L407.961 177.096ZM413.499 281.074C413.499 226.977 413.502 199.839 407.961 177.096L406.99 177.332C412.495 199.93 412.499 226.92 412.499 281.074H413.499ZM413.499 356.342V281.074H412.499V356.342H413.499Z" fill="white"/>
<path d="M192.5 166.674C192.5 157.009 200.335 149.174 210 149.174C219.665 149.174 227.5 157.009 227.5 166.674V258.674C227.5 268.339 219.665 276.174 210 276.174C200.335 276.174 192.5 268.339 192.5 258.674V166.674Z" stroke="white" stroke-width="3"/>
<line opacity="0.3" x1="202" y1="166.5" x2="218" y2="166.5" stroke="white"/>
<line opacity="0.2" x1="205" y1="161.5" x2="215" y2="161.5" stroke="white"/>
<line opacity="0.2" x1="205" y1="266.5" x2="215" y2="266.5" stroke="white"/>
<line opacity="0.4" x1="202" y1="171.5" x2="218" y2="171.5" stroke="white"/>
<line opacity="0.5" x1="202" y1="176.5" x2="218" y2="176.5" stroke="white"/>
<line opacity="0.6" x1="202" y1="181.5" x2="218" y2="181.5" stroke="white"/>
<line opacity="0.7" x1="202" y1="186.5" x2="218" y2="186.5" stroke="white"/>
<line opacity="0.8" x1="202" y1="191.5" x2="218" y2="191.5" stroke="white"/>
<line opacity="0.8" x1="202" y1="196.5" x2="218" y2="196.5" stroke="white"/>
<line opacity="0.9" x1="202" y1="201.5" x2="218" y2="201.5" stroke="white"/>
<line x1="202" y1="206.5" x2="218" y2="206.5" stroke="white"/>
<line x1="202" y1="211.5" x2="218" y2="211.5" stroke="white"/>
<line x1="202" y1="216.5" x2="218" y2="216.5" stroke="white"/>
<line opacity="0.9" x1="202" y1="221.5" x2="218" y2="221.5" stroke="white"/>
<line opacity="0.8" x1="202" y1="226.5" x2="218" y2="226.5" stroke="white"/>
<line opacity="0.8" x1="202" y1="231.5" x2="218" y2="231.5" stroke="white"/>
<line opacity="0.8" x1="202" y1="236.5" x2="218" y2="236.5" stroke="white"/>
<line opacity="0.7" x1="202" y1="241.5" x2="218" y2="241.5" stroke="white"/>
<line opacity="0.6" x1="202" y1="246.5" x2="218" y2="246.5" stroke="white"/>
<line opacity="0.5" x1="202" y1="251.5" x2="218" y2="251.5" stroke="white"/>
<line opacity="0.4" x1="202" y1="256.5" x2="218" y2="256.5" stroke="white"/>
<line opacity="0.3" x1="202" y1="261.5" x2="218" y2="261.5" stroke="white"/>
</svg>
