<svg width="968" height="603" viewBox="0 0 968 603" fill="none" xmlns="http://www.w3.org/2000/svg">
<path opacity="0.2" d="M324.447 49.9839H644.074V120.952C644.074 158.664 644.074 177.52 632.358 189.236C620.643 200.952 601.787 200.952 564.074 200.952H404.447C366.735 200.952 347.879 200.952 336.163 189.236C324.447 177.52 324.447 158.664 324.447 120.952V49.9839Z" stroke="white" stroke-width="1.17944"/>
<path opacity="0.2" d="M332.883 49.9834H634.818V132.695C634.818 160.979 634.818 175.121 626.031 183.908C617.245 192.695 603.102 192.695 574.818 192.695H392.883C364.599 192.695 350.456 192.695 341.67 183.908C332.883 175.121 332.883 160.979 332.883 132.695V49.9834Z" stroke="white" stroke-width="2.35887"/>
<path d="M277.27 74.1626C277.27 65.3689 284.398 58.2402 293.192 58.2402C301.986 58.2402 309.114 65.3689 309.114 74.1626V96.5719C309.114 105.366 301.986 112.494 293.192 112.494C284.398 112.494 277.27 105.366 277.27 96.5719V74.1626Z" fill="white" stroke="white" stroke-width="3.53831"/>
<path d="M660.586 74.7523C660.586 65.6329 667.979 58.2402 677.098 58.2402C686.217 58.2402 693.61 65.6329 693.61 74.7523V95.9822C693.61 105.102 686.217 112.494 677.098 112.494C667.979 112.494 660.586 105.102 660.586 95.9822V74.7523Z" fill="white" stroke="white" stroke-width="3.53831"/>
<circle opacity="0.2" cx="484.85" cy="307.101" r="22.999" stroke="white" stroke-width="1.17944"/>
<circle opacity="0.2" cx="447.108" cy="242.232" r="5.30746" stroke="white" stroke-width="1.17944"/>
<circle opacity="0.2" cx="456.544" cy="254.026" r="5.30746" stroke="white" stroke-width="1.17944"/>
<circle opacity="0.2" cx="465.979" cy="265.821" r="5.30746" stroke="white" stroke-width="1.17944"/>
<circle opacity="0.2" cx="465.979" cy="242.232" r="5.30746" stroke="white" stroke-width="1.17944"/>
<circle opacity="0.2" cx="475.415" cy="254.026" r="5.30746" stroke="white" stroke-width="1.17944"/>
<circle opacity="0.2" cx="484.85" cy="265.821" r="5.30746" stroke="white" stroke-width="1.17944"/>
<circle opacity="0.2" cx="484.85" cy="242.232" r="5.30746" stroke="white" stroke-width="1.17944"/>
<circle opacity="0.2" cx="494.286" cy="254.026" r="5.30746" stroke="white" stroke-width="1.17944"/>
<circle opacity="0.2" cx="503.721" cy="265.821" r="5.30746" stroke="white" stroke-width="1.17944"/>
<circle opacity="0.2" cx="503.721" cy="242.232" r="5.30746" stroke="white" stroke-width="1.17944"/>
<circle opacity="0.2" cx="513.157" cy="254.026" r="5.30746" stroke="white" stroke-width="1.17944"/>
<circle opacity="0.2" cx="522.592" cy="242.232" r="5.30746" stroke="white" stroke-width="1.17944"/>
<g opacity="0.2">
<circle cx="333.884" cy="304.742" r="58.1129" stroke="white" stroke-width="3"/>
<circle cx="333.883" cy="304.742" r="34.7933" stroke="white" stroke-width="1.17944"/>
<path d="M247.195 304.741C247.195 292.628 249.679 281.097 254.165 270.628C270.177 260.162 283.347 245.709 292.266 228.678C304.618 221.905 318.8 218.053 333.884 218.053C381.76 218.053 420.572 256.864 420.572 304.741C420.572 352.618 381.76 391.43 333.884 391.43C286.007 391.43 247.195 352.618 247.195 304.741Z" stroke="white" stroke-width="1.17944"/>
</g>
<path opacity="0.2" d="M307.331 36.6666L307.33 36.6659L307.23 36.5156L307.23 36.515C303.269 30.5781 298.439 27.5065 292.676 26.0045C287.22 24.5823 280.927 24.5825 274.087 24.5828L273.802 24.5828H178.331H178.329L176.229 24.5805L176.223 24.5805L175.683 24.5788L175.681 24.5788L175.46 24.5783C166.639 24.5583 156.77 24.536 148.459 26.6083C139.956 28.7283 132.473 33.2079 129.513 42.5747L132.28 43.449L129.513 42.5747C126.38 52.4878 119.288 62.5312 110.867 74.3931L113.313 76.1297L110.867 74.3931L110.832 74.4417C105.811 81.5155 100.386 89.1566 95.3347 97.5706C80.3798 122.477 71.4734 150.081 62.8232 177.135L62.8223 177.138L62.7732 177.292L62.7722 177.295L62.7315 177.423C50.283 216.346 18.3075 316.325 10.9814 365.371L13.9485 365.815L10.9814 365.371C2.14714 424.517 -2.04428 477.526 12.8768 521.327C20.1217 542.593 34.1418 563.391 52.5045 578.115C70.8885 592.857 93.7769 601.617 118.619 598.4C167.736 592.037 213.572 553.051 237.708 486.947C246.543 462.752 249.751 440.604 252.378 422.466L252.387 422.403C254.462 408.079 256.143 396.639 259.731 388.286C261.494 384.182 263.659 380.982 266.433 378.613C268.916 376.492 272.014 374.928 276.027 374.047C291.693 387.139 311.871 395.02 333.883 395.02C356.349 395.02 376.905 386.81 392.702 373.231H576.999C592.797 386.81 613.352 395.02 635.818 395.02C657.571 395.02 677.534 387.323 693.12 374.507C700.497 376.66 704.872 381.516 707.943 389.08C711.31 397.374 712.948 408.544 714.955 422.403L714.965 422.466C717.592 440.604 720.799 462.752 729.634 486.947C753.771 553.051 799.606 592.037 848.724 598.4C873.566 601.617 896.454 592.857 914.838 578.115C933.201 563.391 947.221 542.593 954.466 521.327C969.387 477.526 965.195 424.517 956.361 365.371C949.035 316.326 917.06 216.347 904.611 177.423L904.569 177.292C895.903 150.187 886.992 122.526 872.008 97.5705C866.957 89.1574 861.533 81.5167 856.512 74.4441L856.502 74.43L856.484 74.4052L856.477 74.3942L856.472 74.3878C848.053 62.5289 840.961 52.4867 837.83 42.5749C834.869 33.2079 827.387 28.7283 818.884 26.6083C810.572 24.536 800.704 24.5583 791.883 24.5783L791.663 24.5788L791.662 24.5788L791.115 24.5799C790.408 24.5814 789.708 24.5828 789.013 24.5828H693.54L693.255 24.5828C686.415 24.5825 680.122 24.5823 674.666 26.0045C668.904 27.5065 664.074 30.5781 660.113 36.515L660.112 36.5156L660.012 36.6659L660.012 36.6666C658.685 38.6569 656.982 41.2084 653.005 43.3792C648.951 45.5918 642.263 47.5438 630.793 47.5438H336.55C325.079 47.5438 318.391 45.5918 314.338 43.3792C310.361 41.2084 308.657 38.6569 307.331 36.6666Z" stroke="white" stroke-width="6"/>
<g opacity="0.2">
<circle cx="635.816" cy="304.742" r="58.1129" stroke="white" stroke-width="3"/>
<circle cx="635.817" cy="304.742" r="34.7933" stroke="white" stroke-width="1.17944"/>
<path d="M679.016 229.565C687.633 245.753 700.09 259.565 715.163 269.771C719.884 280.466 722.506 292.297 722.506 304.741C722.506 352.618 683.694 391.43 635.817 391.43C587.94 391.43 549.129 352.618 549.129 304.741C549.129 256.864 587.94 218.053 635.817 218.053C651.548 218.053 666.299 222.242 679.016 229.565Z" stroke="white" stroke-width="1.17944"/>
</g>
<path d="M777.351 288.819C838.91 288.819 888.808 238.652 888.808 176.773C888.808 114.894 838.91 64.7267 777.351 64.7267C715.793 64.7267 665.895 114.894 665.895 176.773C665.895 238.652 715.793 288.819 777.351 288.819Z" stroke="white" stroke-width="1.17944"/>
<circle cx="776.171" cy="114.853" r="30.6653" stroke="white" stroke-width="6"/>
<circle cx="714.841" cy="176.183" r="30.6653" stroke="white" stroke-width="6"/>
<circle cx="836.323" cy="176.183" r="30.6653" stroke="white" stroke-width="6"/>
<circle cx="776.171" cy="236.335" r="30.6653" stroke="white" stroke-width="6"/>
<path d="M774.378 126.647V117.94L766.525 103.169H771.331L775.942 112.118C776.093 112.419 776.227 112.704 776.346 112.973C776.464 113.231 776.577 113.5 776.684 113.779H776.781C776.888 113.5 777.001 113.231 777.12 112.973C777.238 112.704 777.372 112.419 777.523 112.118L782.183 103.169H786.504L778.748 117.811V126.647H774.378Z" fill="white"/>
<path d="M765.186 248.129L773.587 224.57H778.198L786.632 248.129H782.101L776.312 231.117C776.183 230.73 776.075 230.37 775.989 230.037C775.903 229.703 775.823 229.376 775.747 229.053H775.635C775.57 229.376 775.495 229.703 775.409 230.037C775.323 230.37 775.215 230.73 775.086 231.117L769.346 248.129H765.186ZM769.555 242.679L770.507 239.486H781.085L782.036 242.679H769.555Z" fill="white"/>
<path d="M705.244 187.978L713.42 174.658H714.129L719.999 164.5H724.336L716.661 177.303H715.983L709.662 187.978H705.244ZM705.631 164.5L710.549 164.516L716.516 174.642H716.58L724.804 187.978H719.853L713.5 177.351H713.452L705.631 164.5Z" fill="white"/>
<path d="M829.064 187.978V164.5H837.482C839.901 164.5 841.771 165.005 843.093 166.015C844.416 167.015 845.077 168.547 845.077 170.611C845.077 171.922 844.776 173.003 844.174 173.852C843.582 174.701 842.835 175.282 841.932 175.594V175.658C843.05 175.97 843.969 176.599 844.69 177.545C845.41 178.491 845.77 179.743 845.77 181.302C845.77 183.42 845.055 185.064 843.625 186.236C842.206 187.397 840.309 187.978 837.933 187.978H829.064ZM833.354 184.833H837.562C838.885 184.833 839.858 184.495 840.481 183.817C841.105 183.14 841.416 182.221 841.416 181.06C841.416 179.91 841.105 178.991 840.481 178.303C839.858 177.615 838.885 177.271 837.562 177.271H833.354V184.833ZM833.354 174.4H837.127C838.439 174.4 839.385 174.105 839.965 173.513C840.546 172.911 840.836 172.073 840.836 170.998C840.836 169.934 840.546 169.117 839.965 168.547C839.385 167.977 838.439 167.692 837.127 167.692H833.354V174.4Z" fill="white"/>
<path opacity="0.2" d="M391.581 370.23C376.199 383.792 356.002 392.02 333.883 392.02C312.11 392.02 292.199 384.047 276.91 370.861C254.134 374.508 239.655 393.716 235.561 421.973C234.237 427.21 233.2 432.287 232.129 437.532C229.799 448.946 227.307 461.154 221.328 477.529C207.116 516.451 181.817 522.326 140.537 515.861C91.5902 508.194 75.0781 502.887 36.1568 486.375C1.36343 468.683 5.78181 424.983 14.6195 365.815C21.9083 317.016 53.8438 217.158 66.3012 178.206L66.3018 178.204C68.9487 169.927 70.7161 164.401 71.1807 162.699C73.8321 152.984 86.3599 119.462 98.5776 99.1146C103.573 90.795 108.945 83.2279 113.984 76.1296C122.317 64.3912 129.74 53.935 133.044 43.4788C138.096 27.4934 158.388 27.5387 176.345 27.5788C177.236 27.5807 178.122 27.5827 179 27.5827H274.473C288.613 27.5827 298.335 27.5827 305.405 38.1801L305.505 38.3303C308.304 42.531 313.643 50.5436 337.221 50.5436H630.793C654.371 50.5436 659.71 42.531 662.509 38.3303L662.609 38.1801C669.679 27.5827 679.4 27.5827 693.541 27.5827H789.013C789.891 27.5827 790.777 27.5807 791.669 27.5788C809.625 27.5387 829.917 27.4934 834.969 43.4788C838.274 53.935 845.697 64.3912 854.03 76.1296C859.069 83.2279 864.441 90.795 869.436 99.1146C881.654 119.462 894.182 152.984 896.833 162.699C897.297 164.4 899.062 169.918 901.705 178.182L901.712 178.204L901.713 178.206L901.713 178.208L901.714 178.209C914.172 217.164 946.106 317.017 953.394 365.815C962.232 424.983 966.65 468.683 931.857 486.375C892.936 502.887 876.424 508.194 827.477 515.861C786.197 522.326 760.897 516.451 746.686 477.529C740.707 461.154 738.214 448.946 735.884 437.532C734.814 432.287 733.777 427.21 732.452 421.973C728.444 394.301 714.474 375.306 692.506 371.107C677.255 384.146 657.457 392.02 635.819 392.02C613.7 392.02 593.503 383.792 578.122 370.23H391.581Z" stroke="white" stroke-width="1.17944"/>
<g opacity="0.2">
<circle cx="192.941" cy="176.773" r="112.046" stroke="white" stroke-width="1.17944"/>
<path d="M170.083 213.096C170.291 208.966 170.401 207.337 171.092 205.933C171.782 204.529 173.005 203.447 176.148 200.761L184.722 193.436C186.946 191.536 188.509 190.204 189.836 189.33C191.128 188.479 192.04 188.171 192.942 188.171C193.843 188.171 194.756 188.479 196.047 189.33C197.374 190.204 198.937 191.536 201.161 193.436L209.735 200.761C212.879 203.447 214.101 204.529 214.792 205.933C215.482 207.337 215.592 208.966 215.8 213.096L217.482 246.551C217.602 248.92 217.68 250.543 217.575 251.763C217.474 252.939 217.217 253.499 216.85 253.885C216.482 254.272 215.936 254.556 214.766 254.716C213.553 254.882 211.929 254.885 209.557 254.885H176.326C173.954 254.885 172.33 254.882 171.117 254.716C169.947 254.556 169.401 254.272 169.034 253.885L167.947 254.919L169.034 253.885C168.666 253.499 168.41 252.939 168.308 251.763C168.203 250.543 168.282 248.92 168.401 246.551L170.083 213.096Z" stroke="white" stroke-width="3"/>
<path d="M155.44 152.735C159.569 152.943 161.198 153.054 162.602 153.744C164.006 154.434 165.088 155.657 167.774 158.8L175.1 167.375C177 169.598 178.332 171.161 179.206 172.488C180.056 173.78 180.364 174.693 180.364 175.594C180.364 176.495 180.056 177.408 179.206 178.7C178.332 180.026 177 181.59 175.1 183.813L167.774 192.387C165.088 195.531 164.006 196.754 162.602 197.444C161.198 198.134 159.569 198.245 155.44 198.452L121.984 200.135C119.615 200.254 117.993 200.332 116.773 200.227C115.596 200.126 115.037 199.87 114.65 199.502C114.264 199.134 113.98 198.589 113.82 197.419C113.653 196.206 113.65 194.581 113.65 192.209L113.65 158.979C113.65 156.607 113.653 154.982 113.82 153.769C113.98 152.599 114.264 152.053 114.65 151.686C115.037 151.318 115.596 151.062 116.773 150.961C117.993 150.856 119.615 150.934 121.984 151.053L155.44 152.735Z" stroke="white" stroke-width="3"/>
<path d="M170.083 138.092C170.291 142.222 170.401 143.851 171.092 145.255C171.782 146.659 173.005 147.741 176.148 150.427L184.722 157.752C186.946 159.652 188.509 160.984 189.836 161.858C191.128 162.709 192.04 163.017 192.942 163.017C193.843 163.017 194.756 162.709 196.047 161.858C197.374 160.984 198.937 159.652 201.161 157.752L209.735 150.427C212.879 147.741 214.101 146.659 214.792 145.255C215.482 143.851 215.592 142.222 215.8 138.092L217.482 104.637C217.602 102.268 217.68 100.645 217.575 99.4251C217.474 98.2487 217.217 97.6893 216.85 97.3028C216.482 96.9164 215.936 96.6322 214.766 96.472C213.553 96.3058 211.929 96.3025 209.557 96.3025H176.326C173.954 96.3025 172.33 96.3058 171.117 96.472C169.947 96.6322 169.401 96.9164 169.034 97.3028L167.947 96.2692L169.034 97.3028C168.666 97.6893 168.41 98.2487 168.308 99.4251C168.203 100.645 168.282 102.268 168.401 104.637L170.083 138.092Z" stroke="white" stroke-width="3"/>
<path d="M230.443 152.735C226.313 152.943 224.684 153.054 223.28 153.744C221.877 154.434 220.794 155.657 218.108 158.8L210.783 167.375C208.883 169.598 207.551 171.161 206.677 172.488C205.827 173.78 205.518 174.693 205.518 175.594C205.518 176.495 205.827 177.408 206.677 178.7C207.551 180.026 208.883 181.59 210.783 183.813L218.108 192.387C220.794 195.531 221.877 196.754 223.28 197.444C224.684 198.134 226.313 198.245 230.443 198.452L263.899 200.135C266.267 200.254 267.89 200.332 269.11 200.227C270.286 200.126 270.846 199.87 271.232 199.502C271.619 199.134 271.903 198.589 272.063 197.419C272.229 196.206 272.233 194.581 272.233 192.209L272.233 158.979C272.233 156.607 272.229 154.982 272.063 153.769C271.903 152.599 271.619 152.053 271.232 151.686L272.266 150.599L271.232 151.686C270.846 151.318 270.286 151.062 269.11 150.961C267.89 150.856 266.267 150.934 263.899 151.053L230.443 152.735Z" stroke="white" stroke-width="3"/>
</g>
<path opacity="0.2" d="M700.613 23.4543L700.342 23.4543C693.212 23.454 686.88 23.4538 681.42 25.0089C681.765 19.3578 682.683 16.2668 684.85 14.0996C688.614 10.336 694.93 7.42014 708.151 4.42875C711.288 3.71882 717.407 3.18321 725.173 2.85376C732.889 2.52648 742.091 2.40704 751.307 2.49376C760.524 2.58049 769.736 2.87324 777.474 3.368C785.267 3.86632 791.408 4.56154 794.58 5.41202C795.978 5.78676 797.296 6.13629 798.541 6.46638C803.34 7.73932 807.05 8.72304 810.038 9.74825C813.771 11.0287 816.152 12.3036 817.948 14.0996C819.813 15.9638 820.575 17.017 821.011 18.8787C821.42 20.6312 821.535 23.0871 821.565 27.3869C816.809 25.5496 811.312 24.5763 805.47 24.0527C798.543 23.4318 790.982 23.4332 783.405 23.4502C783.405 23.4502 783.405 23.4502 783.405 23.4502L782.859 23.4513L782.856 23.4514C782.149 23.4528 781.448 23.4543 780.753 23.4543H700.613Z" stroke="white" stroke-width="3.53831"/>
<path opacity="0.2" d="M266.201 23.4543L266.473 23.4543C273.602 23.454 279.934 23.4538 285.395 25.0089C285.05 19.3578 284.132 16.2668 281.964 14.0996C278.201 10.336 271.885 7.42014 258.664 4.42875C255.526 3.71882 249.408 3.18321 241.641 2.85376C233.926 2.52648 224.724 2.40704 215.507 2.49376C206.291 2.58049 197.078 2.87324 189.341 3.368C181.548 3.86632 175.406 4.56154 172.234 5.41202C170.837 5.78676 169.519 6.13629 168.274 6.46638C163.474 7.73932 159.765 8.72304 156.776 9.74825C153.043 11.0287 150.662 12.3036 148.866 14.0996C147.002 15.9638 146.239 17.017 145.804 18.8787C145.394 20.6312 145.279 23.0871 145.249 27.3869C150.005 25.5496 155.502 24.5763 161.344 24.0527C168.272 23.4318 175.832 23.4332 183.409 23.4502C183.409 23.4502 183.41 23.4502 183.41 23.4502L183.955 23.4513L183.959 23.4514C184.666 23.4528 185.366 23.4543 186.061 23.4543H266.201Z" stroke="white" stroke-width="3.53831"/>
<path opacity="0.2" d="M147.5 15.5629C198.973 13.043 228.467 12.7119 283 15.5629" stroke="white" stroke-width="0.5"/>
<path opacity="0.2" d="M818.5 15.5629C767.473 13.043 738.235 12.7119 684.175 15.5629" stroke="white" stroke-width="0.5"/>
</svg>
