<svg width="968" height="602" fill="none" xmlns="http://www.w3.org/2000/svg"><path d="M324.447 49.453h319.627v70.967c0 37.713 0 56.569-11.716 68.285-11.715 11.715-30.571 11.715-68.284 11.715H404.447c-37.712 0-56.568 0-68.284-11.715-11.716-11.716-11.716-30.572-11.716-68.285V49.453Z" stroke="#fff" stroke-width="1.179"/><path d="M332.883 49.452h301.935v82.712c0 28.284 0 42.426-8.787 51.213-8.786 8.787-22.929 8.787-51.213 8.787H392.883c-28.284 0-42.427 0-51.213-8.787-8.787-8.787-8.787-22.929-8.787-51.213V49.452Z" stroke="#fff" stroke-width="2.359"/><path d="M277.271 73.631c0-8.793 7.128-15.922 15.922-15.922s15.922 7.129 15.922 15.922v22.41c0 8.793-7.128 15.922-15.922 15.922s-15.922-7.129-15.922-15.922V73.63Zm383.315.59c0-9.12 7.393-16.512 16.512-16.512s16.512 7.393 16.512 16.512v21.23c0 9.119-7.393 16.512-16.512 16.512s-16.512-7.393-16.512-16.512V74.22Z" stroke="#fff" stroke-width="3.538"/><circle cx="484.85" cy="306.569" r="22.999" stroke="#fff" stroke-width="1.179"/><circle cx="447.109" cy="241.7" r="5.307" stroke="#fff" stroke-width="1.179"/><circle cx="456.545" cy="253.495" r="5.307" stroke="#fff" stroke-width="1.179"/><circle cx="465.979" cy="265.289" r="5.307" stroke="#fff" stroke-width="1.179"/><circle cx="465.979" cy="241.7" r="5.307" stroke="#fff" stroke-width="1.179"/><circle cx="475.415" cy="253.495" r="5.307" stroke="#fff" stroke-width="1.179"/><circle cx="484.85" cy="265.289" r="5.307" stroke="#fff" stroke-width="1.179"/><circle cx="484.85" cy="241.7" r="5.307" stroke="#fff" stroke-width="1.179"/><circle cx="494.286" cy="253.495" r="5.307" stroke="#fff" stroke-width="1.179"/><circle cx="503.721" cy="265.289" r="5.307" stroke="#fff" stroke-width="1.179"/><circle cx="503.721" cy="241.7" r="5.307" stroke="#fff" stroke-width="1.179"/><circle cx="513.157" cy="253.495" r="5.307" stroke="#fff" stroke-width="1.179"/><circle cx="522.592" cy="241.7" r="5.307" stroke="#fff" stroke-width="1.179"/><circle cx="333.883" cy="304.211" r="58.113" stroke="#fff" stroke-width="3"/><circle cx="333.883" cy="304.211" r="34.793" stroke="#fff" stroke-width="1.179"/><path d="M247.194 304.21c0-12.113 2.484-23.644 6.97-34.113a112.581 112.581 0 0 0 38.101-41.951c12.352-6.773 26.534-10.625 41.618-10.625 47.876 0 86.688 38.812 86.688 86.689 0 47.877-38.812 86.688-86.688 86.688-47.877 0-86.689-38.811-86.689-86.688Z" stroke="#fff" stroke-width="1.179"/><path d="M307.33 36.135h.001c1.326 1.99 3.03 4.542 7.007 6.713 4.053 2.212 10.741 4.165 22.212 4.165h294.243c11.47 0 18.158-1.953 22.212-4.165 3.977-2.17 5.68-4.722 7.007-6.713l.1-.15.001-.001c3.961-5.937 8.791-9.009 14.553-10.51 5.456-1.423 11.749-1.423 18.589-1.422h95.758l2.102-.003.547-.002h.221c8.821-.02 18.689-.042 27.001 2.03 8.503 2.12 15.985 6.6 18.946 15.967 3.131 9.911 10.223 19.954 18.642 31.813l.005.006.007.011.018.025.01.014c5.021 7.072 10.445 14.713 15.496 23.126 12.385 20.628 25.01 54.415 27.718 64.339.443 1.62 2.178 7.048 4.843 15.383l.042.131c12.449 38.923 44.424 138.902 51.75 187.948 8.834 59.146 13.026 112.155-1.895 155.955-7.245 21.267-21.265 42.064-39.628 56.789-18.384 14.742-41.272 23.502-66.114 20.284-49.118-6.362-94.953-45.349-119.09-111.452-8.835-24.195-12.042-46.343-14.669-64.481l-.01-.064c-2.007-13.858-3.645-25.028-7.012-33.323-3.071-7.564-7.446-12.419-14.823-14.572-15.586 12.816-35.549 20.513-57.302 20.513-22.466 0-43.021-8.21-58.819-21.79H392.702c-15.797 13.58-36.353 21.79-58.819 21.79-22.012 0-42.19-7.881-57.856-20.973-4.013.881-7.111 2.445-9.594 4.565-2.774 2.37-4.939 5.57-6.702 9.674-3.588 8.353-5.269 19.792-7.344 34.116l-.009.063c-2.627 18.139-5.835 40.287-14.67 64.482-24.136 66.103-69.972 105.09-119.089 111.452-24.842 3.218-47.73-5.542-66.114-20.284-18.363-14.725-32.383-35.522-39.628-56.789-14.921-43.8-10.73-96.809-1.896-155.955l2.967.443-2.967-.443c7.327-49.046 39.302-149.025 51.75-187.949l.041-.127.001-.003.05-.154v-.003c2.637-8.246 4.353-13.616 4.793-15.226L307.33 36.135Zm0 0-.1-.15v-.001m.1.15-.1-.15m0 0c-3.961-5.937-8.791-9.009-14.554-10.51-5.456-1.423-11.749-1.423-18.589-1.422h-95.758l-2.1-.003h-.006l-.54-.002h-.002M307.23 35.984 175.681 24.047m0 0h-.221c-8.821-.02-18.69-.042-27.001 2.03-8.503 2.12-15.986 6.6-18.946 15.966l2.767.875m43.401-18.87-43.401 18.87m0 0-2.767-.874C126.38 51.957 119.288 62 110.867 73.862l2.446 1.737m18.967-32.681-18.967 32.68m0 0-2.446-1.736-.035.048m2.481 1.689-2.481-1.689m0 0c-5.021 7.074-10.446 14.715-15.497 23.13m15.497-23.13L95.335 97.04m0 0c-12.386 20.627-25.01 54.413-27.719 64.337l27.719-64.338Z" stroke="#fff" stroke-width="6"/><circle cx="635.818" cy="304.211" r="58.113" stroke="#fff" stroke-width="3"/><circle cx="635.819" cy="304.211" r="34.793" stroke="#fff" stroke-width="1.179"/><path d="M679.017 229.034a112.37 112.37 0 0 0 36.147 40.206c4.721 10.695 7.343 22.526 7.343 34.97 0 47.877-38.812 86.688-86.689 86.688-47.877 0-86.688-38.811-86.688-86.688s38.811-86.689 86.688-86.689c15.731 0 30.482 4.19 43.199 11.513Z" stroke="#fff" stroke-width="1.179"/><path d="M777.35 288.288c61.559 0 111.457-50.168 111.457-112.046 0-61.879-49.898-112.047-111.457-112.047-61.558 0-111.456 50.168-111.456 112.047 0 61.878 49.898 112.046 111.456 112.046Z" stroke="#fff" stroke-width="1.179"/><circle cx="776.17" cy="114.322" r="30.665" stroke="#fff" stroke-width="3"/><circle cx="714.84" cy="175.652" r="30.665" stroke="#fff" stroke-width="3"/><circle cx="836.322" cy="175.652" r="30.665" stroke="#fff" stroke-width="3"/><circle cx="776.17" cy="235.803" r="30.665" stroke="#fff" stroke-width="3"/><path d="M774.378 126.116v-8.708l-7.853-14.77h4.806l4.611 8.949c.151.301.285.586.404.855.118.258.231.527.338.806h.097c.107-.279.22-.548.339-.806.118-.269.252-.554.403-.855l4.66-8.949h4.321l-7.756 14.641v8.837h-4.37Zm-9.193 121.482 8.401-23.559h4.612l8.433 23.559H782.1l-5.789-17.012a16.279 16.279 0 0 1-.323-1.081 42.339 42.339 0 0 1-.241-.983h-.113a16.279 16.279 0 0 1-.549 2.064l-5.74 17.012h-4.16Zm4.369-5.45.952-3.193h10.578l.951 3.193h-12.481Zm-64.312-54.702 8.176-13.319h.709l5.87-10.159h4.337l-7.675 12.804h-.678l-6.321 10.674h-4.418Zm.387-23.478 4.918.016 5.967 10.127h.064l8.224 13.335h-4.95l-6.354-10.626h-.048l-7.821-12.852Zm123.433 23.478v-23.478h8.418c2.419 0 4.289.506 5.611 1.516 1.323 1 1.984 2.532 1.984 4.596 0 1.311-.301 2.392-.903 3.241-.592.849-1.339 1.43-2.242 1.741v.065c1.118.312 2.037.94 2.758 1.886.72.946 1.08 2.199 1.08 3.758 0 2.117-.715 3.762-2.145 4.934-1.419 1.161-3.316 1.741-5.692 1.741h-8.869Zm4.29-3.144h4.208c1.323 0 2.296-.339 2.919-1.016.624-.677.935-1.596.935-2.757 0-1.151-.311-2.07-.935-2.758-.623-.688-1.596-1.032-2.919-1.032h-4.208v7.563Zm0-10.433h3.773c1.312 0 2.258-.296 2.838-.887.581-.602.871-1.44.871-2.515 0-1.065-.29-1.882-.871-2.451-.58-.57-1.526-.855-2.838-.855h-3.773v6.708Z" fill="#fff"/><path d="M391.58 369.699c-15.382 13.562-35.579 21.79-57.698 21.79-21.773 0-41.684-7.973-56.973-21.159-22.776 3.647-37.255 22.855-41.349 51.111-1.324 5.237-2.361 10.315-3.431 15.559-2.331 11.415-4.823 23.623-10.802 39.998-14.212 38.921-39.511 44.797-80.791 38.332-48.947-7.667-65.459-12.974-104.38-29.486C1.362 468.152 5.78 424.452 14.618 365.283c7.29-48.798 39.225-148.656 51.682-187.608v-.003c2.648-8.276 4.415-13.802 4.88-15.505 2.651-9.714 15.179-43.236 27.397-63.584 4.995-8.32 10.367-15.886 15.406-22.985 8.333-11.738 15.756-22.194 19.061-32.65 5.051-15.986 25.343-15.94 43.3-15.9.891.002 1.777.004 2.655.004h95.473c14.14 0 23.862 0 30.932 10.597l.1.15c2.799 4.2 8.138 12.213 31.716 12.213h293.572c23.578 0 28.917-8.012 31.716-12.213l.1-.15c7.07-10.598 16.791-10.598 30.932-10.598h95.472l2.656-.003c17.956-.04 38.249-.086 43.3 15.9 3.305 10.456 10.728 20.912 19.061 32.65 5.039 7.099 10.411 14.666 15.406 22.985 12.218 20.348 24.746 53.87 27.397 63.584.464 1.701 2.229 7.219 4.872 15.484l.007.021.001.003v.002l.001.001c12.458 38.955 44.392 138.808 51.68 187.605 8.838 59.169 13.256 102.869-21.537 120.561-38.921 16.512-55.433 21.819-104.38 29.486-41.28 6.465-66.58.589-80.791-38.332-5.979-16.375-8.471-28.583-10.802-39.998-1.07-5.244-2.107-10.322-3.432-15.559-4.008-27.672-17.978-46.666-39.946-50.865-15.251 13.039-35.049 20.913-56.687 20.913-22.119 0-42.316-8.228-57.697-21.79H391.58Z" stroke="#fff" stroke-width="1.179"/><circle cx="192.94" cy="176.242" r="112.046" stroke="#fff" stroke-width="1.179"/><path d="M170.082 212.564c.208-4.129.318-5.758 1.009-7.162.69-1.404 1.913-2.486 5.056-5.172l8.574-7.326c2.224-1.899 3.787-3.232 5.114-4.105 1.292-.851 2.204-1.159 3.106-1.159.901 0 1.814.308 3.105 1.159 1.327.873 2.89 2.206 5.114 4.105l8.574 7.326c3.144 2.686 4.366 3.768 5.057 5.172.69 1.404.8 3.033 1.008 7.162l1.682 33.456c.12 2.369.198 3.992.093 5.212-.101 1.176-.358 1.735-.725 2.122-.368.386-.914.671-2.084.831-1.213.166-2.837.169-5.209.169h-33.231c-2.372 0-3.996-.003-5.209-.169-1.17-.16-1.716-.445-2.083-.831l-1.087 1.034 1.087-1.034c-.368-.387-.624-.946-.726-2.122-.105-1.22-.026-2.843.093-5.212l1.682-33.456Zm-14.643-60.36c4.129.208 5.758.319 7.162 1.009s2.486 1.913 5.172 5.056l7.326 8.575c1.9 2.223 3.232 3.786 4.106 5.113.85 1.292 1.158 2.205 1.158 3.106 0 .901-.308 1.814-1.158 3.106-.874 1.326-2.206 2.89-4.106 5.113l-7.326 8.574c-2.686 3.144-3.768 4.367-5.172 5.057-1.404.69-3.033.801-7.162 1.008l-33.456 1.683c-2.369.119-3.991.197-5.211.092-1.177-.101-1.736-.357-2.122-.725-.387-.368-.671-.913-.831-2.083-.166-1.213-.17-2.838-.17-5.21v-33.23c0-2.372.004-3.997.17-5.21.16-1.17.444-1.716.831-2.083.386-.368.945-.624 2.122-.725 1.22-.105 2.842-.027 5.211.092l33.456 1.682Zm14.643-14.643c.208 4.13.318 5.759 1.009 7.163.69 1.404 1.913 2.486 5.056 5.172l8.574 7.325c2.224 1.9 3.787 3.232 5.114 4.106 1.292.851 2.204 1.159 3.106 1.159.901 0 1.814-.308 3.105-1.159 1.327-.874 2.89-2.206 5.114-4.106l8.574-7.325c3.144-2.686 4.366-3.768 5.057-5.172.69-1.404.8-3.033 1.008-7.163l1.682-33.455c.12-2.369.198-3.992.093-5.212-.101-1.176-.358-1.736-.725-2.122-.368-.387-.914-.67-2.084-.831-1.213-.166-2.837-.17-5.209-.17h-33.231c-2.372 0-3.996.004-5.209.17-1.17.16-1.716.444-2.083.83l-1.087-1.033 1.087 1.034c-.368.386-.624.946-.726 2.122-.105 1.22-.026 2.843.093 5.212l1.682 33.455Zm60.361 14.643c-4.13.208-5.759.319-7.163 1.009-1.403.69-2.486 1.913-5.172 5.056l-7.325 8.574c-1.9 2.224-3.232 3.787-4.106 5.114-.85 1.292-1.159 2.205-1.159 3.106 0 .901.309 1.814 1.159 3.106.874 1.326 2.206 2.89 4.106 5.113l7.325 8.574c2.686 3.144 3.769 4.367 5.172 5.057 1.404.69 3.033.801 7.163 1.008l33.456 1.683c2.368.119 3.991.197 5.211.092 1.176-.101 1.736-.357 2.122-.725.387-.368.671-.913.831-2.083.166-1.213.17-2.838.17-5.21v-33.23c0-2.372-.004-3.997-.17-5.21-.16-1.17-.444-1.716-.831-2.083l1.034-1.087-1.034 1.087c-.386-.368-.946-.624-2.122-.725-1.22-.105-2.843-.027-5.211.092l-33.456 1.682Z" stroke="#fff" stroke-width="3"/><path d="M700.613 22.923h-.271c-7.13 0-13.462 0-18.922 1.555.345-5.652 1.263-8.742 3.43-10.91 3.764-3.763 10.08-6.68 23.301-9.67 3.137-.71 9.256-1.246 17.022-1.575 7.716-.328 16.918-.447 26.134-.36 9.217.086 18.429.379 26.167.874 7.793.498 13.934 1.193 17.106 2.044 1.398.375 2.716.724 3.961 1.054 4.799 1.273 8.509 2.257 11.497 3.282 3.733 1.28 6.114 2.555 7.91 4.351 1.865 1.864 2.627 2.918 3.063 4.78.409 1.752.524 4.208.554 8.508-4.756-1.838-10.253-2.811-16.095-3.335-6.927-.62-14.488-.619-22.065-.602l-.546.001h-.003l-2.103.003h-80.14Zm-434.413 0h.272c7.129 0 13.461 0 18.922 1.555-.345-5.652-1.263-8.742-3.431-10.91-3.763-3.763-10.079-6.68-23.3-9.67-3.138-.71-9.256-1.246-17.023-1.575-7.715-.328-16.917-.447-26.133-.36-9.217.086-18.43.379-26.167.874-7.793.498-13.935 1.193-17.107 2.044-1.397.375-2.715.724-3.96 1.054-4.8 1.273-8.509 2.257-11.498 3.282-3.733 1.28-6.114 2.555-7.91 4.351-1.864 1.864-2.627 2.918-3.062 4.78-.41 1.752-.525 4.208-.555 8.508 4.756-1.838 10.253-2.811 16.095-3.335 6.928-.62 14.488-.619 22.065-.602h.001l.545.001h.004l2.102.003h80.14Z" stroke="#fff" stroke-width="3.538"/><path d="M147.5 15.032c51.473-2.52 80.967-2.851 135.5 0m535.5 0c-51.027-2.52-80.265-2.851-134.325 0" stroke="#fff" stroke-width=".5"/></svg>