<svg width="968" height="603" fill="none" xmlns="http://www.w3.org/2000/svg"><path opacity=".2" d="M324.447 49.984h319.627v70.968c0 37.712 0 56.568-11.716 68.284-11.715 11.716-30.571 11.716-68.284 11.716H404.447c-37.712 0-56.568 0-68.284-11.716-11.716-11.716-11.716-30.572-11.716-68.284V49.984Z" stroke="#fff" stroke-width="1.179"/><path opacity=".2" d="M332.883 49.983h301.935v82.712c0 28.284 0 42.426-8.787 51.213-8.786 8.787-22.929 8.787-51.213 8.787H392.883c-28.284 0-42.427 0-51.213-8.787-8.787-8.787-8.787-22.929-8.787-51.213V49.983Z" stroke="#fff" stroke-width="2.359"/><path opacity=".2" d="M277.271 74.163c0-8.794 7.128-15.923 15.922-15.923s15.922 7.129 15.922 15.923v22.409c0 8.794-7.128 15.922-15.922 15.922s-15.922-7.128-15.922-15.922v-22.41Zm383.315.589c0-9.12 7.393-16.512 16.512-16.512s16.512 7.393 16.512 16.512v21.23c0 9.12-7.393 16.512-16.512 16.512s-16.512-7.392-16.512-16.512v-21.23Z" stroke="#fff" stroke-width="3.538"/><circle opacity=".2" cx="484.85" cy="307.101" r="22.999" stroke="#fff" stroke-width="1.179"/><circle opacity=".2" cx="447.109" cy="242.232" r="5.307" stroke="#fff" stroke-width="1.179"/><circle opacity=".2" cx="456.545" cy="254.026" r="5.307" stroke="#fff" stroke-width="1.179"/><circle opacity=".2" cx="465.979" cy="265.821" r="5.307" stroke="#fff" stroke-width="1.179"/><circle opacity=".2" cx="465.979" cy="242.232" r="5.307" stroke="#fff" stroke-width="1.179"/><circle opacity=".2" cx="475.415" cy="254.026" r="5.307" stroke="#fff" stroke-width="1.179"/><circle opacity=".2" cx="484.85" cy="265.821" r="5.307" stroke="#fff" stroke-width="1.179"/><circle opacity=".2" cx="484.85" cy="242.232" r="5.307" stroke="#fff" stroke-width="1.179"/><circle opacity=".2" cx="494.286" cy="254.026" r="5.307" stroke="#fff" stroke-width="1.179"/><circle opacity=".2" cx="503.721" cy="265.821" r="5.307" stroke="#fff" stroke-width="1.179"/><circle opacity=".2" cx="503.721" cy="242.232" r="5.307" stroke="#fff" stroke-width="1.179"/><circle opacity=".2" cx="513.157" cy="254.026" r="5.307" stroke="#fff" stroke-width="1.179"/><circle opacity=".2" cx="522.592" cy="242.232" r="5.307" stroke="#fff" stroke-width="1.179"/><g opacity=".2" stroke="#fff"><circle cx="333.883" cy="304.742" r="58.113" stroke-width="3"/><circle cx="333.883" cy="304.742" r="34.793" stroke-width="1.179"/><path d="M247.194 304.741c0-12.113 2.484-23.644 6.97-34.113a112.578 112.578 0 0 0 38.101-41.95c12.352-6.773 26.534-10.625 41.618-10.625 47.876 0 86.688 38.811 86.688 86.688s-38.812 86.689-86.688 86.689c-47.877 0-86.689-38.812-86.689-86.689Z" stroke-width="1.179"/></g><path opacity=".2" d="M307.33 36.666h.001c1.326 1.99 3.03 4.542 7.007 6.713 4.053 2.213 10.741 4.165 22.212 4.165h294.243c11.47 0 18.158-1.952 22.212-4.165 3.977-2.17 5.68-4.722 7.007-6.712v-.001l.1-.15.001-.001c3.961-5.937 8.791-9.009 14.553-10.51 5.456-1.423 11.749-1.422 18.589-1.422h95.758l2.102-.003.547-.001h.221c8.821-.02 18.689-.043 27.001 2.03 8.503 2.12 15.985 6.599 18.946 15.966 3.131 9.912 10.223 19.954 18.642 31.813l.005.006.007.011.018.025.01.014c5.021 7.073 10.445 14.713 15.496 23.126 12.385 20.628 25.01 54.415 27.718 64.339.443 1.62 2.178 7.048 4.843 15.383l.042.131c12.449 38.924 44.424 138.903 51.75 187.948 8.834 59.146 13.026 112.155-1.895 155.956-7.245 21.266-21.265 42.064-39.628 56.788-18.384 14.742-41.272 23.502-66.114 20.285-49.118-6.363-94.953-45.349-119.09-111.453-8.835-24.195-12.042-46.343-14.669-64.481l-.01-.063c-2.007-13.859-3.645-25.029-7.012-33.323-3.071-7.564-7.446-12.42-14.823-14.573-15.586 12.816-35.549 20.513-57.302 20.513-22.466 0-43.021-8.21-58.819-21.789H392.702c-15.797 13.579-36.353 21.789-58.819 21.789-22.012 0-42.19-7.881-57.856-20.973-4.013.881-7.111 2.445-9.594 4.566-2.774 2.369-4.939 5.569-6.702 9.673-3.588 8.353-5.269 19.793-7.344 34.117l-.009.063c-2.627 18.138-5.835 40.286-14.67 64.481-24.136 66.104-69.972 105.09-119.089 111.453-24.842 3.217-47.73-5.543-66.114-20.285-18.363-14.724-32.383-35.522-39.628-56.788-14.921-43.801-10.73-96.81-1.896-155.956l2.967.444-2.967-.444c7.327-49.046 39.302-149.025 51.75-187.948l.041-.128.001-.003.05-.154v-.003c2.637-8.246 4.353-13.616 4.793-15.226L307.33 36.666Zm0 0-.1-.15v-.001m.1.15-.1-.15m0 0c-3.961-5.937-8.791-9.009-14.554-10.51-5.456-1.423-11.749-1.422-18.589-1.422h-95.758l-2.1-.002h-.006l-.54-.002h-.002M307.23 36.515 175.681 24.579m0 0h-.221c-8.821-.02-18.69-.043-27.001 2.03-8.503 2.12-15.986 6.599-18.946 15.966l2.767.874m43.401-18.87-43.401 18.87m0 0-2.767-.874c-3.133 9.913-10.225 19.956-18.646 31.818l2.446 1.737m18.967-32.681-18.967 32.68m0 0-2.446-1.736-.035.049m2.481 1.688-2.481-1.688m0 0c-5.021 7.074-10.446 14.715-15.497 23.129m15.497-23.13-15.497 23.13m0 0c-12.386 20.627-25.01 54.413-27.719 64.338l27.719-64.338Z" stroke="#fff" stroke-width="6"/><g opacity=".2" stroke="#fff"><circle cx="635.818" cy="304.742" r="58.113" stroke-width="3"/><circle cx="635.819" cy="304.742" r="34.793" stroke-width="1.179"/><path d="M679.017 229.565a112.37 112.37 0 0 0 36.147 40.206c4.721 10.695 7.343 22.526 7.343 34.97 0 47.877-38.812 86.689-86.689 86.689-47.877 0-86.688-38.812-86.688-86.689 0-47.877 38.811-86.688 86.688-86.688 15.731 0 30.482 4.189 43.199 11.512Z" stroke-width="1.179"/></g><g opacity=".2"><path d="M777.35 288.819c61.559 0 111.457-50.167 111.457-112.046 0-61.879-49.898-112.046-111.457-112.046-61.558 0-111.456 50.167-111.456 112.046 0 61.879 49.898 112.046 111.456 112.046Z" stroke="#fff" stroke-width="1.179"/><circle cx="776.17" cy="114.853" r="30.665" stroke="#fff" stroke-width="3"/><circle cx="714.84" cy="176.183" r="30.665" stroke="#fff" stroke-width="3"/><circle cx="836.322" cy="176.183" r="30.665" stroke="#fff" stroke-width="3"/><circle cx="776.17" cy="236.335" r="30.665" stroke="#fff" stroke-width="3"/><path d="M774.378 126.647v-8.707l-7.853-14.771h4.806l4.611 8.949c.151.301.285.586.404.855.118.258.231.527.338.806h.097c.107-.279.22-.548.339-.806.118-.269.252-.554.403-.855l4.66-8.949h4.321l-7.756 14.642v8.836h-4.37Zm-9.193 121.482 8.401-23.559h4.612l8.433 23.559H782.1l-5.789-17.012a16.441 16.441 0 0 1-.323-1.08 42.404 42.404 0 0 1-.241-.984h-.113a16.441 16.441 0 0 1-.549 2.064l-5.74 17.012h-4.16Zm4.369-5.45.952-3.193h10.578l.951 3.193h-12.481Zm-64.312-54.701 8.176-13.32h.709l5.87-10.158h4.337l-7.675 12.803h-.678l-6.321 10.675h-4.418Zm.387-23.478 4.918.016 5.967 10.126h.064l8.224 13.336h-4.95l-6.354-10.627h-.048l-7.821-12.851Zm123.433 23.478V164.5h8.418c2.419 0 4.289.505 5.611 1.515 1.323 1 1.984 2.532 1.984 4.596 0 1.311-.301 2.392-.903 3.241-.592.849-1.339 1.43-2.242 1.742v.064c1.118.312 2.037.941 2.758 1.887.72.946 1.08 2.198 1.08 3.757 0 2.118-.715 3.762-2.145 4.934-1.419 1.161-3.316 1.742-5.692 1.742h-8.869Zm4.29-3.145h4.208c1.323 0 2.296-.338 2.919-1.016.624-.677.935-1.596.935-2.757 0-1.15-.311-2.069-.935-2.757-.623-.688-1.596-1.032-2.919-1.032h-4.208v7.562Zm0-10.433h3.773c1.312 0 2.258-.295 2.838-.887.581-.602.871-1.44.871-2.515 0-1.064-.29-1.881-.871-2.451-.58-.57-1.526-.855-2.838-.855h-3.773v6.708Z" fill="#fff"/></g><path opacity=".2" d="M391.58 370.23c-15.382 13.562-35.579 21.79-57.698 21.79-21.773 0-41.684-7.973-56.973-21.159-22.776 3.647-37.255 22.855-41.349 51.112-1.324 5.237-2.361 10.314-3.431 15.559-2.331 11.414-4.823 23.622-10.802 39.997-14.212 38.922-39.511 44.797-80.791 38.332-48.947-7.667-65.459-12.974-104.38-29.486-34.794-17.692-30.375-61.392-21.538-120.56 7.29-48.799 39.225-148.657 51.682-187.609v-.002c2.648-8.277 4.415-13.803 4.88-15.505 2.651-9.715 15.179-43.237 27.397-63.584 4.995-8.32 10.367-15.887 15.406-22.985 8.333-11.739 15.756-22.195 19.061-32.651 5.051-15.986 25.343-15.94 43.3-15.9.891.002 1.777.004 2.655.004h95.473c14.14 0 23.862 0 30.932 10.597l.1.15c2.799 4.201 8.138 12.214 31.716 12.214h293.572c23.578 0 28.917-8.013 31.716-12.214l.1-.15c7.07-10.597 16.791-10.597 30.932-10.597h95.472c.878 0 1.764-.002 2.656-.004 17.956-.04 38.249-.086 43.3 15.9 3.305 10.456 10.728 20.912 19.061 32.65 5.039 7.099 10.411 14.666 15.406 22.986 12.218 20.347 24.746 53.869 27.397 63.584.464 1.701 2.229 7.219 4.872 15.483l.007.022.001.002v.002l.001.001c12.458 38.955 44.392 138.808 51.68 187.606 8.838 59.168 13.256 102.868-21.537 120.56-38.921 16.512-55.433 21.819-104.38 29.486-41.28 6.465-66.58.59-80.791-38.332-5.979-16.375-8.471-28.583-10.802-39.997-1.07-5.245-2.107-10.322-3.432-15.559-4.008-27.672-17.978-46.667-39.946-50.866-15.251 13.039-35.049 20.913-56.687 20.913-22.119 0-42.316-8.228-57.697-21.79H391.58Z" stroke="#fff" stroke-width="1.179"/><circle cx="192.94" cy="176.773" r="112.046" stroke="#fff" stroke-width="1.179"/><path d="M171.58 213.171c.214-4.257.335-5.514.857-6.576.522-1.061 1.444-1.924 4.685-4.693l8.574-7.326c2.253-1.925 3.734-3.183 4.964-3.993 1.16-.764 1.784-.912 2.281-.912.497 0 1.12.148 2.28.912 1.23.81 2.712 2.068 4.965 3.993l8.574 7.326c3.24 2.769 4.163 3.632 4.685 4.693.522 1.062.642 2.319.856 6.576l1.682 33.456c.122 2.412.191 3.914.096 5.007-.084.977-.268 1.167-.314 1.214l-.003.003-.004.004c-.044.048-.225.242-1.196.375-1.088.149-2.591.155-5.006.155h-33.231c-2.415 0-3.918-.006-5.006-.155-.971-.133-1.151-.327-1.196-.375a.014.014 0 0 1-.003-.004l-2.16 2.054 2.16-2.054-.004-.003c-.046-.047-.23-.237-.314-1.214-.094-1.093-.025-2.595.096-5.007l1.682-33.456Zm-16.216-58.937c4.257.214 5.514.334 6.576.856 1.061.522 1.924 1.444 4.693 4.685l7.326 8.574c1.925 2.253 3.183 3.734 3.993 4.964.764 1.16.911 1.784.911 2.281 0 .497-.147 1.121-.911 2.281-.81 1.23-2.068 2.711-3.993 4.964l-7.326 8.574c-2.769 3.241-3.632 4.163-4.693 4.685-1.062.522-2.319.642-6.576.857l-33.456 1.682c-2.412.121-3.914.19-5.008.096-.977-.084-1.166-.269-1.213-.314l-.004-.004a.014.014 0 0 0-.004-.003c-.047-.045-.241-.225-.374-1.197-.149-1.087-.156-2.59-.156-5.005v-33.231c0-2.416.007-3.919.156-5.006.133-.972.327-1.152.374-1.196l.004-.004.004-.004c.047-.045.236-.23 1.213-.314 1.094-.094 2.596-.025 5.008.096l33.456 1.683Zm16.216-16.217c.214 4.257.335 5.514.857 6.576.522 1.062 1.444 1.925 4.685 4.693l8.574 7.326c2.253 1.925 3.734 3.183 4.964 3.993 1.16.764 1.784.912 2.281.912.497 0 1.12-.148 2.28-.912 1.23-.81 2.712-2.068 4.965-3.993l8.574-7.326c3.24-2.768 4.163-3.631 4.685-4.693.522-1.062.642-2.319.856-6.576l1.682-33.456c.122-2.412.191-3.913.096-5.007-.084-.977-.268-1.167-.314-1.213a.033.033 0 0 0-.003-.004l-.004-.004c-.044-.048-.225-.242-1.196-.375-1.088-.149-2.591-.155-5.006-.155h-33.231c-2.415 0-3.918.006-5.006.155-.971.133-1.151.327-1.196.375a.046.046 0 0 1-.003.004l-2.16-2.054 2.16 2.054a.012.012 0 0 0-.004.004c-.046.046-.23.236-.314 1.213-.094 1.094-.025 2.595.096 5.007l1.682 33.456Zm58.938 16.217c-4.257.214-5.514.334-6.576.856-1.061.522-1.924 1.444-4.693 4.685l-7.326 8.574c-1.925 2.253-3.183 3.734-3.993 4.964-.764 1.16-.912 1.784-.912 2.281 0 .497.148 1.121.912 2.281.81 1.23 2.068 2.711 3.993 4.964l7.326 8.574c2.769 3.241 3.632 4.163 4.693 4.685l-1.323 2.692 1.323-2.692c1.062.522 2.319.642 6.576.857l33.456 1.682c2.412.121 3.914.19 5.007.096.977-.084 1.167-.269 1.214-.314l.004-.004a.014.014 0 0 1 .004-.003c.047-.045.241-.225.374-1.197.149-1.087.156-2.59.156-5.005v-33.231c0-2.416-.007-3.919-.156-5.006-.133-.972-.327-1.152-.374-1.196l-.004-.004 2.053-2.159-2.053 2.159a.008.008 0 0 1-.004-.004c-.047-.045-.237-.23-1.214-.314-1.093-.094-2.595-.025-5.007.096l-33.456 1.683Z" stroke="#fff" stroke-width="6"/><path opacity=".2" d="M700.613 23.454h-.271c-7.13 0-13.462 0-18.922 1.555.345-5.651 1.263-8.742 3.43-10.91 3.764-3.763 10.08-6.679 23.301-9.67 3.137-.71 9.256-1.246 17.022-1.575 7.716-.328 16.918-.447 26.134-.36 9.217.086 18.429.38 26.167.874 7.793.498 13.934 1.194 17.106 2.044 1.398.375 2.716.724 3.961 1.054 4.799 1.273 8.509 2.257 11.497 3.282 3.733 1.28 6.114 2.556 7.91 4.352 1.865 1.864 2.627 2.917 3.063 4.779.409 1.752.524 4.208.554 8.508-4.756-1.837-10.253-2.81-16.095-3.334-6.927-.621-14.488-.62-22.065-.603l-.546.001h-.003l-2.103.003h-80.14Zm-434.413 0h.272c7.129 0 13.461 0 18.922 1.555-.345-5.651-1.263-8.742-3.431-10.91-3.763-3.763-10.079-6.679-23.3-9.67-3.138-.71-9.256-1.246-17.023-1.575-7.715-.328-16.917-.447-26.133-.36-9.217.086-18.43.38-26.167.874-7.793.498-13.935 1.194-17.107 2.044-1.397.375-2.715.724-3.96 1.054-4.8 1.273-8.509 2.257-11.498 3.282-3.733 1.28-6.114 2.556-7.91 4.352-1.864 1.864-2.627 2.917-3.062 4.779-.41 1.752-.525 4.208-.555 8.508 4.756-1.837 10.253-2.81 16.095-3.334 6.928-.621 14.488-.62 22.065-.603h.001l.545.001h.004l2.102.003h80.14Z" stroke="#fff" stroke-width="3.538"/><path opacity=".2" d="M147.5 15.563c51.473-2.52 80.967-2.851 135.5 0m535.5 0c-51.027-2.52-80.265-2.851-134.325 0" stroke="#fff" stroke-width=".5"/></svg>