<svg width="963" height="407" viewBox="0 0 963 407" fill="none" xmlns="http://www.w3.org/2000/svg">
<path opacity="0.2" d="M213.4 344.318H258.578V352.754C258.578 354.807 256.913 356.472 254.86 356.472H213.4V344.318Z" stroke="white" stroke-width="2"/>
<path opacity="0.2" d="M119.047 344.318H164.224V356.472H122.765C120.711 356.472 119.047 354.807 119.047 352.754V344.318Z" stroke="white" stroke-width="2"/>
<path opacity="0.2" d="M166.225 344.318H211.402V356.472H166.225V344.318Z" stroke="white" stroke-width="2"/>
<path opacity="0.2" d="M671.021 344.318H727.993V352.754C727.993 354.807 726.329 356.472 724.275 356.472H674.739C672.686 356.472 671.021 354.807 671.021 352.754V344.318Z" stroke="white" stroke-width="2"/>
<path opacity="0.2" d="M662.921 355.113C659.664 355.113 657.024 357.753 657.024 361.01V380.548C657.024 382.502 658.608 384.086 660.562 384.086H678.047C682.619 384.086 685.992 388.357 684.931 392.805L682.811 401.693C682.305 403.817 680.406 405.316 678.222 405.316H579.034C576.85 405.316 574.951 403.817 574.445 401.693L572.325 392.805C571.264 388.357 574.637 384.086 579.209 384.086H597.385C599.339 384.086 600.923 382.502 600.923 380.548V361.01C600.923 357.753 598.283 355.113 595.026 355.113H573.13C568.713 355.113 564.706 352.524 562.89 348.498C561.829 344.051 565.201 343.318 569.773 343.318H670.022V352.754C670.022 353.613 670.252 354.419 670.653 355.113H662.921Z" stroke="white" stroke-width="2"/>
<path opacity="0.2" d="M733.531 344.318H790.503V352.754C790.503 354.807 788.839 356.472 786.785 356.472H737.249C735.196 356.472 733.531 354.807 733.531 352.754V344.318Z" stroke="white" stroke-width="2"/>
<path opacity="0.2" d="M794.863 344.318H851.835V352.754C851.835 354.807 850.171 356.472 848.117 356.472H798.581C796.528 356.472 794.863 354.807 794.863 352.754V344.318Z" stroke="white" stroke-width="2"/>
<path opacity="0.2" d="M358.627 361.01C358.627 357.753 361.267 355.113 364.524 355.113H385.73C390.147 355.113 394.154 352.524 395.97 348.498V348.498C397.031 344.051 393.658 343.318 389.086 343.318H271.377C266.805 343.318 263.433 344.051 264.493 348.498V348.498C266.309 352.524 270.316 355.113 274.733 355.113H296.629C299.886 355.113 302.526 357.753 302.526 361.01V380.548C302.526 382.502 300.942 384.086 298.988 384.086H280.812C276.24 384.086 272.868 388.357 273.929 392.805L276.048 401.693C276.555 403.817 278.453 405.316 280.637 405.316H379.826C382.01 405.316 383.908 403.817 384.415 401.693L386.534 392.805C387.595 388.357 384.223 384.086 379.651 384.086H362.165C360.211 384.086 358.627 382.502 358.627 380.548V361.01Z" stroke="white" stroke-width="2"/>
<path opacity="0.2" d="M322.678 339.544C322.678 328.646 322.678 320.504 323.163 314.029C323.649 307.56 324.615 302.802 326.524 298.662C330.697 289.608 337.965 282.341 347.018 278.167C351.158 276.259 355.916 275.292 362.385 274.807C368.861 274.322 377.002 274.321 387.9 274.321H572.364C583.263 274.321 591.404 274.322 597.879 274.807C604.348 275.292 609.107 276.259 613.246 278.167C622.3 282.341 629.567 289.608 633.741 298.662C635.649 302.802 636.616 307.56 637.101 314.029C637.586 320.504 637.587 328.646 637.587 339.544C637.587 340.763 637.586 341.645 637.534 342.34C637.483 343.029 637.382 343.488 637.208 343.867C636.796 344.76 636.08 345.476 635.187 345.888C634.808 346.063 634.349 346.163 633.66 346.214C632.964 346.267 632.083 346.267 630.864 346.267H478.97H419.41H329.4C328.182 346.267 327.3 346.267 326.605 346.214C325.915 346.163 325.457 346.063 325.077 345.888C324.185 345.476 323.468 344.76 323.057 343.867C322.882 343.488 322.782 343.029 322.73 342.34C322.678 341.645 322.678 340.763 322.678 339.544Z" stroke="white" stroke-width="1.17944"/>
<path opacity="0.2" d="M332.362 302.672C330.734 306.236 329.945 310.259 329.554 315.521C329.164 320.76 329.164 327.32 329.164 335.977V336.027L329.164 336.073C329.164 337.234 329.164 338.17 329.221 338.931C329.279 339.713 329.402 340.403 329.697 341.05C330.287 342.341 331.321 343.375 332.612 343.965C333.259 344.26 333.948 344.383 334.731 344.441C335.491 344.498 336.428 344.498 337.589 344.498H337.635H622.629H622.675C623.836 344.498 624.773 344.498 625.533 344.441C626.316 344.383 627.005 344.26 627.652 343.965C628.943 343.375 629.977 342.341 630.567 341.05C630.862 340.403 630.985 339.713 631.043 338.931C631.1 338.17 631.1 337.234 631.1 336.073V336.027V335.976C631.1 327.32 631.1 320.76 630.71 315.521C630.319 310.259 629.53 306.236 627.902 302.672C624.366 294.929 618.158 288.721 610.415 285.185C606.851 283.557 602.828 282.768 597.566 282.377C592.327 281.988 585.767 281.988 577.111 281.988H577.06H383.204H383.153C374.497 281.988 367.937 281.988 362.698 282.377C357.436 282.768 353.413 283.557 349.849 285.185C342.106 288.721 335.898 294.929 332.362 302.672Z" stroke="white" stroke-width="2.35887"/>
<path opacity="0.2" d="M454.775 251.322C454.775 246.437 458.736 242.477 463.621 242.477H497.825C502.71 242.477 506.67 246.437 506.67 251.322C506.67 256.208 502.71 260.168 497.825 260.168H463.621C458.736 260.168 454.775 256.208 454.775 251.322Z" stroke="white" stroke-width="1.17944"/>
<line opacity="0.2" x1="464.801" y1="251.323" x2="496.646" y2="251.323" stroke="white" stroke-width="2.35887"/>
<g opacity="0.2">
<path d="M261.321 257.221V237.887L255.5 240.063V236.371L263.401 233.484H265.675V257.221H261.321Z" fill="white"/>
<path d="M238.262 257.22V233.742H242.615V253.802H252.694V257.22H238.262Z" fill="white"/>
<path d="M140.586 215.939C140.586 211.491 140.586 209.267 141.968 207.886C143.35 206.504 145.573 206.504 150.021 206.504H275.042C279.489 206.504 281.713 206.504 283.095 207.886C284.477 209.267 284.477 211.491 284.477 215.939V250.143C284.477 276.831 284.477 290.174 276.186 298.465C267.895 306.756 254.552 306.756 227.864 306.756H211.352C177.993 306.756 161.313 306.756 150.949 296.392C140.586 286.029 140.586 269.349 140.586 235.99V215.939Z" stroke="white" stroke-width="3"/>
<path d="M140.881 228.914C140.881 226.682 140.881 225.037 141.051 223.777C141.219 222.525 141.549 221.696 142.176 221.069C142.803 220.442 143.632 220.112 144.884 219.943C146.145 219.774 147.789 219.773 150.021 219.773H275.042C277.274 219.773 278.918 219.774 280.179 219.943C281.431 220.112 282.26 220.442 282.887 221.069C283.514 221.696 283.844 222.525 284.012 223.777C284.182 225.037 284.182 226.682 284.182 228.914V250.144C284.182 263.496 284.182 273.48 283.148 281.164C282.117 288.84 280.059 294.176 275.978 298.257C271.896 302.339 266.56 304.396 258.885 305.428C251.201 306.461 241.216 306.462 227.864 306.462H211.352C194.664 306.462 182.178 306.461 172.566 305.169C162.964 303.878 156.276 301.303 151.158 296.185C146.04 291.067 143.465 284.379 142.174 274.776C140.881 265.165 140.881 252.679 140.881 235.991V228.914Z" stroke="white" stroke-width="0.589718"/>
</g>
<g opacity="0.2">
<path d="M717.952 257.221V237.887L712.131 240.063V236.371L720.032 233.484H722.306V257.221H717.952Z" fill="white"/>
<path d="M692.346 257.221V233.742H700.634C703.15 233.742 705.106 234.393 706.504 235.694C707.901 236.984 708.6 238.736 708.6 240.95C708.6 243.186 707.89 244.976 706.471 246.32C705.052 247.653 703.096 248.32 700.602 248.32H696.699V257.221H692.346ZM696.699 245.143H700.263C701.736 245.143 702.768 244.761 703.359 243.998C703.95 243.235 704.246 242.251 704.246 241.047C704.246 239.843 703.95 238.87 703.359 238.128C702.768 237.387 701.736 237.016 700.263 237.016H696.699V245.143ZM704.859 257.221L699.537 246.514L703.875 245.981L709.696 257.221H704.859Z" fill="white"/>
<path d="M820.857 215.939C820.857 211.491 820.857 209.267 819.476 207.886C818.094 206.504 815.87 206.504 811.422 206.504H686.402C681.954 206.504 679.73 206.504 678.348 207.886C676.966 209.267 676.966 211.491 676.966 215.939V250.143C676.966 276.831 676.966 290.174 685.257 298.465C693.548 306.756 706.892 306.756 733.579 306.756H750.091C783.451 306.756 800.131 306.756 810.494 296.392C820.857 286.029 820.857 269.349 820.857 235.99V215.939Z" stroke="white" stroke-width="3"/>
<path d="M820.563 228.914C820.563 226.682 820.562 225.037 820.392 223.777C820.224 222.525 819.894 221.696 819.267 221.069C818.64 220.442 817.811 220.112 816.559 219.943C815.299 219.774 813.654 219.773 811.422 219.773H686.402C684.17 219.773 682.525 219.774 681.264 219.943C680.012 220.112 679.184 220.442 678.557 221.069C677.93 221.696 677.6 222.525 677.431 223.777C677.262 225.037 677.261 226.682 677.261 228.914V250.144C677.261 263.496 677.262 273.48 678.295 281.164C679.327 288.84 681.384 294.176 685.466 298.257C689.547 302.339 694.883 304.396 702.559 305.428C710.243 306.461 720.227 306.462 733.579 306.462H750.091C766.779 306.462 779.266 306.461 788.877 305.169C798.479 303.878 805.168 301.303 810.285 296.185C815.403 291.067 817.979 284.379 819.27 274.776C820.562 265.165 820.563 252.679 820.563 235.991V228.914Z" stroke="white" stroke-width="0.589718"/>
</g>
<path opacity="0.2" d="M135.738 207.405V238.014C135.738 272.643 136.917 288.778 147.96 299.536C159.003 310.294 175.597 311.474 211.144 311.474H228.739C257.177 311.474 271.384 309.322 280.219 300.716C289.053 292.109 289.064 280.409 289.064 252.706V207.405C289.064 206.247 289.064 205.235 289.041 204.344C289.064 203.454 289.064 202.441 289.064 201.284V106.127C289.064 99.0143 289.064 95.4579 288.657 92.5615C285.738 71.8165 267.857 56.1646 246.372 55.5482C243.373 55.4622 232.452 56.4085 229.503 56.7158C226.554 57.0231 214.81 58.445 209.733 59.56C173.801 67.4504 146.364 95.7708 140.355 131.172C139.506 136.175 138.037 141.94 137.457 153.47L135.738 207.405Z" stroke="white" stroke-width="0.589718"/>
<path opacity="0.2" d="M825.707 207.405V238.014C825.707 272.643 824.528 288.778 813.485 299.536C802.442 310.294 785.848 311.474 750.301 311.474H732.706C704.268 311.474 690.061 309.322 681.227 300.716C672.392 292.109 672.381 280.409 672.381 252.706V207.405C672.381 206.247 672.381 205.235 672.404 204.344C672.381 203.454 672.381 202.441 672.381 201.284V106.127C672.381 99.0143 672.381 95.4579 672.788 92.5615C675.708 71.8165 693.589 56.1646 715.073 55.5482C718.073 55.4622 728.994 56.4085 731.942 56.7158C734.891 57.0231 746.635 58.445 751.713 59.56C787.644 67.4504 815.081 95.7708 821.09 131.172C821.939 136.175 823.409 141.94 823.989 153.47L825.707 207.405Z" stroke="white" stroke-width="0.589718"/>
<path d="M254.435 168.761V165.988L262.562 156.925C263.465 155.915 264.18 154.98 264.706 154.12C265.233 153.249 265.496 152.346 265.496 151.411C265.496 150.422 265.212 149.631 264.642 149.04C264.083 148.438 263.298 148.137 262.288 148.137C261.266 148.137 260.428 148.476 259.772 149.153C259.116 149.82 258.788 150.868 258.788 152.297V152.717H254.402V152.088C254.402 149.938 255.133 148.196 256.595 146.863C258.057 145.52 259.96 144.848 262.304 144.848C264.733 144.848 266.604 145.45 267.915 146.654C269.237 147.847 269.899 149.368 269.899 151.217C269.899 152.733 269.517 154.087 268.754 155.281C267.99 156.474 267.012 157.721 265.819 159.022L260.288 165.262H270.447V168.761H254.435Z" fill="white"/>
<path d="M238.262 168.761V145.283H242.615V165.343H252.694V168.761H238.262Z" fill="white"/>
<path d="M141.026 192.225C140.859 195.404 140.776 196.993 141.432 198.177C141.82 198.877 142.379 199.466 143.058 199.89C144.205 200.607 145.797 200.607 148.98 200.607H275.042C279.489 200.607 281.713 200.607 283.095 199.226C284.477 197.844 284.477 195.62 284.477 191.172V109.058C284.477 102.098 284.477 98.6183 284.082 95.785C281.309 75.8728 264.595 60.8541 244.5 60.2193C241.641 60.129 238.181 60.4999 231.261 61.2417V61.2417C220.067 62.4417 214.47 63.0417 209.644 64.1373C176.133 71.7444 150.509 98.7979 144.732 132.672C143.9 137.551 143.604 143.172 143.014 154.415L141.026 192.225Z" stroke="white" stroke-width="6"/>
<path d="M141.325 181.13C141.252 182.391 141.199 183.32 141.212 184.057C141.225 184.791 141.305 185.31 141.484 185.753C141.9 186.782 142.688 187.617 143.692 188.092C144.124 188.297 144.638 188.406 145.37 188.462C146.105 188.517 147.036 188.518 148.298 188.518H275.042C277.274 188.518 278.918 188.517 280.179 188.348C281.431 188.179 282.26 187.849 282.887 187.222C283.514 186.595 283.844 185.766 284.012 184.514C284.182 183.254 284.182 181.609 284.182 179.377V109.23C284.182 102.101 284.181 98.5678 283.772 95.6969C280.97 76.0325 264.471 61.2076 244.62 60.5177C241.722 60.417 238.209 60.7928 231.12 61.5528C219.718 62.7751 214.042 63.3841 209.147 64.5066C176.059 72.0949 150.708 98.7218 144.752 132.143C143.871 137.086 143.541 142.785 142.879 154.234L141.325 181.13Z" stroke="white" stroke-width="0.589718"/>
<path d="M711.067 168.761V165.988L719.194 156.925C720.097 155.915 720.812 154.98 721.339 154.12C721.866 153.249 722.129 152.346 722.129 151.411C722.129 150.422 721.844 149.631 721.275 149.04C720.716 148.438 719.931 148.137 718.92 148.137C717.899 148.137 717.061 148.476 716.405 149.153C715.749 149.82 715.421 150.868 715.421 152.297V152.717H711.035V152.088C711.035 149.938 711.766 148.196 713.228 146.863C714.69 145.52 716.593 144.848 718.936 144.848C721.366 144.848 723.236 145.45 724.548 146.654C725.87 147.847 726.531 149.368 726.531 151.217C726.531 152.733 726.15 154.087 725.386 155.281C724.623 156.474 723.645 157.721 722.452 159.022L716.921 165.262H727.08V168.761H711.067Z" fill="white"/>
<path d="M692.346 168.761V145.283H700.634C703.15 145.283 705.106 145.933 706.504 147.234C707.901 148.524 708.6 150.276 708.6 152.491C708.6 154.727 707.89 156.517 706.471 157.861C705.052 159.194 703.096 159.86 700.602 159.86H696.699V168.761H692.346ZM696.699 156.683H700.263C701.736 156.683 702.768 156.302 703.359 155.539C703.95 154.775 704.246 153.792 704.246 152.588C704.246 151.384 703.95 150.411 703.359 149.669C702.768 148.927 701.736 148.556 700.263 148.556H696.699V156.683ZM704.859 168.761L699.537 158.054L703.875 157.522L709.696 168.761H704.859Z" fill="white"/>
<path d="M820.417 192.225C820.584 195.404 820.667 196.993 820.012 198.177C819.624 198.877 819.064 199.466 818.385 199.89C817.238 200.607 815.647 200.607 812.463 200.607H686.402C681.954 200.607 679.73 200.607 678.348 199.226C676.966 197.844 676.966 195.62 676.966 191.172V109.058C676.966 102.098 676.966 98.6183 677.361 95.785C680.134 75.8728 696.849 60.8541 716.943 60.2193C719.802 60.129 723.262 60.4999 730.182 61.2417V61.2417C741.376 62.4417 746.973 63.0417 751.8 64.1373C785.311 71.7444 810.934 98.7979 816.711 132.672C817.544 137.551 817.839 143.172 818.43 154.415L820.417 192.225Z" stroke="white" stroke-width="6"/>
<path d="M820.118 181.13C820.191 182.391 820.244 183.32 820.231 184.057C820.218 184.791 820.139 185.31 819.959 185.753C819.543 186.782 818.755 187.617 817.752 188.092C817.319 188.297 816.806 188.406 816.073 188.462C815.338 188.517 814.408 188.518 813.145 188.518H686.402C684.17 188.518 682.525 188.517 681.264 188.348C680.012 188.179 679.184 187.849 678.557 187.222C677.93 186.595 677.6 185.766 677.431 184.514C677.262 183.254 677.261 181.609 677.261 179.377V109.23C677.261 102.101 677.262 98.5678 677.671 95.6969C680.473 76.0325 696.972 61.2076 716.823 60.5177C719.721 60.417 723.234 60.7928 730.323 61.5528C741.726 62.7751 747.402 63.3841 752.296 64.5066C785.385 72.0949 810.736 98.7218 816.692 132.143C817.573 137.086 817.903 142.785 818.564 154.234L820.118 181.13Z" stroke="white" stroke-width="0.589718"/>
<path opacity="0.2" d="M318.093 341.368C318.093 321.317 309.836 317.189 290.376 317.189C263.838 317.189 210.764 317.189 180.098 317.189C149.433 317.189 129.972 300.451 129.972 265.476C129.972 236.172 129.239 232.084 129.973 211.222C131.611 164.634 122.765 106.726 169.352 72.638C213.51 40.328 254.993 50.0462 263.249 53.5845C278.581 60.1556 296.862 75.9939 296.862 103.711C296.862 130.274 290.376 159.736 323.859 153.25" stroke="white" stroke-width="1.17944"/>
<path opacity="0.2" d="M642.762 341.369C642.762 321.318 651.019 317.19 670.48 317.19C697.017 317.19 751.271 317.19 781.937 317.19C812.602 317.19 832.062 309.524 832.062 267.654C832.062 225.784 832.062 218.707 832.062 197.477C832.062 176.248 836.779 97.2275 789.603 69.5087C742.427 41.7906 707.042 50.0476 698.786 53.5859C683.454 60.157 665.172 75.9952 665.172 103.712C665.172 130.276 671.659 159.738 638.176 153.251" stroke="white" stroke-width="1.17944"/>
<path opacity="0.2" d="M635.072 149.464C511.47 131.343 434.013 132.056 318.31 150.612C312.887 151.089 309.24 150.275 306.737 148.816C304.259 147.372 302.547 145.086 301.384 141.901C300.201 138.661 299.639 134.618 299.442 129.921C299.246 125.237 299.419 120.117 299.602 114.746L299.602 114.728C299.73 110.977 299.862 107.114 299.862 103.301C299.862 74.009 280.474 57.2934 264.43 50.4172C257.207 47.322 232.941 41.5507 199.368 53.2178C180.462 28.5376 154.81 6.77634 123.051 3.72262C91.8297 0.720552 61.9826 7.22149 39.8417 20.4815C17.6943 33.7454 3 53.9776 3 78.3231C3 101.761 9.29192 131.579 18.3065 162.317C27.3373 193.111 39.1703 225.055 50.3961 252.824C52.1607 257.189 53.8404 261.453 55.4369 265.603L55.4952 265.754C63.0647 285.429 68.8176 300.382 74.2698 311.491C79.7316 322.62 85.0838 330.314 92.0659 335.109C99.0078 339.876 107.504 342.126 118.783 343.235C129.997 344.337 144.342 344.337 163.162 344.337H163.336H799.288H799.463C818.282 344.337 832.628 344.337 843.841 343.235C855.121 342.126 863.617 339.876 870.559 335.109C877.541 330.314 882.893 322.62 888.355 311.491C893.807 300.382 899.56 285.429 907.129 265.754L907.188 265.603C908.784 261.453 910.464 257.189 912.229 252.824C923.454 225.055 935.287 193.111 944.318 162.317C953.333 131.579 959.625 101.761 959.625 78.3231C959.625 53.9776 944.93 33.7454 922.783 20.4815C900.642 7.22149 870.795 0.720552 839.573 3.72262C807.746 6.78299 782.051 28.6324 763.132 53.3804C729.317 41.4972 704.86 47.3079 697.605 50.4172C681.561 57.2934 662.173 74.009 662.173 103.301C662.173 107.115 662.305 110.977 662.433 114.729L662.433 114.746C662.629 120.488 662.812 125.94 662.547 130.87C662.282 135.82 661.573 139.97 660.138 143.167C658.749 146.26 656.702 148.429 653.588 149.635C650.355 150.888 645.642 151.23 638.748 149.894L635.063 149.181L635.072 149.464Z" stroke="white" stroke-width="6"/>
<path opacity="0.2" d="M832.298 219.41C844.969 210.708 889.15 228.647 904.388 189.041C905.99 184.876 907.676 180.597 909.447 176.216C931.856 120.783 956.625 124.321 956.625 78.3231C956.625 32.3251 901.191 0.811673 839.861 6.70885C808.527 9.7217 783.042 31.7348 764.194 56.9513C730.008 44.3352 705.481 50.3059 698.787 53.1747C683.455 59.7457 665.173 75.5839 665.173 103.301C665.173 107.061 665.303 110.879 665.431 114.644C666.209 137.484 666.921 158.408 638.177 152.84L638.181 152.955C512.758 134.336 435.231 134.892 318.682 153.591C295.206 155.716 295.876 136.019 296.604 114.644C296.732 110.879 296.862 107.061 296.862 103.301C296.862 75.5839 278.58 59.7457 263.248 53.1747C256.584 50.3188 232.248 44.3891 198.304 56.7815C179.468 31.636 154.027 9.71493 122.764 6.70885C61.4334 0.811673 6 32.3251 6 78.3231C6 124.321 30.7681 120.783 53.1774 176.216C54.9485 180.597 56.6343 184.876 58.2369 189.041C73.4743 228.647 116.476 210.708 129.147 219.41" stroke="white" stroke-width="1.17944"/>
<path opacity="0.2" d="M289.064 218.298C437.201 227.702 521.118 227.766 672.381 218.298" stroke="white" stroke-width="1.17944"/>
</svg>
