<svg width="963" height="407" viewBox="0 0 963 407" fill="none" xmlns="http://www.w3.org/2000/svg">
<path d="M213.4 344.85H258.578V353.285C258.578 355.338 256.913 357.003 254.86 357.003H213.4V344.85Z" stroke="white" stroke-width="2"/>
<path d="M119.047 344.85H164.224V357.003H122.765C120.711 357.003 119.047 355.338 119.047 353.285V344.85Z" stroke="white" stroke-width="2"/>
<path d="M166.225 344.85H211.402V357.003H166.225V344.85Z" stroke="white" stroke-width="2"/>
<path d="M671.021 344.85H727.993V353.285C727.993 355.338 726.329 357.003 724.275 357.003H674.739C672.686 357.003 671.021 355.338 671.021 353.285V344.85Z" stroke="white" stroke-width="2"/>
<path d="M662.921 355.644C659.664 355.644 657.024 358.284 657.024 361.541V381.079C657.024 383.034 658.608 384.618 660.562 384.618H678.047C682.619 384.618 685.992 388.889 684.931 393.336L682.811 402.224C682.305 404.349 680.406 405.848 678.222 405.848H579.034C576.85 405.848 574.951 404.349 574.445 402.224L572.325 393.336C571.264 388.889 574.637 384.618 579.209 384.618H597.385C599.339 384.618 600.923 383.034 600.923 381.079V361.541C600.923 358.284 598.283 355.644 595.026 355.644H573.13C568.713 355.644 564.706 353.056 562.89 349.03C561.829 344.582 565.201 343.85 569.773 343.85H670.022V353.285C670.022 354.144 670.252 354.95 670.653 355.644H662.921Z" stroke="white" stroke-width="2"/>
<path d="M733.531 344.85H790.503V353.285C790.503 355.338 788.839 357.003 786.785 357.003H737.249C735.196 357.003 733.531 355.338 733.531 353.285V344.85Z" stroke="white" stroke-width="2"/>
<path d="M794.863 344.85H851.835V353.285C851.835 355.338 850.171 357.003 848.117 357.003H798.581C796.528 357.003 794.863 355.338 794.863 353.285V344.85Z" stroke="white" stroke-width="2"/>
<path d="M358.627 361.541C358.627 358.284 361.267 355.644 364.524 355.644H385.73C390.147 355.644 394.154 353.056 395.97 349.03V349.03C397.031 344.582 393.658 343.85 389.086 343.85H271.377C266.805 343.85 263.433 344.582 264.493 349.03V349.03C266.309 353.056 270.316 355.644 274.733 355.644H296.629C299.886 355.644 302.526 358.284 302.526 361.541V381.079C302.526 383.034 300.942 384.618 298.988 384.618H280.812C276.24 384.618 272.868 388.889 273.929 393.336L276.048 402.224C276.555 404.349 278.453 405.848 280.637 405.848H379.826C382.01 405.848 383.908 404.349 384.415 402.224L386.534 393.336C387.595 388.889 384.223 384.618 379.651 384.618H362.165C360.211 384.618 358.627 383.034 358.627 381.079V361.541Z" stroke="white" stroke-width="2"/>
<path d="M322.678 340.075C322.678 329.177 322.678 321.036 323.163 314.56C323.649 308.091 324.615 303.333 326.524 299.193C330.697 290.14 337.965 282.872 347.018 278.699C351.158 276.79 355.916 275.824 362.385 275.339C368.861 274.853 377.002 274.853 387.9 274.853H572.364C583.263 274.853 591.404 274.853 597.879 275.339C604.348 275.824 609.107 276.79 613.246 278.699C622.3 282.872 629.567 290.14 633.741 299.193C635.649 303.333 636.616 308.091 637.101 314.56C637.586 321.036 637.587 329.177 637.587 340.075C637.587 341.294 637.586 342.176 637.534 342.871C637.483 343.56 637.382 344.019 637.208 344.398C636.796 345.291 636.08 346.008 635.187 346.419C634.808 346.594 634.349 346.694 633.66 346.746C632.964 346.798 632.083 346.798 630.864 346.798H478.97H419.41H329.4C328.182 346.798 327.3 346.798 326.605 346.746C325.915 346.694 325.457 346.594 325.077 346.419C324.185 346.008 323.468 345.291 323.057 344.398C322.882 344.019 322.782 343.56 322.73 342.871C322.678 342.176 322.678 341.294 322.678 340.075Z" stroke="white" stroke-width="1.17944"/>
<path d="M332.362 303.203C330.734 306.767 329.945 310.791 329.554 316.052C329.164 321.291 329.164 327.852 329.164 336.508V336.558L329.164 336.604C329.164 337.765 329.164 338.702 329.221 339.462C329.279 340.245 329.402 340.935 329.697 341.581C330.287 342.872 331.321 343.907 332.612 344.496C333.259 344.791 333.948 344.914 334.731 344.972C335.491 345.029 336.428 345.029 337.589 345.029H337.635H622.629H622.675C623.836 345.029 624.773 345.029 625.533 344.972C626.316 344.914 627.005 344.791 627.652 344.496C628.943 343.907 629.977 342.872 630.567 341.581C630.862 340.935 630.985 340.245 631.043 339.462C631.1 338.702 631.1 337.765 631.1 336.604V336.558V336.508C631.1 327.851 631.1 321.291 630.71 316.052C630.319 310.791 629.53 306.767 627.902 303.203C624.366 295.461 618.158 289.252 610.415 285.716C606.851 284.089 602.828 283.3 597.566 282.908C592.327 282.519 585.767 282.519 577.111 282.519H577.06H383.204H383.153C374.497 282.519 367.937 282.519 362.698 282.908C357.436 283.3 353.413 284.089 349.849 285.716C342.106 289.252 335.898 295.461 332.362 303.203Z" stroke="white" stroke-width="2.35887"/>
<path d="M454.775 251.854C454.775 246.968 458.736 243.008 463.621 243.008H497.825C502.71 243.008 506.67 246.968 506.67 251.854C506.67 256.739 502.71 260.699 497.825 260.699H463.621C458.736 260.699 454.775 256.739 454.775 251.854Z" stroke="white" stroke-width="1.17944"/>
<line x1="464.801" y1="251.854" x2="496.646" y2="251.854" stroke="white" stroke-width="2.35887"/>
<path d="M261.321 257.752V238.418L255.5 240.595V236.902L263.401 234.016H265.675V257.752H261.321Z" fill="white"/>
<path d="M238.262 257.752V234.273H242.615V254.333H252.694V257.752H238.262Z" fill="white"/>
<path d="M140.586 216.471C140.586 212.023 140.586 209.799 141.968 208.417C143.35 207.035 145.573 207.035 150.021 207.035H275.042C279.489 207.035 281.713 207.035 283.095 208.417C284.477 209.799 284.477 212.023 284.477 216.471V250.674C284.477 277.362 284.477 290.706 276.186 298.996C267.895 307.287 254.552 307.287 227.864 307.287H211.352C177.993 307.287 161.313 307.287 150.949 296.924C140.586 286.56 140.586 269.88 140.586 236.521V216.471Z" stroke="white" stroke-width="3"/>
<path d="M140.881 229.445C140.881 227.213 140.881 225.568 141.051 224.308C141.219 223.056 141.549 222.227 142.176 221.6C142.803 220.973 143.632 220.643 144.884 220.475C146.145 220.305 147.789 220.305 150.021 220.305H275.042C277.274 220.305 278.918 220.305 280.179 220.475C281.431 220.643 282.26 220.973 282.887 221.6C283.514 222.227 283.844 223.056 284.012 224.308C284.182 225.568 284.182 227.213 284.182 229.445V250.675C284.182 264.027 284.182 274.012 283.148 281.696C282.117 289.371 280.059 294.707 275.978 298.789C271.896 302.87 266.56 304.927 258.885 305.959C251.201 306.992 241.216 306.993 227.864 306.993H211.352C194.664 306.993 182.178 306.992 172.566 305.7C162.964 304.409 156.276 301.834 151.158 296.716C146.04 291.598 143.465 284.91 142.174 275.307C140.881 265.696 140.881 253.21 140.881 236.522V229.445Z" stroke="white" stroke-width="0.589718"/>
<path d="M717.952 257.752V238.418L712.131 240.595V236.902L720.032 234.016H722.306V257.752H717.952Z" fill="white"/>
<path d="M692.346 257.752V234.274H700.634C703.15 234.274 705.106 234.924 706.504 236.225C707.901 237.515 708.6 239.267 708.6 241.482C708.6 243.718 707.89 245.507 706.471 246.851C705.052 248.184 703.096 248.851 700.602 248.851H696.699V257.752H692.346ZM696.699 245.674H700.263C701.736 245.674 702.768 245.292 703.359 244.529C703.95 243.766 704.246 242.782 704.246 241.578C704.246 240.374 703.95 239.401 703.359 238.66C702.768 237.918 701.736 237.547 700.263 237.547H696.699V245.674ZM704.859 257.752L699.537 247.045L703.875 246.513L709.696 257.752H704.859Z" fill="white"/>
<path d="M820.857 216.471C820.857 212.023 820.857 209.799 819.476 208.417C818.094 207.035 815.87 207.035 811.422 207.035H686.402C681.954 207.035 679.73 207.035 678.348 208.417C676.966 209.799 676.966 212.023 676.966 216.471V250.674C676.966 277.362 676.966 290.706 685.257 298.996C693.548 307.287 706.892 307.287 733.579 307.287H750.091C783.451 307.287 800.131 307.287 810.494 296.924C820.857 286.56 820.857 269.88 820.857 236.521V216.471Z" stroke="white" stroke-width="3"/>
<path d="M820.563 229.445C820.563 227.213 820.562 225.568 820.392 224.308C820.224 223.056 819.894 222.227 819.267 221.6C818.64 220.973 817.811 220.643 816.559 220.475C815.299 220.305 813.654 220.305 811.422 220.305H686.402C684.17 220.305 682.525 220.305 681.264 220.475C680.012 220.643 679.184 220.973 678.557 221.6C677.93 222.227 677.6 223.056 677.431 224.308C677.262 225.568 677.261 227.213 677.261 229.445V250.675C677.261 264.027 677.262 274.012 678.295 281.696C679.327 289.371 681.384 294.707 685.466 298.789C689.547 302.87 694.883 304.927 702.559 305.959C710.243 306.992 720.227 306.993 733.579 306.993H750.091C766.779 306.993 779.266 306.992 788.877 305.7C798.479 304.409 805.168 301.834 810.285 296.716C815.403 291.598 817.979 284.91 819.27 275.307C820.562 265.696 820.563 253.21 820.563 236.522V229.445Z" stroke="white" stroke-width="0.589718"/>
<path d="M135.738 207.936V238.545C135.738 273.174 136.917 289.309 147.96 300.067C159.003 310.825 175.597 312.005 211.144 312.005H228.739C257.177 312.005 271.384 309.853 280.219 301.247C289.053 292.64 289.064 280.94 289.064 253.237V207.936C289.064 206.778 289.064 205.766 289.041 204.875C289.064 203.985 289.064 202.972 289.064 201.815V106.658C289.064 99.5453 289.064 95.9889 288.657 93.0925C285.738 72.3475 267.857 56.6957 246.372 56.0792C243.373 55.9932 232.452 56.9395 229.503 57.2468C226.554 57.5542 214.81 58.976 209.733 60.091C173.801 67.9814 146.364 96.3018 140.355 131.703C139.506 136.706 138.037 142.471 137.457 154.001L135.738 207.936Z" stroke="white" stroke-width="0.589718"/>
<path d="M825.707 207.936V238.545C825.707 273.174 824.528 289.309 813.485 300.067C802.442 310.825 785.848 312.005 750.301 312.005H732.706C704.268 312.005 690.061 309.853 681.227 301.247C672.392 292.64 672.381 280.94 672.381 253.237V207.936C672.381 206.778 672.381 205.766 672.404 204.875C672.381 203.985 672.381 202.972 672.381 201.815V106.658C672.381 99.5453 672.381 95.9889 672.788 93.0925C675.708 72.3475 693.589 56.6957 715.073 56.0792C718.073 55.9932 728.994 56.9395 731.942 57.2468C734.891 57.5542 746.635 58.976 751.713 60.091C787.644 67.9814 815.081 96.3018 821.09 131.703C821.939 136.706 823.409 142.471 823.989 154.001L825.707 207.936Z" stroke="white" stroke-width="0.589718"/>
<path d="M254.435 169.292V166.519L262.562 157.457C263.465 156.446 264.18 155.511 264.706 154.651C265.233 153.78 265.496 152.877 265.496 151.942C265.496 150.953 265.212 150.163 264.642 149.571C264.083 148.969 263.298 148.668 262.288 148.668C261.266 148.668 260.428 149.007 259.772 149.684C259.116 150.351 258.788 151.399 258.788 152.829V153.248H254.402V152.619C254.402 150.469 255.133 148.728 256.595 147.395C258.057 146.051 259.96 145.379 262.304 145.379C264.733 145.379 266.604 145.981 267.915 147.185C269.237 148.378 269.899 149.899 269.899 151.748C269.899 153.264 269.517 154.619 268.754 155.812C267.99 157.005 267.012 158.252 265.819 159.553L260.288 165.793H270.447V169.292H254.435Z" fill="white"/>
<path d="M238.262 169.292V145.814H242.615V165.874H252.694V169.292H238.262Z" fill="white"/>
<path d="M141.026 192.756C140.859 195.935 140.776 197.524 141.432 198.708C141.82 199.408 142.379 199.998 143.058 200.422C144.205 201.139 145.797 201.139 148.98 201.139H275.042C279.489 201.139 281.713 201.139 283.095 199.757C284.477 198.375 284.477 196.151 284.477 191.703V109.589C284.477 102.629 284.477 99.1495 284.082 96.3162C281.309 76.404 264.595 61.3854 244.5 60.7505C241.641 60.6602 238.181 61.0311 231.261 61.773V61.773C220.067 62.973 214.47 63.573 209.644 64.6685C176.133 72.2756 150.509 99.3291 144.732 133.203C143.9 138.082 143.604 143.703 143.014 154.946L141.026 192.756Z" stroke="white" stroke-width="3"/>
<path d="M141.325 181.661C141.252 182.922 141.199 183.851 141.212 184.588C141.225 185.322 141.305 185.841 141.484 186.285C141.9 187.314 142.688 188.149 143.692 188.624C144.124 188.828 144.638 188.938 145.37 188.993C146.105 189.049 147.036 189.049 148.298 189.049H275.042C277.274 189.049 278.918 189.048 280.179 188.879C281.431 188.71 282.26 188.38 282.887 187.753C283.514 187.126 283.844 186.298 284.012 185.046C284.182 183.785 284.182 182.141 284.182 179.908V109.762C284.182 102.632 284.181 99.0991 283.772 96.2282C280.97 76.5638 264.471 61.7389 244.62 61.049C241.722 60.9482 238.209 61.3241 231.12 62.084C219.718 63.3064 214.042 63.9154 209.147 65.0379C176.059 72.6262 150.708 99.2531 144.752 132.674C143.871 137.618 143.541 143.317 142.879 154.765L141.325 181.661Z" stroke="white" stroke-width="0.589718"/>
<path d="M711.067 169.292V166.519L719.194 157.457C720.097 156.446 720.812 155.511 721.339 154.651C721.866 153.78 722.129 152.877 722.129 151.942C722.129 150.953 721.844 150.163 721.275 149.571C720.716 148.969 719.931 148.668 718.92 148.668C717.899 148.668 717.061 149.007 716.405 149.684C715.749 150.351 715.421 151.399 715.421 152.829V153.248H711.035V152.619C711.035 150.469 711.766 148.728 713.228 147.395C714.69 146.051 716.593 145.379 718.936 145.379C721.366 145.379 723.236 145.981 724.548 147.185C725.87 148.378 726.531 149.899 726.531 151.748C726.531 153.264 726.15 154.619 725.386 155.812C724.623 157.005 723.645 158.252 722.452 159.553L716.921 165.793H727.08V169.292H711.067Z" fill="white"/>
<path d="M692.346 169.293V145.814H700.634C703.15 145.814 705.106 146.465 706.504 147.766C707.901 149.056 708.6 150.808 708.6 153.022C708.6 155.258 707.89 157.048 706.471 158.392C705.052 159.725 703.096 160.392 700.602 160.392H696.699V169.293H692.346ZM696.699 157.215H700.263C701.736 157.215 702.768 156.833 703.359 156.07C703.95 155.307 704.246 154.323 704.246 153.119C704.246 151.915 703.95 150.942 703.359 150.2C702.768 149.459 701.736 149.088 700.263 149.088H696.699V157.215ZM704.859 169.293L699.537 158.586L703.875 158.053L709.696 169.293H704.859Z" fill="white"/>
<path d="M820.417 192.756C820.584 195.935 820.667 197.524 820.012 198.708C819.624 199.408 819.064 199.998 818.385 200.422C817.238 201.139 815.647 201.139 812.463 201.139H686.402C681.954 201.139 679.73 201.139 678.348 199.757C676.966 198.375 676.966 196.151 676.966 191.703V109.589C676.966 102.629 676.966 99.1495 677.361 96.3162C680.134 76.404 696.849 61.3854 716.943 60.7505C719.802 60.6602 723.262 61.0311 730.182 61.773V61.773C741.376 62.973 746.973 63.573 751.8 64.6685C785.311 72.2756 810.934 99.3291 816.711 133.203C817.544 138.082 817.839 143.703 818.43 154.946L820.417 192.756Z" stroke="white" stroke-width="3"/>
<path d="M820.118 181.661C820.191 182.922 820.244 183.851 820.231 184.588C820.218 185.322 820.139 185.841 819.959 186.285C819.543 187.314 818.755 188.149 817.752 188.624C817.319 188.828 816.806 188.938 816.073 188.993C815.338 189.049 814.408 189.049 813.145 189.049H686.402C684.17 189.049 682.525 189.048 681.264 188.879C680.012 188.71 679.184 188.38 678.557 187.753C677.93 187.126 677.6 186.298 677.431 185.046C677.262 183.785 677.261 182.141 677.261 179.908V109.762C677.261 102.632 677.262 99.0991 677.671 96.2282C680.473 76.5638 696.972 61.7389 716.823 61.049C719.721 60.9482 723.234 61.3241 730.323 62.084C741.726 63.3064 747.402 63.9154 752.296 65.0379C785.385 72.6262 810.736 99.2531 816.692 132.674C817.573 137.618 817.903 143.317 818.564 154.765L820.118 181.661Z" stroke="white" stroke-width="0.589718"/>
<path d="M318.093 341.899C318.093 321.848 309.836 317.72 290.376 317.72C263.838 317.72 210.764 317.72 180.098 317.72C149.433 317.72 129.972 300.982 129.972 266.007C129.972 236.703 129.239 232.616 129.973 211.753C131.611 165.165 122.765 107.257 169.352 73.1692C213.51 40.8592 254.993 50.5775 263.249 54.1158C278.581 60.6869 296.862 76.5251 296.862 104.242C296.862 130.806 290.376 160.268 323.859 153.781" stroke="white" stroke-width="1.17944"/>
<path d="M642.762 341.9C642.762 321.85 651.019 317.721 670.48 317.721C697.017 317.721 751.271 317.721 781.937 317.721C812.602 317.721 832.062 310.055 832.062 268.185C832.062 226.315 832.062 219.239 832.062 198.009C832.062 176.779 836.779 97.7587 789.603 70.04C742.427 42.3218 707.042 50.5789 698.786 54.1172C683.454 60.6882 665.172 76.5265 665.172 104.244C665.172 130.807 671.659 160.269 638.176 153.782" stroke="white" stroke-width="1.17944"/>
<path d="M635.072 149.995C511.47 131.874 434.013 132.587 318.31 151.143C312.887 151.62 309.24 150.807 306.737 149.347C304.259 147.903 302.547 145.618 301.384 142.432C300.201 139.192 299.639 135.149 299.442 130.452C299.246 125.768 299.419 120.648 299.602 115.278L299.602 115.259C299.73 111.508 299.862 107.645 299.862 103.832C299.862 74.5403 280.474 57.8246 264.43 50.9485C257.207 47.8533 232.941 42.082 199.368 53.749C180.462 29.0689 154.81 7.30759 123.051 4.25387C91.8297 1.2518 61.9826 7.75274 39.8417 21.0128C17.6943 34.2767 3 54.5089 3 78.8543C3 102.292 9.29192 132.111 18.3065 162.849C27.3373 193.643 39.1703 225.587 50.3961 253.356C52.1607 257.721 53.8404 261.984 55.4369 266.134L55.4952 266.285C63.0647 285.96 68.8176 300.913 74.2698 312.022C79.7316 323.151 85.0838 330.845 92.0659 335.64C99.0078 340.407 107.504 342.658 118.783 343.766C129.997 344.868 144.342 344.868 163.162 344.868H163.336H799.288H799.463C818.282 344.868 832.628 344.868 843.841 343.766C855.121 342.658 863.617 340.407 870.559 335.64C877.541 330.845 882.893 323.151 888.355 312.022C893.807 300.913 899.56 285.96 907.129 266.285L907.188 266.134C908.784 261.984 910.464 257.721 912.229 253.356C923.454 225.587 935.287 193.643 944.318 162.849C953.333 132.111 959.625 102.292 959.625 78.8543C959.625 54.5089 944.93 34.2767 922.783 21.0128C900.642 7.75274 870.795 1.2518 839.573 4.25387C807.746 7.31424 782.051 29.1637 763.132 53.9116C729.317 42.0285 704.86 47.8391 697.605 50.9485C681.561 57.8246 662.173 74.5403 662.173 103.832C662.173 107.646 662.305 111.509 662.433 115.26L662.433 115.278C662.629 121.019 662.812 126.471 662.547 131.402C662.282 136.351 661.573 140.501 660.138 143.698C658.749 146.791 656.702 148.96 653.588 150.167C650.355 151.419 645.642 151.761 638.748 150.426L635.063 149.712L635.072 149.995Z" stroke="white" stroke-width="6"/>
<path d="M832.298 219.941C844.969 211.239 889.15 229.178 904.388 189.573C905.99 185.407 907.676 181.128 909.447 176.747C931.856 121.314 956.625 124.852 956.625 78.8543C956.625 32.8563 901.191 1.34292 839.861 7.2401C808.527 10.2529 783.042 32.2661 764.194 57.4825C730.008 44.8665 705.481 50.8371 698.787 53.7059C683.455 60.277 665.173 76.1152 665.173 103.832C665.173 107.592 665.303 111.41 665.431 115.176C666.209 138.016 666.921 158.94 638.177 153.371L638.181 153.486C512.758 134.868 435.231 135.423 318.682 154.122C295.206 156.247 295.876 136.55 296.604 115.176C296.732 111.41 296.862 107.592 296.862 103.832C296.862 76.1152 278.58 60.277 263.248 53.7059C256.584 50.8501 232.248 44.9203 198.304 57.3127C179.468 32.1673 154.027 10.2462 122.764 7.2401C61.4334 1.34292 6 32.8563 6 78.8543C6 124.852 30.7681 121.314 53.1774 176.747C54.9485 181.128 56.6343 185.407 58.2369 189.573C73.4743 229.178 116.476 211.239 129.147 219.941" stroke="white" stroke-width="1.17944"/>
<path d="M289.064 218.83C437.201 228.233 521.118 228.297 672.381 218.83" stroke="white" stroke-width="1.17944"/>
</svg>
