<svg width="968" height="603" viewBox="0 0 968 603" fill="none" xmlns="http://www.w3.org/2000/svg">
<path opacity="0.2" d="M324.447 49.9839H644.074V120.952C644.074 158.664 644.074 177.52 632.358 189.236C620.643 200.952 601.787 200.952 564.074 200.952H404.447C366.735 200.952 347.879 200.952 336.163 189.236C324.447 177.52 324.447 158.664 324.447 120.952V49.9839Z" stroke="white" stroke-width="1.17944"/>
<path opacity="0.2" d="M332.883 49.9834H634.818V132.695C634.818 160.979 634.818 175.121 626.031 183.908C617.245 192.695 603.102 192.695 574.818 192.695H392.883C364.599 192.695 350.456 192.695 341.67 183.908C332.883 175.121 332.883 160.979 332.883 132.695V49.9834Z" stroke="white" stroke-width="2.35887"/>
<path d="M277.271 74.1626C277.271 65.3689 284.399 58.2402 293.193 58.2402C301.987 58.2402 309.115 65.3689 309.115 74.1626V96.5719C309.115 105.366 301.987 112.494 293.193 112.494C284.399 112.494 277.271 105.366 277.271 96.5719V74.1626Z" fill="white" stroke="white" stroke-width="3.53831"/>
<path d="M660.586 74.7523C660.586 65.6329 667.979 58.2402 677.098 58.2402C686.217 58.2402 693.61 65.6329 693.61 74.7523V95.9822C693.61 105.102 686.217 112.494 677.098 112.494C667.979 112.494 660.586 105.102 660.586 95.9822V74.7523Z" fill="white" stroke="white" stroke-width="3.53831"/>
<circle opacity="0.2" cx="484.85" cy="307.101" r="22.999" stroke="white" stroke-width="1.17944"/>
<circle opacity="0.2" cx="447.109" cy="242.232" r="5.30746" stroke="white" stroke-width="1.17944"/>
<circle opacity="0.2" cx="456.545" cy="254.026" r="5.30746" stroke="white" stroke-width="1.17944"/>
<circle opacity="0.2" cx="465.979" cy="265.821" r="5.30746" stroke="white" stroke-width="1.17944"/>
<circle opacity="0.2" cx="465.979" cy="242.232" r="5.30746" stroke="white" stroke-width="1.17944"/>
<circle opacity="0.2" cx="475.415" cy="254.026" r="5.30746" stroke="white" stroke-width="1.17944"/>
<circle opacity="0.2" cx="484.85" cy="265.821" r="5.30746" stroke="white" stroke-width="1.17944"/>
<circle opacity="0.2" cx="484.85" cy="242.232" r="5.30746" stroke="white" stroke-width="1.17944"/>
<circle opacity="0.2" cx="494.286" cy="254.026" r="5.30746" stroke="white" stroke-width="1.17944"/>
<circle opacity="0.2" cx="503.721" cy="265.821" r="5.30746" stroke="white" stroke-width="1.17944"/>
<circle opacity="0.2" cx="503.721" cy="242.232" r="5.30746" stroke="white" stroke-width="1.17944"/>
<circle opacity="0.2" cx="513.157" cy="254.026" r="5.30746" stroke="white" stroke-width="1.17944"/>
<circle opacity="0.2" cx="522.592" cy="242.232" r="5.30746" stroke="white" stroke-width="1.17944"/>
<g opacity="0.2">
<circle cx="333.883" cy="304.742" r="58.1129" stroke="white" stroke-width="3"/>
<circle cx="333.883" cy="304.742" r="34.7933" stroke="white" stroke-width="1.17944"/>
<path d="M247.194 304.741C247.194 292.628 249.678 281.097 254.164 270.628C270.176 260.162 283.346 245.709 292.265 228.678C304.617 221.905 318.799 218.053 333.883 218.053C381.759 218.053 420.571 256.864 420.571 304.741C420.571 352.618 381.759 391.43 333.883 391.43C286.006 391.43 247.194 352.618 247.194 304.741Z" stroke="white" stroke-width="1.17944"/>
</g>
<path opacity="0.2" d="M307.33 36.6658L307.331 36.6665C308.657 38.6568 310.361 41.2083 314.338 43.3791C318.391 45.5916 325.079 47.5437 336.55 47.5437H630.793C642.263 47.5437 648.951 45.5916 653.005 43.3791C656.982 41.2083 658.685 38.6568 660.012 36.6665L660.012 36.6658L660.112 36.5155L660.113 36.5148C664.074 30.578 668.904 27.5063 674.666 26.0043C680.122 24.5822 686.415 24.5824 693.255 24.5827L693.54 24.5827H789.013C789.708 24.5827 790.408 24.5812 791.115 24.5798L791.662 24.5787L791.663 24.5787L791.883 24.5782C800.704 24.5582 810.572 24.5359 818.884 26.6082C827.387 28.7282 834.869 33.2078 837.83 42.5748C840.961 52.4865 848.053 62.5288 856.472 74.3877L856.477 74.394L856.484 74.4051L856.502 74.4299L856.512 74.444C861.533 81.5165 866.957 89.1573 872.008 97.5704C884.393 118.198 897.018 151.985 899.726 161.909C900.169 163.529 901.904 168.957 904.569 177.292L904.611 177.423C917.06 216.347 949.035 316.325 956.361 365.371C965.195 424.517 969.387 477.526 954.466 521.327C947.221 542.593 933.201 563.391 914.838 578.115C896.454 592.857 873.566 601.617 848.724 598.399C799.606 592.037 753.771 553.051 729.634 486.947C720.799 462.752 717.592 440.604 714.965 422.466L714.955 422.403C712.948 408.544 711.31 397.374 707.943 389.079C704.872 381.516 700.497 376.66 693.12 374.507C677.534 387.323 657.571 395.02 635.818 395.02C613.352 395.02 592.797 386.81 576.999 373.23H392.702C376.905 386.81 356.349 395.02 333.883 395.02C311.871 395.02 291.693 387.139 276.027 374.047C272.014 374.928 268.916 376.492 266.433 378.612C263.659 380.982 261.494 384.182 259.731 388.286C256.143 396.639 254.462 408.078 252.387 422.402L252.378 422.466C249.751 440.604 246.543 462.752 237.708 486.947C213.572 553.051 167.736 592.037 118.619 598.399C93.7769 601.617 70.8885 592.857 52.5045 578.115C34.1418 563.391 20.1217 542.593 12.8768 521.327C-2.04428 477.526 2.14714 424.517 10.9814 365.371L13.9485 365.815L10.9814 365.371C18.3075 316.325 50.283 216.346 62.7315 177.423L62.7722 177.295L62.7732 177.292L62.8223 177.138L62.8232 177.135C65.4597 168.889 67.1762 163.519 67.616 161.909L307.33 36.6658ZM307.33 36.6658L307.23 36.5155L307.23 36.5148M307.33 36.6658L307.23 36.5148M307.23 36.5148C303.269 30.578 298.439 27.5063 292.676 26.0043C287.22 24.5822 280.927 24.5824 274.087 24.5827L273.802 24.5827H178.331H178.329L176.229 24.5804L176.223 24.5804L175.683 24.5787L175.681 24.5787M307.23 36.5148L175.681 24.5787M175.681 24.5787L175.46 24.5782C166.639 24.5582 156.77 24.5359 148.459 26.6082C139.956 28.7282 132.473 33.2078 129.513 42.5746L132.28 43.4489M175.681 24.5787L132.28 43.4489M132.28 43.4489L129.513 42.5746C126.38 52.4877 119.288 62.5311 110.867 74.393L113.313 76.1296M132.28 43.4489L113.313 76.1296M113.313 76.1296L110.867 74.393L110.832 74.4416M113.313 76.1296L110.832 74.4416M110.832 74.4416C105.811 81.5153 100.386 89.1564 95.3347 97.5705M110.832 74.4416L95.3347 97.5705M95.3347 97.5705C82.9491 118.198 70.3245 151.984 67.6161 161.909L95.3347 97.5705Z" stroke="white" stroke-width="6"/>
<g opacity="0.2">
<circle cx="635.818" cy="304.742" r="58.1129" stroke="white" stroke-width="3"/>
<circle cx="635.819" cy="304.742" r="34.7933" stroke="white" stroke-width="1.17944"/>
<path d="M679.017 229.565C687.634 245.753 700.091 259.565 715.164 269.771C719.885 280.466 722.507 292.297 722.507 304.741C722.507 352.618 683.695 391.43 635.818 391.43C587.941 391.43 549.13 352.618 549.13 304.741C549.13 256.864 587.941 218.053 635.818 218.053C651.549 218.053 666.3 222.242 679.017 229.565Z" stroke="white" stroke-width="1.17944"/>
</g>
<path d="M777.35 288.819C838.909 288.819 888.807 238.652 888.807 176.773C888.807 114.894 838.909 64.7267 777.35 64.7267C715.792 64.7267 665.894 114.894 665.894 176.773C665.894 238.652 715.792 288.819 777.35 288.819Z" stroke="white" stroke-width="1.17944"/>
<circle cx="776.17" cy="114.853" r="30.6653" stroke="white" stroke-width="6"/>
<circle cx="714.84" cy="176.183" r="30.6653" stroke="white" stroke-width="6"/>
<circle cx="836.322" cy="176.183" r="30.6653" stroke="white" stroke-width="6"/>
<circle cx="776.17" cy="236.335" r="30.6653" stroke="white" stroke-width="6"/>
<path d="M774.378 126.647V117.94L766.525 103.169H771.331L775.942 112.118C776.093 112.419 776.227 112.704 776.346 112.973C776.464 113.231 776.577 113.5 776.684 113.779H776.781C776.888 113.5 777.001 113.231 777.12 112.973C777.238 112.704 777.372 112.419 777.523 112.118L782.183 103.169H786.504L778.748 117.811V126.647H774.378Z" fill="white"/>
<path d="M765.185 248.129L773.586 224.57H778.198L786.631 248.129H782.1L776.311 231.117C776.182 230.73 776.074 230.37 775.988 230.037C775.902 229.703 775.822 229.375 775.747 229.053H775.634C775.569 229.375 775.494 229.703 775.408 230.037C775.322 230.37 775.214 230.73 775.085 231.117L769.345 248.129H765.185ZM769.554 242.679L770.506 239.486H781.084L782.035 242.679H769.554Z" fill="white"/>
<path d="M705.242 187.978L713.418 174.658H714.127L719.997 164.5H724.334L716.659 177.303H715.981L709.66 187.978H705.242ZM705.629 164.5L710.547 164.516L716.514 174.642H716.578L724.802 187.978H719.852L713.498 177.351H713.45L705.629 164.5Z" fill="white"/>
<path d="M829.062 187.978V164.5H837.48C839.899 164.5 841.769 165.005 843.091 166.015C844.414 167.015 845.075 168.547 845.075 170.611C845.075 171.923 844.774 173.003 844.172 173.852C843.58 174.701 842.833 175.282 841.93 175.594V175.658C843.048 175.97 843.967 176.599 844.688 177.545C845.408 178.491 845.768 179.743 845.768 181.302C845.768 183.42 845.053 185.064 843.623 186.236C842.204 187.397 840.307 187.978 837.931 187.978H829.062ZM833.352 184.833H837.56C838.883 184.833 839.856 184.495 840.479 183.817C841.103 183.14 841.414 182.221 841.414 181.06C841.414 179.91 841.103 178.991 840.479 178.303C839.856 177.615 838.883 177.271 837.56 177.271H833.352V184.833ZM833.352 174.4H837.125C838.437 174.4 839.383 174.105 839.963 173.514C840.544 172.912 840.834 172.073 840.834 170.998C840.834 169.934 840.544 169.117 839.963 168.547C839.383 167.977 838.437 167.692 837.125 167.692H833.352V174.4Z" fill="white"/>
<path opacity="0.2" d="M391.58 370.23C376.198 383.792 356.001 392.02 333.882 392.02C312.109 392.02 292.198 384.047 276.909 370.861C254.133 374.508 239.654 393.716 235.56 421.972C234.236 427.21 233.199 432.287 232.129 437.531C229.798 448.946 227.306 461.154 221.327 477.529C207.115 516.45 181.816 522.326 140.536 515.861C91.5892 508.194 75.0771 502.887 36.1558 486.375C1.36245 468.683 5.78084 424.983 14.6185 365.815C21.9073 317.016 53.8428 217.158 66.3002 178.206L66.3008 178.204C68.9477 169.927 70.7152 164.401 71.1798 162.699C73.8311 152.984 86.3589 119.462 98.5766 99.1145C103.572 90.7949 108.944 83.2277 113.983 76.1295C122.316 64.3911 129.739 53.9349 133.044 43.4787C138.095 27.4933 158.387 27.5386 176.344 27.5786C177.235 27.5806 178.121 27.5826 178.999 27.5826H274.472C288.612 27.5826 298.334 27.5826 305.404 38.1799L305.504 38.3302C308.303 42.5309 313.642 50.5435 337.22 50.5435H630.792C654.37 50.5435 659.709 42.5309 662.508 38.3302L662.608 38.1799C669.678 27.5826 679.399 27.5826 693.54 27.5826H789.012C789.89 27.5826 790.776 27.5806 791.668 27.5786C809.624 27.5386 829.917 27.4933 834.968 43.4787C838.273 53.9349 845.696 64.3911 854.029 76.1295C859.068 83.2277 864.44 90.7949 869.435 99.1145C881.653 119.462 894.181 152.984 896.832 162.699C897.296 164.399 899.061 169.918 901.704 178.182L901.711 178.204L901.712 178.206L901.712 178.208L901.713 178.209C914.171 217.164 946.105 317.017 953.393 365.815C962.231 424.983 966.649 468.683 931.856 486.375C892.935 502.887 876.423 508.194 827.476 515.861C786.196 522.326 760.896 516.45 746.685 477.529C740.706 461.154 738.214 448.946 735.883 437.531C734.813 432.287 733.776 427.21 732.451 421.972C728.443 394.3 714.473 375.306 692.505 371.107C677.254 384.146 657.456 392.02 635.818 392.02C613.699 392.02 593.502 383.792 578.121 370.23H391.58Z" stroke="white" stroke-width="1.17944"/>
<g opacity="0.2">
<circle cx="192.94" cy="176.773" r="112.046" stroke="white" stroke-width="1.17944"/>
<path d="M170.082 213.096C170.29 208.966 170.4 207.337 171.091 205.933C171.781 204.529 173.004 203.447 176.147 200.761L184.721 193.435C186.945 191.536 188.508 190.204 189.835 189.33C191.127 188.479 192.039 188.171 192.941 188.171C193.842 188.171 194.755 188.479 196.046 189.33C197.373 190.204 198.936 191.536 201.16 193.435L209.734 200.761C212.878 203.447 214.1 204.529 214.791 205.933C215.481 207.337 215.591 208.966 215.799 213.096L217.481 246.551C217.601 248.92 217.679 250.543 217.574 251.763C217.473 252.939 217.216 253.499 216.849 253.885C216.481 254.272 215.935 254.556 214.765 254.716C213.552 254.882 211.928 254.885 209.556 254.885H176.325C173.953 254.885 172.329 254.882 171.116 254.716C169.946 254.556 169.4 254.272 169.033 253.885L167.946 254.919L169.033 253.885C168.665 253.499 168.409 252.939 168.307 251.763C168.202 250.543 168.281 248.92 168.4 246.551L170.082 213.096Z" stroke="white" stroke-width="3"/>
<path d="M155.439 152.736C159.568 152.943 161.197 153.054 162.601 153.744C164.005 154.434 165.087 155.657 167.773 158.801L175.099 167.375C176.999 169.598 178.331 171.162 179.205 172.488C180.055 173.78 180.363 174.693 180.363 175.594C180.363 176.495 180.055 177.408 179.205 178.7C178.331 180.027 176.999 181.59 175.099 183.813L167.773 192.387C165.087 195.531 164.005 196.754 162.601 197.444C161.197 198.134 159.568 198.245 155.439 198.453L121.983 200.135C119.614 200.254 117.992 200.332 116.772 200.227C115.595 200.126 115.036 199.87 114.65 199.502C114.263 199.135 113.979 198.589 113.819 197.419C113.653 196.206 113.649 194.581 113.649 192.209L113.649 158.979C113.649 156.607 113.653 154.982 113.819 153.769C113.979 152.599 114.263 152.054 114.65 151.686C115.036 151.318 115.595 151.062 116.772 150.961C117.992 150.856 119.614 150.934 121.983 151.053L155.439 152.736Z" stroke="white" stroke-width="3"/>
<path d="M170.082 138.093C170.29 142.222 170.4 143.851 171.091 145.255C171.781 146.659 173.004 147.741 176.147 150.427L184.721 157.753C186.945 159.652 188.508 160.985 189.835 161.858C191.127 162.709 192.039 163.017 192.941 163.017C193.842 163.017 194.755 162.709 196.046 161.858C197.373 160.985 198.936 159.652 201.16 157.753L209.734 150.427C212.878 147.741 214.1 146.659 214.791 145.255C215.481 143.851 215.591 142.222 215.799 138.092L217.481 104.637C217.601 102.268 217.679 100.645 217.574 99.4254C217.473 98.2489 217.216 97.6896 216.849 97.3031C216.481 96.9166 215.935 96.6324 214.765 96.4722C213.552 96.3061 211.928 96.3027 209.556 96.3027H176.325C173.953 96.3027 172.329 96.3061 171.116 96.4722C169.946 96.6324 169.4 96.9166 169.033 97.3031L167.946 96.2694L169.033 97.3031C168.665 97.6896 168.409 98.2489 168.307 99.4254C168.202 100.645 168.281 102.268 168.4 104.637L170.082 138.093Z" stroke="white" stroke-width="3"/>
<path d="M230.443 152.736C226.313 152.943 224.684 153.054 223.28 153.744C221.877 154.434 220.794 155.657 218.108 158.801L210.783 167.375C208.883 169.598 207.551 171.162 206.677 172.488C205.827 173.78 205.518 174.693 205.518 175.594C205.518 176.495 205.827 177.408 206.677 178.7C207.551 180.027 208.883 181.59 210.783 183.813L218.108 192.387C220.794 195.531 221.877 196.754 223.28 197.444C224.684 198.134 226.313 198.245 230.443 198.453L263.899 200.135C266.267 200.254 267.89 200.332 269.11 200.227C270.286 200.126 270.846 199.87 271.232 199.502C271.619 199.135 271.903 198.589 272.063 197.419C272.229 196.206 272.233 194.581 272.233 192.209L272.233 158.979C272.233 156.607 272.229 154.982 272.063 153.769C271.903 152.599 271.619 152.054 271.232 151.686L272.266 150.599L271.232 151.686C270.846 151.318 270.286 151.062 269.11 150.961C267.89 150.856 266.267 150.934 263.899 151.053L230.443 152.736Z" stroke="white" stroke-width="3"/>
</g>
<path opacity="0.2" d="M700.613 23.4543L700.342 23.4543C693.212 23.454 686.88 23.4538 681.42 25.0089C681.765 19.3578 682.683 16.2668 684.85 14.0996C688.614 10.336 694.93 7.42014 708.151 4.42875C711.288 3.71882 717.407 3.18321 725.173 2.85376C732.889 2.52648 742.091 2.40704 751.307 2.49376C760.524 2.58049 769.736 2.87324 777.474 3.368C785.267 3.86632 791.408 4.56154 794.58 5.41202C795.978 5.78676 797.296 6.13629 798.541 6.46638C803.34 7.73932 807.05 8.72304 810.038 9.74825C813.771 11.0287 816.152 12.3036 817.948 14.0996C819.813 15.9638 820.575 17.017 821.011 18.8787C821.42 20.6312 821.535 23.0871 821.565 27.3869C816.809 25.5496 811.312 24.5763 805.47 24.0527C798.543 23.4318 790.982 23.4332 783.405 23.4502C783.405 23.4502 783.405 23.4502 783.405 23.4502L782.859 23.4513L782.856 23.4514C782.149 23.4528 781.448 23.4543 780.753 23.4543H700.613Z" stroke="white" stroke-width="3.53831"/>
<path opacity="0.2" d="M266.2 23.4543L266.472 23.4543C273.601 23.454 279.933 23.4538 285.394 25.0089C285.049 19.3578 284.131 16.2668 281.963 14.0996C278.2 10.336 271.884 7.42014 258.663 4.42875C255.525 3.71882 249.407 3.18321 241.64 2.85376C233.925 2.52648 224.723 2.40704 215.507 2.49376C206.29 2.58049 197.077 2.87324 189.34 3.368C181.547 3.86632 175.405 4.56154 172.233 5.41202C170.836 5.78676 169.518 6.13629 168.273 6.46638C163.473 7.73932 159.764 8.72304 156.775 9.74825C153.042 11.0287 150.661 12.3036 148.865 14.0996C147.001 15.9638 146.238 17.017 145.803 18.8787C145.393 20.6312 145.278 23.0871 145.248 27.3869C150.004 25.5496 155.501 24.5763 161.343 24.0527C168.271 23.4318 175.831 23.4332 183.408 23.4502C183.408 23.4502 183.409 23.4502 183.409 23.4502L183.954 23.4513L183.958 23.4514C184.665 23.4528 185.365 23.4543 186.06 23.4543H266.2Z" stroke="white" stroke-width="3.53831"/>
<path opacity="0.2" d="M147.5 15.5629C198.973 13.043 228.467 12.7119 283 15.5629" stroke="white" stroke-width="0.5"/>
<path opacity="0.2" d="M818.5 15.5629C767.473 13.043 738.235 12.7119 684.175 15.5629" stroke="white" stroke-width="0.5"/>
</svg>
