<svg width="962" height="599" fill="none" xmlns="http://www.w3.org/2000/svg"><path d="M851.04 76.081c5.036 7.094 10.404 14.656 15.396 22.97 12.217 20.348 24.745 53.871 27.396 63.585.461 1.687 2.201 7.128 4.807 15.28l.073.227c12.458 38.952 44.393 138.81 51.682 187.608 8.838 59.169 12.892 111.509-1.768 154.545-14.14 41.507-54.794 81.247-102.517 75.065-47.724-6.181-92.795-44.155-116.657-109.506-8.727-23.899-11.898-45.79-14.528-63.946-3.976-27.447-6.715-46.356-25.542-50.759l-114.26-.983H388.58l-114.711.596c-20.556 3.556-23.344 22.797-27.451 51.146-2.63 18.156-5.801 40.047-14.528 63.946-23.861 65.351-68.933 103.325-116.656 109.506-47.724 6.182-88.377-33.558-102.517-75.065-14.662-43.036-10.607-95.376-1.77-154.545 7.29-48.798 39.225-148.656 51.683-187.608l.094-.295v-.003c2.594-8.112 4.326-13.528 4.785-15.209 2.651-9.714 15.179-43.237 27.397-63.584 4.992-8.316 10.361-15.879 15.398-22.974l740.735.003Zm0 0-.011-.014-.003-.006c-8.332-11.735-15.754-22.19-19.057-32.646-2.051-6.49-6.614-10.337-12.513-12.615l.04-.356-1.491-.165-.474 1.423c.098.033.195.065.292.099m33.217 44.28-33.217-44.28m0 0a81.991 81.991 0 0 1-1.156 6.721l-6.894 32.055C803.197 101.16 776.16 123 744.879 123c-36.66 0-66.379-29.719-66.379-66.38V29.353l.135-.013-.135-1.494H677v.157c-7.206.87-12.847 3.302-17.392 10.115l-.1.15c-2.799 4.201-8.138 12.214-31.716 12.214H333.55c-23.577 0-28.916-8.013-31.716-12.214l-.1-.15c-4.512-6.763-10.103-9.21-17.234-10.095v-.162H283l-.139 1.493.139.013v27.255C283 93.28 253.281 123 216.621 123c-31.281 0-58.318-21.84-64.894-52.423l-6.894-32.055 672.99-6.721ZM144.98 30.065l-.202-1.837-1.756.575c-6.981 2.288-12.658 6.502-15.079 14.16l1.43.453-1.43-.452c-3.218 10.184-10.476 20.434-18.853 32.234l-.008.012h-.001l-.012.018c-5.029 7.085-10.426 14.687-15.448 23.052-12.302 20.487-24.878 54.141-27.558 63.961-.448 1.641-2.164 7.008-4.767 15.149v.003l-.001.001-.093.292v.001l-.018.056C48.733 216.674 16.774 316.604 9.465 365.53c-8.836 59.157-12.96 111.832 1.832 155.25 7.157 21.01 21.016 41.564 39.146 56.102 18.14 14.546 40.631 23.121 64.983 19.967 48.421-6.272 93.874-44.753 117.873-110.479 8.782-24.049 11.971-46.071 14.6-64.218l.004-.028c2.064-14.249 3.766-25.918 7.45-34.493 1.827-4.252 4.111-7.664 7.106-10.222 2.961-2.529 6.694-4.29 11.544-5.147l114.577-.595h186.542l114.078.981c8.731 2.093 13.754 7.482 17.132 15.804 3.452 8.502 5.11 19.881 7.108 33.672l.004.027c2.628 18.148 5.817 40.169 14.599 64.219 23.999 65.726 69.453 104.207 117.873 110.479 24.352 3.154 46.843-5.421 64.983-19.967 18.13-14.538 31.989-35.092 39.147-56.102 14.791-43.418 10.667-96.093 1.831-155.25-7.308-48.926-39.267-148.855-51.718-187.787l-.018-.057-.073-.227c-2.616-8.18-4.339-13.572-4.789-15.218-2.679-9.819-15.256-43.474-27.557-63.962-5.022-8.364-10.419-15.966-15.447-23.05l-.011-.015-.001-.001-.004-.006-.01-.014c-8.376-11.797-15.632-22.046-18.85-32.23-2.402-7.6-8.011-11.807-14.92-14.107l-1.761-.586-.204 1.844a80.656 80.656 0 0 1-1.313 8.093l-6.894 32.055c-6.428 29.891-32.854 51.238-63.428 51.238C709.047 121.5 680 92.453 680 56.62V26.206l-1.635.146c-4.063.366-7.779 1.142-11.137 2.828-3.378 1.696-6.309 4.27-8.867 8.105h-.001l-.1.15v.001c-1.363 2.046-3.232 4.848-7.537 7.198-4.342 2.37-11.301 4.348-22.931 4.348H333.55c-11.63 0-18.588-1.978-22.931-4.348-4.304-2.35-6.173-5.152-7.536-7.198h-.001l-.1-.15c-2.541-3.81-5.451-6.376-8.801-8.072-3.331-1.687-7.015-2.473-11.042-2.847l-1.639-.152V56.62c0 35.833-29.047 64.88-64.879 64.88-30.574 0-57-21.347-63.428-51.238l-6.894-32.055a80.444 80.444 0 0 1-1.319-8.142Z" stroke="#fff" stroke-width="3"/><path d="M143.489 30.23c-6.671 2.186-11.882 6.12-14.116 13.186-3.304 10.457-10.727 20.913-19.06 32.651l-.008.012c-5.037 7.095-10.406 14.658-15.398 22.973-12.218 20.348-24.746 53.87-27.397 63.584-.46 1.682-2.19 7.098-4.785 15.211v.002l-.094.294c-12.458 38.953-44.393 138.81-51.683 187.609-8.837 59.169-12.892 111.509 1.768 154.544 14.14 41.507 54.794 81.247 102.518 75.066 47.723-6.182 92.795-44.156 116.656-109.506 8.727-23.9 11.898-45.79 14.528-63.946 4.107-28.349 6.895-47.59 27.451-51.147l114.711-.595h186.542l114.26.982c18.827 4.403 21.566 23.313 25.542 50.76 2.63 18.156 5.801 40.046 14.528 63.946 23.862 65.35 68.933 103.324 116.657 109.506 47.723 6.181 88.377-33.559 102.517-75.066 14.66-43.035 10.606-95.375 1.768-154.544-7.289-48.799-39.224-148.656-51.682-187.609l-.073-.227c-2.606-8.152-4.346-13.593-4.807-15.28-2.651-9.714-15.179-43.236-27.396-63.584-4.992-8.314-10.36-15.877-15.396-22.97l-.011-.015-.003-.005c-8.332-11.736-15.754-22.19-19.057-32.646-2.216-7.013-7.366-10.94-13.964-13.136M678.5 27.845c-7.93.714-14.036 2.993-18.892 10.271l-.1.15c-2.799 4.202-8.138 12.214-31.716 12.214H333.55c-23.577 0-28.916-8.012-31.716-12.213l-.1-.15c-4.823-7.23-10.881-9.528-18.734-10.258" stroke="#fff" stroke-width="6"/><path d="M697.613 23.392h-.271c-7.13 0-13.462 0-18.922 1.555.345-5.651 1.263-8.742 3.43-10.91 3.764-3.763 10.08-6.679 23.301-9.67 3.137-.71 9.256-1.246 17.022-1.575 7.716-.328 16.918-.447 26.134-.36 9.217.086 18.429.38 26.167.874 7.793.498 13.934 1.194 17.106 2.044 1.398.375 2.716.724 3.961 1.054 4.799 1.273 8.509 2.257 11.497 3.282 3.733 1.28 6.114 2.556 7.91 4.352 1.865 1.864 2.627 2.917 3.063 4.779.409 1.752.524 4.208.554 8.508-4.756-1.837-10.253-2.81-16.095-3.334-6.927-.621-14.488-.62-22.065-.603l-.546.001h-.003l-2.103.003h-80.14Zm-434.413 0h.272c7.129 0 13.461 0 18.922 1.554-.345-5.65-1.263-8.742-3.431-10.909-3.763-3.764-10.079-6.68-23.3-9.67-3.138-.71-9.256-1.246-17.023-1.576-7.715-.327-16.917-.446-26.133-.36-9.217.087-18.43.38-26.167.874-7.793.499-13.935 1.194-17.107 2.045-1.397.374-2.715.724-3.96 1.054-4.8 1.273-8.509 2.257-11.498 3.282-3.733 1.28-6.114 2.555-7.91 4.351-1.864 1.864-2.627 2.917-3.062 4.78-.41 1.752-.525 4.208-.555 8.507 4.756-1.837 10.253-2.81 16.095-3.334 6.928-.62 14.488-.62 22.065-.602h.55c.707.002 1.407.004 2.102.004h80.14Z" stroke="#fff" stroke-width="3.538"/><path d="M330.883 395.265c-23.733 0-45.244-8.549-60.97-22.41h121.94c-15.726 13.861-37.237 22.41-60.97 22.41Zm299.576 0c-23.733 0-45.244-8.549-60.97-22.41H691.43c-15.726 13.861-37.238 22.41-60.971 22.41Z" stroke="#fff" stroke-width="1.179"/><path opacity=".5" d="M454.134 307.628a3.538 3.538 0 0 1 3.538-3.538h44.819a3.538 3.538 0 1 1 0 7.076h-44.819a3.538 3.538 0 0 1-3.538-3.538Z" stroke="#fff" stroke-width="1.179"/><path opacity=".5" d="M473.005 307.628a3.538 3.538 0 0 1 3.538-3.538h8.256a3.538 3.538 0 1 1 0 7.076h-8.256a3.538 3.538 0 0 1-3.538-3.538Zm3.538-46.588a4.128 4.128 0 1 1 8.256 0 4.128 4.128 0 0 1-8.256 0Z" fill="#fff" stroke="#fff" stroke-width="1.179"/><path d="M357.493 282.27h247.019c60.047 0 90.071 0 108.725 18.654 18.654 18.655 18.654 29.807 18.654 89.854v9.952c.13 4 .258 10.173.386 16.327v.013l.001.005c.202 9.725.403 19.401.606 20.394 2.33 11.415 4.822 23.623 10.801 39.998 14.212 38.921 48.073 76.073 88.284 84.329 34.467 7.077 65.566-7.076 90.99-37.742 31.255-43.049 36.273-99.133 27.435-158.302-7.288-48.793-39.217-148.634-51.677-187.596l-.001-.001-.001-.004-.002-.004v-.001l-.001-.003v-.002l-.007-.022c-2.643-8.264-4.408-13.782-4.872-15.483-2.651-9.714-15.179-43.236-27.397-63.584-4.996-8.32-10.367-15.887-15.407-22.985-8.333-11.738-15.756-22.194-19.06-32.65-5.052-15.986-25.344-15.94-43.3-15.9l-2.656.003H690.54c-14.14 0-23.861 0-30.931 10.598l-.101.15c-2.799 4.2-8.138 12.213-31.715 12.213h-293.58c-23.578 0-28.917-8.013-31.716-12.213l-.1-.15c-7.07-10.598-16.792-10.598-30.932-10.598h-95.473c-.878 0-1.764-.002-2.655-.004-17.957-.04-38.249-.085-43.301 15.9-3.304 10.457-10.727 20.913-19.06 32.651-5.039 7.098-10.411 14.666-15.406 22.985-12.218 20.348-24.746 53.87-27.397 63.584-.465 1.701-2.23 7.219-4.872 15.483l-.007.022v.002l-.002.003v.001l-.001.004-.002.004c-12.46 38.96-44.39 138.803-51.678 187.597-8.837 59.169-3.82 115.253 27.435 158.302 25.424 30.666 56.524 44.819 90.99 37.742 40.212-8.256 74.072-45.408 88.284-84.329 5.979-16.375 8.471-28.583 10.801-39.998.203-.993.405-10.673.607-20.399.128-6.159.257-12.337.386-16.34v-9.952c0-60.047 0-71.199 18.655-89.854 18.654-18.654 48.677-18.654 108.724-18.654Z" stroke="#fff" stroke-width="1.179"/><path d="M521.366 119.443a149.742 149.742 0 0 1-80.726 0l-80.947-22.657c-6.438-1.802-5.136-11.287 1.55-11.287h239.52c6.686 0 7.988 9.485 1.55 11.287l-80.947 22.657Z" stroke="#fff" stroke-width=".5"/><path d="M341.804 68.18c-9.189 0-16.639-7.45-16.639-16.64a3.312 3.312 0 0 1 3.312-3.311h295.312a3.312 3.312 0 0 1 3.312 3.311c0 9.19-7.45 16.64-16.639 16.64H341.804Z" stroke="#fff" stroke-width="2.359"/><path d="M170.5 50.25c-9-13-22.917-19-26.75-20l2 9.5c0 1.75 11.5 5 21.25 20 14.468 22.258 62.25 18 78.75 3 13.2-12 22-20.25 36.75-27V27c-23.25 8.5-28.05 13.8-41.25 25-16.5 14-59.5 14.5-70.75-1.75Zm620.565 0c9-13 22.917-19 26.75-20l-2 9.5c0 1.75-11.499 5-21.25 20-14.468 22.258-62.25 18-78.75 3-13.2-12-22-20.25-36.75-27V27c23.25 8.5 28.05 13.8 41.25 25 16.5 14 59.5 14.5 70.75-1.75Z" stroke="#fff"/></svg>