<svg width="968" height="602" fill="none" xmlns="http://www.w3.org/2000/svg"><path d="M307.33 35.986h.001c1.326 1.991 3.03 4.543 7.007 6.714 4.053 2.212 10.741 4.164 22.212 4.164h294.243c11.47 0 18.158-1.952 22.212-4.164 3.977-2.171 5.68-4.723 7.007-6.713l.1-.151h.001c3.961-5.938 8.791-9.01 14.553-10.511 5.456-1.422 11.749-1.422 18.589-1.422h95.758l2.102-.003h.548l.22-.001c8.821-.02 18.689-.043 27.001 2.03 8.503 2.12 15.985 6.6 18.946 15.966 3.131 9.912 10.223 19.954 18.642 31.813l.005.007.007.01.018.025.01.014c5.021 7.073 10.445 14.714 15.496 23.127 12.385 20.627 25.01 54.414 27.718 64.338.443 1.621 2.178 7.049 4.843 15.384l.042.13c12.449 38.924 44.424 138.903 51.75 187.949 8.834 59.146 13.026 112.155-1.895 155.955-7.245 21.267-21.265 42.064-39.628 56.789-18.384 14.741-41.272 23.502-66.114 20.284-49.118-6.362-94.953-45.349-119.09-111.452-8.835-24.195-12.042-46.344-14.669-64.482l-.01-.063c-2.007-13.859-3.645-25.028-7.012-33.323-3.071-7.564-7.446-12.42-14.823-14.573-15.586 12.817-35.549 20.514-57.302 20.514-22.466 0-43.021-8.211-58.819-21.79H392.702c-15.797 13.579-36.353 21.79-58.819 21.79-22.012 0-42.19-7.882-57.856-20.974-4.013.881-7.111 2.445-9.594 4.566-2.774 2.369-4.939 5.569-6.702 9.673-3.588 8.353-5.269 19.793-7.344 34.117l-.009.063c-2.627 18.138-5.835 40.287-14.67 64.482-24.136 66.103-69.972 105.09-119.089 111.452-24.842 3.218-47.73-5.543-66.114-20.284-18.363-14.725-32.383-35.522-39.628-56.789-14.921-43.8-10.73-96.809-1.896-155.955l2.967.443-2.967-.443c7.327-49.046 39.302-149.026 51.75-187.949l.041-.127.001-.003.05-.155v-.002c2.637-8.246 4.353-13.616 4.793-15.226L307.33 35.986Zm0 0-.1-.15m.1.15-.1-.15m0 0c-3.961-5.938-8.791-9.01-14.554-10.511-5.456-1.422-11.749-1.422-18.589-1.422h-95.758l-2.1-.002h-.006l-.54-.002h-.002M307.23 35.835 175.681 23.9m0 0h-.221c-8.821-.02-18.69-.043-27.001 2.03-8.503 2.12-15.986 6.6-18.946 15.966l2.767.874m43.401-18.87L132.28 42.77m0 0-2.767-.874c-3.133 9.913-10.225 19.956-18.646 31.818l2.446 1.737m18.967-32.68-18.967 32.68m0 0-2.446-1.737-.035.049m2.481 1.688-2.481-1.688m0 0c-5.021 7.074-10.446 14.715-15.497 23.129m15.497-23.129L95.335 96.891m0 0c-12.386 20.627-25.01 54.413-27.719 64.338l27.719-64.338Z" stroke="#fff" stroke-width="6"/><path d="M700.613 22.775h-.271c-7.13 0-13.462 0-18.922 1.554.345-5.65 1.263-8.742 3.43-10.91 3.764-3.763 10.08-6.679 23.301-9.67 3.137-.71 9.256-1.245 17.022-1.575 7.716-.327 16.918-.447 26.134-.36 9.217.087 18.429.38 26.167.874 7.793.499 13.934 1.194 17.106 2.044 1.398.375 2.716.725 3.961 1.055 4.799 1.273 8.509 2.256 11.497 3.282 3.733 1.28 6.114 2.555 7.91 4.35 1.865 1.865 2.627 2.918 3.063 4.78.409 1.752.524 4.208.554 8.508-4.756-1.837-10.253-2.81-16.095-3.334-6.927-.62-14.488-.62-22.065-.602h-.549c-.707.002-1.408.004-2.103.004h-80.14Zm-434.413 0h.272c7.129 0 13.461 0 18.922 1.554-.345-5.65-1.263-8.742-3.431-10.91-3.763-3.763-10.079-6.679-23.3-9.67-3.138-.71-9.256-1.245-17.023-1.575-7.715-.327-16.917-.447-26.133-.36-9.217.087-18.43.38-26.167.874-7.793.499-13.935 1.194-17.107 2.044a1378.2 1378.2 0 0 1-3.96 1.055c-4.8 1.273-8.509 2.256-11.498 3.282-3.733 1.28-6.114 2.555-7.91 4.35-1.864 1.865-2.627 2.918-3.062 4.78-.41 1.752-.525 4.208-.555 8.508 4.756-1.837 10.253-2.81 16.095-3.334 6.928-.62 14.488-.62 22.065-.602h.55c.707.002 1.407.004 2.102.004h80.14Z" stroke="#fff" stroke-width="3.538"/><path d="M147.5 14.883c51.473-2.52 80.967-2.85 135.5 0m535.5 0c-51.027-2.52-80.265-2.85-134.325 0" stroke="#fff" stroke-width=".5"/></svg>