<svg width="962" height="597" viewBox="0 0 962 597" fill="none" xmlns="http://www.w3.org/2000/svg">
<path d="M143.489 28.2294C136.818 30.4159 131.607 34.3497 129.373 41.416C126.069 51.8726 118.646 62.3285 110.313 74.067L110.305 74.0786C105.268 81.1737 99.8993 88.7367 94.9067 97.0522C82.689 117.4 70.161 150.922 67.5102 160.636C67.0509 162.318 65.3191 167.734 62.7251 175.847L62.7246 175.849L62.6306 176.143C50.1728 215.096 18.2376 314.953 10.9485 363.752C2.11083 422.921 -1.94406 475.261 12.7165 518.296C26.8565 559.803 67.5102 599.543 115.234 593.362C162.957 587.18 208.029 549.206 231.89 483.856C240.617 459.956 243.788 438.066 246.418 419.91C250.525 391.561 253.313 372.32 273.869 368.763L388.58 368.168H575.122L689.382 369.15C708.209 373.553 710.948 392.463 714.924 419.91C717.554 438.066 720.725 459.956 729.452 483.856C753.314 549.206 798.385 587.18 846.109 593.362C893.832 599.543 934.486 559.803 948.626 518.296C963.286 475.261 959.232 422.921 950.394 363.752C943.105 314.953 911.17 215.096 898.712 176.143L898.639 175.916C896.033 167.764 894.293 162.323 893.832 160.636C891.181 150.922 878.653 117.4 866.436 97.0522C861.444 88.7378 856.076 81.1754 851.04 74.0817L851.029 74.067L851.026 74.0618C842.694 62.3262 835.272 51.8714 831.969 41.416C829.753 34.4034 824.603 30.4758 818.005 28.2795M678.5 25.8457C670.57 26.5596 664.464 28.8391 659.608 36.1172L659.508 36.2675C656.709 40.4687 651.37 48.4811 627.792 48.4811H333.55C309.973 48.4811 304.634 40.469 301.834 36.2678L301.734 36.1172C296.911 28.8874 290.853 26.5901 283 25.8601" stroke="white" stroke-width="6"/>
<path d="M330.883 393.265C307.15 393.265 285.639 384.716 269.913 370.855H391.853C376.127 384.716 354.616 393.265 330.883 393.265Z" stroke="white" stroke-width="1.17944"/>
<path d="M630.459 393.265C606.726 393.265 585.215 384.716 569.489 370.855H691.43C675.704 384.716 654.192 393.265 630.459 393.265Z" stroke="white" stroke-width="1.17944"/>
<path opacity="0.5" d="M454.135 305.628C454.135 303.674 455.719 302.09 457.673 302.09H502.491C504.446 302.09 506.03 303.674 506.03 305.628C506.03 307.582 504.446 309.166 502.491 309.166H457.673C455.719 309.166 454.135 307.582 454.135 305.628Z" stroke="white" stroke-width="1.17944"/>
<path opacity="0.5" d="M473.006 305.628C473.006 303.674 474.59 302.09 476.544 302.09H484.8C486.754 302.09 488.338 303.674 488.338 305.628C488.338 307.582 486.754 309.166 484.8 309.166H476.544C474.59 309.166 473.006 307.582 473.006 305.628Z" fill="white" stroke="white" stroke-width="1.17944"/>
<path opacity="0.5" d="M476.543 259.04C476.543 256.76 478.391 254.912 480.671 254.912C482.951 254.912 484.799 256.76 484.799 259.04C484.799 261.32 482.951 263.168 480.671 263.168C478.391 263.168 476.543 261.32 476.543 259.04Z" fill="white" stroke="white" stroke-width="1.17944"/>
<path d="M357.492 280.27H604.511C664.558 280.27 694.582 280.27 713.236 298.924C731.89 317.578 731.89 328.731 731.89 388.778V398.73C732.02 402.73 732.148 408.902 732.276 415.057L732.276 415.07L732.277 415.075C732.479 424.8 732.68 434.476 732.883 435.469C735.213 446.884 737.705 459.091 743.684 475.467C757.896 514.388 791.757 551.54 831.968 559.796C866.435 566.873 897.534 552.72 922.958 522.054C954.214 479.005 959.231 422.921 950.393 363.752C943.105 314.959 911.176 215.118 898.716 176.156L898.715 176.154L898.714 176.151L898.713 176.147L898.712 176.145L898.711 176.143L898.711 176.141L898.704 176.119C896.061 167.855 894.296 162.337 893.832 160.636C885.298 129.366 869.685 100.347 851.029 74.067C842.695 62.3286 835.272 51.8724 831.968 41.4162C826.916 25.4308 806.624 25.4761 788.668 25.5161C755.959 25.5891 723.249 25.5201 690.539 25.5201C676.399 25.5201 666.678 25.5201 659.608 36.1174L659.507 36.2677C656.708 40.4684 651.369 48.481 627.792 48.481H334.212C310.634 48.481 305.295 40.4684 302.496 36.2677L302.396 36.1174C295.326 25.5201 285.604 25.5201 271.464 25.5201C238.755 25.5201 206.045 25.5891 173.336 25.5161C155.379 25.4761 135.087 25.4308 130.035 41.4162C126.731 51.8724 119.308 62.3286 110.975 74.067C92.3189 100.347 76.7062 129.366 68.1717 160.636C67.7075 162.337 65.9428 167.855 63.2999 176.119L63.2928 176.141L63.2921 176.143L63.2915 176.145L63.291 176.147L63.2885 176.154C50.8287 215.115 18.8985 314.958 11.6105 363.752C2.77277 422.921 7.78997 479.005 39.045 522.054C64.4692 552.72 95.5685 566.873 130.035 559.796C170.247 551.54 204.107 514.388 218.319 475.467C224.298 459.091 226.79 446.884 229.121 435.469C229.323 434.476 229.525 424.796 229.727 415.07C229.855 408.911 229.984 402.733 230.113 398.73V388.778C230.113 328.731 230.113 317.578 248.768 298.924C267.422 280.27 297.445 280.27 357.492 280.27Z" stroke="white" stroke-width="1.17944"/>
<path d="M521.367 117.443C494.966 124.833 467.042 124.833 440.641 117.443L359.694 94.7862C353.256 92.9842 354.558 83.4991 361.244 83.4991L600.764 83.499C607.45 83.499 608.752 92.9841 602.314 94.7862L521.367 117.443Z" stroke="white" stroke-width="0.5"/>
<path d="M341.803 66.1794C332.614 66.1794 325.164 58.7299 325.164 49.5404C325.164 47.7113 326.647 46.2286 328.476 46.2286H623.788C625.617 46.2286 627.1 47.7113 627.1 49.5404C627.1 58.7299 619.65 66.1794 610.461 66.1794H341.803Z" stroke="white" stroke-width="2.35887"/>
<path d="M170.5 48.25C161.5 35.25 147.583 29.25 143.75 28.25L145.75 37.75C145.75 39.5 157.25 42.75 167 57.75C181.468 80.008 229.25 75.75 245.75 60.75C258.95 48.75 267.75 40.5 282.5 33.75V25C259.25 33.5 254.45 38.8 241.25 50C224.75 64 181.75 64.5 170.5 48.25Z" stroke="white"/>
<path d="M791.066 48.25C800.066 35.25 813.983 29.25 817.816 28.25L815.816 37.75C815.816 39.5 804.317 42.75 794.566 57.75C780.098 80.008 732.316 75.75 715.816 60.75C702.616 48.75 693.816 40.5 679.066 33.75V25C702.316 33.5 707.116 38.8 720.316 50C736.816 64 779.816 64.5 791.066 48.25Z" stroke="white"/>
<path d="M143.488 27.3837C143.794 30.1674 144.242 32.9354 144.832 35.6771L151.726 67.7318C158.302 98.3148 185.339 120.155 216.62 120.155C253.28 120.155 282.999 90.4359 282.999 53.7757V25.0144M818.004 27.4338C817.699 30.2005 817.252 32.9518 816.666 35.6771L809.773 67.7318C803.196 98.3148 776.159 120.155 744.878 120.155C708.218 120.155 678.499 90.4359 678.499 53.7757V25" stroke="white" stroke-width="3"/>
<path d="M697.613 22.7574L697.342 22.7574C690.212 22.7571 683.88 22.7569 678.42 24.312C678.765 18.6609 679.683 15.5699 681.85 13.4027C685.614 9.63908 691.93 6.72324 705.151 3.73185C708.288 3.02192 714.407 2.48631 722.173 2.15686C729.889 1.82958 739.091 1.71014 748.307 1.79687C757.524 1.8836 766.736 2.17634 774.474 2.6711C782.267 3.16942 788.408 3.86465 791.58 4.71512C792.978 5.08986 794.296 5.43939 795.541 5.76948C800.34 7.04242 804.05 8.02614 807.038 9.05135C810.771 10.3318 813.152 11.6067 814.948 13.4027C816.813 15.2669 817.575 16.3201 818.011 18.1818C818.42 19.9343 818.535 22.3902 818.565 26.69C813.809 24.8527 808.312 23.8794 802.47 23.3558C795.543 22.7349 787.982 22.7363 780.405 22.7533C780.405 22.7533 780.405 22.7533 780.405 22.7533L779.859 22.7544L779.856 22.7545C779.149 22.7559 778.448 22.7574 777.753 22.7574H697.613Z" stroke="white" stroke-width="3.53831"/>
<path d="M263.201 22.757L263.473 22.757C270.602 22.7568 276.934 22.7565 282.395 24.3116C282.05 18.6605 281.132 15.5696 278.964 13.4023C275.201 9.63872 268.885 6.72288 255.664 3.73148C252.526 3.02156 246.408 2.48595 238.641 2.15649C230.926 1.82921 221.724 1.70977 212.507 1.7965C203.291 1.88323 194.078 2.17597 186.341 2.67073C178.548 3.16905 172.406 3.86428 169.234 4.71475C167.837 5.0895 166.519 5.43903 165.274 5.76911C160.474 7.04205 156.765 8.02577 153.776 9.05098C150.043 10.3314 147.662 11.6064 145.866 13.4023C144.002 15.2665 143.239 16.3197 142.804 18.1815C142.394 19.934 142.279 22.3898 142.249 26.6896C147.005 24.8523 152.502 23.879 158.344 23.3554C165.272 22.7345 172.832 22.736 180.409 22.753C180.409 22.753 180.41 22.753 180.41 22.753L180.955 22.7541L180.959 22.7541C181.666 22.7556 182.366 22.757 183.061 22.757H263.201Z" stroke="white" stroke-width="3.53831"/>
</svg>
