<svg width="968" height="602" viewBox="0 0 968 602" fill="none" xmlns="http://www.w3.org/2000/svg">
<path d="M324.447 49.4521H644.074V120.42C644.074 158.132 644.074 176.988 632.358 188.704C620.643 200.42 601.787 200.42 564.074 200.42H404.447C366.735 200.42 347.879 200.42 336.163 188.704C324.447 176.988 324.447 158.132 324.447 120.42V49.4521Z" stroke="white" stroke-width="1.17944"/>
<path d="M332.883 49.4521H634.818V132.164C634.818 160.448 634.818 174.59 626.031 183.377C617.245 192.164 603.102 192.164 574.818 192.164H392.883C364.599 192.164 350.456 192.164 341.67 183.377C332.883 174.59 332.883 160.448 332.883 132.164V49.4521Z" stroke="white" stroke-width="2.35887"/>
<path d="M277.27 73.6313C277.27 64.8377 284.398 57.709 293.192 57.709V57.709C301.986 57.709 309.114 64.8377 309.114 73.6313V96.0406C309.114 104.834 301.986 111.963 293.192 111.963V111.963C284.398 111.963 277.27 104.834 277.27 96.0406V73.6313Z" stroke="white" stroke-width="3.53831"/>
<path d="M660.586 74.2211C660.586 65.1017 667.979 57.709 677.098 57.709V57.709C686.217 57.709 693.61 65.1017 693.61 74.2211V95.4509C693.61 104.57 686.217 111.963 677.098 111.963V111.963C667.979 111.963 660.586 104.57 660.586 95.4509V74.2211Z" stroke="white" stroke-width="3.53831"/>
<circle cx="484.85" cy="306.569" r="22.999" stroke="white" stroke-width="1.17944"/>
<circle cx="447.108" cy="241.701" r="5.30746" stroke="white" stroke-width="1.17944"/>
<circle cx="456.544" cy="253.495" r="5.30746" stroke="white" stroke-width="1.17944"/>
<circle cx="465.979" cy="265.289" r="5.30746" stroke="white" stroke-width="1.17944"/>
<circle cx="465.979" cy="241.701" r="5.30746" stroke="white" stroke-width="1.17944"/>
<circle cx="475.415" cy="253.495" r="5.30746" stroke="white" stroke-width="1.17944"/>
<circle cx="484.85" cy="265.289" r="5.30746" stroke="white" stroke-width="1.17944"/>
<circle cx="484.85" cy="241.701" r="5.30746" stroke="white" stroke-width="1.17944"/>
<circle cx="494.286" cy="253.495" r="5.30746" stroke="white" stroke-width="1.17944"/>
<circle cx="503.721" cy="265.289" r="5.30746" stroke="white" stroke-width="1.17944"/>
<circle cx="503.721" cy="241.701" r="5.30746" stroke="white" stroke-width="1.17944"/>
<circle cx="513.157" cy="253.495" r="5.30746" stroke="white" stroke-width="1.17944"/>
<circle cx="522.592" cy="241.701" r="5.30746" stroke="white" stroke-width="1.17944"/>
<circle cx="333.884" cy="304.211" r="58.1129" stroke="white" stroke-width="3"/>
<circle cx="333.883" cy="304.211" r="34.7933" stroke="white" stroke-width="1.17944"/>
<path d="M247.195 304.21C247.195 292.097 249.679 280.566 254.165 270.097C270.177 259.631 283.347 245.177 292.266 228.146C304.618 221.373 318.8 217.521 333.884 217.521C381.76 217.521 420.572 256.333 420.572 304.21C420.572 352.087 381.76 390.898 333.884 390.898C286.007 390.898 247.195 352.087 247.195 304.21Z" stroke="white" stroke-width="1.17944"/>
<path d="M307.331 36.1349L307.33 36.1342L307.23 35.9839L307.23 35.9832C303.269 30.0464 298.439 26.9747 292.676 25.4727C287.22 24.0505 280.927 24.0508 274.087 24.0511L273.802 24.0511H178.331H178.329L176.229 24.0488L176.223 24.0488L175.683 24.0471L175.681 24.0471L175.46 24.0466C166.639 24.0266 156.77 24.0043 148.459 26.0766C139.956 28.1966 132.473 32.6762 129.513 42.0429L132.28 42.9173L129.513 42.043C126.38 51.956 119.288 61.9994 110.867 73.8614L113.313 75.598L110.867 73.8614L110.832 73.91C105.811 80.9837 100.386 88.6248 95.3347 97.0389C80.3798 121.945 71.4734 149.55 62.8232 176.604L62.8223 176.606L62.7732 176.761L62.7722 176.764L62.7315 176.891C50.283 215.814 18.3075 315.794 10.9814 364.84L13.9485 365.283L10.9814 364.84C2.14714 423.986 -2.04428 476.995 12.8768 520.795C20.1217 542.062 34.1418 562.859 52.5045 577.584C70.8885 592.325 93.7769 601.086 118.619 597.868C167.736 591.506 213.572 552.519 237.708 486.416C246.543 462.221 249.751 440.072 252.378 421.934L252.387 421.871C254.462 407.547 256.143 396.107 259.731 387.754C261.494 383.65 263.659 380.45 266.433 378.081C268.916 375.96 272.014 374.396 276.027 373.515C291.693 386.607 311.871 394.488 333.883 394.488C356.349 394.488 376.905 386.278 392.702 372.699H576.999C592.797 386.278 613.352 394.488 635.818 394.488C657.571 394.488 677.534 386.792 693.12 373.975C700.497 376.128 704.872 380.984 707.943 388.548C711.31 396.843 712.948 408.012 714.955 421.871L714.965 421.934C717.592 440.072 720.799 462.221 729.634 486.416C753.771 552.519 799.606 591.506 848.724 597.868C873.566 601.086 896.454 592.325 914.838 577.584C933.201 562.859 947.221 542.062 954.466 520.795C969.387 476.995 965.195 423.986 956.361 364.84C949.035 315.794 917.06 215.815 904.611 176.891L904.569 176.761C895.903 149.656 886.992 121.994 872.008 97.0388C866.957 88.6256 861.533 80.9849 856.512 73.9124L856.502 73.8982L856.484 73.8735L856.477 73.8624L856.472 73.856C848.053 61.9972 840.961 51.9549 837.83 42.0432C834.869 32.6762 827.387 28.1966 818.884 26.0766C810.572 24.0043 800.704 24.0266 791.883 24.0466L791.663 24.0471L791.662 24.0471L791.115 24.0482C790.408 24.0496 789.708 24.0511 789.013 24.0511H693.54L693.255 24.0511C686.415 24.0508 680.122 24.0505 674.666 25.4727C668.904 26.9747 664.074 30.0464 660.113 35.9832L660.112 35.9839L660.012 36.1342L660.012 36.1349C658.685 38.1252 656.982 40.6767 653.005 42.8474C648.951 45.06 642.263 47.0121 630.793 47.0121H336.55C325.079 47.0121 318.391 45.06 314.338 42.8474C310.361 40.6767 308.657 38.1252 307.331 36.1349Z" stroke="white" stroke-width="6"/>
<circle cx="635.816" cy="304.211" r="58.1129" stroke="white" stroke-width="3"/>
<circle cx="635.817" cy="304.211" r="34.7933" stroke="white" stroke-width="1.17944"/>
<path d="M679.016 229.034C687.633 245.222 700.09 259.034 715.163 269.24C719.884 279.935 722.506 291.766 722.506 304.21C722.506 352.087 683.694 390.898 635.817 390.898C587.94 390.898 549.129 352.087 549.129 304.21C549.129 256.333 587.94 217.521 635.817 217.521C651.548 217.521 666.299 221.711 679.016 229.034Z" stroke="white" stroke-width="1.17944"/>
<path d="M777.351 288.288C838.91 288.288 888.808 238.12 888.808 176.242C888.808 114.363 838.91 64.1954 777.351 64.1954C715.793 64.1954 665.895 114.363 665.895 176.242C665.895 238.12 715.793 288.288 777.351 288.288Z" stroke="white" stroke-width="1.17944"/>
<circle cx="776.171" cy="114.322" r="30.6653" stroke="white" stroke-width="3"/>
<circle cx="714.841" cy="175.653" r="30.6653" stroke="white" stroke-width="3"/>
<circle cx="836.323" cy="175.653" r="30.6653" stroke="white" stroke-width="3"/>
<circle cx="776.171" cy="235.803" r="30.6653" stroke="white" stroke-width="3"/>
<path d="M774.378 126.116V117.408L766.525 102.638H771.331L775.942 111.587C776.093 111.888 776.227 112.173 776.346 112.442C776.464 112.7 776.577 112.969 776.684 113.248H776.781C776.888 112.969 777.001 112.7 777.12 112.442C777.238 112.173 777.372 111.888 777.523 111.587L782.183 102.638H786.504L778.748 117.279V126.116H774.378Z" fill="white"/>
<path d="M765.186 247.598L773.587 224.039H778.198L786.632 247.598H782.101L776.312 230.586C776.183 230.199 776.075 229.839 775.989 229.505C775.903 229.172 775.823 228.844 775.747 228.522H775.635C775.57 228.844 775.495 229.172 775.409 229.505C775.323 229.839 775.215 230.199 775.086 230.586L769.346 247.598H765.186ZM769.555 242.148L770.507 238.955H781.085L782.036 242.148H769.555Z" fill="white"/>
<path d="M705.244 187.447L713.42 174.128H714.129L719.999 163.969H724.336L716.661 176.772H715.983L709.662 187.447H705.244ZM705.631 163.969L710.549 163.985L716.516 174.111H716.58L724.804 187.447H719.853L713.5 176.82H713.452L705.631 163.969Z" fill="white"/>
<path d="M829.064 187.447V163.969H837.482C839.901 163.969 841.771 164.474 843.093 165.485C844.416 166.484 845.077 168.016 845.077 170.08C845.077 171.392 844.776 172.472 844.174 173.321C843.582 174.171 842.835 174.751 841.932 175.063V175.127C843.05 175.439 843.969 176.068 844.69 177.014C845.41 177.96 845.77 179.212 845.77 180.771C845.77 182.889 845.055 184.534 843.625 185.705C842.206 186.866 840.309 187.447 837.933 187.447H829.064ZM833.354 184.302H837.562C838.885 184.302 839.858 183.964 840.481 183.287C841.105 182.609 841.416 181.69 841.416 180.529C841.416 179.379 841.105 178.46 840.481 177.772C839.858 177.084 838.885 176.74 837.562 176.74H833.354V184.302ZM833.354 173.87H837.127C838.439 173.87 839.385 173.574 839.965 172.983C840.546 172.381 840.836 171.542 840.836 170.467C840.836 169.403 840.546 168.586 839.965 168.016C839.385 167.446 838.439 167.162 837.127 167.162H833.354V173.87Z" fill="white"/>
<path d="M391.581 369.699C376.199 383.261 356.002 391.488 333.883 391.488C312.11 391.488 292.199 383.515 276.91 370.33C254.134 373.977 239.655 393.185 235.561 421.441C234.237 426.678 233.2 431.755 232.129 437C229.799 448.415 227.307 460.622 221.328 476.997C207.116 515.919 181.817 521.795 140.537 515.329C91.5902 507.663 75.0781 502.355 36.1568 485.843C1.36343 468.152 5.78181 424.451 14.6195 365.283C21.9083 316.484 53.8438 216.627 66.3012 177.674L66.3018 177.672C68.9487 169.396 70.7161 163.869 71.1807 162.167C73.8321 152.453 86.3599 118.931 98.5776 98.5829C103.573 90.2633 108.945 82.6961 113.984 75.5979C122.317 63.8594 129.74 53.4033 133.044 42.9471C138.096 26.9617 158.388 27.007 176.345 27.047C177.236 27.049 178.122 27.051 179 27.051H274.473C288.613 27.051 298.335 27.051 305.405 37.6483L305.505 37.7986C308.304 41.9993 313.643 50.0119 337.221 50.0119H630.793C654.371 50.0119 659.71 41.9993 662.509 37.7986L662.609 37.6483C669.679 27.051 679.4 27.051 693.541 27.051H789.013C789.891 27.051 790.777 27.049 791.669 27.047C809.625 27.007 829.917 26.9617 834.969 42.9471C838.274 53.4033 845.697 63.8594 854.03 75.5979C859.069 82.6961 864.441 90.2633 869.436 98.5829C881.654 118.931 894.182 152.453 896.833 162.167C897.297 163.868 899.062 169.386 901.705 177.65L901.712 177.672L901.713 177.674L901.713 177.676L901.714 177.678C914.172 216.632 946.106 316.486 953.394 365.283C962.232 424.451 966.65 468.152 931.857 485.843C892.936 502.355 876.424 507.663 827.477 515.329C786.197 521.795 760.897 515.919 746.686 476.997C740.707 460.622 738.214 448.415 735.884 437C734.814 431.755 733.777 426.678 732.452 421.441C728.444 393.769 714.474 374.775 692.506 370.576C677.255 383.614 657.457 391.488 635.819 391.488C613.7 391.488 593.503 383.261 578.122 369.699H391.581Z" stroke="white" stroke-width="1.17944"/>
<circle cx="192.941" cy="176.242" r="112.046" stroke="white" stroke-width="1.17944"/>
<path d="M170.083 212.564C170.291 208.435 170.401 206.805 171.092 205.402C171.782 203.998 173.005 202.915 176.148 200.23L184.722 192.904C186.946 191.004 188.509 189.672 189.836 188.798C191.128 187.948 192.04 187.639 192.942 187.639C193.843 187.639 194.756 187.948 196.047 188.798C197.374 189.672 198.937 191.004 201.161 192.904L209.735 200.23C212.879 202.915 214.101 203.998 214.792 205.402C215.482 206.805 215.592 208.435 215.8 212.564L217.482 246.02C217.602 248.389 217.68 250.011 217.575 251.231C217.474 252.408 217.217 252.967 216.85 253.353C216.482 253.74 215.936 254.024 214.766 254.184C213.553 254.35 211.929 254.354 209.557 254.354H176.326C173.954 254.354 172.33 254.35 171.117 254.184C169.947 254.024 169.401 253.74 169.034 253.353L167.947 254.387L169.034 253.353C168.666 252.967 168.41 252.408 168.308 251.231C168.203 250.011 168.282 248.389 168.401 246.02L170.083 212.564Z" stroke="white" stroke-width="3"/>
<path d="M155.44 152.204C159.569 152.412 161.198 152.522 162.602 153.213C164.006 153.903 165.088 155.126 167.774 158.269L175.1 166.843C177 169.067 178.332 170.63 179.206 171.957C180.056 173.249 180.364 174.161 180.364 175.063C180.364 175.964 180.056 176.877 179.206 178.168C178.332 179.495 177 181.059 175.1 183.282L167.774 191.856C165.088 195 164.006 196.222 162.602 196.913C161.198 197.603 159.569 197.713 155.44 197.921L121.984 199.604C119.615 199.723 117.993 199.801 116.773 199.696C115.596 199.595 115.037 199.338 114.65 198.971C114.264 198.603 113.98 198.057 113.82 196.888C113.653 195.675 113.65 194.05 113.65 191.678L113.65 158.447C113.65 156.075 113.653 154.451 113.82 153.238C113.98 152.068 114.264 151.522 114.65 151.155C115.037 150.787 115.596 150.531 116.773 150.429C117.993 150.324 119.615 150.403 121.984 150.522L155.44 152.204Z" stroke="white" stroke-width="3"/>
<path d="M170.083 137.561C170.291 141.69 170.401 143.32 171.092 144.723C171.782 146.127 173.005 147.21 176.148 149.895L184.722 157.221C186.946 159.121 188.509 160.453 189.836 161.327C191.128 162.177 192.04 162.486 192.942 162.486C193.843 162.486 194.756 162.177 196.047 161.327C197.374 160.453 198.937 159.121 201.161 157.221L209.735 149.895C212.879 147.21 214.101 146.127 214.792 144.723C215.482 143.32 215.592 141.69 215.8 137.561L217.482 104.105C217.602 101.736 217.68 100.114 217.575 98.8939C217.474 97.7174 217.217 97.1581 216.85 96.7716C216.482 96.3851 215.936 96.101 214.766 95.9407C213.553 95.7746 211.929 95.7713 209.557 95.7713H176.326C173.954 95.7713 172.33 95.7746 171.117 95.9407C169.947 96.101 169.401 96.3851 169.034 96.7716L167.947 95.7379L169.034 96.7716C168.666 97.1581 168.41 97.7174 168.308 98.8939C168.203 100.114 168.282 101.736 168.401 104.105L170.083 137.561Z" stroke="white" stroke-width="3"/>
<path d="M230.443 152.204C226.313 152.412 224.684 152.522 223.28 153.213C221.877 153.903 220.794 155.126 218.108 158.269L210.783 166.843C208.883 169.067 207.551 170.63 206.677 171.957C205.827 173.249 205.518 174.161 205.518 175.063C205.518 175.964 205.827 176.877 206.677 178.168C207.551 179.495 208.883 181.059 210.783 183.282L218.108 191.856C220.794 195 221.877 196.222 223.28 196.913C224.684 197.603 226.313 197.713 230.443 197.921L263.899 199.604C266.267 199.723 267.89 199.801 269.11 199.696C270.286 199.595 270.846 199.338 271.232 198.971C271.619 198.603 271.903 198.057 272.063 196.888C272.229 195.675 272.233 194.05 272.233 191.678L272.233 158.447C272.233 156.075 272.229 154.451 272.063 153.238C271.903 152.068 271.619 151.522 271.232 151.155L272.266 150.068L271.232 151.155C270.846 150.787 270.286 150.531 269.11 150.429C267.89 150.324 266.267 150.403 263.899 150.522L230.443 152.204Z" stroke="white" stroke-width="3"/>
<path d="M700.613 22.923L700.342 22.923C693.212 22.9228 686.88 22.9225 681.42 24.4776C681.765 18.8265 682.683 15.7356 684.85 13.5683C688.614 9.80473 694.93 6.88889 708.151 3.8975C711.288 3.18757 717.407 2.65196 725.173 2.32251C732.889 1.99523 742.091 1.87579 751.307 1.96251C760.524 2.04924 769.736 2.34199 777.474 2.83675C785.267 3.33507 791.408 4.03029 794.58 4.88077C795.978 5.25551 797.296 5.60504 798.541 5.93513C803.34 7.20807 807.05 8.19179 810.038 9.217C813.771 10.4974 816.152 11.7724 817.948 13.5683C819.813 15.4325 820.575 16.4857 821.011 18.3475C821.42 20.1 821.535 22.5559 821.565 26.8556C816.809 25.0183 811.312 24.045 805.47 23.5214C798.543 22.9005 790.982 22.902 783.405 22.919C783.405 22.919 783.405 22.919 783.405 22.919L782.859 22.9201L782.856 22.9201C782.149 22.9216 781.448 22.923 780.753 22.923H700.613Z" stroke="white" stroke-width="3.53831"/>
<path d="M266.201 22.923L266.473 22.923C273.602 22.9228 279.934 22.9225 285.395 24.4776C285.05 18.8265 284.132 15.7356 281.964 13.5683C278.201 9.80473 271.885 6.88889 258.664 3.8975C255.526 3.18757 249.408 2.65196 241.641 2.32251C233.926 1.99523 224.724 1.87579 215.507 1.96251C206.291 2.04924 197.078 2.34199 189.341 2.83675C181.548 3.33507 175.406 4.03029 172.234 4.88077C170.837 5.25551 169.519 5.60504 168.274 5.93513C163.474 7.20807 159.765 8.19179 156.776 9.217C153.043 10.4974 150.662 11.7724 148.866 13.5683C147.002 15.4325 146.239 16.4857 145.804 18.3475C145.394 20.1 145.279 22.5559 145.249 26.8556C150.005 25.0183 155.502 24.045 161.344 23.5214C168.272 22.9005 175.832 22.902 183.409 22.919C183.409 22.919 183.41 22.919 183.41 22.919L183.955 22.9201L183.959 22.9201C184.666 22.9216 185.366 22.923 186.061 22.923H266.201Z" stroke="white" stroke-width="3.53831"/>
<path d="M147.5 15.0316C198.973 12.5117 228.467 12.1806 283 15.0316" stroke="white" stroke-width="0.5"/>
<path d="M818.5 15.0316C767.473 12.5117 738.235 12.1806 684.175 15.0316" stroke="white" stroke-width="0.5"/>
</svg>
