<svg width="968" height="603" viewBox="0 0 968 603" fill="none" xmlns="http://www.w3.org/2000/svg">
<path opacity="0.2" d="M324.447 49.9834H644.074V120.951C644.074 158.663 644.074 177.52 632.358 189.235C620.643 200.951 601.787 200.951 564.074 200.951H404.447C366.735 200.951 347.879 200.951 336.163 189.235C324.447 177.52 324.447 158.663 324.447 120.951V49.9834Z" stroke="white" stroke-width="1.17944"/>
<path opacity="0.2" d="M332.883 49.9834H634.818V132.695C634.818 160.979 634.818 175.121 626.031 183.908C617.245 192.695 603.102 192.695 574.818 192.695H392.883C364.599 192.695 350.456 192.695 341.67 183.908C332.883 175.121 332.883 160.979 332.883 132.695V49.9834Z" stroke="white" stroke-width="2.35887"/>
<path opacity="0.2" d="M277.27 74.1626C277.27 65.3689 284.398 58.2402 293.192 58.2402V58.2402C301.986 58.2402 309.114 65.3689 309.114 74.1626V96.5719C309.114 105.366 301.986 112.494 293.192 112.494V112.494C284.398 112.494 277.27 105.366 277.27 96.5719V74.1626Z" stroke="white" stroke-width="3.53831"/>
<path opacity="0.2" d="M660.586 74.7523C660.586 65.6329 667.979 58.2402 677.098 58.2402V58.2402C686.217 58.2402 693.61 65.6329 693.61 74.7523V95.9822C693.61 105.102 686.217 112.494 677.098 112.494V112.494C667.979 112.494 660.586 105.102 660.586 95.9822V74.7523Z" stroke="white" stroke-width="3.53831"/>
<circle opacity="0.2" cx="484.85" cy="307.101" r="22.999" stroke="white" stroke-width="1.17944"/>
<circle opacity="0.2" cx="447.108" cy="242.232" r="5.30746" stroke="white" stroke-width="1.17944"/>
<circle opacity="0.2" cx="456.544" cy="254.026" r="5.30746" stroke="white" stroke-width="1.17944"/>
<circle opacity="0.2" cx="465.979" cy="265.821" r="5.30746" stroke="white" stroke-width="1.17944"/>
<circle opacity="0.2" cx="465.979" cy="242.232" r="5.30746" stroke="white" stroke-width="1.17944"/>
<circle opacity="0.2" cx="475.415" cy="254.026" r="5.30746" stroke="white" stroke-width="1.17944"/>
<circle opacity="0.2" cx="484.85" cy="265.821" r="5.30746" stroke="white" stroke-width="1.17944"/>
<circle opacity="0.2" cx="484.85" cy="242.232" r="5.30746" stroke="white" stroke-width="1.17944"/>
<circle opacity="0.2" cx="494.286" cy="254.026" r="5.30746" stroke="white" stroke-width="1.17944"/>
<circle opacity="0.2" cx="503.721" cy="265.821" r="5.30746" stroke="white" stroke-width="1.17944"/>
<circle opacity="0.2" cx="503.721" cy="242.232" r="5.30746" stroke="white" stroke-width="1.17944"/>
<circle opacity="0.2" cx="513.157" cy="254.026" r="5.30746" stroke="white" stroke-width="1.17944"/>
<circle opacity="0.2" cx="522.592" cy="242.232" r="5.30746" stroke="white" stroke-width="1.17944"/>
<g opacity="0.2">
<circle cx="333.884" cy="304.742" r="58.1129" stroke="white" stroke-width="3"/>
<circle cx="333.883" cy="304.742" r="34.7933" stroke="white" stroke-width="1.17944"/>
<path d="M247.195 304.741C247.195 292.628 249.679 281.097 254.165 270.628C270.177 260.162 283.347 245.709 292.266 228.678C304.618 221.905 318.8 218.053 333.884 218.053C381.76 218.053 420.572 256.864 420.572 304.741C420.572 352.618 381.76 391.43 333.884 391.43C286.007 391.43 247.195 352.618 247.195 304.741Z" stroke="white" stroke-width="1.17944"/>
</g>
<path opacity="0.2" d="M307.331 36.6661L307.33 36.6654L307.23 36.5151L307.23 36.5145C303.269 30.5776 298.439 27.506 292.676 26.004C287.22 24.5818 280.927 24.582 274.087 24.5823L273.802 24.5823H178.331H178.329L176.229 24.58L176.223 24.58L175.683 24.5783L175.681 24.5783L175.46 24.5778C166.639 24.5579 156.77 24.5355 148.459 26.6078C139.956 28.7278 132.473 33.2074 129.513 42.5742L132.28 43.4486L129.513 42.5742C126.38 52.4873 119.288 62.5307 110.867 74.3926L113.313 76.1292L110.867 74.3926L110.832 74.4412C105.811 81.515 100.386 89.1561 95.3347 97.5701C80.3798 122.476 71.4734 150.081 62.8232 177.135L62.8223 177.138L62.7732 177.292L62.7722 177.295L62.7315 177.422C50.283 216.345 18.3075 316.325 10.9814 365.371L13.9485 365.814L10.9814 365.371C2.14714 424.517 -2.04428 477.526 12.8768 521.326C20.1217 542.593 34.1418 563.39 52.5045 578.115C70.8885 592.857 93.7769 601.617 118.619 598.399C167.736 592.037 213.572 553.05 237.708 486.947C246.543 462.752 249.751 440.603 252.378 422.465L252.387 422.402C254.462 408.078 256.143 396.639 259.731 388.286C261.494 384.181 263.659 380.981 266.433 378.612C268.916 376.491 272.014 374.927 276.027 374.047C291.693 387.138 311.871 395.02 333.883 395.02C356.349 395.02 376.905 386.81 392.702 373.23H576.999C592.797 386.81 613.352 395.02 635.818 395.02C657.571 395.02 677.534 387.323 693.12 374.506C700.497 376.66 704.872 381.515 707.943 389.079C711.31 397.374 712.948 408.543 714.955 422.402L714.965 422.466C717.592 440.604 720.799 462.752 729.634 486.947C753.771 553.05 799.606 592.037 848.724 598.399C873.566 601.617 896.454 592.857 914.838 578.115C933.201 563.39 947.221 542.593 954.466 521.326C969.387 477.526 965.195 424.517 956.361 365.371C949.035 316.325 917.06 216.346 904.611 177.423L904.569 177.292C895.903 150.187 886.992 122.525 872.008 97.5701C866.957 89.1569 861.533 81.5162 856.512 74.4436L856.502 74.4295L856.484 74.4047L856.477 74.3937L856.472 74.3873C848.053 62.5284 840.961 52.4862 837.83 42.5744C834.869 33.2074 827.387 28.7278 818.884 26.6078C810.572 24.5355 800.704 24.5579 791.883 24.5778L791.663 24.5783L791.662 24.5783L791.115 24.5794C790.408 24.5809 789.708 24.5823 789.013 24.5823H693.54L693.255 24.5823C686.415 24.582 680.122 24.5818 674.666 26.004C668.904 27.506 664.074 30.5776 660.113 36.5145L660.112 36.5151L660.012 36.6654L660.012 36.6661C658.685 38.6565 656.982 41.2079 653.005 43.3787C648.951 45.5913 642.263 47.5433 630.793 47.5433H336.55C325.079 47.5433 318.391 45.5913 314.338 43.3787C310.361 41.2079 308.657 38.6564 307.331 36.6661Z" stroke="white" stroke-width="6"/>
<g opacity="0.2">
<circle cx="635.816" cy="304.742" r="58.1129" stroke="white" stroke-width="3"/>
<circle cx="635.817" cy="304.742" r="34.7933" stroke="white" stroke-width="1.17944"/>
<path d="M679.016 229.565C687.633 245.753 700.09 259.565 715.163 269.771C719.884 280.466 722.506 292.297 722.506 304.741C722.506 352.618 683.694 391.43 635.817 391.43C587.94 391.43 549.129 352.618 549.129 304.741C549.129 256.864 587.94 218.053 635.817 218.053C651.548 218.053 666.299 222.242 679.016 229.565Z" stroke="white" stroke-width="1.17944"/>
</g>
<g opacity="0.2">
<path d="M777.351 288.819C838.91 288.819 888.808 238.652 888.808 176.773C888.808 114.894 838.91 64.7267 777.351 64.7267C715.793 64.7267 665.895 114.894 665.895 176.773C665.895 238.652 715.793 288.819 777.351 288.819Z" stroke="white" stroke-width="1.17944"/>
<circle cx="776.171" cy="114.853" r="30.6653" stroke="white" stroke-width="3"/>
<circle cx="714.841" cy="176.184" r="30.6653" stroke="white" stroke-width="3"/>
<circle cx="836.323" cy="176.184" r="30.6653" stroke="white" stroke-width="3"/>
<circle cx="776.171" cy="236.335" r="30.6653" stroke="white" stroke-width="3"/>
<path d="M774.378 126.647V117.94L766.525 103.169H771.331L775.942 112.118C776.093 112.419 776.227 112.704 776.346 112.973C776.464 113.231 776.577 113.5 776.684 113.779H776.781C776.888 113.5 777.001 113.231 777.12 112.973C777.238 112.704 777.372 112.419 777.523 112.118L782.183 103.169H786.504L778.748 117.811V126.647H774.378Z" fill="white"/>
<path d="M765.186 248.129L773.587 224.57H778.198L786.632 248.129H782.101L776.312 231.117C776.183 230.73 776.075 230.37 775.989 230.037C775.903 229.703 775.823 229.376 775.747 229.053H775.635C775.57 229.376 775.495 229.703 775.409 230.037C775.323 230.37 775.215 230.73 775.086 231.117L769.346 248.129H765.186ZM769.555 242.679L770.507 239.486H781.085L782.036 242.679H769.555Z" fill="white"/>
<path d="M705.244 187.978L713.42 174.659H714.129L719.999 164.5H724.336L716.661 177.303H715.983L709.662 187.978H705.244ZM705.631 164.5L710.549 164.516L716.516 174.643H716.58L724.804 187.978H719.853L713.5 177.352H713.452L705.631 164.5Z" fill="white"/>
<path d="M829.064 187.978V164.5H837.482C839.901 164.5 841.771 165.005 843.093 166.016C844.416 167.016 845.077 168.547 845.077 170.611C845.077 171.923 844.776 173.003 844.174 173.853C843.582 174.702 842.835 175.282 841.932 175.594V175.659C843.05 175.97 843.969 176.599 844.69 177.545C845.41 178.491 845.77 179.744 845.77 181.302C845.77 183.42 845.055 185.065 843.625 186.237C842.206 187.398 840.309 187.978 837.933 187.978H829.064ZM833.354 184.834H837.562C838.885 184.834 839.858 184.495 840.481 183.818C841.105 183.141 841.416 182.221 841.416 181.06C841.416 179.91 841.105 178.991 840.481 178.303C839.858 177.615 838.885 177.271 837.562 177.271H833.354V184.834ZM833.354 174.401H837.127C838.439 174.401 839.385 174.105 839.965 173.514C840.546 172.912 840.836 172.073 840.836 170.998C840.836 169.934 840.546 169.117 839.965 168.547C839.385 167.978 838.439 167.693 837.127 167.693H833.354V174.401Z" fill="white"/>
</g>
<path opacity="0.2" d="M391.581 370.23C376.199 383.792 356.002 392.02 333.883 392.02C312.11 392.02 292.199 384.047 276.91 370.861C254.134 374.508 239.655 393.716 235.561 421.972C234.237 427.209 233.2 432.286 232.129 437.531C229.799 448.946 227.307 461.154 221.328 477.529C207.116 516.45 181.817 522.326 140.537 515.86C91.5902 508.194 75.0781 502.887 36.1568 486.374C1.36343 468.683 5.78181 424.983 14.6195 365.814C21.9083 317.015 53.8438 217.158 66.3012 178.205L66.3018 178.203C68.9487 169.927 70.7161 164.401 71.1807 162.698C73.8321 152.984 86.3599 119.462 98.5776 99.1141C103.573 90.7945 108.945 83.2274 113.984 76.1291C122.317 64.3907 129.74 53.9346 133.044 43.4783C138.096 27.4929 158.388 27.5382 176.345 27.5783C177.236 27.5803 178.122 27.5822 179 27.5822H274.473C288.613 27.5822 298.335 27.5822 305.405 38.1796L305.505 38.3298C308.304 42.5306 313.643 50.5432 337.221 50.5432H630.793C654.371 50.5432 659.71 42.5306 662.509 38.3298L662.609 38.1796C669.679 27.5822 679.4 27.5822 693.541 27.5822H789.013C789.891 27.5822 790.777 27.5803 791.669 27.5783C809.625 27.5382 829.917 27.4929 834.969 43.4783C838.274 53.9346 845.697 64.3907 854.03 76.1291C859.069 83.2274 864.441 90.7945 869.436 99.1141C881.654 119.462 894.182 152.984 896.833 162.698C897.297 164.399 899.062 169.917 901.705 178.181L901.712 178.203L901.713 178.205L901.713 178.208L901.714 178.209C914.172 217.164 946.106 317.017 953.394 365.814C962.232 424.983 966.65 468.683 931.857 486.374C892.936 502.887 876.424 508.194 827.477 515.86C786.197 522.326 760.897 516.45 746.686 477.529C740.707 461.154 738.214 448.946 735.884 437.531C734.814 432.286 733.777 427.209 732.452 421.972C728.444 394.3 714.474 375.306 692.506 371.107C677.255 384.146 657.457 392.02 635.819 392.02C613.7 392.02 593.503 383.792 578.122 370.23H391.581Z" stroke="white" stroke-width="1.17944"/>
<circle cx="192.941" cy="176.773" r="112.046" stroke="white" stroke-width="1.17944"/>
<path d="M171.581 213.171C171.795 208.914 171.916 207.657 172.438 206.595C172.96 205.534 173.882 204.671 177.123 201.902L185.697 194.576C187.95 192.651 189.431 191.393 190.661 190.583C191.821 189.819 192.445 189.671 192.942 189.671C193.439 189.671 194.062 189.819 195.222 190.583C196.452 191.393 197.934 192.651 200.187 194.576L208.761 201.902C212.001 204.671 212.924 205.534 213.446 206.595C213.968 207.657 214.088 208.914 214.302 213.171L215.984 246.627C216.106 249.039 216.175 250.541 216.08 251.634C215.996 252.611 215.812 252.801 215.766 252.848C215.765 252.849 215.764 252.85 215.763 252.851C215.762 252.853 215.76 252.854 215.759 252.855C215.715 252.903 215.534 253.097 214.563 253.23C213.475 253.379 211.972 253.385 209.557 253.385H176.326C173.911 253.385 172.408 253.379 171.32 253.23C170.349 253.097 170.168 252.903 170.124 252.855C170.123 252.854 170.122 252.853 170.12 252.851L167.961 254.905L170.12 252.851C170.119 252.85 170.118 252.849 170.117 252.848C170.071 252.801 169.887 252.611 169.803 251.634C169.709 250.541 169.778 249.039 169.899 246.627L171.581 213.171Z" stroke="white" stroke-width="6"/>
<path d="M155.365 154.234C159.622 154.448 160.879 154.568 161.94 155.09C163.002 155.612 163.865 156.534 166.634 159.775L173.96 168.349C175.885 170.602 177.143 172.083 177.953 173.313C178.717 174.473 178.864 175.097 178.864 175.594C178.864 176.091 178.717 176.715 177.953 177.875C177.143 179.105 175.885 180.586 173.96 182.839L166.634 191.413C163.865 194.654 163.002 195.576 161.94 196.098C160.879 196.62 159.622 196.74 155.365 196.954L121.909 198.637C119.497 198.758 117.995 198.827 116.901 198.733C115.924 198.649 115.735 198.464 115.688 198.419C115.687 198.417 115.685 198.416 115.684 198.415C115.683 198.414 115.682 198.413 115.68 198.411C115.633 198.367 115.439 198.187 115.306 197.215C115.157 196.128 115.15 194.625 115.15 192.209L115.15 158.979C115.15 156.563 115.157 155.06 115.306 153.973C115.439 153.001 115.633 152.821 115.68 152.777C115.682 152.775 115.683 152.774 115.684 152.773C115.685 152.772 115.687 152.77 115.688 152.769C115.735 152.724 115.924 152.539 116.901 152.455C117.995 152.361 119.497 152.43 121.909 152.551L155.365 154.234Z" stroke="white" stroke-width="6"/>
<path d="M171.581 138.017C171.795 142.274 171.916 143.531 172.438 144.593C172.96 145.654 173.882 146.517 177.123 149.286L185.697 156.612C187.95 158.537 189.431 159.795 190.661 160.605C191.821 161.369 192.445 161.517 192.942 161.517C193.439 161.517 194.062 161.369 195.222 160.605C196.452 159.795 197.934 158.537 200.187 156.612L208.761 149.286C212.001 146.517 212.924 145.654 213.446 144.593C213.968 143.531 214.088 142.274 214.302 138.017L215.984 104.561C216.106 102.149 216.175 100.647 216.08 99.5538C215.996 98.5768 215.812 98.387 215.766 98.3404C215.765 98.339 215.764 98.3377 215.763 98.3365C215.762 98.3353 215.76 98.334 215.759 98.3326C215.715 98.285 215.534 98.0912 214.563 97.9581C213.475 97.8091 211.972 97.8025 209.557 97.8025H176.326C173.911 97.8025 172.408 97.8091 171.32 97.9581C170.349 98.0912 170.168 98.285 170.124 98.3326C170.123 98.334 170.122 98.3353 170.12 98.3365L167.961 96.283L170.12 98.3365C170.119 98.3377 170.118 98.339 170.117 98.3404C170.071 98.387 169.887 98.5768 169.803 99.5538C169.709 100.647 169.778 102.149 169.899 104.561L171.581 138.017Z" stroke="white" stroke-width="6"/>
<path d="M230.518 154.234C226.261 154.448 225.004 154.568 223.942 155.09C222.881 155.612 222.018 156.534 219.249 159.775L211.923 168.349C209.998 170.602 208.74 172.083 207.93 173.313C207.166 174.473 207.018 175.097 207.018 175.594C207.018 176.091 207.166 176.715 207.93 177.875C208.74 179.105 209.998 180.586 211.923 182.839L219.249 191.413C222.018 194.654 222.881 195.576 223.942 196.098L222.619 198.79L223.942 196.098C225.004 196.62 226.261 196.74 230.518 196.954L263.974 198.637C266.386 198.758 267.888 198.827 268.981 198.733C269.958 198.649 270.148 198.464 270.195 198.419C270.196 198.417 270.197 198.416 270.199 198.415C270.2 198.414 270.201 198.413 270.203 198.411C270.25 198.367 270.444 198.187 270.577 197.215C270.726 196.128 270.733 194.625 270.733 192.209L270.733 158.979C270.733 156.563 270.726 155.06 270.577 153.973C270.444 153.001 270.25 152.821 270.203 152.777C270.201 152.775 270.2 152.774 270.199 152.773L272.252 150.613L270.199 152.773C270.197 152.772 270.196 152.77 270.195 152.769C270.148 152.724 269.958 152.539 268.981 152.455C267.888 152.361 266.386 152.43 263.974 152.551L230.518 154.234Z" stroke="white" stroke-width="6"/>
<path opacity="0.2" d="M700.613 23.4543L700.342 23.4543C693.212 23.454 686.88 23.4538 681.42 25.0089C681.765 19.3578 682.683 16.2668 684.85 14.0996C688.614 10.336 694.93 7.42014 708.151 4.42875C711.288 3.71882 717.407 3.18321 725.173 2.85376C732.889 2.52648 742.091 2.40704 751.307 2.49376C760.524 2.58049 769.736 2.87324 777.474 3.368C785.267 3.86632 791.408 4.56154 794.58 5.41202C795.978 5.78676 797.296 6.13629 798.541 6.46638C803.34 7.73932 807.05 8.72304 810.038 9.74825C813.771 11.0287 816.152 12.3036 817.948 14.0996C819.813 15.9638 820.575 17.017 821.011 18.8787C821.42 20.6312 821.535 23.0871 821.565 27.3869C816.809 25.5496 811.312 24.5763 805.47 24.0527C798.543 23.4318 790.982 23.4332 783.405 23.4502C783.405 23.4502 783.405 23.4502 783.405 23.4502L782.859 23.4513L782.856 23.4514C782.149 23.4528 781.448 23.4543 780.753 23.4543H700.613Z" stroke="white" stroke-width="3.53831"/>
<path opacity="0.2" d="M266.201 23.4543L266.473 23.4543C273.602 23.454 279.934 23.4538 285.395 25.0089C285.05 19.3578 284.132 16.2668 281.964 14.0996C278.201 10.336 271.885 7.42014 258.664 4.42875C255.526 3.71882 249.408 3.18321 241.641 2.85376C233.926 2.52648 224.724 2.40704 215.507 2.49376C206.291 2.58049 197.078 2.87324 189.341 3.368C181.548 3.86632 175.406 4.56154 172.234 5.41202C170.837 5.78676 169.519 6.13629 168.274 6.46638C163.474 7.73932 159.765 8.72304 156.776 9.74825C153.043 11.0287 150.662 12.3036 148.866 14.0996C147.002 15.9638 146.239 17.017 145.804 18.8787C145.394 20.6312 145.279 23.0871 145.249 27.3869C150.005 25.5496 155.502 24.5763 161.344 24.0527C168.272 23.4318 175.832 23.4332 183.409 23.4502C183.409 23.4502 183.41 23.4502 183.41 23.4502L183.955 23.4513L183.959 23.4514C184.666 23.4528 185.366 23.4543 186.061 23.4543H266.201Z" stroke="white" stroke-width="3.53831"/>
<path opacity="0.2" d="M147.5 15.5629C198.973 13.043 228.467 12.7119 283 15.5629" stroke="white" stroke-width="0.5"/>
<path opacity="0.2" d="M818.5 15.5629C767.473 13.043 738.235 12.7119 684.175 15.5629" stroke="white" stroke-width="0.5"/>
</svg>
