<svg width="963" height="407" fill="none" xmlns="http://www.w3.org/2000/svg"><path d="M213.401 344.85h45.178v8.435a3.719 3.719 0 0 1-3.718 3.718h-41.46V344.85Zm-94.355 0h45.177v12.153h-41.459a3.718 3.718 0 0 1-3.718-3.718v-8.435Zm47.178 0h45.177v12.153h-45.177V344.85Zm504.797 0h56.972v8.435a3.718 3.718 0 0 1-3.718 3.718h-49.536a3.719 3.719 0 0 1-3.718-3.718v-8.435Z" stroke="#fff" stroke-width="2"/><path d="M662.921 355.644a5.897 5.897 0 0 0-5.897 5.897v19.538a3.538 3.538 0 0 0 3.538 3.539h17.485c4.572 0 7.945 4.271 6.884 8.718l-2.12 8.888a4.717 4.717 0 0 1-4.589 3.624h-99.188a4.717 4.717 0 0 1-4.589-3.624l-2.12-8.888c-1.061-4.447 2.312-8.718 6.884-8.718h18.176a3.538 3.538 0 0 0 3.538-3.539v-19.538a5.897 5.897 0 0 0-5.897-5.897H573.13a11.233 11.233 0 0 1-10.24-6.614c-1.061-4.448 2.311-5.18 6.883-5.18h100.249v9.435c0 .859.23 1.665.631 2.359h-7.732Zm70.611-10.794h56.972v8.435a3.719 3.719 0 0 1-3.718 3.718H737.25a3.719 3.719 0 0 1-3.718-3.718v-8.435Zm61.33 0h56.972v8.435a3.718 3.718 0 0 1-3.718 3.718H798.58a3.719 3.719 0 0 1-3.718-3.718v-8.435Zm-436.236 16.691a5.897 5.897 0 0 1 5.897-5.897h21.206c4.417 0 8.424-2.588 10.24-6.614 1.061-4.448-2.312-5.18-6.884-5.18H271.376c-4.572 0-7.944.732-6.884 5.18a11.233 11.233 0 0 0 10.24 6.614h21.896a5.897 5.897 0 0 1 5.897 5.897v19.538a3.538 3.538 0 0 1-3.538 3.539h-18.176c-4.572 0-7.944 4.271-6.883 8.718l2.119 8.888a4.718 4.718 0 0 0 4.589 3.624h99.189a4.718 4.718 0 0 0 4.589-3.624l2.119-8.888c1.061-4.447-2.311-8.718-6.883-8.718h-17.486a3.538 3.538 0 0 1-3.538-3.539v-19.538Z" stroke="#fff" stroke-width="2"/><path d="M322.679 340.075c0-10.898 0-19.039.485-25.515.485-6.469 1.452-11.227 3.361-15.367a41.866 41.866 0 0 1 20.494-20.494c4.14-1.909 8.898-2.875 15.367-3.36 6.475-.486 14.617-.486 25.515-.486h184.464c10.898 0 19.04 0 25.515.486 6.469.485 11.228 1.451 15.367 3.36a41.868 41.868 0 0 1 20.495 20.494c1.908 4.14 2.875 8.898 3.36 15.367.485 6.476.486 14.617.486 25.515 0 1.219-.001 2.101-.053 2.796-.051.689-.152 1.148-.326 1.527a4.126 4.126 0 0 1-2.021 2.021c-.379.175-.838.275-1.527.327-.696.052-1.577.052-2.796.052H329.401c-1.218 0-2.1 0-2.795-.052-.69-.052-1.148-.152-1.528-.327a4.125 4.125 0 0 1-2.02-2.021c-.175-.379-.275-.838-.327-1.527-.052-.695-.052-1.577-.052-2.796Z" stroke="#fff" stroke-width="1.179"/><path d="M332.363 303.203c-1.628 3.564-2.417 7.588-2.808 12.849-.39 5.239-.39 11.8-.39 20.456v.096c0 1.161 0 2.098.057 2.858.058.783.181 1.473.476 2.119a5.896 5.896 0 0 0 2.915 2.915c.647.295 1.336.418 2.119.476.76.057 1.697.057 2.858.057h285.086c1.161 0 2.097 0 2.858-.057.782-.058 1.472-.181 2.119-.476a5.896 5.896 0 0 0 2.915-2.915c.295-.646.418-1.336.476-2.119.057-.76.057-1.697.057-2.858v-.096c0-8.657 0-15.217-.39-20.456-.391-5.261-1.18-9.285-2.808-12.849a35.385 35.385 0 0 0-17.487-17.487c-3.564-1.627-7.587-2.416-12.849-2.808-5.239-.389-11.799-.389-20.456-.389H383.154c-8.656 0-15.216 0-20.455.389-5.262.392-9.285 1.181-12.849 2.808a35.385 35.385 0 0 0-17.487 17.487Z" stroke="#fff" stroke-width="2.359"/><path d="M454.775 251.854a8.846 8.846 0 0 1 8.846-8.846h34.204a8.845 8.845 0 0 1 8.845 8.846 8.845 8.845 0 0 1-8.845 8.845h-34.204a8.846 8.846 0 0 1-8.846-8.845Z" stroke="#fff" stroke-width="1.179"/><path stroke="#fff" stroke-width="2.359" d="M464.8 251.854h31.845"/><path d="M261.322 257.752v-19.334l-5.821 2.177v-3.693l7.901-2.886h2.274v23.736h-4.354Zm-23.058 0v-23.478h4.353v20.059h10.079v3.419h-14.432Z" fill="#fff"/><path d="M140.587 216.471c0-4.448 0-6.672 1.382-8.054 1.382-1.382 3.605-1.382 8.053-1.382h125.021c4.447 0 6.671 0 8.053 1.382 1.382 1.382 1.382 3.606 1.382 8.054v34.203c0 26.688 0 40.032-8.291 48.322-8.291 8.291-21.634 8.291-48.322 8.291h-16.512c-33.359 0-50.039 0-60.403-10.363-10.363-10.364-10.363-27.044-10.363-60.403v-20.05Z" stroke="#fff" stroke-width="3"/><path d="M140.882 229.445c0-2.232 0-3.877.17-5.137.168-1.252.498-2.081 1.125-2.708.627-.627 1.456-.957 2.708-1.125 1.261-.17 2.905-.17 5.137-.17h125.021c2.232 0 3.876 0 5.137.17 1.252.168 2.081.498 2.708 1.125.627.627.957 1.456 1.125 2.708.17 1.26.17 2.905.17 5.137v21.23c0 13.352 0 23.337-1.034 31.021-1.032 7.675-3.089 13.011-7.17 17.093-4.082 4.081-9.418 6.138-17.093 7.17-7.684 1.033-17.669 1.034-31.021 1.034h-16.512c-16.688 0-29.174-.001-38.786-1.293-9.602-1.291-16.29-3.866-21.408-8.984-5.118-5.118-7.693-11.806-8.984-21.409-1.293-9.611-1.293-22.097-1.293-38.785v-7.077Z" stroke="#fff" stroke-width=".59"/><path d="M717.951 257.752v-19.334l-5.821 2.177v-3.693l7.901-2.886h2.274v23.736h-4.354Zm-25.606 0v-23.478h8.288c2.516 0 4.472.65 5.87 1.951 1.397 1.29 2.096 3.042 2.096 5.257 0 2.236-.71 4.025-2.129 5.369-1.419 1.333-3.375 2-5.869 2h-3.902v8.901h-4.354Zm4.354-12.078h3.563c1.473 0 2.505-.382 3.096-1.145.591-.763.887-1.747.887-2.951s-.296-2.177-.887-2.918c-.591-.742-1.623-1.113-3.096-1.113h-3.563v8.127Zm8.159 12.078-5.321-10.707 4.337-.532 5.821 11.239h-4.837Z" fill="#fff"/><path d="M820.857 216.471c0-4.448 0-6.672-1.381-8.054-1.382-1.382-3.606-1.382-8.054-1.382h-125.02c-4.448 0-6.672 0-8.054 1.382-1.382 1.382-1.382 3.606-1.382 8.054v34.203c0 26.688 0 40.032 8.291 48.322 8.291 8.291 21.635 8.291 48.322 8.291h16.512c33.36 0 50.04 0 60.403-10.363 10.363-10.364 10.363-27.044 10.363-60.403v-20.05Z" stroke="#fff" stroke-width="3"/><path d="M820.563 229.445c0-2.232-.001-3.877-.171-5.137-.168-1.252-.498-2.081-1.125-2.708-.627-.627-1.456-.957-2.708-1.125-1.26-.17-2.905-.17-5.137-.17h-125.02c-2.232 0-3.877 0-5.138.17-1.252.168-2.08.498-2.707 1.125-.627.627-.957 1.456-1.126 2.708-.169 1.26-.17 2.905-.17 5.137v21.23c0 13.352.001 23.337 1.034 31.021 1.032 7.675 3.089 13.011 7.171 17.093 4.081 4.081 9.417 6.138 17.093 7.17 7.684 1.033 17.668 1.034 31.02 1.034h16.512c16.688 0 29.175-.001 38.786-1.293 9.602-1.291 16.291-3.866 21.408-8.984 5.118-5.118 7.694-11.806 8.985-21.409 1.292-9.611 1.293-22.097 1.293-38.785v-7.077Zm-684.825-21.509v30.609c0 34.629 1.179 50.764 12.222 61.522 11.043 10.758 27.637 11.938 63.184 11.938h17.595c28.438 0 42.645-2.152 51.48-10.758 8.834-8.607 8.845-20.307 8.845-48.01v-45.301c0-1.158 0-2.17-.023-3.061.023-.89.023-1.902.023-3.06v-95.157c0-7.112 0-10.669-.407-13.565-2.919-20.745-20.8-36.397-42.285-37.014-2.999-.086-13.92.86-16.869 1.168-2.949.307-14.693 1.73-19.77 2.844-35.932 7.89-63.369 36.21-69.378 71.613-.849 5.002-2.318 10.767-2.898 22.297l-1.719 53.935Z" stroke="#fff" stroke-width=".59"/><path d="M825.707 207.936v30.609c0 34.629-1.179 50.764-12.222 61.522-11.043 10.758-27.637 11.938-63.184 11.938h-17.595c-28.438 0-42.645-2.152-51.479-10.758-8.835-8.607-8.846-20.307-8.846-48.01v-45.301c0-1.158 0-2.17.023-3.061-.023-.89-.023-1.902-.023-3.06v-95.157c0-7.112 0-10.669.407-13.565 2.92-20.745 20.801-36.397 42.285-37.014 3-.086 13.921.86 16.869 1.168 2.949.307 14.693 1.73 19.771 2.844 35.931 7.89 63.368 36.21 69.377 71.613.849 5.002 2.319 10.767 2.899 22.297l1.718 53.935Z" stroke="#fff" stroke-width=".59"/><path d="M254.437 169.292v-2.773l8.127-9.063c.903-1.01 1.617-1.945 2.144-2.805.527-.871.79-1.774.79-2.709 0-.989-.285-1.779-.854-2.371-.559-.602-1.344-.903-2.355-.903-1.021 0-1.859.339-2.515 1.016-.656.667-.984 1.715-.984 3.145v.419h-4.386v-.629c0-2.15.731-3.892 2.193-5.225 1.462-1.343 3.365-2.015 5.709-2.015 2.429 0 4.3.602 5.611 1.806 1.322 1.193 1.984 2.714 1.984 4.563 0 1.516-.382 2.87-1.145 4.064-.764 1.193-1.742 2.44-2.935 3.741l-5.531 6.24h10.159v3.499h-16.012Zm-16.173 0v-23.478h4.353v20.06h10.079v3.418h-14.432Z" fill="#fff"/><path d="M141.027 192.756c-.167 3.179-.25 4.768.406 5.952.388.7.947 1.29 1.626 1.714 1.147.717 2.739.717 5.922.717h126.062c4.447 0 6.671 0 8.053-1.382 1.382-1.382 1.382-3.606 1.382-8.054v-82.114c0-6.96 0-10.44-.395-13.273-2.773-19.912-19.487-34.93-39.582-35.566-2.859-.09-6.319.281-13.239 1.023-11.194 1.2-16.791 1.8-21.617 2.895-33.511 7.608-59.135 34.661-64.912 68.535-.832 4.879-1.128 10.5-1.718 21.743l-1.988 37.81Z" stroke="#fff" stroke-width="3"/><path d="M141.326 181.661c-.073 1.261-.126 2.19-.113 2.927.013.734.093 1.253.272 1.697a4.42 4.42 0 0 0 2.208 2.339c.432.204.946.314 1.678.369.735.056 1.666.056 2.928.056h126.744c2.232 0 3.876-.001 5.137-.17 1.252-.169 2.081-.499 2.708-1.126.627-.627.957-1.455 1.125-2.707.17-1.261.17-2.905.17-5.138v-70.146c0-7.13-.001-10.663-.41-13.534-2.802-19.664-19.301-34.49-39.152-35.179-2.898-.1-6.411.275-13.5 1.035-11.402 1.222-17.078 1.831-21.973 2.954-33.088 7.588-58.439 34.215-64.395 67.636-.881 4.944-1.211 10.643-1.873 22.091l-1.554 26.896Z" stroke="#fff" stroke-width=".59"/><path d="M711.066 169.292v-2.773l8.127-9.062c.903-1.011 1.618-1.946 2.145-2.806.527-.871.79-1.774.79-2.709 0-.989-.285-1.779-.854-2.371-.559-.602-1.344-.903-2.355-.903-1.021 0-1.859.339-2.515 1.016-.656.667-.984 1.715-.984 3.145v.419h-4.386v-.629c0-2.15.731-3.891 2.193-5.224 1.462-1.344 3.365-2.016 5.708-2.016 2.43 0 4.3.602 5.612 1.806 1.322 1.193 1.983 2.714 1.983 4.563 0 1.516-.381 2.871-1.144 4.064-.764 1.193-1.742 2.44-2.935 3.741l-5.531 6.24h10.159v3.499h-16.013Zm-18.721 0v-23.478h8.288c2.516 0 4.472.651 5.87 1.951 1.397 1.29 2.096 3.043 2.096 5.257 0 2.236-.71 4.026-2.129 5.37-1.419 1.333-3.375 1.999-5.869 1.999h-3.902v8.901h-4.354Zm4.354-12.077h3.563c1.473 0 2.505-.382 3.096-1.145.591-.763.887-1.747.887-2.951s-.296-2.177-.887-2.919c-.591-.741-1.623-1.112-3.096-1.112h-3.563v8.127Zm8.159 12.077-5.321-10.707 4.337-.532 5.821 11.239h-4.837Z" fill="#fff"/><path d="M820.417 192.756c.167 3.179.25 4.768-.405 5.952-.388.7-.948 1.29-1.627 1.714-1.147.717-2.738.717-5.922.717H686.402c-4.448 0-6.672 0-8.054-1.382-1.382-1.382-1.382-3.606-1.382-8.054v-82.114c0-6.96 0-10.44.395-13.273 2.773-19.912 19.488-34.93 39.582-35.566 2.859-.09 6.319.281 13.239 1.023 11.194 1.2 16.791 1.8 21.618 2.895 33.511 7.608 59.134 34.661 64.911 68.535.833 4.879 1.128 10.5 1.719 21.743l1.987 37.81Z" stroke="#fff" stroke-width="3"/><path d="M820.118 181.661c.073 1.261.126 2.19.113 2.927-.013.734-.092 1.253-.272 1.697a4.422 4.422 0 0 1-2.207 2.339c-.433.204-.946.314-1.679.369-.735.056-1.665.056-2.928.056H686.402c-2.232 0-3.877-.001-5.138-.17-1.252-.169-2.08-.499-2.707-1.126-.627-.627-.957-1.455-1.126-2.707-.169-1.261-.17-2.905-.17-5.138v-70.146c0-7.13.001-10.663.41-13.534 2.802-19.664 19.301-34.49 39.152-35.179 2.898-.1 6.411.275 13.5 1.035 11.403 1.222 17.079 1.831 21.973 2.954 33.089 7.588 58.44 34.215 64.396 67.636.881 4.944 1.211 10.643 1.872 22.091l1.554 26.896Z" stroke="#fff" stroke-width=".59"/><path d="M318.093 341.899c0-20.051-8.257-24.179-27.717-24.179H180.098c-30.665 0-50.126-16.738-50.126-51.713 0-29.304-.733-33.391.001-54.254 1.638-46.588-7.208-104.496 39.379-138.584 44.158-32.31 85.641-22.591 93.897-19.053 15.332 6.57 33.613 22.41 33.613 50.126 0 26.564-6.486 56.026 26.997 49.539M642.763 341.9c0-20.05 8.257-24.179 27.718-24.179h111.456c30.666 0 50.126-7.666 50.126-49.536v-70.176c0-21.23 4.717-100.25-42.459-127.97-47.176-27.717-82.561-19.46-90.817-15.922-15.332 6.571-33.614 22.41-33.614 50.126 0 26.564 6.487 56.026-26.996 49.539" stroke="#fff" stroke-width="1.179"/><path d="M635.072 149.995c-123.602-18.121-201.059-17.408-316.762 1.148-5.423.477-9.07-.336-11.573-1.796-2.478-1.444-4.19-3.729-5.353-6.915-1.183-3.24-1.745-7.283-1.942-11.98-.196-4.684-.023-9.804.16-15.174v-.019c.128-3.751.26-7.614.26-11.427 0-29.292-19.388-46.007-35.432-52.883-7.223-3.096-31.489-8.867-65.062 2.8-18.906-24.68-44.558-46.441-76.317-49.495-31.221-3.002-61.068 3.499-83.21 16.759C17.695 34.277 3 54.509 3 78.854c0 23.438 6.292 53.257 15.306 83.995 9.031 30.794 20.864 62.738 32.09 90.507a811.677 811.677 0 0 1 5.04 12.778l.06.151c7.569 19.675 13.322 34.628 18.774 45.737 5.462 11.129 10.814 18.823 17.796 23.618 6.942 4.767 15.438 7.018 26.717 8.126 11.214 1.102 25.559 1.102 44.379 1.102h636.301c18.819 0 33.165 0 44.378-1.102 11.28-1.108 19.776-3.359 26.718-8.126 6.982-4.795 12.334-12.489 17.796-23.618 5.452-11.109 11.205-26.062 18.774-45.737l.059-.151a803.045 803.045 0 0 1 5.041-12.778c11.225-27.769 23.058-59.713 32.089-90.507 9.015-30.738 15.307-60.557 15.307-83.995 0-24.345-14.695-44.577-36.842-57.841-22.141-13.26-51.988-19.761-83.21-16.76-31.827 3.061-57.522 24.91-76.441 49.659-33.815-11.883-58.272-6.073-65.527-2.963-16.044 6.876-35.432 23.591-35.432 52.883 0 3.814.132 7.677.26 11.428v.018c.196 5.741.379 11.193.114 16.124-.265 4.949-.974 9.099-2.409 12.296-1.389 3.093-3.436 5.262-6.55 6.469-3.233 1.252-7.946 1.594-14.84.259l-3.685-.714.009.283Z" stroke="#fff" stroke-width="6"/><path d="M832.298 219.941c12.671-8.702 56.852 9.237 72.09-30.368a808.879 808.879 0 0 1 5.059-12.826c22.409-55.433 47.178-51.895 47.178-97.893S901.191 1.343 839.861 7.24c-31.334 3.013-56.819 25.026-75.667 50.242-34.186-12.615-58.713-6.645-65.407-3.776-15.332 6.571-33.614 22.41-33.614 50.126 0 3.76.13 7.578.258 11.344.778 22.84 1.49 43.764-27.254 38.195l.004.115c-125.423-18.618-202.95-18.063-319.499.636-23.476 2.125-22.806-17.572-22.078-38.946.128-3.766.258-7.584.258-11.344 0-27.717-18.282-43.555-33.614-50.126-6.664-2.856-31-8.786-64.944 3.607-18.836-25.146-44.277-47.067-75.54-50.073C61.434 1.343 6 32.856 6 78.854c0 45.998 24.768 42.46 47.177 97.893a813.825 813.825 0 0 1 5.06 12.826c15.237 39.605 58.239 21.666 70.91 30.368" stroke="#fff" stroke-width="1.179"/><path d="M289.064 218.83c148.137 9.403 232.054 9.467 383.317 0" stroke="#fff" stroke-width="1.179"/></svg>