<svg width="952" height="638" fill="none" xmlns="http://www.w3.org/2000/svg"><path opacity=".2" d="M472.244 11.528c-65.328.13-221.554 2.544-361.13 40.61-26.212 47.469-83.545 179.713-103.18 328.94C-14.3 550.063 42.997 639.546 92.082 633.802c38.567-4.513 63.611-21.06 91.159-95.774 4.987-13.524 9.103-25.898 12.829-37.095 16.854-50.662 25.694-77.232 70.817-77.232h418.228c45.123 0 53.963 26.57 70.818 77.232 3.725 11.197 7.841 23.571 12.828 37.095 27.548 74.714 52.592 91.261 91.159 95.774 49.085 5.744 106.381-83.739 84.146-252.723-19.634-149.227-76.967-281.472-103.179-328.942C701.31 14.072 545.084 11.66 479.756 11.528v-.007c-1.21 0-2.463 0-3.756.002a4036.62 4036.62 0 0 0-3.756-.002v.007Z" stroke="#fff" stroke-width="6"/><path opacity=".2" d="M211.043 30.494c34.617-4.525 63.714-7.541 70.236 20.613 6.522 28.154 16.054 72.899 22.074 102.059 6.02 29.16-.502 56.812-19.064 78.934-18.562 22.121-60.202 68.877-116.39 184.009m0 0c-56.189 115.132-65.721 194.568-68.731 217.192m68.731-217.192 27.09 39.824m-81.272 173.346c3.512-18.602 14.448-64.052 30.101-97.033 11.481-24.19 29.18-54.267 51.171-76.313m52.176-29.769c-19.073 2.701-36.688 14.244-52.176 29.769M739.602 30.489c-34.616-4.517-63.714-7.529-70.236 20.579-6.521 28.108-16.053 72.779-22.074 101.89-6.02 29.112.502 56.718 19.064 78.803 18.563 22.085 60.202 68.764 116.391 183.705m0 0c56.188 114.941 65.72 194.245 68.731 216.832m-68.731-216.832-27.091 39.758m81.273 173.059c-3.512-18.572-14.449-63.946-30.101-96.872-11.481-24.151-29.18-54.177-51.172-76.187m-52.175-29.72c19.072 2.697 36.688 14.221 52.175 29.72" stroke="#fff"/><path opacity=".2" d="M123.71 31.078v17.55c34.059-9.528 98.171-20.058 127.722-24.07l-3.506-15.544c-9.015-4.011-34.66-10.53-65.113-4.512-30.453 6.017-52.091 20.224-59.103 26.576Zm703.225 0v17.55c-34.06-9.528-98.171-20.058-127.723-24.07l3.506-15.544c9.016-4.011 34.661-10.53 65.114-4.512 30.453 6.017 52.09 20.224 59.103 26.576Z" stroke="#fff" stroke-width="3"/><path opacity=".2" d="M123.71 33.083v15.544c31.254-10.83 98.171-20.055 127.722-24.067l-3.506-15.544c-14.024 3.007-34.66 5.513-65.113 11.53-30.453 6.017-51.089 11.033-59.103 12.537Zm703.225 0v15.544c-31.255-10.83-98.171-20.055-127.723-24.067l3.506-15.544c14.025 3.007 34.661 5.513 65.114 11.53 30.453 6.017 51.089 11.033 59.103 12.537Z" stroke="#fff"/><g opacity=".2" stroke="#fff"><circle cx="328.5" cy="309.994" r="36"/><circle cx="328.5" cy="310.994" r="53" stroke-width="3"/><circle cx="328.5" cy="310.994" r="71"/></g><g opacity=".2" stroke="#fff"><circle cx="621.5" cy="309.994" r="36"/><circle cx="621.5" cy="310.994" r="53" stroke-width="3"/><circle cx="621.5" cy="310.994" r="71"/></g><g opacity=".2"><path d="m165.887 255.341-1.213.882 1.213-.882c-1.12-1.541-1.741-3.48-2.062-6.437-.323-2.985-.325-6.827-.325-12.11V225.45c0-3.361.017-4.713.416-5.94.138-.424.308-.836.51-1.233.587-1.15 1.53-2.117 3.907-4.494l12.318-12.319c1.88-1.879 3.206-3.202 4.337-4.112 1.108-.892 1.893-1.27 2.652-1.391.57-.09 1.15-.09 1.72 0 .759.121 1.544.499 2.652 1.391 1.131.91 2.457 2.233 4.337 4.112l12.318 12.319c2.377 2.377 3.32 3.344 3.907 4.494.202.397.372.809.51 1.233.399 1.227.416 2.579.416 5.94v11.344c0 5.283-.002 9.125-.325 12.11-.321 2.957-.942 4.896-2.062 6.437a12.471 12.471 0 0 1-2.766 2.766c-1.541 1.12-3.48 1.741-6.437 2.062-2.985.323-6.827.325-12.11.325h-2.6c-5.283 0-9.125-.002-12.11-.325-2.957-.321-4.896-.942-6.437-2.062a12.471 12.471 0 0 1-2.766-2.766Zm93.71-93.71.882-1.213-.882 1.213a12.492 12.492 0 0 1 2.766 2.766c1.12 1.542 1.741 3.48 2.061 6.437.324 2.985.326 6.827.326 12.11v2.6c0 5.283-.002 9.125-.326 12.11-.32 2.957-.941 4.896-2.061 6.437a12.492 12.492 0 0 1-2.766 2.766c-1.541 1.12-3.48 1.741-6.437 2.062-2.985.323-6.827.325-12.11.325h-11.344c-3.362 0-4.713-.017-5.941-.416a8.48 8.48 0 0 1-1.232-.51c-1.15-.586-2.118-1.53-4.494-3.907l-12.319-12.318c-1.879-1.88-3.203-3.206-4.112-4.336-.892-1.109-1.271-1.893-1.391-2.652a5.519 5.519 0 0 1 0-1.721c.12-.759.499-1.544 1.391-2.652.909-1.131 2.233-2.457 4.112-4.337l12.319-12.318c2.376-2.377 3.344-3.32 4.494-3.906a8.484 8.484 0 0 1 1.232-.511c1.228-.399 2.579-.416 5.941-.416h11.344c5.283 0 9.125.002 12.11.326 2.957.32 4.896.941 6.437 2.061Zm-106.362 47.197.463 1.427-.463-1.427c-1.228.399-2.579.416-5.941.416H135.95c-5.283 0-9.125-.002-12.11-.325-2.957-.321-4.896-.942-6.437-2.062a12.471 12.471 0 0 1-2.766-2.766c-1.12-1.541-1.741-3.48-2.062-6.437-.323-2.985-.325-6.827-.325-12.11v-2.6c0-5.283.002-9.125.325-12.11.321-2.957.942-4.895 2.062-6.437a12.513 12.513 0 0 1 2.766-2.766c1.541-1.12 3.48-1.741 6.437-2.061 2.985-.324 6.827-.326 12.11-.326h11.344c3.362 0 4.713.017 5.941.416.423.138.835.308 1.232.511 1.15.586 2.118 1.529 4.494 3.906l12.319 12.318c1.879 1.88 3.202 3.206 4.112 4.337.892 1.108 1.271 1.893 1.391 2.652.09.57.09 1.15 0 1.721-.12.759-.499 1.543-1.391 2.652-.909 1.13-2.233 2.456-4.112 4.336l-12.319 12.318c-2.376 2.377-3.344 3.321-4.494 3.907a8.48 8.48 0 0 1-1.232.51Zm10.265-77.134c0-5.283.002-9.125.325-12.11.321-2.957.942-4.895 2.062-6.437a12.513 12.513 0 0 1 2.766-2.766c1.541-1.12 3.48-1.741 6.437-2.061 2.985-.324 6.827-.326 12.11-.326h2.6c5.283 0 9.125.002 12.11.326 2.957.32 4.896.941 6.437 2.061a12.492 12.492 0 0 1 2.766 2.766c1.12 1.542 1.741 3.48 2.062 6.437.323 2.985.325 6.827.325 12.11v11.344c0 3.362-.017 4.713-.416 5.941a8.592 8.592 0 0 1-.51 1.232c-.587 1.15-1.53 2.118-3.907 4.495l-12.318 12.318c-1.88 1.88-3.206 3.203-4.337 4.112-1.108.892-1.893 1.271-2.652 1.391-.57.09-1.15.09-1.72 0-.759-.12-1.544-.499-2.652-1.391-1.131-.909-2.457-2.232-4.337-4.112l-12.318-12.318c-2.377-2.377-3.32-3.345-3.907-4.495a8.592 8.592 0 0 1-.51-1.232c-.399-1.228-.416-2.579-.416-5.941v-11.344Z" stroke="#fff" stroke-width="3"/><path d="m189.5 122.494 6.495 8.25h-12.99l6.495-8.25Zm0 126 6.495-8.25h-12.99l6.495 8.25Zm63-64-8.25 6.495v-12.99l8.25 6.495Zm-126 0 8.25 6.495v-12.99l-8.25 6.495Z" fill="#fff"/><circle cx="188" cy="185.494" r="91.5" stroke="#fff"/></g><path opacity=".2" d="M289.085 43.005c-1.803-8.8 4.517-17.208 13.471-17.924 130.253-10.421 211.538-10.346 345.48.044 8.973.696 15.32 9.114 13.514 17.93L633.458 180.16c-4.767 23.262-25.237 39.964-48.983 39.964H366.17c-23.746 0-44.216-16.702-48.983-39.964L289.085 43.005Z" stroke="#fff" stroke-width="2"/><path opacity=".2" d="M288.342 42.108c-.662-3.222 1.686-6.312 4.974-6.585 140.456-11.637 218.523-11.558 363.025.02 3.284.263 5.642 3.339 4.999 6.56l-27.552 137.913c-4.717 23.61-25.445 40.607-49.522 40.607H366.159c-23.978 0-44.65-16.862-49.47-40.351L288.342 42.108Zm-41.62 32.058c-1.256-6.02 2.606-11.922 8.627-13.18 6.02-1.26 11.918 2.601 13.174 8.622l3.972 19.04c1.256 6.021-2.606 11.922-8.626 13.181-6.021 1.259-11.919-2.602-13.175-8.622l-3.972-19.041Zm458.089 0c1.256-6.02-2.606-11.922-8.626-13.18-6.021-1.26-11.919 2.601-13.175 8.622l-3.972 19.04c-1.256 6.021 2.606 11.922 8.627 13.181 6.02 1.259 11.918-2.602 13.174-8.622l3.972-19.041Zm-252.53 287.357a4.514 4.514 0 0 1 4.515-4.514h38.055a4.514 4.514 0 0 1 0 9.028h-38.055a4.514 4.514 0 0 1-4.515-4.514Z" stroke="#fff"/><path opacity=".2" d="M452.281 361.523a4.514 4.514 0 0 1 4.515-4.514h38.055a4.514 4.514 0 0 1 0 9.028h-38.055a4.514 4.514 0 0 1-4.515-4.514Zm7.013 46.633a7.022 7.022 0 0 1 7.021-7.021h20.018a7.022 7.022 0 1 1 0 14.043h-20.018a7.022 7.022 0 0 1-7.021-7.022Z" stroke="#fff"/><circle cx="767" cy="115.494" r="33" stroke="#fff" stroke-width="6"/><circle cx="767" cy="251.494" r="33" stroke="#fff" stroke-width="6"/><circle cx="835" cy="184.494" r="33" transform="rotate(90 835 184.494)" stroke="#fff" stroke-width="6"/><circle cx="699" cy="184.494" r="33" transform="rotate(90 699 184.494)" stroke="#fff" stroke-width="6"/><circle cx="767" cy="183.494" r="108.5" stroke="#fff"/><path d="m751.412 124.494 15.588-27 15.588 27h-31.176Zm-66.412 46h27v28h-27z" stroke="#fff" stroke-width="4"/><circle cx="835" cy="184.494" r="18" stroke="#fff" stroke-width="4"/><path stroke="#fff" stroke-width="4" d="m753.414 237.08 29 29m-29.828 0 29-29"/><path opacity=".2" d="M513.567 239.556v.001a4.504 4.504 0 0 1 1.826 3.627 4.512 4.512 0 0 1-4.509 4.515 4.512 4.512 0 0 1-4.509-4.515 4.511 4.511 0 0 1 7.192-3.628Zm-66.293 3.628a4.512 4.512 0 0 1-4.508 4.515 4.512 4.512 0 0 1-4.509-4.515 4.511 4.511 0 0 1 4.509-4.514 4.51 4.51 0 0 1 4.508 4.514Zm8.014 15.043a4.512 4.512 0 0 1-4.508 4.515 4.512 4.512 0 0 1-4.509-4.515 4.511 4.511 0 0 1 4.509-4.514 4.51 4.51 0 0 1 4.508 4.514Zm9.016-15.043a4.512 4.512 0 0 1-4.509 4.515 4.512 4.512 0 0 1-4.509-4.515 4.511 4.511 0 0 1 4.509-4.514c2.49 0 4.509 2.02 4.509 4.514Zm8.014 15.043a4.512 4.512 0 0 1-4.509 4.515 4.512 4.512 0 0 1-4.509-4.515 4.511 4.511 0 0 1 4.509-4.514c2.49 0 4.509 2.02 4.509 4.514Zm9.016-15.043a4.512 4.512 0 0 1-4.509 4.515 4.512 4.512 0 0 1-4.509-4.515 4.511 4.511 0 0 1 4.509-4.514c2.49 0 4.509 2.02 4.509 4.514Zm8.014 15.043a4.512 4.512 0 0 1-4.509 4.515 4.512 4.512 0 0 1-4.509-4.515 4.511 4.511 0 0 1 4.509-4.514c2.49 0 4.509 2.02 4.509 4.514Zm9.015-15.043a4.512 4.512 0 0 1-4.508 4.515 4.512 4.512 0 0 1-4.509-4.515 4.511 4.511 0 0 1 4.509-4.514 4.51 4.51 0 0 1 4.508 4.514Zm8.014 15.043a4.512 4.512 0 0 1-4.509 4.515 4.512 4.512 0 0 1-4.508-4.515 4.51 4.51 0 0 1 4.508-4.514c2.49 0 4.509 2.02 4.509 4.514Z" stroke="#fff"/><path opacity=".2" stroke="#fff" stroke-width="2" d="M469.812 406.655h13.023"/><path d="M504.097 324.78c-1.149 1.453-3.959 2.488-3.959 2.488l-20.924 7.533v-5.557l15.397-5.501c1.75-.626 2.017-1.514.596-1.979-1.416-.468-3.983-.334-5.733.297l-10.258 3.621v-5.763l.588-.201s2.965-1.054 7.135-1.516c4.167-.46 9.275.064 13.282 1.585 4.514 1.431 5.022 3.539 3.876 4.991v.002Zm-22.893-9.459v-14.206c0-1.668-.305-3.203-1.867-3.637-1.194-.385-1.937.728-1.937 2.394v35.576l-9.574-3.046v-42.417c4.071.757 10.001 2.548 13.188 3.624 8.108 2.789 10.856 6.263 10.856 14.085 0 7.625-4.696 10.516-10.663 7.627h-.003Zm-30.942 13.345c-4.635-1.31-5.407-4.038-3.294-5.608 1.953-1.449 5.273-2.54 5.273-2.54l13.726-4.894v5.578l-9.876 3.544c-1.745.625-2.014 1.513-.596 1.979 1.419.468 3.988.334 5.735-.294l4.737-1.723v4.988l-.943.16c-4.739.776-9.788.452-14.762-1.19Z" fill="#fff" opacity=".2"/></svg>