<svg width="952" height="638" fill="none" xmlns="http://www.w3.org/2000/svg"><path d="M123.71 32.015v17.731a835.192 835.192 0 0 0-12.596 3.329C84.902 100.544 27.569 232.789 7.934 382.016-14.3 551 42.997 640.484 92.082 634.74c38.567-4.513 63.611-21.06 91.159-95.774 4.987-13.524 9.103-25.898 12.829-37.095 16.854-50.662 25.694-77.233 70.817-77.233h418.228c45.123 0 53.963 26.571 70.817 77.233 3.726 11.197 7.842 23.571 12.829 37.095 27.548 74.714 52.592 91.261 91.159 95.774 49.085 5.744 106.381-83.74 84.146-252.724-19.634-149.227-76.967-281.472-103.179-328.941a835.902 835.902 0 0 0-13.951-3.674V32.015c-7.012-6.351-28.65-20.559-59.103-26.576-30.453-6.017-56.098.502-65.113 4.513l-3.32 15.661c-92.349-11.961-176.146-13.06-219.644-13.147v-.007L476 12.46l-3.756-.001v.007c-43.705.087-128.094 1.196-220.963 13.319l-3.354-15.833c-9.016-4.011-34.661-10.53-65.114-4.513-30.453 6.017-52.091 20.225-59.103 26.576Z" stroke="#fff" stroke-width="6"/></svg>