<svg width="950" height="456" fill="none" xmlns="http://www.w3.org/2000/svg"><path d="M322.771 171.264c-30.075 0-80.337-18.127-107.116-53.558-7.483-9.901-14.806-23.052-22.516-36.899-19.88-35.703-42.337-76.033-76.772-77.22-47.79-1.649-90.225 33.782-103.82 92.284-13.596 58.502-14.2 112.472 8.239 189.513 12.36 42.434 33.37 90.637 64.27 99.7 30.899 9.064 134.719 11.124 186.217 4.944 1.785 1.511 8.816 4.45 22.659 4.12 12.595-.3 111.631-.168 172.622-.038v.038l8.446-.02 8.446.02v-.038c60.991-.13 160.027-.262 172.622.038 13.843.33 20.874-2.609 22.659-4.12 51.498 6.18 155.319 4.12 186.217-4.944 30.899-9.063 51.911-57.266 64.27-99.7 22.439-77.041 21.835-131.011 8.24-189.513-13.596-58.502-56.03-93.933-103.821-92.285-34.435 1.188-56.892 41.518-76.772 77.221-7.71 13.847-15.033 26.998-22.516 36.899-26.779 35.431-77.041 53.558-107.116 53.558H322.771Z" stroke="#fff" stroke-width="6"/><path d="M3.07 165.498c0 45.731 3.296 143.783 75.394 143.371M227 278c0 45.318 18.318 65.888 100.303 65.888h164.382m-219.588 43.259c-7.416 1.373-25.296 4.037-37.491 3.707-15.243-.412-73.786-.882-114.12-12.36-50.674-14.42-56.03-55.618-51.91-97.64 4.957-50.564 18.951-109.176 36.667-128.951 17.715-19.775 44.494-42.023 91.46-24.719 46.967 17.303 33.783 70.449 124.832 70.861 72.839.329 129.775.137 170.15 0" stroke="#fff" stroke-width=".824"/><path d="M946.93 165.536c0 45.73-3.296 143.782-75.394 143.371m-147.902-31.723c0 45.318-18.952 66.741-100.937 66.741H458.315m219.588 43.259c7.416 1.373 25.296 4.037 37.491 3.708 15.243-.412 73.786-.883 114.12-12.361 50.674-14.42 56.03-55.618 51.91-97.639-4.957-50.564-18.951-109.177-36.667-128.952-17.715-19.775-44.494-42.022-91.46-24.719-46.967 17.303-33.783 70.449-124.832 70.861-72.839.329-129.775.137-170.15 0m-294.57-68.016c56.442 0 64.682 40.375 64.682 78.69-.687 25.68-2.06 81.655-2.06 100.112 0 23.071-1.236 39.963-15.243 49.85-14.008 9.888-36.667 9.476-67.154 9.476-30.487 0-52.322-20.599-61.798-43.259-9.475-22.659 1.648-86.104 9.476-111.648 7.828-25.543 15.655-83.221 72.097-83.221Z" stroke="#fff" stroke-width=".824"/><path d="M786.667 130.066c-56.442 0-64.682 40.375-64.682 78.69.687 25.68 2.06 81.655 2.06 100.112 0 23.071 1.236 39.963 15.243 49.85 14.008 9.888 36.667 9.476 67.154 9.476 30.487 0 52.322-20.599 61.798-43.259 9.475-22.659-1.648-86.104-9.476-111.648-7.828-25.543-15.655-83.221-72.097-83.221Zm-344.42 172.622c0-5.46 4.427-9.887 9.888-9.887h38.726c5.461 0 9.888 4.427 9.888 9.887 0 5.461-4.427 9.888-9.888 9.888h-38.726c-5.461 0-9.888-4.427-9.888-9.888Z" stroke="#fff" stroke-width=".824"/><path d="M206.355 393.531h45.178v8.436a3.718 3.718 0 0 1-3.718 3.717h-41.46v-12.153Zm-94.355 0h45.177v12.153h-41.459a3.717 3.717 0 0 1-3.718-3.717v-8.436Zm47.178 0h45.177v12.153h-45.177v-12.153Zm504.798 0h56.971v8.436a3.717 3.717 0 0 1-3.717 3.717h-49.537a3.717 3.717 0 0 1-3.717-3.717v-8.436Z" stroke="#fff" stroke-width="2"/><path d="M655.875 404.326a5.897 5.897 0 0 0-5.897 5.897v19.538a3.538 3.538 0 0 0 3.538 3.538h17.485c4.573 0 7.945 4.271 6.884 8.719l-2.12 8.888a4.717 4.717 0 0 1-4.589 3.623h-99.188a4.718 4.718 0 0 1-4.589-3.623l-2.12-8.888c-1.06-4.448 2.312-8.719 6.884-8.719h18.176a3.538 3.538 0 0 0 3.538-3.538v-19.538a5.897 5.897 0 0 0-5.897-5.897h-21.896a11.234 11.234 0 0 1-10.24-6.615c-1.061-4.447 2.311-5.18 6.883-5.18h100.249v9.436c0 .859.23 1.665.631 2.359h-7.732Zm70.611-10.795h56.972v8.436a3.717 3.717 0 0 1-3.718 3.717h-49.536a3.718 3.718 0 0 1-3.718-3.717v-8.436Zm61.33 0h56.972v8.436a3.717 3.717 0 0 1-3.718 3.717h-49.536a3.718 3.718 0 0 1-3.718-3.717v-8.436ZM351.58 410.223a5.897 5.897 0 0 1 5.897-5.897h21.206c4.417 0 8.424-2.589 10.24-6.615 1.061-4.447-2.311-5.18-6.884-5.18H264.33c-4.572 0-7.944.733-6.884 5.18a11.234 11.234 0 0 0 10.24 6.615h21.896a5.897 5.897 0 0 1 5.897 5.897v19.538a3.538 3.538 0 0 1-3.538 3.538h-18.176c-4.572 0-7.944 4.271-6.883 8.719l2.119 8.888a4.719 4.719 0 0 0 4.589 3.623h99.189a4.718 4.718 0 0 0 4.589-3.623l2.12-8.888c1.06-4.448-2.312-8.719-6.884-8.719h-17.485a3.538 3.538 0 0 1-3.539-3.538v-19.538Z" stroke="#fff" stroke-width="2"/><path d="M269.59 383.078c0-13.231 10.726-23.957 23.957-23.957h361.906c13.231 0 23.957 10.726 23.957 23.957 0 7.657-6.207 13.864-13.863 13.864H283.453c-7.656 0-13.863-6.207-13.863-13.864Z" stroke="#fff" stroke-width="1.179"/><path d="M279.496 377.904c-.676 2.265-.676 5-.675 9.902v.467c-.001 1.425-.001 2.399.246 3.227a5.897 5.897 0 0 0 3.964 3.964c.828.248 1.802.247 3.227.247h376.484c1.425 0 2.399.001 3.227-.247a5.897 5.897 0 0 0 3.964-3.964c.247-.828.247-1.802.247-3.227l-.001-.202v-.265c.001-4.902.001-7.637-.675-9.902a16.182 16.182 0 0 0-10.876-10.876c-2.266-.677-5.001-.676-9.903-.676h-348.45c-4.902 0-7.637-.001-9.903.676a16.182 16.182 0 0 0-10.876 10.876Z" stroke="#fff" stroke-width="2.359"/><path d="M209.063 149.019c13.184 18.951 17.304 46.966 11.536 103.408-42.16-.824-126.974-2.885-128.951-4.533-1.978-1.648-.824-9.75 0-13.595 9.475-45.731 23.071-92.696 48.202-104.232 25.131-11.535 56.03 0 69.213 18.952Z" stroke="#fff" stroke-width="3"/><path d="M92.472 234.711c48.87 3.436 75.858 3.977 123.595 3.708m0 0 4.532 12.771m-4.532-12.771v-44.495c0-18.951-4.12-42.846-19.363-57.266" stroke="#fff" stroke-width=".824"/><path d="M174.173 221.913v-2.773l8.127-9.062c.903-1.011 1.618-1.946 2.145-2.806.526-.871.79-1.774.79-2.709 0-.989-.285-1.779-.855-2.371-.559-.602-1.344-.903-2.354-.903-1.021 0-1.86.339-2.516 1.016-.655.667-.983 1.715-.983 3.145v.419h-4.386v-.629c0-2.15.731-3.891 2.193-5.224 1.462-1.344 3.364-2.016 5.708-2.016 2.429 0 4.3.602 5.611 1.806 1.323 1.193 1.984 2.714 1.984 4.563 0 1.516-.382 2.871-1.145 4.064s-1.742 2.44-2.935 3.741l-5.531 6.24h10.159v3.499h-16.012Zm-16.173 0v-23.478h4.354v20.06h10.078v3.418H158Z" fill="#fff"/><path d="M742.08 149.019c-13.183 18.951-17.303 46.966-11.535 103.408 42.159-.824 126.973-2.885 128.951-4.533 1.978-1.648.824-9.75 0-13.595-9.476-45.731-23.071-92.696-48.202-104.232-25.131-11.535-56.03 0-69.214 18.952Z" stroke="#fff" stroke-width="3"/><path d="M858.672 234.711c-48.871 3.436-75.858 3.977-123.596 3.708m0 0-4.532 12.771m4.532-12.771v-44.495c0-18.951 4.12-42.846 19.364-57.266" stroke="#fff" stroke-width=".824"/><path d="M780.722 221.914v-2.774l8.127-9.062c.903-1.011 1.618-1.946 2.144-2.806.527-.871.791-1.774.791-2.709 0-.989-.285-1.779-.855-2.37-.559-.602-1.344-.903-2.354-.903-1.022 0-1.86.338-2.516 1.015-.656.667-.984 1.715-.984 3.145v.419h-4.386v-.629c0-2.15.731-3.891 2.193-5.224 1.462-1.344 3.365-2.016 5.709-2.016 2.429 0 4.3.602 5.611 1.806 1.323 1.193 1.984 2.714 1.984 4.563 0 1.516-.382 2.871-1.145 4.064s-1.742 2.44-2.935 3.741l-5.531 6.24h10.159v3.5h-16.012Zm-18.722 0v-23.479h8.288c2.516 0 4.472.651 5.87 1.952 1.397 1.29 2.096 3.042 2.096 5.256 0 2.236-.709 4.026-2.128 5.37-1.419 1.333-3.376 2-5.87 2h-3.902v8.901H762Zm4.354-12.078h3.563c1.473 0 2.505-.382 3.096-1.145.592-.763.887-1.747.887-2.951s-.295-2.177-.887-2.919c-.591-.741-1.623-1.112-3.096-1.112h-3.563v8.127Zm8.159 12.078-5.321-10.708 4.337-.532 5.822 11.24h-4.838Z" fill="#fff"/><path d="M221.169 255.724c-1.098 21.423-2.341 66.949-3.296 77.453-.356 3.926-1.744 7.887-4.242 11.535m7.538-88.988-131.835-3.296c-8.24 36.254-7.979 68.389 8.24 88.577 16.218 20.187 46.966 19.775 76.217 19.775 20.803 0 33.688-7.085 39.84-16.068m7.538-88.988c-1.796 2.337-6.033 7.897-6.591 15.654-.799 11.095 7.581 60.974-.947 73.334" stroke="#fff" stroke-width="3"/><path d="M85.88 267.258c41.212 4.629 71.651 4.849 128.127 4.532" stroke="#fff" stroke-width=".824"/><path d="M181.058 315.736v-19.334l-5.821 2.177v-3.693l7.902-2.886h2.273v23.736h-4.354Zm-23.058 0v-23.478h4.354v20.06h10.078v3.418H158Z" fill="#fff"/><path d="M729.974 255.724c1.099 21.423 2.341 66.949 3.296 77.453.357 3.926 1.745 7.887 4.243 11.535m-7.539-88.988 131.835-3.296c8.24 36.254 7.979 68.389-8.239 88.577-16.219 20.187-46.967 19.775-76.217 19.775-20.804 0-33.688-7.085-39.84-16.068m-7.539-88.988c1.797 2.337 6.034 7.897 6.592 15.654.798 11.095-7.582 60.974.947 73.334" stroke="#fff" stroke-width="3"/><path d="M865.264 267.258c-41.212 4.629-71.651 4.849-128.128 4.532" stroke="#fff" stroke-width=".824"/><path d="M790.606 315.736v-19.334l-5.821 2.177v-3.693l7.901-2.886h2.274v23.736h-4.354Zm-25.606 0v-23.478h8.288c2.516 0 4.472.65 5.87 1.951 1.397 1.29 2.096 3.042 2.096 5.257 0 2.236-.709 4.026-2.128 5.37-1.419 1.333-3.376 1.999-5.87 1.999h-3.902v8.901H765Zm4.354-12.078h3.563c1.473 0 2.505-.381 3.096-1.144.592-.764.887-1.747.887-2.951s-.295-2.177-.887-2.919c-.591-.742-1.623-1.113-3.096-1.113h-3.563v8.127Zm8.159 12.078-5.321-10.707 4.337-.532 5.822 11.239h-4.838Z" fill="#fff"/></svg>