<svg width="952" height="638" fill="none" xmlns="http://www.w3.org/2000/svg"><path d="M241.415 41.109c-41.071-14.542-75.131-2.006-82.143 0-7.012 2.005-22.038 9.527-21.537 22.063.4 10.028-5.51 18.219-8.515 21.06-1.67-7.522-3.306-27.68 3.506-48.138m0 0c17.865-9.36 64.613-25.674 108.689-16.046l5.51-9.025M132.726 36.094h-9.016m-13.523 18.052c0 64.686 66.616 66.691 94.664 62.68 28.049-4.012 59.103-18.553 60.105-45.13.801-21.26.334-39.947 0-46.633m-10.518 1.504v37.107c0 8.15-1.102 18.093-6.844 26.576M122.708 49.633c.501 23.066 3.506 29.585 14.025 44.628 10.518 15.043 48.584 19.055 81.141 13.038 15.486-2.863 24.512-9.355 29.72-17.05m.833-75.215c.334 6.853 1.102 23.367 1.503 34.6.501 14.04.338 32.593-2.336 40.616m459.574-49.141c41.071-14.542 75.131-2.006 82.143 0 7.012 2.005 22.038 9.527 21.537 22.063-.4 10.028 5.51 18.219 8.515 21.06 1.67-7.522 3.306-27.68-3.506-48.138m0 0c-17.865-9.36-64.613-25.674-108.689-16.046l-5.51-9.025m114.199 25.071h9.016m13.523 18.052c0 64.686-66.616 66.691-94.664 62.68-28.049-4.012-59.103-18.553-60.105-45.13-.801-21.26-.334-39.947 0-46.633m10.518 1.504v37.107c0 8.15 1.102 18.093 6.844 26.576m124.886-40.617c-.501 23.066-3.506 29.585-14.025 44.628-10.518 15.043-48.584 19.055-81.141 13.038-15.486-2.863-24.512-9.355-29.72-17.05m-.833-75.215c-.334 6.853-1.102 23.367-1.503 34.6-.501 14.04-.338 32.593 2.336 40.616" stroke="#fff"/><path d="M123.71 32.015v17.731a835.192 835.192 0 0 0-12.596 3.329C84.902 100.544 27.569 232.789 7.934 382.016-14.3 551 42.997 640.484 92.082 634.74c38.567-4.513 63.611-21.06 91.159-95.774 4.987-13.524 9.103-25.898 12.829-37.095 16.854-50.662 25.694-77.233 70.817-77.233h418.228c45.123 0 53.963 26.571 70.817 77.233 3.726 11.197 7.842 23.571 12.829 37.095 27.548 74.714 52.592 91.261 91.159 95.774 49.085 5.744 106.381-83.74 84.146-252.724-19.634-149.227-76.967-281.472-103.179-328.941a835.902 835.902 0 0 0-13.951-3.674V32.015c-7.012-6.351-28.65-20.559-59.103-26.576-30.453-6.017-56.098.502-65.113 4.513l-3.32 15.661c-92.349-11.961-176.146-13.06-219.644-13.147v-.007L476 12.46l-3.756-.001v.007c-43.705.087-128.094 1.196-220.963 13.319l-3.354-15.833c-9.016-4.011-34.661-10.53-65.114-4.513-30.453 6.017-52.091 20.225-59.103 26.576Z" stroke="#fff" stroke-width="6"/><path d="m405.061 25.016-6.124-5.518c57.263-2.18 90.602-2.195 150.766.002l-6.13 5.523a9.53 9.53 0 0 1-6.629 2.44c-48.248-1.291-76.982-1.368-125.237-.007a9.537 9.537 0 0 1-6.646-2.44Z" stroke="#fff"/><path d="M455.789 181.594c-81.962.514-167.685 4.227-204.356 31.006-38.219 27.908-50.605 54.201-69.407 94.112-2.143 4.548-4.369 9.273-6.726 14.198-23.04 48.138-47.082 113.324-60.104 169.485-13.023 56.161-16.529 89.757-16.529 108.811v34.599l12.522-2.507c-.835-16.547-2.104-60.272 7.513-102.794 12.021-53.152 30.052-124.356 68.619-203.583 1.277-2.622 2.536-5.219 3.781-7.787 22.132-45.655 39.952-82.416 78.362-100.021 40.571-18.596 130.227-19.556 167.292-19.556h77.134c37.065 0 126.721.96 167.291 19.556 38.41 17.605 56.231 54.366 78.363 100.021 1.245 2.568 2.504 5.165 3.78 7.787 38.568 79.227 56.599 150.431 68.62 203.583 9.617 42.522 8.348 86.247 7.513 102.794l12.522 2.507v-34.599c0-19.054-3.506-52.65-16.529-108.811-13.023-56.161-37.064-121.347-60.105-169.485-2.357-4.925-4.583-9.65-6.725-14.198-18.802-39.911-31.188-66.204-69.407-94.112-36.671-26.779-122.394-30.492-204.356-31.006v-.083c-6.44 0-12.961 0-19.534.01-6.573-.01-13.094-.01-19.534-.01v.083Z" stroke="#fff" stroke-width="2"/><path d="M218.375 265.752c17.531 0 17.03 3.51 18.532 14.04 1.503 10.53 12.021 80.731 12.522 99.786.501 19.054.501 33.094-18.031 54.155m502.004-167.981c-17.53 0-17.029 3.51-18.532 14.04-1.503 10.53-12.021 80.731-12.522 99.786-.501 19.054-.501 33.094 18.032 54.155m-272.106-78.224a5.016 5.016 0 0 1 5.016-5.016h46.068a5.016 5.016 0 0 1 0 10.032H453.29a5.016 5.016 0 0 1-5.016-5.016Zm0 26.075c0-6.094 4.94-11.033 11.033-11.033h34.034c6.093 0 11.033 4.939 11.033 11.033 0 6.093-4.94 11.033-11.033 11.033h-34.034c-6.093 0-11.033-4.94-11.033-11.033Z" stroke="#fff"/></svg>