<svg width="950" height="456" viewBox="0 0 950 456" fill="none" xmlns="http://www.w3.org/2000/svg">
<path d="M322.771 171.264C292.696 171.264 242.434 153.137 215.655 117.706C208.172 107.805 200.849 94.6541 193.139 80.8072C173.259 45.1043 150.802 4.77375 116.367 3.58634C68.5764 1.93839 26.1419 37.3691 12.5464 95.871C-1.04914 154.373 -1.65304 208.343 20.7859 285.384C33.1453 327.818 54.1567 376.021 85.0556 385.084C115.955 394.148 219.775 396.208 271.273 390.028C273.058 391.539 280.089 394.478 293.932 394.148C306.527 393.848 405.563 393.98 466.554 394.11V394.148C469.242 394.142 472.063 394.135 475 394.128C477.937 394.135 480.758 394.142 483.446 394.148V394.11C544.437 393.98 643.473 393.848 656.068 394.148C669.911 394.478 676.942 391.539 678.727 390.028C730.225 396.208 834.046 394.148 864.944 385.084C895.843 376.021 916.855 327.818 929.214 285.384C951.653 208.343 951.049 154.373 937.454 95.871C923.858 37.3691 881.424 1.93839 833.633 3.58634C799.198 4.77375 776.741 45.1043 756.861 80.8072C749.151 94.6541 741.828 107.805 734.345 117.706C707.566 153.137 657.304 171.264 627.229 171.264H322.771Z" stroke="white" stroke-width="6"/>
<path d="M3.07031 165.498C3.07031 211.229 6.3662 309.281 78.4636 308.869M227 278C227 323.318 245.318 343.888 327.303 343.888C392.891 343.888 470.399 343.888 491.685 343.888M272.097 387.147C264.681 388.52 246.801 391.184 234.606 390.854C219.363 390.442 160.82 389.972 120.486 378.494C69.8119 364.074 64.4561 322.876 68.576 280.854C73.5333 230.29 87.5273 171.678 105.243 151.903C122.958 132.128 149.737 109.88 196.703 127.184C243.67 144.487 230.486 197.633 321.535 198.045C394.374 198.374 451.31 198.182 491.685 198.045" stroke="white" stroke-width="0.823971"/>
<path d="M946.93 165.536C946.93 211.266 943.634 309.318 871.536 308.907M723.634 277.184C723.634 322.502 704.682 343.925 622.697 343.925C557.109 343.925 479.601 343.925 458.315 343.925M677.903 387.184C685.319 388.557 703.199 391.221 715.394 390.892C730.637 390.48 789.18 390.009 829.514 378.531C880.188 364.111 885.544 322.913 881.424 280.892C876.467 230.328 862.473 171.715 844.757 151.94C827.042 132.165 800.263 109.918 753.297 127.221C706.33 144.524 719.514 197.67 628.465 198.082C555.626 198.411 498.69 198.219 458.315 198.082" stroke="white" stroke-width="0.823971"/>
<path d="M163.745 130.066C220.187 130.066 228.427 170.441 228.427 208.756C227.74 234.436 226.367 290.411 226.367 308.868C226.367 331.939 225.131 348.831 211.124 358.718C197.116 368.606 174.457 368.194 143.97 368.194C113.483 368.194 91.6479 347.595 82.1723 324.935C72.6966 302.276 83.8202 238.831 91.6479 213.287C99.4757 187.744 107.303 130.066 163.745 130.066Z" stroke="white" stroke-width="0.823971"/>
<path d="M786.667 130.066C730.225 130.066 721.985 170.441 721.985 208.756C722.672 234.436 724.045 290.411 724.045 308.868C724.045 331.939 725.281 348.831 739.288 358.718C753.296 368.606 775.955 368.194 806.442 368.194C836.929 368.194 858.764 347.595 868.24 324.935C877.715 302.276 866.592 238.831 858.764 213.287C850.936 187.744 843.109 130.066 786.667 130.066Z" stroke="white" stroke-width="0.823971"/>
<path d="M442.248 302.688C442.248 297.228 446.675 292.801 452.136 292.801H490.862C496.323 292.801 500.75 297.228 500.75 302.688C500.75 308.149 496.323 312.576 490.862 312.576H452.136C446.675 312.576 442.248 308.149 442.248 302.688Z" stroke="white" stroke-width="0.823971"/>
<path d="M206.355 393.531H251.533V401.967C251.533 404.02 249.868 405.684 247.815 405.684H206.355V393.531Z" stroke="white" stroke-width="2"/>
<path d="M112 393.531H157.177V405.684H115.718C113.664 405.684 112 404.02 112 401.967V393.531Z" stroke="white" stroke-width="2"/>
<path d="M159.178 393.531H204.355V405.684H159.178V393.531Z" stroke="white" stroke-width="2"/>
<path d="M663.977 393.531H720.948V401.967C720.948 404.02 719.284 405.684 717.231 405.684H667.694C665.641 405.684 663.977 404.02 663.977 401.967V393.531Z" stroke="white" stroke-width="2"/>
<path d="M655.876 404.326C652.619 404.326 649.979 406.966 649.979 410.223V429.761C649.979 431.715 651.563 433.299 653.517 433.299H671.002C675.575 433.299 678.947 437.57 677.886 442.018L675.766 450.906C675.26 453.03 673.361 454.529 671.177 454.529H571.989C569.805 454.529 567.907 453.03 567.4 450.906L565.28 442.018C564.22 437.57 567.592 433.299 572.164 433.299H590.34C592.294 433.299 593.878 431.715 593.878 429.761V410.223C593.878 406.966 591.238 404.326 587.981 404.326H566.085C561.668 404.326 557.661 401.737 555.845 397.711C554.784 393.264 558.156 392.531 562.728 392.531H662.977V401.967C662.977 402.826 663.207 403.632 663.608 404.326H655.876Z" stroke="white" stroke-width="2"/>
<path d="M726.486 393.531H783.458V401.967C783.458 404.02 781.794 405.684 779.74 405.684H730.204C728.151 405.684 726.486 404.02 726.486 401.967V393.531Z" stroke="white" stroke-width="2"/>
<path d="M787.816 393.531H844.788V401.967C844.788 404.02 843.124 405.684 841.07 405.684H791.534C789.481 405.684 787.816 404.02 787.816 401.967V393.531Z" stroke="white" stroke-width="2"/>
<path d="M351.58 410.223C351.58 406.966 354.221 404.326 357.477 404.326H378.683C383.1 404.326 387.107 401.737 388.923 397.711V397.711C389.984 393.264 386.612 392.531 382.039 392.531H264.33C259.758 392.531 256.386 393.264 257.446 397.711V397.711C259.262 401.737 263.269 404.326 267.686 404.326H289.582C292.839 404.326 295.479 406.966 295.479 410.223V429.761C295.479 431.715 293.895 433.299 291.941 433.299H273.765C269.193 433.299 265.821 437.57 266.882 442.018L269.001 450.906C269.508 453.03 271.407 454.529 273.59 454.529H372.779C374.963 454.529 376.861 453.03 377.368 450.906L379.488 442.018C380.548 437.57 377.176 433.299 372.604 433.299H355.119C353.164 433.299 351.58 431.715 351.58 429.761V410.223Z" stroke="white" stroke-width="2"/>
<path d="M269.59 383.078C269.59 369.847 280.316 359.121 293.547 359.121H655.453C668.684 359.121 679.41 369.847 679.41 383.078C679.41 390.735 673.203 396.942 665.547 396.942H472.989H395.545H283.453C275.797 396.942 269.59 390.735 269.59 383.078Z" stroke="white" stroke-width="1.17944"/>
<path d="M279.496 377.904C278.82 380.169 278.82 382.904 278.821 387.806C278.821 387.894 278.821 387.982 278.821 388.071C278.821 388.139 278.821 388.207 278.821 388.273C278.82 389.698 278.82 390.672 279.067 391.5C279.636 393.405 281.126 394.896 283.031 395.464C283.859 395.712 284.833 395.711 286.258 395.711C286.325 395.711 286.392 395.711 286.46 395.711H662.54L662.742 395.711C664.167 395.711 665.141 395.712 665.969 395.464C667.874 394.896 669.364 393.405 669.933 391.5C670.18 390.672 670.18 389.698 670.18 388.273L670.179 388.071V387.806C670.18 382.904 670.18 380.169 669.504 377.904C667.943 372.677 663.854 368.588 658.628 367.028C656.362 366.351 653.627 366.352 648.725 366.352L648.46 366.352H300.54C300.451 366.352 300.363 366.352 300.275 366.352C295.373 366.352 292.638 366.351 290.372 367.028C285.146 368.588 281.057 372.677 279.496 377.904Z" stroke="white" stroke-width="2.35887"/>
<path d="M209.062 149.019C222.246 167.97 226.366 195.985 220.598 252.427C178.438 251.603 93.6242 249.542 91.6466 247.894C89.669 246.246 90.8226 238.144 91.6466 234.299C101.122 188.568 114.718 141.603 139.849 130.067C164.98 118.532 195.879 130.067 209.062 149.019Z" stroke="white" stroke-width="3"/>
<path d="M92.4707 234.711C141.341 238.147 168.329 238.688 216.066 238.419M216.066 238.419L220.598 251.19M216.066 238.419V193.924C216.066 174.973 211.946 151.078 196.703 136.658" stroke="white" stroke-width="0.823971"/>
<path d="M174.173 221.914V219.14L182.3 210.078C183.203 209.067 183.918 208.132 184.445 207.272C184.971 206.401 185.235 205.498 185.235 204.563C185.235 203.574 184.95 202.784 184.38 202.193C183.821 201.591 183.036 201.29 182.026 201.29C181.005 201.29 180.166 201.628 179.51 202.305C178.855 202.972 178.527 204.02 178.527 205.45V205.869H174.141V205.24C174.141 203.09 174.872 201.349 176.334 200.016C177.796 198.672 179.698 198 182.042 198C184.471 198 186.342 198.602 187.653 199.806C188.976 200.999 189.637 202.52 189.637 204.369C189.637 205.885 189.255 207.24 188.492 208.433C187.729 209.626 186.75 210.873 185.557 212.174L180.026 218.414H190.185V221.914H174.173Z" fill="white"/>
<path d="M158 221.913V198.435H162.354V218.495H172.432V221.913H158Z" fill="white"/>
<path d="M742.08 149.019C728.897 167.97 724.777 195.985 730.545 252.427C772.704 251.603 857.518 249.542 859.496 247.894C861.474 246.246 860.32 238.144 859.496 234.299C850.02 188.568 836.425 141.603 811.294 130.067C786.163 118.532 755.264 130.067 742.08 149.019Z" stroke="white" stroke-width="3"/>
<path d="M858.672 234.711C809.801 238.147 782.814 238.688 735.076 238.419M735.076 238.419L730.544 251.19M735.076 238.419V193.924C735.076 174.973 739.196 151.078 754.44 136.658" stroke="white" stroke-width="0.823971"/>
<path d="M780.722 221.914V219.14L788.849 210.078C789.752 209.067 790.467 208.132 790.993 207.272C791.52 206.401 791.784 205.498 791.784 204.563C791.784 203.574 791.499 202.784 790.929 202.193C790.37 201.591 789.585 201.29 788.575 201.29C787.553 201.29 786.715 201.628 786.059 202.305C785.403 202.972 785.075 204.02 785.075 205.45V205.869H780.689V205.24C780.689 203.09 781.42 201.349 782.882 200.016C784.344 198.672 786.247 198 788.591 198C791.02 198 792.891 198.602 794.202 199.806C795.525 200.999 796.186 202.52 796.186 204.369C796.186 205.885 795.804 207.24 795.041 208.433C794.278 209.626 793.299 210.873 792.106 212.174L786.575 218.414H796.734V221.914H780.722Z" fill="white"/>
<path d="M762 221.914V198.436H770.288C772.804 198.436 774.76 199.086 776.158 200.387C777.555 201.677 778.254 203.429 778.254 205.643C778.254 207.879 777.545 209.669 776.126 211.013C774.707 212.346 772.75 213.013 770.256 213.013H766.354V221.914H762ZM766.354 209.836H769.917C771.39 209.836 772.422 209.454 773.013 208.691C773.605 207.928 773.9 206.944 773.9 205.74C773.9 204.536 773.605 203.563 773.013 202.822C772.422 202.08 771.39 201.709 769.917 201.709H766.354V209.836ZM774.513 221.914L769.192 211.207L773.529 210.674L779.351 221.914H774.513Z" fill="white"/>
<path d="M221.169 255.724C220.071 277.147 218.828 322.673 217.873 333.177C217.517 337.103 216.129 341.064 213.631 344.712M221.169 255.724L89.3341 252.428C81.0944 288.682 81.3552 320.817 97.5738 341.005C113.792 361.192 144.54 360.78 173.791 360.78C194.594 360.78 207.479 353.695 213.631 344.712M221.169 255.724C219.373 258.061 215.136 263.621 214.578 271.378C213.779 282.473 222.159 332.352 213.631 344.712" stroke="white" stroke-width="3"/>
<path d="M85.8789 267.258C127.091 271.887 157.53 272.107 214.006 271.79" stroke="white" stroke-width="0.823971"/>
<path d="M181.059 315.736V296.402L175.238 298.579V294.886L183.14 292H185.413V315.736H181.059Z" fill="white"/>
<path d="M158 315.736V292.258H162.354V312.317H172.432V315.736H158Z" fill="white"/>
<path d="M729.975 255.724C731.074 277.147 732.316 322.673 733.271 333.177C733.628 337.103 735.016 341.064 737.514 344.712M729.975 255.724L861.81 252.428C870.05 288.682 869.789 320.817 853.571 341.005C837.352 361.192 806.604 360.78 777.353 360.78C756.55 360.78 743.666 353.695 737.514 344.712M729.975 255.724C731.772 258.061 736.009 263.621 736.567 271.378C737.365 282.473 728.985 332.352 737.514 344.712" stroke="white" stroke-width="3"/>
<path d="M865.264 267.258C824.052 271.887 793.613 272.107 737.136 271.79" stroke="white" stroke-width="0.823971"/>
<path d="M790.606 315.736V296.402L784.785 298.579V294.886L792.686 292H794.96V315.736H790.606Z" fill="white"/>
<path d="M765 315.736V292.258H773.288C775.804 292.258 777.76 292.908 779.158 294.209C780.555 295.499 781.254 297.251 781.254 299.466C781.254 301.702 780.545 303.492 779.126 304.836C777.707 306.169 775.75 306.835 773.256 306.835H769.354V315.736H765ZM769.354 303.658H772.917C774.39 303.658 775.422 303.277 776.013 302.514C776.605 301.75 776.9 300.767 776.9 299.563C776.9 298.359 776.605 297.386 776.013 296.644C775.422 295.902 774.39 295.531 772.917 295.531H769.354V303.658ZM777.513 315.736L772.192 305.029L776.529 304.497L782.351 315.736H777.513Z" fill="white"/>
</svg>
