<svg width="950" height="455" fill="none" xmlns="http://www.w3.org/2000/svg"><path opacity=".2" d="M322.771 170.733c-30.075 0-80.337-18.127-107.116-53.558-7.483-9.901-14.806-23.052-22.516-36.9-19.88-35.702-42.337-76.033-76.772-77.22-47.79-1.648-90.225 33.783-103.82 92.285-13.596 58.502-14.2 112.471 8.239 189.513 12.36 42.434 33.37 90.636 64.27 99.7 30.899 9.064 134.719 11.124 186.217 4.944 1.785 1.511 8.816 4.449 22.659 4.12 12.595-.3 111.631-.168 172.622-.038v.038l8.446-.02 8.446.02v-.038c60.991-.13 160.027-.262 172.622.038 13.843.329 20.874-2.609 22.659-4.12 51.498 6.18 155.319 4.12 186.217-4.944 30.899-9.064 51.911-57.266 64.27-99.7 22.439-77.042 21.835-131.011 8.24-189.513-13.596-58.502-56.03-93.933-103.821-92.285-34.435 1.187-56.892 41.518-76.772 77.22-7.71 13.848-15.033 26.999-22.516 36.9-26.779 35.431-77.041 53.558-107.116 53.558H322.771Z" stroke="#fff" stroke-width="6"/><path opacity=".2" d="M3.07 164.967c0 45.731 3.296 143.783 75.394 143.371M227 277.469c0 45.318 18.318 65.888 100.303 65.888h164.382m-219.588 43.258c-7.416 1.374-25.296 4.038-37.491 3.708-15.243-.412-73.786-.882-114.12-12.36-50.674-14.42-56.03-55.618-51.91-97.64 4.957-50.564 18.951-109.176 36.667-128.951 17.715-19.776 44.494-42.023 91.46-24.719 46.967 17.303 33.783 70.448 124.832 70.86 72.839.33 129.775.138 170.15 0" stroke="#fff" stroke-width=".824"/><path opacity=".2" d="M946.93 165.004c0 45.731-3.296 143.783-75.394 143.371m-147.902-31.723c0 45.319-18.952 66.742-100.937 66.742H458.315m219.588 43.258c7.416 1.374 25.296 4.038 37.491 3.708 15.243-.412 73.786-.882 114.12-12.36 50.674-14.42 56.03-55.618 51.91-97.64-4.957-50.564-18.951-109.176-36.667-128.951-17.715-19.775-44.494-42.023-91.46-24.719-46.967 17.303-33.783 70.449-124.832 70.861-72.839.329-129.775.137-170.15 0m-294.57-68.016c56.442 0 64.682 40.375 64.682 78.689-.687 25.681-2.06 81.656-2.06 100.113 0 23.071-1.236 39.962-15.243 49.85-14.008 9.888-36.667 9.476-67.154 9.476-30.487 0-52.322-20.6-61.798-43.259-9.475-22.659 1.648-86.105 9.476-111.648 7.828-25.543 15.655-83.221 72.097-83.221Z" stroke="#fff" stroke-width=".824"/><path opacity=".2" d="M786.667 129.535c-56.442 0-64.682 40.375-64.682 78.689.687 25.681 2.06 81.656 2.06 100.113 0 23.071 1.236 39.962 15.243 49.85 14.008 9.888 36.667 9.476 67.154 9.476 30.487 0 52.322-20.6 61.798-43.259 9.475-22.659-1.648-86.105-9.476-111.648-7.828-25.543-15.655-83.221-72.097-83.221Zm-344.42 172.622c0-5.461 4.427-9.888 9.888-9.888h38.726c5.461 0 9.888 4.427 9.888 9.888s-4.427 9.888-9.888 9.888h-38.726c-5.461 0-9.888-4.427-9.888-9.888Z" stroke="#fff" stroke-width=".824"/><path opacity=".2" d="M206.355 393h45.178v8.435a3.718 3.718 0 0 1-3.718 3.718h-41.46V393ZM112 393h45.177v12.153h-41.459a3.717 3.717 0 0 1-3.718-3.718V393Zm47.178 0h45.177v12.153h-45.177V393Zm504.798 0h56.971v8.435a3.717 3.717 0 0 1-3.717 3.718h-49.537a3.717 3.717 0 0 1-3.717-3.718V393Z" stroke="#fff" stroke-width="2"/><path opacity=".2" d="M655.875 403.794a5.898 5.898 0 0 0-5.897 5.898v19.538a3.538 3.538 0 0 0 3.538 3.538h17.485c4.573 0 7.945 4.271 6.884 8.718l-2.12 8.889a4.717 4.717 0 0 1-4.589 3.623h-99.188a4.718 4.718 0 0 1-4.589-3.623l-2.12-8.889c-1.06-4.447 2.312-8.718 6.884-8.718h18.176a3.538 3.538 0 0 0 3.538-3.538v-19.538a5.898 5.898 0 0 0-5.897-5.898h-21.896a11.233 11.233 0 0 1-10.24-6.614c-1.061-4.448 2.311-5.18 6.883-5.18h100.249v9.435c0 .86.23 1.665.631 2.359h-7.732ZM726.486 393h56.972v8.435a3.717 3.717 0 0 1-3.718 3.718h-49.536a3.718 3.718 0 0 1-3.718-3.718V393Zm61.33 0h56.972v8.435a3.717 3.717 0 0 1-3.718 3.718h-49.536a3.718 3.718 0 0 1-3.718-3.718V393ZM351.58 409.692a5.898 5.898 0 0 1 5.897-5.898h21.206c4.417 0 8.424-2.588 10.24-6.614 1.061-4.447-2.311-5.18-6.884-5.18H264.33c-4.572 0-7.944.732-6.884 5.18a11.233 11.233 0 0 0 10.24 6.614h21.896a5.898 5.898 0 0 1 5.897 5.898v19.538a3.538 3.538 0 0 1-3.538 3.538h-18.176c-4.572 0-7.944 4.271-6.883 8.718l2.119 8.889a4.719 4.719 0 0 0 4.589 3.623h99.189a4.718 4.718 0 0 0 4.589-3.623l2.12-8.889c1.06-4.447-2.312-8.718-6.884-8.718h-17.485a3.538 3.538 0 0 1-3.539-3.538v-19.538Z" stroke="#fff" stroke-width="2"/><path opacity=".2" d="M269.59 382.547c0-13.231 10.726-23.957 23.957-23.957h361.906c13.231 0 23.957 10.726 23.957 23.957 0 7.656-6.207 13.863-13.863 13.863H283.453c-7.656 0-13.863-6.207-13.863-13.863Z" stroke="#fff" stroke-width="1.179"/><path opacity=".2" d="M279.496 377.372c-.676 2.266-.676 5.001-.675 9.903v.467c-.001 1.425-.001 2.399.246 3.227a5.899 5.899 0 0 0 3.964 3.964c.828.247 1.802.247 3.227.246h376.484c1.425.001 2.399.001 3.227-.246a5.899 5.899 0 0 0 3.964-3.964c.247-.828.247-1.802.247-3.227l-.001-.202v-.265c.001-4.902.001-7.637-.675-9.903a16.186 16.186 0 0 0-10.876-10.876c-2.266-.676-5.001-.676-9.903-.675h-348.45c-4.902-.001-7.637-.001-9.903.675a16.186 16.186 0 0 0-10.876 10.876Z" stroke="#fff" stroke-width="2.359"/><path d="M209.063 148.487c13.184 18.952 17.304 46.967 11.536 103.409-42.16-.825-126.974-2.885-128.951-4.533-1.978-1.648-.824-9.75 0-13.596 9.475-45.73 23.071-92.695 48.202-104.231 25.131-11.536 56.03 0 69.213 18.951Z" stroke="#fff" stroke-width="6"/><path d="M92.472 234.179c48.87 3.437 75.858 3.978 123.595 3.708m0 0 4.532 12.772m-4.532-12.772v-44.494c0-18.951-4.12-42.847-19.363-57.266" stroke="#fff" stroke-width=".824"/><path d="M174.173 221.382v-2.773l8.127-9.063c.903-1.01 1.618-1.945 2.145-2.805.526-.871.79-1.774.79-2.709 0-.989-.285-1.779-.855-2.371-.559-.602-1.344-.903-2.354-.903-1.021 0-1.86.339-2.516 1.016-.655.667-.983 1.715-.983 3.145v.419h-4.386v-.629c0-2.15.731-3.892 2.193-5.225 1.462-1.343 3.364-2.015 5.708-2.015 2.429 0 4.3.602 5.611 1.806 1.323 1.193 1.984 2.714 1.984 4.563 0 1.516-.382 2.87-1.145 4.064-.763 1.193-1.742 2.44-2.935 3.741l-5.531 6.24h10.159v3.499h-16.012Zm-16.173 0v-23.478h4.354v20.06h10.078v3.418H158Z" fill="#fff"/><path d="M742.08 148.487c-13.183 18.952-17.303 46.967-11.535 103.409 42.159-.825 126.973-2.885 128.951-4.533 1.978-1.648.824-9.75 0-13.596-9.476-45.73-23.071-92.695-48.202-104.231-25.131-11.536-56.03 0-69.214 18.951Z" stroke="#fff" stroke-width="6"/><path d="M858.672 234.179c-48.871 3.437-75.858 3.978-123.596 3.708m0 0-4.532 12.772m4.532-12.772v-44.494c0-18.951 4.12-42.847 19.364-57.266" stroke="#fff" stroke-width=".824"/><path d="M780.722 221.382v-2.773l8.127-9.063c.903-1.01 1.618-1.945 2.144-2.805.527-.871.791-1.774.791-2.709 0-.989-.285-1.779-.855-2.371-.559-.602-1.344-.903-2.354-.903-1.022 0-1.86.339-2.516 1.016-.656.667-.984 1.715-.984 3.145v.419h-4.386v-.629c0-2.15.731-3.892 2.193-5.225 1.462-1.343 3.365-2.015 5.709-2.015 2.429 0 4.3.602 5.611 1.806 1.323 1.193 1.984 2.714 1.984 4.563 0 1.516-.382 2.87-1.145 4.064-.763 1.193-1.742 2.44-2.935 3.741l-5.531 6.24h10.159v3.499h-16.012Zm-18.722 0v-23.478h8.288c2.516 0 4.472.65 5.87 1.951 1.397 1.29 2.096 3.042 2.096 5.257 0 2.236-.709 4.026-2.128 5.37-1.419 1.333-3.376 1.999-5.87 1.999h-3.902v8.901H762Zm4.354-12.078h3.563c1.473 0 2.505-.381 3.096-1.144.592-.764.887-1.747.887-2.951s-.295-2.177-.887-2.919c-.591-.742-1.623-1.113-3.096-1.113h-3.563v8.127Zm8.159 12.078-5.321-10.707 4.337-.532 5.822 11.239h-4.838Z" fill="#fff"/><g opacity=".2"><path d="M221.169 255.192c-1.098 21.424-2.341 66.95-3.296 77.454-.356 3.926-1.744 7.887-4.242 11.534m7.538-88.988-131.835-3.296c-8.24 36.255-7.979 68.39 8.24 88.577 16.218 20.188 46.966 19.776 76.217 19.776 20.803 0 33.688-7.086 39.84-16.069m7.538-88.988c-1.796 2.338-6.033 7.898-6.591 15.655-.799 11.095 7.581 60.974-.947 73.333" stroke="#fff" stroke-width="3"/><path d="M85.88 266.727c41.212 4.629 71.651 4.848 128.127 4.531" stroke="#fff" stroke-width=".824"/><path d="M181.058 315.205v-19.334l-5.821 2.177v-3.693l7.902-2.886h2.273v23.736h-4.354Zm-23.058 0v-23.478h4.354v20.059h10.078v3.419H158Z" fill="#fff"/></g><g opacity=".2"><path d="M729.974 255.192c1.099 21.424 2.341 66.95 3.296 77.454.357 3.926 1.745 7.887 4.243 11.534m-7.539-88.988 131.835-3.296c8.24 36.255 7.979 68.39-8.239 88.577-16.219 20.188-46.967 19.776-76.217 19.776-20.804 0-33.688-7.086-39.84-16.069m-7.539-88.988c1.797 2.338 6.034 7.898 6.592 15.655.798 11.095-7.582 60.974.947 73.333" stroke="#fff" stroke-width="3"/><path d="M865.264 266.727c-41.212 4.629-71.651 4.848-128.128 4.531" stroke="#fff" stroke-width=".824"/><path d="M790.606 315.205v-19.334l-5.821 2.177v-3.693l7.901-2.886h2.274v23.736h-4.354Zm-25.606 0v-23.478h8.288c2.516 0 4.472.65 5.87 1.951 1.397 1.29 2.096 3.042 2.096 5.257 0 2.236-.709 4.026-2.128 5.369-1.419 1.333-3.376 2-5.87 2h-3.902v8.901H765Zm4.354-12.078h3.563c1.473 0 2.505-.381 3.096-1.145.592-.763.887-1.747.887-2.951s-.295-2.176-.887-2.918c-.591-.742-1.623-1.113-3.096-1.113h-3.563v8.127Zm8.159 12.078-5.321-10.707 4.337-.532 5.822 11.239h-4.838Z" fill="#fff"/></g></svg>