<svg width="1646" height="690" viewBox="0 0 1646 690" fill="none" xmlns="http://www.w3.org/2000/svg">
<path d="M125.132 32.3955C116.122 32.3955 44.5443 100.671 41.0405 106.695C39.3913 109.53 37.5204 143.617 35.1668 186.499C32.5198 234.724 29.2623 294.074 25.0231 332.605C18.6162 390.84 15.346 485.722 14.5117 525.884C27.1921 556.005 54.455 620.264 62.0633 636.329C71.5736 656.41 81.5844 674.482 128.135 670.466C165.375 667.253 281.134 666.785 334.358 666.952H1311.42C1364.64 666.785 1480.4 667.253 1517.64 670.466C1564.19 674.482 1574.2 656.41 1583.71 636.329C1591.32 620.264 1618.58 556.005 1631.26 525.884C1630.43 485.722 1627.16 390.84 1620.75 332.605C1616.51 294.074 1613.26 234.724 1610.61 186.499C1608.26 143.617 1606.38 109.53 1604.74 106.695C1601.23 100.671 1529.65 32.3955 1520.64 32.3955H125.132Z" stroke="white" stroke-width="0.5"/>
<path d="M278.298 28.3791C284.805 28.3791 290.311 24.8649 290.311 18.3386C290.311 11.8123 289.811 2.27389 238.255 2.27389C228.433 2.27389 218.103 2.09169 207.676 1.90779C163.369 1.12635 117.313 0.314075 101.106 13.3184C81.0843 29.3831 64.5664 47.4565 62.5642 54.4848C62.081 56.181 61.1605 58.6667 60.1123 61.4973C56.8171 70.3954 52.2597 82.7018 56.0572 84.6062C61.0626 87.1163 64.0659 85.1082 73.0757 76.5738C77.6533 72.2377 87.3993 63.4955 96.4054 55.417C105.125 47.5953 113.151 40.3958 115.121 38.4201C119.126 34.4039 130.638 28.3791 148.658 28.3791H278.298Z" stroke="white" stroke-width="2"/>
<path d="M1367.48 28.3791C1360.97 28.3791 1355.47 24.8649 1355.47 18.3386C1355.47 11.8123 1355.97 2.27389 1407.52 2.27389C1417.34 2.27389 1427.67 2.09169 1438.1 1.90779C1482.41 1.12635 1528.46 0.314075 1544.67 13.3184C1564.69 29.3831 1581.21 47.4565 1583.21 54.4848C1583.7 56.181 1584.62 58.6667 1585.66 61.4973C1588.96 70.3954 1593.52 82.7018 1589.72 84.6062C1584.71 87.1163 1581.71 85.1082 1572.7 76.5738C1568.12 72.2377 1558.38 63.4955 1549.37 55.417C1540.65 47.5953 1532.63 40.3958 1530.66 38.4201C1526.65 34.4039 1515.14 28.3791 1497.12 28.3791H1367.48Z" stroke="white" stroke-width="2"/>
<path d="M277.734 28.6203C284.241 28.6203 289.747 25.1061 289.747 18.5798C289.747 12.0535 289.246 2.5151 237.69 2.5151C227.869 2.5151 217.538 2.3329 207.111 2.149C162.804 1.36756 116.749 0.555286 100.542 13.5596C80.5198 29.6243 64.0019 47.6977 61.9998 54.726C61.5166 56.4222 60.5961 58.9079 59.5479 61.7385C56.2527 70.6366 51.6953 82.9431 55.4927 84.8474C60.4981 87.3575 63.5014 85.3494 72.5112 76.815C77.0888 72.4789 86.8349 63.7367 95.841 55.6582C104.561 47.8365 112.587 40.637 114.557 38.6613C118.561 34.6451 130.074 28.6203 148.093 28.6203H277.734Z" stroke="white" stroke-width="2"/>
<path d="M1366.91 28.6203C1360.41 28.6203 1354.9 25.1061 1354.9 18.5798C1354.9 12.0535 1355.4 2.5151 1406.96 2.5151C1416.78 2.5151 1427.11 2.3329 1437.54 2.149C1481.84 1.36756 1527.9 0.555286 1544.11 13.5596C1564.13 29.6243 1580.65 47.6977 1582.65 54.726C1583.13 56.4222 1584.05 58.9079 1585.1 61.7385C1588.39 70.6366 1592.95 82.9431 1589.15 84.8474C1584.15 87.3575 1581.15 85.3494 1572.14 76.815C1567.56 72.4789 1557.81 63.7367 1548.81 55.6582C1540.09 47.8365 1532.06 40.637 1530.09 38.6613C1526.09 34.6451 1514.57 28.6203 1496.55 28.6203H1366.91Z" stroke="white" stroke-width="2"/>
<path d="M288.629 23.8613V20.8613H287.086L286.188 22.1174L288.629 23.8613ZM115.122 38.42L117.246 40.5382L117.246 40.5382L115.122 38.42ZM96.4057 55.4168L98.4004 57.6577L98.4089 57.6501L96.4057 55.4168ZM96.4052 55.4173L94.4105 53.1765L94.402 53.1841L96.4052 55.4173ZM73.0759 76.5737L71.0129 74.3957L73.0759 76.5737ZM56.0574 84.6061L54.7126 87.2877L54.7126 87.2878L56.0574 84.6061ZM55.0141 83.4493L57.7595 82.2397L56.0291 78.3125L52.9352 81.2864L55.0141 83.4493ZM47.159 91.1324L49.2834 93.2505H49.2834L47.159 91.1324ZM30.8319 128.93L27.8696 128.456L30.8319 128.93ZM28.1384 145.351L31.0958 145.854L28.1384 145.351ZM6.11449 374.273L3.12272 374.051L6.11449 374.273ZM5.63015 516.005L8.61937 515.751L5.63015 516.005ZM51.1633 643.357L48.4588 644.656L51.1633 643.357ZM160.797 682.806L161.083 685.792L160.797 682.806ZM217.344 678.499L217.432 681.497H217.432L217.344 678.499ZM677.843 678.175H680.843V675.178L677.845 675.175L677.843 678.175ZM677.843 678.499H674.843V681.503L677.847 681.499L677.843 678.499ZM823 678.317L823.003 675.317H822.997L823 678.317ZM968.157 678.499L968.153 681.499L971.157 681.503V678.499H968.157ZM968.157 678.175L968.154 675.175L965.157 675.178V678.175H968.157ZM1428.66 678.499L1428.57 681.497L1428.66 678.499ZM1485.2 682.806L1484.92 685.792L1485.2 682.806ZM1594.84 643.357L1592.13 642.059L1594.84 643.357ZM1640.37 516.005L1643.36 516.259V516.259L1640.37 516.005ZM1639.89 374.273L1636.89 374.495L1639.89 374.273ZM1617.86 145.351L1620.82 144.847V144.847L1617.86 145.351ZM1615.17 128.93L1618.13 128.456V128.456L1615.17 128.93ZM1598.84 91.1324L1600.97 89.0142V89.0141L1598.84 91.1324ZM1590.83 83.2958L1592.9 81.1325L1589.64 77.9995L1588.02 82.222L1590.83 83.2958ZM1589.72 84.6061L1591.06 87.2877L1591.06 87.2877L1589.72 84.6061ZM1572.7 76.5737L1570.64 78.7517L1570.64 78.7517L1572.7 76.5737ZM1549.38 55.4207L1551.38 53.1875L1551.37 53.1823L1551.37 53.1771L1549.38 55.4207ZM1549.37 55.4168L1547.37 57.6501L1547.37 57.6553L1547.38 57.6605L1549.37 55.4168ZM1530.66 38.42L1528.53 40.5381V40.5382L1530.66 38.42ZM1357.15 23.8613L1359.59 22.1174L1358.69 20.8613H1357.15V23.8613ZM278.298 31.3789C283.252 31.3789 288.217 29.5994 291.07 25.6053L286.188 22.1174C284.809 24.0482 282.002 25.3789 278.298 25.3789V31.3789ZM148.658 31.3789H278.298V25.3789H148.658V31.3789ZM117.246 40.5382C120.541 37.2329 131.202 31.3789 148.658 31.3789V25.3789C130.075 25.3789 117.71 31.5747 112.997 36.3018L117.246 40.5382ZM98.4089 57.6501C107.07 49.8806 115.198 42.5918 117.246 40.5382L112.997 36.3018C111.105 38.1995 103.181 45.3096 94.4025 53.1836L98.4089 57.6501ZM98.3999 57.6581L98.4004 57.6577L94.411 53.176L94.4105 53.1765L98.3999 57.6581ZM75.139 78.7517C79.6787 74.4515 89.3833 65.7461 98.4084 57.6505L94.402 53.1841C85.4152 61.2453 75.6283 70.0238 71.0129 74.3957L75.139 78.7517ZM54.7126 87.2878C56.2085 88.0379 57.7733 88.5615 59.4777 88.6089C61.2049 88.6571 62.8215 88.2098 64.4099 87.4133C67.3874 85.9201 70.7225 82.9352 75.139 78.7517L71.0129 74.3957C66.4196 78.7466 63.7482 81.0329 61.7203 82.0499C60.8059 82.5084 60.17 82.6259 59.6448 82.6113C59.0967 82.596 58.4091 82.4293 57.4023 81.9244L54.7126 87.2878ZM52.2688 84.6588C52.7259 85.6965 53.5047 86.682 54.7126 87.2877L57.4023 81.9244C57.5162 81.9815 57.6138 82.0596 57.6846 82.1389C57.7508 82.2131 57.7682 82.2595 57.7595 82.2397L52.2688 84.6588ZM52.9352 81.2864C49.9895 84.1178 47.3089 86.7331 45.0345 89.0142L49.2834 93.2505C51.5165 91.0109 54.1638 88.4277 57.0931 85.6121L52.9352 81.2864ZM45.0345 89.0142C38.9751 95.0915 35.4449 98.7628 33.1245 104.21C30.8856 109.466 29.814 116.306 27.8696 128.456L33.7943 129.404C35.7974 116.887 36.7676 110.968 38.6445 106.561C40.4399 102.347 43.0995 99.4527 49.2834 93.2505L45.0345 89.0142ZM27.8696 128.456C27.137 133.034 26.2751 138.419 25.1809 144.847L31.0958 145.854C32.1956 139.394 33.0616 133.982 33.7943 129.404L27.8696 128.456ZM25.1809 144.847C18.1441 186.185 10.1263 279.724 3.12272 374.051L9.10625 374.495C16.1178 280.061 24.1174 186.848 31.0958 145.854L25.1809 144.847ZM3.12272 374.051C-2.7353 452.948 1.17407 499.002 2.64093 516.259L8.61937 515.751C7.17 498.7 3.2788 452.981 9.10625 374.495L3.12272 374.051ZM2.64093 516.259C2.93916 519.768 3.11449 521.868 3.11449 522.872H9.11449C9.11449 521.539 8.90255 519.083 8.61937 515.751L2.64093 516.259ZM3.11449 522.872C3.11449 523.695 3.32016 524.751 3.55503 525.763C3.81071 526.865 4.17834 528.226 4.63666 529.796C5.55471 532.94 6.87169 537.039 8.48056 541.809C11.7006 551.356 16.1232 563.687 20.9474 576.632C30.5809 602.481 41.8855 630.963 48.4588 644.656L53.8678 642.059C47.4267 628.642 36.2069 600.396 26.5696 574.536C21.7585 561.627 17.359 549.359 14.1659 539.892C12.5682 535.155 11.2808 531.143 10.3961 528.114C9.95307 526.597 9.61975 525.355 9.39982 524.407C9.28983 523.933 9.21395 523.557 9.16688 523.271C9.11586 522.961 9.11449 522.851 9.11449 522.872H3.11449ZM48.4588 644.656C61.7815 672.407 82.6613 689.531 109.226 689.531V683.531C85.7365 683.531 66.5738 668.526 53.8678 642.059L48.4588 644.656ZM109.226 689.531C122.108 689.531 141.173 687.701 161.083 685.792L160.511 679.82C140.468 681.741 121.75 683.531 109.226 683.531V689.531ZM161.083 685.792C180.495 683.932 200.79 681.988 217.432 681.497L217.255 675.5C200.374 675.998 179.863 677.965 160.511 679.82L161.083 685.792ZM217.432 681.497C235.65 680.96 459.964 680.993 677.84 681.175L677.845 675.175C460.071 674.994 235.594 674.959 217.255 675.5L217.432 681.497ZM674.843 678.175V678.499H680.843V678.175H674.843ZM677.847 681.499C719.898 681.44 769.562 681.377 823.003 681.317L822.997 675.317C769.554 675.377 719.891 675.44 677.839 675.499L677.847 681.499ZM822.997 681.317C876.438 681.377 926.102 681.44 968.153 681.499L968.161 675.499C926.109 675.44 876.445 675.377 823.003 675.317L822.997 681.317ZM971.157 678.499V678.175H965.157V678.499H971.157ZM968.159 681.175C1186.04 680.993 1410.35 680.96 1428.57 681.497L1428.74 675.5C1410.41 674.959 1185.93 674.994 968.154 675.175L968.159 681.175ZM1428.57 681.497C1445.21 681.988 1465.5 683.932 1484.92 685.792L1485.49 679.82C1466.14 677.965 1445.63 675.998 1428.74 675.5L1428.57 681.497ZM1484.92 685.792C1504.83 687.701 1523.89 689.531 1536.77 689.531V683.531C1524.25 683.531 1505.53 681.741 1485.49 679.82L1484.92 685.792ZM1536.77 689.531C1563.34 689.531 1584.22 672.407 1597.54 644.656L1592.13 642.059C1579.43 668.526 1560.26 683.531 1536.77 683.531V689.531ZM1597.54 644.656C1604.11 630.963 1615.42 602.481 1625.05 576.632C1629.88 563.687 1634.3 551.356 1637.52 541.809C1639.13 537.039 1640.45 532.94 1641.36 529.796C1641.82 528.226 1642.19 526.865 1642.44 525.763C1642.68 524.751 1642.89 523.695 1642.89 522.872H1636.89C1636.89 522.851 1636.88 522.961 1636.83 523.271C1636.79 523.557 1636.71 523.933 1636.6 524.407C1636.38 525.355 1636.05 526.597 1635.6 528.114C1634.72 531.143 1633.43 535.155 1631.83 539.892C1628.64 549.359 1624.24 561.627 1619.43 574.536C1609.79 600.396 1598.57 628.642 1592.13 642.059L1597.54 644.656ZM1642.89 522.872C1642.89 521.868 1643.06 519.768 1643.36 516.259L1637.38 515.751C1637.1 519.083 1636.89 521.539 1636.89 522.872H1642.89ZM1643.36 516.259C1644.83 499.002 1648.74 452.948 1642.88 374.051L1636.89 374.495C1642.72 452.981 1638.83 498.7 1637.38 515.751L1643.36 516.259ZM1642.88 374.051C1635.87 279.724 1627.86 186.185 1620.82 144.847L1614.9 145.854C1621.88 186.848 1629.88 280.061 1636.89 374.495L1642.88 374.051ZM1620.82 144.847C1619.72 138.419 1618.86 133.034 1618.13 128.456L1612.21 129.404C1612.94 133.982 1613.8 139.394 1614.9 145.854L1620.82 144.847ZM1618.13 128.456C1616.19 116.306 1615.11 109.466 1612.88 104.21C1610.55 98.7628 1607.02 95.0915 1600.97 89.0142L1596.72 93.2505C1602.9 99.4527 1605.56 102.347 1607.36 106.561C1609.23 110.968 1610.2 116.887 1612.21 129.404L1618.13 128.456ZM1600.97 89.0141C1598.65 86.6919 1595.91 84.0231 1592.9 81.1325L1588.75 85.4592C1591.74 88.3341 1594.44 90.9703 1596.72 93.2506L1600.97 89.0141ZM1588.02 82.222C1588.01 82.2714 1588.01 82.2344 1588.08 82.1588C1588.14 82.0756 1588.25 81.9879 1588.37 81.9244L1591.06 87.2877C1592.39 86.6206 1593.19 85.502 1593.63 84.3697L1588.02 82.222ZM1588.37 81.9244C1587.37 82.4293 1586.68 82.596 1586.13 82.6113C1585.61 82.6259 1584.97 82.5084 1584.06 82.0499C1582.03 81.0329 1579.36 78.7466 1574.76 74.3957L1570.64 78.7517C1575.05 82.9352 1578.39 85.9201 1581.37 87.4133C1582.96 88.2098 1584.57 88.6571 1586.3 88.6089C1588 88.5615 1589.57 88.0379 1591.06 87.2877L1588.37 81.9244ZM1574.76 74.3957C1570.15 70.0244 1560.36 61.2477 1551.38 53.1875L1547.37 57.654C1556.4 65.7486 1566.1 74.4521 1570.64 78.7517L1574.76 74.3957ZM1551.37 53.1771L1551.36 53.1732L1547.38 57.6605L1547.38 57.6644L1551.37 53.1771ZM1551.37 53.1836C1542.6 45.3096 1534.67 38.1995 1532.78 36.3018L1528.53 40.5382C1530.58 42.5918 1538.71 49.8806 1547.37 57.6501L1551.37 53.1836ZM1532.78 36.3018C1528.07 31.5747 1515.7 25.3789 1497.12 25.3789V31.3789C1514.58 31.3789 1525.24 37.2329 1528.53 40.5381L1532.78 36.3018ZM1497.12 25.3789H1367.48V31.3789H1497.12V25.3789ZM1367.48 25.3789C1363.78 25.3789 1360.97 24.0482 1359.59 22.1174L1354.71 25.6053C1357.56 29.5994 1362.53 31.3789 1367.48 31.3789V25.3789ZM1357.15 20.8613H288.629V26.8613H1357.15V20.8613Z" fill="white"/>
<path d="M847.436 22.3573C847.689 19.5494 850.047 17.333 852.914 17.333H898.977C901.844 17.333 904.202 19.5494 904.455 22.3573H847.436Z" stroke="white"/>
<path d="M926.522 22.3573C926.775 19.5494 929.133 17.333 932 17.333H978.063C980.93 17.333 983.288 19.5494 983.541 22.3573H926.522Z" stroke="white"/>
<circle cx="1417.05" cy="308.821" r="79.5791" stroke="white" stroke-width="0.941764"/>
<circle cx="1417.05" cy="308.821" r="63.5691" stroke="white" stroke-width="0.941764"/>
<circle cx="1417.05" cy="308.82" r="50.297" stroke="white" stroke-width="3"/>
<circle cx="1417.05" cy="308.82" r="30.6073" stroke="white" stroke-width="0.941764"/>
<circle cx="140.05" cy="151.821" r="79.5791" stroke="white" stroke-width="0.941764"/>
<circle cx="140.05" cy="151.821" r="63.5691" stroke="white" stroke-width="0.941764"/>
<circle cx="140.051" cy="151.82" r="50.297" stroke="white" stroke-width="3"/>
<circle cx="140.051" cy="151.82" r="30.6073" stroke="white" stroke-width="0.941764"/>
<circle cx="242" cy="284.771" r="65.5291" stroke="white" stroke-width="0.941764"/>
<path d="M301.908 305.671C303.529 305.671 304.979 304.637 305.428 303.079C307.103 297.266 308 291.124 308 284.771C308 278.419 307.103 272.277 305.428 266.463C304.979 264.906 303.529 263.871 301.908 263.871H264.784C263.743 263.871 262.9 263.028 262.9 261.988V224.864C262.9 223.243 261.866 221.793 260.308 221.344C254.495 219.669 248.352 218.771 242 218.771C235.648 218.771 229.505 219.669 223.692 221.344C222.134 221.793 221.1 223.243 221.1 224.864V261.988C221.1 263.028 220.257 263.871 219.216 263.871H182.092C180.471 263.871 179.021 264.906 178.572 266.463C176.897 272.277 176 278.419 176 284.771C176 291.124 176.897 297.266 178.572 303.079C179.021 304.637 180.471 305.671 182.092 305.671H219.216C220.257 305.671 221.1 306.515 221.1 307.555V344.679C221.1 346.3 222.134 347.75 223.692 348.199C229.505 349.874 235.648 350.771 242 350.771C248.352 350.771 254.495 349.874 260.308 348.199C261.866 347.75 262.9 346.3 262.9 344.679V307.555C262.9 306.515 263.743 305.671 264.784 305.671H301.908Z" stroke="white" stroke-width="3"/>
<rect x="340.865" y="36.4062" width="966.05" height="621.516" rx="4.5" stroke="white" stroke-width="3"/>
<rect x="369.896" y="89.6201" width="905.985" height="512.075" stroke="white" stroke-width="3"/>
<path d="M284.746 19.4693C279.336 17.4912 268.584 13.5596 248.138 13.5596H146.528C128.508 13.5596 117.496 19.8453 113.492 23.8615C113.064 24.2904 111.879 25.2429 110.202 26.5897C104.157 31.4463 91.7317 41.4289 85.4617 50.4686C80.1821 55.2045 78.2151 61.9518 76.5691 67.5983C75.4072 71.5838 74.4053 75.0209 72.5112 76.815C63.5014 85.3494 60.4982 87.3575 55.4927 84.8474C51.6954 82.9431 56.2523 70.6377 59.5473 61.7396L59.5478 61.7385L59.5484 61.7369C60.5964 58.907 61.5167 56.4219 61.9998 54.726C64.002 47.6977 80.5199 29.6243 100.542 13.5596C116.749 0.555286 162.804 1.36756 207.111 2.149C217.538 2.3329 227.869 2.5151 237.69 2.5151C289.246 2.5151 289.747 12.0535 289.747 18.5798C289.747 21.2979 288.607 20.8811 284.746 19.4693Z" stroke="white"/>
<path d="M1360.47 19.4693C1365.88 17.4912 1376.63 13.5596 1397.07 13.5596H1498.68C1516.7 13.5596 1527.72 19.8453 1531.72 23.8615C1532.15 24.2904 1533.33 25.2429 1535.01 26.5897C1541.05 31.4463 1553.48 41.4289 1559.75 50.4686C1565.03 55.2045 1567 61.9518 1568.64 67.5983C1569.8 71.5838 1570.81 75.0209 1572.7 76.815C1581.71 85.3494 1584.71 87.3575 1589.72 84.8474C1593.52 82.9431 1588.96 70.6377 1585.66 61.7396L1585.66 61.7385L1585.66 61.7369C1584.62 58.907 1583.69 56.4219 1583.21 54.726C1581.21 47.6977 1564.69 29.6243 1544.67 13.5596C1528.46 0.555286 1482.41 1.36756 1438.1 2.149C1427.67 2.3329 1417.34 2.5151 1407.52 2.5151C1355.97 2.5151 1355.47 12.0535 1355.47 18.5798C1355.47 21.2979 1356.6 20.8811 1360.47 19.4693Z" stroke="white"/>
<path d="M295.816 102.712C295.816 100.322 298.159 98.6348 300.426 99.3927L331.468 109.771C332.896 110.248 333.859 111.585 333.859 113.09V144.334C333.859 145.9 332.818 147.276 331.311 147.702L300.269 156.483C298.035 157.115 295.816 155.437 295.816 153.115V102.712Z" stroke="white"/>
<path d="M1351.96 102.712C1351.96 100.322 1349.62 98.6348 1347.35 99.3927L1316.31 109.771C1314.88 110.248 1313.92 111.585 1313.92 113.09V144.334C1313.92 145.9 1314.96 147.276 1316.47 147.702L1347.51 156.483C1349.74 157.115 1351.96 155.437 1351.96 153.115V102.712Z" stroke="white"/>
<path d="M333.859 164.962C333.859 162.572 331.517 160.885 329.25 161.643L298.207 172.021C296.78 172.498 295.817 173.835 295.817 175.34V206.584C295.817 208.15 296.857 209.526 298.364 209.952L329.407 218.733C331.641 219.365 333.859 217.687 333.859 215.365V164.962Z" stroke="white"/>
<path d="M1313.92 164.962C1313.92 162.572 1316.26 160.885 1318.53 161.643L1349.57 172.021C1351 172.498 1351.96 173.835 1351.96 175.34V206.584C1351.96 208.15 1350.92 209.526 1349.41 209.952L1318.37 218.733C1316.14 219.365 1313.92 217.687 1313.92 215.365V164.962Z" stroke="white"/>
<path d="M1395.2 449.019V444.642L1408.2 435.012V439.39L1395.2 449.019ZM1376.7 457.643L1391.7 446.863V451.247L1376.7 462.028V457.643ZM1408.2 453.387L1376.7 476.028V471.644L1408.2 449.003V453.387ZM1340.7 507.028V502.644L1372.2 480.003V484.387L1340.7 507.028ZM1340.7 488.643L1355.7 477.863V482.247L1340.7 493.028V488.643ZM1340.7 619.028V614.643L1355.7 603.863V608.247L1340.7 619.028ZM1376.7 588.028V583.643L1391.7 572.863V577.247L1376.7 588.028ZM1359.2 475.642L1372.2 466.012V470.39L1359.2 480.019V475.642ZM1359.2 606.019V601.642L1372.2 592.012V596.39L1359.2 606.019ZM1395.2 575.019V570.642L1408.2 561.012V565.39L1395.2 575.019ZM1340.7 516.644L1372.2 494.003V498.387L1340.7 521.028V516.644ZM1376.7 485.644L1408.2 463.003V467.387L1376.7 490.028V485.644ZM1340.7 530.644L1372.2 508.003V512.387L1340.7 535.028V530.644ZM1376.7 499.644L1408.2 477.003V481.387L1376.7 504.028V499.644ZM1340.7 544.644L1372.2 522.003V526.387L1340.7 549.028V544.644ZM1376.7 513.644L1408.2 491.003V495.387L1376.7 518.028V513.644ZM1340.7 558.644L1372.2 536.003V540.387L1340.7 563.028V558.644ZM1408.2 509.387L1376.7 532.028V527.644L1408.2 505.003V509.387ZM1340.7 572.644L1372.2 550.003V554.387L1340.7 577.028V572.644ZM1376.7 546.028V541.644L1408.2 519.003V523.387L1376.7 546.028ZM1340.7 586.644L1372.2 564.003V568.387L1340.7 591.028V586.644ZM1376.7 560.028V555.644L1408.2 533.003V537.387L1376.7 560.028ZM1340.7 600.644L1372.2 578.003V582.387L1340.7 605.028V600.644ZM1376.7 574.028V569.644L1408.2 547.003V551.387L1376.7 574.028Z" stroke="white" stroke-width="0.5"/>
<path d="M239.25 437.646V433.268L252.25 442.897V447.275L239.25 437.646ZM255.75 449.503V445.118L270.75 455.899V460.284L255.75 449.503ZM270.75 474.284L239.25 451.643V447.259L270.75 469.9V474.284ZM275.25 478.259L306.75 500.9V505.284L275.25 482.643V478.259ZM291.75 476.118L306.75 486.899V491.284L291.75 480.503V476.118ZM306.75 617.284L291.75 606.503V602.118L306.75 612.899V617.284ZM270.75 581.899V586.284L255.75 575.503V571.118L270.75 581.899ZM288.25 478.275L275.25 468.646V464.268L288.25 473.897V478.275ZM275.25 590.268L288.25 599.897V604.275L275.25 594.646V590.268ZM239.25 563.646V559.268L252.25 568.897V573.275L239.25 563.646ZM275.25 492.259L306.75 514.9V519.284L275.25 496.643V492.259ZM239.25 461.259L270.75 483.9V488.284L239.25 465.643V461.259ZM275.25 506.259L306.75 528.9V533.284L275.25 510.643V506.259ZM239.25 479.643V475.259L270.75 497.9V502.284L239.25 479.643ZM275.25 520.259L306.75 542.9V547.284L275.25 524.643V520.259ZM239.25 493.643V489.259L270.75 511.9V516.284L239.25 493.643ZM275.25 534.259L306.75 556.9V561.284L275.25 538.643V534.259ZM239.25 507.643V503.259L270.75 525.9V530.284L239.25 507.643ZM275.25 548.259L306.75 570.9V575.284L275.25 552.643V548.259ZM239.25 521.643V517.259L270.75 539.9V544.284L239.25 521.643ZM275.25 562.259L306.75 584.9V589.284L275.25 566.643V562.259ZM239.25 535.643V531.259L270.75 553.9V558.284L239.25 535.643ZM275.25 576.259L306.75 598.9V603.284L275.25 580.643V576.259ZM239.25 549.643V545.259L270.75 567.9V572.284L239.25 549.643Z" stroke="white" stroke-width="0.5"/>
<circle cx="1488" cy="140.771" r="103" stroke="white" stroke-width="2"/>
<circle cx="1489.5" cy="84.2715" r="32.5" stroke="white" stroke-width="2"/>
<circle cx="1489.5" cy="200.271" r="32.5" stroke="white" stroke-width="2"/>
<circle cx="1548.5" cy="141.271" r="32.5" stroke="white" stroke-width="2"/>
<circle cx="1431.5" cy="141.271" r="32.5" stroke="white" stroke-width="2"/>
<path d="M1486.41 98.7715V89.9473L1475.81 73.1777H1483.03L1488.94 83.6191C1489.09 83.9004 1489.25 84.2109 1489.41 84.5508C1489.58 84.8906 1489.73 85.2305 1489.87 85.5703H1490.01C1490.15 85.2305 1490.29 84.8906 1490.43 84.5508C1490.58 84.2109 1490.74 83.9004 1490.89 83.6191L1496.88 73.1777H1503.26L1492.95 89.7891V98.7715H1486.41Z" fill="white"/>
<path d="M1474.61 212.771L1485.53 187.09H1492.44L1503.39 212.771H1496.11L1489.62 195.387C1489.41 194.789 1489.22 194.221 1489.04 193.682C1488.87 193.131 1488.71 192.645 1488.57 192.223H1488.43C1488.29 192.645 1488.14 193.137 1487.97 193.699C1487.81 194.25 1487.61 194.812 1487.38 195.387L1480.89 212.771H1474.61ZM1480.24 207.568L1481.71 203.385H1495.79L1497.31 207.568H1480.24Z" fill="white"/>
<path d="M1537.79 154.771V129.178H1549.99C1553.19 129.178 1555.64 129.711 1557.34 130.777C1559.04 131.832 1559.89 133.461 1559.89 135.664C1559.89 137.141 1559.55 138.354 1558.87 139.303C1558.2 140.24 1557.31 140.902 1556.2 141.289V141.359C1557.65 141.699 1558.79 142.391 1559.63 143.434C1560.47 144.465 1560.89 145.865 1560.89 147.635C1560.89 149.967 1559.95 151.742 1558.06 152.961C1556.18 154.168 1553.66 154.771 1550.52 154.771H1537.79ZM1544.23 150.834H1549.62C1551.21 150.834 1552.38 150.518 1553.16 149.885C1553.94 149.24 1554.34 148.285 1554.34 147.02C1554.34 145.812 1553.94 144.893 1553.16 144.26C1552.38 143.627 1551.21 143.311 1549.62 143.311H1544.23V150.834ZM1544.23 139.971H1549.12C1550.65 139.971 1551.77 139.689 1552.47 139.127C1553.19 138.553 1553.54 137.715 1553.54 136.613C1553.54 135.488 1553.19 134.645 1552.49 134.082C1551.79 133.52 1550.66 133.238 1549.12 133.238H1544.23V139.971Z" fill="white"/>
<path d="M1418.91 154.771L1429.53 140.322H1430.94L1438.32 129.178H1444.58L1434.8 143.135L1433.38 143.152L1425.35 154.771H1418.91ZM1419.11 129.178H1426.84L1434.45 140.164H1434.54L1445.42 154.771H1437.54L1429.48 143.311L1429.44 143.293L1419.11 129.178Z" fill="white"/>
<rect x="312.472" y="127.859" width="11.037" height="7.42558" stroke="white" stroke-width="1.58365"/>
<path fill-rule="evenodd" clip-rule="evenodd" d="M307.584 123.584H317.037V125.942H318.621V123.584V122H317.037H307.584H306V123.584V129.426V131.009H307.584H310.417V129.426H307.584V123.584Z" fill="white"/>
<path fill-rule="evenodd" clip-rule="evenodd" d="M1325 123H1340V124.714H1325V123ZM1325 128.143H1340V129.857H1325V128.143ZM1340 133.286H1325V135H1340V133.286Z" fill="white"/>
</svg>
