<svg width="1640" height="243" viewBox="0 0 1640 243" fill="none" xmlns="http://www.w3.org/2000/svg">
<path d="M269.571 125.008H1370.43M1079.42 106.774H559.623M289.195 172.991H336.101M1350.8 172.991H1303.42M1303.42 172.991V190.745M1303.42 172.991H336.101M336.101 172.991V191.225M72.8532 23.2817C23.0754 59.2696 11.5882 99.0963 8.7164 110.133C5.8446 121.169 16.3745 125.008 20.2036 125.008C23.2668 125.008 43.6566 125.008 46.0498 125.008M1576.24 32.3987C1600.17 51.5922 1626.97 92.3785 1630.8 108.693C1634.63 125.008 1623.15 125.008 1618.36 125.008C1614.53 125.008 1600.17 125.008 1593.47 125.008" stroke="white" stroke-width="0.957266"/>
<path d="M184.375 211.378H174.803V192.185H290.632C301.353 192.185 301.481 204.981 300.205 211.378H290.632V205.62H257.128V211.378H215.965V205.62H184.375V211.378Z" stroke="white" stroke-width="1.91453"/>
<path d="M259.043 25.2012L203.521 31.9189L250.906 57.8302H301.163V46.7939L259.043 25.2012Z" stroke="white" stroke-width="2.8718"/>
<path d="M1380.96 25.2012L1436.48 31.9189L1389.09 57.8302H1338.84V46.7939L1380.96 25.2012Z" stroke="white" stroke-width="2.8718"/>
<path d="M254.257 39.116L203.521 31.9185L250.906 57.8297H301.163V46.7935L254.257 39.116Z" stroke="white" stroke-width="2.8718"/>
<path d="M1385.74 39.116L1436.48 31.9185L1389.09 57.8297H1338.84V46.7935L1385.74 39.116Z" stroke="white" stroke-width="2.8718"/>
<path d="M785.537 67.4273H1365.64C1370.86 67.4273 1386.58 58.9324 1406.58 48.118C1441.62 29.18 1489.82 3.12891 1517.85 3.12891C1561.88 3.12891 1596.82 48.7136 1604.96 86.141C1613.09 123.568 1605.91 172.032 1602.09 180.189C1598.26 188.347 1592.51 191.226 1511.15 191.226H853.982V191.706H128.374C47.0068 191.706 41.2634 188.826 37.4343 180.669C33.6053 172.512 26.4258 124.048 34.5625 86.6208C42.6993 49.1934 77.6395 3.60874 121.674 3.60874C149.702 3.60874 197.899 29.6598 232.936 48.5978C252.944 59.4122 268.66 67.9071 273.879 67.9071H785.537V67.4273Z" stroke="white" stroke-width="2.8718"/>
<path d="M273.871 67.4273H1366.13C1371.35 67.4273 1387.06 58.9324 1407.07 48.118C1442.11 29.18 1490.31 3.12891 1518.33 3.12891C1577.2 3.12891 1630.31 54.9515 1637.51 88.0604C1646.89 131.246 1609.11 175.871 1605.93 179.23C1596.35 189.306 1593 191.226 1511.63 191.226H128.366C46.9983 191.226 43.6474 189.306 34.0748 179.23C30.8852 175.871 -6.89295 131.246 2.49459 88.0604C9.69169 54.9515 62.8023 3.12891 121.665 3.12891C149.694 3.12891 197.891 29.18 232.928 48.118C252.935 58.9324 268.652 67.4273 273.871 67.4273Z" stroke="white" stroke-width="2"/>
<path d="M273.879 67.4273H1366.12C1371.34 67.4273 1387.05 58.9324 1407.06 48.118C1442.1 29.18 1490.3 3.12891 1518.32 3.12891C1562.36 3.12891 1597.3 48.7136 1605.44 86.141C1613.57 123.568 1606.39 172.032 1602.56 180.189C1598.73 188.347 1592.99 191.226 1511.62 191.226H128.374C47.0068 191.226 41.2634 188.347 37.4343 180.189C33.6053 172.032 26.4258 123.568 34.5625 86.141C42.6993 48.7136 77.6395 3.12891 121.674 3.12891C149.702 3.12891 197.899 29.18 232.936 48.118C252.944 58.9324 268.66 67.4273 273.879 67.4273Z" stroke="white" stroke-width="6"/>
<path d="M294.46 67.4273H1345.54C1348.9 67.4273 1361.22 58.4801 1374.94 48.5208C1382.53 43.0084 1390.55 37.186 1397.71 32.3991C1430.73 10.3265 1442.22 3.12891 1518.32 3.12891C1562.36 3.12891 1597.3 48.7136 1605.44 86.141C1613.57 123.568 1606.39 172.032 1602.56 180.189C1598.73 188.347 1592.99 191.226 1511.62 191.226H128.374C47.0068 191.226 41.2634 188.347 37.4343 180.189C33.6053 172.032 26.4258 123.568 34.5625 86.141C42.6993 48.7136 77.6395 3.12891 121.674 3.12891C197.776 3.12891 209.263 10.3265 242.289 32.3991C249.451 37.186 257.47 43.0084 265.062 48.5208C278.778 58.4801 291.1 67.4273 294.46 67.4273Z" stroke="white" stroke-width="0.957266"/>
<path d="M269.572 116.85L286.324 86.6206H311.213L293.983 116.85H269.572Z" stroke="white" stroke-width="0.957266"/>
<path d="M305.948 116.85L322.701 86.6206H350.461L333.23 116.85H305.948Z" stroke="white" stroke-width="0.957266"/>
<path d="M361.948 86.6206L345.196 116.85H375.35L392.581 86.6206H361.948Z" stroke="white" stroke-width="0.957266"/>
<path d="M385.401 116.85L402.154 86.6206H434.701L417.47 116.85H385.401Z" stroke="white" stroke-width="0.957266"/>
<path d="M444.273 86.6206L427.521 116.85H462.461L479.692 86.6206H444.273Z" stroke="white" stroke-width="0.957266"/>
<path d="M472.513 116.85L489.265 86.6206H525.162L507.932 116.85H472.513Z" stroke="white" stroke-width="0.957266"/>
<path d="M534.256 86.6206L517.504 116.85H553.402L570.632 86.6206H534.256Z" stroke="white" stroke-width="0.957266"/>
<path d="M1368.99 116.85L1352.24 86.6206H1327.35L1344.58 116.85H1368.99Z" stroke="white"/>
<path d="M1332.62 116.85L1315.86 86.6206H1288.1L1305.33 116.85H1332.62Z" stroke="white"/>
<path d="M1276.62 86.6206L1293.37 116.85H1263.21L1245.98 86.6206H1276.62Z" stroke="white"/>
<path d="M1253.16 116.85L1236.41 86.6206H1203.86L1221.09 116.85H1253.16Z" stroke="white"/>
<path d="M1194.29 86.6206L1211.04 116.85H1176.1L1158.87 86.6206H1194.29Z" stroke="white"/>
<path d="M1166.05 116.85L1149.3 86.6206H1113.4L1130.63 116.85H1166.05Z" stroke="white"/>
<path d="M1104.31 86.6206L1121.06 116.85H1085.16L1067.93 86.6206H1104.31Z" stroke="white"/>
<path d="M1312.51 191.703H1345.06V197.955C1345.06 200.334 1343.13 202.262 1340.75 202.262H1316.82C1314.44 202.262 1312.51 200.334 1312.51 197.955V191.703Z" stroke="white" stroke-width="0.957266"/>
<path d="M294.94 191.703H327.487V197.955C327.487 200.334 325.558 202.262 323.179 202.262H299.247C296.868 202.262 294.94 200.334 294.94 197.955V191.703Z" stroke="white" stroke-width="0.957266"/>
<path d="M1407.01 201.074C1369.91 200.73 1340.25 196.505 1337.88 191.225C1350.88 192.17 1370.72 192.46 1402.33 192.46H1405.85V197.943C1405.85 199.14 1406.28 200.234 1407.01 201.074Z" fill="white"/>
<path d="M1463.28 198.158C1463.28 198.158 1463.28 198.157 1463.29 198.157C1463.28 198.086 1463.28 198.014 1463.28 197.943C1463.28 198.015 1463.28 198.087 1463.28 198.158Z" fill="white"/>
<path d="M1521.2 191.703H1577.68V197.955C1577.68 200.334 1575.75 202.262 1573.37 202.262H1525.51C1523.13 202.262 1521.2 200.334 1521.2 197.955V191.703Z" stroke="white" stroke-width="0.957266"/>
<path d="M1463.76 191.703H1520.24V197.955C1520.24 200.334 1518.31 202.262 1515.93 202.262H1468.07C1465.69 202.262 1463.76 200.334 1463.76 197.955V191.703Z" stroke="white" stroke-width="0.957266"/>
<path d="M1406.33 191.703H1462.8V197.955C1462.8 200.334 1460.88 202.262 1458.5 202.262H1410.63C1408.25 202.262 1406.33 200.334 1406.33 197.955V191.703Z" stroke="white" stroke-width="0.957266"/>
<rect x="1142.12" y="130.284" width="80.4103" height="36.4701" rx="9.09403" stroke="white" stroke-width="0.957266"/>
<rect x="836.752" y="130.284" width="65.0941" height="29.7524" rx="9.09403" stroke="white" stroke-width="0.957266"/>
<rect x="920.035" y="130.284" width="65.0941" height="29.7524" rx="9.09403" stroke="white" stroke-width="0.957266"/>
<path fill-rule="evenodd" clip-rule="evenodd" d="M63.9121 191.225C66.3912 196.736 98.5901 201.097 137.947 201.097C174.312 201.097 204.566 197.374 210.911 192.461H128.365C96.7496 192.461 76.9124 192.171 63.9121 191.225Z" fill="white"/>
<path d="M63.9121 191.225L63.9815 190.271L62.3806 190.154L63.0391 191.618L63.9121 191.225ZM210.911 192.461L211.497 193.217L213.71 191.503H210.911V192.461ZM137.947 200.14C118.299 200.14 100.454 199.051 87.2274 197.279C80.6099 196.393 75.1781 195.339 71.2641 194.175C69.3047 193.593 67.7596 192.993 66.6465 192.39C65.4974 191.768 64.9611 191.224 64.7851 190.833L63.0391 191.618C63.4829 192.605 64.4951 193.402 65.7351 194.074C67.0111 194.764 68.6958 195.409 70.7186 196.01C74.7691 197.215 80.3116 198.284 86.9732 199.177C100.305 200.963 118.238 202.054 137.947 202.054V200.14ZM210.325 191.704C208.916 192.795 206.017 193.913 201.722 194.953C197.475 195.981 192.003 196.901 185.573 197.671C172.716 199.21 156.101 200.14 137.947 200.14V202.054C156.158 202.054 172.852 201.122 185.801 199.572C192.273 198.797 197.826 197.865 202.173 196.813C206.471 195.773 209.734 194.583 211.497 193.217L210.325 191.704ZM210.911 191.503H128.365V193.418H210.911V191.503ZM128.365 191.503C96.7436 191.503 76.9413 191.213 63.9815 190.271L63.8427 192.18C76.8834 193.128 96.7555 193.418 128.365 193.418V191.503Z" fill="white"/>
<path d="M98.8201 241.129C93.6991 241.129 90.5626 233.228 90.5625 229.551C90.5624 225.928 90.6266 223.014 95.5556 219.864C100.485 216.714 104.261 215.217 112.647 215.217C116.362 215.217 119.449 215.341 122.888 215.479C127.003 215.644 131.623 215.829 138.426 215.846C145.229 215.829 149.848 215.644 153.964 215.479C157.402 215.341 160.489 215.217 164.205 215.217C172.59 215.217 176.367 216.714 181.296 219.864C186.225 223.014 186.289 225.928 186.289 229.551C186.289 233.228 183.153 241.129 178.032 241.129H98.8201Z" stroke="white" stroke-width="1.91453"/>
<path d="M1372.79 241.129C1367.67 241.129 1364.53 233.228 1364.53 229.551C1364.53 225.928 1364.6 223.014 1369.52 219.864C1374.45 216.714 1378.23 215.217 1386.62 215.217C1390.33 215.217 1393.42 215.341 1396.86 215.479C1400.97 215.644 1405.59 215.829 1412.39 215.846C1419.2 215.829 1423.82 215.644 1427.93 215.479C1431.37 215.341 1434.46 215.217 1438.17 215.217C1446.56 215.217 1450.34 216.714 1455.26 219.864C1460.19 223.014 1460.26 225.928 1460.26 229.551C1460.26 233.228 1457.12 241.129 1452 241.129H1372.79Z" stroke="white" stroke-width="1.91453"/>
<mask id="path-26-outside-1_657_29711" maskUnits="userSpaceOnUse" x="107.709" y="198.782" width="62" height="18" fill="black">
<rect fill="white" x="107.709" y="198.782" width="62" height="18"/>
<path fill-rule="evenodd" clip-rule="evenodd" d="M137.948 202.631C127.95 202.631 118.413 202.35 109.709 201.84V214.328C110.624 214.281 111.6 214.258 112.648 214.258C116.363 214.258 119.45 214.381 122.889 214.519L122.889 214.519C125.781 214.635 128.921 214.761 132.894 214.831H143.959C147.932 214.761 151.073 214.635 153.965 214.519L153.965 214.519C157.403 214.381 160.49 214.258 164.206 214.258C165.254 214.258 166.23 214.281 167.145 214.328V201.782C158.185 202.327 148.315 202.631 137.948 202.631Z"/>
</mask>
<path d="M109.709 201.84L109.821 199.929L107.794 199.81V201.84H109.709ZM109.709 214.328H107.794V216.343L109.807 216.24L109.709 214.328ZM122.889 214.519L122.997 212.608L122.981 212.607L122.965 212.606L122.889 214.519ZM122.889 214.519L122.78 216.431L122.796 216.431L122.812 216.432L122.889 214.519ZM132.894 214.831L132.86 216.746L132.877 216.746H132.894V214.831ZM143.959 214.831V216.746H143.976L143.993 216.746L143.959 214.831ZM153.965 214.519L154.041 216.432L154.051 216.432L154.06 216.431L153.965 214.519ZM153.965 214.519L153.888 212.606L153.879 212.606L153.869 212.607L153.965 214.519ZM167.145 214.328L167.047 216.24L169.059 216.344V214.328H167.145ZM167.145 201.782H169.059V199.747L167.029 199.871L167.145 201.782ZM109.597 203.751C118.341 204.263 127.915 204.546 137.948 204.546V200.717C127.985 200.717 118.486 200.436 109.821 199.929L109.597 203.751ZM111.624 214.328V201.84H107.794V214.328H111.624ZM109.807 216.24C110.685 216.195 111.628 216.172 112.648 216.172V212.343C111.572 212.343 110.563 212.367 109.611 212.416L109.807 216.24ZM112.648 216.172C116.32 216.172 119.371 216.294 122.812 216.432L122.965 212.606C119.529 212.468 116.406 212.343 112.648 212.343V216.172ZM122.78 216.431L122.78 216.431L122.997 212.608L122.997 212.608L122.78 216.431ZM122.812 216.432C125.705 216.548 128.864 216.675 132.86 216.746L132.928 212.917C128.979 212.847 125.857 212.722 122.965 212.606L122.812 216.432ZM143.959 212.917H132.894V216.746H143.959V212.917ZM143.993 216.746C147.989 216.675 151.149 216.548 154.041 216.432L153.888 212.606C150.997 212.722 147.875 212.847 143.925 212.917L143.993 216.746ZM154.06 216.431L154.06 216.431L153.869 212.607L153.869 212.607L154.06 216.431ZM154.041 216.432C157.482 216.294 160.533 216.172 164.206 216.172V212.343C160.447 212.343 157.325 212.468 153.888 212.606L154.041 216.432ZM164.206 216.172C165.225 216.172 166.168 216.195 167.047 216.24L167.243 212.416C166.291 212.367 165.282 212.343 164.206 212.343V216.172ZM165.23 201.782V214.328H169.059V201.782H165.23ZM137.948 204.546C148.351 204.546 158.26 204.241 167.261 203.693L167.029 199.871C158.109 200.414 148.278 200.717 137.948 200.717V204.546Z" fill="white" mask="url(#path-26-outside-1_657_29711)"/>
<mask id="path-28-outside-2_657_29711" maskUnits="userSpaceOnUse" x="1381.68" y="198.782" width="62" height="18" fill="black">
<rect fill="white" x="1381.68" y="198.782" width="62" height="18"/>
<path fill-rule="evenodd" clip-rule="evenodd" d="M1411.92 202.631C1401.92 202.631 1392.38 202.35 1383.68 201.84V214.328C1384.59 214.281 1385.57 214.258 1386.62 214.258C1390.33 214.258 1393.42 214.381 1396.86 214.519L1396.86 214.519C1399.75 214.635 1402.89 214.761 1406.86 214.831H1417.93C1421.9 214.761 1425.04 214.635 1427.93 214.519L1427.93 214.519C1431.37 214.381 1434.46 214.258 1438.17 214.258C1439.22 214.258 1440.2 214.281 1441.11 214.328V201.782C1432.15 202.327 1422.28 202.631 1411.92 202.631Z"/>
</mask>
<path d="M1383.68 201.84L1383.79 199.929L1381.76 199.81V201.84H1383.68ZM1383.68 214.328H1381.76V216.343L1383.78 216.24L1383.68 214.328ZM1396.86 214.519L1396.97 212.608L1396.95 212.607L1396.93 212.606L1396.86 214.519ZM1396.86 214.519L1396.75 216.431L1396.76 216.431L1396.78 216.432L1396.86 214.519ZM1406.86 214.831L1406.83 216.746L1406.85 216.746H1406.86V214.831ZM1417.93 214.831V216.746H1417.95L1417.96 216.746L1417.93 214.831ZM1427.93 214.519L1428.01 216.432L1428.03 216.431L1428.05 216.43L1427.93 214.519ZM1427.93 214.519L1427.86 212.606L1427.84 212.607L1427.81 212.608L1427.93 214.519ZM1441.11 214.328L1441.02 216.24L1443.03 216.344V214.328H1441.11ZM1441.11 201.782H1443.03V199.747L1441 199.871L1441.11 201.782ZM1383.57 203.751C1392.31 204.263 1401.88 204.546 1411.92 204.546V200.717C1401.95 200.717 1392.45 200.436 1383.79 199.929L1383.57 203.751ZM1385.59 214.328V201.84H1381.76V214.328H1385.59ZM1383.78 216.24C1384.65 216.195 1385.6 216.172 1386.62 216.172V212.343C1385.54 212.343 1384.53 212.367 1383.58 212.416L1383.78 216.24ZM1386.62 216.172C1390.29 216.172 1393.34 216.294 1396.78 216.432L1396.93 212.606C1393.5 212.468 1390.37 212.343 1386.62 212.343V216.172ZM1396.75 216.431L1396.75 216.431L1396.97 212.608L1396.97 212.608L1396.75 216.431ZM1396.78 216.432C1399.67 216.548 1402.83 216.675 1406.83 216.746L1406.9 212.917C1402.95 212.847 1399.83 212.722 1396.93 212.606L1396.78 216.432ZM1417.93 212.917H1406.86V216.746H1417.93V212.917ZM1417.96 216.746C1421.96 216.675 1425.12 216.548 1428.01 216.432L1427.86 212.606C1424.97 212.722 1421.84 212.847 1417.89 212.917L1417.96 216.746ZM1428.05 216.43L1428.05 216.43L1427.81 212.608L1427.81 212.608L1428.05 216.43ZM1428.01 216.432C1431.45 216.294 1434.5 216.172 1438.17 216.172V212.343C1434.42 212.343 1431.29 212.468 1427.86 212.606L1428.01 216.432ZM1438.17 216.172C1439.19 216.172 1440.14 216.195 1441.02 216.24L1441.21 212.416C1440.26 212.367 1439.25 212.343 1438.17 212.343V216.172ZM1439.2 201.782V214.328H1443.03V201.782H1439.2ZM1411.92 204.546C1422.32 204.546 1432.23 204.241 1441.23 203.693L1441 199.871C1432.08 200.414 1422.25 200.717 1411.92 200.717V204.546Z" fill="white" mask="url(#path-28-outside-2_657_29711)"/>
<path d="M411.247 146.121C411.247 153.544 405.245 159.558 397.845 159.558C390.446 159.558 384.444 153.544 384.444 146.121C384.444 138.697 390.446 132.683 397.845 132.683C405.245 132.683 411.247 138.697 411.247 146.121Z" stroke="white" stroke-width="1.91453"/>
<path d="M403.11 146.121C403.11 149.037 400.752 151.4 397.845 151.4C394.939 151.4 392.58 149.037 392.58 146.121C392.58 143.204 394.939 140.841 397.845 140.841C400.752 140.841 403.11 143.204 403.11 146.121Z" stroke="white" stroke-width="0.957266"/>
<rect x="453.846" y="132.204" width="68.9231" height="27.8331" rx="10.0513" stroke="white" stroke-width="0.957266"/>
<rect x="564.889" y="132.204" width="226.872" height="27.8331" rx="7.1795" stroke="white" stroke-width="0.957266"/>
<rect x="453.846" y="140.841" width="68.9231" height="10.5589" stroke="white" stroke-width="0.957266"/>
<path d="M1373.29 180.223H1552.76C1571.71 180.223 1581.19 180.223 1587.26 174.561C1587.61 174.229 1587.96 173.885 1588.29 173.53C1593.95 167.462 1593.95 157.985 1593.95 139.032C1593.95 128.694 1593.95 123.525 1590.86 120.215C1590.68 120.021 1590.49 119.833 1590.3 119.652C1586.99 116.564 1581.82 116.564 1571.48 116.564H1388.4C1383.78 116.564 1381.47 116.564 1379.39 117.413C1377.31 118.262 1375.65 119.876 1372.35 123.104L1349.03 145.878L1349.03 145.878C1345.8 149.037 1344.18 150.616 1343.31 152.369C1341.88 155.262 1341.73 158.625 1342.9 161.633C1343.61 163.457 1345.08 165.173 1348.02 168.604C1351.04 172.128 1352.56 173.89 1354.3 175.271C1357.17 177.541 1360.55 179.092 1364.14 179.795C1366.32 180.223 1368.64 180.223 1373.29 180.223Z" stroke="white" stroke-width="3"/>
<path d="M1382.86 180.223H1552.76C1571.71 180.223 1581.19 180.223 1587.26 174.561C1587.61 174.229 1587.96 173.885 1588.29 173.53C1593.95 167.462 1593.95 157.985 1593.95 139.032C1593.95 128.694 1593.95 123.525 1590.86 120.215C1590.68 120.021 1590.49 119.833 1590.3 119.652C1586.99 116.564 1581.82 116.564 1571.48 116.564H1397.97C1393.35 116.564 1391.04 116.564 1388.96 117.413C1386.88 118.262 1385.23 119.876 1381.92 123.104L1358.6 145.878C1355.37 149.037 1353.75 150.616 1352.89 152.369C1351.45 155.262 1351.3 158.625 1352.48 161.633C1353.18 163.457 1354.66 165.173 1357.6 168.604L1357.6 168.605C1360.62 172.128 1362.13 173.89 1363.87 175.271C1366.75 177.541 1370.12 179.092 1373.71 179.795C1375.9 180.223 1378.22 180.223 1382.86 180.223Z" stroke="white" stroke-width="3"/>
<path d="M1410.71 180.223H1552.76C1571.71 180.223 1581.19 180.223 1587.26 174.561C1587.61 174.229 1587.96 173.885 1588.29 173.53C1593.95 167.462 1593.95 157.985 1593.95 139.032C1593.95 128.694 1593.95 123.525 1590.86 120.215C1590.68 120.021 1590.49 119.833 1590.3 119.652C1586.99 116.564 1581.82 116.564 1571.48 116.564H1419.99C1415.37 116.564 1413.06 116.564 1410.98 117.413C1408.89 118.262 1407.24 119.876 1403.94 123.104L1375.89 150.502C1372.85 153.473 1371.33 154.958 1371.24 156.848C1371.16 158.738 1372.54 160.352 1375.31 163.58L1375.82 164.177C1382.59 172.072 1385.97 176.019 1390.54 178.121C1395.11 180.223 1400.31 180.223 1410.71 180.223Z" stroke="white" stroke-width="0.957266"/>
<path d="M1560.92 159.283V143.59L1556.2 145.357V142.36L1562.61 140.018H1564.45V159.283H1560.92Z" fill="white"/>
<path d="M1540.14 159.283V140.227H1546.86C1548.91 140.227 1550.49 140.755 1551.63 141.811C1552.76 142.858 1553.33 144.28 1553.33 146.077C1553.33 147.892 1552.75 149.345 1551.6 150.435C1550.45 151.517 1548.86 152.058 1546.84 152.058H1543.67V159.283H1540.14ZM1543.67 149.48H1546.56C1547.76 149.48 1548.6 149.17 1549.08 148.551C1549.56 147.931 1549.8 147.133 1549.8 146.156C1549.8 145.179 1549.56 144.389 1549.08 143.787C1548.6 143.185 1547.76 142.884 1546.56 142.884H1543.67V149.48ZM1550.29 159.283L1545.97 150.592L1549.49 150.161L1554.22 159.283H1550.29Z" fill="white"/>
<path d="M1518.33 11.2656C1551.32 11.2656 1584.17 44.6298 1592.13 93.6804C1593.73 103.546 1594.53 108.478 1591.09 112.522C1587.65 116.565 1582.09 116.565 1570.97 116.565H1403.73C1396.58 116.565 1393.01 116.565 1391.98 114.343C1390.95 112.122 1393.27 109.398 1397.9 103.948L1433.13 62.4794C1445.73 45.4081 1480.42 11.2656 1518.33 11.2656Z" stroke="white" stroke-width="3"/>
<path d="M1521.91 10.7871C1539.21 10.7871 1576.28 44.1685 1585.58 93.2399C1587.41 102.925 1588.33 107.767 1584.88 111.927C1581.44 116.086 1575.88 116.086 1564.75 116.086H1423.95C1416.94 116.086 1413.43 116.086 1412.39 113.895C1411.36 111.703 1413.58 108.992 1418.03 103.571L1453.71 60.0863C1469.03 41.4196 1502.03 10.7871 1521.91 10.7871Z" stroke="white" stroke-width="0.957266"/>
<path d="M1555.33 91.1961V88.945L1561.93 81.5897C1562.66 80.7696 1563.24 80.0105 1563.67 79.3125C1564.09 78.6058 1564.31 77.8729 1564.31 77.1138C1564.31 76.3111 1564.08 75.6698 1563.61 75.1899C1563.16 74.7013 1562.52 74.457 1561.7 74.457C1560.87 74.457 1560.19 74.7318 1559.66 75.2815C1559.13 75.8225 1558.86 76.6732 1558.86 77.8336V78.1739H1555.3V77.6635C1555.3 75.9184 1555.9 74.505 1557.08 73.4231C1558.27 72.3324 1559.81 71.7871 1561.72 71.7871C1563.69 71.7871 1565.21 72.2757 1566.27 73.2529C1567.34 74.2214 1567.88 75.456 1567.88 76.9567C1567.88 78.187 1567.57 79.2863 1566.95 80.2548C1566.33 81.2233 1565.54 82.2354 1564.57 83.2911L1560.08 88.356H1568.32V91.1961H1555.33Z" fill="white"/>
<path d="M1540.13 91.1962V72.1406H1546.86C1548.9 72.1406 1550.49 72.6685 1551.63 73.7242C1552.76 74.7712 1553.33 76.1934 1553.33 77.9908C1553.33 79.8056 1552.75 81.2583 1551.6 82.349C1550.45 83.4309 1548.86 83.9718 1546.84 83.9718H1543.67V91.1962H1540.13ZM1543.67 81.3936H1546.56C1547.76 81.3936 1548.59 81.0838 1549.07 80.4644C1549.55 79.8449 1549.79 79.0465 1549.79 78.0693C1549.79 77.0921 1549.55 76.3025 1549.07 75.7005C1548.59 75.0984 1547.76 74.7974 1546.56 74.7974H1543.67V81.3936ZM1550.29 91.1962L1545.97 82.506L1549.49 82.0741L1554.22 91.1962H1550.29Z" fill="white"/>
<path d="M266.715 180.223H87.2414C68.2883 180.223 58.8118 180.223 52.7439 174.561C52.3882 174.229 52.044 173.885 51.7121 173.53C46.0508 167.462 46.0508 157.985 46.0508 139.032C46.0508 128.694 46.0508 123.525 49.1388 120.215C49.3198 120.021 49.5075 119.833 49.7016 119.652C53.0113 116.564 58.1804 116.564 68.5184 116.564H251.599C256.218 116.564 258.528 116.564 260.611 117.413C262.695 118.262 264.347 119.876 267.652 123.104L290.969 145.878L290.969 145.878C294.202 149.037 295.819 150.616 296.687 152.369C298.12 155.262 298.269 158.625 297.098 161.633C296.388 163.457 294.917 165.173 291.975 168.604C288.955 172.128 287.445 173.89 285.699 175.271C282.827 177.541 279.454 179.092 275.861 179.795C273.676 180.223 271.356 180.223 266.715 180.223Z" stroke="white" stroke-width="3"/>
<path d="M257.142 180.223H87.2414C68.2883 180.223 58.8118 180.223 52.7439 174.561C52.3882 174.229 52.044 173.885 51.7121 173.53C46.0508 167.462 46.0508 157.985 46.0508 139.032C46.0508 128.694 46.0508 123.525 49.1388 120.215C49.3198 120.021 49.5075 119.833 49.7016 119.652C53.0113 116.564 58.1804 116.564 68.5184 116.564H242.026C246.645 116.564 248.955 116.564 251.039 117.413C253.122 118.262 254.775 119.876 258.079 123.104L281.396 145.878C284.63 149.037 286.246 150.616 287.114 152.369C288.547 155.262 288.696 158.625 287.525 161.633C286.815 163.457 285.344 165.173 282.403 168.604L282.402 168.605C279.382 172.128 277.872 173.89 276.126 175.271C273.254 177.541 269.881 179.092 266.288 179.795C264.104 180.223 261.783 180.223 257.142 180.223Z" stroke="white" stroke-width="3"/>
<path d="M229.294 180.223H87.2414C68.2883 180.223 58.8118 180.223 52.7439 174.561C52.3882 174.229 52.044 173.885 51.7121 173.53C46.0508 167.462 46.0508 157.985 46.0508 139.032C46.0508 128.694 46.0508 123.525 49.1388 120.215C49.3198 120.021 49.5075 119.833 49.7016 119.652C53.0113 116.564 58.1804 116.564 68.5184 116.564H220.009C224.628 116.564 226.938 116.564 229.021 117.413C231.105 118.262 232.757 119.876 236.062 123.104L264.113 150.502C267.154 153.473 268.675 154.958 268.759 156.848C268.842 158.738 267.459 160.352 264.692 163.58L264.181 164.177C257.414 172.072 254.03 176.019 249.46 178.121C244.89 180.223 239.692 180.223 229.294 180.223Z" stroke="white" stroke-width="0.957266"/>
<path d="M101.893 159.283V143.59L97.168 145.357V142.36L103.581 140.018H105.426V159.283H101.893Z" fill="white"/>
<path d="M83.1777 159.282V140.227H86.7114V156.508H94.8912V159.282H83.1777Z" fill="white"/>
<path d="M121.675 11.2656C88.6779 11.2656 55.8262 44.6298 47.8681 93.6804C46.2676 103.546 45.4673 108.478 48.9075 112.522C52.3477 116.565 57.9068 116.565 69.0252 116.565H236.266C243.416 116.565 246.991 116.565 248.018 114.343C249.046 112.122 246.731 109.398 242.102 103.948L206.871 62.4794C194.267 45.4081 159.583 11.2656 121.675 11.2656Z" stroke="white" stroke-width="3"/>
<path d="M118.094 10.7871C100.792 10.7871 63.7218 44.1685 54.4231 93.2399C52.5878 102.925 51.6702 107.767 55.1156 111.927C58.561 116.086 64.1233 116.086 75.2478 116.086H216.05C223.063 116.086 226.569 116.086 227.606 113.895C228.643 111.703 226.419 108.992 221.97 103.571L186.291 60.0863C170.974 41.4196 137.966 10.7871 118.094 10.7871Z" stroke="white" stroke-width="0.957266"/>
<path d="M92.4324 91.4597V89.2087L99.0286 81.8534C99.7615 81.0333 100.342 80.2742 100.769 79.5762C101.197 78.8694 101.411 78.1365 101.411 77.3774C101.411 76.5747 101.179 75.9334 100.717 75.4536C100.263 74.965 99.6263 74.7207 98.8061 74.7207C97.9772 74.7207 97.2967 74.9955 96.7644 75.5452C96.2322 76.0861 95.9661 76.9368 95.9661 78.0973V78.4375H92.4062V77.9271C92.4062 76.1821 92.9996 74.7686 94.1862 73.6867C95.3728 72.5961 96.9171 72.0508 98.8192 72.0508C100.791 72.0508 102.309 72.5394 103.374 73.5166C104.447 74.4851 104.983 75.7197 104.983 77.2204C104.983 78.4506 104.674 79.55 104.054 80.5185C103.435 81.487 102.641 82.4991 101.672 83.5548L97.1832 88.6197H105.428V91.4597H92.4324Z" fill="white"/>
<path d="M79.3047 91.4599V72.4043H82.8383V88.6853H91.0181V91.4599H79.3047Z" fill="white"/>
</svg>
