<svg width="1646" height="690" viewBox="0 0 1646 690" fill="none" xmlns="http://www.w3.org/2000/svg">
<path opacity="0.2" d="M34 113C74.8 113 201.667 82.3333 260 67H1385C1443.33 82.3333 1570.2 113 1611 113C1610.13 107.812 1609.38 104.861 1602.5 99C1593.5 99 1563.6 95.6 1506 86C1448.4 76.4 1392.67 58 1372 50H273C252.333 58 196.6 76.4 139 86C81.4 95.6 51.5 99 42.5 99C35.6211 104.861 34.8718 107.812 34 113Z" stroke="white"/>
<path opacity="0.2" d="M817.522 25.5C817.775 22.6968 820.131 20.5 823 20.5H869C871.869 20.5 874.225 22.6968 874.478 25.5H817.522Z" stroke="white"/>
<path opacity="0.2" d="M896.522 25.5C896.775 22.6968 899.131 20.5 902 20.5H948C950.869 20.5 953.225 22.6968 953.478 25.5H896.522Z" stroke="white"/>
<g opacity="0.2">
<path d="M238.925 3.86462C238.95 3.86462 238.975 3.86462 239 3.86462C264.746 3.86462 277.433 6.25332 283.657 9.27639C286.709 10.7589 288.088 12.3381 288.761 13.7625C289.454 15.2322 289.5 16.7352 289.5 18.3646C289.5 21.1402 288.348 23.2051 286.521 24.6145C284.654 26.0548 282 26.8646 279 26.8646H222.574C223.224 24.6406 224.408 22.5266 226.503 20.6525C229.174 18.2638 233.443 16.1615 240.285 14.8373L241.5 14.6021V13.3646C241.5 10.0216 240.998 6.80094 239.358 4.43569C239.22 4.2376 239.076 4.0472 238.925 3.86462Z" stroke="white" stroke-width="3"/>
<path d="M218.937 47C226.437 42 209.437 19.7396 240.437 13.7396C240.437 7.23965 238.437 2.37502 231.437 2.73964C221.626 2.73964 219.306 2.55818 208.891 2.37502C164.632 1.59673 118.626 0.787729 102.436 13.7396C82.4365 29.7396 65.9365 47.7402 63.9365 54.7402C63.4538 56.4296 62.5343 58.9052 61.4872 61.7244C58.1956 70.5867 53.6432 82.8436 57.4365 84.7402C62.4365 87.2402 70.9365 87 77.4365 87C86.4365 87.101 142.437 80.5 161.437 73C189.517 63.9334 202.026 58.4693 218.937 47Z" stroke="white" stroke-width="3"/>
<path d="M218.937 47C226.437 42 209.437 19.7396 240.437 13.7396C240.437 7.23965 238.437 2.37502 231.437 2.73964C221.626 2.73964 219.306 2.55818 208.891 2.37502C164.632 1.59673 118.626 0.787729 102.436 13.7396C82.4365 29.7396 65.9365 47.7402 63.9365 54.7402C63.4538 56.4296 62.5343 58.9052 61.4872 61.7244C58.1956 70.5867 53.6432 82.8436 57.4365 84.7402C57.4365 84.7402 63.9365 70.5 74 61.7244C84.0635 52.9488 99.4365 47 151 47C177.5 47 202.026 58.4693 218.937 47Z" stroke="white"/>
<path d="M218.937 46.9598C226.437 41.9598 209.437 19.6994 240.437 13.6994C240.437 7.19943 238.437 2.33481 231.437 2.69943C221.626 2.69943 219.306 2.51797 208.891 2.33481C185 1.93078 178 19.9814 151 19.9814C82 19.9814 68.5 46.9598 63.9365 54.7C63.4538 56.3894 62.5343 58.865 61.4872 61.6842C58.1956 70.5465 53.6432 82.8034 57.4365 84.7C57.4365 84.7 63.9365 70.4598 74 61.6842C84.0635 52.9086 99.4365 46.9598 151 46.9598C177.5 46.9598 202.026 58.4291 218.937 46.9598Z" stroke="white"/>
<path d="M240 13.5C205.5 22 197.5 27 163.5 28C136.3 28.8 115.833 30 109 30.5" stroke="white" stroke-width="2"/>
<path d="M409.5 41.5L395 27H428.5L441.5 41.5H409.5Z" stroke="white"/>
<path d="M291 42L276.5 27.5H305.5L318.5 42H291Z" stroke="white"/>
<path d="M328.5 42L314 27.5H345L358 42H328.5Z" stroke="white"/>
<path d="M353 27.5L367.5 42H400L387 27.5H353Z" stroke="white"/>
<path d="M437 27.5L451.5 42H486.5L473.5 27.5H437Z" stroke="white"/>
<path d="M496.5 42L482 27.5H518L531 42H496.5Z" stroke="white"/>
<path d="M527 27.5L541.5 42H576.5L563.5 27.5H527Z" stroke="white"/>
<path d="M1239 41.5L1253.5 27H1220L1207 41.5H1239Z" stroke="white"/>
<path d="M1357.5 42L1372 27.5H1343L1330 42H1357.5Z" stroke="white"/>
<path d="M1320 42L1334.5 27.5H1303.5L1290.5 42H1320Z" stroke="white"/>
<path d="M1295.5 27.5L1281 42H1248.5L1261.5 27.5H1295.5Z" stroke="white"/>
<path d="M1211.5 27.5L1197 42H1162L1175 27.5H1211.5Z" stroke="white"/>
<path d="M1152 42L1166.5 27.5H1130.5L1117.5 42H1152Z" stroke="white"/>
<path d="M1121.5 27.5L1107 42H1072L1085 27.5H1121.5Z" stroke="white"/>
<path d="M1407.07 3.86462C1407.05 3.86462 1407.02 3.86462 1407 3.86462C1381.25 3.86462 1368.57 6.25332 1362.34 9.27639C1359.29 10.7589 1357.91 12.3381 1357.24 13.7625C1356.55 15.2322 1356.5 16.7352 1356.5 18.3646C1356.5 21.1402 1357.65 23.2051 1359.48 24.6145C1361.35 26.0548 1364 26.8646 1367 26.8646H1423.43C1422.78 24.6406 1421.59 22.5266 1419.5 20.6525C1416.83 18.2638 1412.56 16.1615 1405.71 14.8373L1404.5 14.6021V13.3646C1404.5 10.0216 1405 6.80094 1406.64 4.43569C1406.78 4.2376 1406.92 4.0472 1407.07 3.86462Z" stroke="white" stroke-width="3"/>
<path d="M1427.06 47C1419.56 42 1436.56 19.7396 1405.56 13.7396C1405.56 7.23965 1407.56 2.37502 1414.56 2.73964C1424.37 2.73964 1426.69 2.55818 1437.11 2.37502C1481.37 1.59673 1527.37 0.787729 1543.56 13.7396C1563.56 29.7396 1580.06 47.7402 1582.06 54.7402C1582.55 56.4296 1583.47 58.9052 1584.51 61.7244C1587.8 70.5867 1592.36 82.8436 1588.56 84.7402C1583.56 87.2402 1575.06 87 1568.56 87C1559.56 87.101 1503.56 80.5 1484.56 73C1456.48 63.9334 1443.97 58.4693 1427.06 47Z" stroke="white" stroke-width="3"/>
<path d="M1427.06 47C1419.56 42 1436.56 19.7396 1405.56 13.7396C1405.56 7.23965 1407.56 2.37502 1414.56 2.73964C1424.37 2.73964 1426.69 2.55818 1437.11 2.37502C1481.37 1.59673 1527.37 0.787729 1543.56 13.7396C1563.56 29.7396 1580.06 47.7402 1582.06 54.7402C1582.55 56.4296 1583.47 58.9052 1584.51 61.7244C1587.8 70.5867 1592.36 82.8436 1588.56 84.7402C1588.56 84.7402 1582.06 70.5 1572 61.7244C1561.94 52.9488 1546.56 47 1495 47C1468.5 47 1443.97 58.4693 1427.06 47Z" stroke="white"/>
<path d="M1427.06 46.9598C1419.56 41.9598 1436.56 19.6994 1405.56 13.6994C1405.56 7.19943 1407.56 2.33481 1414.56 2.69943C1424.37 2.69943 1426.69 2.51797 1437.11 2.33481C1461 1.93078 1468 19.9814 1495 19.9814C1564 19.9814 1577.5 46.9598 1582.06 54.7C1582.55 56.3894 1583.47 58.865 1584.51 61.6842C1587.8 70.5465 1592.36 82.8034 1588.56 84.7C1588.56 84.7 1582.06 70.4598 1572 61.6842C1561.94 52.9086 1546.56 46.9598 1495 46.9598C1468.5 46.9598 1443.97 58.4291 1427.06 46.9598Z" stroke="white"/>
<path d="M1406 13.5C1440.5 22 1448.5 27 1482.5 28C1509.7 28.8 1530.17 30 1537 30.5" stroke="white" stroke-width="2"/>
<path d="M647 78H620L1186 646H1214L647 78Z" stroke="white"/>
</g>
<path opacity="0.2" d="M220.956 37.5082L217.962 37.6904V37.6904L220.956 37.5082ZM218.937 47L217.272 44.5038L217.262 44.5105L217.253 44.5172L218.937 47ZM221.519 27V24H219.243L218.63 26.191L221.519 27ZM1424.48 27L1427.37 26.191L1426.76 24H1424.48V27ZM1425.04 37.5082L1422.05 37.326L1422.04 37.417V37.5082H1425.04ZM1425.04 37.5088L1428.04 37.691L1428.04 37.6V37.5088H1425.04ZM1427.06 47L1428.75 44.5172L1428.74 44.5105L1428.73 44.5038L1427.06 47ZM1484.56 73L1485.67 70.2095L1485.58 70.1745L1485.49 70.1451L1484.56 73ZM1568.56 87L1568.57 84L1568.55 84L1568.53 84.0002L1568.56 87ZM1569.12 87.0005L1569.12 84.0005L1569.12 84.0005L1569.12 87.0005ZM1570.14 87.003L1570.13 90.003L1570.14 87.003ZM1588.56 84.7402L1587.22 82.0568L1587.22 82.0569L1588.56 84.7402ZM1589 84.4489L1591.06 82.2761L1589.08 80.3821L1587.01 82.1972L1589 84.4489ZM1598.84 94L1596.72 96.1225V96.1225L1598.84 94ZM1615.17 131.645L1618.13 131.173L1618.13 131.169L1615.17 131.645ZM1615.17 131.659L1612.21 132.131L1612.21 132.135L1615.17 131.659ZM1617.86 148L1620.82 147.495V147.495L1617.86 148ZM1639.89 376L1642.88 375.777L1639.89 376ZM1640.37 517.161L1643.36 517.416V517.416L1640.37 517.161ZM1594.84 644L1597.54 645.303L1594.84 644ZM1485.2 683.29L1485.49 680.304L1485.47 680.302L1485.45 680.3L1485.2 683.29ZM1485.2 683.29L1484.92 686.276L1484.93 686.278L1484.95 686.279L1485.2 683.29ZM1428.66 679L1428.74 676.001L1428.66 679ZM968.157 678.678L968.154 675.678L965.157 675.68V678.678H968.157ZM968.157 679L968.153 682L971.157 682.004V679H968.157ZM823 678.819L823.003 675.819H822.997L823 678.819ZM677.843 679H674.843V682.004L677.847 682L677.843 679ZM677.843 678.678H680.843V675.68L677.845 675.678L677.843 678.678ZM217.344 679L217.256 676.001H217.255L217.344 679ZM160.798 683.29L160.513 680.303L160.427 680.312L160.342 680.325L160.798 683.29ZM160.797 683.29L161.082 686.276L161.168 686.268L161.253 686.255L160.797 683.29ZM5.63015 517.161L8.61929 516.906L5.63015 517.161ZM6.11449 376L9.10618 376.223L6.11449 376ZM28.1384 148L25.1812 147.495L28.1384 148ZM30.8319 131.645L27.8699 131.169L30.8319 131.645ZM47.159 94L49.2791 96.1225H49.2791L47.159 94ZM57.0035 84.4488L58.9858 82.197L56.9242 80.3822L54.935 82.276L57.0035 84.4488ZM57.4365 84.7402L58.7781 82.057L58.7781 82.0569L57.4365 84.7402ZM75.8592 87.003L75.8677 90.003H75.8677L75.8592 87.003ZM77.4365 87L77.4702 84.0002L77.4534 84H77.4365V87ZM161.437 73L160.515 70.1451L160.424 70.1745L160.335 70.2095L161.437 73ZM217.962 37.6904C218.097 39.9109 218.184 41.5385 218.008 42.8147C217.844 44.0032 217.524 44.3358 217.272 44.5038L220.601 49.4962C222.845 48.0002 223.665 45.7129 223.951 43.6344C224.226 41.6437 224.074 39.3574 223.951 37.326L217.962 37.6904ZM218.63 26.191C217.484 30.282 217.767 34.4821 217.962 37.6904L223.951 37.326C223.746 33.9567 223.578 30.7701 224.408 27.809L218.63 26.191ZM1424.48 24H221.519V30H1424.48V24ZM1421.59 27.809C1422.42 30.7701 1422.25 33.9566 1422.05 37.326L1428.04 37.6904C1428.23 34.4822 1428.52 30.282 1427.37 26.191L1421.59 27.809ZM1422.04 37.5082V37.5088H1428.04V37.5082H1422.04ZM1422.05 37.3266C1421.93 39.3579 1421.77 41.6441 1422.05 43.6347C1422.34 45.713 1423.16 48.0002 1425.4 49.4962L1428.73 44.5038C1428.48 44.3358 1428.16 44.0032 1427.99 42.8149C1427.82 41.5388 1427.9 39.9114 1428.04 37.691L1422.05 37.3266ZM1425.38 49.4828C1442.62 61.1756 1455.43 66.7448 1483.64 75.8549L1485.49 70.1451C1457.54 61.122 1445.33 55.763 1428.75 44.5172L1425.38 49.4828ZM1483.46 75.7905C1493.34 79.688 1512.43 83.251 1529.88 85.8184C1547.34 88.3888 1563.82 90.0534 1568.6 89.9998L1568.53 84.0002C1564.3 84.0476 1548.28 82.4622 1530.75 79.8823C1513.2 77.2995 1494.79 73.812 1485.67 70.2095L1483.46 75.7905ZM1568.56 90L1569.12 90.0005L1569.12 84.0005L1568.57 84L1568.56 90ZM1569.11 90.0005C1569.45 90.0011 1569.79 90.002 1570.13 90.003L1570.15 84.003C1569.81 84.0021 1569.46 84.0011 1569.12 84.0005L1569.11 90.0005ZM1570.13 90.003C1573.23 90.0119 1576.82 90.0242 1580.23 89.7306C1583.58 89.441 1587.09 88.8328 1589.91 87.4235L1587.22 82.0569C1585.44 82.9499 1582.85 83.4821 1579.71 83.7527C1576.62 84.0195 1573.3 84.012 1570.15 84.003L1570.13 90.003ZM1589.9 87.4236C1590.3 87.2281 1590.66 86.9853 1590.98 86.7006L1587.01 82.1972C1587.08 82.1416 1587.15 82.0937 1587.22 82.0568L1589.9 87.4236ZM1600.96 91.8775C1598.18 89.1035 1594.8 85.8318 1591.06 82.2761L1586.93 86.6217C1590.65 90.1629 1593.99 93.3973 1596.72 96.1225L1600.96 91.8775ZM1618.13 131.169C1616.19 119.069 1615.11 112.254 1612.87 107.016C1610.55 101.588 1607.02 97.9297 1600.96 91.8775L1596.72 96.1225C1602.91 102.3 1605.56 105.181 1607.36 109.376C1609.23 113.761 1610.2 119.653 1612.21 132.121L1618.13 131.169ZM1618.13 131.187L1618.13 131.173L1612.21 132.117L1612.21 132.131L1618.13 131.187ZM1620.82 147.495C1619.73 141.099 1618.86 135.74 1618.13 131.183L1612.21 132.135C1612.94 136.692 1613.81 142.077 1614.9 148.505L1620.82 147.495ZM1642.88 375.777C1635.87 281.831 1627.86 188.667 1620.82 147.495L1614.9 148.505C1621.88 189.333 1629.88 282.169 1636.89 376.223L1642.88 375.777ZM1643.36 517.416C1644.83 500.228 1648.74 454.358 1642.88 375.777L1636.89 376.223C1642.72 454.391 1638.83 499.924 1637.38 516.906L1643.36 517.416ZM1642.89 524C1642.89 523.001 1643.06 520.911 1643.36 517.416L1637.38 516.906C1637.1 520.224 1636.89 522.672 1636.89 524H1642.89ZM1597.54 645.303C1604.11 631.665 1615.42 603.296 1625.05 577.551C1629.88 564.659 1634.3 552.377 1637.52 542.869C1639.13 538.118 1640.44 534.034 1641.36 530.903C1641.82 529.339 1642.19 527.983 1642.44 526.885C1642.68 525.877 1642.89 524.823 1642.89 524H1636.89C1636.89 523.977 1636.88 524.086 1636.83 524.394C1636.79 524.678 1636.71 525.052 1636.6 525.524C1636.38 526.468 1636.05 527.704 1635.6 529.215C1634.72 532.231 1633.43 536.226 1631.84 540.944C1628.64 550.373 1624.24 562.591 1619.43 575.449C1609.79 601.204 1598.57 629.335 1592.13 642.697L1597.54 645.303ZM1536.77 690C1563.33 690 1584.21 672.949 1597.54 645.303L1592.13 642.697C1579.43 669.051 1560.27 684 1536.77 684V690ZM1484.92 686.276C1504.83 688.177 1523.89 690 1536.77 690V684C1524.25 684 1505.53 682.217 1485.49 680.304L1484.92 686.276ZM1484.95 686.279L1484.95 686.28L1485.45 680.3L1485.45 680.3L1484.95 686.279ZM1428.57 681.999C1445.21 682.488 1465.5 684.423 1484.92 686.276L1485.49 680.303C1466.13 678.456 1445.62 676.497 1428.74 676.001L1428.57 681.999ZM968.159 681.678C1186.04 681.497 1410.35 681.464 1428.57 681.999L1428.74 676.001C1410.41 675.463 1185.93 675.497 968.154 675.678L968.159 681.678ZM971.157 679V678.678H965.157V679H971.157ZM822.997 681.819C876.438 681.879 926.102 681.941 968.153 682L968.161 676C926.109 675.941 876.445 675.879 823.003 675.819L822.997 681.819ZM677.847 682C719.898 681.941 769.562 681.879 823.003 681.819L822.997 675.819C769.554 675.879 719.891 675.941 677.839 676L677.847 682ZM674.843 678.678V679H680.843V678.678H674.843ZM217.432 681.999C235.65 681.464 459.964 681.497 677.84 681.678L677.845 675.678C460.07 675.497 235.594 675.463 217.256 676.001L217.432 681.999ZM161.083 686.276C180.495 684.423 200.79 682.488 217.432 681.999L217.255 676.001C200.375 676.497 179.865 678.456 160.513 680.303L161.083 686.276ZM161.253 686.255L161.254 686.255L160.342 680.325L160.341 680.325L161.253 686.255ZM109.226 690C122.107 690 141.172 688.177 161.082 686.276L160.512 680.304C140.47 682.217 121.751 684 109.226 684V690ZM48.4609 645.303C61.7866 672.949 82.6679 690 109.226 690V684C85.7298 684 66.5687 669.051 53.8657 642.697L48.4609 645.303ZM3.11449 524C3.11449 524.823 3.3208 525.877 3.55563 526.885C3.81145 527.983 4.1792 529.339 4.63758 530.903C5.55575 534.034 6.87283 538.118 8.48174 542.869C11.7018 552.377 16.1245 564.659 20.9488 577.551C30.5823 603.296 41.8872 631.665 48.4609 645.303L53.8657 642.697C47.4251 629.335 36.2056 601.204 26.5683 575.449C21.7571 562.591 17.3578 550.373 14.1647 540.944C12.567 536.226 11.2797 532.231 10.3952 529.215C9.95221 527.704 9.61901 526.468 9.39922 525.524C9.28929 525.052 9.21352 524.678 9.16656 524.394C9.11562 524.086 9.11449 523.977 9.11449 524H3.11449ZM2.64102 517.416C2.93931 520.912 3.11449 523.001 3.11449 524H9.11449C9.11449 522.672 8.9024 520.224 8.61929 516.906L2.64102 517.416ZM3.12279 375.777C-2.73536 454.358 1.17409 500.228 2.64102 517.416L8.61929 516.906C7.16998 499.924 3.27886 454.391 9.10618 376.223L3.12279 375.777ZM25.1812 147.495C18.1442 188.667 10.1264 281.831 3.12279 375.777L9.10618 376.223C16.1178 282.169 24.1173 189.333 31.0955 148.505L25.1812 147.495ZM27.8699 131.169C27.1373 135.729 26.2755 141.092 25.1812 147.495L31.0955 148.505C32.1952 142.071 33.0613 136.681 33.794 132.121L27.8699 131.169ZM45.0388 91.8775C38.98 97.9297 35.448 101.588 33.1262 107.016C30.8861 112.254 29.8141 119.069 27.8699 131.169L33.794 132.121C35.7973 119.653 36.7671 113.761 38.6428 109.376C40.4368 105.181 43.0945 102.3 49.2791 96.1225L45.0388 91.8775ZM54.935 82.276C51.2 85.8318 47.8158 89.1035 45.0388 91.8775L49.2791 96.1225C52.0073 93.3973 55.3523 90.1629 59.0721 86.6216L54.935 82.276ZM58.7781 82.0569C58.8517 82.0938 58.9228 82.1416 58.9858 82.197L55.0213 86.7006C55.3446 86.9853 55.7038 87.228 56.0949 87.4235L58.7781 82.0569ZM75.8506 84.003C72.703 84.012 69.3837 84.0195 66.2901 83.7527C63.1504 83.4821 60.564 82.9499 58.7781 82.057L56.0948 87.4235C58.9134 88.8328 62.4157 89.441 65.7747 89.7306C69.18 90.0242 72.7698 90.0119 75.8677 90.003L75.8506 84.003ZM77.4365 84C76.9173 84 76.3863 84.0015 75.8506 84.003L75.8677 90.003C76.405 90.0015 76.9274 90 77.4365 90V84ZM160.335 70.2095C151.209 73.812 132.802 77.2995 115.25 79.8823C97.7176 82.4622 81.6969 84.0476 77.4702 84.0002L77.4029 89.9998C82.1762 90.0534 98.6554 88.3888 116.123 85.8184C133.571 83.251 152.664 79.688 162.538 75.7905L160.335 70.2095ZM217.253 44.5172C200.672 55.763 188.461 61.122 160.515 70.1451L162.358 75.8549C190.574 66.7448 203.381 61.1756 220.62 49.4828L217.253 44.5172Z" fill="white"/>
<path opacity="0.2" d="M220.956 37.5082L220.457 37.5386V37.5386L220.956 37.5082ZM218.937 47L218.659 46.584L218.656 46.5862L218.937 47ZM221.519 27V26.5H221.14L221.037 26.8652L221.519 27ZM1424.48 27L1424.96 26.8652L1424.86 26.5H1424.48V27ZM1425.04 37.5082L1424.54 37.4778L1424.54 37.493V37.5082H1425.04ZM1425.04 37.5088L1425.54 37.5391L1425.54 37.524V37.5088H1425.04ZM1427.06 47L1427.34 46.5862L1427.34 46.584L1427.06 47ZM1484.56 73L1484.75 72.5349L1484.73 72.5291L1484.72 72.5242L1484.56 73ZM1568.56 87L1568.56 86.5L1568.56 86.5L1568.56 87ZM1569.12 87.0005L1569.12 86.5005H1569.12L1569.12 87.0005ZM1570.14 87.003L1570.14 87.503L1570.14 87.003ZM1588.56 84.7402L1588.34 84.293V84.293L1588.56 84.7402ZM1589 84.4488L1589.34 84.0867L1589.01 83.771L1588.67 84.0736L1589 84.4488ZM1598.84 94L1599.19 93.6463V93.6462L1598.84 94ZM1615.17 131.645L1615.66 131.566V131.566L1615.17 131.645ZM1617.86 148L1618.35 147.916V147.916L1617.86 148ZM1639.89 376L1639.39 376.037L1639.89 376ZM1640.8 495.399L1640.3 495.353V495.353L1640.8 495.399ZM1640.37 500.161L1640.87 500.204V500.204L1640.37 500.161ZM1594.84 627L1595.29 627.217L1594.84 627ZM1485.2 666.29L1485.14 666.786L1485.15 666.787L1485.16 666.788L1485.2 666.29ZM1485.2 666.29L1485.26 665.794L1485.26 665.793L1485.25 665.792L1485.2 666.29ZM1428.66 662L1428.67 661.5L1428.66 662ZM968.157 661.678L968.157 661.178L967.657 661.178V661.678H968.157ZM968.157 662L968.156 662.5L968.657 662.501V662H968.157ZM823 661.819L823.001 661.319H823L823 661.819ZM677.843 662H677.343V662.501L677.844 662.5L677.843 662ZM677.843 661.678H678.343V661.178L677.843 661.178L677.843 661.678ZM217.344 662L217.329 661.5L217.344 662ZM160.798 666.29L160.751 665.792L160.736 665.793L160.722 665.796L160.798 666.29ZM160.797 666.29L160.845 666.788L160.859 666.786L160.873 666.784L160.797 666.29ZM51.1633 627L51.6137 626.783L51.1633 627ZM5.63015 500.161L6.12834 500.119L5.63015 500.161ZM5.20087 495.399L4.70298 495.445L5.20087 495.399ZM6.11449 376L6.6131 376.037L6.11449 376ZM28.1384 148L28.6312 148.084L28.1384 148ZM30.8319 131.645L30.3383 131.566L30.8319 131.645ZM47.159 94L47.5123 94.3537L47.159 94ZM57.0035 84.4488L57.3339 84.0735L56.9903 83.7711L56.6588 84.0867L57.0035 84.4488ZM75.8592 87.003L75.8606 87.503H75.8606L75.8592 87.003ZM77.4365 87L77.4421 86.5H77.4365V87ZM161.437 73L161.283 72.5242L161.268 72.5291L161.253 72.5349L161.437 73ZM220.457 37.5386C220.588 39.6803 220.701 41.5824 220.484 43.1563C220.269 44.7155 219.741 45.8626 218.659 46.584L219.214 47.416C220.628 46.4733 221.239 45.0005 221.475 43.2929C221.708 41.5999 221.584 39.5881 221.455 37.4778L220.457 37.5386ZM221.037 26.8652C220.024 30.4854 220.258 34.2632 220.457 37.5386L221.455 37.4778C221.254 34.1756 221.039 30.5667 222 27.1348L221.037 26.8652ZM1424.48 26.5H221.519V27.5H1424.48V26.5ZM1424 27.1348C1424.96 30.5667 1424.75 34.1756 1424.54 37.4778L1425.54 37.5386C1425.74 34.2632 1425.98 30.4854 1424.96 26.8652L1424 27.1348ZM1424.54 37.5082V37.5088H1425.54V37.5082H1424.54ZM1424.54 37.4784C1424.42 39.5885 1424.29 41.6002 1424.53 43.2931C1424.76 45.0006 1425.37 46.4734 1426.79 47.416L1427.34 46.584C1426.26 45.8626 1425.73 44.7157 1425.52 43.1565C1425.3 41.5827 1425.41 39.6808 1425.54 37.5391L1424.54 37.4784ZM1426.78 47.4138C1443.75 58.9204 1456.31 64.402 1484.41 73.4758L1484.72 72.5242C1456.66 63.4648 1444.2 58.0183 1427.34 46.5862L1426.78 47.4138ZM1484.38 73.4651C1493.94 77.2397 1512.75 80.7712 1530.24 83.345C1547.74 85.9194 1564.02 87.551 1568.57 87.5L1568.56 86.5C1564.1 86.55 1547.89 84.9316 1530.39 82.3557C1512.88 79.7793 1494.18 76.2603 1484.75 72.5349L1484.38 73.4651ZM1568.56 87.5L1569.12 87.5005L1569.12 86.5005L1568.56 86.5L1568.56 87.5ZM1569.12 87.5005C1569.45 87.5011 1569.79 87.502 1570.14 87.503L1570.14 86.503C1569.8 86.5021 1569.46 86.5011 1569.12 86.5005L1569.12 87.5005ZM1570.14 87.503C1573.26 87.5119 1576.74 87.5222 1580.01 87.2398C1583.28 86.9581 1586.4 86.3816 1588.79 85.1874L1588.34 84.293C1586.12 85.4011 1583.16 85.9649 1579.92 86.2435C1576.7 86.5214 1573.27 86.512 1570.14 86.503L1570.14 87.503ZM1588.79 85.1875C1588.98 85.0888 1589.16 84.9671 1589.33 84.8241L1588.67 84.0736C1588.57 84.1597 1588.46 84.233 1588.34 84.293L1588.79 85.1875ZM1599.19 93.6462C1596.44 90.8926 1593.07 87.6364 1589.34 84.0867L1588.65 84.811C1592.38 88.3582 1595.74 91.6082 1598.49 94.3538L1599.19 93.6462ZM1615.66 131.566C1613.69 119.313 1612.66 112.882 1610.58 107.999C1608.47 103.085 1605.31 99.7508 1599.19 93.6463L1598.49 94.3537C1604.62 100.479 1607.64 103.684 1609.66 108.393C1611.68 113.133 1612.7 119.41 1614.67 131.724L1615.66 131.566ZM1618.35 147.916C1617.26 141.5 1616.39 136.125 1615.66 131.566L1614.67 131.724C1615.41 136.284 1616.27 141.663 1617.37 148.084L1618.35 147.916ZM1640.38 375.963C1633.38 281.972 1625.37 188.944 1618.35 147.916L1617.37 148.084C1624.37 189.056 1632.38 282.028 1639.39 376.037L1640.38 375.963ZM1641.3 495.445C1642.93 477.711 1645.72 447.53 1640.38 375.963L1639.39 376.037C1644.72 447.544 1641.93 477.669 1640.3 495.353L1641.3 495.445ZM1640.87 500.204C1641 498.715 1641.14 497.138 1641.3 495.445L1640.3 495.353C1640.15 497.045 1640 498.626 1639.87 500.119L1640.87 500.204ZM1640.39 507C1640.39 505.864 1640.58 503.625 1640.87 500.204L1639.87 500.119C1639.58 503.51 1639.39 505.809 1639.39 507H1640.39ZM1595.29 627.217C1601.81 613.694 1613.07 585.424 1622.71 559.675C1627.53 546.797 1631.94 534.542 1635.15 525.067C1636.75 520.329 1638.06 516.283 1638.96 513.199C1639.42 511.658 1639.77 510.352 1640.01 509.318C1640.25 508.299 1640.39 507.502 1640.39 507H1639.39C1639.39 507.373 1639.27 508.068 1639.04 509.091C1638.8 510.099 1638.45 511.385 1638 512.918C1637.11 515.983 1635.81 520.014 1634.2 524.746C1631 534.208 1626.59 546.453 1621.77 559.325C1612.14 585.076 1600.88 613.306 1594.39 626.783L1595.29 627.217ZM1536.77 670.5C1562.06 670.5 1582.22 654.325 1595.29 627.217L1594.39 626.783C1581.42 653.675 1561.55 669.5 1536.77 669.5V670.5ZM1485.16 666.788C1505.12 668.693 1524.04 670.5 1536.77 670.5V669.5C1524.1 669.5 1505.24 667.7 1485.25 665.792L1485.16 666.788ZM1485.14 666.786L1485.14 666.786L1485.26 665.794L1485.26 665.794L1485.14 666.786ZM1428.64 662.5C1445.38 662.992 1465.77 664.937 1485.15 666.788L1485.25 665.792C1465.87 663.943 1445.45 661.993 1428.67 661.5L1428.64 662.5ZM968.158 662.178C1185.99 661.997 1410.37 661.963 1428.64 662.5L1428.67 661.5C1410.38 660.963 1185.97 660.997 968.157 661.178L968.158 662.178ZM968.657 662V661.678H967.657V662H968.657ZM823 662.319C876.441 662.379 926.105 662.441 968.156 662.5L968.158 661.5C926.106 661.441 876.443 661.379 823.001 661.319L823 662.319ZM677.844 662.5C719.895 662.441 769.559 662.379 823.001 662.319L823 661.319C769.557 661.379 719.894 661.441 677.842 661.5L677.844 662.5ZM677.343 661.678V662H678.343V661.678H677.343ZM217.358 662.5C235.627 661.963 460.009 661.997 677.843 662.178L677.843 661.178C460.026 660.997 235.617 660.963 217.329 661.5L217.358 662.5ZM160.846 666.788C180.232 664.937 200.617 662.992 217.358 662.5L217.329 661.5C200.548 661.993 180.128 663.943 160.751 665.792L160.846 666.788ZM160.873 666.784L160.874 666.784L160.722 665.796L160.721 665.796L160.873 666.784ZM109.226 670.5C121.959 670.5 140.879 668.693 160.845 666.788L160.75 665.792C140.762 667.7 121.899 669.5 109.226 669.5V670.5ZM50.7129 627.217C63.7791 654.325 83.9437 670.5 109.226 670.5V669.5C84.4541 669.5 64.5761 653.675 51.6137 626.783L50.7129 627.217ZM5.61449 507C5.61449 507.502 5.75315 508.299 5.99046 509.318C6.23127 510.352 6.58462 511.658 7.03659 513.199C7.94075 516.283 9.24542 520.329 10.8496 525.067C14.0585 534.542 18.4714 546.797 23.2902 559.675C32.9253 585.424 44.1947 613.694 50.7129 627.217L51.6137 626.783C45.1176 613.306 33.8625 585.076 24.2268 559.325C19.4102 546.453 15.0011 534.208 11.7968 524.746C10.1945 520.014 8.89475 515.983 7.99619 512.918C7.54679 511.385 7.19919 510.099 6.96439 509.091C6.72609 508.068 6.61449 507.373 6.61449 507H5.61449ZM5.13196 500.204C5.42393 503.625 5.61449 505.864 5.61449 507H6.61449C6.61449 505.809 6.41778 503.51 6.12834 500.119L5.13196 500.204ZM4.70298 495.445C4.85931 497.138 5.00493 498.715 5.13196 500.204L6.12834 500.119C6.00096 498.626 5.855 497.045 5.69875 495.353L4.70298 495.445ZM5.61587 375.963C0.280607 447.53 3.06547 477.711 4.70298 495.445L5.69875 495.353C4.06587 477.669 1.28233 447.544 6.6131 376.037L5.61587 375.963ZM27.6455 147.916C20.633 188.944 12.6228 281.972 5.61587 375.963L6.6131 376.037C13.6214 282.028 21.6285 189.056 28.6312 148.084L27.6455 147.916ZM30.3383 131.566C29.6056 136.125 28.742 141.5 27.6455 147.916L28.6312 148.084C29.7287 141.663 30.593 136.284 31.3256 131.724L30.3383 131.566ZM46.8056 93.6463C40.6944 99.7508 37.5267 103.085 35.4248 107.999C33.3365 112.882 32.3071 119.313 30.3383 131.566L31.3256 131.724C33.3043 119.41 34.3167 113.133 36.3442 108.393C38.3581 103.684 41.3802 100.479 47.5123 94.3537L46.8056 93.6463ZM56.6588 84.0867C52.9301 87.6364 49.5623 90.8926 46.8056 93.6463L47.5123 94.3537C50.2609 91.6082 53.6222 88.3583 57.3483 84.811L56.6588 84.0867ZM57.6601 84.293C57.5401 84.233 57.4319 84.1598 57.3339 84.0735L56.6732 84.8241C56.8355 84.9671 57.0155 85.0887 57.2129 85.1874L57.6601 84.293ZM75.8577 86.503C72.7308 86.512 69.2988 86.5214 66.0754 86.2435C62.8442 85.9649 59.8763 85.4011 57.6601 84.293L57.2129 85.1874C59.6012 86.3816 62.7218 86.9581 65.9895 87.2398C69.2649 87.5222 72.742 87.5119 75.8606 87.503L75.8577 86.503ZM77.4365 86.5C76.9215 86.5 76.3941 86.5015 75.8577 86.503L75.8606 87.503C76.3972 87.5015 76.9232 87.5 77.4365 87.5V86.5ZM161.253 72.5349C151.815 76.2603 133.123 79.7793 115.614 82.3557C98.1084 84.9316 81.8966 86.55 77.4421 86.5L77.4309 87.5C81.9765 87.551 98.2647 85.9194 115.759 83.345C133.251 80.7712 152.058 77.2397 161.62 73.4651L161.253 72.5349ZM218.656 46.5862C201.801 58.0183 189.341 63.4648 161.283 72.5242L161.59 73.4758C189.693 64.402 202.252 58.9204 219.217 47.4138L218.656 46.5862Z" fill="white"/>
<path opacity="0.2" d="M1519 99C1479.8 138.6 1443.67 202.5 1430.5 229.5M1628.5 250.5C1572 250.5 1467 421.5 1430.5 484.5C1401.3 534.9 1369 596.5 1356.5 621M1641 480.5C1640 516.5 1599 594 1572 609.5C1545 625 1517.5 624.5 1512.5 624.5C1507.5 624.5 1457.5 624.5 1442 624.5C1426.5 624.5 1390.5 633.5 1373.5 649M1356.5 68V279M1351 369C1356.5 478 1337 574.5 1338.5 599.5C1340 624.5 1339 647.5 1348 661V679" stroke="white"/>
<path opacity="0.2" d="M125 99C164.2 138.6 200.333 202.5 213.5 229.5M15.5 250.5C72 250.5 177 421.5 213.5 484.5C242.7 534.9 275 596.5 287.5 621M3 480.5C4 516.5 45 594 72 609.5C99 625 126.5 624.5 131.5 624.5C136.5 624.5 186.5 624.5 202 624.5C217.5 624.5 253.5 633.5 270.5 649M287.5 68V279M293 369C287.5 478 307 574.5 305.5 599.5C304 624.5 305 647.5 296 661V679" stroke="white"/>
<path d="M181 229.5H233.772C236.159 229.5 238.448 230.448 240.136 232.136L301.364 293.364C303.052 295.052 304 297.341 304 299.728V353.115C304 356.563 302.63 359.87 300.192 362.308L278.678 383.822C268.915 393.585 253.085 393.585 243.322 383.822L169.565 310.065C166.002 306.502 164 301.669 164 296.63V246.5C164 237.111 171.611 229.5 181 229.5Z" stroke="white" stroke-width="6"/>
<path d="M181 229.5H233.772C236.159 229.5 238.448 230.448 240.136 232.136L301.364 293.364C303.052 295.052 304 297.341 304 299.728V322.351C304 325.954 302.504 329.396 299.87 331.855L275.604 354.503C266.187 363.292 251.635 363.488 241.986 354.956L170.414 291.672C166.336 288.065 164 282.882 164 277.438V246.5C164 237.111 171.611 229.5 181 229.5Z" stroke="white" stroke-width="3"/>
<path d="M246 359V385.5M271.5 359V389" stroke="white"/>
<path d="M1464 229.5H1411.23C1408.84 229.5 1406.55 230.448 1404.86 232.136L1343.64 293.364C1341.95 295.052 1341 297.341 1341 299.728V353.115C1341 356.563 1342.37 359.87 1344.81 362.308L1366.32 383.822C1376.09 393.585 1391.91 393.585 1401.68 383.822L1475.44 310.065C1479 306.502 1481 301.669 1481 296.63V246.5C1481 237.111 1473.39 229.5 1464 229.5Z" stroke="white" stroke-width="6"/>
<path d="M1464 229.5H1411.23C1408.84 229.5 1406.55 230.448 1404.86 232.136L1343.64 293.364C1341.95 295.052 1341 297.341 1341 299.728V322.351C1341 325.954 1342.5 329.396 1345.13 331.855L1369.4 354.503C1378.81 363.292 1393.37 363.488 1403.01 354.956L1474.59 291.672C1478.66 288.065 1481 282.882 1481 277.438V246.5C1481 237.111 1473.39 229.5 1464 229.5Z" stroke="white" stroke-width="3"/>
<path d="M1399 359V385.5M1373.5 359V389" stroke="white"/>
<g opacity="0.2">
<mask id="path-27-inside-1_697_94542" fill="white">
<path d="M334 147L372 184H378L340 147H334Z"/>
<path d="M291 155L322 185H328L297 155H291Z"/>
<path d="M370 233L330 194H336L376 233H370Z"/>
<path d="M292 207L315 229H321L298 207H292Z"/>
<path d="M363 277L323 238H329L369 277H363Z"/>
<path d="M320 253H314L354 292H360L320 253Z"/>
<path d="M363 253L403 292H409L369 253H363Z"/>
<path d="M409 298L449 337H455L415 298H409Z"/>
<path d="M412 325L372 286H378L418 325H412Z"/>
<path d="M360 299L400 338H406L366 299H360Z"/>
<path d="M361 325L321 286H327L367 325H361Z"/>
<path d="M363 200L323 161H329L369 200H363Z"/>
<path d="M420 184L382 147H388L426 184H420Z"/>
<path d="M432 147L470 184H476L438 147H432Z"/>
<path d="M520 184L482 147H488L526 184H520Z"/>
<path d="M532 147L570 184H576L538 147H532Z"/>
<path d="M414 201L374 162H380L420 201H414Z"/>
<path d="M423 162L463 201H469L429 162H423Z"/>
<path d="M514 201L474 162H480L520 201H514Z"/>
<path d="M524 162L564 201H570L530 162H524Z"/>
<path d="M613 201L573 162H579L619 201H613Z"/>
<path d="M376 240L416 279H422L382 240H376Z"/>
<path d="M409 246L369 207H375L415 246H409Z"/>
<path d="M380 193L418 230H424L386 193H380Z"/>
<path d="M466 230L428 193H434L472 230H466Z"/>
<path d="M478 193L516 230H522L484 193H478Z"/>
<path d="M566 230L528 193H534L572 230H566Z"/>
<path d="M578 193L616 230H622L584 193H578Z"/>
<path d="M460 247L420 208H426L466 247H460Z"/>
<path d="M469 208L509 247H515L475 208H469Z"/>
<path d="M560 247L520 208H526L566 247H560Z"/>
<path d="M570 208L610 247H616L576 208H570Z"/>
<path d="M659 247L619 208H625L665 247H659Z"/>
<path d="M423 286L463 325H469L429 286H423Z"/>
<path d="M456 292L416 253H422L462 292H456Z"/>
<path d="M427 239L467 278H473L433 239H427Z"/>
<path d="M515 278L475 239H481L521 278H515Z"/>
<path d="M525 239L565 278H571L531 239H525Z"/>
<path d="M615 278L575 239H581L621 278H615Z"/>
<path d="M625 239L665 278H671L631 239H625Z"/>
<path d="M507 293L467 254H473L513 293H507Z"/>
<path d="M516 254L556 293H562L522 254H516Z"/>
<path d="M607 293L567 254H573L613 293H607Z"/>
<path d="M617 254L657 293H663L623 254H617Z"/>
<path d="M500 337L460 298H466L506 337H500Z"/>
<path d="M474 286L514 325H520L480 286H474Z"/>
<path d="M562 325L522 286H528L568 325H562Z"/>
<path d="M572 286L612 325H618L578 286H572Z"/>
<path d="M662 325L622 286H628L668 325H662Z"/>
<path d="M672 286L698 311H704L678 286H672Z"/>
<path d="M551 338L511 299H517L557 338H551Z"/>
<path d="M560 299L600 338H606L566 299H560Z"/>
<path d="M651 338L611 299H617L657 338H651Z"/>
<path d="M661.001 299L691 328H697L667.001 299H661.001Z"/>
<path d="M357 246L317 207H323L363 246H357Z"/>
<path d="M290 180L309 198H315L296 180H290Z"/>
</mask>
<path d="M334 147L372 184H378L340 147H334Z" stroke="white" stroke-width="2" mask="url(#path-27-inside-1_697_94542)"/>
<path d="M291 155L322 185H328L297 155H291Z" stroke="white" stroke-width="2" mask="url(#path-27-inside-1_697_94542)"/>
<path d="M370 233L330 194H336L376 233H370Z" stroke="white" stroke-width="2" mask="url(#path-27-inside-1_697_94542)"/>
<path d="M292 207L315 229H321L298 207H292Z" stroke="white" stroke-width="2" mask="url(#path-27-inside-1_697_94542)"/>
<path d="M363 277L323 238H329L369 277H363Z" stroke="white" stroke-width="2" mask="url(#path-27-inside-1_697_94542)"/>
<path d="M320 253H314L354 292H360L320 253Z" stroke="white" stroke-width="2" mask="url(#path-27-inside-1_697_94542)"/>
<path d="M363 253L403 292H409L369 253H363Z" stroke="white" stroke-width="2" mask="url(#path-27-inside-1_697_94542)"/>
<path d="M409 298L449 337H455L415 298H409Z" stroke="white" stroke-width="2" mask="url(#path-27-inside-1_697_94542)"/>
<path d="M412 325L372 286H378L418 325H412Z" stroke="white" stroke-width="2" mask="url(#path-27-inside-1_697_94542)"/>
<path d="M360 299L400 338H406L366 299H360Z" stroke="white" stroke-width="2" mask="url(#path-27-inside-1_697_94542)"/>
<path d="M361 325L321 286H327L367 325H361Z" stroke="white" stroke-width="2" mask="url(#path-27-inside-1_697_94542)"/>
<path d="M363 200L323 161H329L369 200H363Z" stroke="white" stroke-width="2" mask="url(#path-27-inside-1_697_94542)"/>
<path d="M420 184L382 147H388L426 184H420Z" stroke="white" stroke-width="2" mask="url(#path-27-inside-1_697_94542)"/>
<path d="M432 147L470 184H476L438 147H432Z" stroke="white" stroke-width="2" mask="url(#path-27-inside-1_697_94542)"/>
<path d="M520 184L482 147H488L526 184H520Z" stroke="white" stroke-width="2" mask="url(#path-27-inside-1_697_94542)"/>
<path d="M532 147L570 184H576L538 147H532Z" stroke="white" stroke-width="2" mask="url(#path-27-inside-1_697_94542)"/>
<path d="M414 201L374 162H380L420 201H414Z" stroke="white" stroke-width="2" mask="url(#path-27-inside-1_697_94542)"/>
<path d="M423 162L463 201H469L429 162H423Z" stroke="white" stroke-width="2" mask="url(#path-27-inside-1_697_94542)"/>
<path d="M514 201L474 162H480L520 201H514Z" stroke="white" stroke-width="2" mask="url(#path-27-inside-1_697_94542)"/>
<path d="M524 162L564 201H570L530 162H524Z" stroke="white" stroke-width="2" mask="url(#path-27-inside-1_697_94542)"/>
<path d="M613 201L573 162H579L619 201H613Z" stroke="white" stroke-width="2" mask="url(#path-27-inside-1_697_94542)"/>
<path d="M376 240L416 279H422L382 240H376Z" stroke="white" stroke-width="2" mask="url(#path-27-inside-1_697_94542)"/>
<path d="M409 246L369 207H375L415 246H409Z" stroke="white" stroke-width="2" mask="url(#path-27-inside-1_697_94542)"/>
<path d="M380 193L418 230H424L386 193H380Z" stroke="white" stroke-width="2" mask="url(#path-27-inside-1_697_94542)"/>
<path d="M466 230L428 193H434L472 230H466Z" stroke="white" stroke-width="2" mask="url(#path-27-inside-1_697_94542)"/>
<path d="M478 193L516 230H522L484 193H478Z" stroke="white" stroke-width="2" mask="url(#path-27-inside-1_697_94542)"/>
<path d="M566 230L528 193H534L572 230H566Z" stroke="white" stroke-width="2" mask="url(#path-27-inside-1_697_94542)"/>
<path d="M578 193L616 230H622L584 193H578Z" stroke="white" stroke-width="2" mask="url(#path-27-inside-1_697_94542)"/>
<path d="M460 247L420 208H426L466 247H460Z" stroke="white" stroke-width="2" mask="url(#path-27-inside-1_697_94542)"/>
<path d="M469 208L509 247H515L475 208H469Z" stroke="white" stroke-width="2" mask="url(#path-27-inside-1_697_94542)"/>
<path d="M560 247L520 208H526L566 247H560Z" stroke="white" stroke-width="2" mask="url(#path-27-inside-1_697_94542)"/>
<path d="M570 208L610 247H616L576 208H570Z" stroke="white" stroke-width="2" mask="url(#path-27-inside-1_697_94542)"/>
<path d="M659 247L619 208H625L665 247H659Z" stroke="white" stroke-width="2" mask="url(#path-27-inside-1_697_94542)"/>
<path d="M423 286L463 325H469L429 286H423Z" stroke="white" stroke-width="2" mask="url(#path-27-inside-1_697_94542)"/>
<path d="M456 292L416 253H422L462 292H456Z" stroke="white" stroke-width="2" mask="url(#path-27-inside-1_697_94542)"/>
<path d="M427 239L467 278H473L433 239H427Z" stroke="white" stroke-width="2" mask="url(#path-27-inside-1_697_94542)"/>
<path d="M515 278L475 239H481L521 278H515Z" stroke="white" stroke-width="2" mask="url(#path-27-inside-1_697_94542)"/>
<path d="M525 239L565 278H571L531 239H525Z" stroke="white" stroke-width="2" mask="url(#path-27-inside-1_697_94542)"/>
<path d="M615 278L575 239H581L621 278H615Z" stroke="white" stroke-width="2" mask="url(#path-27-inside-1_697_94542)"/>
<path d="M625 239L665 278H671L631 239H625Z" stroke="white" stroke-width="2" mask="url(#path-27-inside-1_697_94542)"/>
<path d="M507 293L467 254H473L513 293H507Z" stroke="white" stroke-width="2" mask="url(#path-27-inside-1_697_94542)"/>
<path d="M516 254L556 293H562L522 254H516Z" stroke="white" stroke-width="2" mask="url(#path-27-inside-1_697_94542)"/>
<path d="M607 293L567 254H573L613 293H607Z" stroke="white" stroke-width="2" mask="url(#path-27-inside-1_697_94542)"/>
<path d="M617 254L657 293H663L623 254H617Z" stroke="white" stroke-width="2" mask="url(#path-27-inside-1_697_94542)"/>
<path d="M500 337L460 298H466L506 337H500Z" stroke="white" stroke-width="2" mask="url(#path-27-inside-1_697_94542)"/>
<path d="M474 286L514 325H520L480 286H474Z" stroke="white" stroke-width="2" mask="url(#path-27-inside-1_697_94542)"/>
<path d="M562 325L522 286H528L568 325H562Z" stroke="white" stroke-width="2" mask="url(#path-27-inside-1_697_94542)"/>
<path d="M572 286L612 325H618L578 286H572Z" stroke="white" stroke-width="2" mask="url(#path-27-inside-1_697_94542)"/>
<path d="M662 325L622 286H628L668 325H662Z" stroke="white" stroke-width="2" mask="url(#path-27-inside-1_697_94542)"/>
<path d="M672 286L698 311H704L678 286H672Z" stroke="white" stroke-width="2" mask="url(#path-27-inside-1_697_94542)"/>
<path d="M551 338L511 299H517L557 338H551Z" stroke="white" stroke-width="2" mask="url(#path-27-inside-1_697_94542)"/>
<path d="M560 299L600 338H606L566 299H560Z" stroke="white" stroke-width="2" mask="url(#path-27-inside-1_697_94542)"/>
<path d="M651 338L611 299H617L657 338H651Z" stroke="white" stroke-width="2" mask="url(#path-27-inside-1_697_94542)"/>
<path d="M661.001 299L691 328H697L667.001 299H661.001Z" stroke="white" stroke-width="2" mask="url(#path-27-inside-1_697_94542)"/>
<path d="M357 246L317 207H323L363 246H357Z" stroke="white" stroke-width="2" mask="url(#path-27-inside-1_697_94542)"/>
<path d="M290 180L309 198H315L296 180H290Z" stroke="white" stroke-width="2" mask="url(#path-27-inside-1_697_94542)"/>
</g>
<g opacity="0.2">
<mask id="path-28-inside-2_697_94542" fill="white">
<path d="M1282.5 121L1289 127.5H1280.5L1274 121H1282.5Z"/>
<path d="M1263.5 122L1275 133.5H1266.5L1255 122H1263.5Z"/>
<path d="M1245.5 125L1258.5 138H1250L1237 125H1245.5Z"/>
<path d="M1228.5 127L1244.5 143H1236L1220 127H1228.5Z"/>
<path d="M1211.5 130H1203L1223 150H1231.5L1211.5 130Z"/>
<path d="M1193.5 133L1217 156.5H1208.5L1185 133H1193.5Z"/>
<path d="M1177.5 137H1169L1195.5 163.5H1204L1177.5 137Z"/>
<path d="M1163.5 143L1191.5 171H1183L1155 143H1163.5Z"/>
<path d="M1147.5 148H1139L1169 178H1177.5L1147.5 148Z"/>
<path d="M1135.5 156H1127L1156.5 185.5H1165L1135.5 156Z"/>
<path d="M1125.5 165H1117L1144 192H1152.5L1125.5 165Z"/>
<path d="M1112.5 173H1104L1130.5 199.5H1139L1112.5 173Z"/>
<path d="M1101.5 182H1093L1120 209H1128.5L1101.5 182Z"/>
<path d="M1091.5 192H1083L1107.5 216.5H1116L1091.5 192Z"/>
<path d="M1081.5 202L1104.5 225H1096L1073 202H1081.5Z"/>
<path d="M1071.5 212H1063L1083 232H1091.5L1071.5 212Z"/>
<path d="M1060.5 222L1080.5 242H1072L1052 222H1060.5Z"/>
<path d="M867.5 230H859L935.5 306.5H944L867.5 230Z"/>
<path d="M862.5 252L907 296.5H915.5L871 252H862.5Z"/>
<path d="M971.5 313L992 333.5H983.5L963 313H971.5Z"/>
<path d="M953.5 255H945L994 304H1002.5L953.5 255Z"/>
<path d="M985.5 267L1012 293.5H1003.5L977 267H985.5Z"/>
<path d="M1027.5 309H1019L1040.5 330.5H1049L1027.5 309Z"/>
<path d="M1005.5 267L1023 284.5H1014.5L997 267H1005.5Z"/>
<path d="M1038.5 300H1030L1071.5 341.5H1080L1038.5 300Z"/>
<path d="M1018.5 259L1036 276.5H1027.5L1010 259H1018.5Z"/>
<path d="M1052.5 293H1044L1101 350H1109.5L1052.5 293Z"/>
<path d="M1030.5 250L1048 267.5H1039.5L1022 250H1030.5Z"/>
<path d="M1063.5 284H1055L1127 356H1135.5L1063.5 284Z"/>
<path d="M1041.5 240L1059 257.5H1050.5L1033 240H1041.5Z"/>
<path d="M1091.5 292L1076.5 277H1068L1083 292H1091.5Z"/>
<path d="M1128.5 329L1158.5 359H1150L1120 329H1128.5Z"/>
<path d="M1049.5 231H1041L1059.5 249.5H1068L1049.5 231Z"/>
<path d="M1089.5 270L1104 284.5H1095.5L1081 270H1089.5Z"/>
<path d="M1152.5 333H1144L1171.5 360.5H1180L1152.5 333Z"/>
<path d="M1100.5 261H1092L1108.5 277.5H1117L1100.5 261Z"/>
<path d="M1171.5 333L1198 359.5H1189.5L1163 333H1171.5Z"/>
<path d="M1114.5 255L1130.5 271H1122L1106 255H1114.5Z"/>
<path d="M1211 352.5L1186.5 328H1178L1202.5 352.5H1211Z"/>
<path d="M1124.5 246H1116L1134.5 264.5H1143L1124.5 246Z"/>
<path d="M1200.5 321L1222.5 343H1214L1192 321H1200.5Z"/>
<path d="M1138.5 238L1158 257.5H1149.5L1130 238H1138.5Z"/>
<path d="M1170.5 270H1162L1167 275H1175.5L1170.5 270Z"/>
<path d="M1209.5 310L1232.5 333H1224L1201 310H1209.5Z"/>
<path d="M1150.5 231L1170 250.5H1161.5L1142 231H1150.5Z"/>
<path d="M1190.5 271L1183.5 264H1175L1182 271H1190.5Z"/>
<path d="M1212 300H1220.5L1244 323.5H1235.5L1212 300Z"/>
<path d="M1163.5 223L1183.5 243H1175L1155 223H1163.5Z"/>
<path d="M1197.5 257H1189L1197 265H1205.5L1197.5 257Z"/>
<path d="M1228.5 288L1251.5 311H1243L1220 288H1228.5Z"/>
<path d="M1175.5 215L1197.5 237H1189L1167 215H1175.5Z"/>
<path d="M1210.5 251H1202L1212.5 261.5H1221L1210.5 251Z"/>
<path d="M1234.5 275L1258.5 299H1250L1226 275H1234.5Z"/>
<path d="M1188.5 208L1211 230.5H1202.5L1180 208H1188.5Z"/>
<path d="M1229.5 257.5H1238L1225 244.5H1216.5L1229.5 257.5Z"/>
<path d="M1245.5 265L1268 287.5H1259.5L1237 265H1245.5Z"/>
<path d="M1201.5 202L1224 224.5H1215.5L1193 202H1201.5Z"/>
<path d="M1237.5 238H1229L1265.5 274.5H1274L1237.5 238Z"/>
<path d="M1215.5 195H1207L1229.5 217.5H1238L1215.5 195Z"/>
<path d="M1251.5 232L1281 261.5H1272.5L1243 232H1251.5Z"/>
<path d="M1229.5 189L1252 211.5H1243.5L1221 189H1229.5Z"/>
<path d="M1265.5 225H1257L1279.5 247.5H1288L1265.5 225Z"/>
<path d="M1242.5 182H1234L1257.5 205.5H1266L1242.5 182Z"/>
<path d="M1279.5 219L1294.5 234H1286L1271 219H1279.5Z"/>
<path d="M1259.5 179L1279.5 199H1271L1251 179H1259.5Z"/>
<path d="M1295.5 215H1287L1292.5 220.5H1301L1295.5 215Z"/>
<path d="M1273.5 173H1265L1285 193H1293.5L1273.5 173Z"/>
<path d="M1288.5 169H1280L1298 187H1306.5L1288.5 169Z"/>
<path d="M1306.5 166H1298L1311.5 179.5H1320L1306.5 166Z"/>
<path d="M1323.5 163H1315L1324 172H1332.5L1323.5 163Z"/>
<path d="M924.5 245L1039.5 360H1031L916 245H924.5Z"/>
</mask>
<path d="M1282.5 121L1289 127.5H1280.5L1274 121H1282.5Z" stroke="white" stroke-width="2" mask="url(#path-28-inside-2_697_94542)"/>
<path d="M1263.5 122L1275 133.5H1266.5L1255 122H1263.5Z" stroke="white" stroke-width="2" mask="url(#path-28-inside-2_697_94542)"/>
<path d="M1245.5 125L1258.5 138H1250L1237 125H1245.5Z" stroke="white" stroke-width="2" mask="url(#path-28-inside-2_697_94542)"/>
<path d="M1228.5 127L1244.5 143H1236L1220 127H1228.5Z" stroke="white" stroke-width="2" mask="url(#path-28-inside-2_697_94542)"/>
<path d="M1211.5 130H1203L1223 150H1231.5L1211.5 130Z" stroke="white" stroke-width="2" mask="url(#path-28-inside-2_697_94542)"/>
<path d="M1193.5 133L1217 156.5H1208.5L1185 133H1193.5Z" stroke="white" stroke-width="2" mask="url(#path-28-inside-2_697_94542)"/>
<path d="M1177.5 137H1169L1195.5 163.5H1204L1177.5 137Z" stroke="white" stroke-width="2" mask="url(#path-28-inside-2_697_94542)"/>
<path d="M1163.5 143L1191.5 171H1183L1155 143H1163.5Z" stroke="white" stroke-width="2" mask="url(#path-28-inside-2_697_94542)"/>
<path d="M1147.5 148H1139L1169 178H1177.5L1147.5 148Z" stroke="white" stroke-width="2" mask="url(#path-28-inside-2_697_94542)"/>
<path d="M1135.5 156H1127L1156.5 185.5H1165L1135.5 156Z" stroke="white" stroke-width="2" mask="url(#path-28-inside-2_697_94542)"/>
<path d="M1125.5 165H1117L1144 192H1152.5L1125.5 165Z" stroke="white" stroke-width="2" mask="url(#path-28-inside-2_697_94542)"/>
<path d="M1112.5 173H1104L1130.5 199.5H1139L1112.5 173Z" stroke="white" stroke-width="2" mask="url(#path-28-inside-2_697_94542)"/>
<path d="M1101.5 182H1093L1120 209H1128.5L1101.5 182Z" stroke="white" stroke-width="2" mask="url(#path-28-inside-2_697_94542)"/>
<path d="M1091.5 192H1083L1107.5 216.5H1116L1091.5 192Z" stroke="white" stroke-width="2" mask="url(#path-28-inside-2_697_94542)"/>
<path d="M1081.5 202L1104.5 225H1096L1073 202H1081.5Z" stroke="white" stroke-width="2" mask="url(#path-28-inside-2_697_94542)"/>
<path d="M1071.5 212H1063L1083 232H1091.5L1071.5 212Z" stroke="white" stroke-width="2" mask="url(#path-28-inside-2_697_94542)"/>
<path d="M1060.5 222L1080.5 242H1072L1052 222H1060.5Z" stroke="white" stroke-width="2" mask="url(#path-28-inside-2_697_94542)"/>
<path d="M867.5 230H859L935.5 306.5H944L867.5 230Z" stroke="white" stroke-width="2" mask="url(#path-28-inside-2_697_94542)"/>
<path d="M862.5 252L907 296.5H915.5L871 252H862.5Z" stroke="white" stroke-width="2" mask="url(#path-28-inside-2_697_94542)"/>
<path d="M971.5 313L992 333.5H983.5L963 313H971.5Z" stroke="white" stroke-width="2" mask="url(#path-28-inside-2_697_94542)"/>
<path d="M953.5 255H945L994 304H1002.5L953.5 255Z" stroke="white" stroke-width="2" mask="url(#path-28-inside-2_697_94542)"/>
<path d="M985.5 267L1012 293.5H1003.5L977 267H985.5Z" stroke="white" stroke-width="2" mask="url(#path-28-inside-2_697_94542)"/>
<path d="M1027.5 309H1019L1040.5 330.5H1049L1027.5 309Z" stroke="white" stroke-width="2" mask="url(#path-28-inside-2_697_94542)"/>
<path d="M1005.5 267L1023 284.5H1014.5L997 267H1005.5Z" stroke="white" stroke-width="2" mask="url(#path-28-inside-2_697_94542)"/>
<path d="M1038.5 300H1030L1071.5 341.5H1080L1038.5 300Z" stroke="white" stroke-width="2" mask="url(#path-28-inside-2_697_94542)"/>
<path d="M1018.5 259L1036 276.5H1027.5L1010 259H1018.5Z" stroke="white" stroke-width="2" mask="url(#path-28-inside-2_697_94542)"/>
<path d="M1052.5 293H1044L1101 350H1109.5L1052.5 293Z" stroke="white" stroke-width="2" mask="url(#path-28-inside-2_697_94542)"/>
<path d="M1030.5 250L1048 267.5H1039.5L1022 250H1030.5Z" stroke="white" stroke-width="2" mask="url(#path-28-inside-2_697_94542)"/>
<path d="M1063.5 284H1055L1127 356H1135.5L1063.5 284Z" stroke="white" stroke-width="2" mask="url(#path-28-inside-2_697_94542)"/>
<path d="M1041.5 240L1059 257.5H1050.5L1033 240H1041.5Z" stroke="white" stroke-width="2" mask="url(#path-28-inside-2_697_94542)"/>
<path d="M1091.5 292L1076.5 277H1068L1083 292H1091.5Z" stroke="white" stroke-width="2" mask="url(#path-28-inside-2_697_94542)"/>
<path d="M1128.5 329L1158.5 359H1150L1120 329H1128.5Z" stroke="white" stroke-width="2" mask="url(#path-28-inside-2_697_94542)"/>
<path d="M1049.5 231H1041L1059.5 249.5H1068L1049.5 231Z" stroke="white" stroke-width="2" mask="url(#path-28-inside-2_697_94542)"/>
<path d="M1089.5 270L1104 284.5H1095.5L1081 270H1089.5Z" stroke="white" stroke-width="2" mask="url(#path-28-inside-2_697_94542)"/>
<path d="M1152.5 333H1144L1171.5 360.5H1180L1152.5 333Z" stroke="white" stroke-width="2" mask="url(#path-28-inside-2_697_94542)"/>
<path d="M1100.5 261H1092L1108.5 277.5H1117L1100.5 261Z" stroke="white" stroke-width="2" mask="url(#path-28-inside-2_697_94542)"/>
<path d="M1171.5 333L1198 359.5H1189.5L1163 333H1171.5Z" stroke="white" stroke-width="2" mask="url(#path-28-inside-2_697_94542)"/>
<path d="M1114.5 255L1130.5 271H1122L1106 255H1114.5Z" stroke="white" stroke-width="2" mask="url(#path-28-inside-2_697_94542)"/>
<path d="M1211 352.5L1186.5 328H1178L1202.5 352.5H1211Z" stroke="white" stroke-width="2" mask="url(#path-28-inside-2_697_94542)"/>
<path d="M1124.5 246H1116L1134.5 264.5H1143L1124.5 246Z" stroke="white" stroke-width="2" mask="url(#path-28-inside-2_697_94542)"/>
<path d="M1200.5 321L1222.5 343H1214L1192 321H1200.5Z" stroke="white" stroke-width="2" mask="url(#path-28-inside-2_697_94542)"/>
<path d="M1138.5 238L1158 257.5H1149.5L1130 238H1138.5Z" stroke="white" stroke-width="2" mask="url(#path-28-inside-2_697_94542)"/>
<path d="M1170.5 270H1162L1167 275H1175.5L1170.5 270Z" stroke="white" stroke-width="2" mask="url(#path-28-inside-2_697_94542)"/>
<path d="M1209.5 310L1232.5 333H1224L1201 310H1209.5Z" stroke="white" stroke-width="2" mask="url(#path-28-inside-2_697_94542)"/>
<path d="M1150.5 231L1170 250.5H1161.5L1142 231H1150.5Z" stroke="white" stroke-width="2" mask="url(#path-28-inside-2_697_94542)"/>
<path d="M1190.5 271L1183.5 264H1175L1182 271H1190.5Z" stroke="white" stroke-width="2" mask="url(#path-28-inside-2_697_94542)"/>
<path d="M1212 300H1220.5L1244 323.5H1235.5L1212 300Z" stroke="white" stroke-width="2" mask="url(#path-28-inside-2_697_94542)"/>
<path d="M1163.5 223L1183.5 243H1175L1155 223H1163.5Z" stroke="white" stroke-width="2" mask="url(#path-28-inside-2_697_94542)"/>
<path d="M1197.5 257H1189L1197 265H1205.5L1197.5 257Z" stroke="white" stroke-width="2" mask="url(#path-28-inside-2_697_94542)"/>
<path d="M1228.5 288L1251.5 311H1243L1220 288H1228.5Z" stroke="white" stroke-width="2" mask="url(#path-28-inside-2_697_94542)"/>
<path d="M1175.5 215L1197.5 237H1189L1167 215H1175.5Z" stroke="white" stroke-width="2" mask="url(#path-28-inside-2_697_94542)"/>
<path d="M1210.5 251H1202L1212.5 261.5H1221L1210.5 251Z" stroke="white" stroke-width="2" mask="url(#path-28-inside-2_697_94542)"/>
<path d="M1234.5 275L1258.5 299H1250L1226 275H1234.5Z" stroke="white" stroke-width="2" mask="url(#path-28-inside-2_697_94542)"/>
<path d="M1188.5 208L1211 230.5H1202.5L1180 208H1188.5Z" stroke="white" stroke-width="2" mask="url(#path-28-inside-2_697_94542)"/>
<path d="M1229.5 257.5H1238L1225 244.5H1216.5L1229.5 257.5Z" stroke="white" stroke-width="2" mask="url(#path-28-inside-2_697_94542)"/>
<path d="M1245.5 265L1268 287.5H1259.5L1237 265H1245.5Z" stroke="white" stroke-width="2" mask="url(#path-28-inside-2_697_94542)"/>
<path d="M1201.5 202L1224 224.5H1215.5L1193 202H1201.5Z" stroke="white" stroke-width="2" mask="url(#path-28-inside-2_697_94542)"/>
<path d="M1237.5 238H1229L1265.5 274.5H1274L1237.5 238Z" stroke="white" stroke-width="2" mask="url(#path-28-inside-2_697_94542)"/>
<path d="M1215.5 195H1207L1229.5 217.5H1238L1215.5 195Z" stroke="white" stroke-width="2" mask="url(#path-28-inside-2_697_94542)"/>
<path d="M1251.5 232L1281 261.5H1272.5L1243 232H1251.5Z" stroke="white" stroke-width="2" mask="url(#path-28-inside-2_697_94542)"/>
<path d="M1229.5 189L1252 211.5H1243.5L1221 189H1229.5Z" stroke="white" stroke-width="2" mask="url(#path-28-inside-2_697_94542)"/>
<path d="M1265.5 225H1257L1279.5 247.5H1288L1265.5 225Z" stroke="white" stroke-width="2" mask="url(#path-28-inside-2_697_94542)"/>
<path d="M1242.5 182H1234L1257.5 205.5H1266L1242.5 182Z" stroke="white" stroke-width="2" mask="url(#path-28-inside-2_697_94542)"/>
<path d="M1279.5 219L1294.5 234H1286L1271 219H1279.5Z" stroke="white" stroke-width="2" mask="url(#path-28-inside-2_697_94542)"/>
<path d="M1259.5 179L1279.5 199H1271L1251 179H1259.5Z" stroke="white" stroke-width="2" mask="url(#path-28-inside-2_697_94542)"/>
<path d="M1295.5 215H1287L1292.5 220.5H1301L1295.5 215Z" stroke="white" stroke-width="2" mask="url(#path-28-inside-2_697_94542)"/>
<path d="M1273.5 173H1265L1285 193H1293.5L1273.5 173Z" stroke="white" stroke-width="2" mask="url(#path-28-inside-2_697_94542)"/>
<path d="M1288.5 169H1280L1298 187H1306.5L1288.5 169Z" stroke="white" stroke-width="2" mask="url(#path-28-inside-2_697_94542)"/>
<path d="M1306.5 166H1298L1311.5 179.5H1320L1306.5 166Z" stroke="white" stroke-width="2" mask="url(#path-28-inside-2_697_94542)"/>
<path d="M1323.5 163H1315L1324 172H1332.5L1323.5 163Z" stroke="white" stroke-width="2" mask="url(#path-28-inside-2_697_94542)"/>
<path d="M924.5 245L1039.5 360H1031L916 245H924.5Z" stroke="white" stroke-width="2" mask="url(#path-28-inside-2_697_94542)"/>
</g>
</svg>
