<svg width="1646" height="690" fill="none" xmlns="http://www.w3.org/2000/svg"><path opacity=".2" d="M34 113c40.8 0 167.667-30.667 226-46h1125c58.33 15.333 185.2 46 226 46-.87-5.188-1.62-8.139-8.5-14-9 0-38.9-3.4-96.5-13s-113.33-28-134-36H273c-20.667 8-76.4 26.4-134 36-57.6 9.6-87.5 13-96.5 13-6.879 5.861-7.628 8.812-8.5 14Zm783.522-87.5a5.501 5.501 0 0 1 5.478-5h46a5.501 5.501 0 0 1 5.478 5h-56.956Zm79 0a5.501 5.501 0 0 1 5.478-5h46a5.501 5.501 0 0 1 5.478 5h-56.956Z" stroke="#fff"/><g opacity=".2" stroke="#fff"><path d="M238.925 3.865H239c25.746 0 38.433 2.388 44.657 5.411 3.052 1.483 4.431 3.062 5.104 4.486.693 1.47.739 2.973.739 4.603 0 2.775-1.152 4.84-2.979 6.25-1.867 1.44-4.521 2.25-7.521 2.25h-56.426c.65-2.224 1.834-4.338 3.929-6.212 2.671-2.39 6.94-4.491 13.782-5.816l1.215-.235v-1.237c0-3.343-.502-6.564-2.142-8.93a8.68 8.68 0 0 0-.433-.57Z" stroke-width="3"/><path d="M218.937 47c7.5-5-9.5-27.26 21.5-33.26 0-6.5-2-11.365-9-11-9.811 0-12.131-.182-22.546-.365-44.259-.778-90.265-1.587-106.455 11.365-20 16-36.5 34-38.5 41-.482 1.69-1.402 4.165-2.449 6.984-3.291 8.863-7.844 21.12-4.05 23.016 5 2.5 13.5 2.26 20 2.26 9 .101 65-6.5 84-14 28.08-9.067 40.589-14.53 57.5-26Z" stroke-width="3"/><path d="M218.937 47c7.5-5-9.5-27.26 21.5-33.26 0-6.5-2-11.365-9-11-9.811 0-12.131-.182-22.546-.365-44.259-.778-90.265-1.587-106.455 11.365-20 16-36.5 34-38.5 41-.482 1.69-1.402 4.165-2.449 6.984-3.291 8.863-7.844 21.12-4.05 23.016 0 0 6.5-14.24 16.563-23.016C84.064 52.95 99.436 47 151 47c26.5 0 51.026 11.47 67.937 0Z"/><path d="M218.937 46.96c7.5-5-9.5-27.26 21.5-33.26 0-6.5-2-11.365-9-11-9.811 0-12.131-.182-22.546-.365C185 1.93 178 19.98 151 19.98c-69 0-82.5 26.979-87.064 34.719-.482 1.69-1.402 4.165-2.449 6.984-3.291 8.862-7.844 21.12-4.05 23.016 0 0 6.5-14.24 16.563-23.016C84.064 52.91 99.436 46.96 151 46.96c26.5 0 51.026 11.47 67.937 0Z"/><path d="M240 13.5C205.5 22 197.5 27 163.5 28c-27.2.8-47.667 2-54.5 2.5" stroke-width="2"/><path d="M409.5 41.5 395 27h33.5l13 14.5h-32ZM291 42l-14.5-14.5h29l13 14.5H291Zm37.5 0L314 27.5h31L358 42h-29.5ZM353 27.5 367.5 42H400l-13-14.5h-34Zm84 0L451.5 42h35l-13-14.5H437ZM496.5 42 482 27.5h36L531 42h-34.5ZM527 27.5 541.5 42h35l-13-14.5H527Zm712 14 14.5-14.5H1220l-13 14.5h32Zm118.5.5 14.5-14.5h-29L1330 42h27.5Zm-37.5 0 14.5-14.5h-31l-13 14.5h29.5Zm-24.5-14.5L1281 42h-32.5l13-14.5h34Zm-84 0L1197 42h-35l13-14.5h36.5ZM1152 42l14.5-14.5h-36l-13 14.5h34.5Zm-30.5-14.5L1107 42h-35l13-14.5h36.5Z"/><path d="M1407.07 3.865h-.07c-25.75 0-38.43 2.388-44.66 5.411-3.05 1.483-4.43 3.062-5.1 4.486-.69 1.47-.74 2.973-.74 4.603 0 2.775 1.15 4.84 2.98 6.25 1.87 1.44 4.52 2.25 7.52 2.25h56.43c-.65-2.224-1.84-4.338-3.93-6.212-2.67-2.39-6.94-4.491-13.79-5.816l-1.21-.235v-1.237c0-3.343.5-6.564 2.14-8.93.14-.197.28-.388.43-.57Z" stroke-width="3"/><path d="M1427.06 47c-7.5-5 9.5-27.26-21.5-33.26 0-6.5 2-11.365 9-11 9.81 0 12.13-.182 22.55-.365 44.26-.778 90.26-1.587 106.45 11.365 20 16 36.5 34 38.5 41 .49 1.69 1.41 4.165 2.45 6.984 3.29 8.863 7.85 21.12 4.05 23.016-5 2.5-13.5 2.26-20 2.26-9 .101-65-6.5-84-14-28.08-9.067-40.59-14.53-57.5-26Z" stroke-width="3"/><path d="M1427.06 47c-7.5-5 9.5-27.26-21.5-33.26 0-6.5 2-11.365 9-11 9.81 0 12.13-.182 22.55-.365 44.26-.778 90.26-1.587 106.45 11.365 20 16 36.5 34 38.5 41 .49 1.69 1.41 4.165 2.45 6.984 3.29 8.863 7.85 21.12 4.05 23.016 0 0-6.5-14.24-16.56-23.016C1561.94 52.95 1546.56 47 1495 47c-26.5 0-51.03 11.47-67.94 0Z"/><path d="M1427.06 46.96c-7.5-5 9.5-27.26-21.5-33.26 0-6.5 2-11.365 9-11 9.81 0 12.13-.182 22.55-.365C1461 1.93 1468 19.98 1495 19.98c69 0 82.5 26.979 87.06 34.719.49 1.69 1.41 4.165 2.45 6.984 3.29 8.862 7.85 21.12 4.05 23.016 0 0-6.5-14.24-16.56-23.016-10.06-8.775-25.44-14.724-77-14.724-26.5 0-51.03 11.47-67.94 0Z"/><path d="M1406 13.5c34.5 8.5 42.5 13.5 76.5 14.5 27.2.8 47.67 2 54.5 2.5" stroke-width="2"/><path d="M647 78h-27l566 568h28L647 78Z"/></g><path opacity=".2" d="m220.956 37.508-2.994.182 2.994-.182ZM218.937 47l-1.665-2.496-.01.007-.009.006L218.937 47Zm2.582-20v-3h-2.276l-.613 2.191 2.889.809Zm1202.961 0 2.89-.809-.61-2.191h-2.28v3Zm.56 10.508-2.99-.182-.01.091v.091h3Zm0 0 3 .183v-.182h-3Zm2.02 9.492 1.69-2.483-.01-.007-.01-.006-1.67 2.496Zm57.5 26 1.11-2.79-.09-.035-.09-.03-.93 2.855Zm84 14 .01-3h-.04l.03 3Zm.56 0v-3 3Zm1.02.003-.01 3 .01-3Zm18.42-2.263-1.34-2.683 1.34 2.683Zm.44-.291 2.06-2.173-1.98-1.894-2.07 1.815 1.99 2.252Zm9.84 9.551-2.12 2.123 2.12-2.123Zm16.33 37.645 2.96-.472v-.004l-2.96.476Zm0 .014-2.96.472v.004l2.96-.476Zm2.69 16.341 2.96-.505-2.96.505Zm22.03 228 2.99-.223-2.99.223Zm.48 141.161 2.99.255-2.99-.255ZM1594.84 644l2.7 1.303-2.7-1.303Zm-109.64 39.29.29-2.986-.02-.002-.02-.002-.25 2.99Zm0 0-.28 2.986.01.002.02.001.25-2.989Zm-56.54-4.29.08-2.999-.08 2.999Zm-460.503-.322-.003-3-2.997.002v2.998h3Zm0 .322-.004 3 3.004.004V679h-3ZM823 678.819l.003-3h-.006l.003 3ZM677.843 679h-3v3.004l3.004-.004-.004-3Zm0-.322h3v-2.998l-2.998-.002-.002 3ZM217.344 679l-.088-2.999h-.001l.089 2.999Zm-56.546 4.29-.285-2.987-.086.009-.085.013.456 2.965Zm-.001 0 .285 2.986.086-.008.085-.013-.456-2.965ZM5.63 517.161l2.99-.255-2.99.255ZM6.114 376l2.992.223L6.114 376Zm22.024-228-2.957-.505 2.957.505Zm2.694-16.355-2.962-.476 2.962.476ZM47.159 94l2.12 2.123L47.16 94Zm9.845-9.551 1.982-2.252-2.062-1.815-1.989 1.894 2.069 2.173Zm.433.291 1.341-2.683-1.341 2.683Zm18.422 2.263.009 3-.009-3ZM77.437 87l.033-3h-.034v3Zm84-14-.922-2.855-.091.03-.089.035 1.102 2.79Zm56.525-35.31c.135 2.22.222 3.849.046 5.125-.164 1.188-.484 1.52-.736 1.689l3.329 4.992c2.244-1.496 3.064-3.783 3.35-5.862.275-1.99.123-4.277 0-6.308l-5.989.364Zm.668-11.499c-1.146 4.091-.863 8.291-.668 11.5l5.989-.365c-.205-3.37-.373-6.556.457-9.517l-5.778-1.618ZM1424.48 24H221.519v6H1424.48v-6Zm-2.89 3.809c.83 2.961.66 6.148.46 9.517l5.99.364c.19-3.208.48-7.408-.67-11.499l-5.78 1.618Zm.45 9.7h6-6Zm.01-.182c-.12 2.03-.28 4.317 0 6.308.29 2.078 1.11 4.365 3.35 5.861l3.33-4.992c-.25-.168-.57-.5-.74-1.69-.17-1.275-.09-2.903.05-5.123l-5.99-.364Zm3.33 12.156c17.24 11.693 30.05 17.262 58.26 26.372l1.85-5.71c-27.95-9.023-40.16-14.382-56.74-25.628l-3.37 4.966Zm58.08 26.307c9.88 3.898 28.97 7.461 46.42 10.028 17.46 2.57 33.94 4.235 38.72 4.182l-.07-6c-4.23.048-20.25-1.538-37.78-4.118-17.55-2.583-35.96-6.07-45.08-9.672l-2.21 5.58Zm85.1 14.21h.56v-6h-.55l-.01 6Zm.55 0 1.02.003.02-6-1.03-.002-.01 6Zm1.02.003c3.1.009 6.69.021 10.1-.272 3.35-.29 6.86-.898 9.68-2.307l-2.69-5.367c-1.78.893-4.37 1.425-7.51 1.696-3.09.266-6.41.259-9.56.25l-.02 6Zm19.77-2.58c.4-.195.76-.438 1.08-.722l-3.97-4.504c.07-.055.14-.103.21-.14l2.68 5.367Zm11.06 4.454c-2.78-2.773-6.16-6.045-9.9-9.6l-4.13 4.345c3.72 3.54 7.06 6.775 9.79 9.5l4.24-4.245Zm17.17 39.292c-1.94-12.1-3.02-18.915-5.26-24.153-2.32-5.428-5.85-9.086-11.91-15.139l-4.24 4.246c6.19 6.177 8.84 9.058 10.64 13.253 1.87 4.385 2.84 10.277 4.85 22.745l5.92-.952Zm0 .018v-.014l-5.92.944v.014l5.92-.944Zm2.69 16.308a1615.85 1615.85 0 0 1-2.69-16.312l-5.92.952c.73 4.557 1.6 9.942 2.69 16.37l5.92-1.01Zm22.06 228.282c-7.01-93.946-15.02-187.11-22.06-228.282l-5.92 1.01c6.98 40.828 14.98 133.664 21.99 227.718l5.99-.446Zm.48 141.639c1.47-17.188 5.38-63.058-.48-141.639l-5.99.446c5.83 78.168 1.94 123.701.49 140.683l5.98.51Zm-.47 6.584c0-.999.17-3.089.47-6.584l-5.98-.51c-.28 3.318-.49 5.766-.49 7.094h6Zm-45.35 121.303c6.57-13.638 17.88-42.007 27.51-67.752 4.83-12.892 9.25-25.174 12.47-34.682 1.61-4.751 2.92-8.835 3.84-11.966.46-1.564.83-2.92 1.08-4.018.24-1.008.45-2.062.45-2.885h-6c0-.023-.01.086-.06.394-.04.284-.12.658-.23 1.13-.22.944-.55 2.18-1 3.691-.88 3.016-2.17 7.011-3.76 11.729-3.2 9.429-7.6 21.647-12.41 34.505-9.64 25.755-20.86 53.886-27.3 67.248l5.41 2.606ZM1536.77 690c26.56 0 47.44-17.051 60.77-44.697l-5.41-2.606c-12.7 26.354-31.86 41.303-55.36 41.303v6Zm-51.85-3.724c19.91 1.901 38.97 3.724 51.85 3.724v-6c-12.52 0-31.24-1.783-51.28-3.696l-.57 5.972Zm.03.003v.001l.5-5.98-.5 5.979Zm-56.38-4.28c16.64.489 36.93 2.424 56.35 4.277l.57-5.973c-19.36-1.847-39.87-3.806-56.75-4.302l-.17 5.998Zm-460.411-.321c217.881-.181 442.191-.214 460.411.321l.17-5.998c-18.33-.538-242.81-.504-460.586-.323l.005 6Zm2.998-2.678v-.322h-6V679h6Zm-148.16 2.819c53.441.06 103.105.122 145.156.181l.008-6c-42.052-.059-91.716-.121-145.158-.181l-.006 6Zm-145.15.181c42.051-.059 91.715-.121 145.156-.181l-.006-6c-53.443.06-103.106.122-145.158.181l.008 6Zm-3.004-3.322V679h6v-.322h-6Zm-457.411 3.321c18.218-.535 242.532-.502 460.408-.321l.005-6c-217.775-.181-442.251-.215-460.589.323l.176 5.998Zm-56.349 4.277c19.412-1.853 39.707-3.788 56.349-4.277l-.177-5.998c-16.88.496-37.39 2.455-56.742 4.302l.57 5.973Zm.17-.021h.001l-.912-5.93h-.001l.912 5.93ZM109.226 690c12.881 0 31.946-1.823 51.856-3.724l-.57-5.972C140.47 682.217 121.751 684 109.226 684v6Zm-60.765-44.697C61.787 672.949 82.668 690 109.226 690v-6c-23.496 0-42.657-14.949-55.36-41.303l-5.405 2.606ZM3.114 524c0 .823.207 1.877.442 2.885a76.926 76.926 0 0 0 1.082 4.018c.918 3.131 2.235 7.215 3.844 11.966 3.22 9.508 7.643 21.79 12.467 34.682 9.633 25.745 20.938 54.114 27.512 67.752l5.405-2.606c-6.44-13.362-17.66-41.493-27.298-67.248-4.81-12.858-9.21-25.076-12.403-34.505-1.598-4.718-2.885-8.713-3.77-11.729a70.88 70.88 0 0 1-.996-3.691 18.37 18.37 0 0 1-.232-1.13c-.051-.308-.053-.417-.053-.394h-6Zm-.473-6.584c.298 3.496.473 5.585.473 6.584h6c0-1.328-.212-3.776-.495-7.094l-5.978.51Zm.482-141.639c-5.858 78.581-1.949 124.451-.482 141.639l5.978-.51c-1.449-16.982-5.34-62.515.487-140.683l-5.983-.446ZM25.18 147.495c-7.037 41.172-15.055 134.336-22.058 228.282l5.983.446c7.012-94.054 15.011-186.89 21.99-227.718l-5.915-1.01Zm2.689-16.326c-.733 4.56-1.595 9.923-2.689 16.326l5.915 1.01c1.1-6.434 1.965-11.824 2.698-16.384l-5.924-.952Zm17.169-39.292c-6.059 6.053-9.591 9.711-11.913 15.139-2.24 5.238-3.312 12.053-5.256 24.153l5.924.952c2.003-12.468 2.973-18.36 4.849-22.745 1.794-4.195 4.451-7.076 10.636-13.254l-4.24-4.245Zm9.896-9.601c-3.735 3.556-7.12 6.828-9.896 9.602l4.24 4.245c2.728-2.726 6.073-5.96 9.793-9.501l-4.137-4.346Zm3.843-.22a.988.988 0 0 1 .208.141l-3.965 4.504a5.08 5.08 0 0 0 1.074.723l2.683-5.367Zm17.073 1.947c-3.148.009-6.467.016-9.56-.25-3.14-.27-5.727-.803-7.513-1.696l-2.683 5.367c2.818 1.409 6.32 2.017 9.68 2.307 3.405.293 6.995.28 10.093.272l-.017-6ZM77.436 84l-1.585.003.017 6L77.437 90v-6Zm82.899-13.79c-9.126 3.602-27.533 7.09-45.085 9.672-17.532 2.58-33.553 4.166-37.78 4.118l-.067 6c4.773.053 21.252-1.611 38.72-4.182 17.448-2.567 36.541-6.13 46.415-10.028l-2.203-5.58Zm56.918-25.693c-16.581 11.246-28.792 16.605-56.738 25.628l1.843 5.71c28.216-9.11 41.023-14.68 58.262-26.372l-3.367-4.966Z" fill="#fff"/><path opacity=".2" d="m220.956 37.508-.499.03.499-.03ZM218.937 47l-.278-.416-.003.002.281.414Zm2.582-20v-.5h-.379l-.103.365.482.135Zm1202.961 0 .48-.135-.1-.365h-.38v.5Zm.56 10.508-.5-.03v.03h.5Zm0 0 .5.031v-.03h-.5Zm2.02 9.492.28-.414v-.002l-.28.416Zm57.5 26 .19-.465-.02-.006-.01-.005-.16.476Zm84 14v-.5.5Zm.56 0v-.5.5Zm1.02.003v.5-.5Zm18.42-2.263-.22-.447.22.447Zm.44-.291.34-.362-.33-.316-.34.303.33.375Zm9.84 9.551.35-.354-.35.354Zm16.33 37.645.49-.079-.49.079Zm2.69 16.355.49-.084-.49.084Zm22.03 228-.5.037.5-.037Zm.91 119.399-.5-.046.5.046Zm-.43 4.762.5.043-.5-.043ZM1594.84 627l.45.217-.45-.217Zm-109.64 39.29-.06.496.01.001.01.001.04-.498Zm0 0 .06-.496v-.001l-.01-.001-.05.498Zm-56.54-4.29.01-.5-.01.5Zm-460.503-.322v-.5h-.5v.5h.5Zm0 .322-.001.5.501.001V662h-.5ZM823 661.819l.001-.5H823v.5ZM677.843 662h-.5v.501l.501-.001-.001-.5Zm0-.322h.5v-.5h-.5v.5ZM217.344 662l-.015-.5.015.5Zm-56.546 4.29-.047-.498-.015.001-.014.003.076.494Zm-.001 0 .048.498.014-.002.014-.002-.076-.494ZM51.163 627l.45-.217-.45.217ZM5.63 500.161l.498-.042-.498.042Zm-.43-4.762-.497.046.498-.046ZM6.115 376l.5.037-.5-.037Zm22.024-228 .493.084-.493-.084Zm2.694-16.355-.494-.079.494.079ZM47.159 94l.353.354L47.16 94Zm9.845-9.551.33-.376-.344-.302-.331.316.345.362Zm18.855 2.554.002.5-.002-.5ZM77.437 87l.005-.5h-.005v.5Zm84-14-.154-.476-.015.005-.015.006.184.465Zm59.02-35.461c.131 2.141.244 4.043.027 5.617-.215 1.56-.743 2.707-1.825 3.428l.555.832c1.414-.943 2.025-2.415 2.261-4.123.233-1.693.109-3.705-.02-5.815l-.998.06Zm.58-10.674c-1.013 3.62-.779 7.398-.58 10.674l.998-.061c-.201-3.302-.416-6.911.545-10.343l-.963-.27ZM1424.48 26.5H221.519v1H1424.48v-1Zm-.48.635c.96 3.432.75 7.04.54 10.343l1 .06c.2-3.275.44-7.053-.58-10.673l-.96.27Zm.54 10.373h1-1Zm0-.03c-.12 2.11-.25 4.122-.01 5.815.23 1.708.84 3.18 2.26 4.123l.55-.832c-1.08-.721-1.61-1.868-1.82-3.428-.22-1.573-.11-3.475.02-5.617l-1-.06Zm2.24 9.936c16.97 11.506 29.53 16.988 57.63 26.062l.31-.952c-28.06-9.06-40.52-14.506-57.38-25.938l-.56.828Zm57.6 26.051c9.56 3.775 28.37 7.306 45.86 9.88 17.5 2.574 33.78 4.206 38.33 4.155l-.01-1c-4.46.05-20.67-1.568-38.17-4.144-17.51-2.577-36.21-6.096-45.64-9.821l-.37.93Zm84.18 14.035h.56v-1h-.56v1Zm.56 0 1.02.003v-1l-1.02-.002v1Zm1.02.003c3.12.009 6.6.02 9.87-.263 3.27-.282 6.39-.858 8.78-2.053l-.45-.894c-2.22 1.108-5.18 1.672-8.42 1.95-3.22.278-6.65.269-9.78.26v1Zm18.65-2.316c.19-.098.37-.22.54-.363l-.66-.75c-.1.086-.21.159-.33.219l.45.894Zm10.4 8.46c-2.75-2.754-6.12-6.01-9.85-9.56l-.69.724c3.73 3.547 7.09 6.797 9.84 9.543l.7-.708Zm16.47 37.919c-1.97-12.253-3-18.684-5.08-23.567-2.11-4.914-5.27-8.248-11.39-14.353l-.7.708c6.13 6.125 9.15 9.33 11.17 14.039 2.02 4.74 3.04 11.017 5.01 23.331l.99-.158Zm2.69 16.35c-1.09-6.416-1.96-11.791-2.69-16.35l-.99.158c.74 4.56 1.6 9.939 2.7 16.36l.98-.168Zm22.03 228.047c-7-93.991-15.01-187.019-22.03-228.047l-.98.168c7 40.972 15.01 133.944 22.02 227.953l.99-.074Zm.92 119.482c1.63-17.734 4.42-47.915-.92-119.482l-.99.074c5.33 71.507 2.54 101.632.91 119.316l1 .092Zm-.43 4.759c.13-1.489.27-3.066.43-4.759l-1-.092c-.15 1.692-.3 3.273-.43 4.766l1 .085Zm-.48 6.796c0-1.136.19-3.375.48-6.796l-1-.085c-.29 3.391-.48 5.69-.48 6.881h1Zm-45.1 120.217c6.52-13.523 17.78-41.793 27.42-67.542 4.82-12.878 9.23-25.133 12.44-34.608 1.6-4.738 2.91-8.784 3.81-11.868.46-1.541.81-2.847 1.05-3.881.24-1.019.38-1.816.38-2.318h-1c0 .373-.12 1.068-.35 2.091a79.79 79.79 0 0 1-1.04 3.827c-.89 3.065-2.19 7.096-3.8 11.828-3.2 9.462-7.61 21.707-12.43 34.579-9.63 25.751-20.89 53.981-27.38 67.458l.9.434Zm-58.52 43.283c25.29 0 45.45-16.175 58.52-43.283l-.9-.434c-12.97 26.892-32.84 42.717-57.62 42.717v1Zm-51.61-3.712c19.96 1.905 38.88 3.712 51.61 3.712v-1c-12.67 0-31.53-1.8-51.52-3.708l-.09.996Zm-.02-.002.12-.992-.12.992Zm-56.5-4.286c16.74.492 37.13 2.437 56.51 4.288l.1-.996c-19.38-1.849-39.8-3.799-56.58-4.292l-.03 1Zm-460.482-.322c217.832-.181 442.212-.215 460.482.322l.03-1c-18.29-.537-242.7-.503-460.513-.322l.001 1Zm.499-.178v-.322h-1V662h1ZM823 662.319c53.441.06 103.105.122 145.156.181l.002-1a530143.4 530143.4 0 0 0-145.157-.181l-.001 1Zm-145.156.181c42.051-.059 91.715-.121 145.157-.181l-.001-1c-53.443.06-103.106.122-145.158.181l.002 1Zm-.501-.822V662h1v-.322h-1Zm-459.985.822c18.269-.537 242.651-.503 460.485-.322v-1c-217.817-.181-442.226-.215-460.514.322l.029 1Zm-56.512 4.288c19.386-1.851 39.771-3.796 56.512-4.288l-.029-1c-16.781.493-37.201 2.443-56.578 4.292l.095.996Zm.027-.004h.001l-.152-.988h-.001l.152.988Zm-51.647 3.716c12.733 0 31.653-1.807 51.619-3.712l-.095-.996c-19.988 1.908-38.851 3.708-51.524 3.708v1Zm-58.513-43.283c13.066 27.108 33.23 43.283 58.513 43.283v-1c-24.772 0-44.65-15.825-57.612-42.717l-.901.434ZM5.614 507c0 .502.14 1.299.376 2.318.241 1.034.595 2.34 1.047 3.881.904 3.084 2.208 7.13 3.813 11.868 3.209 9.475 7.621 21.73 12.44 34.608 9.635 25.749 20.905 54.019 27.423 67.542l.9-.434c-6.495-13.477-17.75-41.707-27.386-67.458-4.817-12.872-9.226-25.117-12.43-34.579-1.603-4.732-2.902-8.763-3.8-11.828a73.416 73.416 0 0 1-1.033-3.827c-.238-1.023-.35-1.718-.35-2.091h-1Zm-.482-6.796c.292 3.421.482 5.66.482 6.796h1c0-1.191-.196-3.49-.486-6.881l-.996.085Zm-.429-4.759c.156 1.693.302 3.27.429 4.759l.996-.085a700.318 700.318 0 0 0-.43-4.766l-.995.092Zm.913-119.482C.28 447.53 3.066 477.711 4.703 495.445l.996-.092c-1.633-17.684-4.417-47.809.914-119.316l-.997-.074Zm22.03-228.047c-7.013 41.028-15.023 134.056-22.03 228.047l.997.074c7.008-94.009 15.015-186.981 22.018-227.953l-.986-.168Zm2.692-16.35c-.732 4.559-1.596 9.934-2.693 16.35l.986.168c1.098-6.421 1.962-11.8 2.695-16.36l-.988-.158Zm16.468-37.92c-6.112 6.105-9.28 9.439-11.381 14.353-2.088 4.883-3.118 11.314-5.087 23.567l.988.158c1.978-12.314 2.99-18.591 5.018-23.331 2.014-4.709 5.036-7.914 11.168-14.04l-.706-.707Zm9.853-9.56c-3.729 3.55-7.097 6.807-9.853 9.56l.706.708c2.749-2.746 6.11-5.996 9.836-9.543l-.69-.724Zm1.001.207a1.517 1.517 0 0 1-.326-.22l-.66.751c.162.143.342.265.539.363l.447-.894Zm18.198 2.21c-3.127.009-6.56.018-9.783-.26-3.23-.278-6.199-.842-8.415-1.95l-.447.894c2.388 1.195 5.509 1.771 8.777 2.053 3.275.282 6.752.272 9.87.263l-.002-1Zm1.578-.003-1.578.003.003 1 1.575-.003v-1Zm83.817-13.965c-9.438 3.725-28.13 7.244-45.639 9.82-17.506 2.577-33.717 4.195-38.172 4.145l-.011 1c4.546.051 20.834-1.58 38.328-4.155 17.492-2.574 36.299-6.105 45.861-9.88l-.367-.93Zm57.403-25.949c-16.855 11.432-29.315 16.879-57.373 25.938l.307.952c28.103-9.074 40.662-14.556 57.627-26.062l-.561-.828Z" fill="#fff"/><path opacity=".2" d="M1519 99c-39.2 39.6-75.33 103.5-88.5 130.5m198 21c-56.5 0-161.5 171-198 234-29.2 50.4-61.5 112-74 136.5M1641 480.5c-1 36-42 113.5-69 129s-54.5 15-59.5 15H1442c-15.5 0-51.5 9-68.5 24.5m-17-581v211m-5.5 90c5.5 109-14 205.5-12.5 230.5s.5 48 9.5 61.5v18M125 99c39.2 39.6 75.333 103.5 88.5 130.5m-198 21c56.5 0 161.5 171 198 234 29.2 50.4 61.5 112 74 136.5M3 480.5c1 36 42 113.5 69 129s54.5 15 59.5 15H202c15.5 0 51.5 9 68.5 24.5m17-581v211m5.5 90c-5.5 109 14 205.5 12.5 230.5s-.5 48-9.5 61.5v18" stroke="#fff"/><path d="M181 229.5h52.772a9 9 0 0 1 6.364 2.636l61.228 61.228a9 9 0 0 1 2.636 6.364v53.387c0 3.448-1.37 6.755-3.808 9.193l-21.514 21.514c-9.763 9.763-25.593 9.763-35.356 0l-73.757-73.757A19 19 0 0 1 164 296.63V246.5c0-9.389 7.611-17 17-17Z" stroke="#fff" stroke-width="6"/><path d="M181 229.5h52.772a9 9 0 0 1 6.364 2.636l61.228 61.228a9 9 0 0 1 2.636 6.364v22.623c0 3.603-1.496 7.045-4.13 9.504l-24.266 22.648c-9.417 8.789-23.969 8.985-33.618.453l-71.572-63.284A19.004 19.004 0 0 1 164 277.438V246.5c0-9.389 7.611-17 17-17Z" stroke="#fff" stroke-width="3"/><path d="M246 359v26.5m25.5-26.5v30" stroke="#fff"/><path d="M1464 229.5h-52.77c-2.39 0-4.68.948-6.37 2.636l-61.22 61.228a8.995 8.995 0 0 0-2.64 6.364v53.387c0 3.448 1.37 6.755 3.81 9.193l21.51 21.514c9.77 9.763 25.59 9.763 35.36 0l73.76-73.757a19.008 19.008 0 0 0 5.56-13.435V246.5c0-9.389-7.61-17-17-17Z" stroke="#fff" stroke-width="6"/><path d="M1464 229.5h-52.77c-2.39 0-4.68.948-6.37 2.636l-61.22 61.228a8.995 8.995 0 0 0-2.64 6.364v22.623c0 3.603 1.5 7.045 4.13 9.504l24.27 22.648c9.41 8.789 23.97 8.985 33.61.453l71.58-63.284a19.029 19.029 0 0 0 6.41-14.234V246.5c0-9.389-7.61-17-17-17Z" stroke="#fff" stroke-width="3"/><path d="M1399 359v26.5m-25.5-26.5v30" stroke="#fff"/><g opacity=".2"><mask id="Device Type=ROG Ally, View=Back-paddles__a" fill="#fff"><path d="m334 147 38 37h6l-38-37h-6Zm-43 8 31 30h6l-31-30h-6Zm79 78-40-39h6l40 39h-6Zm-78-26 23 22h6l-23-22h-6Zm71 70-40-39h6l40 39h-6Zm-43-24h-6l40 39h6l-40-39Zm43 0 40 39h6l-40-39h-6Zm46 45 40 39h6l-40-39h-6Zm3 27-40-39h6l40 39h-6Zm-52-26 40 39h6l-40-39h-6Zm1 26-40-39h6l40 39h-6Zm2-125-40-39h6l40 39h-6Zm57-16-38-37h6l38 37h-6Zm12-37 38 37h6l-38-37h-6Zm88 37-38-37h6l38 37h-6Zm12-37 38 37h6l-38-37h-6Zm-118 54-40-39h6l40 39h-6Zm9-39 40 39h6l-40-39h-6Zm91 39-40-39h6l40 39h-6Zm10-39 40 39h6l-40-39h-6Zm89 39-40-39h6l40 39h-6Zm-237 39 40 39h6l-40-39h-6Zm33 6-40-39h6l40 39h-6Zm-29-53 38 37h6l-38-37h-6Zm86 37-38-37h6l38 37h-6Zm12-37 38 37h6l-38-37h-6Zm88 37-38-37h6l38 37h-6Zm12-37 38 37h6l-38-37h-6Zm-118 54-40-39h6l40 39h-6Zm9-39 40 39h6l-40-39h-6Zm91 39-40-39h6l40 39h-6Zm10-39 40 39h6l-40-39h-6Zm89 39-40-39h6l40 39h-6Zm-236 39 40 39h6l-40-39h-6Zm33 6-40-39h6l40 39h-6Zm-29-53 40 39h6l-40-39h-6Zm88 39-40-39h6l40 39h-6Zm10-39 40 39h6l-40-39h-6Zm90 39-40-39h6l40 39h-6Zm10-39 40 39h6l-40-39h-6Zm-118 54-40-39h6l40 39h-6Zm9-39 40 39h6l-40-39h-6Zm91 39-40-39h6l40 39h-6Zm10-39 40 39h6l-40-39h-6Zm-117 83-40-39h6l40 39h-6Zm-26-51 40 39h6l-40-39h-6Zm88 39-40-39h6l40 39h-6Zm10-39 40 39h6l-40-39h-6Zm90 39-40-39h6l40 39h-6Zm10-39 26 25h6l-26-25h-6Zm-121 52-40-39h6l40 39h-6Zm9-39 40 39h6l-40-39h-6Zm91 39-40-39h6l40 39h-6Zm10.001-39L691 328h6l-29.999-29h-6ZM357 246l-40-39h6l40 39h-6Zm-67-66 19 18h6l-19-18h-6Z"/></mask><path d="m334 147 38 37h6l-38-37h-6Zm-43 8 31 30h6l-31-30h-6Zm79 78-40-39h6l40 39h-6Zm-78-26 23 22h6l-23-22h-6Zm71 70-40-39h6l40 39h-6Zm-43-24h-6l40 39h6l-40-39Zm43 0 40 39h6l-40-39h-6Zm46 45 40 39h6l-40-39h-6Zm3 27-40-39h6l40 39h-6Zm-52-26 40 39h6l-40-39h-6Zm1 26-40-39h6l40 39h-6Zm2-125-40-39h6l40 39h-6Zm57-16-38-37h6l38 37h-6Zm12-37 38 37h6l-38-37h-6Zm88 37-38-37h6l38 37h-6Zm12-37 38 37h6l-38-37h-6Zm-118 54-40-39h6l40 39h-6Zm9-39 40 39h6l-40-39h-6Zm91 39-40-39h6l40 39h-6Zm10-39 40 39h6l-40-39h-6Zm89 39-40-39h6l40 39h-6Zm-237 39 40 39h6l-40-39h-6Zm33 6-40-39h6l40 39h-6Zm-29-53 38 37h6l-38-37h-6Zm86 37-38-37h6l38 37h-6Zm12-37 38 37h6l-38-37h-6Zm88 37-38-37h6l38 37h-6Zm12-37 38 37h6l-38-37h-6Zm-118 54-40-39h6l40 39h-6Zm9-39 40 39h6l-40-39h-6Zm91 39-40-39h6l40 39h-6Zm10-39 40 39h6l-40-39h-6Zm89 39-40-39h6l40 39h-6Zm-236 39 40 39h6l-40-39h-6Zm33 6-40-39h6l40 39h-6Zm-29-53 40 39h6l-40-39h-6Zm88 39-40-39h6l40 39h-6Zm10-39 40 39h6l-40-39h-6Zm90 39-40-39h6l40 39h-6Zm10-39 40 39h6l-40-39h-6Zm-118 54-40-39h6l40 39h-6Zm9-39 40 39h6l-40-39h-6Zm91 39-40-39h6l40 39h-6Zm10-39 40 39h6l-40-39h-6Zm-117 83-40-39h6l40 39h-6Zm-26-51 40 39h6l-40-39h-6Zm88 39-40-39h6l40 39h-6Zm10-39 40 39h6l-40-39h-6Zm90 39-40-39h6l40 39h-6Zm10-39 26 25h6l-26-25h-6Zm-121 52-40-39h6l40 39h-6Zm9-39 40 39h6l-40-39h-6Zm91 39-40-39h6l40 39h-6Zm10.001-39L691 328h6l-29.999-29h-6ZM357 246l-40-39h6l40 39h-6Zm-67-66 19 18h6l-19-18h-6Z" stroke="#fff" stroke-width="2" mask="url(#Device Type=ROG Ally, View=Back-paddles__a)"/></g><g opacity=".2"><mask id="Device Type=ROG Ally, View=Back-paddles__b" fill="#fff"><path d="m1282.5 121 6.5 6.5h-8.5l-6.5-6.5h8.5Zm-19 1 11.5 11.5h-8.5L1255 122h8.5Zm-18 3 13 13h-8.5l-13-13h8.5Zm-17 2 16 16h-8.5l-16-16h8.5Zm-17 3h-8.5l20 20h8.5l-20-20Zm-18 3 23.5 23.5h-8.5L1185 133h8.5Zm-16 4h-8.5l26.5 26.5h8.5l-26.5-26.5Zm-14 6 28 28h-8.5l-28-28h8.5Zm-16 5h-8.5l30 30h8.5l-30-30Zm-12 8h-8.5l29.5 29.5h8.5l-29.5-29.5Zm-10 9h-8.5l27 27h8.5l-27-27Zm-13 8h-8.5l26.5 26.5h8.5l-26.5-26.5Zm-11 9h-8.5l27 27h8.5l-27-27Zm-10 10h-8.5l24.5 24.5h8.5l-24.5-24.5Zm-10 10 23 23h-8.5l-23-23h8.5Zm-10 10h-8.5l20 20h8.5l-20-20Zm-11 10 20 20h-8.5l-20-20h8.5Zm-193 8H859l76.5 76.5h8.5L867.5 230Zm-5 22 44.5 44.5h8.5L871 252h-8.5Zm109 61 20.5 20.5h-8.5L963 313h8.5Zm-18-58H945l49 49h8.5l-49-49Zm32 12 26.5 26.5h-8.5L977 267h8.5Zm42 42h-8.5l21.5 21.5h8.5l-21.5-21.5Zm-22-42 17.5 17.5h-8.5L997 267h8.5Zm33 33h-8.5l41.5 41.5h8.5l-41.5-41.5Zm-20-41 17.5 17.5h-8.5L1010 259h8.5Zm34 34h-8.5l57 57h8.5l-57-57Zm-22-43 17.5 17.5h-8.5L1022 250h8.5Zm33 34h-8.5l72 72h8.5l-72-72Zm-22-44 17.5 17.5h-8.5L1033 240h8.5Zm50 52-15-15h-8.5l15 15h8.5Zm37 37 30 30h-8.5l-30-30h8.5Zm-79-98h-8.5l18.5 18.5h8.5l-18.5-18.5Zm40 39 14.5 14.5h-8.5L1081 270h8.5Zm63 63h-8.5l27.5 27.5h8.5l-27.5-27.5Zm-52-72h-8.5l16.5 16.5h8.5l-16.5-16.5Zm71 72 26.5 26.5h-8.5L1163 333h8.5Zm-57-78 16 16h-8.5l-16-16h8.5Zm96.5 97.5-24.5-24.5h-8.5l24.5 24.5h8.5ZM1124.5 246h-8.5l18.5 18.5h8.5l-18.5-18.5Zm76 75 22 22h-8.5l-22-22h8.5Zm-62-83 19.5 19.5h-8.5L1130 238h8.5Zm32 32h-8.5l5 5h8.5l-5-5Zm39 40 23 23h-8.5l-23-23h8.5Zm-59-79 19.5 19.5h-8.5L1142 231h8.5Zm40 40-7-7h-8.5l7 7h8.5Zm21.5 29h8.5l23.5 23.5h-8.5L1212 300Zm-48.5-77 20 20h-8.5l-20-20h8.5Zm34 34h-8.5l8 8h8.5l-8-8Zm31 31 23 23h-8.5l-23-23h8.5Zm-53-73 22 22h-8.5l-22-22h8.5Zm35 36h-8.5l10.5 10.5h8.5l-10.5-10.5Zm24 24 24 24h-8.5l-24-24h8.5Zm-46-67 22.5 22.5h-8.5L1180 208h8.5Zm41 49.5h8.5l-13-13h-8.5l13 13Zm16 7.5 22.5 22.5h-8.5L1237 265h8.5Zm-44-63 22.5 22.5h-8.5L1193 202h8.5Zm36 36h-8.5l36.5 36.5h8.5l-36.5-36.5Zm-22-43h-8.5l22.5 22.5h8.5l-22.5-22.5Zm36 37 29.5 29.5h-8.5L1243 232h8.5Zm-22-43 22.5 22.5h-8.5L1221 189h8.5Zm36 36h-8.5l22.5 22.5h8.5l-22.5-22.5Zm-23-43h-8.5l23.5 23.5h8.5l-23.5-23.5Zm37 37 15 15h-8.5l-15-15h8.5Zm-20-40 20 20h-8.5l-20-20h8.5Zm36 36h-8.5l5.5 5.5h8.5l-5.5-5.5Zm-22-42h-8.5l20 20h8.5l-20-20Zm15-4h-8.5l18 18h8.5l-18-18Zm18-3h-8.5l13.5 13.5h8.5l-13.5-13.5Zm17-3h-8.5l9 9h8.5l-9-9Zm-399 82 115 115h-8.5L916 245h8.5Z"/></mask><path d="m1282.5 121 6.5 6.5h-8.5l-6.5-6.5h8.5Zm-19 1 11.5 11.5h-8.5L1255 122h8.5Zm-18 3 13 13h-8.5l-13-13h8.5Zm-17 2 16 16h-8.5l-16-16h8.5Zm-17 3h-8.5l20 20h8.5l-20-20Zm-18 3 23.5 23.5h-8.5L1185 133h8.5Zm-16 4h-8.5l26.5 26.5h8.5l-26.5-26.5Zm-14 6 28 28h-8.5l-28-28h8.5Zm-16 5h-8.5l30 30h8.5l-30-30Zm-12 8h-8.5l29.5 29.5h8.5l-29.5-29.5Zm-10 9h-8.5l27 27h8.5l-27-27Zm-13 8h-8.5l26.5 26.5h8.5l-26.5-26.5Zm-11 9h-8.5l27 27h8.5l-27-27Zm-10 10h-8.5l24.5 24.5h8.5l-24.5-24.5Zm-10 10 23 23h-8.5l-23-23h8.5Zm-10 10h-8.5l20 20h8.5l-20-20Zm-11 10 20 20h-8.5l-20-20h8.5Zm-193 8H859l76.5 76.5h8.5L867.5 230Zm-5 22 44.5 44.5h8.5L871 252h-8.5Zm109 61 20.5 20.5h-8.5L963 313h8.5Zm-18-58H945l49 49h8.5l-49-49Zm32 12 26.5 26.5h-8.5L977 267h8.5Zm42 42h-8.5l21.5 21.5h8.5l-21.5-21.5Zm-22-42 17.5 17.5h-8.5L997 267h8.5Zm33 33h-8.5l41.5 41.5h8.5l-41.5-41.5Zm-20-41 17.5 17.5h-8.5L1010 259h8.5Zm34 34h-8.5l57 57h8.5l-57-57Zm-22-43 17.5 17.5h-8.5L1022 250h8.5Zm33 34h-8.5l72 72h8.5l-72-72Zm-22-44 17.5 17.5h-8.5L1033 240h8.5Zm50 52-15-15h-8.5l15 15h8.5Zm37 37 30 30h-8.5l-30-30h8.5Zm-79-98h-8.5l18.5 18.5h8.5l-18.5-18.5Zm40 39 14.5 14.5h-8.5L1081 270h8.5Zm63 63h-8.5l27.5 27.5h8.5l-27.5-27.5Zm-52-72h-8.5l16.5 16.5h8.5l-16.5-16.5Zm71 72 26.5 26.5h-8.5L1163 333h8.5Zm-57-78 16 16h-8.5l-16-16h8.5Zm96.5 97.5-24.5-24.5h-8.5l24.5 24.5h8.5ZM1124.5 246h-8.5l18.5 18.5h8.5l-18.5-18.5Zm76 75 22 22h-8.5l-22-22h8.5Zm-62-83 19.5 19.5h-8.5L1130 238h8.5Zm32 32h-8.5l5 5h8.5l-5-5Zm39 40 23 23h-8.5l-23-23h8.5Zm-59-79 19.5 19.5h-8.5L1142 231h8.5Zm40 40-7-7h-8.5l7 7h8.5Zm21.5 29h8.5l23.5 23.5h-8.5L1212 300Zm-48.5-77 20 20h-8.5l-20-20h8.5Zm34 34h-8.5l8 8h8.5l-8-8Zm31 31 23 23h-8.5l-23-23h8.5Zm-53-73 22 22h-8.5l-22-22h8.5Zm35 36h-8.5l10.5 10.5h8.5l-10.5-10.5Zm24 24 24 24h-8.5l-24-24h8.5Zm-46-67 22.5 22.5h-8.5L1180 208h8.5Zm41 49.5h8.5l-13-13h-8.5l13 13Zm16 7.5 22.5 22.5h-8.5L1237 265h8.5Zm-44-63 22.5 22.5h-8.5L1193 202h8.5Zm36 36h-8.5l36.5 36.5h8.5l-36.5-36.5Zm-22-43h-8.5l22.5 22.5h8.5l-22.5-22.5Zm36 37 29.5 29.5h-8.5L1243 232h8.5Zm-22-43 22.5 22.5h-8.5L1221 189h8.5Zm36 36h-8.5l22.5 22.5h8.5l-22.5-22.5Zm-23-43h-8.5l23.5 23.5h8.5l-23.5-23.5Zm37 37 15 15h-8.5l-15-15h8.5Zm-20-40 20 20h-8.5l-20-20h8.5Zm36 36h-8.5l5.5 5.5h8.5l-5.5-5.5Zm-22-42h-8.5l20 20h8.5l-20-20Zm15-4h-8.5l18 18h8.5l-18-18Zm18-3h-8.5l13.5 13.5h8.5l-13.5-13.5Zm17-3h-8.5l9 9h8.5l-9-9Zm-399 82 115 115h-8.5L916 245h8.5Z" stroke="#fff" stroke-width="2" mask="url(#Device Type=ROG Ally, View=Back-paddles__b)"/></g></svg>