<svg width="1646" height="690" fill="none" xmlns="http://www.w3.org/2000/svg"><path opacity=".2" d="M125.133 31.927c-9.01 0-80.588 68.275-84.092 74.299-1.649 2.836-3.52 36.923-5.873 79.804-2.647 48.226-5.905 107.575-10.144 146.107-6.407 58.234-9.677 153.116-10.511 193.278 12.68 30.122 39.943 94.38 47.551 110.445 9.51 20.081 19.521 38.154 66.072 34.138 37.24-3.213 152.999-3.682 206.223-3.514h977.061c53.22-.168 168.98.301 206.22 3.514 46.55 4.016 56.56-14.057 66.07-34.138 7.61-16.065 34.87-80.323 47.55-110.445-.83-40.162-4.1-135.044-10.51-193.278-4.24-38.532-7.49-97.881-10.14-146.107-2.35-42.881-4.22-76.968-5.87-79.804-3.51-6.024-75.09-74.299-84.1-74.299H125.133Z" stroke="#fff" stroke-width=".5"/><path d="M278.298 27.91c6.507 0 12.013-3.514 12.013-10.04s-.5-16.065-52.056-16.065c-9.822 0-20.152-.182-30.579-.366-44.307-.781-90.363-1.594-106.57 11.41-20.022 16.065-36.54 34.139-38.542 41.167-.483 1.696-1.404 4.182-2.452 7.013-3.295 8.898-7.852 21.204-4.055 23.108 5.006 2.51 8.009.502 17.019-8.032 4.577-4.336 14.323-13.078 23.33-21.157 8.719-7.822 16.745-15.021 18.715-16.997 4.005-4.016 15.517-10.04 33.537-10.04h129.64Zm1089.182 0c-6.51 0-12.01-3.514-12.01-10.04s.5-16.065 52.05-16.065c9.82 0 20.15-.182 30.58-.366 44.31-.781 90.36-1.594 106.57 11.41 20.02 16.065 36.54 34.139 38.54 41.167.49 1.696 1.41 4.182 2.45 7.013 3.3 8.898 7.86 21.204 4.06 23.108-5.01 2.51-8.01.502-17.02-8.032-4.58-4.336-14.32-13.078-23.33-21.157-8.72-7.822-16.74-15.021-18.71-16.997-4.01-4.016-15.52-10.04-33.54-10.04h-129.64Z" opacity=".2" stroke="#fff" stroke-width="2"/><path d="M277.735 28.151c6.507 0 12.013-3.514 12.013-10.04s-.501-16.065-52.057-16.065c-9.822 0-20.152-.182-30.579-.366C162.805.9 116.75.087 100.543 13.09c-20.022 16.067-36.54 34.14-38.542 41.168-.483 1.697-1.404 4.182-2.452 7.013-3.295 8.898-7.853 21.204-4.055 23.109 5.005 2.51 8.008.502 17.018-8.033 4.578-4.336 14.324-13.078 23.33-21.157 8.72-7.821 16.746-15.02 18.716-16.996 4.004-4.017 15.517-10.041 33.536-10.041h129.641Zm1089.175 0c-6.5 0-12.01-3.514-12.01-10.04s.5-16.065 52.06-16.065c9.82 0 20.15-.182 30.58-.366 44.3-.781 90.36-1.593 106.57 11.41 20.02 16.066 36.54 34.139 38.54 41.167.48 1.697 1.4 4.182 2.45 7.013 3.3 8.898 7.85 21.204 4.06 23.109-5.01 2.51-8.01.502-17.02-8.033-4.58-4.336-14.33-13.078-23.33-21.157-8.72-7.821-16.75-15.02-18.72-16.996-4-4.017-15.51-10.041-33.53-10.041h-129.65Z" opacity=".2" stroke="#fff" stroke-width="2"/><path opacity=".2" d="M288.629 23.393v-3h-1.543l-.898 1.256 2.441 1.744ZM115.122 37.95l2.124 2.118-2.124-2.118ZM96.406 54.948 98.4 57.19l.009-.008-2.003-2.233Zm0 0-1.996-2.24-.008.008 2.003 2.233Zm-23.33 21.157-2.063-2.178 2.063 2.178Zm-17.019 8.032-1.344 2.682 1.344-2.682Zm-1.043-1.156 2.745-1.21-1.73-3.927-3.094 2.974 2.08 2.163Zm-7.855 7.683 2.124 2.118-2.124-2.118ZM30.832 128.46l-2.962-.474 2.962.474Zm-2.694 16.421 2.958.504-2.958-.504ZM6.114 373.804l-2.991-.222 2.991.222ZM5.63 515.537l2.99-.254-2.99.254Zm45.533 127.352-2.704 1.298 2.704-1.298Zm109.634 39.448.286 2.987-.286-2.987Zm56.547-4.307.088 2.999-.088-2.999Zm460.499-.323h3v-2.998l-2.998-.002-.002 3Zm0 .323h-3v3.004l3.004-.004-.004-3ZM823 677.849l.003-3h-.006l.003 3Zm145.157.181-.004 3 3.004.004v-3.004h-3Zm0-.323-.003-3-2.997.002v2.998h3Zm460.503.323-.09 2.999.09-2.999Zm56.54 4.307-.28 2.987.28-2.987Zm109.64-39.448-2.71-1.299 2.71 1.299Zm45.53-127.352 2.99.254-2.99-.254Zm-.48-141.733-3 .223 3-.223Zm-22.03-228.922 2.96-.503-2.96.503Zm-2.69-16.421 2.96-.474-2.96.474Zm-16.33-37.797 2.13-2.118-2.13 2.118Zm-8.01-7.837 2.07-2.163-3.26-3.133-1.62 4.222 2.81 1.074Zm-1.11 1.31 1.34 2.682-1.34-2.682Zm-17.02-8.032-2.06 2.178 2.06-2.178Zm-23.32-21.153 2-2.233-.01-.005v-.006l-1.99 2.244Zm-.01-.004-2 2.233v.006l.01.005 1.99-2.244Zm-18.71-16.997-2.13 2.118 2.13-2.118Zm-173.51-14.558 2.44-1.744-.9-1.256h-1.54v3ZM278.298 30.91c4.954 0 9.919-1.78 12.772-5.773l-4.882-3.488c-1.379 1.93-4.186 3.261-7.89 3.261v6Zm-129.64 0h129.64v-6h-129.64v6Zm-31.412 9.16c3.295-3.306 13.956-9.16 31.412-9.16v-6c-18.583 0-30.948 6.196-35.661 10.923l4.249 4.236ZM98.409 57.18c8.661-7.769 16.789-15.058 18.837-17.111l-4.249-4.237c-1.892 1.898-9.816 9.008-18.594 16.882l4.006 4.466Zm-.01.009.001-.001-3.989-4.482L98.4 57.19ZM75.14 78.282c4.54-4.3 14.244-13.005 23.27-21.101l-4.007-4.467c-8.987 8.062-18.774 16.84-23.39 21.212l4.127 4.356ZM54.713 86.82c1.495.75 3.06 1.274 4.765 1.321 1.727.048 3.343-.399 4.932-1.195 2.977-1.493 6.313-4.478 10.729-8.662l-4.126-4.356c-4.593 4.351-7.265 6.637-9.293 7.654-.914.459-1.55.576-2.075.562-.548-.016-1.236-.182-2.243-.687l-2.69 5.363Zm-2.444-2.629c.457 1.038 1.236 2.023 2.444 2.63l2.69-5.364a.966.966 0 0 1 .282.214c.066.074.083.12.075.101l-5.491 2.42Zm.666-3.372a533.41 533.41 0 0 0-7.9 7.728l4.248 4.236a519.72 519.72 0 0 1 7.81-7.638l-4.158-4.326Zm-7.9 7.728c-6.06 6.077-9.59 9.748-11.91 15.195-2.24 5.256-3.311 12.096-5.255 24.246l5.924.948c2.003-12.517 2.974-18.436 4.85-22.842 1.796-4.215 4.456-7.109 10.64-13.311l-4.25-4.236Zm-17.165 39.44c-.733 4.578-1.595 9.964-2.69 16.392l5.916 1.007a1595.8 1595.8 0 0 0 2.698-16.451l-5.924-.948Zm-2.69 16.392c-7.036 41.337-15.054 134.877-22.057 229.203l5.983.445c7.012-94.434 15.011-187.647 21.99-228.641l-5.915-1.007ZM3.124 373.582c-5.858 78.898-1.949 124.952-.482 142.209l5.978-.508c-1.449-17.052-5.34-62.771.487-141.256l-5.983-.445ZM2.64 515.791c.298 3.508.473 5.608.473 6.612h6c0-1.332-.211-3.789-.495-7.12l-5.978.508Zm.473 6.612c0 .823.206 1.879.441 2.892a77.121 77.121 0 0 0 1.082 4.032c.918 3.144 2.235 7.244 3.844 12.014 3.22 9.547 7.642 21.878 12.466 34.822 9.634 25.849 20.939 54.332 27.512 68.024l5.409-2.597c-6.441-13.417-17.661-41.663-27.298-67.522-4.811-12.91-9.211-25.178-12.404-34.645-1.598-4.737-2.885-8.748-3.77-11.778a71.469 71.469 0 0 1-.996-3.706 18.63 18.63 0 0 1-.233-1.136c-.051-.31-.053-.421-.053-.4h-6ZM48.46 644.187c13.322 27.751 34.202 44.875 60.767 44.875v-6c-23.49 0-42.652-15.005-55.358-41.472l-5.41 2.597Zm60.767 44.875c12.882 0 31.947-1.83 51.857-3.738l-.572-5.973c-20.043 1.921-38.761 3.711-51.285 3.711v6Zm51.857-3.738c19.412-1.861 39.707-3.804 56.349-4.295l-.177-5.998c-16.881.498-37.392 2.465-56.744 4.32l.572 5.973Zm56.349-4.295c18.218-.538 242.532-.504 460.408-.322l.005-6c-217.774-.182-442.251-.217-460.59.324l.177 5.998Zm457.411-3.322v.323h6v-.323h-6Zm3.004 3.323c42.051-.059 91.715-.122 145.156-.181l-.006-6c-53.443.059-103.106.122-145.158.181l.008 6Zm145.15-.181c53.441.059 103.105.122 145.156.181l.008-6c-42.052-.059-91.716-.122-145.158-.181l-.006 6Zm148.16-2.819v-.323h-6v.323h6Zm-2.998 2.677c217.881-.182 442.191-.216 460.411.322l.17-5.998c-18.33-.541-242.81-.506-460.586-.324l.005 6Zm460.411.322c16.64.491 36.93 2.434 56.35 4.295l.57-5.973c-19.35-1.855-39.86-3.822-56.75-4.32l-.17 5.998Zm56.35 4.295c19.91 1.908 38.97 3.738 51.85 3.738v-6c-12.52 0-31.24-1.79-51.28-3.711l-.57 5.973Zm51.85 3.738c26.57 0 47.45-17.124 60.77-44.875l-5.41-2.597c-12.7 26.467-31.87 41.472-55.36 41.472v6Zm60.77-44.875c6.57-13.692 17.88-42.175 27.51-68.024 4.83-12.944 9.25-25.275 12.47-34.822 1.61-4.77 2.93-8.87 3.84-12.014.46-1.569.83-2.93 1.08-4.032.24-1.013.45-2.069.45-2.892h-6c0-.021-.01.09-.06.4-.04.285-.12.662-.23 1.136a65.6 65.6 0 0 1-1 3.706c-.88 3.03-2.17 7.041-3.77 11.778-3.19 9.467-7.59 21.735-12.4 34.645-9.64 25.859-20.86 54.105-27.3 67.522l5.41 2.597Zm45.35-121.784c0-1.004.17-3.104.47-6.612l-5.98-.508c-.28 3.331-.49 5.788-.49 7.12h6Zm.47-6.612c1.47-17.257 5.38-63.311-.48-142.209l-5.99.445c5.83 78.485 1.94 124.204.49 141.256l5.98.508Zm-.48-142.209c-7.01-94.326-15.02-187.866-22.06-229.203l-5.92 1.007c6.98 40.994 14.98 134.207 21.99 228.641l5.99-.445Zm-22.06-229.203c-1.1-6.428-1.96-11.814-2.69-16.392l-5.92.948c.73 4.579 1.59 9.99 2.69 16.451l5.92-1.007Zm-2.69-16.392c-1.94-12.15-3.02-18.99-5.25-24.246-2.33-5.447-5.86-9.118-11.91-15.195l-4.25 4.236c6.18 6.202 8.84 9.096 10.64 13.311 1.87 4.406 2.84 10.325 4.85 22.842l5.92-.948Zm-17.16-39.441a560.021 560.021 0 0 0-8.07-7.882l-4.15 4.327c2.99 2.874 5.69 5.51 7.97 7.79l4.25-4.236Zm-12.95-6.793c-.01.05-.01.013.06-.063a.879.879 0 0 1 .29-.234l2.69 5.363c1.33-.667 2.13-1.786 2.57-2.918l-5.61-2.148Zm.35-.297c-1 .505-1.69.671-2.24.687-.52.014-1.16-.103-2.07-.562-2.03-1.017-4.7-3.303-9.3-7.654l-4.12 4.356c4.41 4.183 7.75 7.168 10.73 8.662 1.59.796 3.2 1.243 4.93 1.195 1.7-.047 3.27-.57 4.76-1.32l-2.69-5.364Zm-13.61-7.529c-4.61-4.371-14.4-13.148-23.38-21.208l-4.01 4.466c9.03 8.095 18.73 16.799 23.27 21.098l4.12-4.356Zm-23.39-21.219-.01-.003-3.98 4.487v.004l3.99-4.488Zm0 .007c-8.77-7.874-16.7-14.984-18.59-16.882l-4.25 4.236c2.05 2.054 10.18 9.343 18.84 17.112l4-4.466Zm-18.59-16.882c-4.71-4.727-17.08-10.923-35.66-10.923v6c17.46 0 28.12 5.854 31.41 9.16l4.25-4.237Zm-35.66-10.923h-129.64v6h129.64v-6Zm-129.64 0c-3.7 0-6.51-1.33-7.89-3.261l-4.88 3.488c2.85 3.994 7.82 5.773 12.77 5.773v-6Zm-10.33-4.517H288.629v6H1357.15v-6Z" fill="#fff"/><path opacity=".2" d="M847.436 21.889c.253-2.808 2.611-5.025 5.478-5.025h46.063c2.867 0 5.225 2.217 5.478 5.025h-57.019Zm79.086 0c.253-2.808 2.611-5.025 5.478-5.025h46.063c2.867 0 5.225 2.217 5.478 5.025h-57.019Z" stroke="#fff"/><g opacity=".2" stroke="#fff"><circle cx="1417.05" cy="308.353" r="79.579" stroke-width=".942"/><circle cx="1417.05" cy="308.352" r="63.569" stroke-width=".942"/><circle cx="1417.05" cy="308.352" r="50.297" stroke-width="3"/><circle cx="1417.05" cy="308.352" r="30.607" stroke-width=".942"/></g><g opacity=".2" stroke="#fff"><circle cx="140.05" cy="151.353" r="79.579" stroke-width=".942"/><circle cx="140.05" cy="151.352" r="63.569" stroke-width=".942"/><circle cx="140.051" cy="151.352" r="50.297" stroke-width="3"/><circle cx="140.051" cy="151.352" r="30.607" stroke-width=".942"/></g><g opacity=".2" stroke="#fff"><circle cx="242" cy="284.303" r="65.529" stroke-width=".942"/><path d="M301.908 305.203c1.621 0 3.071-1.035 3.52-2.592A66.032 66.032 0 0 0 308 284.303c0-6.352-.897-12.495-2.572-18.308-.449-1.558-1.899-2.592-3.52-2.592h-37.124a1.884 1.884 0 0 1-1.884-1.884v-37.124c0-1.621-1.034-3.071-2.592-3.52A66.032 66.032 0 0 0 242 218.303c-6.352 0-12.495.897-18.308 2.572-1.558.449-2.592 1.899-2.592 3.52v37.124c0 1.04-.843 1.884-1.884 1.884h-37.124c-1.621 0-3.071 1.034-3.52 2.592A66.032 66.032 0 0 0 176 284.303c0 6.352.897 12.495 2.572 18.308.449 1.557 1.899 2.592 3.52 2.592h37.124c1.041 0 1.884.843 1.884 1.883v37.125c0 1.621 1.034 3.071 2.592 3.519A66.032 66.032 0 0 0 242 350.303c6.352 0 12.495-.898 18.308-2.573 1.558-.448 2.592-1.898 2.592-3.519v-37.125c0-1.04.843-1.883 1.884-1.883h37.124Z" stroke-width="3"/></g><rect opacity=".2" x="340.864" y="35.937" width="966.05" height="621.516" rx="4.5" stroke="#fff" stroke-width="3"/><path opacity=".2" stroke="#fff" stroke-width="3" d="M369.896 89.152h905.985v512.075H369.896z"/><path d="M284.747 19c-5.41-1.978-16.162-5.91-36.608-5.91h-101.61c-18.02 0-29.032 6.287-33.036 10.303-.428.429-1.613 1.381-3.29 2.728-6.045 4.857-18.47 14.84-24.74 23.879-5.28 4.736-7.247 11.483-8.893 17.13-1.162 3.985-2.164 7.422-4.058 9.216-9.01 8.535-12.013 10.543-17.018 8.033-3.798-1.905.76-14.21 4.054-23.108v-.001l.001-.002c1.048-2.83 1.969-5.315 2.452-7.01 2.002-7.029 18.52-25.102 38.542-41.167C116.75.087 162.805.899 207.112 1.68c10.427.183 20.758.365 30.579.365 51.556 0 52.057 9.539 52.057 16.065 0 2.718-1.14 2.301-5.001.89Zm1075.723 0c5.41-1.978 16.16-5.91 36.6-5.91h101.61c18.02 0 29.04 6.287 33.04 10.303.43.429 1.61 1.381 3.29 2.728 6.05 4.857 18.47 14.84 24.74 23.879 5.28 4.736 7.25 11.483 8.89 17.13 1.17 3.985 2.17 7.422 4.06 9.216 9.01 8.535 12.01 10.543 17.02 8.033 3.8-1.905-.76-14.21-4.05-23.108l-.01-.001v-.002c-1.04-2.83-1.96-5.315-2.45-7.01-2-7.029-18.52-25.102-38.54-41.167C1528.46.087 1482.41.899 1438.1 1.68c-10.43.183-20.76.365-30.58.365-51.55 0-52.05 9.539-52.05 16.065 0 2.718 1.14 2.301 5 .89ZM295.816 102.243c0-2.39 2.343-4.077 4.61-3.32l31.042 10.379a3.5 3.5 0 0 1 2.391 3.319v31.244a3.501 3.501 0 0 1-2.548 3.368l-31.042 8.781a3.5 3.5 0 0 1-4.453-3.368v-50.403Zm1056.144 0c0-2.39-2.34-4.077-4.61-3.32l-31.04 10.379a3.496 3.496 0 0 0-2.39 3.319v31.244a3.5 3.5 0 0 0 2.55 3.368l31.04 8.781c2.23.632 4.45-1.046 4.45-3.368v-50.403ZM333.859 164.494c0-2.391-2.342-4.078-4.609-3.32l-31.043 10.378a3.501 3.501 0 0 0-2.39 3.32v31.244a3.498 3.498 0 0 0 2.547 3.367l31.043 8.782a3.5 3.5 0 0 0 4.452-3.368v-50.403Zm980.061 0c0-2.391 2.34-4.078 4.61-3.32l31.04 10.378a3.498 3.498 0 0 1 2.39 3.32v31.244a3.498 3.498 0 0 1-2.55 3.367l-31.04 8.782c-2.23.632-4.45-1.046-4.45-3.368v-50.403Z" opacity=".2" stroke="#fff"/><path d="M1395.2 448.551v-4.378l13-9.63v4.378l-13 9.63Zm-18.5 8.624 15-10.781v4.384l-15 10.781v-4.384Zm31.5-4.256-31.5 22.641v-4.385l31.5-22.64v4.384Zm-67.5 53.641v-4.385l31.5-22.64v4.384l-31.5 22.641Zm0-18.385 15-10.781v4.384l-15 10.781v-4.384Zm0 130.384v-4.384l15-10.781v4.384l-15 10.781Zm36-31v-4.384l15-10.781v4.384l-15 10.781Zm-17.5-112.386 13-9.63v4.378l-13 9.63v-4.378Zm0 130.378v-4.378l13-9.63v4.378l-13 9.63Zm36-31v-4.378l13-9.63v4.378l-13 9.63Zm-54.5-58.376 31.5-22.64v4.384l-31.5 22.641v-4.385Zm36-31 31.5-22.64v4.384l-31.5 22.641v-4.385Zm-36 45 31.5-22.64v4.384l-31.5 22.641v-4.385Zm36-31 31.5-22.64v4.384l-31.5 22.641v-4.385Zm-36 45 31.5-22.64v4.384l-31.5 22.641v-4.385Zm36-31 31.5-22.64v4.384l-31.5 22.641v-4.385Zm-36 45 31.5-22.64v4.384l-31.5 22.641v-4.385Zm67.5-49.256-31.5 22.641v-4.385l31.5-22.64v4.384Zm-67.5 63.256 31.5-22.64v4.384l-31.5 22.641v-4.385Zm36-26.615v-4.385l31.5-22.64v4.384l-31.5 22.641Zm-36 40.615 31.5-22.64v4.384l-31.5 22.641v-4.385Zm36-26.615v-4.385l31.5-22.64v4.384l-31.5 22.641Zm-36 40.615 31.5-22.64v4.384l-31.5 22.641v-4.385Zm36-26.615v-4.385l31.5-22.64v4.384l-31.5 22.641ZM239.25 437.177v-4.378l13 9.63v4.377l-13-9.629Zm16.5 11.857v-4.384l15 10.781v4.384l-15-10.781Zm15 24.781-31.5-22.64v-4.385l31.5 22.641v4.384Zm4.5 3.975 31.5 22.641v4.384l-31.5-22.64v-4.385Zm16.5-2.14 15 10.781v4.384l-15-10.781v-4.384Zm15 141.165-15-10.781v-4.384l15 10.781v4.384Zm-36-35.384v4.384l-15-10.781v-4.384l15 10.781Zm17.5-103.625-13-9.629v-4.378l13 9.63v4.377Zm-13 111.993 13 9.63v4.377l-13-9.629v-4.378Zm-36-26.622v-4.378l13 9.63v4.377l-13-9.629Zm36-71.387 31.5 22.641v4.384l-31.5-22.64v-4.385Zm-36-31 31.5 22.641v4.384l-31.5-22.64v-4.385Zm36 45 31.5 22.641v4.384l-31.5-22.64v-4.385Zm-36-26.615v-4.385l31.5 22.641v4.384l-31.5-22.64Zm36 40.615 31.5 22.641v4.384l-31.5-22.64v-4.385Zm-36-26.615v-4.385l31.5 22.641v4.384l-31.5-22.64Zm36 40.615 31.5 22.641v4.384l-31.5-22.64v-4.385Zm-36-26.615v-4.385l31.5 22.641v4.384l-31.5-22.64Zm36 40.615 31.5 22.641v4.384l-31.5-22.64v-4.385Zm-36-26.615v-4.385l31.5 22.641v4.384l-31.5-22.64Zm36 40.615 31.5 22.641v4.384l-31.5-22.64v-4.385Zm-36-26.615v-4.385l31.5 22.641v4.384l-31.5-22.64Zm36 40.615 31.5 22.641v4.384l-31.5-22.64v-4.385Zm-36-26.615v-4.385l31.5 22.641v4.384l-31.5-22.64Z" stroke="#fff" stroke-width=".5" opacity=".2"/><g opacity=".2"><circle cx="1488" cy="140.303" r="103" stroke="#fff" stroke-width="2"/><circle cx="1489.5" cy="83.803" r="32.5" stroke="#fff" stroke-width="2"/><circle cx="1489.5" cy="199.803" r="32.5" stroke="#fff" stroke-width="2"/><circle cx="1548.5" cy="140.803" r="32.5" stroke="#fff" stroke-width="2"/><circle cx="1431.5" cy="140.803" r="32.5" stroke="#fff" stroke-width="2"/><path d="M1486.41 98.303v-8.825l-10.6-16.769h7.22l5.91 10.441c.15.282.31.592.47.932.17.34.32.68.46 1.02h.14l.42-1.02c.15-.34.31-.65.46-.932l5.99-10.441h6.38l-10.31 16.611v8.983h-6.54Zm-11.8 114 10.92-25.682h6.91l10.95 25.682h-7.28l-6.49-17.385c-.21-.598-.4-1.166-.58-1.705a70.91 70.91 0 0 0-.47-1.459h-.14c-.14.422-.29.914-.46 1.476-.16.551-.36 1.114-.59 1.688l-6.49 17.385h-6.28Zm5.63-5.203 1.47-4.184h14.08l1.52 4.184h-17.07Zm57.55-52.797v-25.594h12.2c3.2 0 5.65.533 7.35 1.6 1.7 1.054 2.55 2.683 2.55 4.886 0 1.477-.34 2.69-1.02 3.639a5.37 5.37 0 0 1-2.67 1.986v.071c1.45.339 2.59 1.031 3.43 2.074.84 1.031 1.26 2.431 1.26 4.201 0 2.332-.94 4.107-2.83 5.326-1.88 1.207-4.4 1.811-7.54 1.811h-12.73Zm6.44-3.938h5.39c1.59 0 2.76-.316 3.54-.949.78-.645 1.18-1.6 1.18-2.865 0-1.207-.4-2.127-1.18-2.76-.78-.633-1.95-.949-3.54-.949h-5.39v7.523Zm0-10.863h4.89c1.53 0 2.65-.281 3.35-.844.72-.574 1.07-1.412 1.07-2.513 0-1.125-.35-1.969-1.05-2.532-.7-.562-1.83-.843-3.37-.843h-4.89v6.732Zm-125.32 14.801 10.62-14.449h1.41l7.38-11.145h6.26l-9.78 13.957-1.42.018-8.03 11.619h-6.44Zm.2-25.594h7.73l7.61 10.986h.09l10.88 14.608h-7.88l-8.06-11.461-.04-.018-10.33-14.115Z" fill="#fff"/></g></svg>