<svg width="1646" height="689" fill="none" xmlns="http://www.w3.org/2000/svg"><path d="M125.133 31.865c-9.01 0-80.588 68.275-84.092 74.299-1.649 2.836-3.52 36.922-5.873 79.804-2.647 48.226-5.905 107.575-10.144 146.106-6.407 58.235-9.677 153.117-10.511 193.279 12.68 30.121 39.943 94.38 47.551 110.445 9.51 20.081 19.521 38.154 66.072 34.137 37.24-3.213 152.999-3.681 206.223-3.514h977.061c53.22-.167 168.98.301 206.22 3.514 46.55 4.017 56.56-14.056 66.07-34.137 7.61-16.065 34.87-80.324 47.55-110.445-.83-40.162-4.1-135.044-10.51-193.279-4.24-38.531-7.49-97.88-10.14-146.106-2.35-42.882-4.22-76.968-5.87-79.804-3.51-6.024-75.09-74.3-84.1-74.3H125.133Z" stroke="#fff" stroke-width=".5"/><path d="M278.298 27.848c6.507 0 12.013-3.514 12.013-10.04 0-6.527-.5-16.065-52.056-16.065-9.822 0-20.152-.183-30.579-.366-44.307-.782-90.363-1.594-106.57 11.41-20.022 16.065-36.54 34.138-38.542 41.167-.483 1.696-1.404 4.181-2.452 7.012-3.295 8.898-7.852 21.205-4.055 23.109 5.006 2.51 8.009.502 17.019-8.032 4.577-4.337 14.323-13.079 23.33-21.157 8.719-7.822 16.745-15.022 18.715-16.997 4.005-4.016 15.517-10.041 33.537-10.041h129.64Zm1089.182 0c-6.51 0-12.01-3.514-12.01-10.04 0-6.527.5-16.065 52.05-16.065 9.82 0 20.15-.183 30.58-.366 44.31-.782 90.36-1.594 106.57 11.41 20.02 16.065 36.54 34.138 38.54 41.167.49 1.696 1.41 4.181 2.45 7.012 3.3 8.898 7.86 21.205 4.06 23.109-5.01 2.51-8.01.502-17.02-8.032-4.58-4.337-14.32-13.079-23.33-21.157-8.72-7.822-16.74-15.022-18.71-16.997-4.01-4.016-15.52-10.041-33.54-10.041h-129.64Z" stroke="#fff" stroke-width="2"/><path d="M277.735 28.089c6.507 0 12.013-3.514 12.013-10.04 0-6.527-.501-16.065-52.057-16.065-9.822 0-20.152-.182-30.579-.366C162.805.836 116.75.024 100.543 13.028c-20.022 16.065-36.54 34.139-38.542 41.167-.483 1.696-1.404 4.182-2.452 7.012-3.295 8.898-7.853 21.205-4.055 23.11 5.005 2.51 8.008.501 17.018-8.033 4.578-4.336 14.324-13.079 23.33-21.157 8.72-7.822 16.746-15.021 18.716-16.997 4.004-4.016 15.517-10.041 33.536-10.041h129.641Zm1089.175 0c-6.5 0-12.01-3.514-12.01-10.04 0-6.527.5-16.065 52.06-16.065 9.82 0 20.15-.182 30.58-.366 44.3-.782 90.36-1.594 106.57 11.41 20.02 16.065 36.54 34.139 38.54 41.167.48 1.696 1.4 4.182 2.45 7.012 3.3 8.898 7.85 21.205 4.06 23.11-5.01 2.51-8.01.501-17.02-8.033-4.58-4.336-14.33-13.079-23.33-21.157-8.72-7.822-16.75-15.021-18.72-16.997-4-4.016-15.51-10.041-33.53-10.041h-129.65Z" stroke="#fff" stroke-width="2"/><path d="M288.629 23.33v-3h-1.543l-.898 1.256 2.441 1.744ZM115.122 37.89l2.124 2.118-2.124-2.118ZM96.406 54.886l1.994 2.24.009-.007-2.003-2.233Zm0 0-1.996-2.24-.008.007 2.003 2.233Zm-23.33 21.156-2.063-2.178 2.063 2.178Zm-17.019 8.033-1.344 2.681 1.344-2.681Zm-1.043-1.157 2.745-1.21-1.73-3.927-3.094 2.974 2.08 2.163Zm-7.855 7.683 2.124 2.118-2.124-2.118Zm-16.327 37.797-2.962-.474 2.962.474Zm-2.694 16.422 2.958.503-2.958-.503ZM6.114 373.742l-2.991-.222 2.991.222ZM5.63 515.474l2.99-.254-2.99.254Zm45.533 127.352-2.704 1.298 2.704-1.298Zm109.634 39.449.286 2.986-.286-2.986Zm56.547-4.307.088 2.998-.088-2.998Zm460.499-.324h3v-2.998l-2.998-.002-.002 3Zm0 .324h-3v3.004l3.004-.004-.004-3ZM823 677.786l.003-3h-.006l.003 3Zm145.157.182-.004 3 3.004.004v-3.004h-3Zm0-.324-.003-3-2.997.002v2.998h3Zm460.503.324-.09 2.998.09-2.998Zm56.54 4.307-.28 2.986.28-2.986Zm109.64-39.449-2.71-1.298 2.71 1.298Zm45.53-127.352 2.99.254-2.99-.254Zm-.48-141.732-3 .222 3-.222Zm-22.03-228.922 2.96-.504-2.96.504Zm-2.69-16.422 2.96-.474-2.96.474Zm-16.33-37.797 2.13-2.118-2.13 2.118Zm-8.01-7.836 2.07-2.164-3.26-3.133-1.62 4.223 2.81 1.074Zm-1.11 1.31 1.34 2.681-1.34-2.681Zm-17.02-8.033-2.06 2.178 2.06-2.178Zm-23.32-21.153 2-2.233-.01-.005v-.005l-1.99 2.243Zm-.01-.003-2 2.233v.005l.01.005 1.99-2.243Zm-18.71-16.997-2.13 2.118 2.13-2.118ZM1357.15 23.33l2.44-1.744-.9-1.256h-1.54v3ZM278.298 30.848c4.954 0 9.919-1.78 12.772-5.774l-4.882-3.488c-1.379 1.931-4.186 3.262-7.89 3.262v6Zm-129.64 0h129.64v-6h-129.64v6Zm-31.412 9.159c3.295-3.305 13.956-9.16 31.412-9.16v-6c-18.583 0-30.948 6.197-35.661 10.923l4.249 4.237ZM98.409 57.119c8.661-7.77 16.789-15.058 18.837-17.112l-4.249-4.236c-1.892 1.897-9.816 9.007-18.594 16.881l4.006 4.467Zm-.01.008h.001l-3.989-4.482 3.989 4.482ZM75.14 78.22c4.54-4.3 14.244-13.005 23.27-21.1l-4.007-4.467c-8.987 8.061-18.774 16.84-23.39 21.211l4.127 4.356Zm-20.426 8.537c1.495.75 3.06 1.273 4.765 1.32 1.727.049 3.343-.398 4.932-1.195 2.977-1.493 6.313-4.478 10.729-8.662l-4.126-4.356c-4.593 4.351-7.265 6.638-9.293 7.655-.914.458-1.55.576-2.075.561-.548-.015-1.236-.182-2.243-.687l-2.69 5.364Zm-2.444-2.63c.457 1.038 1.236 2.024 2.444 2.63l2.69-5.364a.966.966 0 0 1 .282.215c.066.074.083.12.075.1l-5.491 2.42Zm.666-3.372a533.879 533.879 0 0 0-7.9 7.728l4.248 4.236a519.72 519.72 0 0 1 7.81-7.638l-4.158-4.326Zm-7.9 7.728c-6.06 6.077-9.59 9.749-11.91 15.196-2.24 5.256-3.311 12.095-5.255 24.245l5.924.949c2.003-12.517 2.974-18.437 4.85-22.843 1.796-4.215 4.456-7.109 10.64-13.31l-4.25-4.237ZM27.87 127.924c-.733 4.578-1.595 9.964-2.69 16.392l5.916 1.007c1.1-6.46 1.966-11.872 2.698-16.45l-5.924-.949Zm-2.69 16.392C18.145 185.654 10.127 279.193 3.124 373.52l5.983.444c7.012-94.434 15.011-187.647 21.99-228.641l-5.915-1.007ZM3.124 373.52c-5.858 78.897-1.949 124.951-.482 142.208l5.978-.508c-1.449-17.052-5.34-62.77.487-141.256l-5.983-.444ZM2.64 515.728c.298 3.509.473 5.608.473 6.613h6c0-1.333-.211-3.789-.495-7.121l-5.978.508Zm.473 6.613c0 .823.206 1.878.441 2.891a77.39 77.39 0 0 0 1.082 4.033c.918 3.143 2.235 7.243 3.844 12.013 3.22 9.547 7.642 21.878 12.466 34.823 9.634 25.849 20.939 54.331 27.512 68.023l5.409-2.596c-6.441-13.417-17.661-41.664-27.298-67.523-4.811-12.909-9.211-25.177-12.404-34.645-1.598-4.737-2.885-8.748-3.77-11.777a71.462 71.462 0 0 1-.996-3.707c-.11-.474-.186-.85-.233-1.136-.051-.31-.053-.421-.053-.399h-6ZM48.46 644.124C61.78 671.876 82.66 689 109.226 689v-6c-23.49 0-42.652-15.006-55.358-41.472l-5.41 2.596ZM109.226 689c12.882 0 31.947-1.831 51.857-3.739l-.572-5.972c-20.043 1.92-38.761 3.711-51.285 3.711v6Zm51.857-3.739c19.412-1.86 39.707-3.804 56.349-4.295l-.177-5.997c-16.881.498-37.392 2.465-56.744 4.32l.572 5.972Zm56.349-4.295c18.218-.537 242.532-.504 460.408-.322l.005-6c-217.774-.182-442.251-.216-460.59.325l.177 5.997Zm457.411-3.322v.324h6v-.324h-6Zm3.004 3.324c42.051-.059 91.715-.122 145.156-.182l-.006-6c-53.443.06-103.106.123-145.158.182l.008 6Zm145.15-.182c53.441.06 103.105.123 145.156.182l.008-6c-42.052-.059-91.716-.122-145.158-.182l-.006 6Zm148.16-2.818v-.324h-6v.324h6Zm-2.998 2.676c217.881-.182 442.191-.215 460.411.322l.17-5.997c-18.33-.541-242.81-.507-460.586-.325l.005 6Zm460.411.322c16.64.491 36.93 2.435 56.35 4.295l.57-5.972c-19.35-1.855-39.86-3.822-56.75-4.32l-.17 5.997Zm56.35 4.295c19.91 1.908 38.97 3.739 51.85 3.739v-6c-12.52 0-31.24-1.791-51.28-3.711l-.57 5.972Zm51.85 3.739c26.57 0 47.45-17.124 60.77-44.876l-5.41-2.596c-12.7 26.466-31.87 41.472-55.36 41.472v6Zm60.77-44.876c6.57-13.692 17.88-42.174 27.51-68.023 4.83-12.945 9.25-25.276 12.47-34.823 1.61-4.77 2.93-8.87 3.84-12.013.46-1.57.83-2.931 1.08-4.033.24-1.013.45-2.068.45-2.891h-6c0-.022-.01.089-.06.399-.04.286-.12.662-.23 1.136-.22.948-.55 2.19-1 3.707-.88 3.029-2.17 7.04-3.77 11.777-3.19 9.468-7.59 21.736-12.4 34.645-9.64 25.859-20.86 54.106-27.3 67.523l5.41 2.596Zm45.35-121.783c0-1.005.17-3.104.47-6.613l-5.98-.508c-.28 3.332-.49 5.788-.49 7.121h6Zm.47-6.613c1.47-17.257 5.38-63.311-.48-142.208l-5.99.444c5.83 78.486 1.94 124.204.49 141.256l5.98.508Zm-.48-142.208c-7.01-94.327-15.02-187.866-22.06-229.204l-5.92 1.007c6.98 40.994 14.98 134.207 21.99 228.641l5.99-.444Zm-22.06-229.204c-1.1-6.428-1.96-11.814-2.69-16.392l-5.92.948c.73 4.579 1.59 9.991 2.69 16.451l5.92-1.007Zm-2.69-16.392c-1.94-12.15-3.02-18.989-5.25-24.245-2.33-5.447-5.86-9.119-11.91-15.196l-4.25 4.236c6.18 6.203 8.84 9.096 10.64 13.311 1.87 4.406 2.84 10.326 4.85 22.843l5.92-.949Zm-17.16-39.441a559.491 559.491 0 0 0-8.07-7.882l-4.15 4.327c2.99 2.875 5.69 5.511 7.97 7.791l4.25-4.236Zm-12.95-6.792c-.01.05-.01.012.06-.064a.88.88 0 0 1 .29-.234l2.69 5.363c1.33-.667 2.13-1.785 2.57-2.918l-5.61-2.147Zm.35-.298c-1 .505-1.69.672-2.24.687-.52.015-1.16-.103-2.07-.561-2.03-1.017-4.7-3.304-9.3-7.655l-4.12 4.356c4.41 4.184 7.75 7.169 10.73 8.662 1.59.796 3.2 1.244 4.93 1.196 1.7-.048 3.27-.571 4.76-1.322l-2.69-5.363Zm-13.61-7.528c-4.61-4.372-14.4-13.148-23.38-21.209l-4.01 4.467c9.03 8.094 18.73 16.798 23.27 21.097l4.12-4.355Zm-23.39-21.22-.01-.003-3.98 4.487v.004l3.99-4.487Zm0 .007c-8.77-7.874-16.7-14.984-18.59-16.882l-4.25 4.237c2.05 2.054 10.18 9.342 18.84 17.112l4-4.467Zm-18.59-16.881c-4.71-4.727-17.08-10.923-35.66-10.923v6c17.46 0 28.12 5.854 31.41 9.159l4.25-4.236Zm-35.66-10.923h-129.64v6h129.64v-6Zm-129.64 0c-3.7 0-6.51-1.331-7.89-3.262l-4.88 3.488c2.85 3.994 7.82 5.774 12.77 5.774v-6Zm-10.33-4.518H288.629v6H1357.15v-6Z" fill="#fff"/><path d="M847.436 21.826c.253-2.808 2.611-5.024 5.478-5.024h46.063c2.867 0 5.225 2.216 5.478 5.024h-57.019Zm79.086 0c.253-2.808 2.611-5.024 5.478-5.024h46.063c2.867 0 5.225 2.216 5.478 5.024h-57.019Zm-641.775-2.888c-5.41-1.978-16.162-5.91-36.608-5.91h-101.61c-18.02 0-29.032 6.286-33.036 10.302-.428.43-1.613 1.382-3.29 2.729-6.045 4.856-18.47 14.839-24.74 23.878-5.28 4.736-7.247 11.484-8.893 17.13-1.162 3.986-2.164 7.423-4.058 9.217-9.01 8.534-12.013 10.542-17.018 8.032-3.798-1.904.76-14.21 4.054-23.108l.001-.002c1.048-2.83 1.969-5.315 2.452-7.011 2.002-7.029 18.52-25.102 38.542-41.167C116.75.024 162.805.836 207.112 1.618c10.427.184 20.758.366 30.579.366 51.556 0 52.057 9.538 52.057 16.065 0 2.718-1.14 2.3-5.001.89Zm1075.723 0c5.41-1.978 16.16-5.91 36.6-5.91h101.61c18.02 0 29.04 6.286 33.04 10.302.43.43 1.61 1.382 3.29 2.729 6.05 4.856 18.47 14.839 24.74 23.878 5.28 4.736 7.25 11.484 8.89 17.13 1.17 3.986 2.17 7.423 4.06 9.217 9.01 8.534 12.01 10.542 17.02 8.032 3.8-1.904-.76-14.21-4.05-23.108h-.01v-.002c-1.04-2.83-1.96-5.315-2.45-7.011-2-7.029-18.52-25.102-38.54-41.167C1528.46.024 1482.41.836 1438.1 1.618c-10.43.184-20.76.366-30.58.366-51.55 0-52.05 9.538-52.05 16.065 0 2.718 1.14 2.3 5 .89Z" stroke="#fff"/></svg>