<svg width="1646" height="690" viewBox="0 0 1646 690" fill="none" xmlns="http://www.w3.org/2000/svg">
<path opacity="0.2" d="M125.133 31.9271C116.123 31.9271 44.5452 100.202 41.0414 106.226C39.3923 109.062 37.5214 143.149 35.1677 186.03C32.5208 234.256 29.2633 293.605 25.0241 332.137C18.6171 390.371 15.3469 485.253 14.5127 525.415C27.1931 555.537 54.456 619.796 62.0642 635.86C71.5745 655.941 81.5854 674.014 128.136 669.998C165.376 666.785 281.135 666.316 334.359 666.484H1311.42C1364.64 666.316 1480.4 666.785 1517.64 669.998C1564.19 674.014 1574.2 655.941 1583.71 635.86C1591.32 619.796 1618.58 555.537 1631.26 525.415C1630.43 485.253 1627.16 390.371 1620.75 332.137C1616.51 293.605 1613.26 234.256 1610.61 186.03C1608.26 143.149 1606.39 109.062 1604.74 106.226C1601.23 100.202 1529.65 31.9271 1520.64 31.9271H125.133Z" stroke="white" stroke-width="0.5"/>
<g opacity="0.2">
<path d="M278.298 27.9103C284.805 27.9103 290.311 24.3962 290.311 17.8699C290.311 11.3436 289.811 1.80514 238.255 1.80514C228.433 1.80514 218.103 1.62294 207.676 1.43904C163.369 0.657599 117.313 -0.154675 101.106 12.8496C81.0843 28.9144 64.5664 46.9878 62.5642 54.0161C62.081 55.7123 61.1605 58.1979 60.1123 61.0285C56.8171 69.9266 52.2597 82.2331 56.0572 84.1374C61.0626 86.6475 64.0659 84.6395 73.0757 76.1051C77.6533 71.769 87.3993 63.0267 96.4054 54.9482C105.125 47.1265 113.151 39.927 115.121 37.9514C119.126 33.9352 130.638 27.9103 148.658 27.9103H278.298Z" stroke="white" stroke-width="2"/>
<path d="M1367.48 27.9103C1360.97 27.9103 1355.47 24.3962 1355.47 17.8699C1355.47 11.3436 1355.97 1.80514 1407.52 1.80514C1417.34 1.80514 1427.67 1.62294 1438.1 1.43904C1482.41 0.657599 1528.46 -0.154675 1544.67 12.8496C1564.69 28.9144 1581.21 46.9878 1583.21 54.0161C1583.7 55.7123 1584.62 58.1979 1585.66 61.0285C1588.96 69.9266 1593.52 82.2331 1589.72 84.1374C1584.71 86.6475 1581.71 84.6395 1572.7 76.1051C1568.12 71.769 1558.38 63.0267 1549.37 54.9482C1540.65 47.1265 1532.63 39.927 1530.66 37.9514C1526.65 33.9352 1515.14 27.9103 1497.12 27.9103H1367.48Z" stroke="white" stroke-width="2"/>
</g>
<g opacity="0.2">
<path d="M277.735 28.1515C284.242 28.1515 289.748 24.6374 289.748 18.1111C289.748 11.5848 289.247 2.04635 237.691 2.04635C227.869 2.04635 217.539 1.86415 207.112 1.68025C162.805 0.89881 116.75 0.0865364 100.543 13.0908C80.5208 29.1556 64.0029 47.229 62.0008 54.2573C61.5176 55.9535 60.5971 58.4391 59.5488 61.2697C56.2536 70.1678 51.6963 82.4743 55.4937 84.3786C60.4991 86.8888 63.5024 84.8807 72.5122 76.3463C77.0898 72.0102 86.8359 63.2679 95.842 55.1894C104.562 47.3677 112.588 40.1682 114.558 38.1926C118.562 34.1764 130.075 28.1515 148.094 28.1515H277.735Z" stroke="white" stroke-width="2"/>
<path d="M1366.91 28.1515C1360.41 28.1515 1354.9 24.6374 1354.9 18.1111C1354.9 11.5848 1355.4 2.04635 1406.96 2.04635C1416.78 2.04635 1427.11 1.86415 1437.54 1.68025C1481.84 0.89881 1527.9 0.0865364 1544.11 13.0908C1564.13 29.1556 1580.65 47.229 1582.65 54.2573C1583.13 55.9535 1584.05 58.4391 1585.1 61.2697C1588.4 70.1678 1592.95 82.4743 1589.16 84.3786C1584.15 86.8888 1581.15 84.8807 1572.14 76.3463C1567.56 72.0102 1557.81 63.2679 1548.81 55.1894C1540.09 47.3677 1532.06 40.1682 1530.09 38.1926C1526.09 34.1764 1514.58 28.1515 1496.56 28.1515H1366.91Z" stroke="white" stroke-width="2"/>
</g>
<path opacity="0.2" d="M288.629 23.3927V20.3927H287.086L286.188 21.6488L288.629 23.3927ZM115.122 37.9514L117.246 40.0695L117.246 40.0695L115.122 37.9514ZM96.4057 54.9482L98.4004 57.1891L98.4089 57.1814L96.4057 54.9482ZM96.4052 54.9487L94.4105 52.7078L94.402 52.7155L96.4052 54.9487ZM73.0759 76.1051L71.0129 73.9271L73.0759 76.1051ZM56.0574 84.1374L54.7126 86.8191L54.7126 86.8191L56.0574 84.1374ZM55.0141 82.9806L57.7595 81.771L56.0291 77.8438L52.9352 80.8178L55.0141 82.9806ZM47.159 90.6637L49.2834 92.7819H49.2834L47.159 90.6637ZM30.8319 128.461L27.8696 127.987L30.8319 128.461ZM28.1384 144.882L31.0958 145.386L28.1384 144.882ZM6.11449 373.804L3.12272 373.582L6.11449 373.804ZM5.63015 515.537L8.61937 515.283L5.63015 515.537ZM51.1633 642.889L48.4588 644.187L51.1633 642.889ZM160.797 682.337L161.083 685.324L160.797 682.337ZM217.344 678.03L217.432 681.029H217.432L217.344 678.03ZM677.843 677.707H680.843V674.709L677.845 674.707L677.843 677.707ZM677.843 678.03H674.843V681.034L677.847 681.03L677.843 678.03ZM823 677.849L823.003 674.849H822.997L823 677.849ZM968.157 678.03L968.153 681.03L971.157 681.034V678.03H968.157ZM968.157 677.707L968.154 674.707L965.157 674.709V677.707H968.157ZM1428.66 678.03L1428.57 681.029L1428.66 678.03ZM1485.2 682.337L1484.92 685.324L1485.2 682.337ZM1594.84 642.889L1592.13 641.59L1594.84 642.889ZM1640.37 515.537L1643.36 515.791V515.791L1640.37 515.537ZM1639.89 373.804L1636.89 374.027L1639.89 373.804ZM1617.86 144.882L1620.82 144.379V144.379L1617.86 144.882ZM1615.17 128.461L1618.13 127.987V127.987L1615.17 128.461ZM1598.84 90.6637L1600.97 88.5455V88.5455L1598.84 90.6637ZM1590.83 82.8272L1592.9 80.6638L1589.64 77.5309L1588.02 81.7534L1590.83 82.8272ZM1589.72 84.1374L1591.06 86.8191L1591.06 86.8191L1589.72 84.1374ZM1572.7 76.1051L1570.64 78.283L1570.64 78.2831L1572.7 76.1051ZM1549.38 54.9521L1551.38 52.7189L1551.37 52.7137L1551.37 52.7084L1549.38 54.9521ZM1549.37 54.9482L1547.37 57.1814L1547.37 57.1867L1547.38 57.1919L1549.37 54.9482ZM1530.66 37.9514L1528.53 40.0695V40.0695L1530.66 37.9514ZM1357.15 23.3927L1359.59 21.6488L1358.69 20.3927H1357.15V23.3927ZM278.298 30.9103C283.252 30.9103 288.217 29.1308 291.07 25.1366L286.188 21.6488C284.809 23.5796 282.002 24.9103 278.298 24.9103V30.9103ZM148.658 30.9103H278.298V24.9103H148.658V30.9103ZM117.246 40.0695C120.541 36.7643 131.202 30.9103 148.658 30.9103V24.9103C130.075 24.9103 117.71 31.1061 112.997 35.8332L117.246 40.0695ZM98.4089 57.1814C107.07 49.412 115.198 42.1232 117.246 40.0695L112.997 35.8332C111.105 37.7308 103.181 44.841 94.4025 52.715L98.4089 57.1814ZM98.3999 57.1895L98.4004 57.189L94.411 52.7074L94.4105 52.7078L98.3999 57.1895ZM75.139 78.2831C79.6787 73.9829 89.3833 65.2775 98.4084 57.1819L94.402 52.7155C85.4152 60.7766 75.6283 69.5552 71.0129 73.9271L75.139 78.2831ZM54.7126 86.8191C56.2085 87.5693 57.7733 88.0928 59.4777 88.1403C61.2049 88.1884 62.8215 87.7412 64.4099 86.9446C67.3874 85.4515 70.7225 82.4665 75.139 78.2831L71.0129 73.9271C66.4196 78.278 63.7482 80.5643 61.7203 81.5812C60.8059 82.0398 60.17 82.1573 59.6448 82.1426C59.0967 82.1274 58.4091 81.9606 57.4023 81.4557L54.7126 86.8191ZM52.2688 84.1902C52.7259 85.2278 53.5047 86.2134 54.7126 86.8191L57.4023 81.4557C57.5162 81.5129 57.6138 81.591 57.6846 81.6703C57.7508 81.7444 57.7682 81.7909 57.7595 81.771L52.2688 84.1902ZM52.9352 80.8178C49.9895 83.6491 47.3089 86.2644 45.0345 88.5455L49.2834 92.7819C51.5165 90.5422 54.1638 87.9591 57.0931 85.1435L52.9352 80.8178ZM45.0345 88.5455C38.9751 94.6229 35.4449 98.2942 33.1245 103.741C30.8856 108.997 29.814 115.837 27.8696 127.987L33.7943 128.935C35.7974 116.418 36.7676 110.499 38.6445 106.093C40.4399 101.878 43.0995 98.9841 49.2834 92.7819L45.0345 88.5455ZM27.8696 127.987C27.137 132.565 26.2751 137.951 25.1809 144.379L31.0958 145.386C32.1956 138.925 33.0616 133.514 33.7943 128.935L27.8696 127.987ZM25.1809 144.379C18.1441 185.716 10.1263 279.256 3.12272 373.582L9.10625 374.027C16.1178 279.593 24.1174 186.38 31.0958 145.386L25.1809 144.379ZM3.12272 373.582C-2.7353 452.48 1.17407 498.534 2.64093 515.791L8.61937 515.283C7.17 498.231 3.2788 452.512 9.10625 374.027L3.12272 373.582ZM2.64093 515.791C2.93916 519.299 3.11449 521.399 3.11449 522.403H9.11449C9.11449 521.071 8.90255 518.614 8.61937 515.283L2.64093 515.791ZM3.11449 522.403C3.11449 523.226 3.32016 524.282 3.55503 525.295C3.81071 526.397 4.17834 527.758 4.63666 529.327C5.55471 532.471 6.87169 536.571 8.48056 541.341C11.7006 550.888 16.1232 563.219 20.9474 576.163C30.5809 602.012 41.8855 630.495 48.4588 644.187L53.8678 641.59C47.4267 628.173 36.2069 599.927 26.5696 574.068C21.7585 561.158 17.359 548.89 14.1659 539.423C12.5682 534.686 11.2808 530.675 10.3961 527.645C9.95307 526.128 9.61975 524.887 9.39982 523.939C9.28983 523.465 9.21395 523.088 9.16688 522.803C9.11586 522.493 9.11449 522.382 9.11449 522.403H3.11449ZM48.4588 644.187C61.7815 671.938 82.6613 689.062 109.226 689.062V683.062C85.7365 683.062 66.5738 668.057 53.8678 641.59L48.4588 644.187ZM109.226 689.062C122.108 689.062 141.173 687.232 161.083 685.324L160.511 679.351C140.468 681.272 121.75 683.062 109.226 683.062V689.062ZM161.083 685.324C180.495 683.463 200.79 681.52 217.432 681.029L217.255 675.031C200.374 675.529 179.863 677.496 160.511 679.351L161.083 685.324ZM217.432 681.029C235.65 680.491 459.964 680.525 677.84 680.707L677.845 674.707C460.071 674.525 235.594 674.49 217.255 675.031L217.432 681.029ZM674.843 677.707V678.03H680.843V677.707H674.843ZM677.847 681.03C719.898 680.971 769.562 680.908 823.003 680.849L822.997 674.849C769.554 674.908 719.891 674.971 677.839 675.03L677.847 681.03ZM822.997 680.849C876.438 680.908 926.102 680.971 968.153 681.03L968.161 675.03C926.109 674.971 876.445 674.908 823.003 674.849L822.997 680.849ZM971.157 678.03V677.707H965.157V678.03H971.157ZM968.159 680.707C1186.04 680.525 1410.35 680.491 1428.57 681.029L1428.74 675.031C1410.41 674.49 1185.93 674.525 968.154 674.707L968.159 680.707ZM1428.57 681.029C1445.21 681.52 1465.5 683.463 1484.92 685.324L1485.49 679.351C1466.14 677.496 1445.63 675.529 1428.74 675.031L1428.57 681.029ZM1484.92 685.324C1504.83 687.232 1523.89 689.062 1536.77 689.062V683.062C1524.25 683.062 1505.53 681.272 1485.49 679.351L1484.92 685.324ZM1536.77 689.062C1563.34 689.062 1584.22 671.938 1597.54 644.187L1592.13 641.59C1579.43 668.057 1560.26 683.062 1536.77 683.062V689.062ZM1597.54 644.187C1604.11 630.495 1615.42 602.012 1625.05 576.163C1629.88 563.219 1634.3 550.888 1637.52 541.341C1639.13 536.571 1640.45 532.471 1641.36 529.327C1641.82 527.758 1642.19 526.397 1642.44 525.295C1642.68 524.282 1642.89 523.226 1642.89 522.403H1636.89C1636.89 522.382 1636.88 522.493 1636.83 522.803C1636.79 523.088 1636.71 523.465 1636.6 523.939C1636.38 524.887 1636.05 526.128 1635.6 527.645C1634.72 530.675 1633.43 534.686 1631.83 539.423C1628.64 548.89 1624.24 561.158 1619.43 574.068C1609.79 599.927 1598.57 628.173 1592.13 641.59L1597.54 644.187ZM1642.89 522.403C1642.89 521.399 1643.06 519.299 1643.36 515.791L1637.38 515.283C1637.1 518.614 1636.89 521.071 1636.89 522.403H1642.89ZM1643.36 515.791C1644.83 498.534 1648.74 452.48 1642.88 373.582L1636.89 374.027C1642.72 452.512 1638.83 498.231 1637.38 515.283L1643.36 515.791ZM1642.88 373.582C1635.87 279.256 1627.86 185.716 1620.82 144.379L1614.9 145.386C1621.88 186.38 1629.88 279.593 1636.89 374.027L1642.88 373.582ZM1620.82 144.379C1619.72 137.951 1618.86 132.565 1618.13 127.987L1612.21 128.935C1612.94 133.514 1613.8 138.925 1614.9 145.386L1620.82 144.379ZM1618.13 127.987C1616.19 115.837 1615.11 108.997 1612.88 103.741C1610.55 98.2942 1607.02 94.6229 1600.97 88.5455L1596.72 92.7819C1602.9 98.9841 1605.56 101.878 1607.36 106.093C1609.23 110.499 1610.2 116.418 1612.21 128.935L1618.13 127.987ZM1600.97 88.5455C1598.65 86.2232 1595.91 83.5545 1592.9 80.6638L1588.75 84.9906C1591.74 87.8655 1594.44 90.5017 1596.72 92.7819L1600.97 88.5455ZM1588.02 81.7534C1588.01 81.8028 1588.01 81.7658 1588.08 81.6902C1588.14 81.607 1588.25 81.5192 1588.37 81.4558L1591.06 86.8191C1592.39 86.152 1593.19 85.0334 1593.63 83.901L1588.02 81.7534ZM1588.37 81.4557C1587.37 81.9606 1586.68 82.1274 1586.13 82.1426C1585.61 82.1573 1584.97 82.0398 1584.06 81.5812C1582.03 80.5643 1579.36 78.278 1574.76 73.9271L1570.64 78.2831C1575.05 82.4665 1578.39 85.4515 1581.37 86.9446C1582.96 87.7412 1584.57 88.1884 1586.3 88.1403C1588 88.0928 1589.57 87.5693 1591.06 86.8191L1588.37 81.4557ZM1574.76 73.9271C1570.15 69.5558 1560.36 60.7791 1551.38 52.7189L1547.37 57.1853C1556.4 65.2799 1566.1 73.9835 1570.64 78.283L1574.76 73.9271ZM1551.37 52.7084L1551.36 52.7045L1547.38 57.1919L1547.38 57.1958L1551.37 52.7084ZM1551.37 52.715C1542.6 44.841 1534.67 37.7308 1532.78 35.8332L1528.53 40.0695C1530.58 42.1232 1538.71 49.412 1547.37 57.1814L1551.37 52.715ZM1532.78 35.8332C1528.07 31.1061 1515.7 24.9103 1497.12 24.9103V30.9103C1514.58 30.9103 1525.24 36.7643 1528.53 40.0695L1532.78 35.8332ZM1497.12 24.9103H1367.48V30.9103H1497.12V24.9103ZM1367.48 24.9103C1363.78 24.9103 1360.97 23.5796 1359.59 21.6488L1354.71 25.1366C1357.56 29.1308 1362.53 30.9103 1367.48 30.9103V24.9103ZM1357.15 20.3927H288.629V26.3927H1357.15V20.3927Z" fill="white"/>
<path opacity="0.2" d="M847.436 21.8887C847.689 19.0808 850.047 16.8644 852.914 16.8644H898.977C901.844 16.8644 904.202 19.0808 904.455 21.8887H847.436Z" stroke="white"/>
<path opacity="0.2" d="M926.522 21.8887C926.775 19.0808 929.133 16.8644 932 16.8644H978.063C980.93 16.8644 983.288 19.0808 983.541 21.8887H926.522Z" stroke="white"/>
<g opacity="0.2">
<circle cx="1417.05" cy="308.353" r="79.5791" stroke="white" stroke-width="0.941764"/>
<circle cx="1417.05" cy="308.352" r="63.5691" stroke="white" stroke-width="0.941764"/>
<circle cx="1417.05" cy="308.352" r="50.297" stroke="white" stroke-width="3"/>
<circle cx="1417.05" cy="308.352" r="30.6073" stroke="white" stroke-width="0.941764"/>
</g>
<g opacity="0.2">
<circle cx="140.05" cy="151.353" r="79.5791" stroke="white" stroke-width="0.941764"/>
<circle cx="140.05" cy="151.352" r="63.5691" stroke="white" stroke-width="0.941764"/>
<circle cx="140.051" cy="151.352" r="50.297" stroke="white" stroke-width="3"/>
<circle cx="140.051" cy="151.352" r="30.6073" stroke="white" stroke-width="0.941764"/>
</g>
<g opacity="0.2">
<circle cx="242" cy="284.303" r="65.5291" stroke="white" stroke-width="0.941764"/>
<path d="M301.908 305.203C303.529 305.203 304.979 304.168 305.428 302.611C307.103 296.798 308 290.655 308 284.303C308 277.951 307.103 271.808 305.428 265.995C304.979 264.437 303.529 263.403 301.908 263.403H264.784C263.743 263.403 262.9 262.559 262.9 261.519V224.395C262.9 222.774 261.866 221.324 260.308 220.875C254.495 219.2 248.352 218.303 242 218.303C235.648 218.303 229.505 219.2 223.692 220.875C222.134 221.324 221.1 222.774 221.1 224.395V261.519C221.1 262.559 220.257 263.403 219.216 263.403H182.092C180.471 263.403 179.021 264.437 178.572 265.995C176.897 271.808 176 277.951 176 284.303C176 290.655 176.897 296.798 178.572 302.611C179.021 304.168 180.471 305.203 182.092 305.203H219.216C220.257 305.203 221.1 306.046 221.1 307.086V344.211C221.1 345.832 222.134 347.282 223.692 347.73C229.505 349.405 235.648 350.303 242 350.303C248.352 350.303 254.495 349.405 260.308 347.73C261.866 347.282 262.9 345.832 262.9 344.211V307.086C262.9 306.046 263.743 305.203 264.784 305.203H301.908Z" stroke="white" stroke-width="3"/>
</g>
<rect opacity="0.2" x="340.864" y="35.9373" width="966.05" height="621.516" rx="4.5" stroke="white" stroke-width="3"/>
<rect opacity="0.2" x="369.896" y="89.1516" width="905.985" height="512.075" stroke="white" stroke-width="3"/>
<g opacity="0.2">
<path d="M284.747 19.0006C279.337 17.0224 268.585 13.0908 248.139 13.0908H146.529C128.509 13.0908 117.497 19.3765 113.493 23.3927C113.065 23.8216 111.88 24.7742 110.203 26.121C104.158 30.9775 91.7327 40.9602 85.4627 49.9999C80.1831 54.7357 78.2161 61.4831 76.5701 67.1296C75.4082 71.1151 74.4062 74.5521 72.5121 76.3463C63.5024 84.8807 60.4991 86.8888 55.4937 84.3786C51.6964 82.4744 56.2533 70.1689 59.5483 61.2709L59.5488 61.2697L59.5494 61.2681C60.5974 58.4382 61.5177 55.9532 62.0008 54.2573C64.0029 47.229 80.5208 29.1556 100.543 13.0908C116.75 0.0865364 162.805 0.898809 207.112 1.68025C217.539 1.86415 227.87 2.04635 237.691 2.04635C289.247 2.04635 289.748 11.5848 289.748 18.1111C289.748 20.8291 288.608 20.4124 284.747 19.0006Z" stroke="white"/>
<path d="M1360.47 19.0006C1365.88 17.0224 1376.63 13.0908 1397.07 13.0908H1498.68C1516.7 13.0908 1527.72 19.3765 1531.72 23.3927C1532.15 23.8216 1533.33 24.7742 1535.01 26.121C1541.06 30.9775 1553.48 40.9602 1559.75 49.9999C1565.03 54.7357 1567 61.4831 1568.64 67.1296C1569.81 71.1151 1570.81 74.5521 1572.7 76.3463C1581.71 84.8807 1584.71 86.8888 1589.72 84.3786C1593.52 82.4744 1588.96 70.1689 1585.67 61.2709L1585.66 61.2697L1585.66 61.2681C1584.62 58.4382 1583.7 55.9532 1583.21 54.2573C1581.21 47.229 1564.69 29.1556 1544.67 13.0908C1528.46 0.0865364 1482.41 0.898809 1438.1 1.68025C1427.67 1.86415 1417.34 2.04635 1407.52 2.04635C1355.97 2.04635 1355.47 11.5848 1355.47 18.1111C1355.47 20.8291 1356.61 20.4124 1360.47 19.0006Z" stroke="white"/>
</g>
<path d="M295.816 102.243C295.816 99.8526 298.159 98.1656 300.426 98.9235L331.468 109.302C332.896 109.779 333.859 111.116 333.859 112.621V143.865C333.859 145.431 332.818 146.806 331.311 147.233L300.269 156.014C298.035 156.646 295.816 154.968 295.816 152.646V102.243Z" fill="white" stroke="white"/>
<path d="M1351.96 102.243C1351.96 99.8526 1349.62 98.1656 1347.35 98.9235L1316.31 109.302C1314.88 109.779 1313.92 111.116 1313.92 112.621V143.865C1313.92 145.431 1314.96 146.806 1316.47 147.233L1347.51 156.014C1349.74 156.646 1351.96 154.968 1351.96 152.646V102.243Z" fill="white" stroke="white"/>
<path opacity="0.2" d="M333.859 164.494C333.859 162.103 331.517 160.416 329.25 161.174L298.207 171.552C296.78 172.03 295.817 173.366 295.817 174.872V206.116C295.817 207.682 296.857 209.057 298.364 209.484L329.407 218.265C331.641 218.897 333.859 217.219 333.859 214.897V164.494Z" stroke="white"/>
<path opacity="0.2" d="M1313.92 164.494C1313.92 162.103 1316.26 160.416 1318.53 161.174L1349.57 171.552C1351 172.03 1351.96 173.366 1351.96 174.872V206.116C1351.96 207.682 1350.92 209.057 1349.41 209.484L1318.37 218.265C1316.14 218.897 1313.92 217.219 1313.92 214.897V164.494Z" stroke="white"/>
<g opacity="0.2">
<path d="M1395.2 448.551V444.173L1408.2 434.543V438.921L1395.2 448.551ZM1376.7 457.175L1391.7 446.394V450.778L1376.7 461.559V457.175ZM1408.2 452.919L1376.7 475.56V471.175L1408.2 448.535V452.919ZM1340.7 506.56V502.175L1372.2 479.535V483.919L1340.7 506.56ZM1340.7 488.175L1355.7 477.394V481.778L1340.7 492.559V488.175ZM1340.7 618.559V614.175L1355.7 603.394V607.778L1340.7 618.559ZM1376.7 587.559V583.175L1391.7 572.394V576.778L1376.7 587.559ZM1359.2 475.173L1372.2 465.543V469.921L1359.2 479.551V475.173ZM1359.2 605.551V601.173L1372.2 591.543V595.921L1359.2 605.551ZM1395.2 574.551V570.173L1408.2 560.543V564.921L1395.2 574.551ZM1340.7 516.175L1372.2 493.535V497.919L1340.7 520.56V516.175ZM1376.7 485.175L1408.2 462.535V466.919L1376.7 489.56V485.175ZM1340.7 530.175L1372.2 507.535V511.919L1340.7 534.56V530.175ZM1376.7 499.175L1408.2 476.535V480.919L1376.7 503.56V499.175ZM1340.7 544.175L1372.2 521.535V525.919L1340.7 548.56V544.175ZM1376.7 513.175L1408.2 490.535V494.919L1376.7 517.56V513.175ZM1340.7 558.175L1372.2 535.535V539.919L1340.7 562.56V558.175ZM1408.2 508.919L1376.7 531.56V527.175L1408.2 504.535V508.919ZM1340.7 572.175L1372.2 549.535V553.919L1340.7 576.56V572.175ZM1376.7 545.56V541.175L1408.2 518.535V522.919L1376.7 545.56ZM1340.7 586.175L1372.2 563.535V567.919L1340.7 590.56V586.175ZM1376.7 559.56V555.175L1408.2 532.535V536.919L1376.7 559.56ZM1340.7 600.175L1372.2 577.535V581.919L1340.7 604.56V600.175ZM1376.7 573.56V569.175L1408.2 546.535V550.919L1376.7 573.56Z" stroke="white" stroke-width="0.5"/>
</g>
<path opacity="0.2" d="M239.25 437.177V432.799L252.25 442.429V446.806L239.25 437.177ZM255.75 449.034V444.65L270.75 455.431V459.815L255.75 449.034ZM270.75 473.815L239.25 451.175V446.79L270.75 469.431V473.815ZM275.25 477.79L306.75 500.431V504.815L275.25 482.175V477.79ZM291.75 475.65L306.75 486.431V490.815L291.75 480.034V475.65ZM306.75 616.815L291.75 606.034V601.65L306.75 612.431V616.815ZM270.75 581.431V585.815L255.75 575.034V570.65L270.75 581.431ZM288.25 477.806L275.25 468.177V463.799L288.25 473.429V477.806ZM275.25 589.799L288.25 599.429V603.806L275.25 594.177V589.799ZM239.25 563.177V558.799L252.25 568.429V572.806L239.25 563.177ZM275.25 491.79L306.75 514.431V518.815L275.25 496.175V491.79ZM239.25 460.79L270.75 483.431V487.815L239.25 465.175V460.79ZM275.25 505.79L306.75 528.431V532.815L275.25 510.175V505.79ZM239.25 479.175V474.79L270.75 497.431V501.815L239.25 479.175ZM275.25 519.79L306.75 542.431V546.815L275.25 524.175V519.79ZM239.25 493.175V488.79L270.75 511.431V515.815L239.25 493.175ZM275.25 533.79L306.75 556.431V560.815L275.25 538.175V533.79ZM239.25 507.175V502.79L270.75 525.431V529.815L239.25 507.175ZM275.25 547.79L306.75 570.431V574.815L275.25 552.175V547.79ZM239.25 521.175V516.79L270.75 539.431V543.815L239.25 521.175ZM275.25 561.79L306.75 584.431V588.815L275.25 566.175V561.79ZM239.25 535.175V530.79L270.75 553.431V557.815L239.25 535.175ZM275.25 575.79L306.75 598.431V602.815L275.25 580.175V575.79ZM239.25 549.175V544.79L270.75 567.431V571.815L239.25 549.175Z" stroke="white" stroke-width="0.5"/>
<circle cx="1488" cy="140.303" r="103" stroke="white" stroke-width="2"/>
<circle cx="1489.5" cy="83.8027" r="33.5" stroke="white" stroke-width="6"/>
<circle cx="1489.5" cy="199.803" r="33.5" stroke="white" stroke-width="6"/>
<circle cx="1548.5" cy="140.803" r="33.5" stroke="white" stroke-width="6"/>
<circle cx="1431.5" cy="140.803" r="33.5" stroke="white" stroke-width="6"/>
<path d="M1486.41 98.3027V89.4785L1475.81 72.709H1483.03L1488.94 83.1504C1489.09 83.4316 1489.25 83.7422 1489.41 84.082C1489.58 84.4219 1489.73 84.7617 1489.87 85.1016H1490.01C1490.15 84.7617 1490.29 84.4219 1490.43 84.082C1490.58 83.7422 1490.74 83.4316 1490.89 83.1504L1496.88 72.709H1503.26L1492.95 89.3203V98.3027H1486.41Z" fill="white"/>
<path d="M1474.61 212.303L1485.53 186.621H1492.44L1503.39 212.303H1496.11L1489.62 194.918C1489.41 194.32 1489.22 193.752 1489.04 193.213C1488.87 192.662 1488.71 192.176 1488.57 191.754H1488.43C1488.29 192.176 1488.14 192.668 1487.97 193.23C1487.81 193.781 1487.61 194.344 1487.38 194.918L1480.89 212.303H1474.61ZM1480.24 207.1L1481.71 202.916H1495.79L1497.31 207.1H1480.24Z" fill="white"/>
<path d="M1537.79 154.303V128.709H1549.99C1553.19 128.709 1555.64 129.242 1557.34 130.309C1559.04 131.363 1559.89 132.992 1559.89 135.195C1559.89 136.672 1559.55 137.885 1558.87 138.834C1558.2 139.771 1557.31 140.434 1556.2 140.82V140.891C1557.65 141.23 1558.79 141.922 1559.63 142.965C1560.47 143.996 1560.89 145.396 1560.89 147.166C1560.89 149.498 1559.95 151.273 1558.06 152.492C1556.18 153.699 1553.66 154.303 1550.52 154.303H1537.79ZM1544.23 150.365H1549.62C1551.21 150.365 1552.38 150.049 1553.16 149.416C1553.94 148.771 1554.34 147.816 1554.34 146.551C1554.34 145.344 1553.94 144.424 1553.16 143.791C1552.38 143.158 1551.21 142.842 1549.62 142.842H1544.23V150.365ZM1544.23 139.502H1549.12C1550.65 139.502 1551.77 139.221 1552.47 138.658C1553.19 138.084 1553.54 137.246 1553.54 136.145C1553.54 135.02 1553.19 134.176 1552.49 133.613C1551.79 133.051 1550.66 132.77 1549.12 132.77H1544.23V139.502Z" fill="white"/>
<path d="M1418.91 154.303L1429.53 139.854H1430.94L1438.32 128.709H1444.58L1434.8 142.666L1433.38 142.684L1425.35 154.303H1418.91ZM1419.11 128.709H1426.84L1434.45 139.695H1434.54L1445.42 154.303H1437.54L1429.48 142.842L1429.44 142.824L1419.11 128.709Z" fill="white"/>
</svg>
