<svg width="1646" height="690" fill="none" xmlns="http://www.w3.org/2000/svg"><path d="M125.133 32.396c-9.01 0-80.588 68.275-84.092 74.299-1.649 2.836-3.52 36.922-5.873 79.804-2.647 48.226-5.905 107.575-10.144 146.106-6.407 58.235-9.677 153.117-10.511 193.279 12.68 30.121 39.943 94.38 47.551 110.445 9.51 20.081 19.521 38.154 66.072 34.137 37.24-3.213 152.999-3.681 206.223-3.514h977.061c53.22-.167 168.98.301 206.22 3.514 46.55 4.017 56.56-14.056 66.07-34.137 7.61-16.065 34.87-80.324 47.55-110.445-.83-40.162-4.1-135.044-10.51-193.279-4.24-38.531-7.49-97.88-10.14-146.106-2.35-42.882-4.22-76.968-5.87-79.804-3.51-6.024-75.09-74.3-84.1-74.3H125.133Z" stroke="#fff" stroke-width=".5"/><path d="M278.298 28.38c6.507 0 12.013-3.515 12.013-10.041 0-6.527-.5-16.065-52.056-16.065-9.822 0-20.152-.182-30.579-.366-44.307-.782-90.363-1.594-106.57 11.41-20.022 16.065-36.54 34.138-38.542 41.167-.483 1.696-1.404 4.182-2.452 7.012-3.295 8.898-7.852 21.205-4.055 23.11 5.006 2.51 8.009.501 17.019-8.033 4.577-4.336 14.323-13.078 23.33-21.157 8.719-7.822 16.745-15.021 18.715-16.997 4.005-4.016 15.517-10.04 33.537-10.04h129.64Zm1089.182 0c-6.51 0-12.01-3.515-12.01-10.041 0-6.527.5-16.065 52.05-16.065 9.82 0 20.15-.182 30.58-.366 44.31-.782 90.36-1.594 106.57 11.41 20.02 16.065 36.54 34.138 38.54 41.167.49 1.696 1.41 4.182 2.45 7.012 3.3 8.898 7.86 21.205 4.06 23.11-5.01 2.51-8.01.501-17.02-8.033-4.58-4.336-14.32-13.078-23.33-21.157-8.72-7.822-16.74-15.021-18.71-16.997-4.01-4.016-15.52-10.04-33.54-10.04h-129.64Z" stroke="#fff" stroke-width="2"/><path d="M277.735 28.62c6.507 0 12.013-3.514 12.013-10.04s-.501-16.065-52.057-16.065c-9.822 0-20.152-.182-30.579-.366-44.307-.781-90.362-1.594-106.569 11.41-20.022 16.065-36.54 34.139-38.542 41.167-.483 1.696-1.404 4.182-2.452 7.013-3.295 8.898-7.853 21.204-4.055 23.108 5.005 2.51 8.008.502 17.018-8.032 4.578-4.336 14.324-13.078 23.33-21.157 8.72-7.822 16.746-15.021 18.716-16.997 4.004-4.016 15.517-10.04 33.536-10.04h129.641Zm1089.175 0c-6.5 0-12.01-3.514-12.01-10.04s.5-16.065 52.06-16.065c9.82 0 20.15-.182 30.58-.366 44.3-.781 90.36-1.594 106.57 11.41 20.02 16.065 36.54 34.139 38.54 41.167.48 1.696 1.4 4.182 2.45 7.013 3.3 8.898 7.85 21.204 4.06 23.108-5.01 2.51-8.01.502-17.02-8.032-4.58-4.336-14.33-13.078-23.33-21.157-8.72-7.822-16.75-15.021-18.72-16.997-4-4.016-15.51-10.04-33.53-10.04h-129.65Z" stroke="#fff" stroke-width="2"/><path d="M288.629 23.861v-3h-1.543l-.898 1.256 2.441 1.744ZM115.122 38.42l2.124 2.118-2.124-2.118ZM96.406 55.417l1.994 2.24.009-.007-2.003-2.233Zm0 0-1.996-2.24-.008.007 2.003 2.233Zm-23.33 21.157-2.063-2.178 2.063 2.178Zm-17.019 8.032-1.344 2.682 1.344-2.682Zm-1.043-1.157 2.745-1.21-1.73-3.927-3.094 2.974 2.08 2.163Zm-7.855 7.683 2.124 2.118-2.124-2.118ZM30.832 128.93l-2.962-.474 2.962.474Zm-2.694 16.421 2.958.503-2.958-.503ZM6.114 374.273l-2.991-.222 2.991.222ZM5.63 516.005l2.99-.254-2.99.254Zm45.533 127.352-2.704 1.299 2.704-1.299Zm109.634 39.449.286 2.986-.286-2.986Zm56.547-4.307.088 2.998-.088-2.998Zm460.499-.324h3v-2.997l-2.998-.003-.002 3Zm0 .324h-3v3.004l3.004-.004-.004-3ZM823 678.317l.003-3h-.006l.003 3Zm145.157.182-.004 3 3.004.004v-3.004h-3Zm0-.324-.003-3-2.997.003v2.997h3Zm460.503.324-.09 2.998.09-2.998Zm56.54 4.307-.28 2.986.28-2.986Zm109.64-39.449-2.71-1.298 2.71 1.298Zm45.53-127.352 2.99.254-2.99-.254Zm-.48-141.732-3 .222 3-.222Zm-22.03-228.922 2.96-.504-2.96.504Zm-2.69-16.421 2.96-.474-2.96.474Zm-16.33-37.798 2.13-2.118-2.13 2.118Zm-8.01-7.836 2.07-2.164-3.26-3.133-1.62 4.223 2.81 1.074Zm-1.11 1.31 1.34 2.682-1.34-2.682Zm-17.02-8.032-2.06 2.178 2.06-2.178Zm-23.32-21.153 2-2.233-.01-.006v-.005l-1.99 2.244Zm-.01-.004-2 2.233v.005l.01.005 1.99-2.243Zm-18.71-16.997-2.13 2.118 2.13-2.118Zm-173.51-14.559 2.44-1.744-.9-1.256h-1.54v3ZM278.298 31.38c4.954 0 9.919-1.78 12.772-5.774l-4.882-3.488c-1.379 1.931-4.186 3.262-7.89 3.262v6Zm-129.64 0h129.64v-6h-129.64v6Zm-31.412 9.16c3.295-3.306 13.956-9.16 31.412-9.16v-6c-18.583 0-30.948 6.196-35.661 10.923l4.249 4.236ZM98.409 57.65c8.661-7.77 16.789-15.058 18.837-17.112l-4.249-4.236c-1.892 1.898-9.816 9.008-18.594 16.882l4.006 4.466Zm-.01.008h.001l-3.989-4.482 3.989 4.482ZM75.14 78.752c4.54-4.3 14.244-13.006 23.27-21.101l-4.007-4.467c-8.987 8.061-18.774 16.84-23.39 21.212l4.127 4.356Zm-20.426 8.536c1.495.75 3.06 1.273 4.765 1.32 1.727.05 3.343-.398 4.932-1.195 2.977-1.493 6.313-4.478 10.729-8.661l-4.126-4.356c-4.593 4.35-7.265 6.637-9.293 7.654-.914.458-1.55.576-2.075.561-.548-.015-1.236-.182-2.243-.687l-2.69 5.364Zm-2.444-2.63c.457 1.038 1.236 2.024 2.444 2.63l2.69-5.364a.964.964 0 0 1 .282.215c.066.074.083.12.075.1l-5.491 2.42Zm.666-3.372a533.879 533.879 0 0 0-7.9 7.728l4.248 4.237a528.27 528.27 0 0 1 7.81-7.639l-4.158-4.326Zm-7.9 7.728c-6.06 6.078-9.59 9.749-11.91 15.196-2.24 5.256-3.311 12.096-5.255 24.246l5.924.948c2.003-12.517 2.974-18.436 4.85-22.843 1.796-4.214 4.456-7.108 10.64-13.31l-4.25-4.237ZM27.87 128.456c-.733 4.578-1.595 9.963-2.69 16.391l5.916 1.007c1.1-6.46 1.966-11.872 2.698-16.45l-5.924-.948Zm-2.69 16.391c-7.036 41.338-15.054 134.877-22.057 229.204l5.983.444c7.012-94.434 15.011-187.647 21.99-228.641l-5.915-1.007ZM3.124 374.051c-5.858 78.897-1.949 124.951-.482 142.208l5.978-.508c-1.449-17.051-5.34-62.77.487-141.256l-5.983-.444ZM2.64 516.259c.298 3.509.473 5.609.473 6.613h6c0-1.333-.211-3.789-.495-7.121l-5.978.508Zm.473 6.613c0 .823.206 1.879.441 2.891a77.39 77.39 0 0 0 1.082 4.033c.918 3.144 2.235 7.243 3.844 12.013 3.22 9.547 7.642 21.878 12.466 34.823 9.634 25.849 20.939 54.331 27.512 68.024l5.409-2.597c-6.441-13.417-17.661-41.663-27.298-67.523-4.811-12.909-9.211-25.177-12.404-34.644-1.598-4.737-2.885-8.749-3.77-11.778a71.462 71.462 0 0 1-.996-3.707c-.11-.474-.186-.85-.233-1.136-.051-.31-.053-.42-.053-.399h-6ZM48.46 644.656c13.322 27.751 34.202 44.875 60.767 44.875v-6c-23.49 0-42.652-15.005-55.358-41.472l-5.41 2.597Zm60.767 44.875c12.882 0 31.947-1.83 51.857-3.739l-.572-5.972c-20.043 1.921-38.761 3.711-51.285 3.711v6Zm51.857-3.739c19.412-1.86 39.707-3.804 56.349-4.295l-.177-5.997c-16.881.498-37.392 2.465-56.744 4.32l.572 5.972Zm56.349-4.295c18.218-.537 242.532-.504 460.408-.322l.005-6c-217.774-.181-442.251-.216-460.59.325l.177 5.997Zm457.411-3.322v.324h6v-.324h-6Zm3.004 3.324c42.051-.059 91.715-.122 145.156-.182l-.006-6c-53.443.06-103.106.123-145.158.182l.008 6Zm145.15-.182c53.441.06 103.105.123 145.156.182l.008-6c-42.052-.059-91.716-.122-145.158-.182l-.006 6Zm148.16-2.818v-.324h-6v.324h6Zm-2.998 2.676c217.881-.182 442.191-.215 460.411.322l.17-5.997c-18.33-.541-242.81-.506-460.586-.325l.005 6Zm460.411.322c16.64.491 36.93 2.435 56.35 4.295l.57-5.972c-19.35-1.855-39.86-3.822-56.75-4.32l-.17 5.997Zm56.35 4.295c19.91 1.909 38.97 3.739 51.85 3.739v-6c-12.52 0-31.24-1.79-51.28-3.711l-.57 5.972Zm51.85 3.739c26.57 0 47.45-17.124 60.77-44.875l-5.41-2.597c-12.7 26.467-31.87 41.472-55.36 41.472v6Zm60.77-44.875c6.57-13.693 17.88-42.175 27.51-68.024 4.83-12.945 9.25-25.276 12.47-34.823 1.61-4.77 2.93-8.869 3.84-12.013.46-1.57.83-2.931 1.08-4.033.24-1.012.45-2.068.45-2.891h-6c0-.021-.01.089-.06.399-.04.286-.12.662-.23 1.136-.22.948-.55 2.19-1 3.707-.88 3.029-2.17 7.041-3.77 11.778-3.19 9.467-7.59 21.735-12.4 34.644-9.64 25.86-20.86 54.106-27.3 67.523l5.41 2.597Zm45.35-121.784c0-1.004.17-3.104.47-6.613l-5.98-.508c-.28 3.332-.49 5.788-.49 7.121h6Zm.47-6.613c1.47-17.257 5.38-63.311-.48-142.208l-5.99.444c5.83 78.486 1.94 124.205.49 141.256l5.98.508Zm-.48-142.208c-7.01-94.327-15.02-187.866-22.06-229.204l-5.92 1.007c6.98 40.994 14.98 134.207 21.99 228.641l5.99-.444Zm-22.06-229.204c-1.1-6.428-1.96-11.813-2.69-16.391l-5.92.948c.73 4.578 1.59 9.99 2.69 16.45l5.92-1.007Zm-2.69-16.391c-1.94-12.15-3.02-18.99-5.25-24.246-2.33-5.447-5.86-9.118-11.91-15.196l-4.25 4.237c6.18 6.202 8.84 9.096 10.64 13.31 1.87 4.407 2.84 10.326 4.85 22.843l5.92-.948Zm-17.16-39.442a560.056 560.056 0 0 0-8.07-7.882l-4.15 4.327c2.99 2.875 5.69 5.511 7.97 7.792l4.25-4.237Zm-12.95-6.792c-.01.05-.01.012.06-.063a.88.88 0 0 1 .29-.235l2.69 5.364c1.33-.667 2.13-1.786 2.57-2.918l-5.61-2.148Zm.35-.298c-1 .505-1.69.672-2.24.687-.52.015-1.16-.103-2.07-.561-2.03-1.017-4.7-3.303-9.3-7.654l-4.12 4.356c4.41 4.183 7.75 7.168 10.73 8.661 1.59.797 3.2 1.244 4.93 1.196 1.7-.047 3.27-.571 4.76-1.321l-2.69-5.364Zm-13.61-7.528c-4.61-4.372-14.4-13.148-23.38-21.209l-4.01 4.467c9.03 8.095 18.73 16.798 23.27 21.098l4.12-4.356Zm-23.39-21.219-.01-.004-3.98 4.487v.004l3.99-4.487Zm0 .007c-8.77-7.874-16.7-14.984-18.59-16.882l-4.25 4.236c2.05 2.054 10.18 9.343 18.84 17.112l4-4.466Zm-18.59-16.882c-4.71-4.727-17.08-10.923-35.66-10.923v6c17.46 0 28.12 5.854 31.41 9.16l4.25-4.237Zm-35.66-10.923h-129.64v6h129.64v-6Zm-129.64 0c-3.7 0-6.51-1.33-7.89-3.262l-4.88 3.488c2.85 3.994 7.82 5.774 12.77 5.774v-6Zm-10.33-4.518H288.629v6H1357.15v-6Z" fill="#fff"/><path d="M847.436 22.358c.253-2.808 2.611-5.025 5.478-5.025h46.063c2.867 0 5.225 2.217 5.478 5.025h-57.019Zm79.086 0c.253-2.808 2.611-5.025 5.478-5.025h46.063c2.867 0 5.225 2.217 5.478 5.025h-57.019Z" stroke="#fff"/><circle cx="1417.05" cy="308.821" r="79.579" stroke="#fff" stroke-width=".942"/><circle cx="1417.05" cy="308.821" r="63.569" stroke="#fff" stroke-width=".942"/><circle cx="1417.05" cy="308.82" r="50.297" stroke="#fff" stroke-width="3"/><circle cx="1417.05" cy="308.82" r="30.607" stroke="#fff" stroke-width=".942"/><circle cx="140.05" cy="151.821" r="79.579" stroke="#fff" stroke-width=".942"/><circle cx="140.05" cy="151.821" r="63.569" stroke="#fff" stroke-width=".942"/><circle cx="140.051" cy="151.82" r="50.297" stroke="#fff" stroke-width="3"/><circle cx="140.051" cy="151.82" r="30.607" stroke="#fff" stroke-width=".942"/><circle cx="242" cy="284.771" r="65.529" stroke="#fff" stroke-width=".942"/><path d="M301.908 305.671c1.621 0 3.071-1.034 3.52-2.592A66.027 66.027 0 0 0 308 284.771c0-6.352-.897-12.494-2.572-18.308-.449-1.557-1.899-2.592-3.52-2.592h-37.124a1.883 1.883 0 0 1-1.884-1.883v-37.124c0-1.621-1.034-3.071-2.592-3.52A66.032 66.032 0 0 0 242 218.771c-6.352 0-12.495.898-18.308 2.573-1.558.449-2.592 1.899-2.592 3.52v37.124c0 1.04-.843 1.883-1.884 1.883h-37.124c-1.621 0-3.071 1.035-3.52 2.592A66.037 66.037 0 0 0 176 284.771c0 6.353.897 12.495 2.572 18.308.449 1.558 1.899 2.592 3.52 2.592h37.124c1.041 0 1.884.844 1.884 1.884v37.124c0 1.621 1.034 3.071 2.592 3.52A66.032 66.032 0 0 0 242 350.771c6.352 0 12.495-.897 18.308-2.572 1.558-.449 2.592-1.899 2.592-3.52v-37.124c0-1.04.843-1.884 1.884-1.884h37.124Z" stroke="#fff" stroke-width="3"/><rect x="340.864" y="36.406" width="966.05" height="621.516" rx="4.5" stroke="#fff" stroke-width="3"/><path stroke="#fff" stroke-width="3" d="M369.896 89.62h905.985v512.075H369.896z"/><path d="M284.747 19.47c-5.41-1.979-16.162-5.91-36.608-5.91h-101.61c-18.02 0-29.032 6.285-33.036 10.301-.428.43-1.613 1.382-3.29 2.729-6.045 4.856-18.47 14.839-24.74 23.879-5.28 4.736-7.247 11.483-8.893 17.13-1.162 3.985-2.164 7.422-4.058 9.216-9.01 8.534-12.013 10.543-17.018 8.032-3.798-1.904.76-14.21 4.054-23.107v-.002l.001-.001c1.048-2.83 1.969-5.315 2.452-7.011 2.002-7.028 18.52-25.102 38.542-41.166C116.75.555 162.805 1.368 207.112 2.149c10.427.184 20.758.366 30.579.366 51.556 0 52.057 9.538 52.057 16.065 0 2.718-1.14 2.301-5.001.89Zm1075.723 0c5.41-1.979 16.16-5.91 36.6-5.91h101.61c18.02 0 29.04 6.285 33.04 10.301.43.43 1.61 1.382 3.29 2.729 6.05 4.856 18.47 14.839 24.74 23.879 5.28 4.736 7.25 11.483 8.89 17.13 1.17 3.985 2.17 7.422 4.06 9.216 9.01 8.534 12.01 10.543 17.02 8.032 3.8-1.904-.76-14.21-4.05-23.107l-.01-.002v-.001c-1.04-2.83-1.96-5.315-2.45-7.011-2-7.028-18.52-25.102-38.54-41.166C1528.46.555 1482.41 1.368 1438.1 2.149c-10.43.184-20.76.366-30.58.366-51.55 0-52.05 9.538-52.05 16.065 0 2.718 1.14 2.301 5 .89ZM295.816 102.712c0-2.391 2.343-4.078 4.61-3.32l31.042 10.378a3.501 3.501 0 0 1 2.391 3.32v31.244a3.5 3.5 0 0 1-2.548 3.367l-31.042 8.782a3.5 3.5 0 0 1-4.453-3.368v-50.403Zm1056.144 0c0-2.391-2.34-4.078-4.61-3.32l-31.04 10.378a3.498 3.498 0 0 0-2.39 3.32v31.244a3.498 3.498 0 0 0 2.55 3.367l31.04 8.782c2.23.632 4.45-1.046 4.45-3.368v-50.403Zm-1018.101 62.25c0-2.39-2.342-4.077-4.609-3.319l-31.043 10.378a3.5 3.5 0 0 0-2.39 3.319v31.244a3.5 3.5 0 0 0 2.547 3.368l31.043 8.782a3.5 3.5 0 0 0 4.452-3.368v-50.404Zm980.061 0c0-2.39 2.34-4.077 4.61-3.319l31.04 10.378a3.496 3.496 0 0 1 2.39 3.319v31.244a3.499 3.499 0 0 1-2.55 3.368l-31.04 8.782c-2.23.631-4.45-1.047-4.45-3.368v-50.404Z" stroke="#fff"/><path d="M1395.2 449.02v-4.378l13-9.63v4.378l-13 9.63Zm-18.5 8.624 15-10.781v4.384l-15 10.781v-4.384Zm31.5-4.256-31.5 22.64v-4.384l31.5-22.641v4.385Zm-67.5 53.64v-4.384l31.5-22.641v4.385l-31.5 22.64Zm0-18.384 15-10.781v4.384l-15 10.781v-4.384Zm0 130.384v-4.384l15-10.781v4.384l-15 10.781Zm36-31v-4.384l15-10.781v4.384l-15 10.781Zm-17.5-112.386 13-9.63v4.378l-13 9.63v-4.378Zm0 130.378v-4.378l13-9.63v4.378l-13 9.63Zm36-31v-4.378l13-9.63v4.378l-13 9.63Zm-54.5-58.376 31.5-22.641v4.385l-31.5 22.64v-4.384Zm36-31 31.5-22.641v4.385l-31.5 22.64v-4.384Zm-36 45 31.5-22.641v4.385l-31.5 22.64v-4.384Zm36-31 31.5-22.641v4.385l-31.5 22.64v-4.384Zm-36 45 31.5-22.641v4.385l-31.5 22.64v-4.384Zm36-31 31.5-22.641v4.385l-31.5 22.64v-4.384Zm-36 45 31.5-22.641v4.385l-31.5 22.64v-4.384Zm67.5-49.256-31.5 22.64v-4.384l31.5-22.641v4.385Zm-67.5 63.256 31.5-22.641v4.385l-31.5 22.64v-4.384Zm36-26.616v-4.384l31.5-22.641v4.385l-31.5 22.64Zm-36 40.616 31.5-22.641v4.385l-31.5 22.64v-4.384Zm36-26.616v-4.384l31.5-22.641v4.385l-31.5 22.64Zm-36 40.616 31.5-22.641v4.385l-31.5 22.64v-4.384Zm36-26.616v-4.384l31.5-22.641v4.385l-31.5 22.64ZM239.25 437.646v-4.378l13 9.629v4.378l-13-9.629Zm16.5 11.857v-4.385l15 10.781v4.385l-15-10.781Zm15 24.781-31.5-22.641v-4.384l31.5 22.641v4.384Zm4.5 3.975 31.5 22.641v4.384l-31.5-22.641v-4.384Zm16.5-2.141 15 10.781v4.385l-15-10.781v-4.385Zm15 141.166-15-10.781v-4.385l15 10.781v4.385Zm-36-35.385v4.385l-15-10.781v-4.385l15 10.781Zm17.5-103.624-13-9.629v-4.378l13 9.629v4.378Zm-13 111.993 13 9.629v4.378l-13-9.629v-4.378Zm-36-26.622v-4.378l13 9.629v4.378l-13-9.629Zm36-71.387 31.5 22.641v4.384l-31.5-22.641v-4.384Zm-36-31 31.5 22.641v4.384l-31.5-22.641v-4.384Zm36 45 31.5 22.641v4.384l-31.5-22.641v-4.384Zm-36-26.616v-4.384l31.5 22.641v4.384l-31.5-22.641Zm36 40.616 31.5 22.641v4.384l-31.5-22.641v-4.384Zm-36-26.616v-4.384l31.5 22.641v4.384l-31.5-22.641Zm36 40.616 31.5 22.641v4.384l-31.5-22.641v-4.384Zm-36-26.616v-4.384l31.5 22.641v4.384l-31.5-22.641Zm36 40.616 31.5 22.641v4.384l-31.5-22.641v-4.384Zm-36-26.616v-4.384l31.5 22.641v4.384l-31.5-22.641Zm36 40.616 31.5 22.641v4.384l-31.5-22.641v-4.384Zm-36-26.616v-4.384l31.5 22.641v4.384l-31.5-22.641Zm36 40.616 31.5 22.641v4.384l-31.5-22.641v-4.384Zm-36-26.616v-4.384l31.5 22.641v4.384l-31.5-22.641Z" stroke="#fff" stroke-width=".5"/><circle cx="1488" cy="140.771" r="103" stroke="#fff" stroke-width="2"/><circle cx="1489.5" cy="84.272" r="32.5" stroke="#fff" stroke-width="2"/><circle cx="1489.5" cy="200.271" r="32.5" stroke="#fff" stroke-width="2"/><circle cx="1548.5" cy="141.271" r="32.5" stroke="#fff" stroke-width="2"/><circle cx="1431.5" cy="141.271" r="32.5" stroke="#fff" stroke-width="2"/><path d="M1486.41 98.772v-8.825l-10.6-16.77h7.22l5.91 10.442c.15.281.31.592.47.932.17.34.32.68.46 1.02h.14l.42-1.02c.15-.34.31-.65.46-.932l5.99-10.441h6.38l-10.31 16.611v8.983h-6.54Zm-11.8 113.999 10.92-25.681h6.91l10.95 25.681h-7.28l-6.49-17.384c-.21-.598-.4-1.166-.58-1.705a70.91 70.91 0 0 0-.47-1.459h-.14c-.14.422-.29.914-.46 1.476a18.33 18.33 0 0 1-.59 1.688l-6.49 17.384h-6.28Zm5.63-5.203 1.47-4.183h14.08l1.52 4.183h-17.07Zm57.55-52.797v-25.593h12.2c3.2 0 5.65.533 7.35 1.599 1.7 1.055 2.55 2.684 2.55 4.887 0 1.477-.34 2.69-1.02 3.639a5.375 5.375 0 0 1-2.67 1.986v.07c1.45.34 2.59 1.032 3.43 2.075.84 1.031 1.26 2.431 1.26 4.201 0 2.332-.94 4.107-2.83 5.326-1.88 1.207-4.4 1.81-7.54 1.81h-12.73Zm6.44-3.937h5.39c1.59 0 2.76-.316 3.54-.949.78-.645 1.18-1.6 1.18-2.865 0-1.208-.4-2.127-1.18-2.76-.78-.633-1.95-.949-3.54-.949h-5.39v7.523Zm0-10.863h4.89c1.53 0 2.65-.282 3.35-.844.72-.574 1.07-1.412 1.07-2.514 0-1.125-.35-1.968-1.05-2.531-.7-.562-1.83-.844-3.37-.844h-4.89v6.733Zm-125.32 14.8 10.62-14.449h1.41l7.38-11.144h6.26l-9.78 13.957-1.42.017-8.03 11.619h-6.44Zm.2-25.593h7.73l7.61 10.986h.09l10.88 14.607h-7.88l-8.06-11.46-.04-.018-10.33-14.115Z" fill="#fff"/></svg>