<svg width="1640" height="243" viewBox="0 0 1640 243" fill="none" xmlns="http://www.w3.org/2000/svg">
<path opacity="0.2" d="M269.571 125.476H1370.43M1079.42 107.242H559.623M289.195 173.46H336.101M1350.8 173.46H1303.42M1303.42 173.46V191.214M1303.42 173.46H336.101M336.101 173.46V191.694M72.8532 23.7502C23.0754 59.7381 11.5882 99.5648 8.7164 110.601C5.8446 121.637 16.3745 125.476 20.2036 125.476C23.2668 125.476 43.6566 125.476 46.0498 125.476M1576.24 32.8672C1600.17 52.0607 1626.97 92.847 1630.8 109.162C1634.63 125.476 1623.15 125.476 1618.36 125.476C1614.53 125.476 1600.17 125.476 1593.47 125.476" stroke="white" stroke-width="0.957266"/>
<path opacity="0.2" d="M184.375 211.847H174.803V192.654H290.632C301.353 192.654 301.481 205.449 300.205 211.847H290.632V206.089H257.128V211.847H215.965V206.089H184.375V211.847Z" stroke="white" stroke-width="1.91453"/>
<path opacity="0.2" d="M259.043 25.6702L203.521 32.3879L250.906 58.2992H301.163V47.2629L259.043 25.6702Z" stroke="white" stroke-width="2.8718"/>
<path opacity="0.2" d="M1380.96 25.6702L1436.48 32.3879L1389.09 58.2992H1338.84V47.2629L1380.96 25.6702Z" stroke="white" stroke-width="2.8718"/>
<path opacity="0.2" d="M254.257 39.5848L203.521 32.3872L250.906 58.2985H301.163V47.2622L254.257 39.5848Z" stroke="white" stroke-width="2.8718"/>
<path opacity="0.2" d="M1385.74 39.5848L1436.48 32.3872L1389.09 58.2985H1338.84V47.2622L1385.74 39.5848Z" stroke="white" stroke-width="2.8718"/>
<path opacity="0.2" d="M785.537 67.8958H1365.64C1370.86 67.8958 1386.58 59.4009 1406.58 48.5865C1441.62 29.6485 1489.82 3.59741 1517.85 3.59741C1561.88 3.59741 1596.82 49.1821 1604.96 86.6095C1613.09 124.037 1605.91 172.501 1602.09 180.658C1598.26 188.815 1592.51 191.694 1511.15 191.694H853.982V192.174H128.374C47.0068 192.174 41.2634 189.295 37.4343 181.138C33.6053 172.98 26.4258 124.517 34.5625 87.0893C42.6993 49.6619 77.6395 4.07725 121.674 4.07725C149.702 4.07725 197.899 30.1283 232.936 49.0663C252.944 59.8807 268.66 68.3756 273.879 68.3756H785.537V67.8958Z" stroke="white" stroke-width="2.8718"/>
<path opacity="0.2" d="M273.871 67.896H1366.13C1371.35 67.896 1387.06 59.4011 1407.07 48.5868C1442.11 29.6487 1490.31 3.59766 1518.33 3.59766C1577.2 3.59766 1630.31 55.4202 1637.51 88.5291C1646.89 131.715 1609.11 176.34 1605.93 179.698C1596.35 189.775 1593 191.694 1511.63 191.694H128.366C46.9983 191.694 43.6474 189.775 34.0748 179.698C30.8852 176.34 -6.89295 131.715 2.49459 88.5291C9.69169 55.4202 62.8023 3.59766 121.665 3.59766C149.694 3.59766 197.891 29.6487 232.928 48.5868C252.935 59.4011 268.652 67.896 273.871 67.896Z" stroke="white" stroke-width="2"/>
<path opacity="0.2" d="M273.879 67.8958H1366.12C1371.34 67.8958 1387.05 59.4009 1407.06 48.5865C1442.1 29.6485 1490.3 3.59741 1518.32 3.59741C1562.36 3.59741 1597.3 49.1821 1605.44 86.6095C1613.57 124.037 1606.39 172.501 1602.56 180.658C1598.73 188.815 1592.99 191.694 1511.62 191.694H128.374C47.0068 191.694 41.2634 188.815 37.4343 180.658C33.6053 172.501 26.4258 124.037 34.5625 86.6095C42.6993 49.1821 77.6395 3.59741 121.674 3.59741C149.702 3.59741 197.899 29.6485 232.936 48.5865C252.944 59.4009 268.66 67.8958 273.879 67.8958Z" stroke="white" stroke-width="6"/>
<path opacity="0.2" d="M294.46 67.8958H1345.54C1348.9 67.8958 1361.22 58.9486 1374.94 48.9893C1382.53 43.4769 1390.55 37.6545 1397.71 32.8676C1430.73 10.795 1442.22 3.59741 1518.32 3.59741C1562.36 3.59741 1597.3 49.1821 1605.44 86.6095C1613.57 124.037 1606.39 172.501 1602.56 180.658C1598.73 188.815 1592.99 191.694 1511.62 191.694H128.374C47.0068 191.694 41.2634 188.815 37.4343 180.658C33.6053 172.501 26.4258 124.037 34.5625 86.6095C42.6993 49.1821 77.6395 3.59741 121.674 3.59741C197.776 3.59741 209.263 10.795 242.289 32.8676C249.451 37.6545 257.47 43.4769 265.062 48.9893C278.778 58.9486 291.1 67.8958 294.46 67.8958Z" stroke="white" stroke-width="0.957266"/>
<g opacity="0.2">
<path d="M269.572 117.319L286.324 87.0891H311.213L293.983 117.319H269.572Z" stroke="white" stroke-width="0.957266"/>
<path d="M305.948 117.319L322.701 87.0891H350.461L333.23 117.319H305.948Z" stroke="white" stroke-width="0.957266"/>
<path d="M361.948 87.0891L345.196 117.319H375.35L392.581 87.0891H361.948Z" stroke="white" stroke-width="0.957266"/>
<path d="M385.401 117.319L402.154 87.0891H434.701L417.47 117.319H385.401Z" stroke="white" stroke-width="0.957266"/>
<path d="M444.273 87.0891L427.521 117.319H462.461L479.692 87.0891H444.273Z" stroke="white" stroke-width="0.957266"/>
<path d="M472.513 117.319L489.265 87.0891H525.162L507.932 117.319H472.513Z" stroke="white" stroke-width="0.957266"/>
<path d="M534.256 87.0891L517.504 117.319H553.402L570.632 87.0891H534.256Z" stroke="white" stroke-width="0.957266"/>
</g>
<g opacity="0.2">
<path d="M1368.99 117.319L1352.24 87.0891H1327.35L1344.58 117.319H1368.99Z" stroke="white"/>
<path d="M1332.62 117.319L1315.86 87.0891H1288.1L1305.33 117.319H1332.62Z" stroke="white"/>
<path d="M1276.62 87.0891L1293.37 117.319H1263.21L1245.98 87.0891H1276.62Z" stroke="white"/>
<path d="M1253.16 117.319L1236.41 87.0891H1203.86L1221.09 117.319H1253.16Z" stroke="white"/>
<path d="M1194.29 87.0891L1211.04 117.319H1176.1L1158.87 87.0891H1194.29Z" stroke="white"/>
<path d="M1166.05 117.319L1149.3 87.0891H1113.4L1130.63 117.319H1166.05Z" stroke="white"/>
<path d="M1104.31 87.0891L1121.06 117.319H1085.16L1067.93 87.0891H1104.31Z" stroke="white"/>
</g>
<path opacity="0.2" d="M1312.51 192.172H1345.06V198.423C1345.06 200.802 1343.13 202.731 1340.75 202.731H1316.82C1314.44 202.731 1312.51 200.802 1312.51 198.423V192.172Z" stroke="white" stroke-width="0.957266"/>
<path opacity="0.2" d="M294.94 192.172H327.487V198.423C327.487 200.802 325.558 202.731 323.179 202.731H299.247C296.868 202.731 294.94 200.802 294.94 198.423V192.172Z" stroke="white" stroke-width="0.957266"/>
<g opacity="0.2">
<path d="M1407.01 201.543C1369.91 201.198 1340.25 196.974 1337.88 191.694C1350.88 192.639 1370.72 192.929 1402.33 192.929H1405.85V198.411C1405.85 199.608 1406.28 200.703 1407.01 201.543Z" fill="white"/>
<path d="M1463.28 198.627C1463.28 198.626 1463.28 198.626 1463.29 198.626C1463.28 198.555 1463.28 198.483 1463.28 198.411C1463.28 198.484 1463.28 198.555 1463.28 198.627Z" fill="white"/>
</g>
<path opacity="0.2" d="M1521.2 192.172H1577.68V198.423C1577.68 200.802 1575.75 202.731 1573.37 202.731H1525.51C1523.13 202.731 1521.2 200.802 1521.2 198.423V192.172Z" stroke="white" stroke-width="0.957266"/>
<path opacity="0.2" d="M1463.76 192.172H1520.24V198.423C1520.24 200.802 1518.31 202.731 1515.93 202.731H1468.07C1465.69 202.731 1463.76 200.802 1463.76 198.423V192.172Z" stroke="white" stroke-width="0.957266"/>
<path opacity="0.2" d="M1406.33 192.172H1462.8V198.423C1462.8 200.802 1460.88 202.731 1458.5 202.731H1410.63C1408.25 202.731 1406.33 200.802 1406.33 198.423V192.172Z" stroke="white" stroke-width="0.957266"/>
<rect opacity="0.2" x="1142.12" y="130.753" width="80.4103" height="36.4701" rx="9.09403" stroke="white" stroke-width="0.957266"/>
<rect opacity="0.2" x="836.752" y="130.753" width="65.0941" height="29.7524" rx="9.09403" stroke="white" stroke-width="0.957266"/>
<rect opacity="0.2" x="920.035" y="130.753" width="65.0941" height="29.7524" rx="9.09403" stroke="white" stroke-width="0.957266"/>
<g opacity="0.2">
<path fill-rule="evenodd" clip-rule="evenodd" d="M63.9121 191.694C66.3912 197.205 98.5901 201.566 137.947 201.566C174.312 201.566 204.566 197.843 210.911 192.929H128.365C96.7496 192.929 76.9124 192.64 63.9121 191.694Z" fill="white"/>
<path d="M63.9121 191.694L63.9815 190.739L62.3806 190.623L63.0391 192.087L63.9121 191.694ZM210.911 192.929L211.497 193.686L213.71 191.972H210.911V192.929ZM137.947 200.609C118.299 200.609 100.454 199.52 87.2274 197.748C80.6099 196.861 75.1781 195.808 71.2641 194.644C69.3047 194.061 67.7596 193.461 66.6465 192.859C65.4974 192.237 64.9611 191.693 64.7851 191.301L63.0391 192.087C63.4829 193.073 64.4951 193.871 65.7351 194.542C67.0111 195.233 68.6958 195.878 70.7186 196.479C74.7691 197.683 80.3116 198.753 86.9732 199.645C100.305 201.432 118.238 202.523 137.947 202.523V200.609ZM210.325 192.172C208.916 193.264 206.017 194.382 201.722 195.421C197.475 196.449 192.003 197.37 185.573 198.14C172.716 199.679 156.101 200.609 137.947 200.609V202.523C156.158 202.523 172.852 201.591 185.801 200.041C192.273 199.266 197.826 198.334 202.173 197.282C206.471 196.242 209.734 195.052 211.497 193.686L210.325 192.172ZM210.911 191.972H128.365V193.887H210.911V191.972ZM128.365 191.972C96.7436 191.972 76.9413 191.682 63.9815 190.739L63.8427 192.649C76.8834 193.597 96.7555 193.887 128.365 193.887V191.972Z" fill="white"/>
</g>
<path opacity="0.2" d="M98.8201 241.597C93.6991 241.597 90.5626 233.697 90.5625 230.02C90.5624 226.397 90.6266 223.483 95.5556 220.333C100.485 217.182 104.261 215.686 112.647 215.686C116.362 215.686 119.449 215.81 122.888 215.947C127.003 216.112 131.623 216.297 138.426 216.315C145.229 216.297 149.848 216.112 153.964 215.947C157.402 215.81 160.489 215.686 164.205 215.686C172.59 215.686 176.367 217.182 181.296 220.333C186.225 223.483 186.289 226.397 186.289 230.02C186.289 233.697 183.153 241.597 178.032 241.597H98.8201Z" stroke="white" stroke-width="1.91453"/>
<path opacity="0.2" d="M1372.79 241.597C1367.67 241.597 1364.53 233.697 1364.53 230.02C1364.53 226.397 1364.6 223.483 1369.52 220.333C1374.45 217.182 1378.23 215.686 1386.62 215.686C1390.33 215.686 1393.42 215.81 1396.86 215.947C1400.97 216.112 1405.59 216.297 1412.39 216.315C1419.2 216.297 1423.82 216.112 1427.93 215.947C1431.37 215.81 1434.46 215.686 1438.17 215.686C1446.56 215.686 1450.34 217.182 1455.26 220.333C1460.19 223.483 1460.26 226.397 1460.26 230.02C1460.26 233.697 1457.12 241.597 1452 241.597H1372.79Z" stroke="white" stroke-width="1.91453"/>
<g opacity="0.2">
<mask id="path-26-outside-1_701_102035" maskUnits="userSpaceOnUse" x="107.709" y="199.251" width="62" height="18" fill="black">
<rect fill="white" x="107.709" y="199.251" width="62" height="18"/>
<path fill-rule="evenodd" clip-rule="evenodd" d="M137.948 203.1C127.95 203.1 118.413 202.819 109.709 202.309V214.797C110.624 214.75 111.6 214.726 112.648 214.726C116.363 214.726 119.45 214.85 122.889 214.988L122.889 214.988C125.781 215.104 128.921 215.23 132.894 215.3H143.959C147.932 215.23 151.073 215.104 153.965 214.988L153.965 214.988C157.403 214.85 160.49 214.726 164.206 214.726C165.254 214.726 166.23 214.75 167.145 214.797V202.251C158.185 202.796 148.315 203.1 137.948 203.1Z"/>
</mask>
<path d="M109.709 202.309L109.821 200.398L107.794 200.279V202.309H109.709ZM109.709 214.797H107.794V216.812L109.807 216.709L109.709 214.797ZM122.889 214.988L122.997 213.076L122.981 213.075L122.965 213.075L122.889 214.988ZM122.889 214.988L122.78 216.899L122.796 216.9L122.812 216.901L122.889 214.988ZM132.894 215.3L132.86 217.214L132.877 217.215H132.894V215.3ZM143.959 215.3V217.215H143.976L143.993 217.214L143.959 215.3ZM153.965 214.988L154.041 216.901L154.051 216.9L154.06 216.9L153.965 214.988ZM153.965 214.988L153.888 213.075L153.879 213.075L153.869 213.076L153.965 214.988ZM167.145 214.797L167.047 216.709L169.059 216.812V214.797H167.145ZM167.145 202.251H169.059V200.216L167.029 200.34L167.145 202.251ZM109.597 204.22C118.341 204.732 127.915 205.014 137.948 205.014V201.185C127.985 201.185 118.486 200.905 109.821 200.398L109.597 204.22ZM111.624 214.797V202.309H107.794V214.797H111.624ZM109.807 216.709C110.685 216.664 111.628 216.641 112.648 216.641V212.812C111.572 212.812 110.563 212.836 109.611 212.885L109.807 216.709ZM112.648 216.641C116.32 216.641 119.371 216.763 122.812 216.901L122.965 213.075C119.529 212.937 116.406 212.812 112.648 212.812V216.641ZM122.78 216.899L122.78 216.899L122.997 213.076L122.997 213.076L122.78 216.899ZM122.812 216.901C125.705 217.017 128.864 217.143 132.86 217.214L132.928 213.386C128.979 213.316 125.857 213.191 122.965 213.075L122.812 216.901ZM143.959 213.386H132.894V217.215H143.959V213.386ZM143.993 217.214C147.989 217.143 151.149 217.017 154.041 216.901L153.888 213.075C150.997 213.191 147.875 213.316 143.925 213.386L143.993 217.214ZM154.06 216.9L154.06 216.9L153.869 213.076L153.869 213.076L154.06 216.9ZM154.041 216.901C157.482 216.763 160.533 216.641 164.206 216.641V212.812C160.447 212.812 157.325 212.937 153.888 213.075L154.041 216.901ZM164.206 216.641C165.225 216.641 166.168 216.664 167.047 216.709L167.243 212.885C166.291 212.836 165.282 212.812 164.206 212.812V216.641ZM165.23 202.251V214.797H169.059V202.251H165.23ZM137.948 205.014C148.351 205.014 158.26 204.71 167.261 204.162L167.029 200.34C158.109 200.883 148.278 201.185 137.948 201.185V205.014Z" fill="white" mask="url(#path-26-outside-1_701_102035)"/>
</g>
<g opacity="0.2">
<mask id="path-28-outside-2_701_102035" maskUnits="userSpaceOnUse" x="1381.68" y="199.251" width="62" height="18" fill="black">
<rect fill="white" x="1381.68" y="199.251" width="62" height="18"/>
<path fill-rule="evenodd" clip-rule="evenodd" d="M1411.92 203.1C1401.92 203.1 1392.38 202.819 1383.68 202.309V214.797C1384.59 214.75 1385.57 214.726 1386.62 214.726C1390.33 214.726 1393.42 214.85 1396.86 214.988L1396.86 214.988C1399.75 215.104 1402.89 215.23 1406.86 215.3H1417.93C1421.9 215.23 1425.04 215.104 1427.93 214.988L1427.93 214.988C1431.37 214.85 1434.46 214.726 1438.17 214.726C1439.22 214.726 1440.2 214.75 1441.11 214.797V202.251C1432.15 202.796 1422.28 203.1 1411.92 203.1Z"/>
</mask>
<path d="M1383.68 202.309L1383.79 200.398L1381.76 200.279V202.309H1383.68ZM1383.68 214.797H1381.76V216.812L1383.78 216.709L1383.68 214.797ZM1396.86 214.988L1396.97 213.076L1396.95 213.075L1396.93 213.075L1396.86 214.988ZM1396.86 214.988L1396.75 216.899L1396.76 216.9L1396.78 216.901L1396.86 214.988ZM1406.86 215.3L1406.83 217.214L1406.85 217.215H1406.86V215.3ZM1417.93 215.3V217.215H1417.95L1417.96 217.214L1417.93 215.3ZM1427.93 214.988L1428.01 216.901L1428.03 216.9L1428.05 216.899L1427.93 214.988ZM1427.93 214.988L1427.86 213.075L1427.84 213.076L1427.81 213.077L1427.93 214.988ZM1441.11 214.797L1441.02 216.709L1443.03 216.812V214.797H1441.11ZM1441.11 202.251H1443.03V200.216L1441 200.34L1441.11 202.251ZM1383.57 204.22C1392.31 204.732 1401.88 205.014 1411.92 205.014V201.185C1401.95 201.185 1392.45 200.905 1383.79 200.398L1383.57 204.22ZM1385.59 214.797V202.309H1381.76V214.797H1385.59ZM1383.78 216.709C1384.65 216.664 1385.6 216.641 1386.62 216.641V212.812C1385.54 212.812 1384.53 212.836 1383.58 212.885L1383.78 216.709ZM1386.62 216.641C1390.29 216.641 1393.34 216.763 1396.78 216.901L1396.93 213.075C1393.5 212.937 1390.37 212.812 1386.62 212.812V216.641ZM1396.75 216.899L1396.75 216.899L1396.97 213.076L1396.97 213.076L1396.75 216.899ZM1396.78 216.901C1399.67 217.017 1402.83 217.143 1406.83 217.214L1406.9 213.386C1402.95 213.316 1399.83 213.191 1396.93 213.075L1396.78 216.901ZM1417.93 213.386H1406.86V217.215H1417.93V213.386ZM1417.96 217.214C1421.96 217.143 1425.12 217.017 1428.01 216.901L1427.86 213.075C1424.97 213.191 1421.84 213.316 1417.89 213.386L1417.96 217.214ZM1428.05 216.899L1428.05 216.899L1427.81 213.077L1427.81 213.077L1428.05 216.899ZM1428.01 216.901C1431.45 216.763 1434.5 216.641 1438.17 216.641V212.812C1434.42 212.812 1431.29 212.937 1427.86 213.075L1428.01 216.901ZM1438.17 216.641C1439.19 216.641 1440.14 216.664 1441.02 216.709L1441.21 212.885C1440.26 212.836 1439.25 212.812 1438.17 212.812V216.641ZM1439.2 202.251V214.797H1443.03V202.251H1439.2ZM1411.92 205.014C1422.32 205.014 1432.23 204.71 1441.23 204.162L1441 200.34C1432.08 200.883 1422.25 201.185 1411.92 201.185V205.014Z" fill="white" mask="url(#path-28-outside-2_701_102035)"/>
</g>
<path opacity="0.2" d="M411.247 146.589C411.247 154.013 405.245 160.027 397.845 160.027C390.446 160.027 384.444 154.013 384.444 146.589C384.444 139.165 390.446 133.151 397.845 133.151C405.245 133.151 411.247 139.165 411.247 146.589Z" stroke="white" stroke-width="1.91453"/>
<path opacity="0.2" d="M403.11 146.589C403.11 149.506 400.752 151.869 397.845 151.869C394.939 151.869 392.58 149.506 392.58 146.589C392.58 143.672 394.939 141.31 397.845 141.31C400.752 141.31 403.11 143.672 403.11 146.589Z" stroke="white" stroke-width="0.957266"/>
<rect opacity="0.2" x="453.846" y="132.673" width="68.9231" height="27.8331" rx="10.0513" stroke="white" stroke-width="0.957266"/>
<rect opacity="0.2" x="564.889" y="132.673" width="226.872" height="27.8331" rx="7.1795" stroke="white" stroke-width="0.957266"/>
<rect opacity="0.2" x="453.846" y="141.31" width="68.9231" height="10.5589" stroke="white" stroke-width="0.957266"/>
<g opacity="0.2">
<path d="M1373.29 180.691H1552.76C1571.71 180.691 1581.19 180.691 1587.26 175.03C1587.61 174.698 1587.96 174.354 1588.29 173.998C1593.95 167.93 1593.95 158.454 1593.95 139.501C1593.95 129.163 1593.95 123.994 1590.86 120.684C1590.68 120.49 1590.49 120.302 1590.3 120.121C1586.99 117.033 1581.82 117.033 1571.48 117.033H1388.4C1383.78 117.033 1381.47 117.033 1379.39 117.882C1377.31 118.731 1375.65 120.345 1372.35 123.572L1349.03 146.347L1349.03 146.347C1345.8 149.505 1344.18 151.084 1343.31 152.838C1341.88 155.731 1341.73 159.094 1342.9 162.102C1343.61 163.925 1345.08 165.641 1348.02 169.073C1351.04 172.597 1352.56 174.359 1354.3 175.739C1357.17 178.01 1360.55 179.561 1364.14 180.264C1366.32 180.691 1368.64 180.691 1373.29 180.691Z" stroke="white" stroke-width="3"/>
<path d="M1382.86 180.691H1552.76C1571.71 180.691 1581.19 180.691 1587.26 175.03C1587.61 174.698 1587.96 174.354 1588.29 173.998C1593.95 167.93 1593.95 158.454 1593.95 139.501C1593.95 129.163 1593.95 123.994 1590.86 120.684C1590.68 120.49 1590.49 120.302 1590.3 120.121C1586.99 117.033 1581.82 117.033 1571.48 117.033H1397.97C1393.35 117.033 1391.04 117.033 1388.96 117.882C1386.88 118.731 1385.23 120.345 1381.92 123.572L1358.6 146.347C1355.37 149.505 1353.75 151.084 1352.89 152.838C1351.45 155.731 1351.3 159.094 1352.48 162.102C1353.18 163.925 1354.66 165.641 1357.6 169.073L1357.6 169.073C1360.62 172.597 1362.13 174.359 1363.87 175.739C1366.75 178.01 1370.12 179.561 1373.71 180.264C1375.9 180.691 1378.22 180.691 1382.86 180.691Z" stroke="white" stroke-width="3"/>
<path d="M1410.71 180.691H1552.76C1571.71 180.691 1581.19 180.691 1587.26 175.03C1587.61 174.698 1587.96 174.354 1588.29 173.998C1593.95 167.93 1593.95 158.454 1593.95 139.501C1593.95 129.163 1593.95 123.994 1590.86 120.684C1590.68 120.49 1590.49 120.302 1590.3 120.121C1586.99 117.033 1581.82 117.033 1571.48 117.033H1419.99C1415.37 117.033 1413.06 117.033 1410.98 117.882C1408.89 118.731 1407.24 120.345 1403.94 123.572L1375.89 150.971C1372.85 153.941 1371.33 155.427 1371.24 157.317C1371.16 159.207 1372.54 160.821 1375.31 164.049L1375.82 164.646C1382.59 172.54 1385.97 176.488 1390.54 178.59C1395.11 180.691 1400.31 180.691 1410.71 180.691Z" stroke="white" stroke-width="0.957266"/>
<path d="M1560.92 159.751V144.059L1556.2 145.826V142.829L1562.61 140.486H1564.45V159.751H1560.92Z" fill="white"/>
<path d="M1540.14 159.751V140.696H1546.86C1548.91 140.696 1550.49 141.224 1551.63 142.279C1552.76 143.326 1553.33 144.749 1553.33 146.546C1553.33 148.361 1552.75 149.814 1551.6 150.904C1550.45 151.986 1548.86 152.527 1546.84 152.527H1543.67V159.751H1540.14ZM1543.67 149.949H1546.56C1547.76 149.949 1548.6 149.639 1549.08 149.02C1549.56 148.4 1549.8 147.602 1549.8 146.624C1549.8 145.647 1549.56 144.858 1549.08 144.256C1548.6 143.654 1547.76 143.353 1546.56 143.353H1543.67V149.949ZM1550.29 159.751L1545.97 151.061L1549.49 150.629L1554.22 159.751H1550.29Z" fill="white"/>
</g>
<path d="M1518.33 11.7344C1551.32 11.7344 1584.17 45.0985 1592.13 94.1491C1593.73 104.014 1594.53 108.947 1591.09 112.99C1587.65 117.034 1582.09 117.034 1570.97 117.034H1403.73C1396.58 117.034 1393.01 117.034 1391.98 114.812C1390.95 112.591 1393.27 109.866 1397.9 104.417L1433.13 62.9481C1445.73 45.8769 1480.42 11.7344 1518.33 11.7344Z" stroke="white" stroke-width="6"/>
<path d="M1521.91 11.2559C1539.21 11.2559 1576.28 44.6372 1585.58 93.7086C1587.41 103.394 1588.33 108.236 1584.88 112.396C1581.44 116.555 1575.88 116.555 1564.75 116.555H1423.95C1416.94 116.555 1413.43 116.555 1412.39 114.363C1411.36 112.172 1413.58 109.461 1418.03 104.039L1453.71 60.5551C1469.03 41.8884 1502.03 11.2559 1521.91 11.2559Z" stroke="white" stroke-width="0.957266"/>
<path d="M1555.33 91.6648V89.4137L1561.93 82.0585C1562.66 81.2383 1563.24 80.4792 1563.67 79.7812C1564.09 79.0745 1564.31 78.3416 1564.31 77.5825C1564.31 76.7798 1564.08 76.1385 1563.61 75.6586C1563.16 75.17 1562.52 74.9257 1561.7 74.9257C1560.87 74.9257 1560.19 75.2006 1559.66 75.7503C1559.13 76.2912 1558.86 77.1419 1558.86 78.3023V78.6426H1555.3V78.1322C1555.3 76.3872 1555.9 74.9737 1557.08 73.8918C1558.27 72.8012 1559.81 72.2559 1561.72 72.2559C1563.69 72.2559 1565.21 72.7445 1566.27 73.7217C1567.34 74.6902 1567.88 75.9248 1567.88 77.4255C1567.88 78.6557 1567.57 79.7551 1566.95 80.7236C1566.33 81.692 1565.54 82.7041 1564.57 83.7599L1560.08 88.8248H1568.32V91.6648H1555.33Z" fill="white"/>
<path d="M1540.13 91.665V72.6094H1546.86C1548.9 72.6094 1550.49 73.1372 1551.63 74.193C1552.76 75.24 1553.33 76.6622 1553.33 78.4595C1553.33 80.2744 1552.75 81.7271 1551.6 82.8177C1550.45 83.8996 1548.86 84.4406 1546.84 84.4406H1543.67V91.665H1540.13ZM1543.67 81.8623H1546.56C1547.76 81.8623 1548.59 81.5526 1549.07 80.9331C1549.55 80.3136 1549.79 79.5153 1549.79 78.5381C1549.79 77.5609 1549.55 76.7712 1549.07 76.1692C1548.59 75.5672 1547.76 75.2662 1546.56 75.2662H1543.67V81.8623ZM1550.29 91.665L1545.97 82.9748L1549.49 82.5429L1554.22 91.665H1550.29Z" fill="white"/>
<g opacity="0.2">
<path d="M266.715 180.691H87.2414C68.2883 180.691 58.8118 180.691 52.7439 175.03C52.3882 174.698 52.044 174.354 51.7121 173.998C46.0508 167.93 46.0508 158.454 46.0508 139.501C46.0508 129.163 46.0508 123.994 49.1388 120.684C49.3198 120.49 49.5075 120.302 49.7016 120.121C53.0113 117.033 58.1804 117.033 68.5184 117.033H251.599C256.218 117.033 258.528 117.033 260.611 117.882C262.695 118.731 264.347 120.345 267.652 123.572L290.969 146.347L290.969 146.347C294.202 149.505 295.819 151.084 296.687 152.838C298.12 155.731 298.269 159.094 297.098 162.102C296.388 163.925 294.917 165.641 291.975 169.073C288.955 172.597 287.445 174.359 285.699 175.739C282.827 178.01 279.454 179.561 275.861 180.264C273.676 180.691 271.356 180.691 266.715 180.691Z" stroke="white" stroke-width="3"/>
<path d="M257.142 180.691H87.2414C68.2883 180.691 58.8118 180.691 52.7439 175.03C52.3882 174.698 52.044 174.354 51.7121 173.998C46.0508 167.93 46.0508 158.454 46.0508 139.501C46.0508 129.163 46.0508 123.994 49.1388 120.684C49.3198 120.49 49.5075 120.302 49.7016 120.121C53.0113 117.033 58.1804 117.033 68.5184 117.033H242.026C246.645 117.033 248.955 117.033 251.039 117.882C253.122 118.731 254.775 120.345 258.079 123.572L281.396 146.347C284.63 149.505 286.246 151.084 287.114 152.838C288.547 155.731 288.696 159.094 287.525 162.102C286.815 163.925 285.344 165.641 282.403 169.073L282.402 169.073C279.382 172.597 277.872 174.359 276.126 175.739C273.254 178.01 269.881 179.561 266.288 180.264C264.104 180.691 261.783 180.691 257.142 180.691Z" stroke="white" stroke-width="3"/>
<path d="M229.294 180.691H87.2414C68.2883 180.691 58.8118 180.691 52.7439 175.03C52.3882 174.698 52.044 174.354 51.7121 173.998C46.0508 167.93 46.0508 158.454 46.0508 139.501C46.0508 129.163 46.0508 123.994 49.1388 120.684C49.3198 120.49 49.5075 120.302 49.7016 120.121C53.0113 117.033 58.1804 117.033 68.5184 117.033H220.009C224.628 117.033 226.938 117.033 229.021 117.882C231.105 118.731 232.757 120.345 236.062 123.572L264.113 150.971C267.154 153.941 268.675 155.427 268.759 157.317C268.842 159.207 267.459 160.821 264.692 164.049L264.181 164.646C257.414 172.54 254.03 176.488 249.46 178.59C244.89 180.691 239.692 180.691 229.294 180.691Z" stroke="white" stroke-width="0.957266"/>
<path d="M101.893 159.751V144.059L97.168 145.826V142.829L103.581 140.486H105.426V159.751H101.893Z" fill="white"/>
<path d="M83.1777 159.751V140.696H86.7114V156.977H94.8912V159.751H83.1777Z" fill="white"/>
</g>
<path d="M121.675 11.7344C88.6779 11.7344 55.8262 45.0985 47.8681 94.1491C46.2676 104.014 45.4673 108.947 48.9075 112.99C52.3477 117.034 57.9068 117.034 69.0252 117.034H236.266C243.416 117.034 246.991 117.034 248.018 114.812C249.046 112.591 246.731 109.866 242.102 104.417L206.871 62.9481C194.267 45.8769 159.583 11.7344 121.675 11.7344Z" stroke="white" stroke-width="6"/>
<path d="M118.094 11.2559C100.792 11.2559 63.7218 44.6372 54.4231 93.7086C52.5878 103.394 51.6702 108.236 55.1156 112.396C58.561 116.555 64.1233 116.555 75.2478 116.555H216.05C223.063 116.555 226.569 116.555 227.606 114.363C228.643 112.172 226.419 109.461 221.97 104.039L186.291 60.5551C170.974 41.8884 137.966 11.2559 118.094 11.2559Z" stroke="white" stroke-width="0.957266"/>
<path d="M92.4324 91.9285V89.6774L99.0286 82.3222C99.7615 81.502 100.342 80.7429 100.769 80.0449C101.197 79.3382 101.411 78.6053 101.411 77.8462C101.411 77.0435 101.179 76.4022 100.717 75.9223C100.263 75.4337 99.6263 75.1894 98.8061 75.1894C97.9772 75.1894 97.2967 75.4642 96.7644 76.0139C96.2322 76.5549 95.9661 77.4056 95.9661 78.566V78.9063H92.4062V78.3959C92.4062 76.6509 92.9996 75.2374 94.1862 74.1555C95.3728 73.0648 96.9171 72.5195 98.8192 72.5195C100.791 72.5195 102.309 73.0081 103.374 73.9853C104.447 74.9538 104.983 76.1884 104.983 77.6891C104.983 78.9194 104.674 80.0187 104.054 80.9872C103.435 81.9557 102.641 82.9678 101.672 84.0236L97.1832 89.0885H105.428V91.9285H92.4324Z" fill="white"/>
<path d="M79.3047 91.9286V72.873H82.8383V89.154H91.0181V91.9286H79.3047Z" fill="white"/>
</svg>
