<svg width="1640" height="243" fill="none" xmlns="http://www.w3.org/2000/svg"><path opacity=".2" d="M269.571 125.476H1370.43m-291.01-18.234H559.623M289.195 173.46h46.906m1014.699 0h-47.38m0 0v17.754m0-17.754H336.101m0 0v18.234M72.853 23.75C23.075 59.738 11.588 99.565 8.716 110.601c-2.871 11.036 7.659 14.875 11.488 14.875H46.05m1530.19-92.609c23.93 19.194 50.73 59.98 54.56 76.295 3.83 16.314-7.65 16.314-12.44 16.314h-24.89" stroke="#fff" stroke-width=".957"/><path opacity=".2" d="M184.375 211.847h-9.572v-19.193h115.829c10.721 0 10.849 12.795 9.573 19.193h-9.573v-5.758h-33.504v5.758h-41.163v-5.758h-31.59v5.758Z" stroke="#fff" stroke-width="1.915"/><path opacity=".2" d="m259.042 25.67-55.521 6.718 47.384 25.911h50.257V47.263l-42.12-21.593Zm1121.918 0 55.52 6.718-47.39 25.911h-50.25V47.263l42.12-21.593Z" stroke="#fff" stroke-width="2.872"/><path opacity=".2" d="m254.256 39.585-50.735-7.198 47.384 25.911h50.257V47.262l-46.906-7.677Zm1131.484 0 50.74-7.198-47.39 25.911h-50.25V47.262l46.9-7.677Z" stroke="#fff" stroke-width="2.872"/><path opacity=".2" d="M785.537 67.896h580.103c5.22 0 20.94-8.495 40.94-19.31 35.04-18.938 83.24-44.989 111.27-44.989 44.03 0 78.97 45.585 87.11 83.013 8.13 37.427.95 85.891-2.87 94.048-3.83 8.157-9.58 11.036-90.94 11.036H853.982v.48H128.374c-81.367 0-87.11-2.879-90.94-11.036-3.829-8.158-11.008-56.621-2.871-94.049 8.136-37.427 43.076-83.012 87.111-83.012 28.028 0 76.225 26.051 111.262 44.99 20.008 10.814 35.724 19.309 40.943 19.309h511.658v-.48Z" stroke="#fff" stroke-width="2.872"/><path opacity=".2" d="M273.871 67.896H1366.13c5.22 0 20.93-8.495 40.94-19.31 35.04-18.937 83.24-44.988 111.26-44.988 58.87 0 111.98 51.822 119.18 84.931 9.38 43.186-28.4 87.811-31.58 91.169-9.58 10.077-12.93 11.996-94.3 11.996H128.366c-81.368 0-84.719-1.919-94.291-11.996-3.19-3.358-40.968-47.983-31.58-91.169C9.692 55.42 62.802 3.598 121.665 3.598c28.029 0 76.226 26.05 111.263 44.989 20.007 10.814 35.724 19.309 40.943 19.309Z" stroke="#fff" stroke-width="2"/><path opacity=".2" d="M273.879 67.896H1366.12c5.22 0 20.93-8.495 40.94-19.31 35.04-18.938 83.24-44.989 111.26-44.989 44.04 0 78.98 45.585 87.12 83.013 8.13 37.427.95 85.891-2.88 94.048-3.83 8.157-9.57 11.036-90.94 11.036H128.374c-81.367 0-87.11-2.879-90.94-11.036-3.829-8.157-11.008-56.621-2.871-94.048 8.136-37.428 43.076-83.013 87.111-83.013 28.028 0 76.225 26.051 111.262 44.99 20.008 10.814 35.724 19.309 40.943 19.309Z" stroke="#fff" stroke-width="6"/><path opacity=".2" d="M294.46 67.896h1051.08c3.36 0 15.68-8.947 29.4-18.907 7.59-5.512 15.61-11.334 22.77-16.121 33.02-22.073 44.51-29.27 120.61-29.27 44.04 0 78.98 45.584 87.12 83.011 8.13 37.428.95 85.892-2.88 94.049-3.83 8.157-9.57 11.036-90.94 11.036H128.374c-81.367 0-87.11-2.879-90.94-11.036-3.829-8.157-11.008-56.621-2.871-94.048 8.136-37.428 43.076-83.013 87.111-83.013 76.102 0 87.589 7.198 120.615 29.27 7.162 4.788 15.181 10.61 22.773 16.122 13.716 9.96 26.038 18.907 29.398 18.907Z" stroke="#fff" stroke-width=".957"/><path d="m269.572 117.319 16.752-30.23h24.889l-17.23 30.23h-24.411Zm36.376 0 16.753-30.23h27.76l-17.231 30.23h-27.282Zm56-30.229-16.752 30.229h30.154l17.231-30.23h-30.633Zm23.453 30.229 16.753-30.23h32.547l-17.231 30.23h-32.069Zm58.872-30.229-16.752 30.229h34.94l17.231-30.23h-35.419Zm28.24 30.229 16.752-30.23h35.897l-17.23 30.23h-35.419Zm61.743-30.229-16.752 30.229h35.898l17.23-30.23h-36.376Z" opacity=".2" stroke="#fff" stroke-width=".957"/><path d="m1368.99 117.319-16.75-30.23h-24.89l17.23 30.23h24.41Zm-36.37 0-16.76-30.23h-27.76l17.23 30.23h27.29Zm-56-30.229 16.75 30.229h-30.16l-17.23-30.23h30.64Zm-23.46 30.229-16.75-30.23h-32.55l17.23 30.23h32.07Zm-58.87-30.229 16.75 30.229h-34.94l-17.23-30.23h35.42Zm-28.24 30.229-16.75-30.23h-35.9l17.23 30.23h35.42Zm-61.74-30.229 16.75 30.229h-35.9l-17.23-30.23h36.38Z" opacity=".2" stroke="#fff"/><path opacity=".2" d="M1312.51 192.172h32.55v6.251a4.31 4.31 0 0 1-4.31 4.308h-23.93a4.31 4.31 0 0 1-4.31-4.308v-6.251Zm-1017.57 0h32.547v6.251a4.308 4.308 0 0 1-4.308 4.308h-23.932a4.307 4.307 0 0 1-4.307-4.308v-6.251Z" stroke="#fff" stroke-width=".957"/><path d="M1407.01 201.543c-37.1-.345-66.76-4.569-69.13-9.849 13 .945 32.84 1.235 64.45 1.235h3.52v5.482c0 1.197.43 2.292 1.16 3.132Zm56.27-2.916.01-.001c-.01-.071-.01-.143-.01-.215v.216Z" opacity=".2" fill="#fff"/><path opacity=".2" d="M1521.2 192.172h56.48v6.251a4.31 4.31 0 0 1-4.31 4.308h-47.86a4.31 4.31 0 0 1-4.31-4.308v-6.251Zm-57.44 0h56.48v6.251a4.31 4.31 0 0 1-4.31 4.308h-47.86a4.31 4.31 0 0 1-4.31-4.308v-6.251Zm-57.43 0h56.47v6.251a4.3 4.3 0 0 1-4.3 4.308h-47.87a4.3 4.3 0 0 1-4.3-4.308v-6.251Z" stroke="#fff" stroke-width=".957"/><rect opacity=".2" x="1142.12" y="130.753" width="80.41" height="36.47" rx="9.094" stroke="#fff" stroke-width=".957"/><rect opacity=".2" x="836.752" y="130.753" width="65.094" height="29.752" rx="9.094" stroke="#fff" stroke-width=".957"/><rect opacity=".2" x="920.034" y="130.753" width="65.094" height="29.752" rx="9.094" stroke="#fff" stroke-width=".957"/><g opacity=".2" fill="#fff"><path fill-rule="evenodd" clip-rule="evenodd" d="M63.913 191.694c2.48 5.511 34.678 9.872 74.035 9.872 36.365 0 66.619-3.723 72.964-8.637h-82.546c-31.616 0-51.453-.289-64.453-1.235Z"/><path d="m63.913 191.694.07-.955-1.601-.116.658 1.464.873-.393Zm146.999 1.235.586.757 2.213-1.714h-2.799v.957Zm-72.964 7.68c-19.648 0-37.493-1.089-50.72-2.861-6.617-.887-12.049-1.94-15.963-3.104-1.96-.583-3.504-1.183-4.618-1.785-1.149-.622-1.685-1.166-1.86-1.558l-1.747.786c.444.986 1.456 1.784 2.696 2.455 1.276.691 2.96 1.336 4.984 1.937 4.05 1.204 9.593 2.274 16.254 3.166 13.332 1.787 31.265 2.878 50.974 2.878v-1.914Zm72.378-8.437c-1.409 1.092-4.308 2.21-8.603 3.249-4.247 1.028-9.719 1.949-16.149 2.719-12.857 1.539-29.473 2.469-47.626 2.469v1.914c18.211 0 34.905-.932 47.853-2.482 6.473-.775 12.026-1.707 16.373-2.759 4.298-1.04 7.561-2.23 9.324-3.596l-1.172-1.514Zm.586-.2h-82.546v1.915h82.546v-1.915Zm-82.546 0c-31.621 0-51.424-.29-64.384-1.233l-.138 1.91c13.04.948 32.913 1.238 64.522 1.238v-1.915Z"/></g><path opacity=".2" d="M98.82 241.597c-5.12 0-8.257-7.9-8.257-11.577 0-3.623.064-6.537 4.993-9.687 4.929-3.151 8.705-4.647 17.091-4.647 3.715 0 6.802.124 10.241.261 4.115.165 8.735.35 15.538.368 6.803-.018 11.422-.203 15.538-.368 3.438-.137 6.525-.261 10.241-.261 8.385 0 12.162 1.496 17.091 4.647 4.929 3.15 4.993 6.064 4.993 9.687 0 3.677-3.136 11.577-8.257 11.577H98.82Zm1273.97 0c-5.12 0-8.26-7.9-8.26-11.577 0-3.623.07-6.537 4.99-9.687 4.93-3.151 8.71-4.647 17.1-4.647 3.71 0 6.8.124 10.24.261 4.11.165 8.73.35 15.53.368 6.81-.018 11.43-.203 15.54-.368 3.44-.137 6.53-.261 10.24-.261 8.39 0 12.17 1.496 17.09 4.647 4.93 3.15 5 6.064 5 9.687 0 3.677-3.14 11.577-8.26 11.577h-79.21Z" stroke="#fff" stroke-width="1.915"/><g opacity=".2"><mask id="Device Type=ROG Ally, View=Top-triggers__a" maskUnits="userSpaceOnUse" x="107.709" y="199.251" width="62" height="18" fill="#000"><path fill="#fff" d="M107.709 199.251h62v18h-62z"/><path fill-rule="evenodd" clip-rule="evenodd" d="M137.948 203.1c-9.998 0-19.535-.281-28.239-.791v12.488a57.335 57.335 0 0 1 2.939-.071c3.715 0 6.802.124 10.241.262 2.892.116 6.032.242 10.005.312h11.065c3.973-.07 7.114-.196 10.006-.312 3.438-.138 6.525-.262 10.241-.262 1.048 0 2.024.024 2.939.071v-12.546c-8.96.545-18.83.849-29.197.849Z"/></mask><path d="m109.709 202.309.112-1.911-2.027-.119v2.03h1.915Zm0 12.488h-1.915v2.015l2.013-.103-.098-1.912Zm13.18.191.108-1.912-.016-.001h-.016l-.076 1.913Zm0 0-.109 1.911.016.001.016.001.077-1.913Zm10.005.312-.034 1.914.017.001h.017V215.3Zm11.065 0v1.915h.017l.017-.001-.034-1.914Zm10.006-.312.076 1.913.01-.001h.009l-.095-1.912Zm0 0-.077-1.913h-.009l-.01.001.096 1.912Zm13.18-.191-.098 1.912 2.012.103v-2.015h-1.914Zm0-12.546h1.914v-2.035l-2.03.124.116 1.911Zm-57.548 1.969c8.744.512 18.318.794 28.351.794v-3.829c-9.963 0-19.462-.28-28.127-.787l-.224 3.822Zm2.027 10.577v-12.488h-3.83v12.488h3.83Zm-1.817 1.912a55.569 55.569 0 0 1 2.841-.068v-3.829c-1.076 0-2.085.024-3.037.073l.196 3.824Zm2.841-.068c3.672 0 6.723.122 10.164.26l.153-3.826c-3.436-.138-6.559-.263-10.317-.263v3.829Zm10.132.258.217-3.823-.217 3.823Zm.032.002c2.893.116 6.052.242 10.048.313l.068-3.828c-3.949-.07-7.071-.195-9.963-.311l-.153 3.826Zm21.147-3.515h-11.065v3.829h11.065v-3.829Zm.034 3.828a421.67 421.67 0 0 0 10.048-.313l-.153-3.826c-2.891.116-6.013.241-9.963.311l.068 3.828Zm10.067-.314-.191-3.824.191 3.824Zm-.019.001c3.441-.138 6.492-.26 10.165-.26v-3.829c-3.759 0-6.881.125-10.318.263l.153 3.826Zm10.165-.26c1.019 0 1.962.023 2.841.068l.196-3.824a59.153 59.153 0 0 0-3.037-.073v3.829Zm1.024-14.39v12.546h3.829v-12.546h-3.829Zm-27.282 2.763c10.403 0 20.312-.304 29.313-.852l-.232-3.822c-8.92.543-18.751.845-29.081.845v3.829Z" fill="#fff" mask="url(#Device Type=ROG Ally, View=Top-triggers__a)"/></g><g opacity=".2"><mask id="Device Type=ROG Ally, View=Top-triggers__b" maskUnits="userSpaceOnUse" x="1381.68" y="199.251" width="62" height="18" fill="#000"><path fill="#fff" d="M1381.68 199.251h62v18h-62z"/><path fill-rule="evenodd" clip-rule="evenodd" d="M1411.92 203.1c-10 0-19.54-.281-28.24-.791v12.488c.91-.047 1.89-.071 2.94-.071 3.71 0 6.8.124 10.24.262 2.89.116 6.03.242 10 .312h11.07c3.97-.07 7.11-.196 10-.312 3.44-.138 6.53-.262 10.24-.262 1.05 0 2.03.024 2.94.071v-12.546c-8.96.545-18.83.849-29.19.849Z"/></mask><path d="m1383.68 202.309.11-1.911-2.03-.119v2.03h1.92Zm0 12.488h-1.92v2.015l2.02-.103-.1-1.912Zm13.18.191.1-1.912-.01-.001h-.02l-.07 1.913Zm0 0-.11 1.911.01.001.02.001.08-1.913Zm10 .312-.03 1.914.01.001h.02V215.3Zm11.07 0v1.915h.01l.02-.001-.03-1.914Zm10-.312.08 1.913.02-.001.02-.001-.12-1.911Zm0 0-.07-1.913-.03.001-.02.001.12 1.911Zm13.18-.191-.1 1.912 2.02.103v-2.015h-1.92Zm0-12.546h1.92v-2.035l-2.03.124.11 1.911Zm-57.55 1.969c8.75.512 18.32.794 28.36.794v-3.829c-9.97 0-19.47-.28-28.13-.787l-.23 3.822Zm2.03 10.577v-12.488h-3.83v12.488h3.83Zm-1.81 1.912a55.3 55.3 0 0 1 2.84-.068v-3.829c-1.08 0-2.09.024-3.04.073l.2 3.824Zm2.84-.068c3.67 0 6.72.122 10.16.26l.15-3.826c-3.43-.138-6.56-.263-10.31-.263v3.829Zm10.13.258.21-3.823-.21 3.823Zm.03.002c2.89.116 6.05.242 10.05.313l.07-3.828c-3.95-.07-7.08-.195-9.97-.311l-.15 3.826Zm21.15-3.515h-11.07v3.829h11.07v-3.829Zm.03 3.828c4-.071 7.16-.197 10.05-.313l-.15-3.826c-2.9.116-6.02.241-9.97.311l.07 3.828Zm10.09-.315-.24-3.822.24 3.822Zm-.04.002c3.44-.138 6.49-.26 10.16-.26v-3.829c-3.76 0-6.88.125-10.31.263l.15 3.826Zm10.16-.26c1.02 0 1.97.023 2.84.068l.2-3.824c-.95-.049-1.96-.073-3.04-.073v3.829Zm1.03-14.39v12.546h3.83v-12.546h-3.83Zm-27.28 2.763c10.4 0 20.31-.304 29.31-.852l-.23-3.822c-8.92.543-18.75.845-29.08.845v3.829Z" fill="#fff" mask="url(#Device Type=ROG Ally, View=Top-triggers__b)"/></g><path opacity=".2" d="M411.247 146.589c0 7.424-6.002 13.438-13.402 13.438-7.399 0-13.401-6.014-13.401-13.438s6.002-13.438 13.401-13.438c7.4 0 13.402 6.014 13.402 13.438Z" stroke="#fff" stroke-width="1.915"/><path opacity=".2" d="M403.11 146.589c0 2.917-2.358 5.28-5.265 5.28-2.906 0-5.265-2.363-5.265-5.28a5.272 5.272 0 0 1 5.265-5.279 5.272 5.272 0 0 1 5.265 5.279Z" stroke="#fff" stroke-width=".957"/><rect opacity=".2" x="453.846" y="132.673" width="68.923" height="27.833" rx="10.051" stroke="#fff" stroke-width=".957"/><rect opacity=".2" x="564.889" y="132.673" width="226.872" height="27.833" rx="7.179" stroke="#fff" stroke-width=".957"/><path opacity=".2" stroke="#fff" stroke-width=".957" d="M453.846 141.31h68.923v10.559h-68.923z"/><g opacity=".2"><path d="M1373.29 180.691h179.47c18.95 0 28.43 0 34.5-5.661.35-.332.7-.676 1.03-1.032 5.66-6.068 5.66-15.544 5.66-34.497 0-10.338 0-15.507-3.09-18.817-.18-.194-.37-.382-.56-.563-3.31-3.088-8.48-3.088-18.82-3.088H1388.4c-4.62 0-6.93 0-9.01.849s-3.74 2.463-7.04 5.69l-23.32 22.775c-3.23 3.158-4.85 4.737-5.72 6.491a11.502 11.502 0 0 0-.41 9.264c.71 1.823 2.18 3.539 5.12 6.971 3.02 3.524 4.54 5.286 6.28 6.666a22.985 22.985 0 0 0 9.84 4.525c2.18.427 4.5.427 9.15.427Z" stroke="#fff" stroke-width="3"/><path d="M1382.86 180.691h169.9c18.95 0 28.43 0 34.5-5.661.35-.332.7-.676 1.03-1.032 5.66-6.068 5.66-15.544 5.66-34.497 0-10.338 0-15.507-3.09-18.817-.18-.194-.37-.382-.56-.563-3.31-3.088-8.48-3.088-18.82-3.088h-173.51c-4.62 0-6.93 0-9.01.849s-3.73 2.463-7.04 5.69l-23.32 22.775c-3.23 3.158-4.85 4.737-5.71 6.491a11.421 11.421 0 0 0-.41 9.264c.7 1.823 2.18 3.539 5.12 6.971 3.02 3.524 4.53 5.286 6.27 6.666a23.04 23.04 0 0 0 9.84 4.525c2.19.427 4.51.427 9.15.427Z" stroke="#fff" stroke-width="3"/><path d="M1410.71 180.691h142.05c18.95 0 28.43 0 34.5-5.661.35-.332.7-.676 1.03-1.032 5.66-6.068 5.66-15.544 5.66-34.497 0-10.338 0-15.507-3.09-18.817-.18-.194-.37-.382-.56-.563-3.31-3.088-8.48-3.088-18.82-3.088h-151.49c-4.62 0-6.93 0-9.01.849-2.09.849-3.74 2.463-7.04 5.69l-28.05 27.399c-3.04 2.97-4.56 4.456-4.65 6.346-.08 1.89 1.3 3.504 4.07 6.732l.51.597c6.77 7.894 10.15 11.842 14.72 13.944 4.57 2.101 9.77 2.101 20.17 2.101Z" stroke="#fff" stroke-width=".957"/><path d="M1560.92 159.751v-15.692l-4.72 1.767v-2.997l6.41-2.343h1.84v19.265h-3.53Zm-20.78 0v-19.055h6.72c2.05 0 3.63.528 4.77 1.583 1.13 1.047 1.7 2.47 1.7 4.267 0 1.815-.58 3.268-1.73 4.358-1.15 1.082-2.74 1.623-4.76 1.623h-3.17v7.224h-3.53Zm3.53-9.802h2.89c1.2 0 2.04-.31 2.52-.929.48-.62.72-1.418.72-2.396 0-.977-.24-1.766-.72-2.368-.48-.602-1.32-.903-2.52-.903h-2.89v6.596Zm6.62 9.802-4.32-8.69 3.52-.432 4.73 9.122h-3.93Z" fill="#fff"/></g><path d="M1518.33 11.734c32.99 0 65.84 33.364 73.8 82.415 1.6 9.865 2.4 14.798-1.04 18.841-3.44 4.044-9 4.044-20.12 4.044h-167.24c-7.15 0-10.72 0-11.75-2.222-1.03-2.221 1.29-4.946 5.92-10.395l35.23-41.469c12.6-17.071 47.29-51.214 85.2-51.214Z" stroke="#fff" stroke-width="6"/><path d="M1521.91 11.256c17.3 0 54.37 33.381 63.67 82.453 1.83 9.685 2.75 14.527-.69 18.687-3.45 4.159-9.01 4.159-20.14 4.159h-140.8c-7.01 0-10.52 0-11.55-2.192-1.04-2.191 1.18-4.902 5.63-10.324l35.68-43.484c15.32-18.667 48.32-49.3 68.2-49.3Z" stroke="#fff" stroke-width=".957"/><path d="M1555.33 91.665v-2.251l6.6-7.356c.73-.82 1.31-1.579 1.74-2.277.43-.707.64-1.44.64-2.199 0-.802-.23-1.444-.69-1.923-.46-.489-1.1-.733-1.92-.733-.82 0-1.5.275-2.04.824-.53.541-.8 1.392-.8 2.552v.34h-3.56v-.51c0-1.745.6-3.158 1.78-4.24 1.19-1.09 2.74-1.636 4.64-1.636 1.97 0 3.49.489 4.55 1.466 1.08.968 1.61 2.203 1.61 3.704 0 1.23-.31 2.33-.93 3.298-.62.968-1.41 1.98-2.38 3.036l-4.49 5.065h8.25v2.84h-13Zm-15.19 0V72.609h6.72c2.04 0 3.63.528 4.77 1.584 1.13 1.047 1.7 2.47 1.7 4.267 0 1.814-.58 3.267-1.73 4.358-1.15 1.082-2.74 1.623-4.76 1.623h-3.17v7.224h-3.53Zm3.53-9.803h2.89c1.2 0 2.03-.31 2.51-.929.48-.62.72-1.418.72-2.395 0-.977-.24-1.767-.72-2.369-.48-.602-1.31-.903-2.51-.903h-2.89v6.596Zm6.62 9.803-4.32-8.69 3.52-.432 4.73 9.122h-3.93Z" fill="#fff"/><g opacity=".2"><path d="M266.714 180.691H87.24c-18.953 0-28.43 0-34.497-5.661-.356-.332-.7-.676-1.032-1.032-5.661-6.068-5.661-15.544-5.661-34.497 0-10.338 0-15.507 3.088-18.817.18-.194.369-.382.563-.563 3.31-3.088 8.478-3.088 18.816-3.088h183.081c4.619 0 6.929 0 9.012.849 2.084.849 3.736 2.463 7.041 5.69l23.317 22.775c3.233 3.158 4.85 4.737 5.718 6.491a11.486 11.486 0 0 1 .411 9.264c-.71 1.823-2.181 3.539-5.123 6.971-3.02 3.524-4.53 5.286-6.276 6.666a22.972 22.972 0 0 1-9.838 4.525c-2.185.427-4.505.427-9.146.427Z" stroke="#fff" stroke-width="3"/><path d="M257.141 180.691h-169.9c-18.954 0-28.43 0-34.498-5.661-.356-.332-.7-.676-1.032-1.032-5.661-6.068-5.661-15.544-5.661-34.497 0-10.338 0-15.507 3.088-18.817.18-.194.369-.382.563-.563 3.31-3.088 8.478-3.088 18.816-3.088h173.508c4.619 0 6.929 0 9.013.849 2.083.849 3.736 2.463 7.04 5.69l23.317 22.775c3.234 3.158 4.85 4.737 5.719 6.491a11.49 11.49 0 0 1 .41 9.264c-.71 1.823-2.181 3.539-5.122 6.971h-.001c-3.02 3.524-4.53 5.286-6.276 6.666a22.972 22.972 0 0 1-9.838 4.525c-2.184.427-4.505.427-9.146.427Z" stroke="#fff" stroke-width="3"/><path d="M229.293 180.691H87.24c-18.953 0-28.43 0-34.497-5.661-.356-.332-.7-.676-1.032-1.032-5.661-6.068-5.661-15.544-5.661-34.497 0-10.338 0-15.507 3.088-18.817.18-.194.369-.382.563-.563 3.31-3.088 8.478-3.088 18.816-3.088h151.491c4.619 0 6.929 0 9.013.849 2.083.849 3.735 2.463 7.04 5.69l28.051 27.399c3.041 2.97 4.562 4.456 4.646 6.346.083 1.89-1.3 3.504-4.067 6.732l-.511.597c-6.767 7.894-10.151 11.842-14.721 13.944-4.57 2.101-9.768 2.101-20.166 2.101Z" stroke="#fff" stroke-width=".957"/><path d="M101.892 159.751v-15.692l-4.725 1.767v-2.997l6.413-2.343h1.845v19.265h-3.533Zm-18.715 0v-19.055h3.533v16.281h8.18v2.774H83.177Z" fill="#fff"/></g><path d="M121.674 11.734c-32.997 0-65.849 33.364-73.807 82.415-1.6 9.865-2.4 14.798 1.04 18.841 3.44 4.044 8.999 4.044 20.117 4.044h167.241c7.15 0 10.725 0 11.752-2.222 1.028-2.221-1.287-4.946-5.916-10.395l-35.23-41.469c-12.604-17.071-47.289-51.214-85.197-51.214Z" stroke="#fff" stroke-width="6"/><path d="M118.093 11.256c-17.302 0-54.372 33.381-63.67 82.453-1.836 9.685-2.754 14.527.692 18.687 3.445 4.159 9.007 4.159 20.132 4.159h140.802c7.013 0 10.519 0 11.556-2.192 1.037-2.191-1.187-4.902-5.636-10.324L186.29 60.555c-15.317-18.667-48.325-49.3-68.197-49.3Z" stroke="#fff" stroke-width=".957"/><path d="M92.43 91.928v-2.25l6.596-7.356c.733-.82 1.313-1.58 1.74-2.277.428-.707.642-1.44.642-2.199 0-.803-.232-1.444-.694-1.924-.454-.488-1.09-.733-1.91-.733-.83 0-1.51.275-2.043.825-.532.54-.798 1.392-.798 2.552v.34h-3.56v-.51c0-1.745.594-3.159 1.78-4.24 1.187-1.091 2.731-1.637 4.633-1.637 1.972 0 3.49.49 4.555 1.466 1.073.969 1.61 2.203 1.61 3.704 0 1.23-.31 2.33-.93 3.298-.619.969-1.413 1.98-2.382 3.037l-4.489 5.064h8.246v2.84H92.43Zm-13.127.001V72.873h3.533v16.281h8.18v2.775H79.303Z" fill="#fff"/></svg>