<svg width="1767" height="302" fill="none" xmlns="http://www.w3.org/2000/svg"><path opacity=".2" stroke="#fff" d="M1170 179.5h35"/><path opacity=".2" d="M455 179.5h23M466.5 191v-23M388 179.5h23" stroke="#fff" stroke-width="2"/><path opacity=".2" d="M43 222.5V238a6 6 0 0 0 6 6h116a6 6 0 0 0 6-6v-9H66l-12-2-11-4.5Z" stroke="#fff"/><g opacity=".2"><path d="m236.5 301-.64.768.278.232h.362v-1Zm-4.5-12.5.981.196-.981-.196Zm90 0 .981-.196-.981.196Zm-4.5 12.5v1h.362l.278-.232-.64-.768Zm-81 1H273v-2h-36.5v2Zm-5.481-13.696c-1.3 6.502 2.692 11.673 4.841 13.464l1.28-1.536c-1.851-1.543-5.259-6.038-4.159-11.536l-1.962-.392ZM249.5 277c-5.318 0-9.53.755-12.631 2.575-3.158 1.854-5.053 4.745-5.85 8.729l1.962.392c.703-3.516 2.308-5.875 4.9-7.396 2.649-1.555 6.437-2.3 11.619-2.3v-2Zm23.5 0h-23.5v2H273v-2Zm0 2h3v-2h-3v2Zm3 0h28.5v-2H276v2Zm28.5 0c5.182 0 8.97.745 11.619 2.3 2.592 1.521 4.197 3.88 4.9 7.396l1.962-.392c-.797-3.984-2.692-6.875-5.85-8.729-3.101-1.82-7.313-2.575-12.631-2.575v2Zm16.519 9.696c1.1 5.498-2.308 9.993-4.159 11.536l1.28 1.536c2.149-1.791 6.141-6.962 4.841-13.464l-1.962.392ZM317.5 300H276v2h41.5v-2Zm-41.5 0h-3v2h3v-2Z" fill="#fff"/><path d="M250 256v22h54v-21.476c-8.157 1.338-16.7 2.049-25.5 2.049-9.885 0-19.446-.897-28.5-2.573Z" stroke="#fff" stroke-width="2"/><path d="M236 252c12.976 3.856 27.36 6 42.5 6s29.524-2.144 42.5-6h-85Z" stroke="#fff" stroke-width="2"/><path d="M205.991 235v-1h-1.866l1.034 1.554.832-.554Zm7.65 11.5.832-.554-.832.554Zm.279.428.844-.536-.004-.007-.84.543Zm0 .001-.844.536.005.007.839-.543ZM339.855 248l.833.554-.833-.554Zm3.424-5.365.844.535-.844-.535ZM352 229l.838.547 1.009-1.547H352v1Zm-121 0v-1h-1v1h1Zm-25.841 6.554 7.649 11.5 1.665-1.108-7.649-11.5-1.665 1.108Zm7.649 11.5c.08.12.169.258.273.418l1.679-1.087-.287-.439-1.665 1.108Zm.268.411 1.688-1.073-1.688 1.073Zm.005.007c.55.85 1.422 2.203 2.553 3.341 1.12 1.126 2.636 2.187 4.492 2.187v-2c-1.068 0-2.099-.617-3.073-1.597-.964-.969-1.732-2.151-2.293-3.018l-1.679 1.087Zm7.045 5.528h113.743v-2H220.126v2Zm113.743 0c3.564 0 5.824-2.95 6.819-4.446l-1.665-1.108c-1.001 1.504-2.732 3.554-5.154 3.554v2Zm6.819-4.446c.383-.576 1.723-2.687 3.435-5.384l-1.688-1.071c-1.723 2.713-3.045 4.795-3.412 5.347l1.665 1.108Zm3.435-5.384c2.692-4.241 6.327-9.966 8.715-13.623l-1.675-1.094c-2.396 3.67-6.039 9.409-8.728 13.646l1.688 1.071ZM352 228H231v2h121v-2Zm-127 8a7 7 0 0 0 7-7h-2a5 5 0 0 1-5 5v2Zm-19.009 0H225v-2h-19.009v2Z" fill="#fff"/><path d="M178 229a6 6 0 0 0 6 6h41a6 6 0 0 0 6-6h-53Z" stroke="#fff" stroke-width="2"/></g><g opacity=".2"><path d="m1534.5 301 .64.768-.28.232h-.36v-1Zm4.5-12.5-.98.196.98-.196Zm-90 0-.98-.196.98.196Zm4.5 12.5v1h-.36l-.28-.232.64-.768Zm81 1H1498v-2h36.5v2Zm5.48-13.696c1.3 6.502-2.69 11.673-4.84 13.464l-1.28-1.536c1.85-1.543 5.26-6.038 4.16-11.536l1.96-.392ZM1521.5 277c5.32 0 9.53.755 12.63 2.575 3.16 1.854 5.05 4.745 5.85 8.729l-1.96.392c-.7-3.516-2.31-5.875-4.9-7.396-2.65-1.555-6.44-2.3-11.62-2.3v-2Zm-23.5 0h23.5v2H1498v-2Zm0 2h-3v-2h3v2Zm-3 0h-28.5v-2h28.5v2Zm-28.5 0c-5.18 0-8.97.745-11.62 2.3-2.59 1.521-4.2 3.88-4.9 7.396l-1.96-.392c.8-3.984 2.69-6.875 5.85-8.729 3.1-1.82 7.31-2.575 12.63-2.575v2Zm-16.52 9.696c-1.1 5.498 2.31 9.993 4.16 11.536l-1.28 1.536c-2.15-1.791-6.14-6.962-4.84-13.464l1.96.392ZM1453.5 300h41.5v2h-41.5v-2Zm41.5 0h3v2h-3v-2Z" fill="#fff"/><path d="M1521 256v22h-54v-21.476c8.16 1.338 16.7 2.049 25.5 2.049 9.88 0 19.45-.897 28.5-2.573Z" stroke="#fff" stroke-width="2"/><path d="M1535 252c-12.98 3.856-27.36 6-42.5 6s-29.52-2.144-42.5-6h85Z" stroke="#fff" stroke-width="2"/><path d="M1565.01 235v-1h1.86l-1.03 1.554-.83-.554Zm-7.65 11.5-.83-.554.83.554Zm-.28.428-.84-.536v-.007l.84.543Zm0 .001.84.536v.007l-.84-.543ZM1431.14 248l-.83.554.83-.554Zm-3.42-5.365-.84.535.84-.535ZM1419 229l-.84.547-1.01-1.547h1.85v1Zm121 0v-1h1v1h-1Zm25.84 6.554-7.65 11.5-1.66-1.108 7.65-11.5 1.66 1.108Zm-7.65 11.5c-.08.12-.17.258-.27.418l-1.68-1.087c.1-.156.2-.306.29-.439l1.66 1.108Zm-.27.411-1.68-1.073 1.68 1.073Zm0 .007c-.55.85-1.42 2.203-2.55 3.341-1.12 1.126-2.64 2.187-4.5 2.187v-2c1.07 0 2.1-.617 3.08-1.597.96-.969 1.73-2.151 2.29-3.018l1.68 1.087Zm-7.05 5.528h-113.74v-2h113.74v2Zm-113.74 0c-3.56 0-5.82-2.95-6.82-4.446l1.67-1.108c1 1.504 2.73 3.554 5.15 3.554v2Zm-6.82-4.446c-.38-.576-1.72-2.687-3.43-5.384l1.69-1.071c1.72 2.713 3.04 4.795 3.41 5.347l-1.67 1.108Zm-3.43-5.384c-2.7-4.241-6.33-9.966-8.72-13.623l1.68-1.094c2.39 3.67 6.04 9.409 8.73 13.646l-1.69 1.071ZM1419 228h121v2h-121v-2Zm127 8c-3.87 0-7-3.134-7-7h2c0 2.761 2.24 5 5 5v2Zm19.01 0H1546v-2h19.01v2Z" fill="#fff"/><path d="M1593 229h1v-1h-1v1Zm-53 0v-1h-1v1h1Zm47 7c3.87 0 7-3.134 7-7h-2c0 2.761-2.24 5-5 5v2Zm-41 0h41v-2h-41v2Zm-7-7c0 3.866 3.13 7 7 7v-2c-2.76 0-5-2.239-5-5h-2Zm1 1h53v-2h-53v2Z" fill="#fff"/></g><path opacity=".2" d="M86 229v9a6 6 0 0 0 6 6h31a6 6 0 0 0 6-6v-9H86Z" stroke="#fff"/><path opacity=".2" d="M1593 229v-.5h-.5v.5h.5Zm46 0h.5v-.5h-.5v.5Zm-54 6v-.5h-.5v.5h.5Zm7.5-6c0 3.038-2.46 5.5-5.5 5.5v1a6.5 6.5 0 0 0 6.5-6.5h-1Zm.5.5h46v-1h-46v1Zm45.5-.5v9.5h1V229h-1Zm0 9.5c0 .15-.09.381-.48.684-.37.296-.95.599-1.73.896-1.55.592-3.76 1.116-6.37 1.552-5.22.87-11.94 1.368-17.92 1.368v1c6.02 0 12.8-.502 18.08-1.382 2.64-.439 4.93-.977 6.57-1.604.81-.313 1.5-.658 1.99-1.045.48-.381.86-.869.86-1.469h-1ZM1612 243c-5.97 0-12.69-.622-17.91-1.555-2.62-.466-4.83-1.007-6.39-1.578-.78-.287-1.36-.572-1.74-.842-.41-.288-.46-.47-.46-.525h-1c0 .57.42 1.013.88 1.34.48.345 1.17.666 1.98.965 1.63.601 3.92 1.154 6.55 1.625 5.28.942 12.06 1.57 18.09 1.57v-1Zm-26.5-4.5V235h-1v3.5h1Zm1.5-4h-2v1h2v-1Z" fill="#fff"/><path opacity=".2" d="M1639 238.5V229h54v9.5c0 3-15 5-27 5s-27-2.5-27-5Zm54 0V229l16-2 17-5.5 17-12.5v8.5c0 3-8.5 16.294-24.5 21-8.5 2.5-25.5 2.5-25.5 0Z" stroke="#fff"/><circle opacity=".2" cx="466.5" cy="179.5" r="19.5" stroke="#fff" stroke-width="2"/><circle opacity=".2" cx="399.5" cy="179.5" r="19.5" stroke="#fff" stroke-width="2"/><circle opacity=".2" cx="583.5" cy="179.5" r="19.5" stroke="#fff" stroke-width="2"/><circle opacity=".2" cx="583.5" cy="179.5" r="11" stroke="#fff"/><circle opacity=".2" cx="1341" cy="180" r="20" stroke="#fff" stroke-width="2"/><circle opacity=".2" cx="1265.5" cy="177.5" r="5" stroke="#fff"/><path opacity=".2" d="M727.5 166c0-6.351 5.149-11.5 11.5-11.5s11.5 5.149 11.5 11.5v27c0 6.351-5.149 11.5-11.5 11.5s-11.5-5.149-11.5-11.5v-27Zm29 0c0-6.351 5.149-11.5 11.5-11.5s11.5 5.149 11.5 11.5v27c0 6.351-5.149 11.5-11.5 11.5s-11.5-5.149-11.5-11.5v-27Zm29 0c0-6.351 5.149-11.5 11.5-11.5s11.5 5.149 11.5 11.5v27c0 6.351-5.149 11.5-11.5 11.5s-11.5-5.149-11.5-11.5v-27Zm29 0c0-6.351 5.149-11.5 11.5-11.5s11.5 5.149 11.5 11.5v27c0 6.351-5.149 11.5-11.5 11.5s-11.5-5.149-11.5-11.5v-27Zm29 0c0-6.351 5.149-11.5 11.5-11.5s11.5 5.149 11.5 11.5v27c0 6.351-5.149 11.5-11.5 11.5s-11.5-5.149-11.5-11.5v-27Zm29 0c0-6.351 5.149-11.5 11.5-11.5s11.5 5.149 11.5 11.5v27c0 6.351-5.149 11.5-11.5 11.5s-11.5-5.149-11.5-11.5v-27Zm29 0c0-6.351 5.149-11.5 11.5-11.5s11.5 5.149 11.5 11.5v27c0 6.351-5.149 11.5-11.5 11.5s-11.5-5.149-11.5-11.5v-27Zm29 0c0-6.351 5.149-11.5 11.5-11.5s11.5 5.149 11.5 11.5v27c0 6.351-5.149 11.5-11.5 11.5s-11.5-5.149-11.5-11.5v-27Zm29 0c0-6.351 5.149-11.5 11.5-11.5s11.5 5.149 11.5 11.5v27c0 6.351-5.149 11.5-11.5 11.5s-11.5-5.149-11.5-11.5v-27Zm29 0c0-6.351 5.149-11.5 11.5-11.5 6.35 0 11.5 5.149 11.5 11.5v27c0 6.351-5.15 11.5-11.5 11.5-6.351 0-11.5-5.149-11.5-11.5v-27Zm29 0c0-6.351 5.15-11.5 11.5-11.5s11.5 5.149 11.5 11.5v27c0 6.351-5.15 11.5-11.5 11.5s-11.5-5.149-11.5-11.5v-27Z" stroke="#fff"/><path opacity=".2" d="M1205.5 169c5.8 0 10.5 4.701 10.5 10.5s-4.7 10.5-10.5 10.5h-36c-5.8 0-10.5-4.701-10.5-10.5s4.7-10.5 10.5-10.5h36Z" stroke="#fff" stroke-width="2"/><path opacity=".2" d="m163.021 41.922-.872.489.872-.49Zm27.166 47.006.863-.505-.863.505Zm-80.666-70.506.12.993-.12-.993Zm-18.089 2.674.17.986-.17-.986Zm-13.91 2.326.16.987-.16-.987Zm-47.5 57.5-.99-.147.99.147Zm-5.041 33.393.988.151-.988-.151Zm-2.936 19.691-.99-.137-.195 1.396 1.383-.279-.198-.98Zm173.989-35.062.198.98 1.367-.276-.7-1.206-.865.502Zm-.013-.022.866-.502-.001-.002-.865.504ZM162.149 42.41c7.266 12.951 18.849 32.774 27.175 47.021l1.726-1.009c-8.329-14.254-19.902-34.058-27.157-46.99l-1.744.978Zm-52.508-22.996c19.25-2.31 42.394 4.966 52.508 22.996l1.744-.979c-10.641-18.97-34.741-26.373-54.491-24.003l.239 1.986Zm-18.04 2.667c6.58-1.127 9.8-1.679 18.04-2.667l-.239-1.986c-8.286.994-11.542 1.552-18.138 2.682l.337 1.97Zm-13.92 2.327c6.276-1.018 10.54-1.748 13.92-2.327l-.337-1.971c-3.379.578-7.636 1.307-13.903 2.324l.32 1.974Zm-46.67 56.66c4.955-33.45 22.717-52.776 46.67-56.66l-.32-1.974c-25.046 4.061-43.284 24.29-48.329 58.34l1.979.293Zm-5.041 33.397c1.237-8.08 2.835-18.51 5.04-33.398l-1.978-.293a6273.674 6273.674 0 0 1-5.04 33.388l1.977.303Zm-2.935 19.678c.779-5.605 1.668-11.407 2.934-19.678l-1.977-.303c-1.266 8.267-2.157 14.084-2.938 19.706l1.981.275Zm172.802-36.18-173.99 35.062.395 1.96 173.99-35.062-.395-1.96Zm-.681 1.459.013.022 1.73-1.003-.012-.022-1.731 1.003Zm-5.832-9.99a7196.64 7196.64 0 0 1 5.833 9.992l1.729-1.007c-1.617-2.777-3.611-6.188-5.836-9.995l-1.726 1.01Z" fill="#fff"/><path opacity=".2" d="m195.771 99 .865-.501-.359-.621-.703.142.197.98Zm50.987 33.978.034-.999-.034.999Zm-226.5 13 .994.117-.994-.117Zm1.524-11.916-.198-.98-.695.14-.098.703.99.137Zm173.124-34.56c9.182 15.852 18.304 24.382 27.109 28.99 8.802 4.607 17.181 5.234 24.71 5.485l.067-1.998c-7.468-.249-15.466-.871-23.85-5.259-8.381-4.386-17.255-12.596-26.306-28.221l-1.73 1.002Zm51.819 34.475c7.217.241 12.992 3.366 16.968 7.162 1.989 1.899 3.517 3.955 4.542 5.879 1.034 1.941 1.523 3.682 1.523 4.96h2c0-1.723-.636-3.794-1.758-5.9-1.13-2.122-2.79-4.347-4.926-6.386-4.274-4.079-10.5-7.454-18.282-7.713l-.067 1.998Zm23.033 18.001v11h2v-11h-2Zm0 11c0 .951-.329 2.631-1.145 4.648a23.926 23.926 0 0 1-3.868 6.394c-3.583 4.239-9.314 7.958-17.987 7.958v2c9.328 0 15.596-4.031 19.514-8.667a25.913 25.913 0 0 0 4.195-6.935c.871-2.154 1.291-4.099 1.291-5.398h-2Zm-23 19h-192.5v2h192.5v-2Zm-192.5 0c-12.973 0-21.664-4.881-26.892-11.732-5.253-6.883-7.09-15.862-6.114-24.151l-1.987-.234c-1.025 8.71.89 18.232 6.51 25.599 5.648 7.399 14.956 12.518 28.483 12.518v-2Zm-33.007-35.883c.512-4.351.991-8.077 1.521-11.895l-1.98-.275a560.489 560.489 0 0 0-1.527 11.936l1.986.234ZM195.575 98.02l-173.99 35.062.395 1.961L195.97 99.98l-.395-1.96Z" fill="#fff"/><path opacity=".2" d="M263.501 114.641c-21.2 0-34.5-14-38.5-21a16265.04 16265.04 0 0 0-19.982-29.248c-8.772-12.823-17.473-25.543-22.018-32.252-13.548-20-41.5-30.5-64-29-17.012 1.134-27.45 2.117-33.042 2.643-1.804.17-3.104.293-3.958.357-36.5 2.765-59 34-64.5 49.5-5.421 15.279-9.385 50.96-13.807 90.765l-.193 1.735c-5 45 28 81 73.5 81H1689.5c45.5 0 78.5-36 73.5-81l-.19-1.735v-.005c-4.42-39.802-8.39-75.482-13.81-90.76-5.5-15.5-28-46.735-64.5-49.5-.85-.064-2.15-.187-3.96-.357-5.59-.526-16.03-1.509-33.04-2.643-22.5-1.5-50.45 9-64 29-4.54 6.709-13.24 19.426-22.01 32.248-7.45 10.878-14.94 21.832-19.99 29.252-4 7-17.3 21-38.5 21H263.501Z" stroke="#fff" stroke-width="6"/><path opacity=".2" d="M263.501 114.641c-21.2 0-34.5-14-38.5-21a16265.04 16265.04 0 0 0-19.982-29.248c-8.772-12.823-17.473-25.543-22.018-32.252-13.548-20-41.5-30.5-64-29-17.012 1.134-27.45 2.117-33.042 2.643-1.804.17-3.104.293-3.958.357-36.5 2.765-59 34-64.5 49.5-5.421 15.279-9.385 50.96-13.807 90.765l-.193 1.735c0 34.359 8.499 65 73.5 65H1689.5c55 0 73.5-22.641 73.5-65l-.19-1.735v-.005c-4.42-39.802-8.39-75.482-13.81-90.76-5.5-15.5-28-46.735-64.5-49.5-.85-.064-2.15-.187-3.96-.357-5.59-.526-16.03-1.509-33.04-2.643-22.5-1.5-50.45 9-64 29-4.54 6.709-13.24 19.426-22.01 32.248-7.45 10.878-14.94 21.832-19.99 29.252-4 7-17.3 21-38.5 21H263.501Z" stroke="#fff"/><path opacity=".2" d="M30 81.5C34.5 52 61.5 35.5 78 32s20-4.5 31-4.5 30 0 44 24.5 21 38 33 60.5 36.5 34 67.5 34H723m1014-65c-4.5-29.5-31.5-46-48-49.5s-20-4.5-31-4.5-30 0-44 24.5-21 38-33 60.5-36.5 34-67.5 34h-793" stroke="#fff"/><circle opacity=".2" cx="466.5" cy="179.5" r="19.5" stroke="#fff" stroke-width="2"/><circle opacity=".2" cx="399.5" cy="179.5" r="19.5" stroke="#fff" stroke-width="2"/><circle opacity=".2" cx="583.5" cy="179.5" r="19.5" stroke="#fff" stroke-width="2"/><circle opacity=".2" cx="583.5" cy="179.5" r="11" stroke="#fff"/><circle opacity=".2" cx="1341" cy="180" r="20" stroke="#fff" stroke-width="2"/><circle opacity=".2" cx="1265.5" cy="177.5" r="5" stroke="#fff"/><path opacity=".2" d="M727.5 166c0-6.351 5.149-11.5 11.5-11.5s11.5 5.149 11.5 11.5v27c0 6.351-5.149 11.5-11.5 11.5s-11.5-5.149-11.5-11.5v-27Zm29 0c0-6.351 5.149-11.5 11.5-11.5s11.5 5.149 11.5 11.5v27c0 6.351-5.149 11.5-11.5 11.5s-11.5-5.149-11.5-11.5v-27Zm29 0c0-6.351 5.149-11.5 11.5-11.5s11.5 5.149 11.5 11.5v27c0 6.351-5.149 11.5-11.5 11.5s-11.5-5.149-11.5-11.5v-27Zm29 0c0-6.351 5.149-11.5 11.5-11.5s11.5 5.149 11.5 11.5v27c0 6.351-5.149 11.5-11.5 11.5s-11.5-5.149-11.5-11.5v-27Zm29 0c0-6.351 5.149-11.5 11.5-11.5s11.5 5.149 11.5 11.5v27c0 6.351-5.149 11.5-11.5 11.5s-11.5-5.149-11.5-11.5v-27Zm29 0c0-6.351 5.149-11.5 11.5-11.5s11.5 5.149 11.5 11.5v27c0 6.351-5.149 11.5-11.5 11.5s-11.5-5.149-11.5-11.5v-27Zm29 0c0-6.351 5.149-11.5 11.5-11.5s11.5 5.149 11.5 11.5v27c0 6.351-5.149 11.5-11.5 11.5s-11.5-5.149-11.5-11.5v-27Zm29 0c0-6.351 5.149-11.5 11.5-11.5s11.5 5.149 11.5 11.5v27c0 6.351-5.149 11.5-11.5 11.5s-11.5-5.149-11.5-11.5v-27Zm29 0c0-6.351 5.149-11.5 11.5-11.5s11.5 5.149 11.5 11.5v27c0 6.351-5.149 11.5-11.5 11.5s-11.5-5.149-11.5-11.5v-27Zm29 0c0-6.351 5.149-11.5 11.5-11.5 6.35 0 11.5 5.149 11.5 11.5v27c0 6.351-5.15 11.5-11.5 11.5-6.351 0-11.5-5.149-11.5-11.5v-27Zm29 0c0-6.351 5.15-11.5 11.5-11.5s11.5 5.149 11.5 11.5v27c0 6.351-5.15 11.5-11.5 11.5s-11.5-5.149-11.5-11.5v-27Z" stroke="#fff"/><path opacity=".2" d="M1205.5 169c5.8 0 10.5 4.701 10.5 10.5s-4.7 10.5-10.5 10.5h-36c-5.8 0-10.5-4.701-10.5-10.5s4.7-10.5 10.5-10.5h36Z" stroke="#fff" stroke-width="2"/><path d="m195.771 99 1.298-.752-.539-.931-1.055.213.296 1.47Zm50.987 33.978.05-1.499-.05 1.499Zm-226.5 13 1.49.175-1.49-.175Zm1.524-11.916-.296-1.47-1.044.21-.146 1.054 1.486.206Zm172.691-34.31c9.216 15.91 18.399 24.519 27.31 29.183 8.907 4.661 17.381 5.291 24.925 5.542l.1-2.998c-7.452-.249-15.354-.869-23.634-5.202-8.275-4.33-17.087-12.46-26.105-28.029l-2.596 1.504Zm52.235 34.725c7.076.236 12.738 3.299 16.64 7.023 1.952 1.864 3.447 3.878 4.446 5.754 1.012 1.899 1.464 3.558 1.464 4.724h3c0-1.834-.673-3.988-1.817-6.135-1.156-2.171-2.85-4.439-5.022-6.513-4.348-4.15-10.687-7.587-18.611-7.851l-.1 2.998Zm22.55 17.501v11h3v-11h-3Zm0 11c0 .864-.307 2.477-1.109 4.461a23.434 23.434 0 0 1-3.786 6.258c-3.499 4.14-9.096 7.781-17.605 7.781v3c9.491 0 15.894-4.109 19.896-8.844a26.426 26.426 0 0 0 4.276-7.07c.885-2.189 1.328-4.2 1.328-5.586h-3Zm-22.5 18.5h-192.5v3h192.5v-3Zm-192.5 0c-12.834 0-21.371-4.821-26.495-11.535-5.161-6.763-6.978-15.605-6.015-23.79l-2.98-.35c-1.037 8.815.897 18.473 6.61 25.96 5.752 7.536 15.215 12.715 28.88 12.715v-3Zm-32.51-35.325c.511-4.347.99-8.07 1.52-11.884l-2.972-.413a560.233 560.233 0 0 0-1.527 11.947l2.98.35ZM195.475 97.53l-173.99 35.062.593 2.941 173.989-35.063-.592-2.94ZM189.396 159v-16.393l-4.936 1.846v-3.131l6.7-2.447h1.927V159h-3.691Zm-19.551 0v-19.906h3.692v17.008h8.545V159h-12.237ZM1571.99 99l-1.3-.752.54-.931 1.06.213-.3 1.47ZM1521 132.978l-.05-1.499.05 1.499Zm226.5 13-1.49.175 1.49-.175Zm-1.52-11.916.29-1.47 1.05.21.14 1.054-1.48.206Zm-172.69-34.31c-9.22 15.91-18.4 24.519-27.31 29.183-8.91 4.661-17.38 5.291-24.93 5.542l-.1-2.998c7.45-.249 15.36-.869 23.64-5.202 8.27-4.33 17.08-12.46 26.1-28.029l2.6 1.504Zm-52.24 34.725c-7.07.236-12.74 3.299-16.64 7.023-1.95 1.864-3.44 3.878-4.44 5.754-1.02 1.899-1.47 3.558-1.47 4.724h-3c0-1.834.67-3.988 1.82-6.135 1.16-2.171 2.85-4.439 5.02-6.513 4.35-4.15 10.69-7.587 18.61-7.851l.1 2.998Zm-22.55 17.501v11h-3v-11h3Zm0 11c0 .864.31 2.477 1.11 4.461a23.455 23.455 0 0 0 3.79 6.258c3.5 4.14 9.09 7.781 17.6 7.781v3c-9.49 0-15.89-4.109-19.89-8.844a26.474 26.474 0 0 1-4.28-7.07c-.89-2.189-1.33-4.2-1.33-5.586h3Zm22.5 18.5h192.5v3H1521v-3Zm192.5 0c12.84 0 21.37-4.821 26.5-11.535 5.16-6.763 6.97-15.605 6.01-23.79l2.98-.35c1.04 8.815-.89 18.473-6.61 25.96-5.75 7.536-15.21 12.715-28.88 12.715v-3Zm32.51-35.325c-.51-4.347-.99-8.07-1.52-11.884l2.97-.413c.54 3.836 1.02 7.579 1.53 11.947l-2.98.35ZM1572.29 97.53l173.98 35.062-.59 2.941-173.99-35.063.6-2.94Zm21.27 61.47v-16.393l-4.94 1.846v-3.131l6.7-2.447h1.93V159h-3.69Zm-21.71 0v-19.906h7.02c2.14 0 3.79.551 4.98 1.654 1.18 1.094 1.78 2.579 1.78 4.457 0 1.896-.61 3.413-1.81 4.553-1.2 1.13-2.86 1.695-4.97 1.695h-3.31V159h-3.69Zm3.69-10.24h3.02c1.25 0 2.12-.324 2.62-.971s.76-1.481.76-2.502c0-1.021-.26-1.846-.76-2.475-.5-.628-1.37-.943-2.62-.943h-3.02v6.891Zm6.91 10.24-4.51-9.078 3.68-.451 4.94 9.529h-4.11Z" opacity=".2" fill="#fff"/><path d="m163.021 41.922-2.616 1.467 2.616-1.467Zm27.166 47.006 2.59-1.514-2.59 1.514Zm-80.666-70.506.358 2.978-.358-2.978Zm-18.089 2.674.507 2.957-.507-2.957Zm-13.91 2.326.48 2.961-.48-2.961Zm-47.5 57.5-2.968-.44 2.967.44Zm-5.041 33.393 2.965.454-2.965-.454Zm-2.936 19.691-2.972-.412-.581 4.189 4.146-.836-.593-2.941Zm173.989-35.062.593 2.941 4.102-.827-2.1-3.62-2.595 1.506Zm-.013-.022 2.596-1.504-.003-.006-2.593 1.51Zm-35.616-55.533c7.276 12.971 18.87 32.81 27.192 47.052l5.18-3.027c-8.333-14.26-19.895-34.046-27.139-46.96l-5.233 2.935ZM109.879 21.4c18.751-2.25 40.939 4.9 50.526 21.99l5.233-2.936c-11.169-19.91-36.225-27.44-56.474-25.011l.715 5.957Zm-17.94 2.653c6.564-1.124 9.747-1.67 17.94-2.653l-.715-5.957c-8.333 1-11.625 1.564-18.238 2.696l1.013 5.914Zm-13.937 2.33c6.285-1.02 10.555-1.75 13.937-2.33l-1.013-5.914c-3.377.579-7.627 1.306-13.885 2.321l.96 5.923ZM32.989 81.361c4.866-32.846 22.152-51.27 45.013-54.978l-.96-5.923c-26.14 4.24-44.854 25.368-49.988 60.022l5.935.88Zm-5.043 33.408c1.238-8.081 2.837-18.515 5.043-33.408l-5.935-.879c-2.204 14.878-3.8 25.3-5.038 33.378l5.93.909Zm-2.93 19.65c.776-5.588 1.663-11.375 2.93-19.65l-5.93-.909c-1.266 8.263-2.16 14.096-2.943 19.734l5.943.825Zm170.425-38.416L21.452 131.065l1.186 5.882 173.989-35.062-1.186-5.882Zm-2.015 4.423.013.023 5.19-3.01-.012-.021-5.191 3.008Zm-5.829-9.985c2.225 3.808 4.217 7.217 5.832 9.99l5.185-3.019a7713.031 7713.031 0 0 0-5.837-9.998l-5.18 3.027ZM129.558 80v-2.352l6.891-7.683c.765-.857 1.371-1.65 1.818-2.38.447-.737.67-1.503.67-2.296 0-.838-.242-1.508-.725-2.01-.474-.51-1.139-.765-1.996-.765-.866 0-1.577.287-2.133.861-.555.565-.833 1.454-.833 2.666v.356h-3.719v-.534c0-1.823.62-3.3 1.859-4.43 1.24-1.139 2.853-1.708 4.84-1.708 2.06 0 3.646.51 4.758 1.53 1.121 1.013 1.681 2.302 1.681 3.87 0 1.285-.323 2.434-.97 3.445-.647 1.012-1.477 2.07-2.489 3.172l-4.689 5.291h8.613V80h-13.576Zm-13.713 0V60.094h3.692v17.008h8.545V80h-12.237ZM1604.74 41.922l2.61 1.467-2.61-1.467Zm-27.17 47.006-2.59-1.514 2.59 1.514Zm80.67-70.506-.36 2.978.36-2.978Zm18.09 2.674-.51 2.957.51-2.957Zm13.91 2.326-.48 2.961.48-2.961Zm47.5 57.5 2.97-.44-2.97.44Zm5.04 33.393-2.97.454 2.97-.454Zm2.93 19.691 2.98-.412.58 4.189-4.15-.836.59-2.941Zm-173.99-35.062-.59 2.941-4.1-.827 2.1-3.62 2.59 1.506Zm.02-.022-2.6-1.504v-.006l2.6 1.51Zm35.61-55.533c-7.27 12.971-18.87 32.81-27.19 47.052l-5.18-3.027c8.33-14.26 19.9-34.046 27.14-46.96l5.23 2.935Zm50.53-21.989c-18.75-2.25-40.94 4.9-50.53 21.99l-5.23-2.936c11.17-19.91 36.23-27.44 56.47-25.011l-.71 5.957Zm17.94 2.653c-6.56-1.124-9.75-1.67-17.94-2.653l.71-5.957c8.34 1 11.63 1.564 18.24 2.696l-1.01 5.914Zm13.94 2.33c-6.29-1.02-10.56-1.75-13.94-2.33l1.01-5.914c3.38.579 7.63 1.306 13.89 2.321l-.96 5.923Zm45.01 54.978c-4.87-32.846-22.15-51.27-45.01-54.978l.96-5.923c26.14 4.24 44.85 25.368 49.99 60.022l-5.94.88Zm5.04 33.408a6516.6 6516.6 0 0 1-5.04-33.408l5.94-.879c2.2 14.878 3.8 25.3 5.03 33.378l-5.93.909Zm2.93 19.65c-.77-5.588-1.66-11.375-2.93-19.65l5.93-.909c1.27 8.263 2.16 14.096 2.95 19.734l-5.95.825Zm-170.42-38.416 173.99 35.062-1.19 5.882-173.99-35.062 1.19-5.882Zm2.01 4.423c0 .002-.01.016-.01.023l-5.19-3.01c0-.009 0-.009.01-.021l5.19 3.008Zm5.83-9.985c-2.22 3.808-4.21 7.217-5.83 9.99l-5.19-3.019c1.62-2.779 3.62-6.191 5.84-9.998l5.18 3.027ZM1639.72 80v-2.352l6.89-7.683c.76-.857 1.37-1.65 1.82-2.38.44-.737.67-1.503.67-2.296 0-.838-.24-1.508-.73-2.01-.47-.51-1.14-.765-1.99-.765-.87 0-1.58.287-2.14.861-.55.565-.83 1.454-.83 2.666v.356h-3.72v-.534c0-1.823.62-3.3 1.86-4.43 1.24-1.139 2.85-1.708 4.84-1.708 2.06 0 3.65.51 4.76 1.53 1.12 1.013 1.68 2.302 1.68 3.87 0 1.285-.32 2.434-.97 3.445-.65 1.012-1.48 2.07-2.49 3.172l-4.69 5.291h8.61V80h-13.57Zm-15.87 0V60.094h7.02c2.14 0 3.79.551 4.98 1.654 1.18 1.094 1.78 2.58 1.78 4.457 0 1.896-.61 3.413-1.81 4.553-1.2 1.13-2.86 1.695-4.97 1.695h-3.31V80h-3.69Zm3.69-10.24h3.02c1.25 0 2.12-.324 2.62-.97.5-.648.76-1.482.76-2.503 0-1.02-.26-1.846-.76-2.475-.5-.628-1.37-.943-2.62-.943h-3.02v6.89Zm6.91 10.24-4.51-9.078 3.68-.451 4.94 9.529h-4.11Z" fill="#fff"/></svg>