<svg width="1767" height="303" viewBox="0 0 1767 303" fill="none" xmlns="http://www.w3.org/2000/svg">
<line x1="1170" y1="180.031" x2="1205" y2="180.031" stroke="white"/>
<path d="M455 180.031L478 180.031M466.5 191.531L466.5 168.531" stroke="white" stroke-width="2"/>
<path d="M388 180.031L411 180.031" stroke="white" stroke-width="2"/>
<path d="M43 223.031V238.531C43 241.845 45.6863 244.531 49 244.531H165C168.314 244.531 171 241.845 171 238.531V229.531H66L54 227.531L43 223.031Z" stroke="white"/>
<path d="M236.5 301.531L235.86 302.299L236.138 302.531H236.5V301.531ZM232 289.031L232.981 289.227L232 289.031ZM322 289.031L322.981 288.835V288.835L322 289.031ZM317.5 301.531V302.531H317.862L318.14 302.299L317.5 301.531ZM236.5 302.531H273V300.531H236.5V302.531ZM231.019 288.835C229.719 295.337 233.711 300.509 235.86 302.299L237.14 300.763C235.289 299.221 231.881 294.726 232.981 289.227L231.019 288.835ZM249.5 277.531C244.182 277.531 239.97 278.286 236.869 280.106C233.711 281.96 231.816 284.851 231.019 288.835L232.981 289.227C233.684 285.711 235.289 283.352 237.881 281.831C240.53 280.276 244.318 279.531 249.5 279.531V277.531ZM273 277.531H249.5V279.531H273V277.531ZM273 279.531H276V277.531H273V279.531ZM276 279.531H304.5V277.531H276V279.531ZM304.5 279.531C309.682 279.531 313.47 280.276 316.119 281.831C318.711 283.352 320.316 285.711 321.019 289.227L322.981 288.835C322.184 284.851 320.289 281.96 317.131 280.106C314.03 278.286 309.818 277.531 304.5 277.531V279.531ZM321.019 289.227C322.119 294.726 318.711 299.221 316.86 300.763L318.14 302.299C320.289 300.509 324.281 295.337 322.981 288.835L321.019 289.227ZM317.5 300.531H276V302.531H317.5V300.531ZM276 300.531H273V302.531H276V300.531Z" fill="white"/>
<path d="M250 256.531V278.531H304V257.055C295.843 258.393 287.3 259.104 278.5 259.104C268.615 259.104 259.054 258.207 250 256.531Z" stroke="white" stroke-width="2"/>
<path d="M236 252.531C248.976 256.387 263.36 258.531 278.5 258.531C293.64 258.531 308.024 256.387 321 252.531H236Z" stroke="white" stroke-width="2"/>
<path d="M205.99 235.531V234.531H204.124L205.158 236.085L205.99 235.531ZM213.64 247.031L214.472 246.477L214.472 246.477L213.64 247.031ZM213.919 247.46L214.763 246.923L214.759 246.916L213.919 247.46ZM213.919 247.46L213.075 247.996L213.08 248.003L213.919 247.46ZM339.855 248.531L340.687 249.085V249.085L339.855 248.531ZM343.278 243.166L344.122 243.702L344.122 243.702L343.278 243.166ZM351.999 229.531L352.837 230.078L353.846 228.531H351.999V229.531ZM230.999 229.531V228.531H229.999V229.531H230.999ZM205.158 236.085L212.807 247.585L214.472 246.477L206.823 234.977L205.158 236.085ZM212.807 247.585C212.887 247.705 212.976 247.844 213.08 248.003L214.759 246.916C214.657 246.76 214.56 246.61 214.472 246.477L212.807 247.585ZM213.075 247.996L213.075 247.996L214.763 246.923L214.763 246.923L213.075 247.996ZM213.08 248.003C213.63 248.853 214.502 250.207 215.633 251.344C216.753 252.471 218.269 253.531 220.125 253.531V251.531C219.057 251.531 218.026 250.915 217.052 249.934C216.089 248.966 215.32 247.784 214.759 246.916L213.08 248.003ZM220.125 253.531H333.868V251.531H220.125V253.531ZM333.868 253.531C337.432 253.531 339.692 250.581 340.687 249.085L339.022 247.977C338.021 249.481 336.29 251.531 333.868 251.531V253.531ZM340.687 249.085C341.07 248.51 342.41 246.398 344.122 243.702L342.434 242.63C340.711 245.343 339.389 247.425 339.022 247.977L340.687 249.085ZM344.122 243.702C346.814 239.461 350.449 233.735 352.837 230.078L351.162 228.985C348.766 232.655 345.123 238.393 342.434 242.63L344.122 243.702ZM351.999 228.531H230.999V230.531H351.999V228.531ZM224.999 236.531C228.865 236.531 231.999 233.397 231.999 229.531H229.999C229.999 232.293 227.761 234.531 224.999 234.531V236.531ZM205.99 236.531H224.999V234.531H205.99V236.531Z" fill="white"/>
<path d="M178 229.531C178 232.845 180.686 235.531 184 235.531H225C228.314 235.531 231 232.845 231 229.531H178Z" stroke="white" stroke-width="2"/>
<path d="M1534.5 301.531L1535.14 302.299L1534.86 302.531H1534.5V301.531ZM1539 289.031L1538.02 289.227L1539 289.031ZM1449 289.031L1448.02 288.835V288.835L1449 289.031ZM1453.5 301.531V302.531H1453.14L1452.86 302.299L1453.5 301.531ZM1534.5 302.531H1498V300.531H1534.5V302.531ZM1539.98 288.835C1541.28 295.337 1537.29 300.509 1535.14 302.299L1533.86 300.763C1535.71 299.221 1539.12 294.726 1538.02 289.227L1539.98 288.835ZM1521.5 277.531C1526.82 277.531 1531.03 278.286 1534.13 280.106C1537.29 281.96 1539.18 284.851 1539.98 288.835L1538.02 289.227C1537.32 285.711 1535.71 283.352 1533.12 281.831C1530.47 280.276 1526.68 279.531 1521.5 279.531V277.531ZM1498 277.531H1521.5V279.531H1498V277.531ZM1498 279.531H1495V277.531H1498V279.531ZM1495 279.531H1466.5V277.531H1495V279.531ZM1466.5 279.531C1461.32 279.531 1457.53 280.276 1454.88 281.831C1452.29 283.352 1450.68 285.711 1449.98 289.227L1448.02 288.835C1448.82 284.851 1450.71 281.96 1453.87 280.106C1456.97 278.286 1461.18 277.531 1466.5 277.531V279.531ZM1449.98 289.227C1448.88 294.726 1452.29 299.221 1454.14 300.763L1452.86 302.299C1450.71 300.509 1446.72 295.337 1448.02 288.835L1449.98 289.227ZM1453.5 300.531H1495V302.531H1453.5V300.531ZM1495 300.531H1498V302.531H1495V300.531Z" fill="white"/>
<path d="M1521 256.531V278.531H1467V257.055C1475.16 258.393 1483.7 259.104 1492.5 259.104C1502.38 259.104 1511.95 258.207 1521 256.531Z" stroke="white" stroke-width="2"/>
<path d="M1535 252.531C1522.02 256.387 1507.64 258.531 1492.5 258.531C1477.36 258.531 1462.98 256.387 1450 252.531H1535Z" stroke="white" stroke-width="2"/>
<path d="M1565.01 235.531V234.531H1566.88L1565.84 236.085L1565.01 235.531ZM1557.36 247.031L1556.53 246.477L1556.53 246.477L1557.36 247.031ZM1557.08 247.46L1556.24 246.923L1556.24 246.916L1557.08 247.46ZM1557.08 247.46L1557.92 247.996L1557.92 248.003L1557.08 247.46ZM1431.15 248.531L1430.31 249.085V249.085L1431.15 248.531ZM1427.72 243.166L1426.88 243.702L1426.88 243.702L1427.72 243.166ZM1419 229.531L1418.16 230.078L1417.15 228.531H1419V229.531ZM1540 229.531V228.531H1541V229.531H1540ZM1565.84 236.085L1558.19 247.585L1556.53 246.477L1564.18 234.977L1565.84 236.085ZM1558.19 247.585C1558.11 247.705 1558.02 247.844 1557.92 248.003L1556.24 246.916C1556.34 246.76 1556.44 246.61 1556.53 246.477L1558.19 247.585ZM1557.92 247.996L1557.92 247.996L1556.24 246.923L1556.24 246.923L1557.92 247.996ZM1557.92 248.003C1557.37 248.853 1556.5 250.207 1555.37 251.344C1554.25 252.471 1552.73 253.531 1550.88 253.531V251.531C1551.94 251.531 1552.97 250.915 1553.95 249.934C1554.91 248.966 1555.68 247.784 1556.24 246.916L1557.92 248.003ZM1550.88 253.531H1437.13V251.531H1550.88V253.531ZM1437.13 253.531C1433.57 253.531 1431.31 250.581 1430.31 249.085L1431.98 247.977C1432.98 249.481 1434.71 251.531 1437.13 251.531V253.531ZM1430.31 249.085C1429.93 248.51 1428.59 246.398 1426.88 243.702L1428.57 242.63C1430.29 245.343 1431.61 247.425 1431.98 247.977L1430.31 249.085ZM1426.88 243.702C1424.19 239.461 1420.55 233.735 1418.16 230.078L1419.84 228.985C1422.23 232.655 1425.88 238.393 1428.57 242.63L1426.88 243.702ZM1419 228.531H1540V230.531H1419V228.531ZM1546 236.531C1542.13 236.531 1539 233.397 1539 229.531H1541C1541 232.293 1543.24 234.531 1546 234.531V236.531ZM1565.01 236.531H1546V234.531H1565.01V236.531Z" fill="white"/>
<path d="M1593 229.531H1594V228.531H1593V229.531ZM1540 229.531V228.531H1539V229.531H1540ZM1587 236.531C1590.87 236.531 1594 233.397 1594 229.531H1592C1592 232.293 1589.76 234.531 1587 234.531V236.531ZM1546 236.531H1587V234.531H1546V236.531ZM1539 229.531C1539 233.397 1542.13 236.531 1546 236.531V234.531C1543.24 234.531 1541 232.293 1541 229.531H1539ZM1540 230.531H1593V228.531H1540V230.531Z" fill="white"/>
<path d="M86 229.531V238.531C86 241.845 88.6863 244.531 92 244.531H123C126.314 244.531 129 241.845 129 238.531V229.531H86Z" stroke="white"/>
<path d="M1593 229.531V229.031H1592.5V229.531H1593ZM1639 229.531H1639.5V229.031H1639V229.531ZM1585 235.531V235.031H1584.5V235.531H1585ZM1592.5 229.531C1592.5 232.569 1590.04 235.031 1587 235.031V236.031C1590.59 236.031 1593.5 233.121 1593.5 229.531H1592.5ZM1593 230.031H1639V229.031H1593V230.031ZM1638.5 229.531V239.031H1639.5V229.531H1638.5ZM1638.5 239.031C1638.5 239.181 1638.41 239.412 1638.02 239.715C1637.65 240.011 1637.07 240.314 1636.29 240.611C1634.74 241.203 1632.53 241.728 1629.92 242.163C1624.7 243.033 1617.98 243.531 1612 243.531V244.531C1618.02 244.531 1624.8 244.03 1630.08 243.149C1632.72 242.71 1635.01 242.172 1636.65 241.545C1637.46 241.233 1638.15 240.887 1638.64 240.5C1639.12 240.119 1639.5 239.631 1639.5 239.031H1638.5ZM1612 243.531C1606.03 243.531 1599.31 242.909 1594.09 241.977C1591.47 241.51 1589.26 240.969 1587.7 240.398C1586.92 240.111 1586.34 239.826 1585.96 239.556C1585.55 239.268 1585.5 239.086 1585.5 239.031H1584.5C1584.5 239.602 1584.92 240.045 1585.38 240.372C1585.86 240.717 1586.55 241.037 1587.36 241.336C1588.99 241.937 1591.28 242.49 1593.91 242.961C1599.19 243.904 1605.97 244.531 1612 244.531V243.531ZM1585.5 239.031V235.531H1584.5V239.031H1585.5ZM1587 235.031H1585V236.031H1587V235.031Z" fill="white"/>
<path d="M1639 239.031V229.531H1693V239.031C1693 242.031 1678 244.031 1666 244.031C1654 244.031 1639 241.531 1639 239.031Z" stroke="white"/>
<path d="M1693 239.031V229.531L1709 227.531L1726 222.031L1743 209.531V218.031C1743 221.031 1734.5 234.325 1718.5 239.031C1710 241.531 1693 241.531 1693 239.031Z" stroke="white"/>
<circle cx="466.5" cy="180.031" r="19.5" stroke="white" stroke-width="2"/>
<circle cx="399.5" cy="180.031" r="19.5" stroke="white" stroke-width="2"/>
<circle cx="583.5" cy="180.031" r="19.5" stroke="white" stroke-width="2"/>
<circle cx="583.5" cy="180.031" r="11" stroke="white"/>
<circle cx="1341" cy="180.531" r="20" stroke="white" stroke-width="2"/>
<circle cx="1265.5" cy="178.031" r="5" stroke="white"/>
<path d="M727.5 166.531C727.5 160.18 732.649 155.031 739 155.031C745.351 155.031 750.5 160.18 750.5 166.531V193.531C750.5 199.883 745.351 205.031 739 205.031C732.649 205.031 727.5 199.883 727.5 193.531V166.531Z" stroke="white"/>
<path d="M756.5 166.531C756.5 160.18 761.649 155.031 768 155.031C774.351 155.031 779.5 160.18 779.5 166.531V193.531C779.5 199.883 774.351 205.031 768 205.031C761.649 205.031 756.5 199.883 756.5 193.531V166.531Z" stroke="white"/>
<path d="M785.5 166.531C785.5 160.18 790.649 155.031 797 155.031C803.351 155.031 808.5 160.18 808.5 166.531V193.531C808.5 199.883 803.351 205.031 797 205.031C790.649 205.031 785.5 199.883 785.5 193.531V166.531Z" stroke="white"/>
<path d="M814.5 166.531C814.5 160.18 819.649 155.031 826 155.031C832.351 155.031 837.5 160.18 837.5 166.531V193.531C837.5 199.883 832.351 205.031 826 205.031C819.649 205.031 814.5 199.883 814.5 193.531V166.531Z" stroke="white"/>
<path d="M843.5 166.531C843.5 160.18 848.649 155.031 855 155.031C861.351 155.031 866.5 160.18 866.5 166.531V193.531C866.5 199.883 861.351 205.031 855 205.031C848.649 205.031 843.5 199.883 843.5 193.531V166.531Z" stroke="white"/>
<path d="M872.5 166.531C872.5 160.18 877.649 155.031 884 155.031C890.351 155.031 895.5 160.18 895.5 166.531V193.531C895.5 199.883 890.351 205.031 884 205.031C877.649 205.031 872.5 199.883 872.5 193.531V166.531Z" stroke="white"/>
<path d="M901.5 166.531C901.5 160.18 906.649 155.031 913 155.031C919.351 155.031 924.5 160.18 924.5 166.531V193.531C924.5 199.883 919.351 205.031 913 205.031C906.649 205.031 901.5 199.883 901.5 193.531V166.531Z" stroke="white"/>
<path d="M930.5 166.531C930.5 160.18 935.649 155.031 942 155.031C948.351 155.031 953.5 160.18 953.5 166.531V193.531C953.5 199.883 948.351 205.031 942 205.031C935.649 205.031 930.5 199.883 930.5 193.531V166.531Z" stroke="white"/>
<path d="M959.5 166.531C959.5 160.18 964.649 155.031 971 155.031C977.351 155.031 982.5 160.18 982.5 166.531V193.531C982.5 199.883 977.351 205.031 971 205.031C964.649 205.031 959.5 199.883 959.5 193.531V166.531Z" stroke="white"/>
<path d="M988.5 166.531C988.5 160.18 993.649 155.031 1000 155.031C1006.35 155.031 1011.5 160.18 1011.5 166.531V193.531C1011.5 199.883 1006.35 205.031 1000 205.031C993.649 205.031 988.5 199.883 988.5 193.531V166.531Z" stroke="white"/>
<path d="M1017.5 166.531C1017.5 160.18 1022.65 155.031 1029 155.031C1035.35 155.031 1040.5 160.18 1040.5 166.531V193.531C1040.5 199.883 1035.35 205.031 1029 205.031C1022.65 205.031 1017.5 199.883 1017.5 193.531V166.531Z" stroke="white"/>
<path d="M1205.5 169.531C1211.3 169.531 1216 174.232 1216 180.031C1216 185.83 1211.3 190.531 1205.5 190.531L1169.5 190.531C1163.7 190.531 1159 185.83 1159 180.031C1159 174.232 1163.7 169.531 1169.5 169.531L1205.5 169.531Z" stroke="white" stroke-width="2"/>
<path d="M163.021 42.4529L162.149 42.9422V42.9422L163.021 42.4529ZM190.187 89.4589L191.05 88.9543L190.187 89.4589ZM109.521 18.9529L109.641 19.9458L109.521 18.9529ZM91.4324 21.6275L91.6012 22.6131L91.4324 21.6275ZM77.5214 23.9529L77.6814 24.94L77.5214 23.9529ZM30.0214 81.4529L29.0322 81.3064L30.0214 81.4529ZM24.981 114.846L25.9695 114.997L24.981 114.846ZM22.0449 134.537L21.0544 134.4L20.8605 135.796L22.2425 135.518L22.0449 134.537ZM196.034 99.475L196.232 100.455L197.599 100.18L196.899 98.9732L196.034 99.475ZM196.021 99.4529L196.887 98.9516L196.886 98.9498L196.021 99.4529ZM162.149 42.9422C169.415 55.8938 180.998 75.7159 189.324 89.9634L191.05 88.9543C182.721 74.7007 171.148 54.8963 163.893 41.9637L162.149 42.9422ZM109.641 19.9458C128.891 17.6357 152.035 24.9121 162.149 42.9422L163.893 41.9637C153.252 22.9938 129.152 15.5901 109.402 17.96L109.641 19.9458ZM91.6012 22.6131C98.1817 21.486 101.401 20.9345 109.641 19.9458L109.402 17.96C101.116 18.9544 97.8603 19.512 91.2636 20.6418L91.6012 22.6131ZM77.6814 24.94C83.9575 23.9223 88.2213 23.192 91.6012 22.6131L91.2636 20.6418C87.8854 21.2204 83.6284 21.9495 77.3613 22.9658L77.6814 24.94ZM31.0106 81.5995C35.9659 48.151 53.7279 28.8244 77.6814 24.94L77.3613 22.9658C52.3147 27.0274 34.0768 47.2553 29.0322 81.3064L31.0106 81.5995ZM25.9695 114.997C27.2073 106.917 28.8049 96.4875 31.0106 81.5995L29.0322 81.3064C26.8273 96.1895 25.2302 106.615 23.9925 114.695L25.9695 114.997ZM23.0354 134.675C23.8137 129.071 24.7025 123.268 25.9695 114.997L23.9925 114.695C22.7262 122.961 21.835 128.779 21.0544 134.4L23.0354 134.675ZM195.837 98.4947L21.8474 133.557L22.2425 135.518L196.232 100.455L195.837 98.4947ZM195.156 99.9543C195.159 99.9599 195.165 99.9696 195.169 99.9767L196.899 98.9732C196.895 98.9656 196.892 98.9607 196.887 98.9516L195.156 99.9543ZM189.324 89.9634C191.549 93.7711 193.541 97.1808 195.157 99.9561L196.886 98.9498C195.269 96.1728 193.275 92.7616 191.05 88.9543L189.324 89.9634Z" fill="white"/>
<path d="M195.77 99.5312L196.635 99.03L196.276 98.4092L195.573 98.551L195.77 99.5312ZM246.757 133.509L246.791 132.51L246.757 133.509ZM20.2574 146.509L21.2505 146.626L20.2574 146.509ZM21.7809 134.594L21.5834 133.613L20.888 133.754L20.7904 134.456L21.7809 134.594ZM194.905 100.032C204.087 115.886 213.209 124.415 222.014 129.023C230.816 133.63 239.195 134.258 246.724 134.509L246.791 132.51C239.323 132.261 231.325 131.639 222.941 127.251C214.56 122.865 205.686 114.656 196.635 99.03L194.905 100.032ZM246.724 134.509C253.941 134.749 259.716 137.875 263.692 141.67C265.681 143.569 267.209 145.625 268.234 147.55C269.268 149.491 269.757 151.232 269.757 152.509H271.757C271.757 150.787 271.121 148.715 269.999 146.609C268.869 144.487 267.209 142.262 265.073 140.223C260.799 136.144 254.573 132.769 246.791 132.51L246.724 134.509ZM269.757 152.509V163.509H271.757V152.509H269.757ZM269.757 163.509C269.757 164.46 269.428 166.14 268.612 168.158C267.803 170.156 266.543 172.422 264.744 174.551C261.161 178.79 255.43 182.509 246.757 182.509V184.509C256.085 184.509 262.353 180.478 266.271 175.842C268.222 173.534 269.586 171.081 270.466 168.908C271.337 166.753 271.757 164.808 271.757 163.509H269.757ZM246.757 182.509H54.2574V184.509H246.757V182.509ZM54.2574 182.509C41.2846 182.509 32.5931 177.628 27.3648 170.778C22.1115 163.894 20.2753 154.916 21.2505 146.626L19.2642 146.392C18.2395 155.103 20.1532 164.625 25.7749 171.991C31.4216 179.39 40.7302 184.509 54.2574 184.509V182.509ZM21.2505 146.626C21.7624 142.275 22.2413 138.549 22.7714 134.731L20.7904 134.456C20.2583 138.288 19.7776 142.028 19.2642 146.392L21.2505 146.626ZM195.573 98.551L21.5834 133.613L21.9785 135.574L195.968 100.512L195.573 98.551Z" fill="white"/>
<path d="M263.501 115.172C242.301 115.172 229.001 101.172 225.001 94.1725C219.952 86.7527 212.461 75.8013 205.019 64.924C196.247 52.1012 187.546 39.3815 183.001 32.6725C169.453 12.6725 141.501 2.17249 119.001 3.67249C101.989 4.80662 91.5513 5.78917 85.9588 6.31563C84.1546 6.48546 82.8547 6.60783 82.001 6.6725C45.501 9.43765 23.0009 40.6725 17.5009 56.1725C12.0796 71.4508 8.11569 107.132 3.69376 146.937L3.50094 148.673C-1.49906 193.673 31.5008 229.673 77.0008 229.673H1689.5C1735 229.673 1768 193.673 1763 148.673L1762.81 146.937L1762.81 146.933C1758.39 107.13 1754.42 71.4502 1749 56.1725C1743.5 40.6725 1721 9.43766 1684.5 6.67251C1683.65 6.60783 1682.35 6.48547 1680.54 6.31563C1674.95 5.78918 1664.51 4.80663 1647.5 3.6725C1625 2.1725 1597.05 12.6725 1583.5 32.6725C1578.96 39.3808 1570.26 52.0985 1561.49 64.92C1554.04 75.7986 1546.55 86.7518 1541.5 94.1725C1537.5 101.172 1524.2 115.172 1503 115.172L263.501 115.172Z" stroke="white" stroke-width="6"/>
<path d="M263.5 115.172C242.3 115.172 229 101.172 225 94.1725C219.951 86.7527 212.46 75.8013 205.018 64.924C196.246 52.1012 187.545 39.3815 183 32.6725C169.452 12.6725 141.5 2.17249 119 3.67249C101.988 4.80662 91.5503 5.78917 85.9578 6.31563C84.1536 6.48546 82.8537 6.60783 82 6.6725C45.5 9.43765 23 40.6725 17.5 56.1725C12.0787 71.4508 8.11475 107.132 3.69283 146.937L3.5 148.673C3.5 183.031 11.999 213.673 76.9998 213.673H1689.5C1744.5 213.673 1763 191.031 1763 148.673L1762.81 146.937L1762.81 146.933C1758.38 107.13 1754.42 71.4502 1749 56.1725C1743.5 40.6725 1721 9.43766 1684.5 6.67251C1683.65 6.60783 1682.35 6.48547 1680.54 6.31563C1674.95 5.78918 1664.51 4.80663 1647.5 3.6725C1625 2.1725 1597.05 12.6725 1583.5 32.6725C1578.96 39.3808 1570.26 52.0985 1561.48 64.92C1554.04 75.7986 1546.55 86.7518 1541.5 94.1725C1537.5 101.172 1524.2 115.172 1503 115.172L263.5 115.172Z" stroke="white"/>
<path d="M30 82.0312C34.5 52.5312 61.5 36.0312 78 32.5312C94.5 29.0312 98 28.0312 109 28.0312C120 28.0312 139 28.0312 153 52.5312C167 77.0312 174 90.5312 186 113.031C198 135.531 222.5 147.031 253.5 147.031H723M1737 82.0312C1732.5 52.5312 1705.5 36.0312 1689 32.5312C1672.5 29.0312 1669 28.0312 1658 28.0312C1647 28.0312 1628 28.0312 1614 52.5312C1600 77.0312 1593 90.5312 1581 113.031C1569 135.531 1544.5 147.031 1513.5 147.031H720.5" stroke="white"/>
<circle cx="466.5" cy="180.031" r="19.5" stroke="white" stroke-width="2"/>
<circle cx="399.5" cy="180.031" r="19.5" stroke="white" stroke-width="2"/>
<circle cx="583.5" cy="180.031" r="19.5" stroke="white" stroke-width="2"/>
<circle cx="583.5" cy="180.031" r="11" stroke="white"/>
<circle cx="1341" cy="180.531" r="20" stroke="white" stroke-width="2"/>
<circle cx="1265.5" cy="178.031" r="5" stroke="white"/>
<path d="M727.5 166.531C727.5 160.18 732.649 155.031 739 155.031C745.351 155.031 750.5 160.18 750.5 166.531V193.531C750.5 199.883 745.351 205.031 739 205.031C732.649 205.031 727.5 199.883 727.5 193.531V166.531Z" stroke="white"/>
<path d="M756.5 166.531C756.5 160.18 761.649 155.031 768 155.031C774.351 155.031 779.5 160.18 779.5 166.531V193.531C779.5 199.883 774.351 205.031 768 205.031C761.649 205.031 756.5 199.883 756.5 193.531V166.531Z" stroke="white"/>
<path d="M785.5 166.531C785.5 160.18 790.649 155.031 797 155.031C803.351 155.031 808.5 160.18 808.5 166.531V193.531C808.5 199.883 803.351 205.031 797 205.031C790.649 205.031 785.5 199.883 785.5 193.531V166.531Z" stroke="white"/>
<path d="M814.5 166.531C814.5 160.18 819.649 155.031 826 155.031C832.351 155.031 837.5 160.18 837.5 166.531V193.531C837.5 199.883 832.351 205.031 826 205.031C819.649 205.031 814.5 199.883 814.5 193.531V166.531Z" stroke="white"/>
<path d="M843.5 166.531C843.5 160.18 848.649 155.031 855 155.031C861.351 155.031 866.5 160.18 866.5 166.531V193.531C866.5 199.883 861.351 205.031 855 205.031C848.649 205.031 843.5 199.883 843.5 193.531V166.531Z" stroke="white"/>
<path d="M872.5 166.531C872.5 160.18 877.649 155.031 884 155.031C890.351 155.031 895.5 160.18 895.5 166.531V193.531C895.5 199.883 890.351 205.031 884 205.031C877.649 205.031 872.5 199.883 872.5 193.531V166.531Z" stroke="white"/>
<path d="M901.5 166.531C901.5 160.18 906.649 155.031 913 155.031C919.351 155.031 924.5 160.18 924.5 166.531V193.531C924.5 199.883 919.351 205.031 913 205.031C906.649 205.031 901.5 199.883 901.5 193.531V166.531Z" stroke="white"/>
<path d="M930.5 166.531C930.5 160.18 935.649 155.031 942 155.031C948.351 155.031 953.5 160.18 953.5 166.531V193.531C953.5 199.883 948.351 205.031 942 205.031C935.649 205.031 930.5 199.883 930.5 193.531V166.531Z" stroke="white"/>
<path d="M959.5 166.531C959.5 160.18 964.649 155.031 971 155.031C977.351 155.031 982.5 160.18 982.5 166.531V193.531C982.5 199.883 977.351 205.031 971 205.031C964.649 205.031 959.5 199.883 959.5 193.531V166.531Z" stroke="white"/>
<path d="M988.5 166.531C988.5 160.18 993.649 155.031 1000 155.031C1006.35 155.031 1011.5 160.18 1011.5 166.531V193.531C1011.5 199.883 1006.35 205.031 1000 205.031C993.649 205.031 988.5 199.883 988.5 193.531V166.531Z" stroke="white"/>
<path d="M1017.5 166.531C1017.5 160.18 1022.65 155.031 1029 155.031C1035.35 155.031 1040.5 160.18 1040.5 166.531V193.531C1040.5 199.883 1035.35 205.031 1029 205.031C1022.65 205.031 1017.5 199.883 1017.5 193.531V166.531Z" stroke="white"/>
<path d="M1205.5 169.531C1211.3 169.531 1216 174.232 1216 180.031C1216 185.83 1211.3 190.531 1205.5 190.531L1169.5 190.531C1163.7 190.531 1159 185.83 1159 180.031C1159 174.232 1163.7 169.531 1169.5 169.531L1205.5 169.531Z" stroke="white" stroke-width="2"/>
<path d="M195.772 99.5312L197.07 98.7794L196.531 97.8482L195.476 98.0608L195.772 99.5312ZM246.759 133.509L246.809 132.01L246.759 133.509ZM20.2593 146.509L21.749 146.684L20.2593 146.509ZM21.7829 134.594L21.4865 133.123L20.4435 133.333L20.2971 134.387L21.7829 134.594ZM194.474 100.283C203.69 116.193 212.873 124.803 221.784 129.466C230.691 134.128 239.165 134.757 246.709 135.008L246.809 132.01C239.357 131.762 231.454 131.141 223.175 126.808C214.9 122.478 206.088 114.348 197.07 98.7794L194.474 100.283ZM246.709 135.008C253.785 135.244 259.447 138.307 263.349 142.032C265.301 143.896 266.796 145.909 267.795 147.785C268.807 149.685 269.259 151.343 269.259 152.509H272.259C272.259 150.675 271.586 148.521 270.442 146.374C269.286 144.203 267.592 141.935 265.42 139.862C261.072 135.711 254.733 132.274 246.809 132.01L246.709 135.008ZM269.259 152.509V163.509H272.259V152.509H269.259ZM269.259 163.509C269.259 164.373 268.952 165.987 268.15 167.97C267.359 169.925 266.125 172.144 264.364 174.228C260.865 178.368 255.268 182.009 246.759 182.009V185.009C256.25 185.009 262.653 180.9 266.655 176.165C268.643 173.812 270.034 171.312 270.931 169.095C271.816 166.907 272.259 164.895 272.259 163.509H269.259ZM246.759 182.009H54.2593V185.009H246.759V182.009ZM54.2593 182.009C41.4251 182.009 32.8879 177.188 27.7642 170.474C22.603 163.711 20.7862 154.869 21.749 146.684L18.7696 146.334C17.7325 155.15 19.6656 164.807 25.3794 172.294C31.1307 179.83 40.5935 185.009 54.2593 185.009V182.009ZM21.749 146.684C22.2605 142.337 22.739 138.614 23.2686 134.8L20.2971 134.387C19.7645 138.223 19.2834 141.967 18.7696 146.334L21.749 146.684ZM195.476 98.0608L21.4865 133.123L22.0792 136.064L196.068 101.002L195.476 98.0608Z" fill="white"/>
<path d="M189.396 159.531V143.139L184.461 144.984V141.854L191.16 139.406H193.088V159.531H189.396Z" fill="white"/>
<path d="M169.846 159.531V139.625H173.537V156.633H182.082V159.531H169.846Z" fill="white"/>
<path d="M1571.99 99.5312L1570.69 98.7794L1571.23 97.8482L1572.29 98.0608L1571.99 99.5312ZM1521 133.509L1520.95 132.01L1521 133.509ZM1747.5 146.509L1746.01 146.684L1747.5 146.509ZM1745.98 134.594L1746.28 133.123L1747.32 133.333L1747.46 134.387L1745.98 134.594ZM1573.29 100.283C1564.07 116.193 1554.89 124.803 1545.98 129.466C1537.07 134.128 1528.6 134.757 1521.05 135.008L1520.95 132.01C1528.4 131.762 1536.31 131.141 1544.59 126.808C1552.86 122.478 1561.67 114.348 1570.69 98.7794L1573.29 100.283ZM1521.05 135.008C1513.98 135.244 1508.32 138.307 1504.41 142.032C1502.46 143.896 1500.97 145.909 1499.97 147.785C1498.95 149.685 1498.5 151.343 1498.5 152.509H1495.5C1495.5 150.675 1496.18 148.521 1497.32 146.374C1498.48 144.203 1500.17 141.935 1502.34 139.862C1506.69 135.711 1513.03 132.274 1520.95 132.01L1521.05 135.008ZM1498.5 152.509V163.509H1495.5V152.509H1498.5ZM1498.5 163.509C1498.5 164.373 1498.81 165.987 1499.61 167.97C1500.4 169.925 1501.64 172.144 1503.4 174.228C1506.9 178.368 1512.49 182.009 1521 182.009V185.009C1511.51 185.009 1505.11 180.9 1501.11 176.165C1499.12 173.812 1497.73 171.312 1496.83 169.095C1495.95 166.907 1495.5 164.895 1495.5 163.509H1498.5ZM1521 182.009H1713.5V185.009H1521V182.009ZM1713.5 182.009C1726.34 182.009 1734.87 177.188 1740 170.474C1745.16 163.711 1746.98 154.869 1746.01 146.684L1748.99 146.334C1750.03 155.15 1748.1 164.807 1742.38 172.294C1736.63 179.83 1727.17 185.009 1713.5 185.009V182.009ZM1746.01 146.684C1745.5 142.337 1745.02 138.614 1744.49 134.8L1747.46 134.387C1748 138.223 1748.48 141.967 1748.99 146.334L1746.01 146.684ZM1572.29 98.0608L1746.28 133.123L1745.68 136.064L1571.69 101.002L1572.29 98.0608Z" fill="white"/>
<path d="M1593.56 159.531V143.139L1588.62 144.984V141.854L1595.32 139.406H1597.25V159.531H1593.56Z" fill="white"/>
<path d="M1571.85 159.531V139.625H1578.87C1581.01 139.625 1582.66 140.176 1583.85 141.279C1585.03 142.373 1585.63 143.859 1585.63 145.736C1585.63 147.632 1585.03 149.15 1583.82 150.289C1582.62 151.419 1580.96 151.984 1578.85 151.984H1575.54V159.531H1571.85ZM1575.54 149.291H1578.56C1579.81 149.291 1580.68 148.967 1581.18 148.32C1581.68 147.673 1581.94 146.839 1581.94 145.818C1581.94 144.798 1581.68 143.973 1581.18 143.344C1580.68 142.715 1579.81 142.4 1578.56 142.4H1575.54V149.291ZM1582.46 159.531L1577.94 150.453L1581.62 150.002L1586.56 159.531H1582.46Z" fill="white"/>
<path d="M163.021 42.4529L161.713 43.1868L163.021 42.4529ZM190.187 89.4589L191.482 88.7021L190.187 89.4589ZM109.521 18.9529L109.7 20.4422L109.521 18.9529ZM91.4324 21.6275L91.6856 23.1059L91.4324 21.6275ZM77.5214 23.9529L77.7615 25.4336L77.5214 23.9529ZM30.0214 81.4529L28.5376 81.2331L30.0214 81.4529ZM24.981 114.846L26.4637 115.073L24.981 114.846ZM22.0449 134.537L20.5592 134.331L20.2683 136.426L22.3412 136.008L22.0449 134.537ZM196.034 99.475L196.33 100.945L198.381 100.532L197.332 98.7224L196.034 99.475ZM196.021 99.4529L197.319 98.7009L197.318 98.6982L196.021 99.4529ZM161.713 43.1868C168.981 56.1431 180.567 75.9697 188.892 90.2157L191.482 88.7021C183.152 74.4468 171.582 54.6469 164.33 41.719L161.713 43.1868ZM109.7 20.4422C128.825 18.1472 151.73 25.3916 161.713 43.1868L164.33 41.719C153.556 22.5142 129.217 15.0786 109.343 17.4636L109.7 20.4422ZM91.6856 23.1059C98.2621 21.9796 101.473 21.4295 109.7 20.4422L109.343 17.4636C101.045 18.4593 97.7799 19.0185 91.1792 20.149L91.6856 23.1059ZM77.7615 25.4336C84.0397 24.4155 88.3053 23.6849 91.6856 23.1059L91.1792 20.149C87.8014 20.7275 83.5462 21.4563 77.2813 22.4723L77.7615 25.4336ZM31.5052 81.6727C36.4382 48.375 54.0812 29.2736 77.7615 25.4336L77.2813 22.4723C51.9614 26.5782 33.6045 47.0314 28.5376 81.2331L31.5052 81.6727ZM26.4637 115.073C27.7015 106.993 29.2993 96.5621 31.5052 81.6727L28.5376 81.2331C26.3328 96.1149 24.7359 106.54 23.4983 114.619L26.4637 115.073ZM23.5307 134.744C24.3083 129.144 25.1966 123.345 26.4637 115.073L23.4983 114.619C22.2321 122.885 21.3403 128.706 20.5592 134.331L23.5307 134.744ZM195.738 98.0045L21.7486 133.067L22.3412 136.008L196.33 100.945L195.738 98.0045ZM194.723 100.205C194.726 100.21 194.733 100.221 194.737 100.228L197.332 98.7224C197.327 98.7147 197.325 98.7109 197.319 98.7009L194.723 100.205ZM188.892 90.2157C191.117 94.0235 193.109 97.4328 194.725 100.208L197.318 98.6982C195.7 95.9208 193.707 92.5092 191.482 88.7021L188.892 90.2157Z" fill="white"/>
<path d="M129.559 80.5312V78.1797L136.449 70.4961C137.215 69.6393 137.821 68.8464 138.268 68.1172C138.714 67.3789 138.938 66.6133 138.938 65.8203C138.938 64.9818 138.696 64.3118 138.213 63.8105C137.739 63.3001 137.074 63.0449 136.217 63.0449C135.351 63.0449 134.64 63.332 134.084 63.9062C133.528 64.4714 133.25 65.36 133.25 66.5723V66.9277H129.531V66.3945C129.531 64.5716 130.151 63.0951 131.391 61.9648C132.63 60.8255 134.243 60.2559 136.23 60.2559C138.29 60.2559 139.876 60.7663 140.988 61.7871C142.109 62.7988 142.67 64.0885 142.67 65.6562C142.67 66.9414 142.346 68.0898 141.699 69.1016C141.052 70.1133 140.223 71.1706 139.211 72.2734L134.521 77.5645H143.135V80.5312H129.559Z" fill="white"/>
<path d="M115.846 80.5312V60.625H119.537V77.6328H128.082V80.5312H115.846Z" fill="white"/>
<path d="M1604.74 42.4529L1606.04 43.1868L1604.74 42.4529ZM1577.57 89.4589L1576.28 88.7021L1577.57 89.4589ZM1658.24 18.9529L1658.06 20.4422L1658.24 18.9529ZM1676.33 21.6275L1676.07 23.1059L1676.33 21.6275ZM1690.24 23.9529L1690 25.4336L1690.24 23.9529ZM1737.74 81.4529L1739.22 81.2331L1737.74 81.4529ZM1742.78 114.846L1741.29 115.073L1742.78 114.846ZM1745.71 134.537L1747.2 134.331L1747.49 136.426L1745.42 136.008L1745.71 134.537ZM1571.72 99.475L1571.43 100.945L1569.38 100.532L1570.43 98.7224L1571.72 99.475ZM1571.74 99.4529L1570.44 98.7009L1570.44 98.6982L1571.74 99.4529ZM1606.04 43.1868C1598.78 56.1431 1587.19 75.9697 1578.87 90.2157L1576.28 88.7021C1584.61 74.4468 1596.18 54.6469 1603.43 41.719L1606.04 43.1868ZM1658.06 20.4422C1638.93 18.1472 1616.03 25.3916 1606.04 43.1868L1603.43 41.719C1614.2 22.5142 1638.54 15.0786 1658.42 17.4636L1658.06 20.4422ZM1676.07 23.1059C1669.5 21.9796 1666.29 21.4295 1658.06 20.4422L1658.42 17.4636C1666.71 18.4593 1669.98 19.0185 1676.58 20.149L1676.07 23.1059ZM1690 25.4336C1683.72 24.4155 1679.45 23.6849 1676.07 23.1059L1676.58 20.149C1679.96 20.7275 1684.21 21.4563 1690.48 22.4723L1690 25.4336ZM1736.25 81.6727C1731.32 48.375 1713.68 29.2736 1690 25.4336L1690.48 22.4723C1715.8 26.5782 1734.15 47.0314 1739.22 81.2331L1736.25 81.6727ZM1741.29 115.073C1740.06 106.993 1738.46 96.5621 1736.25 81.6727L1739.22 81.2331C1741.42 96.1149 1743.02 106.54 1744.26 114.619L1741.29 115.073ZM1744.23 134.744C1743.45 129.144 1742.56 123.345 1741.29 115.073L1744.26 114.619C1745.53 122.885 1746.42 128.706 1747.2 134.331L1744.23 134.744ZM1572.02 98.0045L1746.01 133.067L1745.42 136.008L1571.43 100.945L1572.02 98.0045ZM1573.03 100.205C1573.03 100.21 1573.03 100.221 1573.02 100.228L1570.43 98.7224C1570.43 98.7147 1570.43 98.7109 1570.44 98.7009L1573.03 100.205ZM1578.87 90.2157C1576.64 94.0235 1574.65 97.4328 1573.03 100.208L1570.44 98.6982C1572.06 95.9208 1574.05 92.5092 1576.28 88.7021L1578.87 90.2157Z" fill="white"/>
<path d="M1639.72 80.5312V78.1797L1646.61 70.4961C1647.38 69.6393 1647.98 68.8464 1648.43 68.1172C1648.87 67.3789 1649.1 66.6133 1649.1 65.8203C1649.1 64.9818 1648.86 64.3118 1648.37 63.8105C1647.9 63.3001 1647.23 63.0449 1646.38 63.0449C1645.51 63.0449 1644.8 63.332 1644.24 63.9062C1643.69 64.4714 1643.41 65.36 1643.41 66.5723V66.9277H1639.69V66.3945C1639.69 64.5716 1640.31 63.0951 1641.55 61.9648C1642.79 60.8255 1644.4 60.2559 1646.39 60.2559C1648.45 60.2559 1650.04 60.7663 1651.15 61.7871C1652.27 62.7988 1652.83 64.0885 1652.83 65.6562C1652.83 66.9414 1652.51 68.0898 1651.86 69.1016C1651.21 70.1133 1650.38 71.1706 1649.37 72.2734L1644.68 77.5645H1653.29V80.5312H1639.72Z" fill="white"/>
<path d="M1623.85 80.5312V60.625H1630.87C1633.01 60.625 1634.66 61.1764 1635.85 62.2793C1637.03 63.373 1637.63 64.8587 1637.63 66.7363C1637.63 68.6322 1637.03 70.1497 1635.82 71.2891C1634.62 72.4193 1632.96 72.9844 1630.85 72.9844H1627.54V80.5312H1623.85ZM1627.54 70.291H1630.56C1631.81 70.291 1632.68 69.9674 1633.18 69.3203C1633.68 68.6732 1633.94 67.8392 1633.94 66.8184C1633.94 65.7975 1633.68 64.9727 1633.18 64.3438C1632.68 63.7148 1631.81 63.4004 1630.56 63.4004H1627.54V70.291ZM1634.46 80.5312L1629.94 71.4531L1633.62 71.002L1638.56 80.5312H1634.46Z" fill="white"/>
</svg>
