<svg width="1766" height="698" fill="none" xmlns="http://www.w3.org/2000/svg"><path d="M20.165 70.306C1.57 101.369 2.247 143.544 3.6 227.893L6.577 413.51C8.315 521.898 9.184 576.091 34.09 615.799a168.003 168.003 0 0 0 55.346 54.466c40.102 24.266 94.303 24.266 202.704 24.266h1180.89c108.4 0 162.6 0 202.7-24.266a168.077 168.077 0 0 0 55.35-54.466c24.9-39.708 25.77-93.901 27.51-202.289l2.98-185.617c1.35-84.349 2.02-126.524-16.57-157.587a126.97 126.97 0 0 0-42.01-42.686c-30.76-19.089-72.94-19.089-157.3-19.089H219.472c-84.359 0-126.54 0-157.3 19.089a127 127 0 0 0-42.007 42.686Z" stroke="#fff" stroke-width="6"/><path d="M6.343 241.45c-.483-37.402-.844-65.423.694-87.67 1.538-22.242 4.973-38.668 12.058-52.888a131.5 131.5 0 0 1 57.549-58.296c14.127-7.267 30.508-10.914 52.727-12.739 22.226-1.825 50.249-1.826 87.654-1.826H1548.14c37.4 0 65.43 0 87.65 1.826 22.22 1.825 38.6 5.471 52.73 12.739a131.522 131.522 0 0 1 57.55 58.296c7.08 14.22 10.52 30.646 12.06 52.888 1.54 22.247 1.17 50.268.69 87.67l-.12 9.581h-59.64c-8.38 0-14.7 0-19.72.411-5.04.411-8.81 1.237-12.1 2.914a30.475 30.475 0 0 0-13.33 13.329c-1.68 3.29-2.51 7.068-2.92 12.102-.41 5.023-.41 11.34-.41 19.722v94.022c0 5.096 0 11.427.09 15.167 0 18.06-10.4 42.078-26.11 68.733-15.7 26.632-36.63 55.802-57.58 84.135-4.9 6.633-9.81 13.22-14.65 19.718-15.82 21.251-30.93 41.546-42.97 59.353-7.86 11.626-14.42 22.206-19.02 31.311-4.45 8.829-7.1 16.333-7.24 22.083H280.069c-.144-5.869-2.788-13.451-7.248-22.329-4.596-9.149-11.156-19.738-19.016-31.352-12.067-17.83-27.222-38.109-43.087-59.336a7353.43 7353.43 0 0 1-14.53-19.489c-20.947-28.229-41.879-57.304-57.575-83.951-15.708-26.668-26.112-50.811-26.114-69.204.083-3.664.083-9.887.083-14.833v-94.03c0-8.38 0-14.698-.41-19.72-.411-5.034-1.237-8.812-2.914-12.102a30.498 30.498 0 0 0-13.329-13.329c-3.29-1.677-7.069-2.503-12.102-2.914-5.023-.411-11.34-.411-19.721-.411H6.466l-.123-9.581Z" stroke="#fff"/><path d="M132.583 1.531c-32.5 0-65.5 9-81 33.5 24-24.5 86.5-27 110-27s123.5 3.5 121.5 0-10.5-6.5-19.5-6.5h-131Zm1497.027 0c32.5 0 65.5 9 81 33.5-24-24.5-86.5-27-110-27s-123.5 3.5-121.5 0 10.5-6.5 19.5-6.5h131Z" stroke="#fff" stroke-width="2"/></svg>