<svg width="1766" height="697" fill="none" xmlns="http://www.w3.org/2000/svg"><path opacity=".2" d="M377 449c0-12.15 9.85-22 22-22s22 9.85 22 22v100c0 12.15-9.85 22-22 22s-22-9.85-22-22V449Zm56 0c0-12.15 9.85-22 22-22s22 9.85 22 22v100c0 12.15-9.85 22-22 22s-22-9.85-22-22V449Zm56 0c0-12.15 9.85-22 22-22s22 9.85 22 22v100c0 12.15-9.85 22-22 22s-22-9.85-22-22V449Zm56 0c0-12.15 9.85-22 22-22s22 9.85 22 22v100c0 12.15-9.85 22-22 22s-22-9.85-22-22V449Zm56 0c0-12.15 9.85-22 22-22s22 9.85 22 22v100c0 12.15-9.85 22-22 22s-22-9.85-22-22V449Zm56 0c0-12.15 9.85-22 22-22s22 9.85 22 22v100c0 12.15-9.85 22-22 22s-22-9.85-22-22V449Z" stroke="#fff" stroke-width=".5"/><path opacity=".2" d="M1743.35 56.351c-10.03-16.628-20.03-28.877-48.56-41.324-15.15-6.607-30.1-9.492-48.06-10.954-18.26-1.485-39.98-.996-49.06-.996h-97.12c-4.01 0-9.02 0-8.52 3.983.51 3.983 0 15.933 19.53 14.937 19.52-.996 46.06 4.979 57.07 27.882 11.01 22.902 21.53 45.805 29.04 59.746 7.51 13.941 28.53 29.375 52.06 29.375h64.58c16.02 0 20.03-1.494 32.04-19.915 12.02-18.422 9.01-42.819-3-62.734Zm-1720.697 0c10.032-16.628 20.024-28.877 48.56-41.324 15.145-6.607 30.096-9.492 48.06-10.954 18.256-1.485 39.977-.996 49.061-.996h97.121c4.005 0 9.011 0 8.51 3.983-.5 3.983 0 15.933-19.524 14.937-19.524-.996-46.057 4.979-57.071 27.882-11.014 22.902-21.527 45.805-29.036 59.746-7.51 13.941-28.536 29.375-52.065 29.375h-64.58c-16.02 0-20.025-1.494-32.04-19.915-12.015-18.422-9.012-42.819 3.004-62.734Z" stroke="#fff"/><path opacity=".2" d="M22.653 56.351c10.032-16.628 20.024-28.877 48.56-41.324 15.145-6.607 30.096-9.492 48.06-10.954 18.256-1.485 39.977-.996 49.061-.996h97.121c4.005 0 9.011 0 8.51 3.983-.5 3.983-.441 10.436-19.965 9.44-19.524-.996-38.697-3.5-61.5 23C175.5 59.256 167 83 150 83c-15.835 0-18.971-5.5-42.5-5.5-23.53 0-36.455 4.787-51 11.5-13 6-24.5 17-32 10.5C7.88 85.096 18.038 64 22.653 56.351Zm1720.697 0c-10.03-16.628-20.03-28.877-48.56-41.324-15.15-6.607-30.1-9.492-48.06-10.954-18.26-1.485-39.98-.996-49.06-.996h-97.12c-4.01 0-9.02 0-8.52 3.983.51 3.983.45 10.436 19.97 9.44 19.52-.996 38.7-3.5 61.5 23 17 19.756 25.5 43.5 42.5 43.5 15.83 0 18.97-5.5 42.5-5.5s36.45 4.787 51 11.5c13 6 24.5 17 32 10.5 16.62-14.404 6.46-35.5 1.85-43.149Z" stroke="#fff" stroke-width=".5"/><path opacity=".2" d="M1743.35 56.351c-10.03-16.628-20.03-28.877-48.56-41.324-15.15-6.607-30.1-9.492-48.06-10.954-15.17-1.234-32.74-1.105-43.45-1.026-2.18.016-4.08.03-5.61.03h-97.12c-4.01 0-9.02 0-8.52 3.983.04.277.07.593.1.94H274.868c.032-.347.062-.663.097-.94.501-3.983-4.505-3.983-8.51-3.983h-97.121c-1.535 0-3.431-.014-5.61-.03-10.716-.079-28.28-.208-43.451 1.026-17.964 1.462-32.915 4.347-48.06 10.954-28.536 12.447-38.528 24.696-48.56 41.324-4.803 7.961-8.166 16.638-9.706 25.364C4.73 103.267 5.14 123.239 7.254 130c2.5 8 10.5 14 10.5 14 7.433 6.123 17.385 6.048 22.834 6.006.416-.003.805-.006 1.166-.006h47.2l5.21.025h.036c7.813.039 18.847.093 24.253.065 21.5-.111 45.762-10.344 56.5-26.59 11.769-17.803 15.311-28.067 18.679-37.825 3.064-8.877 5.983-17.337 14.821-30.675 15.806-23.855 29.721-23.757 108.441-23.206h.035c13.428.095 28.742.202 46.272.206H1401.55c17.53-.004 32.85-.111 46.28-.205h.03c78.72-.552 92.63-.65 108.44 23.205 8.84 13.338 11.76 21.798 14.82 30.675 3.37 9.758 6.91 20.022 18.68 37.825 10.74 16.246 35 26.479 56.5 26.59 5.41.028 16.44-.026 24.25-.065h.04l5.21-.025h47.2l.61.002.56.004c5.45.042 15.4.117 22.83-6.006 0 0 8-6 10.5-14 1.84-5.873 2.39-21.715-3.54-39.902-.44-11.472-4.27-23.234-10.61-33.747Z" stroke="#fff"/><path opacity=".2" d="M1743.43 56.351c-10.03-16.628-20.02-28.877-48.56-41.324-15.15-6.607-30.1-9.492-48.06-10.954-15.17-1.234-32.74-1.105-43.45-1.026-2.18.016-4.08.03-5.61.03h-97.12c-3.99 0-8.96 0-8.52 3.923H274.055c.443-3.923-4.533-3.923-8.518-3.923h-97.121c-1.535 0-3.43-.014-5.609-.03-10.716-.079-28.28-.208-43.452 1.026-17.963 1.462-32.914 4.347-48.06 10.954C42.76 27.474 32.767 39.723 22.735 56.35c-5.394 8.941-8.972 18.785-10.19 28.586C1.809 114.664 2.468 155.724 3.6 226.362l.365 22.728C7.687 249 12 249 17.082 249h72c16.802 0 25.203 0 31.62 3.27a29.997 29.997 0 0 1 13.111 13.11c3.27 6.418 3.27 14.818 3.27 31.62v189.077l.01.002c.112 66.241 1.365 101.711 15.467 129.388 13.383 26.267 34.604 37.074 60.704 50.367l1.352.689C244.991 682 284.755 682 364.282 682H1399.88c79.53 0 119.29 0 149.67-15.477l1.35-.689c26.1-13.293 47.32-24.1 60.71-50.367 14.08-27.65 15.35-63.079 15.46-129.197l.01-.002V297c0-16.802 0-25.202 3.27-31.62a30.04 30.04 0 0 1 13.11-13.11c6.42-3.27 14.82-3.27 31.62-3.27h72c5.55 0 10.18 0 14.12.117l.37-22.755c1.08-67.496 1.73-107.987-7.58-137.389-.64-11.114-4.42-22.452-10.56-32.622Z" stroke="#fff"/><path opacity=".2" d="M273.722 7.078H1492.12c-.5-4 4.5-4 8.5-4h97c1.53 0 3.42-.014 5.6-.03 10.7-.08 28.24-.21 43.4 1.03 17.94 1.468 32.87 4.365 48 11 28.5 12.5 38.48 24.8 48.5 41.5 5.82 9.709 9.53 20.479 10.42 31.108 9.78 29.513 9.12 70.207 8.03 138.752v.001l-2.98 185.618c-1.74 108.387-2.61 162.581-27.51 202.289a168.077 168.077 0 0 1-55.35 54.466c-40.1 24.266-94.3 24.266-202.7 24.266H292.14c-108.401 0-162.602 0-202.704-24.266a168.003 168.003 0 0 1-55.347-54.466C9.184 574.638 8.316 520.444 6.578 412.057L3.6 226.439c-1.134-70.75-1.793-111.828 8.997-141.566 1.264-9.706 4.812-19.442 10.125-28.295 10.02-16.7 20-29 48.5-41.5 15.126-6.635 30.058-9.532 48-11 15.152-1.24 32.694-1.11 43.397-1.03 2.176.016 4.07.03 5.603.03h97c4 0 9 0 8.5 4Zm0 0Z" stroke="#fff" stroke-width="6"/><path opacity=".2" d="M1749.54 112.936c-.02-2.633-.04-5.399-.04-8.436 0-15.52-13.01-23.234-22.04-28.59-1.44-.856-2.79-1.652-3.96-2.41-8.5-5.5-45-26.5-84.5-32.5s-51.44-4.629-59.5.5c-5.5 3.5-7.5 11.166-7.5 13 .05.772.04 1.725 0 2.843 1.95 4.108 3.87 8.184 5.76 12.178 7.5 15.897 14.39 30.482 19.74 40.479 7.5 14 28.5 29.5 52 29.5h64.5c16 0 20-1.5 32-20a46.261 46.261 0 0 0 3.54-6.564Zm-1733.54 0c.021-2.633.035-5.399.035-8.436 0-15.52 13.01-23.234 22.043-28.59 1.444-.856 2.786-1.652 3.957-2.41 8.5-5.5 45-26.5 84.5-32.5s51.441-4.629 59.5.5c5.5 3.5 7.501 11.166 7.501 13-.046.772-.042 1.725.003 2.843-1.95 4.108-3.874 8.184-5.759 12.178-7.504 15.897-14.389 30.482-19.744 40.479-7.5 14-28.501 29.5-52.001 29.5h-64.5c-16 0-20-1.5-32-20A45.933 45.933 0 0 1 16 112.936Z" stroke="#fff"/><rect x="1469" y="431" width="119" height="119" rx="18" stroke="#fff" stroke-width="6"/><path d="M1507.35 468.695v-.369h3.67v.328c0 .957.27 1.691.82 2.201.55.502 1.32.752 2.29.752 1 0 1.77-.332 2.33-.998.56-.674.85-1.686.85-3.035 0-1.34-.29-2.319-.85-2.939-.57-.62-1.31-.93-2.24-.93-.71 0-1.32.141-1.84.424-.52.282-.96.656-1.34 1.121l-3.02-1.08 1.01-10.076h10.96v2.98l-8.06-.027-.5 4.99c.41-.301.91-.551 1.51-.752a6.29 6.29 0 0 1 2.03-.314c1.7 0 3.13.551 4.29 1.654 1.17 1.103 1.75 2.707 1.75 4.813 0 2.151-.61 3.846-1.84 5.085-1.23 1.231-2.89 1.846-5.01 1.846-2.16 0-3.84-.519-5.03-1.558-1.18-1.049-1.78-2.42-1.78-4.116Zm-13.5 5.305v-19.906h3.69v17.008h8.54V474h-12.23Z" fill="#fff"/><rect x="176" y="431" width="119" height="119" rx="18" stroke="#fff" stroke-width="6"/><path d="M261.513 468.695v-.369h3.664v.328c0 .957.274 1.691.821 2.201.556.502 1.321.752 2.296.752.994 0 1.769-.332 2.325-.998.565-.674.847-1.686.847-3.035 0-1.34-.282-2.319-.847-2.939-.565-.62-1.313-.93-2.243-.93-.701 0-1.312.141-1.832.424a4.387 4.387 0 0 0-1.339 1.121l-3.022-1.08 1.012-10.076h10.951v2.98l-8.053-.027-.506 4.99c.411-.301.916-.551 1.518-.752a6.217 6.217 0 0 1 2.023-.314c1.705 0 3.136.551 4.293 1.654 1.167 1.103 1.75 2.707 1.75 4.813 0 2.151-.615 3.846-1.845 5.085-1.222 1.231-2.89 1.846-5.004 1.846-2.16 0-3.837-.519-5.031-1.558-1.185-1.049-1.778-2.42-1.778-4.116ZM245.845 474v-19.906h7.028c2.132 0 3.791.551 4.976 1.654 1.185 1.094 1.777 2.579 1.777 4.457 0 1.896-.601 3.413-1.804 4.553-1.203 1.13-2.862 1.695-4.977 1.695h-3.308V474h-3.692Zm3.692-10.24h3.021c1.249 0 2.124-.324 2.625-.971.501-.647.752-1.481.752-2.502 0-1.021-.251-1.846-.752-2.475-.501-.628-1.376-.943-2.625-.943h-3.021v6.891Zm6.918 10.24-4.512-9.078 3.678-.451 4.935 9.529h-4.101Z" fill="#fff"/><rect x="1469" y="296" width="119" height="119" rx="18" stroke="#fff" stroke-width="6"/><path d="M1515.6 343v-5.318l.04-.534v-8.955h-.14l-4.88 7.602h6.06l.79-.041h4.02v2.871h-14.55v-2.488l8.85-13.043h3.33V343h-3.52Zm-21.75 0v-19.906h3.69v17.008h8.54V343h-12.23Z" fill="#fff"/><rect x="176" y="296" width="119" height="119" rx="18" stroke="#fff" stroke-width="6"/><path d="M269.757 343v-5.318l.041-.534v-8.955h-.136l-4.881 7.602h6.056l.793-.041h4.02v2.871h-14.547v-2.488l8.846-13.043h3.336V343h-3.528Zm-23.912 0v-19.906h7.028c2.132 0 3.791.551 4.976 1.654 1.185 1.094 1.777 2.579 1.777 4.457 0 1.896-.601 3.413-1.804 4.553-1.203 1.13-2.862 1.695-4.977 1.695h-3.308V343h-3.692Zm3.692-10.24h3.021c1.249 0 2.124-.324 2.625-.971.501-.647.752-1.481.752-2.502 0-1.021-.251-1.846-.752-2.475-.501-.628-1.376-.943-2.625-.943h-3.021v6.891Zm6.918 10.24-4.512-9.078 3.678-.451 4.935 9.529h-4.101Z" fill="#fff"/></svg>