<svg width="1766" height="698" fill="none" xmlns="http://www.w3.org/2000/svg"><path opacity=".2" d="M20.165 69.837C1.57 100.901 2.247 143.075 3.6 227.424l2.977 185.618C8.315 521.429 9.184 575.622 34.09 615.33a167.993 167.993 0 0 0 55.346 54.466c40.102 24.266 94.303 24.266 202.704 24.266h1180.89c108.4 0 162.6 0 202.7-24.266a168.068 168.068 0 0 0 55.35-54.466c24.9-39.708 25.77-93.901 27.51-202.288l2.98-185.618c1.35-84.349 2.02-126.523-16.57-157.587a126.97 126.97 0 0 0-42.01-42.686c-30.76-19.088-72.94-19.088-157.3-19.088H219.472c-84.359 0-126.54 0-157.3 19.088a127 127 0 0 0-42.007 42.686Z" stroke="#fff" stroke-width="6"/><rect x="166.083" y="251.062" width="187" height="186" rx="24" stroke="#fff" stroke-width="6"/><rect x="1411.08" y="251.062" width="187" height="186" rx="24" stroke="#fff" stroke-width="6"/><path opacity=".2" d="M181.083 50.563c0-6.352 5.148-11.5 11.5-11.5h28c6.351 0 11.5 5.148 11.5 11.5 0 6.35-5.149 11.5-11.5 11.5h-28c-6.352 0-11.5-5.15-11.5-11.5Zm1350.997 0c0-6.352 5.15-11.5 11.5-11.5h28c6.35 0 11.5 5.148 11.5 11.5 0 6.35-5.15 11.5-11.5 11.5h-28c-6.35 0-11.5-5.15-11.5-11.5Z" stroke="#fff" stroke-width="3"/><path opacity=".2" d="M1411.08 492.562c0-10.217 8.29-18.5 18.5-18.5h56c10.22 0 18.5 8.283 18.5 18.5 0 10.218-8.28 18.5-18.5 18.5h-56c-10.21 0-18.5-8.282-18.5-18.5Zm-1150.997 0c0-10.217 8.282-18.5 18.5-18.5h56c10.217 0 18.5 8.283 18.5 18.5 0 10.218-8.283 18.5-18.5 18.5h-56c-10.218 0-18.5-8.282-18.5-18.5Zm-1 57a3.5 3.5 0 0 1 3.5-3.5h14a3.5 3.5 0 1 1 0 7h-14a3.5 3.5 0 0 1-3.5-3.5Zm12 18a3.5 3.5 0 0 1 3.5-3.5h14a3.5 3.5 0 1 1 0 7h-14a3.5 3.5 0 0 1-3.5-3.5Zm14-18a3.5 3.5 0 0 1 3.5-3.5h14a3.5 3.5 0 1 1 0 7h-14a3.5 3.5 0 0 1-3.5-3.5Zm0 36a3.5 3.5 0 0 1 3.5-3.5h14a3.5 3.5 0 1 1 0 7h-14a3.5 3.5 0 0 1-3.5-3.5Zm26-36a3.5 3.5 0 0 1 3.5-3.5h14a3.5 3.5 0 1 1 0 7h-14a3.5 3.5 0 0 1-3.5-3.5Zm-14 18a3.5 3.5 0 0 1 3.5-3.5h14a3.5 3.5 0 1 1 0 7h-14a3.5 3.5 0 0 1-3.5-3.5Zm40-18a3.5 3.5 0 0 1 3.5-3.5h14a3.5 3.5 0 1 1 0 7h-14a3.5 3.5 0 0 1-3.5-3.5Zm-26 36a3.5 3.5 0 0 1 3.5-3.5h14a3.5 3.5 0 1 1 0 7h-14a3.5 3.5 0 0 1-3.5-3.5Zm12-18a3.5 3.5 0 0 1 3.5-3.5h28a3.5 3.5 0 1 1 0 7h-28a3.5 3.5 0 0 1-3.5-3.5Zm14 18a3.5 3.5 0 0 1 3.5-3.5h14a3.5 3.5 0 1 1 0 7h-14a3.5 3.5 0 0 1-3.5-3.5Zm1169.997-36c0-1.932-1.56-3.5-3.5-3.5h-14c-1.93 0-3.5 1.568-3.5 3.5 0 1.933 1.57 3.5 3.5 3.5h14c1.94 0 3.5-1.567 3.5-3.5Zm-12 18c0-1.932-1.56-3.5-3.5-3.5h-14c-1.93 0-3.5 1.568-3.5 3.5 0 1.933 1.57 3.5 3.5 3.5h14c1.94 0 3.5-1.567 3.5-3.5Zm-14-18c0-1.932-1.56-3.5-3.5-3.5h-14c-1.93 0-3.5 1.568-3.5 3.5 0 1.933 1.57 3.5 3.5 3.5h14c1.94 0 3.5-1.567 3.5-3.5Zm0 36c0-1.932-1.56-3.5-3.5-3.5h-14c-1.93 0-3.5 1.568-3.5 3.5 0 1.933 1.57 3.5 3.5 3.5h14c1.94 0 3.5-1.567 3.5-3.5Zm-26-36c0-1.932-1.56-3.5-3.5-3.5h-14c-1.93 0-3.5 1.568-3.5 3.5 0 1.933 1.57 3.5 3.5 3.5h14c1.94 0 3.5-1.567 3.5-3.5Zm14 18c0-1.932-1.56-3.5-3.5-3.5h-14c-1.93 0-3.5 1.568-3.5 3.5 0 1.933 1.57 3.5 3.5 3.5h14c1.94 0 3.5-1.567 3.5-3.5Zm-40-18c0-1.932-1.56-3.5-3.5-3.5h-14c-1.93 0-3.5 1.568-3.5 3.5 0 1.933 1.57 3.5 3.5 3.5h14c1.94 0 3.5-1.567 3.5-3.5Zm26 36c0-1.932-1.56-3.5-3.5-3.5h-14c-1.93 0-3.5 1.568-3.5 3.5 0 1.933 1.57 3.5 3.5 3.5h14c1.94 0 3.5-1.567 3.5-3.5Zm-12-18c0-1.932-1.56-3.5-3.5-3.5h-28c-1.93 0-3.5 1.568-3.5 3.5 0 1.933 1.57 3.5 3.5 3.5h28c1.94 0 3.5-1.567 3.5-3.5Zm-14 18c0-1.932-1.56-3.5-3.5-3.5h-14c-1.93 0-3.5 1.568-3.5 3.5 0 1.933 1.57 3.5 3.5 3.5h14c1.94 0 3.5-1.567 3.5-3.5Z" stroke="#fff"/><g opacity=".2" stroke="#fff"><circle opacity=".3" cx="1483.08" cy="149.062" r="82"/><circle cx="1483.08" cy="149.062" r="59" stroke-width="3"/><circle cx="1484.08" cy="149.062" r="41"/></g><g opacity=".2" stroke="#fff"><circle cx="278.083" cy="149.062" r="41"/><circle cx="277.083" cy="149.062" r="59" stroke-width="3"/><circle opacity=".3" cx="277.083" cy="149.062" r="82"/></g><path opacity=".2" d="M48.686 101.79c.48-1.642 2.014-2.728 3.725-2.728h24.871c4.48 0 6.721 0 8.432-.871a8 8 0 0 0 3.497-3.497c.871-1.71.871-3.951.871-8.431V61.39c0-1.711 1.086-3.245 2.728-3.725a65.027 65.027 0 0 1 18.273-2.603c6.344 0 12.475.908 18.272 2.603 1.642.48 2.728 2.014 2.728 3.725v24.872c0 4.48 0 6.72.871 8.431a7.999 7.999 0 0 0 3.497 3.497c1.711.871 3.951.871 8.432.871h24.871c1.711 0 3.245 1.086 3.725 2.728a65.012 65.012 0 0 1 2.604 18.272c0 6.345-.909 12.476-2.604 18.273-.48 1.642-2.014 2.727-3.725 2.727h-24.871c-4.481 0-6.721 0-8.432.872a7.997 7.997 0 0 0-3.497 3.497c-.871 1.711-.871 3.951-.871 8.432v24.871c0 1.711-1.086 3.245-2.728 3.725a65.011 65.011 0 0 1-18.272 2.603 65.012 65.012 0 0 1-18.273-2.603c-1.642-.48-2.728-2.014-2.728-3.725v-24.871c0-4.481 0-6.721-.871-8.432a7.999 7.999 0 0 0-3.497-3.497c-1.71-.872-3.951-.872-8.431-.872H52.41c-1.711 0-3.245-1.085-3.725-2.727a65.028 65.028 0 0 1-2.603-18.273c0-6.344.908-12.475 2.603-18.272Z" stroke="#fff" stroke-width="3"/><g opacity=".2"><circle cx="1656.08" cy="69.063" r="26" stroke="#fff" stroke-width="3"/><circle cx="1604.08" cy="121.062" r="26" stroke="#fff" stroke-width="3"/><circle cx="1707.08" cy="121.062" r="26" stroke="#fff" stroke-width="3"/><circle cx="1656.08" cy="172.062" r="26" stroke="#fff" stroke-width="3"/><path d="M1654.56 79.063V71.68l-6.66-12.524h4.08l3.91 7.588c.13.255.24.497.34.725.1.219.2.446.29.683h.08c.09-.237.19-.465.29-.683.1-.228.21-.47.34-.725l3.95-7.588h3.66l-6.57 12.414v7.493h-3.71Zm-7.79 102.999 7.12-19.974h3.91l7.15 19.974h-3.84l-4.91-14.423c-.11-.328-.2-.634-.27-.916-.08-.283-.14-.561-.21-.834h-.09c-.06.273-.12.551-.19.834-.08.282-.17.588-.28.916l-4.87 14.423h-3.52Zm3.7-4.621.81-2.707h8.97l.8 2.707h-10.58Zm-54.52-46.379 6.93-11.292h.6l4.98-8.614h3.67l-6.51 10.856h-.57l-5.36 9.05h-3.74Zm.32-19.906 4.17.014 5.06 8.586h.06l6.97 11.306h-4.2l-5.38-9.009h-.05l-6.63-10.897Zm104.66 19.906v-19.906h7.13c2.06 0 3.64.429 4.76 1.285 1.12.848 1.68 2.147 1.68 3.897 0 1.112-.25 2.028-.76 2.748-.5.72-1.14 1.212-1.9 1.476v.055c.95.265 1.73.798 2.34 1.6.61.802.91 1.864.91 3.185 0 1.796-.6 3.19-1.82 4.184-1.2.984-2.81 1.476-4.82 1.476h-7.52Zm3.63-2.666h3.57c1.12 0 1.95-.287 2.48-.861.53-.574.79-1.353.79-2.338 0-.975-.26-1.754-.79-2.338-.53-.583-1.36-.875-2.48-.875h-3.57v6.412Zm0-8.845h3.2c1.12 0 1.92-.251 2.41-.752.49-.511.74-1.222.74-2.133 0-.902-.25-1.595-.74-2.078-.49-.483-1.29-.725-2.41-.725h-3.2v5.688Z" fill="#fff"/></g><path opacity=".2" stroke="#fff" d="M439.083 76.063h888v556h-888z"/><rect opacity=".2" x="373.083" y="39.063" width="1016" height="629" rx="6" stroke="#fff" stroke-width="3"/><path opacity=".2" d="M6.343 240.981c-.483-37.402-.844-65.423.694-87.67 1.538-22.241 4.973-38.668 12.058-52.888a131.5 131.5 0 0 1 57.549-58.296c14.127-7.267 30.508-10.914 52.727-12.739 22.226-1.825 50.249-1.826 87.654-1.826H1548.14c37.4 0 65.43 0 87.65 1.826 22.22 1.825 38.6 5.472 52.73 12.74a131.523 131.523 0 0 1 57.55 58.295c7.08 14.22 10.52 30.647 12.06 52.888 1.54 22.247 1.17 50.268.69 87.67l-.12 9.581h-59.64c-8.38 0-14.7 0-19.72.411-5.04.411-8.81 1.237-12.1 2.914a30.475 30.475 0 0 0-13.33 13.329c-1.68 3.291-2.51 7.068-2.92 12.102-.41 5.023-.41 11.341-.41 19.722v94.022c0 5.096 0 11.427.09 15.167 0 18.06-10.4 42.079-26.11 68.733-15.7 26.632-36.63 55.802-57.58 84.136-4.9 6.632-9.81 13.22-14.65 19.718-15.82 21.25-30.93 41.545-42.97 59.352-7.86 11.626-14.42 22.207-19.02 31.311-4.45 8.829-7.1 16.333-7.24 22.083H280.069c-.144-5.869-2.788-13.451-7.248-22.329-4.596-9.148-11.156-19.738-19.016-31.352-12.067-17.83-27.222-38.109-43.087-59.336a7192.93 7192.93 0 0 1-14.53-19.489c-20.947-28.229-41.879-57.304-57.575-83.95-15.708-26.669-26.112-50.812-26.114-69.205.083-3.663.083-9.886.083-14.833v-94.029c0-8.381 0-14.698-.41-19.721-.411-5.034-1.237-8.811-2.914-12.102a30.498 30.498 0 0 0-13.329-13.329c-3.29-1.677-7.069-2.503-12.102-2.914-5.023-.411-11.34-.411-19.721-.411H6.466l-.123-9.581Z" stroke="#fff"/><path opacity=".2" d="M132.583 1.063c-32.5 0-65.5 9-81 33.5 24-24.5 86.5-27 110-27s123.5 3.5 121.5 0-10.5-6.5-19.5-6.5h-131Zm1497.027 0c32.5 0 65.5 9 81 33.5-24-24.5-86.5-27-110-27s-123.5 3.5-121.5 0 10.5-6.5 19.5-6.5h131Z" stroke="#fff" stroke-width="2"/></svg>