<svg width="1766" height="698" viewBox="0 0 1766 698" fill="none" xmlns="http://www.w3.org/2000/svg">
<path opacity="0.2" d="M20.1645 69.8373C1.5714 100.901 2.24767 143.075 3.60021 227.424L6.57658 413.042C8.31457 521.429 9.18356 575.622 34.0895 615.33C48.0318 637.559 66.9869 656.212 89.4359 669.796C129.538 694.062 183.739 694.062 292.14 694.062H1473.03C1581.43 694.062 1635.63 694.062 1675.73 669.796C1698.18 656.212 1717.13 637.559 1731.08 615.33C1755.98 575.622 1756.85 521.429 1758.59 413.042L1761.57 227.424C1762.92 143.075 1763.59 100.901 1745 69.8373C1734.6 52.4634 1720.2 37.8278 1702.99 27.1513C1672.23 8.0625 1630.05 8.0625 1545.69 8.0625H219.472C135.113 8.0625 92.9328 8.0625 62.1716 27.1513C44.9666 37.8278 30.5638 52.4634 20.1645 69.8373Z" stroke="white" stroke-width="6"/>
<rect x="166.082" y="251.062" width="187" height="186" rx="24" stroke="white" stroke-width="6"/>
<rect x="1411.08" y="251.062" width="187" height="186" rx="24" stroke="white" stroke-width="6"/>
<path opacity="0.2" d="M181.082 50.5625C181.082 44.2112 186.231 39.0625 192.582 39.0625H220.582C226.933 39.0625 232.082 44.2112 232.082 50.5625V50.5625C232.082 56.9138 226.933 62.0625 220.582 62.0625H192.582C186.231 62.0625 181.082 56.9138 181.082 50.5625V50.5625Z" stroke="white" stroke-width="3"/>
<path opacity="0.2" d="M1532.08 50.5625C1532.08 44.2112 1537.23 39.0625 1543.58 39.0625H1571.58C1577.93 39.0625 1583.08 44.2112 1583.08 50.5625V50.5625C1583.08 56.9138 1577.93 62.0625 1571.58 62.0625H1543.58C1537.23 62.0625 1532.08 56.9138 1532.08 50.5625V50.5625Z" stroke="white" stroke-width="3"/>
<path opacity="0.2" d="M1411.08 492.562C1411.08 482.345 1419.36 474.062 1429.58 474.062H1485.58C1495.8 474.062 1504.08 482.345 1504.08 492.562V492.562C1504.08 502.78 1495.8 511.062 1485.58 511.062H1429.58C1419.36 511.062 1411.08 502.78 1411.08 492.562V492.562Z" stroke="white"/>
<path opacity="0.2" d="M260.082 492.562C260.082 482.345 268.365 474.062 278.582 474.062H334.582C344.799 474.062 353.082 482.345 353.082 492.562V492.562C353.082 502.78 344.799 511.062 334.582 511.062H278.582C268.365 511.062 260.082 502.78 260.082 492.562V492.562Z" stroke="white"/>
<g opacity="0.2">
<path fill-rule="evenodd" clip-rule="evenodd" d="M262.582 545.562C260.373 545.562 258.582 547.353 258.582 549.562C258.582 551.772 260.373 553.562 262.582 553.562H276.582C278.791 553.562 280.582 551.772 280.582 549.562C280.582 547.353 278.791 545.562 276.582 545.562H262.582ZM259.582 549.562C259.582 547.906 260.925 546.562 262.582 546.562H276.582C278.239 546.562 279.582 547.906 279.582 549.562C279.582 551.219 278.239 552.562 276.582 552.562H262.582C260.925 552.562 259.582 551.219 259.582 549.562Z" fill="white"/>
<path fill-rule="evenodd" clip-rule="evenodd" d="M274.582 563.562C272.373 563.562 270.582 565.353 270.582 567.562C270.582 569.772 272.373 571.562 274.582 571.562H288.582C290.791 571.562 292.582 569.772 292.582 567.562C292.582 565.353 290.791 563.562 288.582 563.562H274.582ZM271.582 567.562C271.582 565.906 272.925 564.562 274.582 564.562H288.582C290.239 564.562 291.582 565.906 291.582 567.562C291.582 569.219 290.239 570.562 288.582 570.562H274.582C272.925 570.562 271.582 569.219 271.582 567.562Z" fill="white"/>
<path fill-rule="evenodd" clip-rule="evenodd" d="M284.582 549.562C284.582 547.353 286.373 545.562 288.582 545.562H302.582C304.791 545.562 306.582 547.353 306.582 549.562C306.582 551.772 304.791 553.562 302.582 553.562H288.582C286.373 553.562 284.582 551.772 284.582 549.562ZM288.582 546.562C286.925 546.562 285.582 547.906 285.582 549.562C285.582 551.219 286.925 552.562 288.582 552.562H302.582C304.239 552.562 305.582 551.219 305.582 549.562C305.582 547.906 304.239 546.562 302.582 546.562H288.582Z" fill="white"/>
<path fill-rule="evenodd" clip-rule="evenodd" d="M288.582 581.562C286.373 581.562 284.582 583.353 284.582 585.562C284.582 587.772 286.373 589.562 288.582 589.562H302.582C304.791 589.562 306.582 587.772 306.582 585.562C306.582 583.353 304.791 581.562 302.582 581.562H288.582ZM285.582 585.562C285.582 583.906 286.925 582.562 288.582 582.562H302.582C304.239 582.562 305.582 583.906 305.582 585.562C305.582 587.219 304.239 588.562 302.582 588.562H288.582C286.925 588.562 285.582 587.219 285.582 585.562Z" fill="white"/>
<path fill-rule="evenodd" clip-rule="evenodd" d="M310.582 549.562C310.582 547.353 312.373 545.562 314.582 545.562H328.582C330.791 545.562 332.582 547.353 332.582 549.562C332.582 551.772 330.791 553.562 328.582 553.562H314.582C312.373 553.562 310.582 551.772 310.582 549.562ZM314.582 546.562C312.925 546.562 311.582 547.906 311.582 549.562C311.582 551.219 312.925 552.562 314.582 552.562H328.582C330.239 552.562 331.582 551.219 331.582 549.562C331.582 547.906 330.239 546.562 328.582 546.562H314.582Z" fill="white"/>
<path fill-rule="evenodd" clip-rule="evenodd" d="M300.582 563.562C298.373 563.562 296.582 565.353 296.582 567.562C296.582 569.772 298.373 571.562 300.582 571.562H314.582C316.791 571.562 318.582 569.772 318.582 567.562C318.582 565.353 316.791 563.562 314.582 563.562H300.582ZM297.582 567.562C297.582 565.906 298.925 564.562 300.582 564.562H314.582C316.239 564.562 317.582 565.906 317.582 567.562C317.582 569.219 316.239 570.562 314.582 570.562H300.582C298.925 570.562 297.582 569.219 297.582 567.562Z" fill="white"/>
<path fill-rule="evenodd" clip-rule="evenodd" d="M336.582 549.562C336.582 547.353 338.373 545.562 340.582 545.562H354.582C356.791 545.562 358.582 547.353 358.582 549.562C358.582 551.772 356.791 553.562 354.582 553.562H340.582C338.373 553.562 336.582 551.772 336.582 549.562ZM340.582 546.562C338.925 546.562 337.582 547.906 337.582 549.562C337.582 551.219 338.925 552.562 340.582 552.562H354.582C356.239 552.562 357.582 551.219 357.582 549.562C357.582 547.906 356.239 546.562 354.582 546.562H340.582Z" fill="white"/>
<path fill-rule="evenodd" clip-rule="evenodd" d="M314.582 581.562C312.373 581.562 310.582 583.353 310.582 585.562C310.582 587.772 312.373 589.562 314.582 589.562H328.582C330.791 589.562 332.582 587.772 332.582 585.562C332.582 583.353 330.791 581.562 328.582 581.562H314.582ZM311.582 585.562C311.582 583.906 312.925 582.562 314.582 582.562H328.582C330.239 582.562 331.582 583.906 331.582 585.562C331.582 587.219 330.239 588.562 328.582 588.562H314.582C312.925 588.562 311.582 587.219 311.582 585.562Z" fill="white"/>
<path fill-rule="evenodd" clip-rule="evenodd" d="M322.582 567.562C322.582 565.353 324.373 563.562 326.582 563.562H354.582C356.791 563.562 358.582 565.353 358.582 567.562C358.582 569.772 356.791 571.562 354.582 571.562H326.582C324.373 571.562 322.582 569.772 322.582 567.562ZM326.582 564.562C324.925 564.562 323.582 565.906 323.582 567.562C323.582 569.219 324.925 570.562 326.582 570.562H354.582C356.239 570.562 357.582 569.219 357.582 567.562C357.582 565.906 356.239 564.562 354.582 564.562H326.582Z" fill="white"/>
<path fill-rule="evenodd" clip-rule="evenodd" d="M340.582 581.562C338.373 581.562 336.582 583.353 336.582 585.562C336.582 587.772 338.373 589.562 340.582 589.562H354.582C356.791 589.562 358.582 587.772 358.582 585.562C358.582 583.353 356.791 581.562 354.582 581.562H340.582ZM337.582 585.562C337.582 583.906 338.925 582.562 340.582 582.562H354.582C356.239 582.562 357.582 583.906 357.582 585.562C357.582 587.219 356.239 588.562 354.582 588.562H340.582C338.925 588.562 337.582 587.219 337.582 585.562Z" fill="white"/>
</g>
<g opacity="0.2">
<path d="M1507.08 549.562C1507.08 547.63 1505.52 546.062 1503.58 546.062H1489.58C1487.65 546.062 1486.08 547.63 1486.08 549.562V549.562C1486.08 551.495 1487.65 553.062 1489.58 553.062H1503.58C1505.52 553.062 1507.08 551.495 1507.08 549.562V549.562Z" stroke="white"/>
<path d="M1495.08 567.562C1495.08 565.63 1493.52 564.062 1491.58 564.062H1477.58C1475.65 564.062 1474.08 565.63 1474.08 567.562V567.562C1474.08 569.495 1475.65 571.062 1477.58 571.062H1491.58C1493.52 571.062 1495.08 569.495 1495.08 567.562V567.562Z" stroke="white"/>
<path d="M1481.08 549.562C1481.08 547.63 1479.52 546.062 1477.58 546.062H1463.58C1461.65 546.062 1460.08 547.63 1460.08 549.562V549.562C1460.08 551.495 1461.65 553.062 1463.58 553.062H1477.58C1479.52 553.062 1481.08 551.495 1481.08 549.562V549.562Z" stroke="white"/>
<path d="M1481.08 585.562C1481.08 583.63 1479.52 582.062 1477.58 582.062H1463.58C1461.65 582.062 1460.08 583.63 1460.08 585.562V585.562C1460.08 587.495 1461.65 589.062 1463.58 589.062H1477.58C1479.52 589.062 1481.08 587.495 1481.08 585.562V585.562Z" stroke="white"/>
<path d="M1455.08 549.562C1455.08 547.63 1453.52 546.062 1451.58 546.062H1437.58C1435.65 546.062 1434.08 547.63 1434.08 549.562V549.562C1434.08 551.495 1435.65 553.062 1437.58 553.062H1451.58C1453.52 553.062 1455.08 551.495 1455.08 549.562V549.562Z" stroke="white"/>
<path d="M1469.08 567.562C1469.08 565.63 1467.52 564.062 1465.58 564.062H1451.58C1449.65 564.062 1448.08 565.63 1448.08 567.562V567.562C1448.08 569.495 1449.65 571.062 1451.58 571.062H1465.58C1467.52 571.062 1469.08 569.495 1469.08 567.562V567.562Z" stroke="white"/>
<path d="M1429.08 549.562C1429.08 547.63 1427.52 546.062 1425.58 546.062H1411.58C1409.65 546.062 1408.08 547.63 1408.08 549.562V549.562C1408.08 551.495 1409.65 553.062 1411.58 553.062H1425.58C1427.52 553.062 1429.08 551.495 1429.08 549.562V549.562Z" stroke="white"/>
<path d="M1455.08 585.562C1455.08 583.63 1453.52 582.062 1451.58 582.062H1437.58C1435.65 582.062 1434.08 583.63 1434.08 585.562V585.562C1434.08 587.495 1435.65 589.062 1437.58 589.062H1451.58C1453.52 589.062 1455.08 587.495 1455.08 585.562V585.562Z" stroke="white"/>
<path d="M1443.08 567.562C1443.08 565.63 1441.52 564.062 1439.58 564.062H1411.58C1409.65 564.062 1408.08 565.63 1408.08 567.562V567.562C1408.08 569.495 1409.65 571.062 1411.58 571.062H1439.58C1441.52 571.062 1443.08 569.495 1443.08 567.562V567.562Z" stroke="white"/>
<path d="M1429.08 585.562C1429.08 583.63 1427.52 582.062 1425.58 582.062H1411.58C1409.65 582.062 1408.08 583.63 1408.08 585.562V585.562C1408.08 587.495 1409.65 589.062 1411.58 589.062H1425.58C1427.52 589.062 1429.08 587.495 1429.08 585.562V585.562Z" stroke="white"/>
</g>
<g opacity="0.2">
<circle opacity="0.3" cx="1483.08" cy="149.062" r="82" stroke="white"/>
<circle cx="1483.08" cy="149.062" r="59" stroke="white" stroke-width="3"/>
<circle cx="1484.08" cy="149.062" r="41" stroke="white"/>
</g>
<g opacity="0.2">
<circle cx="278.082" cy="149.062" r="41" stroke="white"/>
<circle cx="277.082" cy="149.062" r="59" stroke="white" stroke-width="3"/>
<circle opacity="0.3" cx="277.082" cy="149.062" r="82" stroke="white"/>
</g>
<path opacity="0.2" d="M48.6855 101.79C49.1657 100.148 50.6994 99.0625 52.4108 99.0625H77.282C81.7625 99.0625 84.0027 99.0625 85.714 98.1906C87.2193 97.4236 88.4431 96.1997 89.2101 94.6944C90.082 92.9831 90.082 90.7429 90.082 86.2625V61.3912C90.082 59.6799 91.1673 58.1462 92.8099 57.6659C98.6063 55.9713 104.738 55.0625 111.082 55.0625C117.426 55.0625 123.558 55.9713 129.354 57.6659C130.997 58.1462 132.082 59.6799 132.082 61.3912V86.2625C132.082 90.7429 132.082 92.9831 132.954 94.6944C133.721 96.1997 134.945 97.4236 136.45 98.1906C138.161 99.0625 140.402 99.0625 144.882 99.0625H169.753C171.465 99.0625 172.998 100.148 173.479 101.79C175.173 107.587 176.082 113.718 176.082 120.062C176.082 126.407 175.173 132.538 173.479 138.335C172.998 139.977 171.465 141.062 169.753 141.062H144.882C140.402 141.062 138.161 141.062 136.45 141.934C134.945 142.701 133.721 143.925 132.954 145.431C132.082 147.142 132.082 149.382 132.082 153.863V178.734C132.082 180.445 130.997 181.979 129.354 182.459C123.558 184.154 117.426 185.062 111.082 185.062C104.738 185.062 98.6063 184.154 92.8099 182.459C91.1673 181.979 90.082 180.445 90.082 178.734V153.863C90.082 149.382 90.082 147.142 89.2101 145.431C88.4431 143.925 87.2193 142.701 85.714 141.934C84.0027 141.062 81.7625 141.062 77.282 141.062H52.4108C50.6994 141.062 49.1657 139.977 48.6855 138.335C46.9909 132.538 46.082 126.407 46.082 120.062C46.082 113.718 46.9909 107.587 48.6855 101.79Z" stroke="white" stroke-width="3"/>
<g opacity="0.2">
<circle cx="1656.08" cy="69.0625" r="26" stroke="white" stroke-width="3"/>
<circle cx="1604.08" cy="121.062" r="26" stroke="white" stroke-width="3"/>
<circle cx="1707.08" cy="121.062" r="26" stroke="white" stroke-width="3"/>
<circle cx="1656.08" cy="172.062" r="26" stroke="white" stroke-width="3"/>
<path d="M1654.56 79.0625V71.6797L1647.9 59.1562H1651.98L1655.89 66.7441C1656.02 66.9993 1656.13 67.2409 1656.23 67.4688C1656.33 67.6875 1656.43 67.9154 1656.52 68.1523H1656.6C1656.69 67.9154 1656.79 67.6875 1656.89 67.4688C1656.99 67.2409 1657.1 66.9993 1657.23 66.7441L1661.18 59.1562H1664.84L1658.27 71.5703V79.0625H1654.56Z" fill="white"/>
<path d="M1646.77 182.062L1653.89 162.088H1657.8L1664.95 182.062H1661.11L1656.2 167.639C1656.09 167.311 1656 167.005 1655.93 166.723C1655.85 166.44 1655.79 166.162 1655.72 165.889H1655.63C1655.57 166.162 1655.51 166.44 1655.44 166.723C1655.36 167.005 1655.27 167.311 1655.16 167.639L1650.29 182.062H1646.77ZM1650.47 177.441L1651.28 174.734H1660.25L1661.05 177.441H1650.47Z" fill="white"/>
<path d="M1595.95 131.062L1602.88 119.77H1603.48L1608.46 111.156H1612.13L1605.62 122.012H1605.05L1599.69 131.062H1595.95ZM1596.27 111.156L1600.44 111.17L1605.5 119.756H1605.56L1612.53 131.062H1608.33L1602.95 122.053H1602.9L1596.27 111.156Z" fill="white"/>
<path d="M1700.93 131.062V111.156H1708.06C1710.12 111.156 1711.7 111.585 1712.82 112.441C1713.94 113.289 1714.5 114.588 1714.5 116.338C1714.5 117.45 1714.25 118.366 1713.74 119.086C1713.24 119.806 1712.6 120.298 1711.84 120.562V120.617C1712.79 120.882 1713.57 121.415 1714.18 122.217C1714.79 123.019 1715.09 124.081 1715.09 125.402C1715.09 127.198 1714.49 128.592 1713.27 129.586C1712.07 130.57 1710.46 131.062 1708.45 131.062H1700.93ZM1704.56 128.396H1708.13C1709.25 128.396 1710.08 128.109 1710.61 127.535C1711.14 126.961 1711.4 126.182 1711.4 125.197C1711.4 124.222 1711.14 123.443 1710.61 122.859C1710.08 122.276 1709.25 121.984 1708.13 121.984H1704.56V128.396ZM1704.56 119.551H1707.76C1708.88 119.551 1709.68 119.3 1710.17 118.799C1710.66 118.288 1710.91 117.577 1710.91 116.666C1710.91 115.764 1710.66 115.071 1710.17 114.588C1709.68 114.105 1708.88 113.863 1707.76 113.863H1704.56V119.551Z" fill="white"/>
</g>
<rect opacity="0.2" x="439.082" y="76.0625" width="888" height="556" stroke="white"/>
<rect opacity="0.2" x="373.082" y="39.0625" width="1016" height="629" rx="6" stroke="white" stroke-width="3"/>
<path opacity="0.2" d="M6.34163 240.981C5.85903 203.579 5.49786 175.558 7.03638 153.311C8.57449 131.07 12.0093 114.643 19.0938 100.423C31.5806 75.3596 51.7422 54.9362 76.6427 42.1271C90.7702 34.8598 107.151 31.2133 129.37 29.3883C151.596 27.5629 179.619 27.5625 217.024 27.5625H1548.14C1585.54 27.5625 1613.57 27.5629 1635.79 29.3883C1658.01 31.2133 1674.39 34.8598 1688.52 42.1271C1713.42 54.9362 1733.58 75.3596 1746.07 100.423C1753.15 114.643 1756.59 131.07 1758.13 153.311C1759.66 175.558 1759.3 203.579 1758.82 240.981L1758.7 250.562H1699.08H1699.06C1690.68 250.562 1684.36 250.562 1679.34 250.973C1674.3 251.384 1670.53 252.21 1667.23 253.887C1661.5 256.811 1656.83 261.477 1653.91 267.216C1652.23 270.507 1651.4 274.284 1650.99 279.318C1650.58 284.341 1650.58 290.659 1650.58 299.04V299.062V393.062C1650.58 398.158 1650.58 404.489 1650.67 408.229C1650.67 426.289 1640.27 450.308 1624.56 476.962C1608.86 503.594 1587.93 532.764 1566.98 561.098C1562.08 567.73 1557.17 574.318 1552.33 580.816C1536.51 602.066 1521.4 622.361 1509.36 640.168C1501.5 651.794 1494.94 662.375 1490.34 671.479C1485.89 680.308 1483.24 687.812 1483.1 693.562H280.068C279.924 687.693 277.28 680.111 272.82 671.233C268.224 662.085 261.664 651.495 253.804 639.881C241.737 622.051 226.582 601.772 210.717 580.545C205.917 574.122 201.052 567.612 196.187 561.056C175.24 532.827 154.308 503.752 138.612 477.106C122.904 450.437 112.5 426.294 112.498 407.901C112.581 404.238 112.581 398.015 112.581 393.068V393.062V299.062V299.039C112.581 290.658 112.581 284.341 112.171 279.318C111.76 274.284 110.934 270.507 109.257 267.216C106.333 261.477 101.667 256.811 95.9281 253.887C92.6372 252.21 88.8595 251.384 83.826 250.973C78.803 250.562 72.4856 250.562 64.1047 250.562H64.0813H6.46526L6.34163 240.981Z" stroke="white"/>
<path opacity="0.2" d="M132.582 1.0625C100.082 1.0625 67.082 10.0625 51.582 34.5625C75.582 10.0625 138.082 7.5625 161.582 7.5625C185.082 7.5625 285.082 11.0625 283.082 7.5625C281.082 4.0625 272.582 1.0625 263.582 1.0625H132.582Z" stroke="white" stroke-width="2"/>
<path opacity="0.2" d="M1629.61 1.0625C1662.11 1.0625 1695.11 10.0625 1710.61 34.5625C1686.61 10.0625 1624.11 7.5625 1600.61 7.5625C1577.11 7.5625 1477.11 11.0625 1479.11 7.5625C1481.11 4.0625 1489.61 1.0625 1498.61 1.0625H1629.61Z" stroke="white" stroke-width="2"/>
<g opacity="0.2">
<rect x="204.472" y="49.8597" width="11.037" height="7.42558" stroke="white" stroke-width="1.58365"/>
<path fill-rule="evenodd" clip-rule="evenodd" d="M199.584 45.5837H209.037V47.9415H210.621V45.5837V44H209.037H199.584H198V45.5837V51.4256V53.0092H199.584H202.417V51.4256H199.584V45.5837Z" fill="white"/>
</g>
<g opacity="0.2">
<path fill-rule="evenodd" clip-rule="evenodd" d="M1550 45H1565V46.7143H1550V45ZM1550 50.1429H1565V51.8571H1550V50.1429ZM1565 55.2857H1550V57H1565V55.2857Z" fill="white"/>
</g>
</svg>
