<svg width="1767" height="303" fill="none" xmlns="http://www.w3.org/2000/svg"><path stroke="#fff" d="M1170 180.031h35"/><path d="M455 180.031h23m-11.5 11.5v-23m-78.5 11.5h23" stroke="#fff" stroke-width="2"/><path d="M43 223.031v15.5a6 6 0 0 0 6 6h116a6 6 0 0 0 6-6v-9H66l-12-2-11-4.5Z" stroke="#fff"/><path d="m236.5 301.531-.64.768.278.232h.362v-1Zm-4.5-12.5.981.196-.981-.196Zm90 0 .981-.196-.981.196Zm-4.5 12.5v1h.362l.278-.232-.64-.768Zm-81 1H273v-2h-36.5v2Zm-5.481-13.696c-1.3 6.502 2.692 11.674 4.841 13.464l1.28-1.536c-1.851-1.542-5.259-6.037-4.159-11.536l-1.962-.392Zm18.481-11.304c-5.319 0-9.53.755-12.631 2.575-3.158 1.854-5.053 4.745-5.85 8.729l1.962.392c.703-3.516 2.308-5.875 4.9-7.396 2.649-1.555 6.437-2.3 11.619-2.3v-2Zm23.5 0h-23.5v2H273v-2Zm0 2h3v-2h-3v2Zm3 0h28.5v-2H276v2Zm28.5 0c5.181 0 8.97.745 11.619 2.3 2.592 1.521 4.197 3.88 4.9 7.396l1.962-.392c-.797-3.984-2.692-6.875-5.85-8.729-3.101-1.82-7.313-2.575-12.631-2.575v2Zm16.519 9.696c1.1 5.499-2.308 9.994-4.159 11.536l1.28 1.536c2.149-1.79 6.141-6.962 4.841-13.464l-1.962.392Zm-3.519 11.304H276v2h41.5v-2Zm-41.5 0h-3v2h3v-2Z" fill="#fff"/><path d="M250 256.531v22h54v-21.476c-8.157 1.338-16.7 2.049-25.5 2.049-9.885 0-19.446-.897-28.5-2.573Z" stroke="#fff" stroke-width="2"/><path d="M236 252.531c12.976 3.856 27.36 6 42.5 6s29.524-2.144 42.5-6h-85Z" stroke="#fff" stroke-width="2"/><path d="M205.991 235.531v-1h-1.866l1.034 1.554.832-.554Zm7.65 11.5.832-.554-.832.554Zm.279.429.844-.537-.004-.007-.84.544Zm0 0-.844.536.005.007.839-.543Zm125.935 1.071.833.554-.833-.554Zm3.424-5.365.844.536-.844-.536ZM352 229.531l.838.547 1.009-1.547H352v1Zm-121 0v-1h-1v1h1Zm-25.841 6.554 7.649 11.5 1.665-1.108-7.649-11.5-1.665 1.108Zm7.649 11.5c.08.12.169.259.273.418l1.679-1.087-.287-.439-1.665 1.108Zm.268.411 1.688-1.073-1.688 1.073Zm.005.007c.55.85 1.422 2.204 2.553 3.341 1.12 1.127 2.636 2.187 4.492 2.187v-2c-1.068 0-2.099-.616-3.073-1.597-.964-.968-1.732-2.15-2.293-3.018l-1.679 1.087Zm7.045 5.528h113.743v-2H220.126v2Zm113.743 0c3.564 0 5.824-2.95 6.819-4.446l-1.665-1.108c-1.001 1.504-2.732 3.554-5.154 3.554v2Zm6.819-4.446c.383-.575 1.723-2.687 3.435-5.383l-1.688-1.072c-1.723 2.713-3.045 4.795-3.412 5.347l1.665 1.108Zm3.435-5.383c2.692-4.241 6.327-9.967 8.715-13.624l-1.675-1.093c-2.396 3.67-6.039 9.408-8.728 13.645l1.688 1.072ZM352 228.531H231v2h121v-2Zm-127 8a7 7 0 0 0 7-7h-2a5 5 0 0 1-5 5v2Zm-19.009 0H225v-2h-19.009v2Z" fill="#fff"/><path d="M178 229.531a6 6 0 0 0 6 6h41a6 6 0 0 0 6-6h-53Z" stroke="#fff" stroke-width="2"/><path d="m1534.5 301.531.64.768-.28.232h-.36v-1Zm4.5-12.5-.98.196.98-.196Zm-90 0-.98-.196.98.196Zm4.5 12.5v1h-.36l-.28-.232.64-.768Zm81 1H1498v-2h36.5v2Zm5.48-13.696c1.3 6.502-2.69 11.674-4.84 13.464l-1.28-1.536c1.85-1.542 5.26-6.037 4.16-11.536l1.96-.392Zm-18.48-11.304c5.32 0 9.53.755 12.63 2.575 3.16 1.854 5.05 4.745 5.85 8.729l-1.96.392c-.7-3.516-2.31-5.875-4.9-7.396-2.65-1.555-6.44-2.3-11.62-2.3v-2Zm-23.5 0h23.5v2H1498v-2Zm0 2h-3v-2h3v2Zm-3 0h-28.5v-2h28.5v2Zm-28.5 0c-5.18 0-8.97.745-11.62 2.3-2.59 1.521-4.2 3.88-4.9 7.396l-1.96-.392c.8-3.984 2.69-6.875 5.85-8.729 3.1-1.82 7.31-2.575 12.63-2.575v2Zm-16.52 9.696c-1.1 5.499 2.31 9.994 4.16 11.536l-1.28 1.536c-2.15-1.79-6.14-6.962-4.84-13.464l1.96.392Zm3.52 11.304h41.5v2h-41.5v-2Zm41.5 0h3v2h-3v-2Z" fill="#fff"/><path d="M1521 256.531v22h-54v-21.476c8.16 1.338 16.7 2.049 25.5 2.049 9.88 0 19.45-.897 28.5-2.573Z" stroke="#fff" stroke-width="2"/><path d="M1535 252.531c-12.98 3.856-27.36 6-42.5 6s-29.52-2.144-42.5-6h85Z" stroke="#fff" stroke-width="2"/><path d="M1565.01 235.531v-1h1.86l-1.03 1.554-.83-.554Zm-7.65 11.5-.83-.554.83.554Zm-.28.429-.84-.537v-.007l.84.544Zm0 0 .84.536v.007l-.84-.543Zm-125.94 1.071-.83.554.83-.554Zm-3.42-5.365-.84.536.84-.536Zm-8.72-13.635-.84.547-1.01-1.547h1.85v1Zm121 0v-1h1v1h-1Zm25.84 6.554-7.65 11.5-1.66-1.108 7.65-11.5 1.66 1.108Zm-7.65 11.5c-.08.12-.17.259-.27.418l-1.68-1.087c.1-.156.2-.306.29-.439l1.66 1.108Zm-.27.411-1.68-1.073 1.68 1.073Zm0 .007c-.55.85-1.42 2.204-2.55 3.341-1.12 1.127-2.64 2.187-4.5 2.187v-2c1.07 0 2.1-.616 3.08-1.597.96-.968 1.73-2.15 2.29-3.018l1.68 1.087Zm-7.05 5.528h-113.74v-2h113.74v2Zm-113.74 0c-3.56 0-5.82-2.95-6.82-4.446l1.67-1.108c1 1.504 2.73 3.554 5.15 3.554v2Zm-6.82-4.446a684.74 684.74 0 0 1-3.43-5.383l1.69-1.072c1.72 2.713 3.04 4.795 3.41 5.347l-1.67 1.108Zm-3.43-5.383c-2.7-4.241-6.33-9.967-8.72-13.624l1.68-1.093c2.39 3.67 6.04 9.408 8.73 13.645l-1.69 1.072Zm-7.88-15.171h121v2h-121v-2Zm127 8c-3.87 0-7-3.134-7-7h2a5 5 0 0 0 5 5v2Zm19.01 0H1546v-2h19.01v2Z" fill="#fff"/><path d="M1593 229.531h1v-1h-1v1Zm-53 0v-1h-1v1h1Zm47 7c3.87 0 7-3.134 7-7h-2a5 5 0 0 1-5 5v2Zm-41 0h41v-2h-41v2Zm-7-7c0 3.866 3.13 7 7 7v-2a5 5 0 0 1-5-5h-2Zm1 1h53v-2h-53v2Z" fill="#fff"/><path d="M86 229.531v9a6 6 0 0 0 6 6h31a6 6 0 0 0 6-6v-9H86Z" stroke="#fff"/><path d="M1593 229.531v-.5h-.5v.5h.5Zm46 0h.5v-.5h-.5v.5Zm-54 6v-.5h-.5v.5h.5Zm7.5-6c0 3.038-2.46 5.5-5.5 5.5v1a6.5 6.5 0 0 0 6.5-6.5h-1Zm.5.5h46v-1h-46v1Zm45.5-.5v9.5h1v-9.5h-1Zm0 9.5c0 .15-.09.381-.48.684-.37.296-.95.599-1.73.896-1.55.592-3.76 1.117-6.37 1.552-5.22.87-11.94 1.368-17.92 1.368v1c6.02 0 12.8-.501 18.08-1.382 2.64-.439 4.93-.977 6.57-1.604.81-.312 1.5-.658 1.99-1.045.48-.381.86-.869.86-1.469h-1Zm-26.5 4.5c-5.97 0-12.69-.622-17.91-1.554-2.62-.467-4.83-1.008-6.39-1.579-.78-.287-1.36-.572-1.74-.842-.41-.288-.46-.47-.46-.525h-1c0 .571.42 1.014.88 1.341.48.345 1.17.665 1.98.964 1.63.601 3.92 1.154 6.55 1.625 5.28.943 12.06 1.57 18.09 1.57v-1Zm-26.5-4.5v-3.5h-1v3.5h1Zm1.5-4h-2v1h2v-1Z" fill="#fff"/><path d="M1639 239.031v-9.5h54v9.5c0 3-15 5-27 5s-27-2.5-27-5Zm54 0v-9.5l16-2 17-5.5 17-12.5v8.5c0 3-8.5 16.294-24.5 21-8.5 2.5-25.5 2.5-25.5 0Z" stroke="#fff"/><circle cx="466.5" cy="180.031" r="19.5" stroke="#fff" stroke-width="2"/><circle cx="399.5" cy="180.031" r="19.5" stroke="#fff" stroke-width="2"/><circle cx="583.5" cy="180.031" r="19.5" stroke="#fff" stroke-width="2"/><circle cx="583.5" cy="180.031" r="11" stroke="#fff"/><circle cx="1341" cy="180.531" r="20" stroke="#fff" stroke-width="2"/><circle cx="1265.5" cy="178.031" r="5" stroke="#fff"/><path d="M727.5 166.531c0-6.351 5.149-11.5 11.5-11.5s11.5 5.149 11.5 11.5v27c0 6.352-5.149 11.5-11.5 11.5s-11.5-5.148-11.5-11.5v-27Zm29 0c0-6.351 5.149-11.5 11.5-11.5s11.5 5.149 11.5 11.5v27c0 6.352-5.149 11.5-11.5 11.5s-11.5-5.148-11.5-11.5v-27Zm29 0c0-6.351 5.149-11.5 11.5-11.5s11.5 5.149 11.5 11.5v27c0 6.352-5.149 11.5-11.5 11.5s-11.5-5.148-11.5-11.5v-27Zm29 0c0-6.351 5.149-11.5 11.5-11.5s11.5 5.149 11.5 11.5v27c0 6.352-5.149 11.5-11.5 11.5s-11.5-5.148-11.5-11.5v-27Zm29 0c0-6.351 5.149-11.5 11.5-11.5s11.5 5.149 11.5 11.5v27c0 6.352-5.149 11.5-11.5 11.5s-11.5-5.148-11.5-11.5v-27Zm29 0c0-6.351 5.149-11.5 11.5-11.5s11.5 5.149 11.5 11.5v27c0 6.352-5.149 11.5-11.5 11.5s-11.5-5.148-11.5-11.5v-27Zm29 0c0-6.351 5.149-11.5 11.5-11.5s11.5 5.149 11.5 11.5v27c0 6.352-5.149 11.5-11.5 11.5s-11.5-5.148-11.5-11.5v-27Zm29 0c0-6.351 5.149-11.5 11.5-11.5s11.5 5.149 11.5 11.5v27c0 6.352-5.149 11.5-11.5 11.5s-11.5-5.148-11.5-11.5v-27Zm29 0c0-6.351 5.149-11.5 11.5-11.5s11.5 5.149 11.5 11.5v27c0 6.352-5.149 11.5-11.5 11.5s-11.5-5.148-11.5-11.5v-27Zm29 0c0-6.351 5.149-11.5 11.5-11.5 6.35 0 11.5 5.149 11.5 11.5v27c0 6.352-5.15 11.5-11.5 11.5-6.351 0-11.5-5.148-11.5-11.5v-27Zm29 0c0-6.351 5.15-11.5 11.5-11.5s11.5 5.149 11.5 11.5v27c0 6.352-5.15 11.5-11.5 11.5s-11.5-5.148-11.5-11.5v-27Z" stroke="#fff"/><path d="M1205.5 169.531c5.8 0 10.5 4.701 10.5 10.5s-4.7 10.5-10.5 10.5h-36c-5.8 0-10.5-4.701-10.5-10.5s4.7-10.5 10.5-10.5h36Z" stroke="#fff" stroke-width="2"/><path d="m163.021 42.453-.872.49.872-.49Zm27.166 47.006.863-.505-.863.505Zm-80.666-70.506.12.993-.12-.993Zm-18.089 2.675.17.985-.17-.985Zm-13.91 2.325.16.987-.16-.987Zm-47.5 57.5-.99-.147.99.147Zm-5.041 33.393.988.151-.988-.151Zm-2.936 19.691-.99-.137-.195 1.396 1.383-.278-.198-.981Zm173.989-35.062.198.98 1.367-.275-.7-1.207-.865.502Zm-.013-.022.866-.501-.001-.002-.865.503Zm-33.872-56.51c7.266 12.95 18.849 32.773 27.175 47.02l1.726-1.009c-8.329-14.253-19.902-34.058-27.157-46.99l-1.744.978Zm-52.508-22.997c19.25-2.31 42.394 4.966 52.508 22.996l1.744-.978c-10.641-18.97-34.741-26.374-54.491-24.004l.239 1.986Zm-18.04 2.667c6.58-1.127 9.8-1.678 18.04-2.667l-.239-1.986c-8.286.994-11.542 1.552-18.138 2.682l.337 1.971Zm-13.92 2.327c6.276-1.018 10.54-1.748 13.92-2.327l-.337-1.971c-3.379.578-7.636 1.308-13.903 2.324l.32 1.974ZM31.011 81.6c4.955-33.449 22.717-52.776 46.67-56.66l-.32-1.974c-25.046 4.061-43.284 24.29-48.329 58.34l1.979.294Zm-5.041 33.397c1.237-8.08 2.835-18.51 5.04-33.397l-1.978-.294a6267.741 6267.741 0 0 1-5.04 33.389l1.977.302Zm-2.935 19.678c.779-5.604 1.668-11.407 2.934-19.678l-1.977-.302c-1.266 8.266-2.157 14.084-2.938 19.705l1.981.275Zm172.802-36.18-173.99 35.062.395 1.961 173.99-35.063-.395-1.96Zm-.681 1.46.013.022 1.73-1.004-.012-.021-1.731 1.002Zm-5.832-9.992a8074.1 8074.1 0 0 1 5.833 9.993l1.729-1.006c-1.617-2.777-3.611-6.188-5.836-9.996l-1.726 1.01Z" fill="#fff"/><path d="m195.771 99.531.865-.5-.359-.622-.703.142.197.98Zm50.987 33.978.034-.999-.034.999Zm-226.5 13 .994.117-.994-.117Zm1.524-11.915-.198-.981-.695.141-.098.702.99.138Zm173.124-34.561c9.182 15.853 18.304 24.382 27.109 28.99 8.802 4.607 17.181 5.235 24.71 5.486l.067-1.999c-7.468-.249-15.466-.871-23.85-5.259-8.381-4.386-17.255-12.595-26.306-28.22l-1.73 1.002Zm51.819 34.476c7.217.24 12.992 3.366 16.968 7.161 1.989 1.899 3.517 3.955 4.542 5.88 1.034 1.941 1.523 3.682 1.523 4.959h2c0-1.722-.636-3.794-1.758-5.9-1.13-2.122-2.79-4.347-4.926-6.386-4.274-4.079-10.5-7.454-18.282-7.713l-.067 1.999Zm23.033 18v11h2v-11h-2Zm0 11c0 .951-.329 2.631-1.146 4.649a23.885 23.885 0 0 1-3.868 6.393c-3.582 4.239-9.313 7.958-17.986 7.958v2c9.328 0 15.596-4.031 19.514-8.667a25.924 25.924 0 0 0 4.195-6.934c.871-2.155 1.291-4.1 1.291-5.399h-2Zm-23 19h-192.5v2h192.5v-2Zm-192.5 0c-12.973 0-21.664-4.881-26.892-11.731-5.254-6.884-7.09-15.862-6.114-24.152l-1.987-.234c-1.025 8.711.89 18.233 6.51 25.599 5.648 7.399 14.956 12.518 28.483 12.518v-2Zm-33.007-35.883c.512-4.351.991-8.077 1.521-11.895l-1.98-.275a559.843 559.843 0 0 0-1.527 11.936l1.986.234Zm174.323-48.075-173.99 35.062.395 1.961 173.99-35.062-.395-1.961Z" fill="#fff"/><path d="M263.501 115.172c-21.2 0-34.5-14-38.5-21-5.049-7.42-12.54-18.37-19.982-29.248-8.772-12.823-17.473-25.543-22.018-32.252-13.548-20-41.5-30.5-64-29-17.012 1.135-27.45 2.117-33.042 2.644-1.804.17-3.104.292-3.958.357-36.5 2.765-59 34-64.5 49.5-5.421 15.278-9.385 50.959-13.807 90.764l-.193 1.736c-5 45 28 81 73.5 81H1689.5c45.5 0 78.5-36 73.5-81l-.19-1.736v-.004c-4.42-39.803-8.39-75.483-13.81-90.76-5.5-15.5-28-46.735-64.5-49.5-.85-.065-2.15-.188-3.96-.357-5.59-.527-16.03-1.51-33.04-2.643-22.5-1.5-50.45 9-64 29-4.54 6.708-13.24 19.425-22.01 32.247-7.45 10.879-14.94 21.832-19.99 29.252-4 7-17.3 21-38.5 21H263.501Z" stroke="#fff" stroke-width="6"/><path d="M263.501 115.172c-21.2 0-34.5-14-38.5-21-5.049-7.42-12.54-18.37-19.982-29.248-8.772-12.823-17.473-25.543-22.018-32.252-13.548-20-41.5-30.5-64-29-17.012 1.135-27.45 2.117-33.042 2.644-1.804.17-3.104.292-3.958.357-36.5 2.765-59 34-64.5 49.5-5.421 15.278-9.385 50.959-13.807 90.764l-.193 1.736c0 34.358 8.499 65 73.5 65H1689.5c55 0 73.5-22.642 73.5-65l-.19-1.736v-.004c-4.42-39.803-8.39-75.483-13.81-90.76-5.5-15.5-28-46.735-64.5-49.5-.85-.065-2.15-.188-3.96-.357-5.59-.527-16.03-1.51-33.04-2.643-22.5-1.5-50.45 9-64 29-4.54 6.708-13.24 19.425-22.01 32.247-7.45 10.879-14.94 21.832-19.99 29.252-4 7-17.3 21-38.5 21H263.501Z" stroke="#fff"/><path d="M30 82.031c4.5-29.5 31.5-46 48-49.5s20-4.5 31-4.5 30 0 44 24.5 21 38 33 60.5 36.5 34 67.5 34H723m1014-65c-4.5-29.5-31.5-46-48-49.5s-20-4.5-31-4.5-30 0-44 24.5-21 38-33 60.5-36.5 34-67.5 34h-793" stroke="#fff"/><circle cx="466.5" cy="180.031" r="19.5" stroke="#fff" stroke-width="2"/><circle cx="399.5" cy="180.031" r="19.5" stroke="#fff" stroke-width="2"/><circle cx="583.5" cy="180.031" r="19.5" stroke="#fff" stroke-width="2"/><circle cx="583.5" cy="180.031" r="11" stroke="#fff"/><circle cx="1341" cy="180.531" r="20" stroke="#fff" stroke-width="2"/><circle cx="1265.5" cy="178.031" r="5" stroke="#fff"/><path d="M727.5 166.531c0-6.351 5.149-11.5 11.5-11.5s11.5 5.149 11.5 11.5v27c0 6.352-5.149 11.5-11.5 11.5s-11.5-5.148-11.5-11.5v-27Zm29 0c0-6.351 5.149-11.5 11.5-11.5s11.5 5.149 11.5 11.5v27c0 6.352-5.149 11.5-11.5 11.5s-11.5-5.148-11.5-11.5v-27Zm29 0c0-6.351 5.149-11.5 11.5-11.5s11.5 5.149 11.5 11.5v27c0 6.352-5.149 11.5-11.5 11.5s-11.5-5.148-11.5-11.5v-27Zm29 0c0-6.351 5.149-11.5 11.5-11.5s11.5 5.149 11.5 11.5v27c0 6.352-5.149 11.5-11.5 11.5s-11.5-5.148-11.5-11.5v-27Zm29 0c0-6.351 5.149-11.5 11.5-11.5s11.5 5.149 11.5 11.5v27c0 6.352-5.149 11.5-11.5 11.5s-11.5-5.148-11.5-11.5v-27Zm29 0c0-6.351 5.149-11.5 11.5-11.5s11.5 5.149 11.5 11.5v27c0 6.352-5.149 11.5-11.5 11.5s-11.5-5.148-11.5-11.5v-27Zm29 0c0-6.351 5.149-11.5 11.5-11.5s11.5 5.149 11.5 11.5v27c0 6.352-5.149 11.5-11.5 11.5s-11.5-5.148-11.5-11.5v-27Zm29 0c0-6.351 5.149-11.5 11.5-11.5s11.5 5.149 11.5 11.5v27c0 6.352-5.149 11.5-11.5 11.5s-11.5-5.148-11.5-11.5v-27Zm29 0c0-6.351 5.149-11.5 11.5-11.5s11.5 5.149 11.5 11.5v27c0 6.352-5.149 11.5-11.5 11.5s-11.5-5.148-11.5-11.5v-27Zm29 0c0-6.351 5.149-11.5 11.5-11.5 6.35 0 11.5 5.149 11.5 11.5v27c0 6.352-5.15 11.5-11.5 11.5-6.351 0-11.5-5.148-11.5-11.5v-27Zm29 0c0-6.351 5.15-11.5 11.5-11.5s11.5 5.149 11.5 11.5v27c0 6.352-5.15 11.5-11.5 11.5s-11.5-5.148-11.5-11.5v-27Z" stroke="#fff"/><path d="M1205.5 169.531c5.8 0 10.5 4.701 10.5 10.5s-4.7 10.5-10.5 10.5h-36c-5.8 0-10.5-4.701-10.5-10.5s4.7-10.5 10.5-10.5h36Z" stroke="#fff" stroke-width="2"/><path d="m195.771 99.531 1.298-.752-.539-.93-1.055.212.296 1.47Zm50.987 33.978.05-1.499-.05 1.499Zm-226.5 13 1.49.175-1.49-.175Zm1.524-11.915-.296-1.471-1.044.21-.146 1.054 1.486.207Zm172.691-34.311c9.216 15.91 18.399 24.52 27.31 29.183 8.907 4.662 17.381 5.291 24.925 5.542l.1-2.998c-7.452-.248-15.354-.869-23.634-5.202-8.275-4.33-17.087-12.46-26.105-28.029l-2.596 1.504Zm52.235 34.725c7.076.236 12.738 3.299 16.64 7.024 1.952 1.864 3.447 3.877 4.446 5.753 1.012 1.9 1.464 3.558 1.464 4.724h3c0-1.834-.673-3.988-1.817-6.135-1.156-2.171-2.85-4.439-5.022-6.512-4.348-4.151-10.687-7.588-18.611-7.852l-.1 2.998Zm22.55 17.501v11h3v-11h-3Zm0 11c0 .864-.307 2.478-1.109 4.461a23.418 23.418 0 0 1-3.786 6.258c-3.499 4.14-9.096 7.781-17.605 7.781v3c9.491 0 15.894-4.109 19.896-8.844a26.426 26.426 0 0 0 4.276-7.07c.885-2.188 1.328-4.2 1.328-5.586h-3Zm-22.5 18.5h-192.5v3h192.5v-3Zm-192.5 0c-12.834 0-21.371-4.821-26.495-11.535-5.161-6.763-6.978-15.605-6.015-23.79l-2.98-.35c-1.037 8.816.897 18.473 6.61 25.96 5.752 7.536 15.215 12.715 28.88 12.715v-3Zm-32.51-35.325c.511-4.347.99-8.07 1.52-11.884l-2.972-.413a561.06 561.06 0 0 0-1.527 11.947l2.98.35Zm173.727-48.623-173.99 35.062.593 2.941 173.989-35.062-.592-2.941Zm-6.079 61.47v-16.392l-4.936 1.845v-3.13l6.7-2.448h1.927v20.125h-3.691Zm-19.551 0v-19.906h3.692v17.008h8.545v2.898h-12.237Zm1402.145-60-1.3-.752.54-.93 1.06.212-.3 1.47ZM1521 133.51l-.05-1.499.05 1.499Zm226.5 13-1.49.175 1.49-.175Zm-1.52-11.915.29-1.471 1.05.21.14 1.054-1.48.207Zm-172.69-34.311c-9.22 15.91-18.4 24.52-27.31 29.183-8.91 4.662-17.38 5.291-24.93 5.542l-.1-2.998c7.45-.248 15.36-.869 23.64-5.202 8.27-4.33 17.08-12.46 26.1-28.029l2.6 1.504Zm-52.24 34.725c-7.07.236-12.74 3.299-16.64 7.024-1.95 1.864-3.44 3.877-4.44 5.753-1.02 1.9-1.47 3.558-1.47 4.724h-3c0-1.834.67-3.988 1.82-6.135 1.16-2.171 2.85-4.439 5.02-6.512 4.35-4.151 10.69-7.588 18.61-7.852l.1 2.998Zm-22.55 17.501v11h-3v-11h3Zm0 11c0 .864.31 2.478 1.11 4.461a23.44 23.44 0 0 0 3.79 6.258c3.5 4.14 9.09 7.781 17.6 7.781v3c-9.49 0-15.89-4.109-19.89-8.844a26.474 26.474 0 0 1-4.28-7.07c-.89-2.188-1.33-4.2-1.33-5.586h3Zm22.5 18.5h192.5v3H1521v-3Zm192.5 0c12.84 0 21.37-4.821 26.5-11.535 5.16-6.763 6.97-15.605 6.01-23.79l2.98-.35c1.04 8.816-.89 18.473-6.61 25.96-5.75 7.536-15.21 12.715-28.88 12.715v-3Zm32.51-35.325c-.51-4.347-.99-8.07-1.52-11.884l2.97-.413c.54 3.836 1.02 7.58 1.53 11.947l-2.98.35Zm-173.72-48.623 173.98 35.062-.59 2.941-173.99-35.062.6-2.941Zm21.27 61.469v-16.392l-4.94 1.845v-3.13l6.7-2.448h1.93v20.125h-3.69Zm-21.71 0v-19.906h7.02c2.14 0 3.79.551 4.98 1.654 1.18 1.094 1.78 2.58 1.78 4.457 0 1.896-.61 3.414-1.81 4.553-1.2 1.13-2.86 1.695-4.97 1.695h-3.31v7.547h-3.69Zm3.69-10.24h3.02c1.25 0 2.12-.324 2.62-.971s.76-1.481.76-2.502c0-1.02-.26-1.845-.76-2.474-.5-.629-1.37-.944-2.62-.944h-3.02v6.891Zm6.91 10.24-4.51-9.078 3.68-.451 4.94 9.529h-4.11Z" fill="#fff"/><path d="m163.021 42.453-1.308.734 1.308-.734Zm27.166 47.006 1.295-.757-1.295.757Zm-80.666-70.506.179 1.49-.179-1.49Zm-18.089 2.675.254 1.478-.254-1.479Zm-13.91 2.325.24 1.48-.24-1.48Zm-47.5 57.5-1.484-.22 1.483.22Zm-5.041 33.393 1.483.227-1.483-.227Zm-2.936 19.691-1.486-.206-.29 2.095 2.072-.418-.296-1.471Zm173.989-35.062.296 1.47 2.051-.413-1.049-1.81-1.298.753Zm-.013-.022 1.298-.752-.001-.003-1.297.755Zm-34.308-56.266c7.268 12.956 18.854 32.783 27.179 47.029l2.59-1.514c-8.33-14.255-19.9-34.055-27.152-46.983l-2.617 1.468ZM109.7 20.442c19.125-2.295 42.03 4.95 52.013 22.745l2.617-1.468c-10.774-19.205-35.113-26.64-54.987-24.255l.357 2.978Zm-18.014 2.664c6.576-1.126 9.787-1.677 18.014-2.664l-.357-2.978c-8.298.995-11.563 1.555-18.164 2.685l.507 2.957ZM77.76 25.434a1449.43 1449.43 0 0 0 13.925-2.328l-.507-2.957c-3.378.578-7.633 1.307-13.898 2.323l.48 2.962ZM31.505 81.673c4.933-33.298 22.576-52.4 46.257-56.24l-.48-2.96c-25.32 4.105-43.677 24.558-48.744 58.76l2.967.44Zm-5.041 33.4c1.238-8.08 2.835-18.51 5.041-33.4l-2.967-.44a6295.701 6295.701 0 0 1-5.04 33.386l2.966.454Zm-2.933 19.671c.777-5.6 1.666-11.399 2.933-19.671l-2.966-.454c-1.266 8.266-2.158 14.087-2.939 19.712l2.972.413Zm172.207-36.74-173.99 35.063.593 2.941 173.989-35.063-.592-2.94Zm-1.015 2.201.014.023 2.595-1.506-.013-.021-2.596 1.504Zm-5.831-9.99c2.225 3.808 4.217 7.218 5.833 9.993l2.593-1.51a8813.242 8813.242 0 0 0-5.836-9.996l-2.59 1.514Zm-59.334-9.684V78.18l6.891-7.684c.765-.857 1.371-1.65 1.818-2.379.447-.738.67-1.504.67-2.297 0-.838-.242-1.508-.725-2.01-.474-.51-1.139-.765-1.996-.765-.866 0-1.577.287-2.133.861-.555.565-.833 1.454-.833 2.666v.356h-3.719v-.534c0-1.822.62-3.299 1.859-4.43 1.24-1.139 2.853-1.708 4.84-1.708 2.06 0 3.646.51 4.758 1.531 1.121 1.012 1.681 2.301 1.681 3.87 0 1.284-.323 2.433-.97 3.445-.647 1.011-1.477 2.069-2.489 3.171l-4.689 5.291h8.613v2.967h-13.576Zm-13.713 0V60.625h3.692v17.008h8.545v2.898h-12.237ZM1604.74 42.453l1.31.734-1.31-.734Zm-27.17 47.006-1.29-.757 1.29.757Zm80.67-70.506-.18 1.49.18-1.49Zm18.09 2.675-.26 1.478.26-1.479Zm13.91 2.325-.24 1.48.24-1.48Zm47.5 57.5 1.48-.22-1.48.22Zm5.04 33.393-1.48.227 1.48-.227Zm2.93 19.691 1.49-.206.29 2.095-2.07-.418.29-1.471Zm-173.99-35.062-.29 1.47-2.05-.413 1.05-1.81 1.29.753Zm.02-.022-1.3-.752v-.003l1.3.755Zm34.31-56.266c-7.27 12.956-18.86 32.783-27.18 47.029l-2.59-1.514c8.33-14.255 19.9-34.055 27.15-46.983l2.62 1.468Zm52.01-22.745c-19.13-2.295-42.03 4.95-52.01 22.745l-2.62-1.468c10.77-19.205 35.11-26.64 54.99-24.255l-.36 2.978Zm18.01 2.664c-6.57-1.126-9.78-1.677-18.01-2.664l.36-2.978c8.29.995 11.56 1.555 18.16 2.685l-.51 2.957Zm13.93 2.328a1445.94 1445.94 0 0 1-13.93-2.328l.51-2.957c3.38.578 7.63 1.307 13.9 2.323l-.48 2.962Zm46.25 56.239c-4.93-33.298-22.57-52.4-46.25-56.24l.48-2.96c25.32 4.105 43.67 24.558 48.74 58.76l-2.97.44Zm5.05 33.4c-1.24-8.08-2.84-18.51-5.05-33.4l2.97-.44c2.21 14.882 3.8 25.307 5.04 33.386l-2.96.454Zm2.93 19.671c-.78-5.6-1.67-11.399-2.93-19.671l2.96-.454c1.27 8.266 2.16 14.087 2.94 19.712l-2.97.413Zm-172.21-36.74 173.99 35.063-.59 2.941-173.99-35.063.59-2.94Zm1.02 2.201c-.01.005-.01.016-.02.023l-2.59-1.506c0-.007 0-.011.01-.021l2.6 1.504Zm5.83-9.99c-2.23 3.808-4.22 7.218-5.84 9.993l-2.59-1.51c1.62-2.777 3.61-6.189 5.84-9.996l2.59 1.514Zm60.85-9.684V78.18l6.89-7.684c.76-.857 1.37-1.65 1.82-2.379.44-.738.67-1.504.67-2.297 0-.838-.24-1.508-.73-2.01-.47-.51-1.14-.765-1.99-.765-.87 0-1.58.287-2.14.861-.55.565-.83 1.454-.83 2.666v.356h-3.72v-.534c0-1.822.62-3.299 1.86-4.43 1.24-1.139 2.85-1.708 4.84-1.708 2.06 0 3.65.51 4.76 1.531 1.12 1.012 1.68 2.301 1.68 3.87 0 1.284-.32 2.433-.97 3.445-.65 1.011-1.48 2.069-2.49 3.171l-4.69 5.291h8.61v2.967h-13.57Zm-15.87 0V60.625h7.02c2.14 0 3.79.551 4.98 1.654 1.18 1.094 1.78 2.58 1.78 4.457 0 1.896-.61 3.414-1.81 4.553-1.2 1.13-2.86 1.695-4.97 1.695h-3.31v7.547h-3.69Zm3.69-10.24h3.02c1.25 0 2.12-.324 2.62-.97.5-.648.76-1.482.76-2.503 0-1.02-.26-1.845-.76-2.474-.5-.63-1.37-.944-2.62-.944h-3.02v6.891Zm6.91 10.24-4.51-9.078 3.68-.451 4.94 9.53h-4.11Z" fill="#fff"/></svg>