<svg width="1767" height="302" viewBox="0 0 1767 302" fill="none" xmlns="http://www.w3.org/2000/svg">
<line opacity="0.2" x1="1170" y1="179.5" x2="1205" y2="179.5" stroke="white"/>
<path opacity="0.2" d="M455 179.5L478 179.5M466.5 191L466.5 168" stroke="white" stroke-width="2"/>
<path opacity="0.2" d="M388 179.5L411 179.5" stroke="white" stroke-width="2"/>
<path opacity="0.2" d="M43 222.5V238C43 241.314 45.6863 244 49 244H165C168.314 244 171 241.314 171 238V229H66L54 227L43 222.5Z" stroke="white"/>
<g opacity="0.2">
<path d="M236.5 301L235.86 301.768L236.138 302H236.5V301ZM232 288.5L232.981 288.696L232 288.5ZM322 288.5L322.981 288.304V288.304L322 288.5ZM317.5 301V302H317.862L318.14 301.768L317.5 301ZM236.5 302H273V300H236.5V302ZM231.019 288.304C229.719 294.806 233.711 299.977 235.86 301.768L237.14 300.232C235.289 298.689 231.881 294.194 232.981 288.696L231.019 288.304ZM249.5 277C244.182 277 239.97 277.755 236.869 279.575C233.711 281.429 231.816 284.32 231.019 288.304L232.981 288.696C233.684 285.18 235.289 282.821 237.881 281.3C240.53 279.745 244.318 279 249.5 279V277ZM273 277H249.5V279H273V277ZM273 279H276V277H273V279ZM276 279H304.5V277H276V279ZM304.5 279C309.682 279 313.47 279.745 316.119 281.3C318.711 282.821 320.316 285.18 321.019 288.696L322.981 288.304C322.184 284.32 320.289 281.429 317.131 279.575C314.03 277.755 309.818 277 304.5 277V279ZM321.019 288.696C322.119 294.194 318.711 298.689 316.86 300.232L318.14 301.768C320.289 299.977 324.281 294.806 322.981 288.304L321.019 288.696ZM317.5 300H276V302H317.5V300ZM276 300H273V302H276V300Z" fill="white"/>
<path d="M250 256V278H304V256.524C295.843 257.862 287.3 258.573 278.5 258.573C268.615 258.573 259.054 257.676 250 256Z" stroke="white" stroke-width="2"/>
<path d="M236 252C248.976 255.856 263.36 258 278.5 258C293.64 258 308.024 255.856 321 252H236Z" stroke="white" stroke-width="2"/>
<path d="M205.99 235V234H204.124L205.158 235.554L205.99 235ZM213.64 246.5L214.472 245.946L214.472 245.946L213.64 246.5ZM213.919 246.928L214.763 246.392L214.759 246.385L213.919 246.928ZM213.919 246.929L213.075 247.465L213.08 247.472L213.919 246.929ZM339.855 248L340.687 248.554V248.554L339.855 248ZM343.278 242.635L344.122 243.17L344.122 243.17L343.278 242.635ZM351.999 229L352.837 229.547L353.846 228H351.999V229ZM230.999 229V228H229.999V229H230.999ZM205.158 235.554L212.807 247.054L214.472 245.946L206.823 234.446L205.158 235.554ZM212.807 247.054C212.887 247.174 212.976 247.312 213.08 247.472L214.759 246.385C214.657 246.229 214.56 246.079 214.472 245.946L212.807 247.054ZM213.075 247.465L213.075 247.465L214.763 246.392L214.763 246.392L213.075 247.465ZM213.08 247.472C213.63 248.322 214.502 249.675 215.633 250.813C216.753 251.939 218.269 253 220.125 253V251C219.057 251 218.026 250.383 217.052 249.403C216.089 248.434 215.32 247.252 214.759 246.385L213.08 247.472ZM220.125 253H333.868V251H220.125V253ZM333.868 253C337.432 253 339.692 250.05 340.687 248.554L339.022 247.446C338.021 248.95 336.29 251 333.868 251V253ZM340.687 248.554C341.07 247.978 342.41 245.867 344.122 243.17L342.434 242.099C340.711 244.812 339.389 246.894 339.022 247.446L340.687 248.554ZM344.122 243.17C346.814 238.929 350.449 233.204 352.837 229.547L351.162 228.453C348.766 232.123 345.123 237.862 342.434 242.099L344.122 243.17ZM351.999 228H230.999V230H351.999V228ZM224.999 236C228.865 236 231.999 232.866 231.999 229H229.999C229.999 231.761 227.761 234 224.999 234V236ZM205.99 236H224.999V234H205.99V236Z" fill="white"/>
<path d="M178 229C178 232.314 180.686 235 184 235H225C228.314 235 231 232.314 231 229H178Z" stroke="white" stroke-width="2"/>
</g>
<g opacity="0.2">
<path d="M1534.5 301L1535.14 301.768L1534.86 302H1534.5V301ZM1539 288.5L1538.02 288.696L1539 288.5ZM1449 288.5L1448.02 288.304V288.304L1449 288.5ZM1453.5 301V302H1453.14L1452.86 301.768L1453.5 301ZM1534.5 302H1498V300H1534.5V302ZM1539.98 288.304C1541.28 294.806 1537.29 299.977 1535.14 301.768L1533.86 300.232C1535.71 298.689 1539.12 294.194 1538.02 288.696L1539.98 288.304ZM1521.5 277C1526.82 277 1531.03 277.755 1534.13 279.575C1537.29 281.429 1539.18 284.32 1539.98 288.304L1538.02 288.696C1537.32 285.18 1535.71 282.821 1533.12 281.3C1530.47 279.745 1526.68 279 1521.5 279V277ZM1498 277H1521.5V279H1498V277ZM1498 279H1495V277H1498V279ZM1495 279H1466.5V277H1495V279ZM1466.5 279C1461.32 279 1457.53 279.745 1454.88 281.3C1452.29 282.821 1450.68 285.18 1449.98 288.696L1448.02 288.304C1448.82 284.32 1450.71 281.429 1453.87 279.575C1456.97 277.755 1461.18 277 1466.5 277V279ZM1449.98 288.696C1448.88 294.194 1452.29 298.689 1454.14 300.232L1452.86 301.768C1450.71 299.977 1446.72 294.806 1448.02 288.304L1449.98 288.696ZM1453.5 300H1495V302H1453.5V300ZM1495 300H1498V302H1495V300Z" fill="white"/>
<path d="M1521 256V278H1467V256.524C1475.16 257.862 1483.7 258.573 1492.5 258.573C1502.38 258.573 1511.95 257.676 1521 256Z" stroke="white" stroke-width="2"/>
<path d="M1535 252C1522.02 255.856 1507.64 258 1492.5 258C1477.36 258 1462.98 255.856 1450 252H1535Z" stroke="white" stroke-width="2"/>
<path d="M1565.01 235V234H1566.88L1565.84 235.554L1565.01 235ZM1557.36 246.5L1556.53 245.946L1556.53 245.946L1557.36 246.5ZM1557.08 246.928L1556.24 246.392L1556.24 246.385L1557.08 246.928ZM1557.08 246.929L1557.92 247.465L1557.92 247.472L1557.08 246.929ZM1431.15 248L1430.31 248.554V248.554L1431.15 248ZM1427.72 242.635L1426.88 243.17L1426.88 243.17L1427.72 242.635ZM1419 229L1418.16 229.547L1417.15 228H1419V229ZM1540 229V228H1541V229H1540ZM1565.84 235.554L1558.19 247.054L1556.53 245.946L1564.18 234.446L1565.84 235.554ZM1558.19 247.054C1558.11 247.174 1558.02 247.312 1557.92 247.472L1556.24 246.385C1556.34 246.229 1556.44 246.079 1556.53 245.946L1558.19 247.054ZM1557.92 247.465L1557.92 247.465L1556.24 246.392L1556.24 246.392L1557.92 247.465ZM1557.92 247.472C1557.37 248.322 1556.5 249.675 1555.37 250.813C1554.25 251.939 1552.73 253 1550.88 253V251C1551.94 251 1552.97 250.383 1553.95 249.403C1554.91 248.434 1555.68 247.252 1556.24 246.385L1557.92 247.472ZM1550.88 253H1437.13V251H1550.88V253ZM1437.13 253C1433.57 253 1431.31 250.05 1430.31 248.554L1431.98 247.446C1432.98 248.95 1434.71 251 1437.13 251V253ZM1430.31 248.554C1429.93 247.978 1428.59 245.867 1426.88 243.17L1428.57 242.099C1430.29 244.812 1431.61 246.894 1431.98 247.446L1430.31 248.554ZM1426.88 243.17C1424.19 238.929 1420.55 233.204 1418.16 229.547L1419.84 228.453C1422.23 232.123 1425.88 237.862 1428.57 242.099L1426.88 243.17ZM1419 228H1540V230H1419V228ZM1546 236C1542.13 236 1539 232.866 1539 229H1541C1541 231.761 1543.24 234 1546 234V236ZM1565.01 236H1546V234H1565.01V236Z" fill="white"/>
<path d="M1593 229H1594V228H1593V229ZM1540 229V228H1539V229H1540ZM1587 236C1590.87 236 1594 232.866 1594 229H1592C1592 231.761 1589.76 234 1587 234V236ZM1546 236H1587V234H1546V236ZM1539 229C1539 232.866 1542.13 236 1546 236V234C1543.24 234 1541 231.761 1541 229H1539ZM1540 230H1593V228H1540V230Z" fill="white"/>
</g>
<path opacity="0.2" d="M86 229V238C86 241.314 88.6863 244 92 244H123C126.314 244 129 241.314 129 238V229H86Z" stroke="white"/>
<path opacity="0.2" d="M1593 229V228.5H1592.5V229H1593ZM1639 229H1639.5V228.5H1639V229ZM1585 235V234.5H1584.5V235H1585ZM1592.5 229C1592.5 232.038 1590.04 234.5 1587 234.5V235.5C1590.59 235.5 1593.5 232.59 1593.5 229H1592.5ZM1593 229.5H1639V228.5H1593V229.5ZM1638.5 229V238.5H1639.5V229H1638.5ZM1638.5 238.5C1638.5 238.65 1638.41 238.881 1638.02 239.184C1637.65 239.48 1637.07 239.783 1636.29 240.08C1634.74 240.672 1632.53 241.196 1629.92 241.632C1624.7 242.502 1617.98 243 1612 243V244C1618.02 244 1624.8 243.498 1630.08 242.618C1632.72 242.179 1635.01 241.641 1636.65 241.014C1637.46 240.701 1638.15 240.356 1638.64 239.969C1639.12 239.588 1639.5 239.1 1639.5 238.5H1638.5ZM1612 243C1606.03 243 1599.31 242.378 1594.09 241.445C1591.47 240.979 1589.26 240.438 1587.7 239.867C1586.92 239.58 1586.34 239.295 1585.96 239.025C1585.55 238.737 1585.5 238.555 1585.5 238.5H1584.5C1584.5 239.07 1584.92 239.513 1585.38 239.84C1585.86 240.185 1586.55 240.506 1587.36 240.805C1588.99 241.406 1591.28 241.959 1593.91 242.43C1599.19 243.372 1605.97 244 1612 244V243ZM1585.5 238.5V235H1584.5V238.5H1585.5ZM1587 234.5H1585V235.5H1587V234.5Z" fill="white"/>
<path opacity="0.2" d="M1639 238.5V229H1693V238.5C1693 241.5 1678 243.5 1666 243.5C1654 243.5 1639 241 1639 238.5Z" stroke="white"/>
<path opacity="0.2" d="M1693 238.5V229L1709 227L1726 221.5L1743 209V217.5C1743 220.5 1734.5 233.794 1718.5 238.5C1710 241 1693 241 1693 238.5Z" stroke="white"/>
<circle opacity="0.2" cx="466.5" cy="179.5" r="19.5" stroke="white" stroke-width="2"/>
<circle opacity="0.2" cx="399.5" cy="179.5" r="19.5" stroke="white" stroke-width="2"/>
<circle opacity="0.2" cx="583.5" cy="179.5" r="19.5" stroke="white" stroke-width="2"/>
<circle opacity="0.2" cx="583.5" cy="179.5" r="11" stroke="white"/>
<circle opacity="0.2" cx="1341" cy="180" r="20" stroke="white" stroke-width="2"/>
<circle opacity="0.2" cx="1265.5" cy="177.5" r="5" stroke="white"/>
<path opacity="0.2" d="M727.5 166C727.5 159.649 732.649 154.5 739 154.5C745.351 154.5 750.5 159.649 750.5 166V193C750.5 199.351 745.351 204.5 739 204.5C732.649 204.5 727.5 199.351 727.5 193V166Z" stroke="white"/>
<path opacity="0.2" d="M756.5 166C756.5 159.649 761.649 154.5 768 154.5C774.351 154.5 779.5 159.649 779.5 166V193C779.5 199.351 774.351 204.5 768 204.5C761.649 204.5 756.5 199.351 756.5 193V166Z" stroke="white"/>
<path opacity="0.2" d="M785.5 166C785.5 159.649 790.649 154.5 797 154.5C803.351 154.5 808.5 159.649 808.5 166V193C808.5 199.351 803.351 204.5 797 204.5C790.649 204.5 785.5 199.351 785.5 193V166Z" stroke="white"/>
<path opacity="0.2" d="M814.5 166C814.5 159.649 819.649 154.5 826 154.5C832.351 154.5 837.5 159.649 837.5 166V193C837.5 199.351 832.351 204.5 826 204.5C819.649 204.5 814.5 199.351 814.5 193V166Z" stroke="white"/>
<path opacity="0.2" d="M843.5 166C843.5 159.649 848.649 154.5 855 154.5C861.351 154.5 866.5 159.649 866.5 166V193C866.5 199.351 861.351 204.5 855 204.5C848.649 204.5 843.5 199.351 843.5 193V166Z" stroke="white"/>
<path opacity="0.2" d="M872.5 166C872.5 159.649 877.649 154.5 884 154.5C890.351 154.5 895.5 159.649 895.5 166V193C895.5 199.351 890.351 204.5 884 204.5C877.649 204.5 872.5 199.351 872.5 193V166Z" stroke="white"/>
<path opacity="0.2" d="M901.5 166C901.5 159.649 906.649 154.5 913 154.5C919.351 154.5 924.5 159.649 924.5 166V193C924.5 199.351 919.351 204.5 913 204.5C906.649 204.5 901.5 199.351 901.5 193V166Z" stroke="white"/>
<path opacity="0.2" d="M930.5 166C930.5 159.649 935.649 154.5 942 154.5C948.351 154.5 953.5 159.649 953.5 166V193C953.5 199.351 948.351 204.5 942 204.5C935.649 204.5 930.5 199.351 930.5 193V166Z" stroke="white"/>
<path opacity="0.2" d="M959.5 166C959.5 159.649 964.649 154.5 971 154.5C977.351 154.5 982.5 159.649 982.5 166V193C982.5 199.351 977.351 204.5 971 204.5C964.649 204.5 959.5 199.351 959.5 193V166Z" stroke="white"/>
<path opacity="0.2" d="M988.5 166C988.5 159.649 993.649 154.5 1000 154.5C1006.35 154.5 1011.5 159.649 1011.5 166V193C1011.5 199.351 1006.35 204.5 1000 204.5C993.649 204.5 988.5 199.351 988.5 193V166Z" stroke="white"/>
<path opacity="0.2" d="M1017.5 166C1017.5 159.649 1022.65 154.5 1029 154.5C1035.35 154.5 1040.5 159.649 1040.5 166V193C1040.5 199.351 1035.35 204.5 1029 204.5C1022.65 204.5 1017.5 199.351 1017.5 193V166Z" stroke="white"/>
<path opacity="0.2" d="M1205.5 169C1211.3 169 1216 173.701 1216 179.5C1216 185.299 1211.3 190 1205.5 190L1169.5 190C1163.7 190 1159 185.299 1159 179.5C1159 173.701 1163.7 169 1169.5 169L1205.5 169Z" stroke="white" stroke-width="2"/>
<path opacity="0.2" d="M163.021 41.9217L162.149 42.4109V42.4109L163.021 41.9217ZM190.187 88.9276L191.05 88.4231L190.187 88.9276ZM109.521 18.4217L109.641 19.4146L109.521 18.4217ZM91.4324 21.0962L91.6012 22.0819L91.4324 21.0962ZM77.5214 23.4217L77.6814 24.4088L77.5214 23.4217ZM30.0214 80.9217L29.0322 80.7751L30.0214 80.9217ZM24.981 114.315L25.9695 114.466L24.981 114.315ZM22.0449 134.006L21.0544 133.869L20.8605 135.265L22.2425 134.986L22.0449 134.006ZM196.034 98.9437L196.232 99.924L197.599 99.6485L196.899 98.442L196.034 98.9437ZM196.021 98.9217L196.887 98.4203L196.886 98.4185L196.021 98.9217ZM162.149 42.4109C169.415 55.3625 180.998 75.1847 189.324 89.4322L191.05 88.4231C182.721 74.1694 171.148 54.365 163.893 41.4324L162.149 42.4109ZM109.641 19.4146C128.891 17.1045 152.035 24.3808 162.149 42.4109L163.893 41.4324C153.252 22.4625 129.152 15.0588 109.402 17.4288L109.641 19.4146ZM91.6012 22.0819C98.1817 20.9548 101.401 20.4033 109.641 19.4146L109.402 17.4288C101.116 18.4231 97.8603 18.9807 91.2636 20.1106L91.6012 22.0819ZM77.6814 24.4088C83.9575 23.391 88.2213 22.6608 91.6012 22.0819L91.2636 20.1106C87.8854 20.6892 83.6284 21.4183 77.3613 22.4346L77.6814 24.4088ZM31.0106 81.0682C35.9659 47.6198 53.7279 28.2931 77.6814 24.4088L77.3613 22.4346C52.3147 26.4962 34.0768 46.7241 29.0322 80.7751L31.0106 81.0682ZM25.9695 114.466C27.2073 106.386 28.8049 95.9563 31.0106 81.0682L29.0322 80.7751C26.8273 95.6582 25.2302 106.084 23.9925 114.163L25.9695 114.466ZM23.0354 134.144C23.8137 128.539 24.7025 122.737 25.9695 114.466L23.9925 114.163C22.7262 122.43 21.835 128.247 21.0544 133.869L23.0354 134.144ZM195.837 97.9634L21.8474 133.026L22.2425 134.986L196.232 99.924L195.837 97.9634ZM195.156 99.423C195.159 99.4286 195.165 99.4384 195.169 99.4455L196.899 98.442C196.895 98.4344 196.892 98.4295 196.887 98.4203L195.156 99.423ZM189.324 89.4322C191.549 93.2399 193.541 96.6495 195.157 99.4249L196.886 98.4185C195.269 95.6415 193.275 92.2304 191.05 88.4231L189.324 89.4322Z" fill="white"/>
<path opacity="0.2" d="M195.77 99L196.635 98.4988L196.276 97.878L195.573 98.0197L195.77 99ZM246.757 132.978L246.791 131.979L246.757 132.978ZM20.2574 145.978L21.2505 146.095L20.2574 145.978ZM21.7809 134.062L21.5834 133.082L20.888 133.222L20.7904 133.925L21.7809 134.062ZM194.905 99.5012C204.087 115.354 213.209 123.884 222.014 128.492C230.816 133.099 239.195 133.726 246.724 133.977L246.791 131.979C239.323 131.73 231.325 131.108 222.941 126.72C214.56 122.334 205.686 114.124 196.635 98.4988L194.905 99.5012ZM246.724 133.977C253.941 134.218 259.716 137.343 263.692 141.139C265.681 143.038 267.209 145.094 268.234 147.018C269.268 148.959 269.757 150.7 269.757 151.978H271.757C271.757 150.255 271.121 148.184 269.999 146.078C268.869 143.956 267.209 141.731 265.073 139.692C260.799 135.613 254.573 132.238 246.791 131.979L246.724 133.977ZM269.757 151.978V162.978H271.757V151.978H269.757ZM269.757 162.978C269.757 163.929 269.428 165.609 268.612 167.626C267.803 169.625 266.543 171.891 264.744 174.02C261.161 178.259 255.43 181.978 246.757 181.978V183.978C256.085 183.978 262.353 179.947 266.271 175.311C268.222 173.003 269.586 170.55 270.466 168.376C271.337 166.222 271.757 164.277 271.757 162.978H269.757ZM246.757 181.978H54.2574V183.978H246.757V181.978ZM54.2574 181.978C41.2846 181.978 32.5931 177.097 27.3648 170.246C22.1115 163.363 20.2753 154.384 21.2505 146.095L19.2642 145.861C18.2395 154.571 20.1532 164.093 25.7749 171.46C31.4216 178.859 40.7302 183.978 54.2574 183.978V181.978ZM21.2505 146.095C21.7624 141.744 22.2413 138.018 22.7714 134.2L20.7904 133.925C20.2583 137.757 19.7776 141.497 19.2642 145.861L21.2505 146.095ZM195.573 98.0197L21.5834 133.082L21.9785 135.043L195.968 99.9803L195.573 98.0197Z" fill="white"/>
<path opacity="0.2" d="M263.501 114.641C242.301 114.641 229.001 100.641 225.001 93.6412C219.952 86.2215 212.461 75.27 205.019 64.3928C196.247 51.5699 187.546 38.8502 183.001 32.1412C169.453 12.1413 141.501 1.64124 119.001 3.14124C101.989 4.27537 91.5513 5.25792 85.9588 5.78438C84.1546 5.95421 82.8547 6.07658 82.001 6.14125C45.501 8.9064 23.0009 40.1412 17.5009 55.6412C12.0796 70.9195 8.11569 106.601 3.69376 146.406L3.50094 148.141C-1.49906 193.141 31.5008 229.141 77.0008 229.141H1689.5C1735 229.141 1768 193.141 1763 148.141L1762.81 146.406L1762.81 146.401C1758.39 106.599 1754.42 70.919 1749 55.6413C1743.5 40.1413 1721 8.90641 1684.5 6.14126C1683.65 6.07658 1682.35 5.95422 1680.54 5.78438C1674.95 5.25793 1664.51 4.27538 1647.5 3.14125C1625 1.64125 1597.05 12.1413 1583.5 32.1413C1578.96 38.8495 1570.26 51.5672 1561.49 64.3887C1554.04 75.2673 1546.55 86.2206 1541.5 93.6412C1537.5 100.641 1524.2 114.641 1503 114.641L263.501 114.641Z" stroke="white" stroke-width="6"/>
<path opacity="0.2" d="M263.5 114.641C242.3 114.641 229 100.641 225 93.6412C219.951 86.2215 212.46 75.27 205.018 64.3928C196.246 51.5699 187.545 38.8502 183 32.1412C169.452 12.1413 141.5 1.64124 119 3.14124C101.988 4.27537 91.5503 5.25792 85.9578 5.78438C84.1536 5.95421 82.8537 6.07658 82 6.14125C45.5 8.9064 23 40.1412 17.5 55.6412C12.0787 70.9195 8.11475 106.601 3.69283 146.406L3.5 148.141C3.5 182.5 11.999 213.141 76.9998 213.141H1689.5C1744.5 213.141 1763 190.5 1763 148.141L1762.81 146.406L1762.81 146.401C1758.38 106.599 1754.42 70.919 1749 55.6413C1743.5 40.1413 1721 8.90641 1684.5 6.14126C1683.65 6.07658 1682.35 5.95422 1680.54 5.78438C1674.95 5.25793 1664.51 4.27538 1647.5 3.14125C1625 1.64125 1597.05 12.1413 1583.5 32.1413C1578.96 38.8495 1570.26 51.5672 1561.48 64.3887C1554.04 75.2673 1546.55 86.2206 1541.5 93.6412C1537.5 100.641 1524.2 114.641 1503 114.641L263.5 114.641Z" stroke="white"/>
<path opacity="0.2" d="M30 81.5C34.5 52 61.5 35.5 78 32C94.5 28.5 98 27.5 109 27.5C120 27.5 139 27.5 153 52C167 76.5 174 90 186 112.5C198 135 222.5 146.5 253.5 146.5H723M1737 81.5C1732.5 52 1705.5 35.5 1689 32C1672.5 28.5 1669 27.5 1658 27.5C1647 27.5 1628 27.5 1614 52C1600 76.5 1593 90 1581 112.5C1569 135 1544.5 146.5 1513.5 146.5H720.5" stroke="white"/>
<circle opacity="0.2" cx="466.5" cy="179.5" r="19.5" stroke="white" stroke-width="2"/>
<circle opacity="0.2" cx="399.5" cy="179.5" r="19.5" stroke="white" stroke-width="2"/>
<circle opacity="0.2" cx="583.5" cy="179.5" r="19.5" stroke="white" stroke-width="2"/>
<circle opacity="0.2" cx="583.5" cy="179.5" r="11" stroke="white"/>
<circle opacity="0.2" cx="1341" cy="180" r="20" stroke="white" stroke-width="2"/>
<circle opacity="0.2" cx="1265.5" cy="177.5" r="5" stroke="white"/>
<path opacity="0.2" d="M727.5 166C727.5 159.649 732.649 154.5 739 154.5C745.351 154.5 750.5 159.649 750.5 166V193C750.5 199.351 745.351 204.5 739 204.5C732.649 204.5 727.5 199.351 727.5 193V166Z" stroke="white"/>
<path opacity="0.2" d="M756.5 166C756.5 159.649 761.649 154.5 768 154.5C774.351 154.5 779.5 159.649 779.5 166V193C779.5 199.351 774.351 204.5 768 204.5C761.649 204.5 756.5 199.351 756.5 193V166Z" stroke="white"/>
<path opacity="0.2" d="M785.5 166C785.5 159.649 790.649 154.5 797 154.5C803.351 154.5 808.5 159.649 808.5 166V193C808.5 199.351 803.351 204.5 797 204.5C790.649 204.5 785.5 199.351 785.5 193V166Z" stroke="white"/>
<path opacity="0.2" d="M814.5 166C814.5 159.649 819.649 154.5 826 154.5C832.351 154.5 837.5 159.649 837.5 166V193C837.5 199.351 832.351 204.5 826 204.5C819.649 204.5 814.5 199.351 814.5 193V166Z" stroke="white"/>
<path opacity="0.2" d="M843.5 166C843.5 159.649 848.649 154.5 855 154.5C861.351 154.5 866.5 159.649 866.5 166V193C866.5 199.351 861.351 204.5 855 204.5C848.649 204.5 843.5 199.351 843.5 193V166Z" stroke="white"/>
<path opacity="0.2" d="M872.5 166C872.5 159.649 877.649 154.5 884 154.5C890.351 154.5 895.5 159.649 895.5 166V193C895.5 199.351 890.351 204.5 884 204.5C877.649 204.5 872.5 199.351 872.5 193V166Z" stroke="white"/>
<path opacity="0.2" d="M901.5 166C901.5 159.649 906.649 154.5 913 154.5C919.351 154.5 924.5 159.649 924.5 166V193C924.5 199.351 919.351 204.5 913 204.5C906.649 204.5 901.5 199.351 901.5 193V166Z" stroke="white"/>
<path opacity="0.2" d="M930.5 166C930.5 159.649 935.649 154.5 942 154.5C948.351 154.5 953.5 159.649 953.5 166V193C953.5 199.351 948.351 204.5 942 204.5C935.649 204.5 930.5 199.351 930.5 193V166Z" stroke="white"/>
<path opacity="0.2" d="M959.5 166C959.5 159.649 964.649 154.5 971 154.5C977.351 154.5 982.5 159.649 982.5 166V193C982.5 199.351 977.351 204.5 971 204.5C964.649 204.5 959.5 199.351 959.5 193V166Z" stroke="white"/>
<path opacity="0.2" d="M988.5 166C988.5 159.649 993.649 154.5 1000 154.5C1006.35 154.5 1011.5 159.649 1011.5 166V193C1011.5 199.351 1006.35 204.5 1000 204.5C993.649 204.5 988.5 199.351 988.5 193V166Z" stroke="white"/>
<path opacity="0.2" d="M1017.5 166C1017.5 159.649 1022.65 154.5 1029 154.5C1035.35 154.5 1040.5 159.649 1040.5 166V193C1040.5 199.351 1035.35 204.5 1029 204.5C1022.65 204.5 1017.5 199.351 1017.5 193V166Z" stroke="white"/>
<path opacity="0.2" d="M1205.5 169C1211.3 169 1216 173.701 1216 179.5C1216 185.299 1211.3 190 1205.5 190L1169.5 190C1163.7 190 1159 185.299 1159 179.5C1159 173.701 1163.7 169 1169.5 169L1205.5 169Z" stroke="white" stroke-width="2"/>
<path d="M195.772 99L198.368 97.4963L197.289 95.6339L195.179 96.0591L195.772 99ZM246.759 132.978L246.859 129.98H246.859L246.759 132.978ZM20.2593 145.978L23.2388 146.328L20.2593 145.978ZM21.7829 134.062L21.1902 131.122L19.1041 131.542L18.8114 133.65L21.7829 134.062ZM193.176 100.504C202.491 116.585 211.859 125.434 221.088 130.264C230.309 135.09 239.069 135.723 246.659 135.976L246.859 129.98C239.453 129.733 231.836 129.117 223.871 124.948C215.914 120.784 207.287 112.894 198.368 97.4963L193.176 100.504ZM246.659 135.976C253.311 136.198 258.634 139.074 262.313 142.586C264.155 144.344 265.551 146.231 266.471 147.959C267.417 149.735 267.759 151.145 267.759 151.978H273.759C273.759 149.811 272.976 147.408 271.766 145.138C270.531 142.818 268.738 140.424 266.456 138.245C261.884 133.882 255.208 130.258 246.859 129.98L246.659 135.976ZM267.759 151.978V162.978H273.759V151.978H267.759ZM267.759 162.978C267.759 163.581 267.52 164.995 266.759 166.876C266.022 168.7 264.866 170.778 263.218 172.729C259.971 176.571 254.777 179.978 246.759 179.978V185.978C256.741 185.978 263.548 181.634 267.801 176.602C269.902 174.115 271.372 171.475 272.322 169.126C273.248 166.835 273.759 164.624 273.759 162.978H267.759ZM246.759 179.978H54.2593V185.978H246.759V179.978ZM54.2593 179.978C41.8409 179.978 33.7665 175.335 28.9567 169.033C24.0717 162.632 22.313 154.197 23.2388 146.328L17.2799 145.627C16.2056 154.759 18.1969 164.824 24.187 172.673C30.2521 180.62 40.1777 185.978 54.2593 185.978V179.978ZM23.2388 146.328C23.7491 141.991 24.2262 138.278 24.7544 134.475L18.8114 133.65C18.2773 137.496 17.7948 141.25 17.2799 145.627L23.2388 146.328ZM195.179 96.0591L21.1902 131.122L22.3755 137.003L196.365 101.941L195.179 96.0591Z" fill="white"/>
<path d="M189.396 159V142.607L184.461 144.453V141.322L191.16 138.875H193.088V159H189.396Z" fill="white"/>
<path d="M169.846 159V139.094H173.537V156.102H182.082V159H169.846Z" fill="white"/>
<path d="M1571.99 99L1569.39 97.4963L1570.47 95.6339L1572.58 96.0591L1571.99 99ZM1521 132.978L1520.9 129.98H1520.9L1521 132.978ZM1747.5 145.978L1744.52 146.328L1747.5 145.978ZM1745.98 134.062L1746.57 131.122L1748.66 131.542L1748.95 133.65L1745.98 134.062ZM1574.59 100.504C1565.27 116.585 1555.9 125.434 1546.67 130.264C1537.45 135.09 1528.69 135.723 1521.1 135.976L1520.9 129.98C1528.31 129.733 1535.93 129.117 1543.89 124.948C1551.85 120.784 1560.47 112.894 1569.39 97.4963L1574.59 100.504ZM1521.1 135.976C1514.45 136.198 1509.13 139.074 1505.45 142.586C1503.61 144.344 1502.21 146.231 1501.29 147.959C1500.34 149.735 1500 151.145 1500 151.978H1494C1494 149.811 1494.79 147.408 1496 145.138C1497.23 142.818 1499.02 140.424 1501.31 138.245C1505.88 133.882 1512.55 130.258 1520.9 129.98L1521.1 135.976ZM1500 151.978V162.978H1494V151.978H1500ZM1500 162.978C1500 163.581 1500.24 164.995 1501 166.876C1501.74 168.7 1502.9 170.778 1504.54 172.729C1507.79 176.571 1512.98 179.978 1521 179.978V185.978C1511.02 185.978 1504.21 181.634 1499.96 176.602C1497.86 174.115 1496.39 171.475 1495.44 169.126C1494.51 166.835 1494 164.624 1494 162.978H1500ZM1521 179.978H1713.5V185.978H1521V179.978ZM1713.5 179.978C1725.92 179.978 1734 175.335 1738.81 169.033C1743.69 162.632 1745.45 154.197 1744.52 146.328L1750.48 145.627C1751.56 154.759 1749.56 164.824 1743.57 172.673C1737.51 180.62 1727.58 185.978 1713.5 185.978V179.978ZM1744.52 146.328C1744.01 141.991 1743.54 138.278 1743.01 134.475L1748.95 133.65C1749.48 137.496 1749.97 141.25 1750.48 145.627L1744.52 146.328ZM1572.58 96.0591L1746.57 131.122L1745.39 137.003L1571.4 101.941L1572.58 96.0591Z" fill="white"/>
<path d="M1593.56 159V142.607L1588.62 144.453V141.322L1595.32 138.875H1597.25V159H1593.56Z" fill="white"/>
<path d="M1571.85 159V139.094H1578.87C1581.01 139.094 1582.66 139.645 1583.85 140.748C1585.03 141.842 1585.63 143.327 1585.63 145.205C1585.63 147.101 1585.03 148.618 1583.82 149.758C1582.62 150.888 1580.96 151.453 1578.85 151.453H1575.54V159H1571.85ZM1575.54 148.76H1578.56C1579.81 148.76 1580.68 148.436 1581.18 147.789C1581.68 147.142 1581.94 146.308 1581.94 145.287C1581.94 144.266 1581.68 143.441 1581.18 142.812C1580.68 142.184 1579.81 141.869 1578.56 141.869H1575.54V148.76ZM1582.46 159L1577.94 149.922L1581.62 149.471L1586.56 159H1582.46Z" fill="white"/>
<g opacity="0.2">
<path d="M163.021 41.9217L161.713 42.6555L163.021 41.9217ZM190.187 88.9276L191.482 88.1708L190.187 88.9276ZM109.521 18.4217L109.7 19.911L109.521 18.4217ZM91.4324 21.0962L91.6856 22.5747L91.4324 21.0962ZM77.5214 23.4217L77.7615 24.9023L77.5214 23.4217ZM30.0214 80.9217L28.5376 80.7019L30.0214 80.9217ZM24.981 114.315L26.4637 114.542L24.981 114.315ZM22.0449 134.006L20.5592 133.8L20.2683 135.894L22.3412 135.477L22.0449 134.006ZM196.034 98.9437L196.33 100.414L198.381 100.001L197.332 98.1911L196.034 98.9437ZM196.021 98.9217L197.319 98.1697L197.318 98.1669L196.021 98.9217ZM161.713 42.6555C168.981 55.6119 180.567 75.4385 188.892 89.6844L191.482 88.1708C183.152 73.9156 171.582 54.1157 164.33 41.1878L161.713 42.6555ZM109.7 19.911C128.825 17.6159 151.73 24.8604 161.713 42.6555L164.33 41.1878C153.556 21.9829 129.217 14.5474 109.343 16.9324L109.7 19.911ZM91.6856 22.5747C98.2621 21.4483 101.473 20.8983 109.7 19.911L109.343 16.9324C101.045 17.9281 97.7799 18.4872 91.1792 19.6177L91.6856 22.5747ZM77.7615 24.9023C84.0397 23.8842 88.3053 23.1536 91.6856 22.5747L91.1792 19.6177C87.8014 20.1963 83.5462 20.9251 77.2813 21.941L77.7615 24.9023ZM31.5052 81.1415C36.4382 47.8437 54.0812 28.7424 77.7615 24.9023L77.2813 21.941C51.9614 26.0469 33.6045 46.5001 28.5376 80.7019L31.5052 81.1415ZM26.4637 114.542C27.7015 106.461 29.2993 96.0308 31.5052 81.1415L28.5376 80.7019C26.3328 95.5837 24.7359 106.008 23.4983 114.088L26.4637 114.542ZM23.5307 134.213C24.3083 128.612 25.1966 122.814 26.4637 114.542L23.4983 114.088C22.2321 122.353 21.3403 128.175 20.5592 133.8L23.5307 134.213ZM195.738 97.4733L21.7486 132.536L22.3412 135.477L196.33 100.414L195.738 97.4733ZM194.723 99.6737C194.726 99.6784 194.733 99.6893 194.737 99.6963L197.332 98.1911C197.327 98.1834 197.325 98.1797 197.319 98.1697L194.723 99.6737ZM188.892 89.6844C191.117 93.4923 193.109 96.9016 194.725 99.6765L197.318 98.1669C195.7 95.3895 193.707 91.978 191.482 88.1708L188.892 89.6844Z" fill="white"/>
<path d="M129.559 80V77.6484L136.449 69.9648C137.215 69.1081 137.821 68.3151 138.268 67.5859C138.714 66.8477 138.938 66.082 138.938 65.2891C138.938 64.4505 138.696 63.7806 138.213 63.2793C137.739 62.7689 137.074 62.5137 136.217 62.5137C135.351 62.5137 134.64 62.8008 134.084 63.375C133.528 63.9401 133.25 64.8288 133.25 66.041V66.3965H129.531V65.8633C129.531 64.0404 130.151 62.5638 131.391 61.4336C132.63 60.2943 134.243 59.7246 136.23 59.7246C138.29 59.7246 139.876 60.235 140.988 61.2559C142.109 62.2676 142.67 63.5573 142.67 65.125C142.67 66.4102 142.346 67.5586 141.699 68.5703C141.052 69.582 140.223 70.6393 139.211 71.7422L134.521 77.0332H143.135V80H129.559Z" fill="white"/>
<path d="M115.846 80V60.0938H119.537V77.1016H128.082V80H115.846Z" fill="white"/>
</g>
<g opacity="0.2">
<path d="M1604.74 41.9217L1606.04 42.6555L1604.74 41.9217ZM1577.57 88.9276L1576.28 88.1708L1577.57 88.9276ZM1658.24 18.4217L1658.06 19.911L1658.24 18.4217ZM1676.33 21.0962L1676.07 22.5747L1676.33 21.0962ZM1690.24 23.4217L1690 24.9023L1690.24 23.4217ZM1737.74 80.9217L1739.22 80.7019L1737.74 80.9217ZM1742.78 114.315L1741.29 114.542L1742.78 114.315ZM1745.71 134.006L1747.2 133.8L1747.49 135.894L1745.42 135.477L1745.71 134.006ZM1571.72 98.9437L1571.43 100.414L1569.38 100.001L1570.43 98.1911L1571.72 98.9437ZM1571.74 98.9217L1570.44 98.1697L1570.44 98.1669L1571.74 98.9217ZM1606.04 42.6555C1598.78 55.6119 1587.19 75.4385 1578.87 89.6844L1576.28 88.1708C1584.61 73.9156 1596.18 54.1157 1603.43 41.1878L1606.04 42.6555ZM1658.06 19.911C1638.93 17.6159 1616.03 24.8604 1606.04 42.6555L1603.43 41.1878C1614.2 21.9829 1638.54 14.5474 1658.42 16.9324L1658.06 19.911ZM1676.07 22.5747C1669.5 21.4483 1666.29 20.8983 1658.06 19.911L1658.42 16.9324C1666.71 17.9281 1669.98 18.4872 1676.58 19.6177L1676.07 22.5747ZM1690 24.9023C1683.72 23.8842 1679.45 23.1536 1676.07 22.5747L1676.58 19.6177C1679.96 20.1963 1684.21 20.9251 1690.48 21.941L1690 24.9023ZM1736.25 81.1415C1731.32 47.8437 1713.68 28.7424 1690 24.9023L1690.48 21.941C1715.8 26.0469 1734.15 46.5001 1739.22 80.7019L1736.25 81.1415ZM1741.29 114.542C1740.06 106.461 1738.46 96.0308 1736.25 81.1415L1739.22 80.7019C1741.42 95.5837 1743.02 106.008 1744.26 114.088L1741.29 114.542ZM1744.23 134.213C1743.45 128.612 1742.56 122.814 1741.29 114.542L1744.26 114.088C1745.53 122.353 1746.42 128.175 1747.2 133.8L1744.23 134.213ZM1572.02 97.4733L1746.01 132.536L1745.42 135.477L1571.43 100.414L1572.02 97.4733ZM1573.03 99.6737C1573.03 99.6784 1573.03 99.6893 1573.02 99.6963L1570.43 98.1911C1570.43 98.1834 1570.43 98.1797 1570.44 98.1697L1573.03 99.6737ZM1578.87 89.6844C1576.64 93.4923 1574.65 96.9016 1573.03 99.6765L1570.44 98.1669C1572.06 95.3895 1574.05 91.978 1576.28 88.1708L1578.87 89.6844Z" fill="white"/>
<path d="M1639.72 80V77.6484L1646.61 69.9648C1647.38 69.1081 1647.98 68.3151 1648.43 67.5859C1648.87 66.8477 1649.1 66.082 1649.1 65.2891C1649.1 64.4505 1648.86 63.7806 1648.37 63.2793C1647.9 62.7689 1647.23 62.5137 1646.38 62.5137C1645.51 62.5137 1644.8 62.8008 1644.24 63.375C1643.69 63.9401 1643.41 64.8288 1643.41 66.041V66.3965H1639.69V65.8633C1639.69 64.0404 1640.31 62.5638 1641.55 61.4336C1642.79 60.2943 1644.4 59.7246 1646.39 59.7246C1648.45 59.7246 1650.04 60.235 1651.15 61.2559C1652.27 62.2676 1652.83 63.5573 1652.83 65.125C1652.83 66.4102 1652.51 67.5586 1651.86 68.5703C1651.21 69.582 1650.38 70.6393 1649.37 71.7422L1644.68 77.0332H1653.29V80H1639.72Z" fill="white"/>
<path d="M1623.85 80V60.0938H1630.87C1633.01 60.0938 1634.66 60.6452 1635.85 61.748C1637.03 62.8418 1637.63 64.3275 1637.63 66.2051C1637.63 68.1009 1637.03 69.6185 1635.82 70.7578C1634.62 71.888 1632.96 72.4531 1630.85 72.4531H1627.54V80H1623.85ZM1627.54 69.7598H1630.56C1631.81 69.7598 1632.68 69.4362 1633.18 68.7891C1633.68 68.1419 1633.94 67.3079 1633.94 66.2871C1633.94 65.2663 1633.68 64.4414 1633.18 63.8125C1632.68 63.1836 1631.81 62.8691 1630.56 62.8691H1627.54V69.7598ZM1634.46 80L1629.94 70.9219L1633.62 70.4707L1638.56 80H1634.46Z" fill="white"/>
</g>
</svg>
