<svg width="1550" height="275" viewBox="0 0 1550 275" fill="none" xmlns="http://www.w3.org/2000/svg">
<path d="M26.2032 214.475C13.7012 214.475 11.3982 204.858 11.8095 200.05C8.38225 183.564 1.85676 146.718 3.17275 131.221C4.81774 111.85 8.93097 88.3579 30.7271 59.9197C52.5233 31.4815 71.852 11.2863 113.388 4.69195C154.924 -1.90241 210.031 10.8742 250.745 41.3731C288.406 69.5856 336.934 89.1822 431.283 89.1822H1118.72C1213.07 89.1822 1261.59 69.5856 1299.26 41.3731C1339.97 10.8742 1395.08 -1.90241 1436.61 4.69195C1478.15 11.2863 1497.48 31.4815 1519.27 59.9197C1541.07 88.3579 1545.18 111.85 1546.83 131.221C1548.14 146.718 1541.62 183.564 1538.19 200.05C1538.6 204.858 1536.3 214.475 1523.8 214.475H26.2032Z" stroke="white" stroke-width="6"/>
<path d="M151.423 191.719H219.915C224.057 191.719 227.415 188.361 227.415 184.219V152.329H58.0997C58.0993 152.332 58.0989 152.336 58.0985 152.339C58.0651 152.63 58.0202 153.059 57.9749 153.605C57.8843 154.699 57.7919 156.263 57.7855 158.141C57.7728 161.901 58.105 166.901 59.477 171.891C60.8491 176.882 63.2529 181.834 67.3619 185.537C71.4615 189.23 77.3007 191.719 85.6234 191.719H85.821H86.0185H86.216H86.4134H86.6109H86.8082H87.0055H87.2028H87.4H87.5972H87.7943H87.9914H88.1884H88.3854H88.5823H88.7791H88.9759H89.1726H89.3693H89.5659H89.7624H89.9589H90.1553H90.3516H90.5479H90.7441H90.9402H91.1362H91.3322H91.5281H91.7239H91.9196H92.1153H92.3108H92.5063H92.7017H92.897H93.0923H93.2874H93.4824H93.6774H93.8722H94.067H94.2617H94.4562H94.6507H94.8451H95.0393H95.2335H95.4276H95.6215H95.8154H96.0091H96.2028H96.3963H96.5897H96.783H96.9761H97.1692H97.3622H97.555H97.7477H97.9403H98.1327H98.3251H98.5173H98.7093H98.9013H99.0931H99.2848H99.4764H99.6678H99.8591H100.05H100.241H100.432H100.623H100.813H101.004H101.194H101.384H101.574H101.764H101.954H102.143H102.333H102.522H102.711H102.9H103.089H103.277H103.466H103.654H103.842H104.03H104.218H104.406H104.593H104.78H104.968H105.154H105.341H105.528H105.714H105.9H106.087H106.272H106.458H106.644H106.829H107.014H107.199H107.384H107.568H107.753H107.937H108.121H108.305H108.488H108.671H108.855H109.038H109.22H109.403H109.585H109.767H109.949H110.131H110.313H110.494H110.675H110.856H111.037H111.217H111.397H111.577H111.757H111.937H112.116H112.295H112.474H112.653H112.831H113.009H113.187H113.365H113.542H113.72H113.897H114.073H114.25H114.426H114.602H114.778H114.953H115.129H115.304H115.479H115.653H115.827H116.001H116.175H116.349H116.522H116.695H116.868H117.04H117.212H117.384H117.556H117.727H117.898H118.069H118.24H118.41H118.58H118.75H118.919H119.089H119.258H119.426H119.595H119.763H119.93H120.098H120.265H120.432H120.599H120.765H120.931H121.097H121.262H121.427H121.592H121.757H121.921H122.085H122.248H122.412H122.575H122.737H122.9H123.062H123.224H123.385H123.546H123.707H123.868H124.028H124.188H124.347H124.506H124.665H124.824H124.982H125.14H125.297H125.455H125.611H125.768H125.924H126.08H126.236H126.391H126.546H126.7H126.854H127.008H127.162H127.315H127.468H127.62H127.772H127.924H128.075H128.226H128.377H128.527H128.677H128.827H128.976H129.125H129.273H129.421H129.569H129.716H129.863H130.01H130.156H130.302H130.447H130.592H130.737H130.881H131.025H131.169H131.312H131.455H131.597H131.739H131.881H132.022H132.163H132.303H132.444H132.583H132.722H132.861H133H133.138H133.275H133.413H133.549H133.686H133.822H133.957H134.093H134.227H134.362H134.496H134.629H134.762H134.895H135.027H135.159H135.29H135.421H135.552H135.682H135.812H135.941H136.07H136.198H136.326H136.454H136.581H136.707H136.833H136.959H137.085H137.209H137.334H137.458H137.581H137.704H137.827H137.949H138.071H138.192H138.313H138.433H138.553H138.672H138.791H138.91H139.028H139.145H139.262H139.379H139.495H139.611H139.726H139.841H139.955H140.069H140.182H140.295H140.407H140.519H140.63H140.741H140.851H140.961H141.071H141.179H141.288H141.396H141.503H141.61H141.716H141.822H141.928H142.033H142.137H142.241H142.344H142.447H142.55H142.651H142.753H142.854H142.954H143.054H143.153H143.252H143.35H143.448H143.545H143.642H143.738H143.833H143.928H144.023H144.117H144.211H144.303H144.396H144.488H144.579H144.67H144.76H144.85H144.939H145.028H145.116H145.203H145.29H145.377H145.463H145.548H145.633H145.717H145.801H145.884H145.966H146.048H146.13H146.211H146.291H146.371H146.45H146.528H146.606H146.684H146.761H146.837H146.913H146.988H147.063H147.137H147.21H147.283H147.355H147.427H147.498H147.568H147.638H147.707H147.776H147.844H147.912H147.979H148.045H148.111H148.176H148.24H148.304H148.367H148.43H148.492H148.554H148.615H148.675H148.735H148.794H148.852H148.91H148.967H149.024H149.079H149.135H149.189H149.244H149.297H149.35H149.402H149.454H149.504H149.555H149.604H149.653H149.702H149.75H149.797H149.843H149.889H149.934H149.979H150.022H150.066H150.108H150.15H150.191H150.232H150.272H150.311H150.35H150.388H150.425H150.462H150.498H150.533H150.568H150.602H150.635H150.668H150.7H150.731H150.762H150.792H150.821H150.85H150.878H150.905H150.932H150.958H150.983H151.007H151.031H151.054H151.077H151.099H151.12H151.14H151.16H151.179H151.197H151.214H151.231H151.248H151.263H151.278H151.292H151.305H151.318H151.33H151.341H151.351H151.361H151.37H151.379H151.386H151.393H151.399H151.405H151.41H151.414H151.417H151.419H151.421H151.422C151.423 191.719 151.423 191.719 151.423 192.219V191.719Z" stroke="white"/>
<path d="M217.464 159.099H59.6121C59.6652 163.309 60.1817 168.781 61.9963 173.985C63.864 179.341 67.0712 184.319 72.4833 187.422H212.384C215.187 187.422 217.464 185.144 217.464 182.328V159.099Z" stroke="white" stroke-width="3"/>
<path d="M59.3401 124.215L62.6301 138.64H229.597C230.145 133.832 231.489 120.011 232.476 103.195C233.463 86.3796 237.274 67.8879 239.056 60.744C240.289 58.6832 242.017 51.924 239.056 41.373C236.095 30.8221 215.066 26.5357 204.922 25.7114C201.906 21.3152 192.996 12.4403 181.481 8.81337C167.087 4.27975 133.365 8.81337 103.755 20.7657C74.145 32.7179 72.0892 41.373 66.7426 56.6225C61.6153 71.2463 58.6547 107.317 59.3401 124.215Z" stroke="white"/>
<path d="M59.752 123.391H218.494C219.316 109.378 220.057 76.6531 216.438 57.8591C211.914 34.3667 197.931 18.293 176.958 12.1107C155.984 5.92853 107.457 19.9416 83.6044 34.7789C64.5224 46.6487 59.752 98.7991 59.752 123.391Z" stroke="white" stroke-width="3"/>
<path d="M1399.22 191.719H1330.73C1326.58 191.719 1323.23 188.361 1323.23 184.219V152.329H1492.54C1492.54 152.332 1492.54 152.336 1492.54 152.339C1492.58 152.63 1492.62 153.059 1492.67 153.605C1492.76 154.699 1492.85 156.263 1492.86 158.141C1492.87 161.901 1492.54 166.901 1491.16 171.891C1489.79 176.882 1487.39 181.834 1483.28 185.537C1479.18 189.23 1473.34 191.719 1465.02 191.719H1464.82H1464.62H1464.42H1464.23H1464.03H1463.83H1463.64H1463.44H1463.24H1463.04H1462.85H1462.65H1462.45H1462.26H1462.06H1461.86H1461.66H1461.47H1461.27H1461.07H1460.88H1460.68H1460.49H1460.29H1460.09H1459.9H1459.7H1459.5H1459.31H1459.11H1458.92H1458.72H1458.53H1458.33H1458.13H1457.94H1457.74H1457.55H1457.35H1457.16H1456.96H1456.77H1456.57H1456.38H1456.18H1455.99H1455.8H1455.6H1455.41H1455.21H1455.02H1454.83H1454.63H1454.44H1454.24H1454.05H1453.86H1453.66H1453.47H1453.28H1453.09H1452.89H1452.7H1452.51H1452.32H1452.12H1451.93H1451.74H1451.55H1451.36H1451.16H1450.97H1450.78H1450.59H1450.4H1450.21H1450.02H1449.83H1449.64H1449.45H1449.26H1449.07H1448.88H1448.69H1448.5H1448.31H1448.12H1447.93H1447.74H1447.55H1447.36H1447.17H1446.99H1446.8H1446.61H1446.42H1446.23H1446.05H1445.86H1445.67H1445.49H1445.3H1445.11H1444.93H1444.74H1444.55H1444.37H1444.18H1444H1443.81H1443.63H1443.44H1443.26H1443.07H1442.89H1442.7H1442.52H1442.34H1442.15H1441.97H1441.79H1441.6H1441.42H1441.24H1441.06H1440.87H1440.69H1440.51H1440.33H1440.15H1439.97H1439.78H1439.6H1439.42H1439.24H1439.06H1438.88H1438.7H1438.52H1438.35H1438.17H1437.99H1437.81H1437.63H1437.45H1437.28H1437.1H1436.92H1436.74H1436.57H1436.39H1436.21H1436.04H1435.86H1435.69H1435.51H1435.34H1435.16H1434.99H1434.81H1434.64H1434.47H1434.29H1434.12H1433.95H1433.77H1433.6H1433.43H1433.26H1433.08H1432.91H1432.74H1432.57H1432.4H1432.23H1432.06H1431.89H1431.72H1431.55H1431.38H1431.21H1431.05H1430.88H1430.71H1430.54H1430.38H1430.21H1430.04H1429.88H1429.71H1429.54H1429.38H1429.21H1429.05H1428.88H1428.72H1428.56H1428.39H1428.23H1428.07H1427.9H1427.74H1427.58H1427.42H1427.26H1427.09H1426.93H1426.77H1426.61H1426.45H1426.29H1426.13H1425.98H1425.82H1425.66H1425.5H1425.34H1425.19H1425.03H1424.87H1424.72H1424.56H1424.4H1424.25H1424.09H1423.94H1423.79H1423.63H1423.48H1423.33H1423.17H1423.02H1422.87H1422.72H1422.57H1422.41H1422.26H1422.11H1421.96H1421.81H1421.66H1421.52H1421.37H1421.22H1421.07H1420.92H1420.78H1420.63H1420.48H1420.34H1420.19H1420.05H1419.9H1419.76H1419.62H1419.47H1419.33H1419.19H1419.04H1418.9H1418.76H1418.62H1418.48H1418.34H1418.2H1418.06H1417.92H1417.78H1417.64H1417.5H1417.37H1417.23H1417.09H1416.95H1416.82H1416.68H1416.55H1416.41H1416.28H1416.14H1416.01H1415.88H1415.75H1415.61H1415.48H1415.35H1415.22H1415.09H1414.96H1414.83H1414.7H1414.57H1414.44H1414.31H1414.19H1414.06H1413.93H1413.81H1413.68H1413.56H1413.43H1413.31H1413.18H1413.06H1412.94H1412.81H1412.69H1412.57H1412.45H1412.33H1412.21H1412.09H1411.97H1411.85H1411.73H1411.61H1411.5H1411.38H1411.26H1411.15H1411.03H1410.91H1410.8H1410.69H1410.57H1410.46H1410.35H1410.23H1410.12H1410.01H1409.9H1409.79H1409.68H1409.57H1409.46H1409.35H1409.24H1409.14H1409.03H1408.92H1408.82H1408.71H1408.61H1408.5H1408.4H1408.3H1408.19H1408.09H1407.99H1407.89H1407.79H1407.69H1407.59H1407.49H1407.39H1407.29H1407.19H1407.1H1407H1406.9H1406.81H1406.71H1406.62H1406.52H1406.43H1406.34H1406.24H1406.15H1406.06H1405.97H1405.88H1405.79H1405.7H1405.61H1405.52H1405.44H1405.35H1405.26H1405.18H1405.09H1405.01H1404.92H1404.84H1404.76H1404.67H1404.59H1404.51H1404.43H1404.35H1404.27H1404.19H1404.11H1404.03H1403.96H1403.88H1403.8H1403.73H1403.65H1403.58H1403.5H1403.43H1403.36H1403.29H1403.21H1403.14H1403.07H1403H1402.93H1402.86H1402.8H1402.73H1402.66H1402.6H1402.53H1402.46H1402.4H1402.34H1402.27H1402.21H1402.15H1402.09H1402.03H1401.97H1401.91H1401.85H1401.79H1401.73H1401.67H1401.62H1401.56H1401.51H1401.45H1401.4H1401.34H1401.29H1401.24H1401.19H1401.14H1401.09H1401.04H1400.99H1400.94H1400.89H1400.84H1400.8H1400.75H1400.71H1400.66H1400.62H1400.57H1400.53H1400.49H1400.45H1400.41H1400.37H1400.33H1400.29H1400.25H1400.22H1400.18H1400.14H1400.11H1400.07H1400.04H1400.01H1399.97H1399.94H1399.91H1399.88H1399.85H1399.82H1399.79H1399.76H1399.74H1399.71H1399.68H1399.66H1399.63H1399.61H1399.59H1399.56H1399.54H1399.52H1399.5H1399.48H1399.46H1399.44H1399.43H1399.41H1399.39H1399.38H1399.36H1399.35H1399.34H1399.32H1399.31H1399.3H1399.29H1399.28H1399.27H1399.26H1399.25H1399.25H1399.24H1399.24H1399.23H1399.23H1399.22H1399.22H1399.22H1399.22C1399.22 191.719 1399.22 191.719 1399.22 192.219V191.719Z" stroke="white"/>
<path d="M1333.17 159.099H1491.03C1490.97 163.309 1490.46 168.781 1488.64 173.985C1486.77 179.341 1483.57 184.319 1478.16 187.422H1338.25C1335.45 187.422 1333.17 185.144 1333.17 182.328V159.099Z" stroke="white" stroke-width="3"/>
<path d="M1374.78 182.265V166.573L1370.06 168.34V165.343L1376.47 163H1378.32V182.265H1374.78Z" fill="white"/>
<path d="M1354 182.265V163.209H1360.73C1362.77 163.209 1364.36 163.737 1365.49 164.793C1366.63 165.84 1367.19 167.262 1367.19 169.06C1367.19 170.874 1366.62 172.327 1365.46 173.418C1364.31 174.5 1362.73 175.041 1360.7 175.041H1357.53V182.265H1354ZM1357.53 172.462H1360.43C1361.62 172.462 1362.46 172.153 1362.94 171.533C1363.42 170.914 1363.66 170.115 1363.66 169.138C1363.66 168.161 1363.42 167.371 1362.94 166.769C1362.46 166.167 1361.62 165.866 1360.43 165.866H1357.53V172.462ZM1364.16 182.265L1359.84 173.575L1363.36 173.143L1368.08 182.265H1364.16Z" fill="white"/>
<path d="M1491.3 124.215L1488.01 138.64H1321.04C1320.49 133.832 1319.15 120.011 1318.16 103.195C1317.18 86.3796 1313.37 67.8879 1311.58 60.744C1310.35 58.6832 1308.62 51.924 1311.58 41.373C1314.54 30.8221 1335.57 26.5357 1345.72 25.7114C1348.73 21.3152 1357.64 12.4403 1369.16 8.81337C1383.55 4.27975 1417.27 8.81337 1446.88 20.7657C1476.49 32.7179 1478.55 41.373 1483.9 56.6225C1489.02 71.2463 1491.98 107.317 1491.3 124.215Z" stroke="white"/>
<path d="M1490.89 123.391H1332.14C1331.32 109.378 1330.58 76.6531 1334.2 57.8591C1338.72 34.3667 1352.71 18.293 1373.68 12.1107C1394.65 5.92853 1443.18 19.9416 1467.03 34.7789C1486.12 46.6487 1490.89 98.7991 1490.89 123.391Z" stroke="white" stroke-width="3"/>
<rect x="0.5" y="-0.5" width="24.4974" height="39.3905" rx="12.2487" transform="matrix(1 0 0 -1 357.496 178.03)" stroke="white"/>
<rect x="0.5" y="-0.5" width="24.4974" height="39.3905" rx="12.2487" transform="matrix(1 0 0 -1 392.041 178.03)" stroke="white"/>
<rect x="0.5" y="-0.5" width="24.4974" height="39.3905" rx="12.2487" transform="matrix(1 0 0 -1 426.586 178.03)" stroke="white"/>
<rect x="0.5" y="-0.5" width="24.4974" height="39.3905" rx="12.2487" transform="matrix(1 0 0 -1 461.131 178.03)" stroke="white"/>
<rect x="0.5" y="-0.5" width="24.4974" height="39.3905" rx="12.2487" transform="matrix(1 0 0 -1 495.676 178.03)" stroke="white"/>
<rect x="0.5" y="-0.5" width="24.4974" height="39.3905" rx="12.2487" transform="matrix(1 0 0 -1 529.398 178.03)" stroke="white"/>
<rect x="0.5" y="-0.5" width="24.4974" height="39.3905" rx="12.2487" transform="matrix(1 0 0 -1 563.943 178.03)" stroke="white"/>
<rect x="0.5" y="-0.5" width="24.4974" height="39.3905" rx="12.2487" transform="matrix(1 0 0 -1 598.488 178.03)" stroke="white"/>
<rect x="0.5" y="-0.5" width="24.4974" height="39.3905" rx="12.2487" transform="matrix(1 0 0 -1 633.033 178.03)" stroke="white"/>
<rect x="0.5" y="-0.5" width="24.4974" height="39.3905" rx="12.2487" transform="matrix(1 0 0 -1 666.756 178.03)" stroke="white"/>
<path d="M701.801 169.222C701.801 174.363 705.968 178.53 711.109 178.53C714.304 178.53 717.275 176.892 718.981 174.191L722.038 169.349C726.092 162.926 726.092 154.744 722.038 148.322L718.981 143.479C717.275 140.778 714.304 139.14 711.109 139.14C705.968 139.14 701.801 143.307 701.801 148.448V169.222Z" stroke="white"/>
<path d="M248.604 182.114C248.604 187.418 252.907 191.719 258.212 191.719C264.125 191.719 269.728 189.063 273.468 184.484C279.392 177.233 279.392 166.814 273.468 159.563C269.728 154.985 264.125 152.329 258.212 152.329C252.907 152.329 248.604 156.629 248.604 161.934V182.114Z" stroke="white"/>
<path d="M1302.04 182.114C1302.04 187.418 1297.74 191.719 1292.44 191.719C1286.52 191.719 1280.92 189.063 1277.18 184.484C1271.26 177.233 1271.26 166.814 1277.18 159.563C1280.92 154.985 1286.52 152.329 1292.44 152.329C1297.74 152.329 1302.04 156.629 1302.04 161.934V182.114Z" stroke="white"/>
<path d="M347.949 169.222C347.949 174.363 343.782 178.53 338.641 178.53C335.446 178.53 332.475 176.892 330.769 174.191L327.712 169.349C323.658 162.926 323.658 154.744 327.712 148.322L330.769 143.479C332.475 140.778 335.446 139.14 338.641 139.14C343.782 139.14 347.949 143.307 347.949 148.448V169.222Z" stroke="white"/>
<path d="M230.42 124.215H1319.82" stroke="white"/>
<rect x="0.5" y="-0.5" width="50.8173" height="17.9588" rx="8.97939" transform="matrix(1 0 0 -1 772.035 169.787)" stroke="white"/>
<rect x="0.5" y="-0.5" width="50.8173" height="17.9588" rx="8.97939" transform="matrix(1 0 0 -1 873.201 169.787)" stroke="white"/>
<rect x="0.5" y="-0.5" width="118.262" height="22.0803" rx="11.0401" transform="matrix(1 0 0 -1 1017.96 169.787)" stroke="white"/>
<rect x="0.5" y="-0.5" width="88.6522" height="32.7961" rx="16.3981" transform="matrix(1 0 0 -1 1166.83 173.084)" stroke="white"/>
<path d="M1301.64 224.909C1299.75 224.649 1298.43 223.015 1298.43 221.102V214.475H1439.08V221.022C1439.08 222.971 1437.71 224.633 1435.79 224.885C1432.09 225.368 1425.27 226.015 1415.23 226.015C1405.35 226.015 1398.9 225.389 1395.4 224.909C1393.51 224.649 1392.2 223.015 1392.2 221.102V221.022C1392.2 222.971 1390.83 224.633 1388.9 224.885C1385.21 225.368 1378.39 226.015 1368.35 226.015C1358.46 226.015 1352.02 225.389 1348.52 224.909C1346.63 224.649 1345.32 223.015 1345.32 221.102V221.022C1345.32 222.971 1343.95 224.633 1342.02 224.885C1338.33 225.368 1331.51 226.015 1321.46 226.015C1311.58 226.015 1305.13 225.389 1301.64 224.909Z" stroke="white" stroke-width="2"/>
<rect width="101.99" height="31.3232" rx="15.6616" transform="matrix(1 0 0 -1 1317.35 273)" stroke="white" stroke-width="3"/>
<rect width="99.5221" height="30.4989" rx="15.2495" transform="matrix(1 0 0 -1 133.365 272.176)" stroke="white" stroke-width="3"/>
<path d="M1396.31 241.677H1342.03V224.885C1343.95 224.63 1345.32 222.97 1345.32 221.022V221.102C1345.32 223.015 1346.63 224.649 1348.52 224.909C1352.02 225.389 1358.46 226.015 1368.35 226.015C1378.39 226.015 1385.21 225.368 1388.9 224.885C1390.83 224.633 1392.2 222.971 1392.2 221.022V221.102C1392.2 223.015 1393.51 224.649 1395.4 224.909C1395.69 224.948 1395.99 224.987 1396.31 225.028V241.677Z" stroke="white"/>
<path d="M109.513 216.948L108.279 214.475H255.917L248.104 219.421H121.028L117.738 216.948H109.513Z" stroke="white"/>
<rect width="55.1073" height="22.256" transform="matrix(1 0 0 -1 156.396 241.677)" stroke="white"/>
<path d="M183.449 221.31L183.537 221.302L183.625 221.31L241.64 226.382C242.809 226.485 243.814 225.563 243.814 224.39V220.009H124.496V224.384C124.496 225.559 125.504 226.481 126.674 226.376L183.449 221.31Z" stroke="white" stroke-width="2"/>
<path d="M1369.19 109.409V107.158L1375.79 99.8026C1376.52 98.9825 1377.1 98.2234 1377.53 97.5254C1377.96 96.8187 1378.17 96.0857 1378.17 95.3267C1378.17 94.524 1377.94 93.8827 1377.48 93.4028C1377.02 92.9142 1376.39 92.6699 1375.57 92.6699C1374.74 92.6699 1374.06 92.9447 1373.53 93.4944C1372.99 94.0353 1372.73 94.886 1372.73 96.0465V96.3868H1369.17V95.8763C1369.17 94.1313 1369.76 92.7179 1370.95 91.636C1372.13 90.5453 1373.68 90 1375.58 90C1377.55 90 1379.07 90.4886 1380.14 91.4658C1381.21 92.4343 1381.75 93.6689 1381.75 95.1696C1381.75 96.3998 1381.44 97.4992 1380.82 98.4677C1380.2 99.4362 1379.4 100.448 1378.43 101.504L1373.94 106.569H1382.19V109.409H1369.19Z" fill="white"/>
<path d="M1354 109.409V90.3535H1360.73C1362.77 90.3535 1364.36 90.8814 1365.49 91.9371C1366.63 92.9841 1367.19 94.4063 1367.19 96.2037C1367.19 98.0185 1366.62 99.4712 1365.46 100.562C1364.31 101.644 1362.73 102.185 1360.7 102.185H1357.53V109.409H1354ZM1357.53 99.6065H1360.43C1361.62 99.6065 1362.46 99.2967 1362.94 98.6772C1363.42 98.0578 1363.66 97.2594 1363.66 96.2822C1363.66 95.305 1363.42 94.5154 1362.94 93.9133C1362.46 93.3113 1361.62 93.0103 1360.43 93.0103H1357.53V99.6065ZM1364.16 109.409L1359.84 100.719L1363.36 100.287L1368.08 109.409H1364.16Z" fill="white"/>
<path d="M184.128 109.409V107.158L190.724 99.8026C191.457 98.9825 192.037 98.2234 192.465 97.5254C192.892 96.8187 193.106 96.0857 193.106 95.3267C193.106 94.524 192.875 93.8827 192.412 93.4028C191.958 92.9142 191.322 92.6699 190.501 92.6699C189.673 92.6699 188.992 92.9447 188.46 93.4944C187.928 94.0353 187.661 94.886 187.661 96.0465V96.3868H184.102V95.8763C184.102 94.1313 184.695 92.7179 185.881 91.636C187.068 90.5453 188.612 90 190.514 90C192.486 90 194.005 90.4886 195.069 91.4658C196.142 92.4343 196.679 93.6689 196.679 95.1696C196.679 96.3998 196.369 97.4992 195.75 98.4677C195.13 99.4362 194.336 100.448 193.368 101.504L188.879 106.569H197.124V109.409H184.128Z" fill="white"/>
<path d="M171 109.409V90.3535H174.534V106.635H182.713V109.409H171Z" fill="white"/>
<path d="M193.588 182.265V166.573L188.863 168.34V165.343L195.276 163H197.122V182.265H193.588Z" fill="white"/>
<path d="M174.873 182.265V163.209H178.407V179.49H186.586V182.265H174.873Z" fill="white"/>
</svg>
