<svg width="1549" height="662" viewBox="0 0 1549 662" fill="none" xmlns="http://www.w3.org/2000/svg">
<path opacity="0.2" d="M288.453 11.4819C161.295 11.4819 106.869 37.7941 66.9653 81.7849C10.801 143.701 7.43721 231.856 6.55969 271.315C6.17483 288.621 5.57637 306.061 4.97925 323.462C0.46946 454.885 -3.96348 584.069 84.2853 635.986C111.823 652.186 145.563 662.709 184.219 657.776C204.867 655.14 225.665 650.942 247.833 646.467C294.217 637.104 346.6 626.53 416.165 626.53C450.877 626.53 502.449 625.966 558.253 625.356C623.725 624.64 695.021 623.861 751.747 623.854V624.063C758.835 623.985 766.399 623.931 774.365 623.897C782.332 623.931 789.895 623.985 796.983 624.063V623.854C853.709 623.861 925.005 624.64 990.477 625.356C1046.28 625.966 1097.85 626.53 1132.57 626.53C1202.13 626.53 1254.51 637.104 1300.9 646.467C1323.07 650.942 1343.86 655.14 1364.51 657.776C1403.17 662.709 1436.91 652.186 1464.44 635.986C1552.69 584.069 1548.26 454.885 1543.75 323.462C1543.15 306.061 1542.56 288.62 1542.17 271.315C1541.29 231.856 1537.93 143.701 1481.76 81.7849C1441.86 37.7941 1387.43 11.4819 1260.28 11.4819H288.453Z" stroke="white"/>
<path opacity="0.2" d="M226.99 13.9475L221.416 2.80435C220.81 1.59157 219.538 0.870459 218.19 1.01936C201.952 2.81279 164.485 9.68226 127.468 25.0495C90.5986 40.3549 67.3792 61.3213 59.148 71.2567C58.3942 72.1665 58.2516 73.4115 58.7137 74.4987L63.4882 85.7293C64.6241 84.4034 65.783 83.0885 66.9652 81.7852C99.7475 45.6456 142.331 21.4373 226.99 13.9475Z" stroke="white"/>
<path opacity="0.2" d="M1321.74 13.9475L1327.31 2.80435C1327.92 1.59157 1329.19 0.870459 1330.54 1.01936C1346.78 2.81279 1384.25 9.68226 1421.26 25.0495C1458.13 40.3549 1481.35 61.3213 1489.58 71.2567C1490.34 72.1665 1490.48 73.4115 1490.02 74.4987L1485.24 85.7293C1484.11 84.4034 1482.95 83.0885 1481.77 81.7852C1448.98 45.6456 1406.4 21.4373 1321.74 13.9475Z" stroke="white"/>
<path opacity="0.2" d="M248.053 5.72654C248.053 5.09465 248.565 4.58203 249.198 4.58203H275.518C276.15 4.58203 276.663 5.09465 276.663 5.72654V11.0601C266.667 11.1944 257.14 11.5014 248.053 11.9769V5.72654Z" stroke="white"/>
<path opacity="0.2" d="M1300.68 5.72654C1300.68 5.09465 1300.17 4.58203 1299.53 4.58203H1273.21C1272.58 4.58203 1272.07 5.09465 1272.07 5.72654V11.0601C1282.07 11.1944 1291.59 11.5014 1300.68 11.9769V5.72654Z" stroke="white"/>
<path opacity="0.2" d="M529.149 10.9824H413.4C413.652 8.31432 415.899 6.22656 418.634 6.22656H523.915C526.65 6.22656 528.897 8.31432 529.149 10.9824Z" stroke="white"/>
<path opacity="0.2" d="M288.723 11.4819C161.565 11.4819 107.139 37.7941 67.2348 81.7849C11.0705 143.701 7.70674 231.856 6.82922 271.315C6.44437 288.621 5.8459 306.061 5.24878 323.462C0.738991 454.885 -3.69395 584.069 84.5548 635.986C112.093 652.186 145.832 662.709 184.489 657.776C205.137 655.14 225.934 650.942 248.102 646.467C294.486 637.104 346.869 626.53 416.434 626.53C451.147 626.53 502.719 625.966 558.523 625.356C623.994 624.64 695.29 623.861 752.017 623.854V624.063C759.105 623.985 766.668 623.931 774.635 623.897C782.601 623.931 790.164 623.985 797.252 624.063V623.854C853.979 623.861 925.275 624.64 990.746 625.356C1046.55 625.966 1098.12 626.53 1132.83 626.53C1202.4 626.53 1254.78 637.104 1301.17 646.467C1323.33 650.942 1344.13 655.14 1364.78 657.776C1403.44 662.709 1437.18 652.186 1464.71 635.986C1552.96 584.069 1548.53 454.885 1544.02 323.462C1543.42 306.061 1542.82 288.62 1542.44 271.315C1541.56 231.856 1538.2 143.701 1482.03 81.7849C1442.13 37.7941 1387.7 11.4819 1260.55 11.4819H288.723Z" stroke="white" stroke-width="6"/>
<path opacity="0.2" d="M292.915 11.4819C167.072 11.4819 113.21 37.7941 73.7184 81.7849C18.1349 143.701 12.0295 249.936 12.0295 289.405C12.0295 292.757 11.9405 297.039 11.835 302.11C10.6993 356.735 7.65818 503 93.4568 567.327C155.969 614.196 188.046 626.53 331.161 626.53C364.055 626.53 425.108 626.013 493.552 625.434C582.156 624.683 683.145 623.828 751.461 623.854V624.063C758.194 623.988 765.773 623.935 774.079 623.901C782.385 623.935 789.964 623.988 796.697 624.063V623.854C865.013 623.828 966.003 624.683 1054.61 625.434C1123.05 626.013 1184.1 626.53 1217 626.53C1360.11 626.53 1392.19 614.196 1454.7 567.327C1540.5 503 1537.46 356.735 1536.32 302.11C1536.22 297.039 1536.13 292.757 1536.13 289.405C1536.13 249.936 1530.02 143.701 1474.44 81.7849C1434.95 37.7941 1381.09 11.4819 1255.24 11.4819H292.915Z" stroke="white"/>
<path opacity="0.2" d="M299.098 11.4819C174.904 11.4819 121.748 37.5479 82.7739 81.127C27.919 142.464 21.8936 247.705 21.8936 286.804C21.8936 290.125 21.8057 294.366 21.7017 299.39C20.5808 353.504 17.5795 498.401 102.254 562.126C163.947 608.555 195.603 620.774 336.842 620.774C369.305 620.774 429.558 620.262 497.104 619.688C584.547 618.945 684.212 618.098 751.633 618.123V618.33C758.278 618.256 765.758 618.204 773.955 618.17C782.152 618.204 789.631 618.256 796.276 618.33V618.123C863.697 618.098 963.363 618.945 1050.81 619.688C1118.35 620.262 1178.6 620.774 1211.07 620.774C1352.31 620.774 1383.96 608.555 1445.66 562.126C1530.33 498.401 1527.33 353.504 1526.21 299.39C1526.1 294.366 1526.02 290.125 1526.02 286.804C1526.02 247.705 1519.99 142.464 1465.14 81.127C1426.16 37.5479 1373.01 11.4819 1248.81 11.4819H299.098Z" stroke="white"/>
<rect opacity="0.2" x="329.48" y="39.1167" width="888.948" height="558.134" stroke="white"/>
<rect opacity="0.2" x="1282.76" y="106.542" width="169.258" height="363.26" rx="84.629" stroke="white"/>
<path d="M1391.65 145.5C1391.65 158.251 1381.31 168.589 1368.56 168.589C1355.8 168.589 1345.46 158.251 1345.46 145.5C1345.46 132.749 1355.8 122.411 1368.56 122.411C1381.31 122.411 1391.65 132.749 1391.65 145.5Z" stroke="white" stroke-width="6"/>
<path d="M1391.65 235.837C1391.65 248.588 1381.31 258.926 1368.56 258.926C1355.8 258.926 1345.46 248.588 1345.46 235.837C1345.46 223.087 1355.8 212.749 1368.56 212.749C1381.31 212.749 1391.65 223.087 1391.65 235.837Z" stroke="white" stroke-width="6"/>
<path d="M1437.62 189.89C1437.62 202.641 1427.28 212.979 1414.52 212.979C1401.76 212.979 1391.42 202.641 1391.42 189.89C1391.42 177.139 1401.76 166.801 1414.52 166.801C1427.28 166.801 1437.62 177.139 1437.62 189.89Z" stroke="white" stroke-width="6"/>
<path d="M1346.47 189.89C1346.47 202.641 1336.13 212.979 1323.38 212.979C1310.62 212.979 1300.28 202.641 1300.28 189.89C1300.28 177.139 1310.62 166.801 1323.38 166.801C1336.13 166.801 1346.47 177.139 1346.47 189.89Z" stroke="white" stroke-width="6"/>
<path d="M1366.15 156.792V149.92L1357.89 136.86H1363.52L1368.12 144.992C1368.24 145.211 1368.36 145.453 1368.49 145.717C1368.62 145.982 1368.74 146.247 1368.85 146.511H1368.95C1369.06 146.247 1369.17 145.982 1369.28 145.717C1369.4 145.453 1369.52 145.211 1369.64 144.992L1374.31 136.86H1379.28L1371.24 149.797V156.792H1366.15Z" fill="white"/>
<path d="M1356.96 245.572L1365.46 225.572H1370.85L1379.38 245.572H1373.71L1368.66 232.034C1368.49 231.568 1368.34 231.126 1368.2 230.706C1368.07 230.277 1367.94 229.898 1367.83 229.57H1367.72C1367.61 229.898 1367.5 230.281 1367.37 230.719C1367.24 231.148 1367.08 231.586 1366.9 232.034L1361.85 245.572H1356.96ZM1361.34 241.52L1362.49 238.262H1373.46L1374.64 241.52H1361.34Z" fill="white"/>
<path d="M1406.18 200.403V180.472H1415.68C1418.18 180.472 1420.08 180.887 1421.41 181.717C1422.73 182.539 1423.39 183.807 1423.39 185.523C1423.39 186.673 1423.13 187.618 1422.6 188.357C1422.08 189.087 1421.38 189.602 1420.52 189.904V189.958C1421.65 190.223 1422.54 190.762 1423.19 191.574C1423.84 192.377 1424.17 193.467 1424.17 194.845C1424.17 196.662 1423.44 198.044 1421.97 198.993C1420.5 199.933 1418.54 200.403 1416.09 200.403H1406.18ZM1411.19 197.337H1415.4C1416.63 197.337 1417.55 197.091 1418.15 196.598C1418.76 196.096 1419.07 195.352 1419.07 194.366C1419.07 193.426 1418.76 192.71 1418.15 192.217C1417.55 191.724 1416.63 191.478 1415.4 191.478H1411.19V197.337ZM1411.19 188.877H1415C1416.19 188.877 1417.07 188.658 1417.61 188.22C1418.17 187.773 1418.45 187.12 1418.45 186.262C1418.45 185.386 1418.18 184.729 1417.63 184.291C1417.08 183.853 1416.2 183.634 1415 183.634H1411.19V188.877Z" fill="white"/>
<path d="M1313.57 200.403L1321.84 189.151H1322.94L1328.69 180.472H1333.56L1325.95 191.341L1324.84 191.355L1318.58 200.403H1313.57ZM1313.72 180.472H1319.75L1325.68 189.028H1325.74L1334.22 200.403H1328.09L1321.8 191.478L1321.77 191.464L1313.72 180.472Z" fill="white"/>
<rect opacity="0.2" x="98.3574" y="109.831" width="169.258" height="363.26" rx="84.629" stroke="white"/>
<g opacity="0.2">
<path d="M247.165 189.131C247.165 225.223 217.898 254.481 181.794 254.481C145.691 254.481 116.424 225.223 116.424 189.131C116.424 153.039 145.691 123.78 181.794 123.78C217.898 123.78 247.165 153.039 247.165 189.131Z" stroke="white" stroke-width="0.941764"/>
<path d="M233.996 189.13C233.996 217.952 210.625 241.317 181.794 241.317C152.964 241.317 129.592 217.952 129.592 189.13C129.592 160.309 152.964 136.944 181.794 136.944C210.625 136.944 233.996 160.309 233.996 189.13Z" stroke="white" stroke-width="0.941764"/>
<path d="M222.898 189.13C222.898 211.823 204.496 230.22 181.795 230.22C159.094 230.22 140.691 211.823 140.691 189.13C140.691 166.437 159.094 148.04 181.795 148.04C204.496 148.04 222.898 166.437 222.898 189.13Z" stroke="white" stroke-width="3"/>
<path d="M206.885 189.13C206.885 202.983 195.652 214.213 181.794 214.213C167.937 214.213 156.703 202.983 156.703 189.13C156.703 175.277 167.937 164.047 181.794 164.047C195.652 164.047 206.885 175.277 206.885 189.13Z" stroke="white" stroke-width="0.941764"/>
</g>
<g opacity="0.2">
<path d="M1432.39 384.827C1432.39 420.92 1403.12 450.178 1367.02 450.178C1330.92 450.178 1301.65 420.92 1301.65 384.827C1301.65 348.735 1330.92 319.477 1367.02 319.477C1403.12 319.477 1432.39 348.735 1432.39 384.827Z" stroke="white" stroke-width="0.941764"/>
<path d="M1419.22 384.827C1419.22 413.649 1395.85 437.014 1367.02 437.014C1338.19 437.014 1314.82 413.649 1314.82 384.827C1314.82 356.006 1338.19 332.641 1367.02 332.641C1395.85 332.641 1419.22 356.006 1419.22 384.827Z" stroke="white" stroke-width="0.941764"/>
<path d="M1408.12 384.827C1408.12 407.52 1389.72 425.917 1367.02 425.917C1344.32 425.917 1325.92 407.52 1325.92 384.827C1325.92 362.134 1344.32 343.736 1367.02 343.736C1389.72 343.736 1408.12 362.134 1408.12 384.827Z" stroke="white" stroke-width="3"/>
<path d="M1392.11 384.827C1392.11 398.68 1380.88 409.91 1367.02 409.91C1353.16 409.91 1341.93 398.68 1341.93 384.827C1341.93 370.974 1353.16 359.743 1367.02 359.743C1380.88 359.743 1392.11 370.974 1392.11 384.827Z" stroke="white" stroke-width="0.941764"/>
</g>
<g opacity="0.2">
<path d="M240.691 405.357C242.312 405.357 243.762 404.323 244.21 402.765C245.851 397.056 246.731 391.024 246.731 384.787C246.731 378.55 245.851 372.518 244.21 366.809C243.762 365.251 242.312 364.217 240.691 364.217H204.213C203.173 364.217 202.329 363.373 202.329 362.333V325.868C202.329 324.246 201.295 322.796 199.737 322.349C194.026 320.708 187.992 319.829 181.753 319.829C175.514 319.829 169.48 320.708 163.769 322.349C162.211 322.796 161.177 324.246 161.177 325.868V362.333C161.177 363.373 160.334 364.217 159.293 364.217H122.815C121.194 364.217 119.744 365.251 119.296 366.809C117.655 372.518 116.775 378.55 116.775 384.787C116.775 391.024 117.655 397.056 119.296 402.765C119.744 404.323 121.194 405.357 122.815 405.357H159.293C160.334 405.357 161.177 406.2 161.177 407.241V443.706C161.177 445.327 162.211 446.777 163.769 447.225C169.48 448.866 175.514 449.745 181.753 449.745C187.992 449.745 194.026 448.866 199.737 447.225C201.295 446.777 202.329 445.327 202.329 443.706V407.241C202.329 406.2 203.173 405.357 204.213 405.357H240.691Z" stroke="white" stroke-width="3"/>
<path d="M182.546 336.464V351.516M182.546 419.643V434.694M131.832 384.787H148.473M216.62 384.787H231.676" stroke="white" stroke-width="2"/>
</g>
<rect opacity="0.2" x="-0.296473" y="0.641878" width="53.3482" height="97.1461" rx="26.6741" transform="matrix(0.345529 0.938408 -0.938475 0.345348 257.459 486.712)" stroke="white"/>
<rect opacity="0.2" x="0.296473" y="0.641878" width="53.3482" height="97.1461" rx="26.6741" transform="matrix(-0.345529 0.938408 0.938475 0.345348 1290.97 486.155)" stroke="white"/>
<path opacity="0.2" fill-rule="evenodd" clip-rule="evenodd" d="M1325.6 521.597L1325.6 521.599C1327.01 523.389 1327.85 525.657 1327.85 528.123C1327.85 530.626 1326.99 532.925 1325.54 534.727L1325.42 534.883L1325.38 534.685C1325.35 534.518 1325.32 534.348 1325.28 534.177C1324.56 530.953 1322.2 528.188 1318.32 525.949C1315.7 524.442 1314.2 522.626 1313.81 520.564C1313.55 519.23 1313.74 517.89 1314.11 516.743C1314.47 515.595 1315.02 514.634 1315.48 514.056L1316.99 512.183C1317.25 511.855 1317.75 511.855 1318.01 512.183L1325.6 521.597ZM1327.99 519.727L1317.87 507.18C1317.68 506.94 1317.32 506.94 1317.13 507.18L1307.01 519.726L1306.98 519.768C1305.11 522.112 1304 525.089 1304 528.331C1304 535.88 1310.04 542 1317.5 542C1324.96 542 1331 535.88 1331 528.331C1331 525.089 1329.89 522.112 1328.02 519.768L1327.99 519.727ZM1309.43 521.557L1310.33 520.434L1310.36 520.641C1310.38 520.805 1310.41 520.97 1310.44 521.136C1311.03 524.252 1313.12 526.85 1316.62 528.862C1319.66 530.616 1321.43 532.634 1321.94 534.847C1322.15 535.771 1322.19 536.679 1322.09 537.474L1322.09 537.523L1322.04 537.544C1320.67 538.224 1319.13 538.606 1317.5 538.606C1311.78 538.606 1307.15 533.913 1307.15 528.123C1307.15 525.638 1308 523.354 1309.43 521.557Z" fill="white"/>
<path fill-rule="evenodd" clip-rule="evenodd" d="M240.15 503.191C230.159 503.191 222.055 511.29 222.055 521.281C222.055 531.272 230.159 539.371 240.15 539.371C250.14 539.371 258.245 531.272 258.245 521.281C258.245 511.29 250.14 503.191 240.15 503.191ZM232 515H248.25V516.857H232V515ZM232 520.571H248.25V522.428H232V520.571ZM232 526.143H248.25V528H232V526.143Z" fill="white"/>
<path opacity="0.2" d="M1356.7 511.003L1338.19 560.749" stroke="white" stroke-width="0.5"/>
<path fill-rule="evenodd" clip-rule="evenodd" d="M199.847 517.992C189.856 517.992 181.752 526.091 181.752 536.082C181.752 546.072 189.856 554.171 199.847 554.171C209.838 554.171 217.942 546.072 217.942 536.082C217.942 526.091 209.838 517.992 199.847 517.992ZM191.125 530.125H201.978V533.092H203.103V529H190V538.353H194.587V537.228H191.125V530.125ZM209 534H196V544H209V534ZM207.875 535.125H197.125V542.875H207.875V535.125Z" fill="white"/>
<path opacity="0.2" d="M1354 536.111L1366 533V536.889L1354 540V536.111Z" fill="white"/>
<path opacity="0.2" d="M1354 545.111L1366 542V545.889L1354 549V545.111Z" fill="white"/>
</svg>
