<svg width="1553" height="662" viewBox="0 0 1553 662" fill="none" xmlns="http://www.w3.org/2000/svg">
<path d="M68.9937 98.8125C68.9937 100.456 68.171 101.004 67.7597 102.1C75.5751 116.072 93.6741 101.689 105.603 97.169C118.617 92.2374 216.254 62.239 227.36 58.9515C238.466 55.6639 245.87 48.678 241.757 38.4044C238.466 30.1856 233.53 19.3642 231.473 14.9808C231.473 14.9808 219.544 8.40576 216.254 5.52918C212.963 2.65259 205.559 1.41955 187.871 1.00861C170.183 0.597666 137.276 14.9806 114.241 27.3088C91.2061 39.637 66.1143 63.0607 63.2349 65.9372C60.3555 68.8138 58.2988 70.4576 58.2988 73.7451C58.2988 76.3751 61.5896 82.649 63.2349 85.2517L67.3483 86.4845C67.7597 89.909 68.9937 97.1687 68.9937 98.8125Z" stroke="white" stroke-width="2"/>
<path d="M1482.28 98.8125C1482.28 100.456 1483.1 101.004 1483.51 102.1C1475.69 116.072 1457.6 101.689 1445.67 97.169C1432.65 92.2374 1335.02 62.239 1323.91 58.9515C1312.8 55.6639 1305.4 48.678 1309.51 38.4044C1312.8 30.1856 1317.74 19.3642 1319.8 14.9808C1319.8 14.9808 1331.73 8.40576 1335.02 5.52918C1338.31 2.65259 1345.71 1.41955 1363.4 1.00861C1381.09 0.597666 1413.99 14.9806 1437.03 27.3088C1460.06 39.637 1485.16 63.0607 1488.03 65.9372C1490.91 68.8138 1492.97 70.4576 1492.97 73.7451C1492.97 76.3751 1489.68 82.649 1488.03 85.2517L1483.92 86.4845C1483.51 89.909 1482.28 97.1687 1482.28 98.8125Z" stroke="white" stroke-width="2"/>
<path d="M1025.36 9.22765C1023.09 9.22765 1021.25 11.0672 1021.25 13.3371H1137.25V10.8714C1137.25 9.96365 1136.51 9.22765 1135.6 9.22765H1025.36Z" stroke="white" stroke-width="2"/>
<path d="M1275.46 9.22765C1274.55 9.22765 1273.81 9.96365 1273.81 10.8714V15.9608C1284.46 16.7394 1294.6 17.672 1304.25 18.7331V10.8714C1304.25 9.96365 1303.51 9.22765 1302.6 9.22765H1275.46Z" stroke="white" stroke-width="2"/>
<path d="M1167.68 10.0495C1166.77 10.0495 1166.04 10.7855 1166.04 11.6933V13.3371H1198.12C1218.73 13.3371 1237.89 13.8652 1255.71 14.8179V11.6933C1255.71 10.7855 1254.98 10.0495 1254.07 10.0495H1167.68Z" stroke="white" stroke-width="2"/>
<path d="M251.603 11.4597C251.363 11.7447 251.219 12.1131 251.219 12.5152V18.4658C260.877 17.4344 271.015 16.5323 281.658 15.7842V12.5152C281.658 11.6074 280.922 10.8714 280.013 10.8714H252.864C252.358 10.8714 251.905 11.1002 251.603 11.4597Z" stroke="white" stroke-width="2"/>
<path fill-rule="evenodd" clip-rule="evenodd" d="M96.4045 54.8704C138.402 38.417 211.671 12.9261 354.876 12.9261H1198.12C1341.33 12.9261 1414.6 38.417 1456.6 54.8704C1477.73 63.1518 1496.71 87.5303 1511.63 121.97C1526.57 156.434 1537.47 201.064 1542.41 249.998C1552.29 347.828 1556.4 411.155 1530.07 546.816C1523.08 582.798 1508.79 607.934 1490.13 625.147C1471.48 642.359 1448.5 651.623 1424.18 655.915C1375.56 664.495 1321.52 653.23 1285.77 645.78L1285.75 645.774L1285.71 645.767C1281.44 644.877 1277.44 644.042 1273.73 643.301C1207.96 630.161 1105.23 627.693 972.708 627.693H580.292C447.766 627.693 345.038 630.161 279.271 643.301C275.563 644.042 271.553 644.878 267.28 645.768L267.226 645.78C231.485 653.23 177.436 664.495 128.824 655.915C104.502 651.623 81.5185 642.359 62.8661 625.147C44.2112 607.934 29.9189 582.798 22.9333 546.816C-3.4046 411.155 0.711777 347.828 10.5866 249.998C15.5259 201.064 26.4345 156.434 41.3661 121.97C56.2875 87.5303 75.2664 63.1518 96.4045 54.8704ZM354.876 13.748C211.789 13.748 138.621 39.2138 96.7049 55.6356C75.8863 63.7918 57.0219 87.9043 42.1211 122.297C27.2305 156.666 16.338 201.21 11.4051 250.08C1.53564 347.858 -2.57727 411.1 23.7409 546.66C30.6991 582.5 44.9193 607.468 63.4243 624.544C81.9318 641.621 104.756 650.833 128.967 655.106C177.41 663.656 231.318 652.425 267.086 644.969C271.368 644.077 275.39 643.239 279.11 642.495C344.972 629.336 447.787 626.872 580.292 626.872H972.708C1105.21 626.872 1208.03 629.336 1273.89 642.495C1277.61 643.239 1281.63 644.077 1285.91 644.969C1321.68 652.425 1375.59 663.656 1424.03 655.106C1448.24 650.833 1471.07 641.621 1489.58 624.544C1508.08 607.468 1522.3 582.5 1529.26 546.66C1555.58 411.1 1551.46 347.858 1541.59 250.08C1536.66 201.21 1525.77 156.666 1510.88 122.297C1495.98 87.9043 1477.11 63.7918 1456.3 55.6356C1414.38 39.2138 1341.21 13.748 1198.12 13.748H354.876Z" fill="white"/>
<path d="M67.7612 102.1C73.8145 112.922 86.0368 106.734 96.7833 101.293C99.9115 99.7088 102.915 98.1882 105.604 97.169C118.619 92.2374 216.255 62.239 227.361 58.9515C238.467 55.664 245.872 48.678 241.758 38.4044C239.466 32.68 236.376 25.693 234.016 20.4982C267.54 16.1451 307.355 13.3371 354.877 13.3371H1198.12C1244.88 13.3371 1284.17 16.0549 1317.35 20.2879C1314.98 25.5034 1311.84 32.6024 1309.51 38.4044C1305.4 48.678 1312.81 55.664 1323.91 58.9515C1335.02 62.239 1432.65 92.2374 1445.67 97.169C1448.36 98.1882 1451.36 99.7088 1454.49 101.293C1465.24 106.734 1477.46 112.922 1483.51 102.1L1492.64 87.6498C1517.03 123.313 1535.19 182.569 1542 250.039C1551.88 347.843 1555.99 411.128 1529.66 546.738C1501.78 690.382 1357.34 660.277 1285.83 645.372L1285.82 645.369C1281.54 644.478 1277.52 643.641 1273.81 642.898C1208 629.748 1105.22 627.283 972.709 627.283H580.292C447.777 627.283 345.006 629.748 279.191 642.898C275.475 643.641 271.457 644.478 267.178 645.37L267.171 645.372C195.662 660.277 51.2256 690.382 23.3379 546.738C-2.99016 411.128 1.12448 347.843 10.9967 250.039C17.7301 183.33 35.5627 124.65 59.5344 88.8655L67.7612 102.1Z" stroke="white" stroke-width="5"/>
</svg>
