<svg width="1549" height="662" viewBox="0 0 1549 662" fill="none" xmlns="http://www.w3.org/2000/svg">
<path d="M288.453 11.4824C161.295 11.4824 106.869 37.7946 66.9653 81.7854C10.801 143.702 7.43721 231.857 6.55969 271.315C6.17483 288.621 5.57637 306.061 4.97925 323.463C0.46946 454.886 -3.96348 584.069 84.2853 635.986C111.823 652.187 145.563 662.71 184.219 657.776C204.867 655.141 225.665 650.943 247.833 646.468C294.217 637.104 346.6 626.53 416.165 626.53C450.877 626.53 502.449 625.967 558.253 625.357C623.725 624.641 695.021 623.861 751.747 623.854V624.064C758.835 623.986 766.399 623.931 774.365 623.897C782.332 623.931 789.895 623.986 796.983 624.064V623.854C853.709 623.861 925.005 624.641 990.477 625.357C1046.28 625.967 1097.85 626.53 1132.57 626.53C1202.13 626.53 1254.51 637.104 1300.9 646.468C1323.07 650.943 1343.86 655.141 1364.51 657.776C1403.17 662.71 1436.91 652.187 1464.44 635.986C1552.69 584.069 1548.26 454.885 1543.75 323.462C1543.15 306.061 1542.56 288.621 1542.17 271.315C1541.29 231.857 1537.93 143.702 1481.76 81.7854C1441.86 37.7946 1387.43 11.4824 1260.28 11.4824H288.453Z" stroke="white"/>
<path d="M226.99 13.9475L221.416 2.80435C220.81 1.59157 219.538 0.870459 218.19 1.01936C201.952 2.81279 164.485 9.68226 127.468 25.0495C90.5986 40.3549 67.3792 61.3213 59.148 71.2567C58.3942 72.1665 58.2516 73.4115 58.7137 74.4987L63.4882 85.7293C64.6241 84.4034 65.783 83.0885 66.9652 81.7852C99.7475 45.6456 142.331 21.4373 226.99 13.9475Z" stroke="white"/>
<path d="M1321.74 13.9475L1327.31 2.80435C1327.92 1.59157 1329.19 0.870459 1330.54 1.01936C1346.78 2.81279 1384.25 9.68226 1421.26 25.0495C1458.13 40.3549 1481.35 61.3213 1489.58 71.2567C1490.34 72.1665 1490.48 73.4115 1490.02 74.4987L1485.24 85.7293C1484.11 84.4034 1482.95 83.0885 1481.77 81.7852C1448.98 45.6456 1406.4 21.4373 1321.74 13.9475Z" stroke="white"/>
<path d="M248.053 5.72654C248.053 5.09465 248.565 4.58203 249.198 4.58203H275.518C276.15 4.58203 276.663 5.09465 276.663 5.72654V11.0601C266.667 11.1944 257.14 11.5014 248.053 11.9769V5.72654Z" stroke="white"/>
<path d="M1300.68 5.72654C1300.68 5.09465 1300.17 4.58203 1299.53 4.58203H1273.21C1272.58 4.58203 1272.07 5.09465 1272.07 5.72654V11.0601C1282.07 11.1944 1291.59 11.5014 1300.68 11.9769V5.72654Z" stroke="white"/>
<path d="M529.149 10.9824H413.4C413.652 8.31432 415.899 6.22656 418.634 6.22656H523.915C526.65 6.22656 528.897 8.31432 529.149 10.9824Z" stroke="white"/>
<path d="M288.723 11.4824C161.565 11.4824 107.139 37.7946 67.2348 81.7854C11.0705 143.702 7.70674 231.857 6.82922 271.315C6.44437 288.621 5.8459 306.061 5.24878 323.463C0.738991 454.886 -3.69395 584.069 84.5548 635.986C112.093 652.187 145.832 662.71 184.489 657.776C205.137 655.141 225.934 650.943 248.102 646.468C294.486 637.104 346.869 626.53 416.434 626.53C451.147 626.53 502.719 625.967 558.523 625.357C623.994 624.641 695.29 623.861 752.017 623.854V624.064C759.105 623.986 766.668 623.931 774.635 623.897C782.601 623.931 790.164 623.986 797.252 624.064V623.854C853.979 623.861 925.275 624.641 990.746 625.357C1046.55 625.967 1098.12 626.53 1132.83 626.53C1202.4 626.53 1254.78 637.104 1301.17 646.468C1323.33 650.943 1344.13 655.141 1364.78 657.776C1403.44 662.71 1437.18 652.187 1464.71 635.986C1552.96 584.069 1548.53 454.885 1544.02 323.462C1543.42 306.061 1542.82 288.621 1542.44 271.315C1541.56 231.857 1538.2 143.702 1482.03 81.7854C1442.13 37.7946 1387.7 11.4824 1260.55 11.4824H288.723Z" stroke="white" stroke-width="6"/>
<path d="M292.915 11.4824C167.072 11.4824 113.21 37.7946 73.7184 81.7854C18.1349 143.702 12.0295 249.937 12.0295 289.405C12.0295 292.758 11.9405 297.039 11.835 302.11C10.6993 356.736 7.65818 503.001 93.4568 567.328C155.969 614.196 188.046 626.53 331.161 626.53C364.055 626.53 425.108 626.013 493.552 625.434C582.156 624.684 683.145 623.829 751.461 623.855V624.064C758.194 623.989 765.773 623.936 774.079 623.902C782.385 623.936 789.964 623.989 796.697 624.064V623.855C865.013 623.829 966.003 624.684 1054.61 625.434C1123.05 626.013 1184.1 626.53 1217 626.53C1360.11 626.53 1392.19 614.196 1454.7 567.328C1540.5 503.001 1537.46 356.736 1536.32 302.11C1536.22 297.039 1536.13 292.758 1536.13 289.405C1536.13 249.937 1530.02 143.702 1474.44 81.7854C1434.95 37.7946 1381.09 11.4824 1255.24 11.4824H292.915Z" stroke="white"/>
<path d="M299.098 11.4824C174.904 11.4824 121.748 37.5484 82.7739 81.1274C27.919 142.464 21.8936 247.705 21.8936 286.804C21.8936 290.126 21.8057 294.367 21.7017 299.39C20.5808 353.505 17.5795 498.401 102.254 562.126C163.947 608.556 195.603 620.775 336.842 620.775C369.305 620.775 429.558 620.263 497.104 619.688C584.547 618.945 684.212 618.098 751.633 618.124V618.331C758.278 618.257 765.758 618.204 773.955 618.17C782.152 618.204 789.631 618.257 796.276 618.331V618.124C863.697 618.098 963.363 618.945 1050.81 619.688C1118.35 620.263 1178.6 620.775 1211.07 620.775C1352.31 620.775 1383.96 608.556 1445.66 562.126C1530.33 498.401 1527.33 353.505 1526.21 299.39C1526.1 294.367 1526.02 290.126 1526.02 286.804C1526.02 247.705 1519.99 142.464 1465.14 81.1274C1426.16 37.5484 1373.01 11.4824 1248.81 11.4824H299.098Z" stroke="white"/>
<rect x="329.48" y="39.1162" width="888.948" height="558.134" stroke="white"/>
<rect x="1282.76" y="106.542" width="169.258" height="363.26" rx="84.629" stroke="white"/>
<path d="M1393.65 145.5C1393.65 159.356 1382.42 170.589 1368.56 170.589C1354.7 170.589 1343.46 159.356 1343.46 145.5C1343.46 131.644 1354.7 120.411 1368.56 120.411C1382.42 120.411 1393.65 131.644 1393.65 145.5Z" stroke="white" stroke-width="2"/>
<path d="M1393.65 235.838C1393.65 249.694 1382.42 260.927 1368.56 260.927C1354.7 260.927 1343.46 249.694 1343.46 235.838C1343.46 221.982 1354.7 210.749 1368.56 210.749C1382.42 210.749 1393.65 221.982 1393.65 235.838Z" stroke="white" stroke-width="2"/>
<path d="M1439.62 189.891C1439.62 203.747 1428.38 214.979 1414.52 214.979C1400.66 214.979 1389.42 203.747 1389.42 189.891C1389.42 176.035 1400.66 164.802 1414.52 164.802C1428.38 164.802 1439.62 176.035 1439.62 189.891Z" stroke="white" stroke-width="2"/>
<path d="M1348.47 189.891C1348.47 203.747 1337.24 214.979 1323.38 214.979C1309.52 214.979 1298.28 203.747 1298.28 189.891C1298.28 176.035 1309.52 164.802 1323.38 164.802C1337.24 164.802 1348.47 176.035 1348.47 189.891Z" stroke="white" stroke-width="2"/>
<path d="M1366.15 156.793V149.921L1357.89 136.861H1363.52L1368.12 144.993C1368.24 145.212 1368.36 145.454 1368.49 145.718C1368.62 145.983 1368.74 146.248 1368.85 146.512H1368.95C1369.06 146.248 1369.17 145.983 1369.28 145.718C1369.4 145.454 1369.52 145.212 1369.64 144.993L1374.31 136.861H1379.28L1371.24 149.798V156.793H1366.15Z" fill="white"/>
<path d="M1356.96 245.572L1365.46 225.572H1370.85L1379.38 245.572H1373.71L1368.66 232.034C1368.49 231.568 1368.34 231.126 1368.2 230.706C1368.07 230.277 1367.94 229.898 1367.83 229.57H1367.72C1367.61 229.898 1367.5 230.281 1367.37 230.719C1367.24 231.148 1367.08 231.586 1366.9 232.034L1361.85 245.572H1356.96ZM1361.34 241.52L1362.49 238.262H1373.46L1374.64 241.52H1361.34Z" fill="white"/>
<path d="M1406.18 200.404V180.473H1415.68C1418.18 180.473 1420.08 180.888 1421.41 181.718C1422.73 182.54 1423.39 183.808 1423.39 185.524C1423.39 186.674 1423.13 187.618 1422.6 188.358C1422.08 189.088 1421.38 189.603 1420.52 189.905V189.959C1421.65 190.224 1422.54 190.762 1423.19 191.575C1423.84 192.378 1424.17 193.468 1424.17 194.846C1424.17 196.663 1423.44 198.045 1421.97 198.994C1420.5 199.934 1418.54 200.404 1416.09 200.404H1406.18ZM1411.19 197.338H1415.4C1416.63 197.338 1417.55 197.092 1418.15 196.599C1418.76 196.097 1419.07 195.353 1419.07 194.367C1419.07 193.427 1418.76 192.711 1418.15 192.218C1417.55 191.725 1416.63 191.479 1415.4 191.479H1411.19V197.338ZM1411.19 188.878H1415C1416.19 188.878 1417.07 188.659 1417.61 188.221C1418.17 187.774 1418.45 187.121 1418.45 186.263C1418.45 185.387 1418.18 184.73 1417.63 184.292C1417.08 183.854 1416.2 183.635 1415 183.635H1411.19V188.878Z" fill="white"/>
<path d="M1313.57 200.404L1321.84 189.152H1322.94L1328.69 180.473H1333.56L1325.95 191.342L1324.84 191.356L1318.58 200.404H1313.57ZM1313.72 180.473H1319.75L1325.68 189.029H1325.74L1334.22 200.404H1328.09L1321.8 191.479L1321.77 191.465L1313.72 180.473Z" fill="white"/>
<rect x="98.3574" y="109.831" width="169.258" height="363.26" rx="84.629" stroke="white"/>
<path d="M247.165 189.13C247.165 225.222 217.898 254.481 181.794 254.481C145.691 254.481 116.424 225.222 116.424 189.13C116.424 153.038 145.691 123.779 181.794 123.779C217.898 123.779 247.165 153.038 247.165 189.13Z" stroke="white" stroke-width="0.941764"/>
<path d="M233.996 189.13C233.996 217.952 210.625 241.316 181.794 241.316C152.964 241.316 129.592 217.952 129.592 189.13C129.592 160.308 152.964 136.944 181.794 136.944C210.625 136.944 233.996 160.308 233.996 189.13Z" stroke="white" stroke-width="0.941764"/>
<path d="M222.898 189.13C222.898 211.823 204.496 230.22 181.795 230.22C159.094 230.22 140.691 211.823 140.691 189.13C140.691 166.436 159.094 148.039 181.795 148.039C204.496 148.039 222.898 166.436 222.898 189.13Z" stroke="white" stroke-width="3"/>
<path d="M206.885 189.129C206.885 202.983 195.652 214.213 181.794 214.213C167.937 214.213 156.703 202.983 156.703 189.129C156.703 175.276 167.937 164.046 181.794 164.046C195.652 164.046 206.885 175.276 206.885 189.129Z" stroke="white" stroke-width="0.941764"/>
<path d="M1432.39 384.827C1432.39 420.92 1403.12 450.178 1367.02 450.178C1330.92 450.178 1301.65 420.92 1301.65 384.827C1301.65 348.735 1330.92 319.477 1367.02 319.477C1403.12 319.477 1432.39 348.735 1432.39 384.827Z" stroke="white" stroke-width="0.941764"/>
<path d="M1419.22 384.827C1419.22 413.649 1395.85 437.014 1367.02 437.014C1338.19 437.014 1314.82 413.649 1314.82 384.827C1314.82 356.006 1338.19 332.641 1367.02 332.641C1395.85 332.641 1419.22 356.006 1419.22 384.827Z" stroke="white" stroke-width="0.941764"/>
<path d="M1408.12 384.827C1408.12 407.52 1389.72 425.917 1367.02 425.917C1344.32 425.917 1325.92 407.52 1325.92 384.827C1325.92 362.134 1344.32 343.736 1367.02 343.736C1389.72 343.736 1408.12 362.134 1408.12 384.827Z" stroke="white" stroke-width="3"/>
<path d="M1392.11 384.827C1392.11 398.68 1380.88 409.91 1367.02 409.91C1353.16 409.91 1341.93 398.68 1341.93 384.827C1341.93 370.974 1353.16 359.743 1367.02 359.743C1380.88 359.743 1392.11 370.974 1392.11 384.827Z" stroke="white" stroke-width="0.941764"/>
<path d="M240.691 405.357C242.312 405.357 243.762 404.322 244.21 402.765C245.851 397.055 246.731 391.023 246.731 384.786C246.731 378.549 245.851 372.518 244.21 366.808C243.762 365.25 242.312 364.216 240.691 364.216H204.213C203.173 364.216 202.329 363.373 202.329 362.333V325.867C202.329 324.246 201.295 322.796 199.737 322.348C194.026 320.707 187.992 319.828 181.753 319.828C175.514 319.828 169.48 320.707 163.769 322.348C162.211 322.796 161.177 324.246 161.177 325.867V362.333C161.177 363.373 160.334 364.216 159.293 364.216H122.815C121.194 364.216 119.744 365.25 119.296 366.808C117.655 372.518 116.775 378.549 116.775 384.786C116.775 391.023 117.655 397.055 119.296 402.765C119.744 404.322 121.194 405.357 122.815 405.357H159.293C160.334 405.357 161.177 406.2 161.177 407.24V443.706C161.177 445.327 162.211 446.777 163.769 447.225C169.48 448.866 175.514 449.745 181.753 449.745C187.992 449.745 194.026 448.866 199.737 447.225C201.295 446.777 202.329 445.327 202.329 443.706V407.24C202.329 406.2 203.173 405.357 204.213 405.357H240.691Z" stroke="white" stroke-width="3"/>
<path d="M182.546 336.464V351.515M182.546 419.642V434.693M131.832 384.786H148.473M216.62 384.786H231.676" stroke="white" stroke-width="2"/>
<rect x="-0.296473" y="0.641878" width="53.3482" height="97.1461" rx="26.6741" transform="matrix(0.345529 0.938408 -0.938475 0.345348 257.459 486.712)" stroke="white"/>
<rect x="0.296473" y="0.641878" width="53.3482" height="97.1461" rx="26.6741" transform="matrix(-0.345529 0.938408 0.938475 0.345348 1290.97 486.156)" stroke="white"/>
<path fill-rule="evenodd" clip-rule="evenodd" d="M1325.6 521.597L1325.6 521.599C1327.01 523.389 1327.85 525.657 1327.85 528.123C1327.85 530.626 1326.99 532.925 1325.54 534.727L1325.42 534.883L1325.38 534.685C1325.35 534.518 1325.32 534.348 1325.28 534.177C1324.56 530.953 1322.2 528.188 1318.32 525.949C1315.7 524.442 1314.2 522.626 1313.81 520.564C1313.55 519.23 1313.74 517.89 1314.11 516.743C1314.47 515.595 1315.02 514.634 1315.48 514.056L1316.99 512.183C1317.25 511.855 1317.75 511.855 1318.01 512.183L1325.6 521.597ZM1327.99 519.727L1317.87 507.18C1317.68 506.94 1317.32 506.94 1317.13 507.18L1307.01 519.726L1306.98 519.768C1305.11 522.112 1304 525.089 1304 528.331C1304 535.88 1310.04 542 1317.5 542C1324.96 542 1331 535.88 1331 528.331C1331 525.089 1329.89 522.112 1328.02 519.768L1327.99 519.727ZM1309.43 521.557L1310.33 520.434L1310.36 520.641C1310.38 520.805 1310.41 520.97 1310.44 521.136C1311.03 524.252 1313.12 526.85 1316.62 528.862C1319.66 530.616 1321.43 532.634 1321.94 534.847C1322.15 535.771 1322.19 536.679 1322.09 537.474L1322.09 537.523L1322.04 537.544C1320.67 538.224 1319.13 538.606 1317.5 538.606C1311.78 538.606 1307.15 533.913 1307.15 528.123C1307.15 525.638 1308 523.354 1309.43 521.557Z" fill="white"/>
<rect x="222.305" y="503.441" width="35.6901" height="35.6793" rx="17.8396" stroke="white" stroke-width="0.5"/>
<path d="M1356.7 511.003L1338.19 560.749" stroke="white" stroke-width="0.5"/>
<rect x="182.002" y="518.242" width="35.6901" height="35.6793" rx="17.8396" stroke="white" stroke-width="0.5"/>
<path fill-rule="evenodd" clip-rule="evenodd" d="M232 515H248.25V516.857H232V515ZM232 520.571H248.25V522.428H232V520.571ZM248.25 526.143H232V528H248.25V526.143Z" fill="white"/>
<path fill-rule="evenodd" clip-rule="evenodd" d="M191.125 530.125H201.978V533.092H203.103V530.125V529H201.978H191.125H190V530.125V537.228V538.353H191.125H194.587V537.228H191.125V530.125Z" fill="white"/>
<rect x="196.562" y="534.562" width="11.875" height="8.875" stroke="white" stroke-width="1.125"/>
<path d="M1354 536.111L1366 533V536.889L1354 540V536.111Z" fill="white"/>
<path d="M1354 545.111L1366 542V545.889L1354 549V545.111Z" fill="white"/>
</svg>
