<svg width="869" height="614" viewBox="0 0 869 614" fill="none" xmlns="http://www.w3.org/2000/svg">
<path opacity="0.2" d="M361.652 24.2596H341.942C342.17 22.6623 343.544 21.4343 345.205 21.4343H358.389C360.05 21.4343 361.424 22.6623 361.652 24.2596Z" stroke="white" stroke-width="0.941764"/>
<g opacity="0.2">
<path d="M314.349 40.2677C275.043 41.9925 233.163 44.5395 186.269 47.9127C165.876 49.3795 150.083 54.8893 137.074 64.6459C140.97 56.5748 145.69 50.2948 152.792 44.2909C178.151 22.852 220.692 8.56014 254.235 4.26618C255.246 4.1367 256.242 4.00821 257.221 3.8818L257.223 3.88155C277.62 1.24932 291.039 -0.482403 294.623 8.50346C294.791 8.92296 294.953 9.33113 295.111 9.72828L295.174 9.88736C299.396 20.5015 304.677 23.7037 314.349 24.3681V40.2677Z" stroke="white" stroke-width="2.82529"/>
<path d="M549.79 40.2113C468.287 36.6766 397.732 36.6563 316.232 40.1856V24.3681H549.79V40.2113Z" stroke="white" stroke-width="2.82529"/>
<path d="M729.897 66.6844C715.841 55.5262 699.339 49.3122 679.753 47.9127C632.858 44.5617 590.979 42.0207 551.673 40.2935V24.3681C561.344 23.7037 566.625 20.5015 570.848 9.88736L570.871 9.82825C571.042 9.3997 571.217 8.95824 571.399 8.50346C574.983 -0.482403 588.402 1.24932 608.799 3.88155L608.801 3.8818L608.809 3.88287C609.786 4.00894 610.779 4.13707 611.787 4.26618C645.33 8.56014 687.871 22.852 713.23 44.2909C720.918 50.7909 725.816 57.6147 729.897 66.6844Z" stroke="white" stroke-width="2.82529"/>
</g>
<path opacity="0.2" d="M187.93 47.3787C142.725 50.6303 120.123 73.7481 100.345 118.953C80.5684 164.158 3.34375 344.035 3.34375 462.697C3.34375 581.359 69.2673 605.845 76.8014 607.729C77.7374 607.963 78.717 608.269 79.7384 608.589C86.9385 610.843 96.2159 613.747 106.938 596.427C119.181 576.65 141.783 548.397 172.861 511.669C203.94 474.94 228.425 441.978 274.572 441.036C302.572 440.465 382.704 440.58 419.604 440.805V441.036C423.953 440.995 429.038 440.951 434.672 440.908C440.306 440.951 445.39 440.995 449.74 441.036V440.805C486.64 440.58 566.772 440.465 594.772 441.036C640.918 441.978 665.404 474.94 696.482 511.669C727.561 548.397 750.163 576.65 762.406 596.427C773.128 613.747 782.405 610.843 789.605 608.589C790.627 608.269 791.606 607.963 792.542 607.729C800.076 605.845 866 581.359 866 462.697C866 344.035 788.775 164.158 768.998 118.953C749.221 73.7481 721.91 50.2725 681.414 47.3787C488.681 33.6064 380.655 33.5158 187.93 47.3787Z" stroke="white" stroke-width="6"/>
<path opacity="0.2" d="M83.1875 609.077L83.3017 608.62L82.9047 609.453L83.1875 609.077ZM106.903 595.901L106.503 595.653L106.903 595.901ZM172.827 511.142L172.467 510.838L172.827 511.142ZM178.897 503.933L179.257 504.236L178.897 503.933ZM274.537 440.51L274.527 440.039V440.039L274.537 440.51ZM419.569 440.279H420.04V439.811L419.572 439.808L419.569 440.279ZM419.569 440.51H419.098V440.985L419.573 440.981L419.569 440.51ZM434.637 440.382L434.641 439.911L434.633 439.911L434.637 440.382ZM449.705 440.51L449.701 440.981L450.176 440.985V440.51H449.705ZM449.705 440.279L449.702 439.808L449.234 439.811V440.279H449.705ZM594.737 440.51L594.747 440.039L594.747 440.039L594.737 440.51ZM690.377 503.933L690.017 504.236V504.236L690.377 503.933ZM696.448 511.142L696.088 511.446L696.448 511.142ZM762.371 595.901L762.771 595.653L762.371 595.901ZM786.157 609.059L786.441 609.435L786.042 608.603L786.157 609.059ZM781.701 610.969L781.611 610.507L781.701 610.969ZM697.413 560.585L697.781 560.291L697.413 560.585ZM679.558 521.801L679.111 521.949L679.558 521.801ZM670.495 498.594L670.907 498.366L670.495 498.594ZM655.975 474.884L655.626 475.2L655.975 474.884ZM213.346 474.884L213.695 475.2L213.346 474.884ZM198.826 498.594L198.414 498.366L198.826 498.594ZM188.382 521.53L187.949 521.346L188.382 521.53ZM164.374 568.119L164.006 567.825L164.374 568.119ZM87.6204 610.969L87.7103 610.507H87.7103L87.6204 610.969ZM83.0733 609.534C86.4319 610.373 90.2098 610.76 94.31 609.035C98.4011 607.313 102.742 603.518 107.303 596.149L106.503 595.653C101.999 602.928 97.7907 606.548 93.9447 608.167C90.1079 609.782 86.5607 609.435 83.3017 608.62L83.0733 609.534ZM107.303 596.149C119.525 576.406 142.104 548.179 173.186 511.446L172.467 510.838C141.392 547.563 118.767 575.842 106.503 595.653L107.303 596.149ZM173.186 511.446C175.236 509.024 177.257 506.617 179.257 504.236L178.536 503.631C176.536 506.012 174.516 508.417 172.467 510.838L173.186 511.446ZM179.257 504.236C207.615 470.477 231.689 441.855 274.547 440.981L274.527 440.039C231.178 440.924 206.841 469.934 178.536 503.631L179.257 504.236ZM274.547 440.981C302.539 440.409 382.665 440.524 419.566 440.75L419.572 439.808C382.673 439.582 302.535 439.467 274.527 440.039L274.547 440.981ZM419.098 440.279V440.51H420.04V440.279H419.098ZM419.573 440.981C423.923 440.939 429.007 440.896 434.641 440.853L434.633 439.911C428.999 439.954 423.914 439.997 419.564 440.039L419.573 440.981ZM434.633 440.853C440.267 440.896 445.351 440.939 449.701 440.981L449.71 440.039C445.36 439.997 440.275 439.954 434.641 439.911L434.633 440.853ZM450.176 440.51V440.279H449.234V440.51H450.176ZM449.708 440.75C486.609 440.524 566.735 440.409 594.727 440.981L594.747 440.039C566.739 439.467 486.601 439.582 449.702 439.808L449.708 440.75ZM594.727 440.981C637.585 441.855 661.659 470.477 690.017 504.236L690.738 503.63C662.433 469.934 638.096 440.924 594.747 440.039L594.727 440.981ZM690.017 504.236C692.017 506.617 694.038 509.023 696.088 511.446L696.807 510.838C694.758 508.417 692.738 506.012 690.738 503.63L690.017 504.236ZM696.088 511.446C727.17 548.179 749.749 576.406 761.971 596.149L762.771 595.653C750.507 575.842 727.882 547.563 696.807 510.838L696.088 511.446ZM761.971 596.149C766.549 603.544 770.904 607.34 775.008 609.053C779.12 610.77 782.908 610.365 786.272 609.516L786.042 608.603C782.775 609.427 779.218 609.79 775.37 608.184C771.513 606.574 767.291 602.954 762.771 595.653L761.971 596.149ZM785.873 608.684C784.741 609.54 783.338 610.171 781.611 610.507L781.79 611.431C783.644 611.071 785.183 610.386 786.441 609.435L785.873 608.684ZM781.611 610.507C777.491 611.308 771.698 610.484 764.902 608.277C758.12 606.075 750.396 602.515 742.441 597.907C726.53 588.689 709.745 575.305 697.781 560.291L697.044 560.878C709.096 576.001 725.978 589.457 741.969 598.722C749.966 603.354 757.751 606.946 764.611 609.173C771.455 611.395 777.434 612.278 781.79 611.431L781.611 610.507ZM697.781 560.291C689.23 549.56 684.43 535.047 680.005 521.653L679.111 521.949C683.523 535.304 688.369 549.991 697.044 560.878L697.781 560.291ZM680.005 521.653C677.129 512.947 674.407 504.701 670.907 498.366L670.083 498.822C673.531 505.064 676.226 513.216 679.111 521.949L680.005 521.653ZM670.907 498.366C667.88 492.889 665.158 487.961 662.736 483.899C660.318 479.844 658.181 476.621 656.324 474.568L655.626 475.2C657.415 477.177 659.51 480.329 661.927 484.382C664.339 488.427 667.054 493.34 670.083 498.822L670.907 498.366ZM656.324 474.568C647.365 464.666 625.583 444.277 597.586 444.277V445.219C625.152 445.219 646.691 465.325 655.626 475.2L656.324 474.568ZM597.586 444.277H271.735V445.219H597.586V444.277ZM271.735 444.277C243.738 444.277 221.956 464.666 212.997 474.568L213.695 475.2C222.63 465.325 244.169 445.219 271.735 445.219V444.277ZM212.997 474.568C211.14 476.621 209.003 479.844 206.585 483.899C204.163 487.961 201.441 492.889 198.414 498.366L199.238 498.822C202.267 493.34 204.982 488.427 207.394 484.382C209.81 480.329 211.906 477.177 213.695 475.2L212.997 474.568ZM198.414 498.366C195.255 504.084 191.766 512.329 187.949 521.346L188.816 521.713C192.641 512.677 196.108 504.486 199.238 498.822L198.414 498.366ZM187.949 521.346C181.063 537.614 173.103 556.409 164.006 567.825L164.742 568.412C173.938 556.872 181.949 537.936 188.816 521.713L187.949 521.346ZM164.006 567.825C152.042 582.839 137.144 594.335 123.13 601.664C109.092 609.006 96.0269 612.124 87.7103 610.507L87.5305 611.431C96.1657 613.11 109.47 609.872 123.567 602.498C137.688 595.113 152.691 583.535 164.742 568.412L164.006 567.825ZM87.7103 610.507C85.9946 610.173 84.5988 609.548 83.4703 608.7L82.9047 609.453C84.158 610.395 85.6888 611.073 87.5305 611.431L87.7103 610.507Z" fill="white"/>
<g opacity="0.2">
<path d="M418.461 55.0929C423.661 52.2731 429.098 50.9885 434.627 50.9885H434.672C440.218 50.9885 445.639 52.2717 450.859 55.0891C450.513 55.0646 450.143 55.0568 449.752 55.0713C446.352 55.1921 442.512 56.5161 439.552 57.7871C438.066 58.4255 436.789 59.0563 435.883 59.5275C435.43 59.7633 435.069 59.9593 434.821 60.0968C434.761 60.1303 434.707 60.1603 434.66 60.1866C434.619 60.1637 434.574 60.1382 434.524 60.1104C434.276 59.9725 433.915 59.7759 433.462 59.5395C432.557 59.0669 431.28 58.4344 429.794 57.7943C426.836 56.5197 422.997 55.192 419.599 55.0713L418.461 55.0929ZM418.461 55.0929C418.816 55.0661 419.196 55.0569 419.599 55.0713L418.461 55.0929ZM458.63 60.8626C461.831 64.0183 464.372 67.7787 466.106 71.9253C467.846 76.085 468.739 80.5498 468.732 85.0587L468.733 85.0601C468.744 92.0082 466.62 98.7707 462.679 104.445C462.838 102.8 462.557 100.89 461.986 98.8535C461.085 95.6369 459.429 91.9897 457.432 88.3304C453.538 81.196 448.307 73.9426 444.697 69.6149C448.583 65.7735 451.487 63.5505 453.616 62.2863C455.803 60.9878 457.147 60.7159 457.884 60.716L457.891 60.7159C458.11 60.7128 458.329 60.7479 458.536 60.8195C458.582 60.8368 458.614 60.853 458.63 60.8626ZM410.697 60.8762C410.7 60.8745 410.703 60.8727 410.706 60.8708C410.709 60.8691 410.712 60.8671 410.716 60.865L410.826 60.8234C411.026 60.7476 411.238 60.7122 411.452 60.7191L411.459 60.7194H411.467C412.201 60.7194 413.545 60.9897 415.733 62.2873C417.862 63.5506 420.768 65.7736 424.654 69.618C421.044 73.9407 415.816 81.1873 411.922 88.3187C409.925 91.9765 408.269 95.6231 407.366 98.8407C406.794 100.881 406.512 102.794 406.669 104.444C402.853 98.9407 400.612 92.2657 400.612 85.0593L400.612 85.0587C400.606 80.551 401.498 76.0874 403.237 71.9285C404.968 67.7871 407.504 64.0305 410.697 60.8762ZM434.673 119.109L434.671 119.109C426.429 119.122 418.465 116.132 412.267 110.699C411.141 109.541 411.139 107.554 412.199 104.855C413.247 102.187 415.26 99.0244 417.784 95.7622C422.738 89.3623 429.58 82.684 434.672 78.7793C439.769 82.6839 446.611 89.3622 451.564 95.7621C454.088 99.0244 456.101 102.187 457.149 104.855C458.21 107.554 458.21 109.541 457.087 110.699C450.885 116.131 442.918 119.121 434.673 119.109Z" stroke="white" stroke-width="0.941764"/>
</g>
<circle cx="369.69" cy="173.575" r="16.4809" fill="white" stroke="white" stroke-width="0.941764"/>
<circle cx="495.886" cy="173.575" r="16.4809" fill="white" stroke="white" stroke-width="0.941764"/>
<g opacity="0.2">
<circle cx="217.124" cy="175.458" r="79.5791" stroke="white" stroke-width="0.941764"/>
<circle cx="217.124" cy="175.458" r="63.5691" stroke="white" stroke-width="0.941764"/>
<circle cx="217.124" cy="175.459" r="50.297" stroke="white" stroke-width="3"/>
<circle cx="217.124" cy="175.459" r="30.6073" stroke="white" stroke-width="0.941764"/>
</g>
<g opacity="0.2">
<circle cx="527.906" cy="316.724" r="79.5791" stroke="white" stroke-width="0.941764"/>
<circle cx="527.906" cy="316.724" r="63.5691" stroke="white" stroke-width="0.941764"/>
<circle cx="527.906" cy="316.723" r="50.297" stroke="white" stroke-width="3"/>
<circle cx="527.906" cy="316.723" r="30.6073" stroke="white" stroke-width="0.941764"/>
</g>
<g opacity="0.2">
<circle cx="326.369" cy="317.666" r="71.1032" stroke="white" stroke-width="0.941764"/>
<circle cx="326.369" cy="317.666" r="56.035" stroke="white" stroke-width="0.941764"/>
<path d="M377.269 335.56C378.89 335.56 380.342 334.526 380.78 332.965C382.145 328.099 382.875 322.968 382.875 317.666C382.875 312.364 382.145 307.233 380.78 302.367C380.342 300.806 378.89 299.772 377.269 299.772H346.146C345.106 299.772 344.263 298.929 344.263 297.889V266.766C344.263 265.145 343.229 263.694 341.668 263.256C336.802 261.89 331.671 261.16 326.369 261.16C321.067 261.16 315.936 261.89 311.07 263.256C309.51 263.694 308.476 265.145 308.476 266.766V297.889C308.476 298.929 307.632 299.773 306.592 299.773H275.47C273.848 299.773 272.397 300.806 271.959 302.367C270.593 307.233 269.863 312.364 269.863 317.666C269.863 322.968 270.593 328.099 271.959 332.965C272.397 334.526 273.848 335.56 275.47 335.56H306.592C307.632 335.56 308.476 336.403 308.476 337.443V368.566C308.476 370.187 309.51 371.638 311.07 372.076C315.936 373.442 321.067 374.172 326.369 374.172C331.671 374.172 336.802 373.442 341.668 372.076C343.229 371.638 344.263 370.187 344.263 368.566V337.443C344.263 336.403 345.106 335.56 346.146 335.56H377.269Z" stroke="white" stroke-width="3"/>
</g>
<circle cx="659.754" cy="118.011" r="28.2529" stroke="white" stroke-width="6"/>
<circle cx="659.754" cy="232.907" r="28.2529" stroke="white" stroke-width="6"/>
<circle cx="602.306" cy="174.517" r="28.2529" stroke="white" stroke-width="6"/>
<circle cx="716.26" cy="174.517" r="28.2529" stroke="white" stroke-width="6"/>
<path d="M655.978 134.022V122.833L646.407 104.562H652.437L658.041 115.59C658.217 115.954 658.372 116.291 658.507 116.601C658.655 116.912 658.797 117.242 658.932 117.593H659.033C659.168 117.242 659.303 116.912 659.437 116.601C659.586 116.291 659.754 115.954 659.943 115.59L665.548 104.562H670.97L661.501 122.752V134.022H655.978Z" fill="white"/>
<path d="M589.86 189.585L599.775 172.71H600.746L607.767 160.125H613.108L603.821 176.251H602.891L595.283 189.585H589.86ZM590.346 160.125H596.456L603.619 172.69H603.659L613.594 189.585H607.443L599.775 176.251H599.734L590.346 160.125Z" fill="white"/>
<path d="M646.266 247.032L656.261 217.512H662.27L672.245 247.032H666.64L659.781 225.645C659.62 225.133 659.485 224.674 659.377 224.27C659.269 223.851 659.168 223.447 659.073 223.056H658.972C658.878 223.447 658.776 223.851 658.669 224.27C658.561 224.674 658.426 225.133 658.264 225.645L651.526 247.032H646.266ZM651.445 240.254L652.497 236.329H665.75L666.843 240.254H651.445Z" fill="white"/>
<path d="M706.566 189.585V160.125H717.108C720.035 160.125 722.274 160.759 723.825 162.027C725.377 163.295 726.152 165.19 726.152 167.712C726.152 169.372 725.781 170.747 725.039 171.84C724.311 172.919 723.38 173.661 722.247 174.066V174.147C723.65 174.524 724.803 175.313 725.707 176.514C726.611 177.701 727.063 179.299 727.063 181.309C727.063 183.926 726.213 185.963 724.513 187.42C722.827 188.863 720.541 189.585 717.654 189.585H706.566ZM711.948 185.68H716.906C718.497 185.68 719.671 185.255 720.426 184.405C721.182 183.555 721.559 182.402 721.559 180.945C721.559 179.475 721.182 178.308 720.426 177.445C719.671 176.568 718.497 176.129 716.906 176.129H711.948V185.68ZM711.948 172.71H716.38C717.958 172.71 719.098 172.326 719.799 171.557C720.5 170.788 720.851 169.716 720.851 168.34C720.851 166.964 720.5 165.918 719.799 165.204C719.098 164.489 717.958 164.124 716.38 164.111H711.948V172.71Z" fill="white"/>
</svg>
