<svg width="869" height="623" viewBox="0 0 869 623" fill="none" xmlns="http://www.w3.org/2000/svg">
<path d="M519.867 34.3064H500.157C500.385 32.7091 501.759 31.4811 503.419 31.4811H516.604C518.265 31.4811 519.638 32.7091 519.867 34.3064Z" stroke="white" stroke-width="0.941764"/>
<path d="M550.976 59.6759C469.677 59.8972 398.773 60.1452 317.418 59.6501V34.415H550.976V59.6759Z" stroke="white" stroke-width="1.88353"/>
<path d="M317.418 35.1865H550.976" stroke="white" stroke-width="5.65059"/>
<path d="M142.947 66.4764C141.224 69.0248 139.687 71.7388 138.262 74.6927C138.982 74.1525 139.78 73.5792 140.648 72.9778C141.267 70.7587 142.035 68.5866 142.947 66.4764Z" stroke="white" stroke-width="1.88353"/>
<path d="M249.583 52.6488C248.523 49.6049 247.087 46.7007 245.305 44.005L239.502 35.2275L231.416 18.7681C239.679 16.787 247.784 15.2908 255.422 14.3129C256.434 14.1835 257.429 14.055 258.409 13.9285L258.411 13.9283C278.807 11.2961 292.226 9.56435 295.811 18.5502C295.978 18.9697 296.141 19.3779 296.299 19.775L296.362 19.9341C300.584 30.5483 305.865 33.7505 315.536 34.4148V59.7321C285.412 59.7321 264.8 56.3691 249.583 52.6488Z" stroke="white" stroke-width="1.88353"/>
<path d="M231.414 19.5398C239.676 17.5588 247.781 16.0625 255.42 15.0847C256.431 14.9552 257.427 14.8267 258.406 14.7003L258.408 14.7C278.805 12.0678 292.224 10.3361 295.808 19.3219C295.976 19.7414 296.138 20.1496 296.296 20.5468L296.359 20.7058C300.582 31.32 305.863 34.5222 315.534 35.1866" stroke="white" stroke-width="5.65059"/>
<path d="M726.786 68.1893C727.633 70.365 728.331 72.6003 728.872 74.8797C729.749 75.5222 730.563 76.1408 731.306 76.7311C729.919 73.6497 728.439 70.8276 726.786 68.1893Z" stroke="white" stroke-width="1.88353"/>
<path d="M619.398 52.7905C605.083 56.4698 584.816 59.7579 553.082 59.7579V34.4148C562.753 33.7505 568.034 30.5483 572.256 19.9341L572.28 19.875C572.45 19.4465 572.626 19.005 572.807 18.5502C576.392 9.56435 589.811 11.2961 610.208 13.9283L610.209 13.9285L610.218 13.9296C611.195 14.0557 612.188 14.1838 613.196 14.3129C620.948 15.3053 629.18 16.8316 637.57 18.8566L629.528 35.2275L623.725 44.005C621.915 46.7425 620.462 49.695 619.398 52.7905Z" stroke="white" stroke-width="1.88353"/>
<path d="M553.082 35.1866C562.753 34.5222 568.034 31.32 572.256 20.7058L572.28 20.6467C572.45 20.2182 572.626 19.7767 572.807 19.3219C576.392 10.3361 589.811 12.0678 610.208 14.7L610.209 14.7003L610.218 14.7014C611.195 14.8274 612.188 14.9555 613.196 15.0847C620.948 16.077 629.18 17.6033 637.57 19.6284" stroke="white" stroke-width="5.65059"/>
<path d="M613.274 67.4834H256.07C249.073 106.96 219.031 139.286 178.822 148.356C155.383 153.643 133.309 135.257 134.269 111.249L135.35 84.2322C121.205 100.425 110.421 122.524 100.345 144.772C80.5684 188.44 3.34375 362.206 3.34375 476.836C3.34375 591.466 69.2673 615.12 76.8014 616.94C77.7374 617.166 78.717 617.462 79.7384 617.771C82.816 618.702 86.2732 619.747 90.0605 619.333C107.82 620.804 141.457 604.909 164.373 576.151C173.52 564.673 181.505 545.807 188.382 529.562C192.202 520.535 195.681 512.318 198.826 506.626C204.881 495.667 209.699 486.946 213.345 482.916C215.855 480.142 219.366 476.552 223.732 472.823C238.081 462.73 254.22 456.313 274.572 455.911C302.572 455.359 382.704 455.47 419.604 455.688V455.911C423.953 455.871 429.038 455.829 434.672 455.788C440.306 455.829 445.39 455.871 449.74 455.911V455.688C486.64 455.47 566.772 455.359 594.772 455.911C615.059 456.311 631.16 462.689 645.475 472.727C649.893 476.491 653.443 480.118 655.974 482.916C659.62 486.946 664.439 495.667 670.494 506.626C673.968 512.914 676.677 521.113 679.557 529.832L679.557 529.833C683.976 543.208 688.798 557.808 697.412 568.617C720.232 597.254 760.484 619.938 778.979 619.296C782.885 619.803 786.446 618.727 789.605 617.771C790.627 617.462 791.606 617.166 792.542 616.94C800.076 615.12 866 591.466 866 476.836C866 362.206 788.775 188.44 768.998 144.772C759.357 123.484 747.947 102.367 734.082 86.4148L735.075 111.249C736.035 135.257 713.961 153.643 690.522 148.356C650.313 139.286 620.271 106.96 613.274 67.4834Z" stroke="white" stroke-width="0.941764"/>
<path d="M135.35 84.2319C121.205 100.425 110.421 122.524 100.345 144.771C80.5684 188.44 3.34375 362.205 3.34375 476.836C3.34375 591.466 69.2673 615.12 76.8014 616.94C77.7374 617.166 78.717 617.462 79.7384 617.771C82.816 618.702 86.2732 619.747 90.0605 619.333C107.82 620.803 141.457 604.909 164.373 576.151C173.52 564.673 181.505 545.807 188.382 529.562C192.202 520.535 195.681 512.317 198.826 506.626C204.881 495.667 209.699 486.946 213.345 482.916C215.855 480.142 219.366 476.552 223.732 472.823C238.081 462.73 254.22 456.312 274.572 455.911C302.572 455.359 382.704 455.47 419.604 455.688V455.911C423.953 455.871 429.038 455.829 434.672 455.788C440.306 455.829 445.39 455.871 449.74 455.911V455.688C486.64 455.47 566.772 455.359 594.772 455.911C615.059 456.311 631.16 462.689 645.475 472.727C649.893 476.49 653.443 480.118 655.974 482.916C659.62 486.946 664.439 495.667 670.494 506.626C673.968 512.914 676.677 521.112 679.557 529.832L679.557 529.833C683.976 543.208 688.798 557.807 697.412 568.617C720.232 597.253 760.484 619.938 778.979 619.296C782.885 619.803 786.446 618.726 789.605 617.771C790.627 617.462 791.606 617.166 792.542 616.94C800.076 615.12 866 591.466 866 476.836C866 362.205 788.775 188.44 768.998 144.771C759.357 123.484 747.947 102.367 734.082 86.4146" stroke="white" stroke-width="6" stroke-linecap="round" stroke-linejoin="round"/>
<path d="M286.492 58.5367H286.021V59.0076V244.912V244.934C286.021 249.135 286.021 252.315 286.228 254.847C286.436 257.389 286.854 259.318 287.715 261.007C289.205 263.931 291.582 266.308 294.506 267.798C296.195 268.659 298.124 269.077 300.666 269.285C303.198 269.492 306.378 269.492 310.579 269.492H310.601H565.631H565.653C569.854 269.492 573.034 269.492 575.566 269.285C578.108 269.077 580.038 268.659 581.727 267.798C584.651 266.308 587.028 263.931 588.518 261.007C589.378 259.318 589.797 257.389 590.004 254.847C590.211 252.315 590.211 249.135 590.211 244.934V244.912V59.0076V58.5367H589.74H286.492Z" stroke="white" stroke-width="0.941764"/>
<path d="M410.528 47.0972C410.528 45.3389 411.953 43.9135 413.712 43.9135H456.217C457.976 43.9135 459.401 45.3389 459.401 47.0972C459.401 48.8554 457.976 50.2808 456.217 50.2808H413.712C411.953 50.2808 410.528 48.8554 410.528 47.0972Z" stroke="white" stroke-width="1.11075"/>
<line x1="420.293" y1="48.3375" x2="450.283" y2="48.3375" stroke="white" stroke-width="2.2215"/>
<path d="M680.148 146.592C680.148 237.74 708.401 300.405 734.771 368.767C761.14 437.129 779.975 528.277 778.092 619.426" stroke="white" stroke-width="0.470882"/>
<path d="M187.297 146.592C187.297 237.74 159.044 300.405 132.675 368.767C106.305 437.129 87.4698 528.277 89.3534 619.426" stroke="white" stroke-width="0.470882"/>
<rect x="411.342" y="338.747" width="47.8955" height="9.41764" rx="4.70882" stroke="white" stroke-width="0.941764"/>
<path d="M561.016 440.893C561.016 442.439 559.75 443.965 557.414 445.133C555.107 446.287 551.885 447.014 548.302 447.014C544.718 447.014 541.497 446.287 539.189 445.133C536.854 443.965 535.588 442.439 535.588 440.893C535.588 439.347 536.854 437.821 539.189 436.653C541.497 435.499 544.718 434.772 548.302 434.772C551.885 434.772 555.107 435.499 557.414 436.653C559.75 437.821 561.016 439.347 561.016 440.893Z" stroke="white" stroke-width="0.941764"/>
<path d="M553.483 439.009C553.483 439.515 553.06 440.1 552.088 440.586C551.144 441.058 549.806 441.364 548.303 441.364C546.8 441.364 545.462 441.058 544.518 440.586C543.545 440.1 543.123 439.515 543.123 439.009C543.123 438.504 543.545 437.919 544.518 437.433C545.462 436.961 546.8 436.655 548.303 436.655C549.806 436.655 551.144 436.961 552.088 437.433C553.06 437.919 553.483 438.504 553.483 439.009Z" stroke="white" stroke-width="0.941764"/>
<rect x="374.545" y="431.946" width="124.637" height="17.4226" rx="3.29618" stroke="white" stroke-width="0.941764"/>
<rect x="372.427" y="427.473" width="128.875" height="23.0732" rx="4.47338" stroke="white" stroke-width="0.470882"/>
<path d="M435.479 242.51L435.291 242.261L435.103 242.51L425.504 255.224L425.219 255.601H425.692H444.89H445.363L445.078 255.224L435.479 242.51Z" stroke="white" stroke-width="0.470882"/>
<path d="M238.154 35.8891L238.197 35.9751L238.249 36.055L244.053 44.8325C246.353 48.3114 248.053 52.1515 249.083 56.193C251.015 63.7753 250.513 71.7733 247.648 79.0546L246.588 81.7473L242.207 92.0272C241.088 94.6512 239.746 97.174 238.194 99.5675L236.369 102.384C224.932 120.025 208.03 133.432 188.249 140.554L184.417 141.933C173.432 145.888 161.223 144.4 151.508 137.924C147.517 135.263 144.446 131.434 142.716 126.96L142.185 125.587L140.786 126.128L142.185 125.587C139.975 119.869 138.982 113.753 139.272 107.629L140.464 82.4148C141.36 71.8913 145.618 61.935 152.609 54.0182L153.194 53.3562C156.122 50.0399 158.782 46.4952 161.147 42.7561L181.349 10.8184L180.081 10.0165L181.349 10.8184C181.965 9.84313 182.703 8.9495 183.543 8.15861L182.515 7.06631L183.543 8.15861C185.084 6.70815 186.94 5.63341 188.965 5.01823L193.897 3.51988C200.3 1.57442 207.136 1.56253 213.547 3.48569L219.04 5.13382C220.823 5.66854 222.445 6.63725 223.76 7.95309L224.821 6.89243L223.76 7.95309C224.634 8.82649 225.357 9.83782 225.902 10.9465L238.154 35.8891ZM630.78 36.055L630.833 35.9751L630.876 35.8891L643.128 10.9465C643.673 9.83781 644.396 8.82649 645.27 7.9531L644.209 6.89243L645.27 7.95308C646.585 6.63725 648.207 5.66854 649.99 5.13382L655.483 3.48569C661.894 1.56253 668.73 1.57442 675.133 3.51988L680.065 5.01823C682.09 5.6334 683.946 6.70815 685.487 8.15861C686.327 8.94951 687.065 9.84314 687.681 10.8183L707.883 42.7561C710.248 46.4952 712.908 50.0399 715.836 53.3562L716.421 54.0182C723.412 61.9349 727.67 71.8912 728.565 82.4146L729.758 107.629C730.048 113.753 729.055 119.869 726.844 125.587L726.314 126.96C724.584 131.434 721.513 135.263 717.522 137.924C707.807 144.4 695.598 145.888 684.613 141.933L680.781 140.554C661 133.432 644.098 120.025 632.661 102.384L630.836 99.5675C629.284 97.174 627.942 94.6512 626.823 92.0272L622.441 81.7468L621.382 79.0546C618.517 71.7733 618.015 63.7753 619.947 56.193C620.977 52.1515 622.677 48.3114 624.977 44.8325L630.78 36.055Z" stroke="white" stroke-width="3"/>
<rect x="424.694" y="258.309" width="21.1897" height="2.58985" stroke="white" stroke-width="0.470882"/>
</svg>
