<svg width="869" height="614" fill="none" xmlns="http://www.w3.org/2000/svg"><path d="M361.652 24.728h-19.71a3.296 3.296 0 0 1 3.263-2.825h13.184a3.296 3.296 0 0 1 3.263 2.825Z" stroke="#fff" stroke-width=".942"/><path d="M314.349 40.736c-39.306 1.725-81.186 4.272-128.08 7.645-20.393 1.467-36.186 6.977-49.195 16.734 3.896-8.071 8.616-14.352 15.718-20.355 25.359-21.44 67.9-35.731 101.443-40.025l2.986-.385h.002c20.397-2.632 33.816-4.364 37.4 4.622l.488 1.225.063.159c4.222 10.614 9.503 13.816 19.175 14.48v15.9Zm235.441-.056c-81.503-3.535-152.058-3.555-233.558-.026V24.837H549.79V40.68Zm180.107 26.473c-14.056-11.158-30.558-17.372-50.144-18.772-46.895-3.35-88.774-5.892-128.08-7.619V24.837c9.671-.665 14.952-3.867 19.175-14.481l.023-.06.528-1.324c3.584-8.986 17.003-7.254 37.4-4.622h.002l.008.002 2.978.383C645.33 9.029 687.871 23.32 713.23 44.76c7.688 6.5 12.586 13.323 16.667 22.393Z" stroke="#fff" stroke-width="2.825"/><path d="M187.93 47.847c-45.205 3.252-67.807 26.37-87.585 71.575C80.568 164.626 3.344 344.503 3.344 463.166c0 118.662 65.923 143.148 73.457 145.031.936.234 1.916.541 2.937.861 7.2 2.254 16.478 5.158 27.2-12.162 12.243-19.777 34.845-48.03 65.923-84.759 31.079-36.728 55.564-69.69 101.711-70.632 28-.571 108.132-.457 145.032-.231v.231c4.349-.041 9.434-.085 15.068-.128 5.634.043 10.718.087 15.068.128v-.231c36.9-.226 117.032-.34 145.032.231 46.146.942 70.632 33.904 101.71 70.632 31.079 36.729 53.681 64.982 65.924 84.759 10.722 17.32 19.999 14.416 27.199 12.162 1.022-.32 2.001-.627 2.937-.861C800.076 606.314 866 581.828 866 463.166c0-118.663-77.225-298.54-97.002-343.744-19.777-45.205-47.088-68.68-87.584-71.575-192.733-13.772-300.759-13.863-493.484 0Z" stroke="#fff" stroke-width="6"/><path d="m83.188 609.546.114-.457-.397.833.282-.376Zm23.715-13.176-.4-.248.4.248Zm65.924-84.759-.36-.304.36.304Zm6.07-7.209.36.303-.36-.303Zm95.64-63.424-.01-.47.01.47Zm145.032-.23h.471v-.468l-.468-.003-.003.471Zm0 .23h-.471v.476l.475-.005-.004-.471Zm15.068-.127.004-.471h-.008l.004.471Zm15.068.127-.004.471.475.005v-.476h-.471Zm0-.23-.003-.471-.468.003v.468h.471Zm145.032.23.01-.47-.01.47Zm95.64 63.424-.36.303.36-.303Zm6.071 7.209-.36.304.36-.304Zm65.923 84.759.4-.248-.4.248Zm23.786 13.158.284.376-.399-.833.115.457Zm-4.456 1.91-.09-.462.09.462Zm-84.288-50.385.368-.293-.368.293Zm-17.855-38.783-.447.147.447-.147Zm-9.063-23.207.412-.228-.412.228Zm-14.52-23.71-.349.316.349-.316Zm-442.629 0 .349.316-.349-.316Zm-14.52 23.71-.412-.228.412.228Zm-10.444 22.935-.433-.183.433.183Zm-24.008 46.59-.368-.294.368.294Zm-76.754 42.85.09-.462-.09.462Zm-4.547-1.436c3.359.84 7.137 1.227 11.237-.499 4.091-1.721 8.432-5.516 12.993-12.886l-.8-.495c-4.504 7.274-8.712 10.895-12.558 12.513-3.837 1.615-7.384 1.269-10.643.454l-.229.913Zm24.23-13.385c12.222-19.742 34.801-47.969 65.883-84.702l-.719-.608c-31.075 36.725-53.7 65.003-65.964 84.815l.8.495Zm65.883-84.702c2.05-2.423 4.071-4.829 6.071-7.21l-.721-.606c-2 2.381-4.02 4.786-6.069 7.208l.719.608Zm6.071-7.21c28.358-33.759 52.432-62.381 95.29-63.256l-.02-.941c-43.349.884-67.686 29.895-95.991 63.591l.721.606Zm95.29-63.256c27.992-.571 108.118-.456 145.019-.231l.006-.941c-36.899-.226-117.037-.341-145.045.231l.02.941Zm144.551-.701v.23h.942v-.23h-.942Zm.475.701c4.35-.041 9.434-.085 15.068-.127l-.008-.942c-5.634.043-10.719.086-15.069.128l.009.941Zm15.06-.127c5.634.042 10.718.086 15.068.127l.009-.941c-4.35-.042-9.435-.085-15.069-.128l-.008.942Zm15.543-.344v-.23h-.942v.23h.942Zm-.468.24c36.901-.225 117.027-.34 145.019.231l.02-.941c-28.008-.572-108.146-.457-145.045-.231l.006.941Zm145.019.231c42.858.875 66.932 29.496 95.29 63.256l.721-.606c-28.305-33.696-52.642-62.707-95.991-63.591l-.02.941Zm95.29 63.256c2 2.381 4.021 4.787 6.071 7.21l.719-.608c-2.049-2.422-4.069-4.827-6.069-7.208l-.721.606Zm6.071 7.21c31.082 36.733 53.661 64.96 65.883 84.702l.8-.495c-12.264-19.812-34.889-48.09-65.964-84.815l-.719.608Zm65.883 84.702c4.578 7.396 8.933 11.191 13.037 12.905 4.112 1.717 7.9 1.311 11.264.463l-.23-.914c-3.267.825-6.823 1.188-10.672-.418-3.857-1.611-8.079-5.231-12.599-12.531l-.8.495Zm23.902 12.535c-1.132.856-2.535 1.488-4.262 1.824l.179.924c1.854-.36 3.393-1.046 4.651-1.996l-.568-.752Zm-4.262 1.824c-4.12.801-9.913-.023-16.709-2.23-6.782-2.202-14.506-5.762-22.461-10.371-15.911-9.218-32.696-22.602-44.66-37.615l-.737.587c12.052 15.123 28.934 28.579 44.925 37.843 7.997 4.633 15.782 8.224 22.642 10.452 6.844 2.222 12.823 3.105 17.179 2.258l-.179-.924Zm-83.83-50.216c-8.551-10.731-13.351-25.244-17.776-38.638l-.894.295c4.412 13.356 9.258 28.043 17.933 38.93l.737-.587Zm-17.776-38.638c-2.876-8.706-5.598-16.952-9.098-23.287l-.824.455c3.448 6.242 6.143 14.394 9.028 23.127l.894-.295Zm-9.098-23.287c-3.027-5.478-5.749-10.405-8.171-14.467-2.418-4.055-4.555-7.279-6.412-9.331l-.698.632c1.789 1.977 3.884 5.129 6.301 9.181 2.412 4.046 5.127 8.959 8.156 14.44l.824-.455Zm-14.583-23.798c-8.959-9.902-30.741-30.291-58.738-30.291v.941c27.566 0 49.105 20.107 58.04 29.982l.698-.632Zm-58.738-30.291H271.735v.941h325.851v-.941Zm-325.851 0c-27.997 0-49.779 20.389-58.738 30.291l.698.632c8.935-9.875 30.474-29.982 58.04-29.982v-.941Zm-58.738 30.291c-1.857 2.052-3.994 5.276-6.412 9.331-2.422 4.062-5.144 8.989-8.171 14.467l.824.455c3.029-5.481 5.744-10.394 8.156-14.44 2.416-4.052 4.512-7.204 6.301-9.181l-.698-.632Zm-14.583 23.798c-3.159 5.718-6.648 13.963-10.465 22.98l.867.367c3.825-9.036 7.292-17.227 10.422-22.892l-.824-.455Zm-10.465 22.98c-6.886 16.268-14.846 35.063-23.943 46.479l.736.587c9.196-11.54 17.207-30.476 24.074-46.699l-.867-.367Zm-23.943 46.479c-11.964 15.013-26.862 26.509-40.876 33.839-14.038 7.342-27.103 10.46-35.42 8.843l-.18.924c8.636 1.679 21.94-1.56 36.037-8.933 14.121-7.385 29.124-18.963 41.175-34.086l-.736-.587ZM87.71 610.976c-1.715-.334-3.111-.959-4.24-1.807l-.565.753c1.253.941 2.784 1.62 4.626 1.978l.18-.924Z" fill="#fff"/><path d="M458.931 60.966s-.076-.062-.235-.12m.235.12a34.373 34.373 0 0 1 10.273 24.562 34.357 34.357 0 0 1-6.694 20.433c.079-.335.135-.684.17-1.047m-3.749-43.948-.298.365h.002l.001.002.003.002.004.003.003.003-.001-.001-.011-.007a.05.05 0 0 1-.003-.001m.3-.366-.33.336.03.03m.065-.487a2.363 2.363 0 0 0-.811-.13c-1.702 0-5.712 1.25-13.826 9.34m14.637-9.21-.154.445-.005-.002m.159-.443-.163.442.004.002m-14.478 8.766c6.774 8.023 19.881 27.244 18.014 35.706.207-.28.409-.562.607-.847m-18.621-34.86.359-.303.28.333m-.639-.03.332.334.307-.304m17.982 34.83c.159-1.645-.122-3.555-.693-5.591-.901-3.217-2.557-6.864-4.554-10.524-3.894-7.134-9.125-14.387-12.735-18.715m17.982 34.83a33.88 33.88 0 0 0 6.053-19.385v-.001a33.897 33.897 0 0 0-10.102-24.196m0 0a.617.617 0 0 0-.094-.044m0 0a1.894 1.894 0 0 0-.645-.103h-.007c-.737 0-2.081.272-4.268 1.57-2.129 1.264-5.033 3.488-8.919 7.329m-26.236-14.522c5.2-2.82 10.637-4.104 16.166-4.104h.045c5.546 0 10.967 1.283 16.187 4.1a10.285 10.285 0 0 0-1.107-.018c-3.4.12-7.24 1.445-10.2 2.716a55.657 55.657 0 0 0-4.731 2.31l-.161.09-.136-.077a55.297 55.297 0 0 0-4.73-2.316c-2.958-1.274-6.797-2.602-10.195-2.723l-1.138.022Zm0 0c.355-.027.735-.036 1.137-.022l-1.137.022Zm-7.764 5.783.009-.005.01-.006.11-.042c.2-.075.412-.11.626-.104h.015c.734 0 2.078.27 4.266 1.568 2.129 1.264 5.035 3.487 8.921 7.331-3.61 4.323-8.838 11.57-12.732 18.7-1.997 3.658-3.653 7.305-4.556 10.523-.572 2.04-.854 3.953-.697 5.603a33.895 33.895 0 0 1-6.057-19.385 33.918 33.918 0 0 1 10.085-24.183Zm23.976 58.233h-.002a33.907 33.907 0 0 1-22.404-8.41c-1.126-1.158-1.128-3.145-.068-5.844 1.048-2.668 3.06-5.83 5.585-9.093 4.954-6.4 11.796-13.078 16.888-16.983 5.097 3.905 11.939 10.583 16.892 16.983 2.524 3.262 4.537 6.425 5.585 9.093 1.061 2.699 1.061 4.686-.062 5.844a33.945 33.945 0 0 1-22.414 8.41Z" stroke="#fff" stroke-width=".942"/><circle cx="369.69" cy="174.044" r="16.481" stroke="#fff" stroke-width=".942"/><circle cx="495.886" cy="174.044" r="16.481" stroke="#fff" stroke-width=".942"/><circle cx="217.124" cy="175.927" r="79.579" stroke="#fff" stroke-width=".942"/><circle cx="217.124" cy="175.927" r="63.569" stroke="#fff" stroke-width=".942"/><circle cx="217.124" cy="175.928" r="50.297" stroke="#fff" stroke-width="3"/><circle cx="217.124" cy="175.928" r="30.607" stroke="#fff" stroke-width=".942"/><circle cx="527.906" cy="317.193" r="79.579" stroke="#fff" stroke-width=".942"/><circle cx="527.906" cy="317.192" r="63.569" stroke="#fff" stroke-width=".942"/><circle cx="527.906" cy="317.192" r="50.297" stroke="#fff" stroke-width="3"/><circle cx="527.906" cy="317.191" r="30.607" stroke="#fff" stroke-width=".942"/><circle cx="326.369" cy="318.135" r="71.103" stroke="#fff" stroke-width=".942"/><circle cx="326.369" cy="318.135" r="56.035" stroke="#fff" stroke-width=".942"/><path d="M377.269 336.028c1.621 0 3.073-1.034 3.511-2.594a56.566 56.566 0 0 0 2.095-15.299c0-5.302-.73-10.433-2.095-15.299-.438-1.561-1.89-2.595-3.511-2.595h-31.123a1.883 1.883 0 0 1-1.883-1.883v-31.123c0-1.621-1.034-3.073-2.595-3.511a56.566 56.566 0 0 0-15.299-2.095c-5.302 0-10.433.73-15.299 2.095-1.56.438-2.594 1.89-2.594 3.511v31.123c0 1.04-.844 1.883-1.884 1.883H275.47c-1.622 0-3.073 1.034-3.511 2.595a56.527 56.527 0 0 0-2.096 15.299c0 5.302.73 10.433 2.096 15.299.438 1.56 1.889 2.594 3.511 2.594h31.122c1.04 0 1.884.844 1.884 1.884v31.122c0 1.621 1.034 3.073 2.594 3.511a56.567 56.567 0 0 0 15.299 2.096c5.302 0 10.433-.731 15.299-2.096 1.561-.438 2.595-1.89 2.595-3.511v-31.122c0-1.04.843-1.884 1.883-1.884h31.123Z" stroke="#fff" stroke-width="3"/><circle cx="659.754" cy="118.479" r="26.84" stroke="#fff" stroke-width="2.825"/><circle cx="659.754" cy="233.376" r="26.84" stroke="#fff" stroke-width="2.825"/><circle cx="602.306" cy="174.985" r="26.84" stroke="#fff" stroke-width="2.825"/><circle cx="716.26" cy="174.985" r="26.84" stroke="#fff" stroke-width="2.825"/><path d="M655.978 134.491v-11.189l-9.571-18.271h6.03l5.604 11.027c.176.365.331.702.466 1.012.148.31.29.641.425.991h.101c.135-.35.27-.681.404-.991.149-.31.317-.647.506-1.012l5.605-11.027h5.422l-9.469 18.19v11.27h-5.523Zm-66.118 55.562 9.915-16.874h.971l7.021-12.585h5.341l-9.287 16.126h-.93l-7.608 13.333h-5.423Zm.486-29.459h6.11l7.163 12.565h.04l9.935 16.894h-6.151l-7.668-13.333h-.041l-9.388-16.126Zm55.92 86.907 9.995-29.521h6.009l9.975 29.521h-5.605l-6.859-21.387a32.98 32.98 0 0 1-.404-1.376 82.912 82.912 0 0 1-.304-1.214h-.101c-.094.392-.196.796-.303 1.214-.108.405-.243.864-.405 1.376l-6.738 21.387h-5.26Zm5.179-6.778 1.052-3.926h13.253l1.093 3.926h-15.398Zm55.121-50.67v-29.459h10.542c2.927 0 5.166.634 6.717 1.902 1.552 1.268 2.327 3.163 2.327 5.685 0 1.659-.371 3.035-1.113 4.128-.728 1.079-1.659 1.821-2.792 2.225v.081c1.403.378 2.556 1.167 3.46 2.368.904 1.187 1.356 2.785 1.356 4.795 0 2.617-.85 4.654-2.55 6.11-1.686 1.444-3.972 2.165-6.859 2.165h-11.088Zm5.382-3.905h4.958c1.591 0 2.765-.425 3.52-1.274.756-.85 1.133-2.003 1.133-3.46 0-1.471-.377-2.637-1.133-3.501-.755-.876-1.929-1.315-3.52-1.315h-4.958v9.55Zm0-12.969h4.432c1.578 0 2.718-.385 3.419-1.153.701-.769 1.052-1.842 1.052-3.218 0-1.375-.351-2.421-1.052-3.136-.701-.715-1.841-1.079-3.419-1.092h-4.432v8.599Z" fill="#fff"/></svg>