<svg width="869" height="614" viewBox="0 0 869 614" fill="none" xmlns="http://www.w3.org/2000/svg">
<path d="M361.652 24.7278H341.942C342.17 23.1305 343.544 21.9025 345.205 21.9025H358.389C360.05 21.9025 361.424 23.1305 361.652 24.7278Z" stroke="white" stroke-width="0.941764"/>
<path d="M314.349 40.7363C275.043 42.4611 233.163 45.0081 186.269 48.3813C165.876 49.8482 150.083 55.358 137.074 65.1146C140.97 57.0435 145.69 50.7634 152.792 44.7595C178.151 23.3206 220.692 9.02877 254.235 4.73481C255.246 4.60533 256.242 4.47684 257.221 4.35042L257.223 4.35018C277.62 1.71795 291.039 -0.0137748 294.623 8.97209C294.791 9.39159 294.953 9.79976 295.111 10.1969L295.174 10.356C299.396 20.9701 304.677 24.1723 314.349 24.8367V40.7363Z" stroke="white" stroke-width="2.82529"/>
<path d="M549.79 40.6799C468.287 37.1453 397.732 37.125 316.232 40.6542V24.8367H549.79V40.6799Z" stroke="white" stroke-width="2.82529"/>
<path d="M729.897 67.153C715.841 55.9948 699.339 49.7809 679.753 48.3813C632.858 45.0303 590.979 42.4893 551.673 40.7622V24.8367C561.344 24.1723 566.625 20.9701 570.848 10.356L570.871 10.2969C571.042 9.86833 571.217 9.42687 571.399 8.97209C574.983 -0.0137748 588.402 1.71795 608.799 4.35018L608.801 4.35042L608.809 4.3515C609.786 4.47757 610.779 4.6057 611.787 4.73481C645.33 9.02877 687.871 23.3206 713.23 44.7595C720.918 51.2595 725.816 58.0833 729.897 67.153Z" stroke="white" stroke-width="2.82529"/>
<path d="M187.93 47.8475C142.725 51.0991 120.123 74.2169 100.345 119.422C80.5684 164.626 3.34375 344.503 3.34375 463.166C3.34375 581.828 69.2673 606.314 76.8014 608.197C77.7374 608.431 78.717 608.738 79.7384 609.058C86.9385 611.312 96.2159 614.216 106.938 596.896C119.181 577.119 141.783 548.866 172.861 512.137C203.94 475.409 228.425 442.447 274.572 441.505C302.572 440.934 382.704 441.048 419.604 441.274V441.505C423.953 441.464 429.038 441.42 434.672 441.377C440.306 441.42 445.39 441.464 449.74 441.505V441.274C486.64 441.048 566.772 440.934 594.772 441.505C640.918 442.447 665.404 475.409 696.482 512.137C727.561 548.866 750.163 577.119 762.406 596.896C773.128 614.216 782.405 611.312 789.605 609.058C790.627 608.738 791.606 608.431 792.542 608.197C800.076 606.314 866 581.828 866 463.166C866 344.503 788.775 164.626 768.998 119.422C749.221 74.2169 721.91 50.7412 681.414 47.8475C488.681 34.0752 380.655 33.9845 187.93 47.8475Z" stroke="white" stroke-width="6"/>
<path d="M83.1875 609.546L83.3017 609.089L82.9047 609.922L83.1875 609.546ZM106.903 596.37L106.503 596.122L106.903 596.37ZM172.827 511.611L172.467 511.307L172.827 511.611ZM178.897 504.402L179.257 504.705L178.897 504.402ZM274.537 440.978L274.527 440.508V440.508L274.537 440.978ZM419.569 440.748H420.04V440.28L419.572 440.277L419.569 440.748ZM419.569 440.978H419.098V441.454L419.573 441.449L419.569 440.978ZM434.637 440.851L434.641 440.38L434.633 440.38L434.637 440.851ZM449.705 440.978L449.701 441.449L450.176 441.454V440.978H449.705ZM449.705 440.748L449.702 440.277L449.234 440.28V440.748H449.705ZM594.737 440.978L594.747 440.508L594.747 440.508L594.737 440.978ZM690.377 504.402L690.017 504.705V504.705L690.377 504.402ZM696.448 511.611L696.088 511.915L696.448 511.611ZM762.371 596.37L762.771 596.122L762.371 596.37ZM786.157 609.528L786.441 609.904L786.042 609.071L786.157 609.528ZM781.701 611.438L781.611 610.976L781.701 611.438ZM697.413 561.053L697.781 560.76L697.413 561.053ZM679.558 522.27L679.111 522.417L679.558 522.27ZM670.495 499.063L670.907 498.835L670.495 499.063ZM655.975 475.353L655.626 475.669L655.975 475.353ZM213.346 475.353L213.695 475.669L213.346 475.353ZM198.826 499.063L198.414 498.835L198.826 499.063ZM188.382 521.998L187.949 521.815L188.382 521.998ZM164.374 568.588L164.006 568.294L164.374 568.588ZM87.6204 611.438L87.7103 610.976H87.7103L87.6204 611.438ZM83.0733 610.002C86.4319 610.842 90.2098 611.229 94.31 609.503C98.4011 607.782 102.742 603.987 107.303 596.617L106.503 596.122C101.999 603.396 97.7907 607.017 93.9447 608.635C90.1079 610.25 86.5607 609.904 83.3017 609.089L83.0733 610.002ZM107.303 596.617C119.525 576.875 142.104 548.648 173.186 511.915L172.467 511.307C141.392 548.032 118.767 576.31 106.503 596.122L107.303 596.617ZM173.186 511.915C175.236 509.492 177.257 507.086 179.257 504.705L178.536 504.099C176.536 506.48 174.516 508.885 172.467 511.307L173.186 511.915ZM179.257 504.705C207.615 470.946 231.689 442.324 274.547 441.449L274.527 440.508C231.178 441.392 206.841 470.403 178.536 504.099L179.257 504.705ZM274.547 441.449C302.539 440.878 382.665 440.993 419.566 441.218L419.572 440.277C382.673 440.051 302.535 439.936 274.527 440.508L274.547 441.449ZM419.098 440.748V440.978H420.04V440.748H419.098ZM419.573 441.449C423.923 441.408 429.007 441.364 434.641 441.322L434.633 440.38C428.999 440.423 423.914 440.466 419.564 440.508L419.573 441.449ZM434.633 441.322C440.267 441.364 445.351 441.408 449.701 441.449L449.71 440.508C445.36 440.466 440.275 440.423 434.641 440.38L434.633 441.322ZM450.176 440.978V440.748H449.234V440.978H450.176ZM449.708 441.218C486.609 440.993 566.735 440.878 594.727 441.449L594.747 440.508C566.739 439.936 486.601 440.051 449.702 440.277L449.708 441.218ZM594.727 441.449C637.585 442.324 661.659 470.945 690.017 504.705L690.738 504.099C662.433 470.403 638.096 441.392 594.747 440.508L594.727 441.449ZM690.017 504.705C692.017 507.086 694.038 509.492 696.088 511.915L696.807 511.307C694.758 508.885 692.738 506.48 690.738 504.099L690.017 504.705ZM696.088 511.915C727.17 548.648 749.749 576.875 761.971 596.617L762.771 596.122C750.507 576.31 727.882 548.032 696.807 511.307L696.088 511.915ZM761.971 596.617C766.549 604.013 770.904 607.808 775.008 609.522C779.12 611.239 782.908 610.833 786.272 609.985L786.042 609.071C782.775 609.896 779.218 610.259 775.37 608.653C771.513 607.042 767.291 603.422 762.771 596.122L761.971 596.617ZM785.873 609.152C784.741 610.008 783.338 610.64 781.611 610.976L781.79 611.9C783.644 611.54 785.183 610.854 786.441 609.904L785.873 609.152ZM781.611 610.976C777.491 611.777 771.698 610.953 764.902 608.746C758.12 606.544 750.396 602.984 742.441 598.375C726.53 589.157 709.745 575.773 697.781 560.76L697.044 561.347C709.096 576.47 725.978 589.926 741.969 599.19C749.966 603.823 757.751 607.414 764.611 609.642C771.455 611.864 777.434 612.747 781.79 611.9L781.611 610.976ZM697.781 560.76C689.23 550.029 684.43 535.516 680.005 522.122L679.111 522.417C683.523 535.773 688.369 550.46 697.044 561.347L697.781 560.76ZM680.005 522.122C677.129 513.416 674.407 505.17 670.907 498.835L670.083 499.29C673.531 505.532 676.226 513.684 679.111 522.417L680.005 522.122ZM670.907 498.835C667.88 493.357 665.158 488.43 662.736 484.368C660.318 480.313 658.181 477.089 656.324 475.037L655.626 475.669C657.415 477.646 659.51 480.798 661.927 484.85C664.339 488.896 667.054 493.809 670.083 499.29L670.907 498.835ZM656.324 475.037C647.365 465.135 625.583 444.746 597.586 444.746V445.687C625.152 445.687 646.691 465.794 655.626 475.669L656.324 475.037ZM597.586 444.746H271.735V445.687H597.586V444.746ZM271.735 444.746C243.738 444.746 221.956 465.135 212.997 475.037L213.695 475.669C222.63 465.794 244.169 445.687 271.735 445.687V444.746ZM212.997 475.037C211.14 477.089 209.003 480.313 206.585 484.368C204.163 488.43 201.441 493.357 198.414 498.835L199.238 499.29C202.267 493.809 204.982 488.896 207.394 484.85C209.81 480.798 211.906 477.646 213.695 475.669L212.997 475.037ZM198.414 498.835C195.255 504.553 191.766 512.798 187.949 521.815L188.816 522.182C192.641 513.146 196.108 504.955 199.238 499.29L198.414 498.835ZM187.949 521.815C181.063 538.083 173.103 556.878 164.006 568.294L164.742 568.881C173.938 557.341 181.949 538.405 188.816 522.182L187.949 521.815ZM164.006 568.294C152.042 583.307 137.144 594.803 123.13 602.133C109.092 609.475 96.0269 612.593 87.7103 610.976L87.5305 611.9C96.1657 613.579 109.47 610.34 123.567 602.967C137.688 595.582 152.691 584.004 164.742 568.881L164.006 568.294ZM87.7103 610.976C85.9946 610.642 84.5988 610.017 83.4703 609.169L82.9047 609.922C84.158 610.863 85.6888 611.542 87.5305 611.9L87.7103 610.976Z" fill="white"/>
<path d="M458.93 60.9659C458.93 60.9659 458.854 60.9037 458.695 60.845M458.93 60.9659C462.189 64.1716 464.777 67.995 466.54 72.2124C468.304 76.4298 469.21 80.9566 469.203 85.5281C469.215 92.8933 466.861 100.053 462.509 105.961C462.588 105.626 462.644 105.276 462.679 104.914M458.93 60.9659C458.632 61.3303 458.632 61.3304 458.632 61.3305L458.633 61.3307L458.633 61.331L458.634 61.3316L458.635 61.3328L458.638 61.3349L458.642 61.338L458.645 61.3406C458.645 61.3407 458.645 61.3403 458.644 61.3396C458.642 61.3384 458.639 61.3362 458.634 61.3332C458.633 61.3326 458.631 61.332 458.63 61.3314M458.93 60.9659L458.6 61.3016C458.61 61.3115 458.62 61.3214 458.63 61.3314M458.695 60.845C458.435 60.7543 458.16 60.7099 457.884 60.7138C456.182 60.7138 452.173 61.9638 444.058 70.0545M458.695 60.845L458.541 61.2898C458.539 61.2893 458.538 61.2887 458.536 61.2882M458.695 60.845L458.532 61.2867C458.534 61.2872 458.535 61.2877 458.536 61.2882M444.058 70.0545C450.832 78.0775 463.939 97.2983 462.072 105.761C462.279 105.481 462.481 105.199 462.679 104.914M444.058 70.0545L444.417 69.7507C444.509 69.8597 444.603 69.9706 444.697 70.0836M444.058 70.0545L444.39 70.388C444.493 70.2854 444.595 70.184 444.697 70.0836M462.679 104.914C462.838 103.268 462.557 101.358 461.986 99.3222C461.085 96.1056 459.429 92.4584 457.432 88.7992C453.538 81.6647 448.307 74.4113 444.697 70.0836M462.679 104.914C466.62 99.2395 468.744 92.477 468.733 85.5288L468.732 85.5274C468.739 81.0186 467.846 76.5537 466.106 72.3941C464.372 68.2475 461.831 64.4871 458.63 61.3314M458.63 61.3314C458.614 61.3217 458.582 61.3055 458.536 61.2882M458.536 61.2882C458.329 61.2166 458.11 61.1816 457.891 61.1846L457.884 61.1847C457.147 61.1847 455.803 61.4566 453.616 62.755C451.487 64.0193 448.583 66.2423 444.697 70.0836M418.461 55.5617C423.661 52.7418 429.098 51.4572 434.627 51.4572H434.672C440.218 51.4572 445.639 52.7404 450.859 55.5579C450.513 55.5334 450.143 55.5256 449.752 55.5401C446.352 55.6607 442.512 56.9847 439.552 58.2559C438.066 58.8943 436.789 59.525 435.883 59.9963C435.43 60.232 435.069 60.4281 434.821 60.5656C434.761 60.599 434.707 60.629 434.66 60.6553C434.619 60.6324 434.574 60.6069 434.524 60.5791C434.276 60.4412 433.915 60.2446 433.462 60.0082C432.557 59.5356 431.28 58.9031 429.794 58.263C426.836 56.9884 422.997 55.6607 419.599 55.5401L418.461 55.5617ZM418.461 55.5617C418.816 55.5349 419.196 55.5256 419.599 55.5401L418.461 55.5617ZM410.697 61.345C410.7 61.3432 410.703 61.3414 410.706 61.3396C410.709 61.3378 410.712 61.3359 410.716 61.3338L410.826 61.2922C411.026 61.2164 411.238 61.181 411.452 61.1879L411.459 61.1881H411.467C412.201 61.1881 413.545 61.4585 415.733 62.756C417.862 64.0194 420.768 66.2423 424.654 70.0867C421.044 74.4095 415.816 81.6561 411.922 88.7875C409.925 92.4452 408.269 96.0918 407.366 99.3095C406.794 101.349 406.512 103.263 406.669 104.912C402.853 99.4095 400.612 92.7345 400.612 85.5281L400.612 85.5275C400.606 81.0198 401.498 76.5561 403.237 72.3972C404.968 68.2559 407.504 64.4993 410.697 61.345ZM434.673 119.578L434.671 119.578C426.429 119.591 418.465 116.6 412.267 111.167C411.141 110.01 411.139 108.023 412.199 105.324C413.247 102.656 415.26 99.4932 417.784 96.2309C422.738 89.831 429.58 83.1528 434.672 79.2481C439.769 83.1527 446.611 89.8309 451.564 96.2309C454.088 99.4931 456.101 102.656 457.149 105.324C458.21 108.023 458.21 110.01 457.087 111.167C450.885 116.6 442.918 119.59 434.673 119.578Z" stroke="white" stroke-width="0.941764"/>
<circle cx="369.69" cy="174.044" r="16.4809" stroke="white" stroke-width="0.941764"/>
<rect x="367.472" y="172.859" width="11.037" height="7.42558" stroke="white" stroke-width="1.58365"/>
<path fill-rule="evenodd" clip-rule="evenodd" d="M362.584 168.584H372.037V170.942H373.621V168.584V167H372.037H362.584H361V168.584V174.426V176.009H362.584H365.417V174.426H362.584V168.584Z" fill="white"/>
<circle cx="495.885" cy="174.044" r="16.4809" stroke="white" stroke-width="0.941764"/>
<circle cx="217.124" cy="175.927" r="79.5791" stroke="white" stroke-width="0.941764"/>
<circle cx="217.126" cy="175.927" r="63.5691" stroke="white" stroke-width="0.941764"/>
<circle cx="217.125" cy="175.928" r="50.297" stroke="white" stroke-width="3"/>
<circle cx="217.125" cy="175.928" r="30.6073" stroke="white" stroke-width="0.941764"/>
<circle cx="527.905" cy="317.193" r="79.5791" stroke="white" stroke-width="0.941764"/>
<circle cx="527.907" cy="317.192" r="63.5691" stroke="white" stroke-width="0.941764"/>
<circle cx="527.906" cy="317.192" r="50.297" stroke="white" stroke-width="3"/>
<circle cx="527.906" cy="317.191" r="30.6073" stroke="white" stroke-width="0.941764"/>
<circle cx="326.371" cy="318.135" r="71.1032" stroke="white" stroke-width="0.941764"/>
<circle cx="326.373" cy="318.135" r="56.035" stroke="white" stroke-width="0.941764"/>
<path d="M377.273 336.028C378.894 336.028 380.345 334.994 380.783 333.434C382.149 328.568 382.879 323.437 382.879 318.135C382.879 312.833 382.149 307.702 380.783 302.836C380.345 301.275 378.894 300.241 377.273 300.241H346.15C345.11 300.241 344.267 299.398 344.267 298.358V267.235C344.267 265.614 343.233 264.162 341.672 263.724C336.806 262.359 331.675 261.629 326.373 261.629C321.071 261.629 315.94 262.359 311.074 263.724C309.513 264.162 308.48 265.614 308.48 267.235V298.358C308.48 299.398 307.636 300.241 306.596 300.241H275.473C273.852 300.241 272.401 301.275 271.963 302.836C270.597 307.702 269.867 312.833 269.867 318.135C269.867 323.437 270.597 328.568 271.963 333.434C272.401 334.994 273.852 336.028 275.473 336.028H306.596C307.636 336.028 308.48 336.872 308.48 337.912V369.034C308.48 370.655 309.513 372.107 311.074 372.545C315.94 373.91 321.071 374.641 326.373 374.641C331.675 374.641 336.806 373.91 341.672 372.545C343.233 372.107 344.267 370.655 344.267 369.034V337.912C344.267 336.872 345.11 336.028 346.15 336.028H377.273Z" stroke="white" stroke-width="3"/>
<circle cx="659.757" cy="118.479" r="26.8403" stroke="white" stroke-width="2.82529"/>
<circle cx="659.757" cy="233.376" r="26.8403" stroke="white" stroke-width="2.82529"/>
<circle cx="602.308" cy="174.985" r="26.8403" stroke="white" stroke-width="2.82529"/>
<circle cx="716.261" cy="174.985" r="26.8403" stroke="white" stroke-width="2.82529"/>
<path d="M655.98 134.491V123.302L646.41 105.031H652.44L658.044 116.058C658.22 116.423 658.375 116.76 658.51 117.07C658.658 117.38 658.8 117.711 658.935 118.061H659.036C659.171 117.711 659.305 117.38 659.44 117.07C659.589 116.76 659.757 116.423 659.946 116.058L665.551 105.031H670.973L661.504 123.221V134.491H655.98Z" fill="white"/>
<path d="M589.863 190.053L599.778 173.179H600.749L607.77 160.594H613.111L603.824 176.72H602.893L595.286 190.053H589.863ZM590.349 160.594H596.459L603.622 173.159H603.662L613.597 190.053H607.446L599.778 176.72H599.737L590.349 160.594Z" fill="white"/>
<path d="M646.266 247.501L656.261 217.98H662.27L672.245 247.501H666.64L659.781 226.114C659.62 225.602 659.485 225.143 659.377 224.738C659.269 224.32 659.168 223.916 659.073 223.524H658.972C658.878 223.916 658.776 224.32 658.669 224.738C658.561 225.143 658.426 225.602 658.264 226.114L651.526 247.501H646.266ZM651.445 240.723L652.497 236.797H665.75L666.843 240.723H651.445Z" fill="white"/>
<path d="M706.57 190.053V160.594H717.112C720.039 160.594 722.278 161.228 723.829 162.496C725.38 163.764 726.156 165.659 726.156 168.181C726.156 169.84 725.785 171.216 725.043 172.309C724.315 173.388 723.384 174.13 722.251 174.534V174.615C723.654 174.993 724.807 175.782 725.711 176.983C726.615 178.17 727.067 179.768 727.067 181.778C727.067 184.395 726.217 186.432 724.517 187.888C722.831 189.332 720.545 190.053 717.658 190.053H706.57ZM711.952 186.148H716.909C718.501 186.148 719.675 185.723 720.43 184.874C721.185 184.024 721.563 182.871 721.563 181.414C721.563 179.943 721.185 178.777 720.43 177.913C719.675 177.037 718.501 176.598 716.909 176.598H711.952V186.148ZM711.952 173.179H716.383C717.962 173.179 719.101 172.794 719.803 172.026C720.504 171.257 720.855 170.184 720.855 168.808C720.855 167.433 720.504 166.387 719.803 165.672C719.101 164.957 717.962 164.593 716.383 164.58H711.952V173.179Z" fill="white"/>
<path fill-rule="evenodd" clip-rule="evenodd" d="M488 168H503V169.714H488V168ZM488 173.143H503V174.857H488V173.143ZM503 178.286H488V180H503V178.286Z" fill="white"/>
</svg>
