<svg width="869" height="425" viewBox="0 0 869 425" fill="none" xmlns="http://www.w3.org/2000/svg">
<path opacity="0.2" d="M318.639 257.96H551.255V351.194H318.639V257.96Z" stroke="white" stroke-width="0.941764"/>
<path opacity="0.2" d="M318.403 295.395H551.49V340.128H318.403V295.395Z" stroke="white" stroke-width="0.470882"/>
<path opacity="0.2" d="M410.508 275.848C410.508 271.248 414.238 267.518 418.839 267.518H451.051C455.652 267.518 459.382 271.248 459.382 275.848C459.382 280.449 455.652 284.179 451.051 284.179H418.839C414.238 284.179 410.508 280.449 410.508 275.848Z" stroke="white" stroke-width="1.11075"/>
<line opacity="0.2" x1="419.953" y1="275.849" x2="449.943" y2="275.849" stroke="white" stroke-width="2.2215"/>
<path opacity="0.2" d="M553.845 257.724H604.045C608.429 257.724 611.776 257.432 614.301 256.199C616.801 254.979 618.464 252.852 619.56 249.281L732.249 268.977C728.311 283.35 723.4 294.962 716.23 304.304C709.021 313.696 699.519 320.806 686.397 326.113C660.167 336.723 619.498 340.12 553.845 340.128V257.724Z" stroke="white" stroke-width="0.470882"/>
<path opacity="0.2" d="M316.05 257.724H265.85C261.465 257.724 258.118 257.432 255.594 256.199C253.094 254.979 251.43 252.852 250.335 249.281L137.645 268.977C141.583 283.35 146.495 294.962 153.665 304.304C160.874 313.696 170.376 320.806 183.497 326.113C209.728 336.723 250.397 340.12 316.05 340.128V257.724Z" stroke="white" stroke-width="0.470882"/>
<path opacity="0.2" d="M553.845 257.724H604.045C608.429 257.724 611.776 257.432 614.301 256.199C616.801 254.979 618.464 252.852 619.56 249.281L732.249 268.977C728.311 283.35 723.4 294.962 716.23 304.304C709.021 313.696 699.519 320.806 686.397 326.113C660.167 336.723 619.498 340.12 553.845 340.128V257.724Z" stroke="white" stroke-width="0.470882"/>
<path opacity="0.2" d="M316.05 257.724H265.85C261.465 257.724 258.118 257.432 255.594 256.199C253.094 254.979 251.43 252.852 250.335 249.281L137.645 268.977C141.583 283.35 146.495 294.962 153.665 304.304C160.874 313.696 170.376 320.806 183.497 326.113C209.728 336.723 250.397 340.12 316.05 340.128V257.724Z" stroke="white" stroke-width="0.470882"/>
<path opacity="0.2" d="M554.551 258.537H604.045C608.376 258.537 611.895 258.458 614.586 257.238C617.215 256.045 618.937 253.839 620.069 250.091L731.392 270.102C727.491 285.902 722.641 298.761 715.635 309.19C708.497 319.815 699.093 327.957 686.083 334.103C660.113 346.371 619.801 350.682 554.551 350.723V258.537Z" stroke="white" stroke-width="1.88353"/>
<path opacity="0.2" d="M315.343 258.537H265.85C261.518 258.537 258 258.458 255.308 257.238C252.679 256.045 250.958 253.839 249.826 250.091L138.503 270.102C142.403 285.902 147.253 298.761 154.26 309.19C161.398 319.815 170.802 327.957 183.811 334.103C209.781 346.371 250.094 350.682 315.343 350.723V258.537Z" stroke="white" stroke-width="1.88353"/>
<circle opacity="0.2" cx="352.07" cy="317.762" r="9.88853" stroke="white" stroke-width="0.941764"/>
<circle opacity="0.2" cx="352.071" cy="317.762" r="12.0075" stroke="white" stroke-width="0.470882"/>
<path opacity="0.2" d="M605.613 259.225C604.097 259.212 607.945 258.929 606.349 258.929C603.693 258.929 601.285 258.87 599.551 258.048H604.289C613.06 258.048 617.371 258.157 619.534 249.955L631.79 252.074V253.251C629.721 258.631 616.622 259.322 605.613 259.225Z" stroke="white" stroke-width="0.470882"/>
<path opacity="0.2" d="M264.281 259.225C265.797 259.212 261.949 258.929 263.545 258.929C266.201 258.929 268.609 258.87 270.344 258.048H265.605C256.834 258.048 252.524 258.157 250.361 249.955L238.104 252.074V253.251C240.174 258.631 253.273 259.322 264.281 259.225Z" stroke="white" stroke-width="0.470882"/>
<path opacity="0.2" d="M737.438 265.703L737.439 265.691L737.448 265.625C741.652 233.792 741.621 205.803 737.797 176.031C733.201 140.259 698.771 118.417 664.134 122.935C643.117 125.676 630.105 142.041 616.094 162.817C611.718 169.306 607.445 174.479 601.895 178.038C596.355 181.591 589.5 183.56 579.916 183.56H289.443C279.857 183.56 272.743 181.59 267.073 178.036C261.4 174.479 257.131 169.31 253.279 162.839C245.262 149.372 238.497 140.074 231.108 133.805C223.701 127.521 215.69 124.3 205.225 122.935C170.587 118.417 136.157 140.259 131.562 176.031C127.737 205.803 127.707 233.792 131.911 265.625L131.92 265.692L131.92 265.692L131.921 265.703L132.24 267.741L132.241 267.748L132.242 267.756L132.604 269.67L132.607 269.683L132.61 269.696L132.647 269.848L133.103 269.736L132.647 269.848C140.624 302.116 152.932 324.229 180.2 337.719C206.616 350.787 246.391 355.35 307.809 355.763H307.813L561.527 355.763L561.531 355.763L561.549 355.763C622.968 355.35 662.743 350.787 689.158 337.719C716.427 324.229 728.735 302.116 736.711 269.848L736.254 269.735L736.711 269.848L736.749 269.696L736.752 269.683L736.755 269.67L737.116 267.756L737.118 267.748L737.119 267.741L737.438 265.703Z" stroke="white" stroke-width="0.941764"/>
<g opacity="0.2">
<path d="M632.678 166.137C635.144 148.572 649.047 134.81 666.636 132.516C697.812 128.449 727.784 148.117 731.754 179.025C735.43 207.639 735.186 234.597 731.258 265.156L622.131 245.898C625.503 217.884 628.43 196.395 632.678 166.137Z" stroke="white" stroke-width="3"/>
<path d="M642.675 185.827C644.66 172.742 655.895 163.052 669.129 163.052C686.363 163.052 699.912 177.851 697.992 194.97C697.236 201.713 696.497 207.888 695.758 214.071C694.201 227.087 692.64 240.144 690.896 258.627L632.518 248.82C636.504 225.678 639.098 209.403 642.675 185.827Z" stroke="white" stroke-width="0.470882"/>
<path d="M662.944 219.73L663.52 216.649L679.691 219.669L679.116 222.75L672.997 221.607L669.64 239.587L665.706 238.853L669.063 220.873L662.944 219.73Z" fill="white"/>
<path d="M644.603 234.913L648.535 213.852L655.97 215.24C658.188 215.654 659.805 216.56 660.822 217.957C661.84 219.345 662.165 221.027 661.796 223.004C661.421 225.01 660.494 226.498 659.016 227.47C657.537 228.441 655.698 228.721 653.5 228.311L649.999 227.657L648.508 235.642L644.603 234.913ZM650.528 224.822L653.667 225.408C654.96 225.649 655.93 225.476 656.579 224.889C657.227 224.301 657.653 223.463 657.857 222.373C658.058 221.293 657.961 220.372 657.564 219.609C657.168 218.847 656.324 218.345 655.031 218.103L651.892 217.517L650.528 224.822ZM655.697 236.984L652.781 226.545L656.732 226.714L660.037 237.795L655.697 236.984Z" fill="white"/>
</g>
<g opacity="0.2">
<path d="M237.213 166.137C234.747 148.572 220.843 134.81 203.254 132.516C172.079 128.449 142.107 148.117 138.136 179.025C134.461 207.639 134.705 234.597 138.633 265.156L247.759 245.898C244.387 217.884 241.461 196.395 237.213 166.137Z" stroke="white" stroke-width="3"/>
<path d="M227.216 185.827C225.231 172.742 213.995 163.052 200.762 163.052C183.528 163.052 169.978 177.851 171.899 194.97C172.655 201.713 173.393 207.888 174.133 214.071C175.689 227.087 177.251 240.144 178.995 258.627L237.372 248.82C233.386 225.678 230.793 209.403 227.216 185.827Z" stroke="white" stroke-width="0.470882"/>
<path d="M200.899 219.652L200.328 216.57L216.504 213.572L217.075 216.654L210.955 217.788L214.288 235.773L210.352 236.502L207.019 218.518L200.899 219.652Z" fill="white"/>
<path d="M193.209 239.68L189.305 218.613L193.211 217.889L196.544 235.874L205.457 234.222L206.028 237.304L193.209 239.68Z" fill="white"/>
</g>
<path d="M553.845 295.395H604.045C607.632 295.395 609.464 296.128 611.274 296.852C611.329 296.874 611.384 296.897 611.439 296.919C613.332 297.675 615.25 298.393 619.073 298.22C630.388 297.708 645.898 295.345 659.734 289.748C673.501 284.179 685.654 275.389 690.323 261.992L732.249 268.979C728.311 283.351 723.399 294.962 716.23 304.304C709.021 313.696 699.519 320.806 686.397 326.113C660.167 336.723 619.498 340.12 553.845 340.128V295.395Z" stroke="white" stroke-width="0.470882"/>
<path d="M556.609 260.596H604.045C608.258 260.596 612.262 260.553 615.437 259.113C618.282 257.823 620.168 255.601 621.433 252.428L728.857 271.739C725.081 286.439 720.434 298.357 713.926 308.043C707.006 318.344 697.895 326.248 685.204 332.243C659.974 344.162 620.677 348.532 556.609 348.663V260.596Z" stroke="white" stroke-width="6"/>
<path d="M648.793 300.588L652.465 279.48L660.018 280.794C662.164 281.167 663.737 281.909 664.739 283.019C665.752 284.121 666.098 285.596 665.777 287.442C665.572 288.621 665.136 289.551 664.47 290.231C663.806 290.902 663.043 291.307 662.182 291.446L662.172 291.504C663.129 291.96 663.857 292.669 664.356 293.632C664.856 294.595 664.982 295.787 664.735 297.208C664.407 299.092 663.518 300.451 662.069 301.285C660.631 302.11 658.858 302.339 656.752 301.972L648.793 300.588ZM653.138 298.446L656.835 299.089C658.014 299.295 658.932 299.141 659.589 298.628C660.246 298.115 660.665 297.336 660.846 296.292C661.028 295.248 660.897 294.369 660.454 293.655C660.011 292.941 659.199 292.481 658.02 292.276L654.324 291.633L653.138 298.446ZM654.765 289.095L658.085 289.673C659.245 289.875 660.128 289.75 660.734 289.298C661.34 288.845 661.729 288.131 661.898 287.155C662.067 286.189 661.939 285.405 661.516 284.803C661.093 284.202 660.301 283.8 659.142 283.599L655.822 283.021L654.765 289.095Z" fill="white"/>
<path d="M631.191 297.526L634.863 276.418L642.315 277.714C644.538 278.101 646.166 278.987 647.2 280.372C648.235 281.747 648.58 283.425 648.236 285.406C647.886 287.416 646.978 288.916 645.511 289.906C644.045 290.895 642.209 291.198 640.006 290.815L636.497 290.205L635.105 298.207L631.191 297.526ZM636.992 287.363L640.138 287.91C641.433 288.136 642.401 287.951 643.042 287.355C643.684 286.76 644.099 285.916 644.289 284.824C644.478 283.741 644.369 282.821 643.963 282.064C643.557 281.306 642.707 280.815 641.411 280.589L638.266 280.042L636.992 287.363ZM642.31 299.461L639.266 289.058L643.218 289.178L646.66 300.217L642.31 299.461Z" fill="white"/>
<path d="M316.046 295.395H265.846C262.259 295.395 260.427 296.128 258.617 296.852C258.562 296.874 258.507 296.897 258.451 296.919C256.559 297.675 254.641 298.393 250.818 298.22C239.503 297.708 223.993 295.345 210.157 289.748C196.39 284.179 184.236 275.389 179.568 261.992L137.642 268.979C141.58 283.351 146.491 294.962 153.661 304.304C160.87 313.696 170.372 320.806 183.494 326.113C209.724 336.723 250.393 340.12 316.046 340.128V295.395Z" stroke="white" stroke-width="0.470882"/>
<path d="M313.281 260.596H265.846C261.632 260.596 257.629 260.553 254.454 259.113C251.609 257.823 249.722 255.601 248.457 252.428L141.033 271.739C144.809 286.439 149.457 298.357 155.964 308.043C162.885 318.344 171.995 326.248 184.687 332.243C209.917 344.162 249.214 348.532 313.281 348.663V260.596Z" stroke="white" stroke-width="6"/>
<path d="M215.772 300.014L212.051 278.915L219.601 277.583C221.746 277.205 223.478 277.367 224.797 278.071C226.125 278.763 226.951 280.032 227.276 281.877C227.484 283.056 227.391 284.078 226.996 284.945C226.599 285.802 226.02 286.442 225.257 286.865L225.268 286.923C226.322 287.026 227.248 287.446 228.045 288.182C228.842 288.918 229.366 289.996 229.616 291.416C229.949 293.3 229.575 294.88 228.495 296.156C227.423 297.421 225.834 298.239 223.728 298.611L215.772 300.014ZM219.131 296.523L222.826 295.871C224.005 295.663 224.816 295.206 225.259 294.501C225.703 293.795 225.832 292.92 225.648 291.877C225.464 290.833 225.042 290.051 224.383 289.53C223.723 289.009 222.804 288.852 221.625 289.06L217.93 289.712L219.131 296.523ZM217.483 287.176L220.801 286.591C221.96 286.386 222.748 285.968 223.165 285.337C223.582 284.706 223.704 283.902 223.532 282.926C223.361 281.96 222.975 281.266 222.373 280.845C221.77 280.423 220.889 280.314 219.73 280.519L216.412 281.104L217.483 287.176Z" fill="white"/>
<path d="M200.468 302.713L196.746 281.614L200.659 280.924L203.836 298.937L212.763 297.362L213.307 300.449L200.468 302.713Z" fill="white"/>
<path opacity="0.2" d="M737.871 267.55C773.324 266.797 825.473 225.171 847.116 204.452" stroke="white" stroke-width="0.941764"/>
<path opacity="0.2" d="M132.145 267.55C96.2891 266.797 43.5482 225.171 21.6596 204.452" stroke="white" stroke-width="0.941764"/>
<rect opacity="0.2" x="286.237" y="186.385" width="303.719" height="71.3387" stroke="white" stroke-width="0.470882"/>
<path opacity="0.2" d="M554.629 380.791C554.629 377.724 557.116 375.238 560.183 375.238H580.154C584.313 375.238 588.087 372.8 589.797 369.009V369.009C590.796 364.82 588.277 363.8 597.342 362.387L461.61 364.13C457.304 364.13 464.978 364.82 465.977 369.008V369.008C467.688 372.8 471.461 375.238 475.621 375.238H496.242C499.309 375.238 501.796 377.724 501.796 380.791V399.192C501.796 401.032 500.304 402.524 498.463 402.524H481.346C477.04 402.524 473.864 406.546 474.863 410.735L476.86 419.105C477.337 421.106 479.125 422.518 481.181 422.518H574.593C576.65 422.518 578.438 421.106 578.915 419.105L580.911 410.735C581.91 406.546 578.735 402.524 574.429 402.524H557.962C556.121 402.524 554.629 401.032 554.629 399.192V380.791Z" stroke="white" stroke-width="2"/>
<path opacity="0.2" d="M434.218 183.524C439.808 183.501 444.854 183.478 449.175 183.457V183.579C486.075 183.698 552.817 183.826 580.817 183.524C609.496 183.524 617.553 162.929 630.297 131.253C633.994 122.063 637.299 113.846 640.148 107.939C663.222 60.0943 694.834 47.1582 719.021 38.9172C734.56 33.6227 751.747 31.6619 773.643 33.6227C792.65 35.3248 808.411 42.236 821.202 49.5055C831.567 55.3956 865.435 75.5146 865.435 138.236C865.435 200.958 788.21 296.036 768.433 319.93C748.656 343.825 720.744 351.774 680.849 357.763C650.541 362.312 542.565 363.963 434.218 363.626C325.87 363.963 217.894 362.312 187.586 357.763C147.691 351.774 119.779 343.825 100.002 319.93C80.2247 296.036 3 200.958 3 138.236C3 75.5146 36.8683 55.3956 47.2326 49.5055C60.0241 42.236 75.7847 35.3248 94.7917 33.6227C116.688 31.6619 133.875 33.6227 149.414 38.9172C173.601 47.1582 205.214 60.0943 228.287 107.939C231.136 113.846 234.441 122.063 238.138 131.253C250.882 162.929 258.689 183.524 287.618 183.524C315.618 183.826 382.36 183.698 419.26 183.579V183.457C423.581 183.478 428.627 183.501 434.218 183.524Z" stroke="white" stroke-width="6"/>
<path opacity="0.2" d="M142.453 344.643L142.83 343.716L141.756 345.359L142.453 344.643ZM155.194 369.008L154.222 369.24L154.244 369.332L154.283 369.419L155.194 369.008ZM164.08 410.734L165.053 410.502L164.08 410.734ZM166.077 419.105L165.104 419.337H165.104L166.077 419.105ZM268.132 419.105L267.16 418.873V418.873L268.132 419.105ZM270.129 410.734L269.156 410.502L270.129 410.734ZM279.015 369.008L279.926 369.419L279.965 369.332L279.987 369.24L279.015 369.008ZM279.072 368.767L280.045 368.998L280.045 368.998L279.072 368.767ZM284.325 362.351L284.591 363.315L284.349 361.351L284.325 362.351ZM187.586 356.563L187.764 355.579L187.586 356.563ZM141.756 345.359C150.528 353.89 153.362 365.636 154.222 369.24L156.167 368.776C155.305 365.159 152.373 352.894 143.15 343.926L141.756 345.359ZM154.283 369.419C156.155 373.569 160.285 376.237 164.838 376.237V374.237C161.072 374.237 157.655 372.03 156.106 368.597L154.283 369.419ZM164.838 376.237H185.459V374.237H164.838V376.237ZM185.459 376.237C187.974 376.237 190.013 378.276 190.013 380.791H192.013C192.013 377.171 189.079 374.237 185.459 374.237V376.237ZM190.013 380.791V399.191H192.013V380.791H190.013ZM190.013 399.191C190.013 400.479 188.969 401.523 187.681 401.523V403.523C190.073 403.523 192.013 401.584 192.013 399.191H190.013ZM187.681 401.523H170.563V403.523H187.681V401.523ZM170.563 401.523C165.611 401.523 161.959 406.149 163.108 410.966L165.053 410.502C164.204 406.942 166.903 403.523 170.563 403.523V401.523ZM163.108 410.966L165.104 419.337L167.049 418.873L165.053 410.502L163.108 410.966ZM165.104 419.337C165.688 421.788 167.879 423.517 170.398 423.517V421.517C168.805 421.517 167.419 420.423 167.049 418.873L165.104 419.337ZM170.398 423.517H263.81V421.517H170.398V423.517ZM263.81 423.517C266.33 423.517 268.52 421.788 269.105 419.337L267.16 418.873C266.79 420.423 265.404 421.517 263.81 421.517V423.517ZM269.105 419.337L271.101 410.966L269.156 410.502L267.16 418.873L269.105 419.337ZM271.101 410.966C272.25 406.149 268.598 401.523 263.646 401.523V403.523C267.306 403.523 270.005 406.942 269.156 410.502L271.101 410.966ZM263.646 401.523H247.179V403.523H263.646V401.523ZM247.179 401.523C245.891 401.523 244.847 400.479 244.847 399.191H242.847C242.847 401.584 244.786 403.523 247.179 403.523V401.523ZM244.847 399.191V380.791H242.847V399.191H244.847ZM244.847 380.791C244.847 378.276 246.885 376.237 249.4 376.237V374.237C245.781 374.237 242.847 377.171 242.847 380.791H244.847ZM249.4 376.237H269.371V374.237H249.4V376.237ZM269.371 376.237C273.924 376.237 278.054 373.569 279.926 369.419L278.103 368.597C276.554 372.03 273.137 374.237 269.371 374.237V376.237ZM279.987 369.24C280.007 369.158 280.026 369.078 280.045 368.998L278.099 368.535C278.08 368.615 278.061 368.695 278.042 368.776L279.987 369.24ZM280.045 368.998C280.403 367.49 280.686 366.347 281.298 365.422C281.868 364.56 282.783 363.813 284.591 363.315L284.059 361.387C281.877 361.988 280.514 362.981 279.629 364.319C278.786 365.594 278.438 367.109 278.099 368.535L280.045 368.998ZM284.349 361.351C238.712 360.23 203.131 358.349 187.764 355.579L187.409 357.547C202.96 360.35 238.709 362.231 284.3 363.351L284.349 361.351ZM187.764 355.579C170.627 352.491 155.765 348.977 142.83 343.716L142.076 345.569C155.205 350.908 170.228 354.451 187.409 357.547L187.764 355.579Z" fill="white"/>
<g opacity="0.2">
<mask id="path-38-inside-1_701_101759" fill="white">
<path fill-rule="evenodd" clip-rule="evenodd" d="M307.545 361.524L307.317 375.691C307.283 377.771 308.943 379.485 311.023 379.518L341.155 380.004C343.235 380.038 344.949 378.379 344.983 376.298L345.212 362.042C332.25 361.914 319.642 361.742 307.545 361.524Z"/>
</mask>
<path d="M307.317 375.691L305.434 375.661L307.317 375.691ZM307.545 361.524L307.579 359.641L305.693 359.607L305.662 361.494L307.545 361.524ZM311.023 379.518L311.053 377.635H311.053L311.023 379.518ZM341.155 380.004L341.125 381.888L341.155 380.004ZM344.983 376.298L346.866 376.329V376.329L344.983 376.298ZM345.212 362.042L347.096 362.073L347.126 360.178L345.231 360.159L345.212 362.042ZM309.2 375.721L309.429 361.554L305.662 361.494L305.434 375.661L309.2 375.721ZM311.053 377.635C310.013 377.618 309.183 376.762 309.2 375.721L305.434 375.661C305.383 378.781 307.872 381.351 310.992 381.402L311.053 377.635ZM341.186 378.121L311.053 377.635L310.992 381.402L341.125 381.888L341.186 378.121ZM343.099 376.268C343.083 377.308 342.226 378.138 341.186 378.121L341.125 381.888C344.245 381.938 346.816 379.449 346.866 376.329L343.099 376.268ZM343.329 362.012L343.099 376.268L346.866 376.329L347.096 362.073L343.329 362.012ZM345.231 360.159C332.273 360.03 319.67 359.858 307.579 359.641L307.511 363.407C319.614 363.625 332.227 363.797 345.194 363.926L345.231 360.159Z" fill="white" mask="url(#path-38-inside-1_701_101759)"/>
</g>
<path opacity="0.2" d="M582.377 369.055L581.95 364.308C628.586 363.194 665.225 361.298 681.016 358.452C709.219 353.37 731.612 347.086 749.38 333.596C749.632 333.965 749.798 334.4 749.85 334.876L751.899 353.644C752.626 360.307 748.234 366.461 741.693 367.873C690.045 379.028 654.507 382.702 595.002 380.989C588.384 380.799 582.971 375.659 582.377 369.055L581.439 369.139L582.377 369.055Z" stroke="white" stroke-width="1.88353"/>
<path opacity="0.2" d="M639.572 362.509C658.198 361.507 672.572 360.261 681.017 358.739L681.017 358.739C689.244 357.256 696.973 355.671 704.233 353.838L705.412 366.949C705.82 371.482 702.576 375.528 698.067 376.082C681.069 378.171 668.157 379.318 649.394 380.433C644.843 380.703 640.903 377.296 640.494 372.751L639.572 362.509Z" stroke="white" stroke-width="1.88353"/>
<path opacity="0.2" d="M270.594 375.235L270.812 361.749C303.183 362.698 341.63 363.218 381.929 363.368L381.708 377.027C381.683 378.587 380.398 379.832 378.838 379.806L273.374 378.106C271.814 378.081 270.569 376.796 270.594 375.235L270.594 375.235Z" stroke="white" stroke-width="1.88353"/>
</svg>
