<svg width="869" height="614" fill="none" xmlns="http://www.w3.org/2000/svg"><path opacity=".2" d="M361.652 24.26h-19.71a3.296 3.296 0 0 1 3.263-2.826h13.184a3.296 3.296 0 0 1 3.263 2.826Z" stroke="#fff" stroke-width=".942"/><path d="M314.349 40.268c-39.306 1.724-81.186 4.271-128.08 7.645-20.393 1.467-36.186 6.976-49.195 16.733 3.896-8.071 8.616-14.351 15.718-20.355 25.359-21.439 67.9-35.73 101.443-40.025a2903 2903 0 0 0 2.986-.384h.002c20.397-2.633 33.816-4.364 37.4 4.621l.488 1.225.063.16c4.222 10.614 9.503 13.816 19.175 14.48v15.9Zm235.441-.057c-81.503-3.534-152.058-3.555-233.558-.025V24.368H549.79v15.843Zm180.107 26.473c-14.056-11.158-30.558-17.372-50.144-18.771-46.895-3.351-88.774-5.892-128.08-7.62V24.369c9.671-.664 14.952-3.866 19.175-14.48l.023-.06.528-1.325c3.584-8.985 17.003-7.254 37.4-4.621h.01c.977.127 1.97.255 2.978.384C645.33 8.56 687.871 22.852 713.23 44.291c7.688 6.5 12.586 13.324 16.667 22.393Z" opacity=".2" stroke="#fff" stroke-width="2.825"/><path opacity=".2" d="M187.93 47.379c-45.205 3.251-67.807 26.37-87.585 71.574C80.568 164.158 3.344 344.035 3.344 462.697c0 118.662 65.923 143.148 73.457 145.032.936.234 1.916.54 2.937.86 7.2 2.254 16.478 5.158 27.2-12.162 12.243-19.777 34.845-48.03 65.923-84.758 31.079-36.729 55.564-69.691 101.711-70.633 28-.571 108.132-.456 145.032-.231v.231c4.349-.041 9.434-.085 15.068-.128 5.634.043 10.718.087 15.068.128v-.231c36.9-.225 117.032-.34 145.032.231 46.146.942 70.632 33.904 101.71 70.633 31.079 36.728 53.681 64.981 65.924 84.758 10.722 17.32 19.999 14.416 27.199 12.162 1.022-.32 2.001-.626 2.937-.86 7.534-1.884 73.458-26.37 73.458-145.032s-77.225-298.539-97.002-343.744c-19.777-45.205-47.088-68.68-87.584-71.574-192.733-13.773-300.759-13.863-493.484 0Z" stroke="#fff" stroke-width="6"/><path opacity=".2" d="m83.188 609.077.114-.457-.397.833.282-.376Zm23.715-13.176-.4-.248.4.248Zm65.924-84.759-.36-.304.36.304Zm6.07-7.209.36.303-.36-.303Zm95.64-63.423-.01-.471.01.471Zm145.032-.231h.471v-.468l-.468-.003-.003.471Zm0 .231h-.471v.475l.475-.004-.004-.471Zm15.068-.128.004-.471h-.008l.004.471Zm15.068.128-.004.471.475.004v-.475h-.471Zm0-.231-.003-.471-.468.003v.468h.471Zm145.032.231.01-.471-.01.471Zm95.64 63.423-.36.303.36-.303Zm6.071 7.209-.36.304.36-.304Zm65.923 84.759.4-.248-.4.248Zm23.786 13.158.284.376-.399-.832.115.456Zm-4.456 1.91-.09-.462.09.462Zm-84.288-50.384.368-.294-.368.294Zm-17.855-38.784-.447.148.447-.148Zm-9.063-23.207.412-.228-.412.228Zm-14.52-23.71-.349.316.349-.316Zm-442.629 0 .349.316-.349-.316Zm-14.52 23.71-.412-.228.412.228Zm-10.444 22.936-.433-.184.433.184Zm-24.008 46.589-.368-.294.368.294Zm-76.754 42.85.09-.462-.09.462Zm-4.547-1.435c3.359.839 7.137 1.226 11.237-.499 4.091-1.722 8.432-5.517 12.993-12.886l-.8-.496c-4.504 7.275-8.712 10.895-12.558 12.514-3.837 1.615-7.384 1.268-10.643.453l-.229.914Zm24.23-13.385c12.222-19.743 34.801-47.97 65.883-84.703l-.719-.608c-31.075 36.725-53.7 65.004-65.964 84.815l.8.496Zm65.883-84.703c2.05-2.422 4.071-4.829 6.071-7.21l-.721-.605c-2 2.381-4.02 4.786-6.069 7.207l.719.608Zm6.071-7.21c28.358-33.759 52.432-62.381 95.29-63.255l-.02-.942c-43.349.885-67.686 29.895-95.991 63.592l.721.605Zm95.29-63.255c27.992-.572 108.118-.457 145.019-.231l.006-.942c-36.899-.226-117.037-.341-145.045.231l.02.942Zm144.551-.702v.231h.942v-.231h-.942Zm.475.702c4.35-.042 9.434-.085 15.068-.128l-.008-.942c-5.634.043-10.719.086-15.069.128l.009.942Zm15.06-.128c5.634.043 10.718.086 15.068.128l.009-.942c-4.35-.042-9.435-.085-15.069-.128l-.008.942Zm15.543-.343v-.231h-.942v.231h.942Zm-.468.24c36.901-.226 117.027-.341 145.019.231l.02-.942c-28.008-.572-108.146-.457-145.045-.231l.006.942Zm145.019.231c42.858.874 66.932 29.496 95.29 63.255l.721-.606c-28.305-33.696-52.642-62.706-95.991-63.591l-.02.942Zm95.29 63.255c2 2.381 4.021 4.787 6.071 7.21l.719-.608a2393.706 2393.706 0 0 1-6.069-7.208l-.721.606Zm6.071 7.21c31.082 36.733 53.661 64.96 65.883 84.703l.8-.496c-12.264-19.811-34.889-48.09-65.964-84.815l-.719.608Zm65.883 84.703c4.578 7.395 8.933 11.191 13.037 12.904 4.112 1.717 7.9 1.312 11.264.463l-.23-.913c-3.267.824-6.824 1.187-10.672-.419-3.857-1.61-8.079-5.23-12.599-12.531l-.8.496Zm23.902 12.535c-1.132.856-2.535 1.487-4.262 1.823l.179.924c1.854-.36 3.393-1.045 4.651-1.996l-.568-.751Zm-4.262 1.823c-4.12.801-9.913-.023-16.709-2.23-6.782-2.202-14.506-5.762-22.461-10.37-15.911-9.218-32.696-22.602-44.66-37.616l-.737.587c12.052 15.123 28.934 28.579 44.925 37.844 7.997 4.632 15.782 8.224 22.642 10.451 6.844 2.222 12.823 3.105 17.179 2.258l-.179-.924Zm-83.83-50.216c-8.551-10.731-13.351-25.244-17.776-38.638l-.894.296c4.412 13.355 9.258 28.042 17.933 38.929l.737-.587Zm-17.776-38.638c-2.876-8.706-5.598-16.952-9.098-23.287l-.824.456c3.448 6.242 6.143 14.394 9.028 23.127l.894-.296Zm-9.098-23.287c-3.027-5.477-5.749-10.405-8.171-14.467-2.418-4.055-4.555-7.278-6.412-9.331l-.698.632c1.789 1.977 3.884 5.129 6.301 9.182 2.412 4.045 5.127 8.958 8.156 14.44l.824-.456Zm-14.583-23.798c-8.959-9.902-30.741-30.291-58.738-30.291v.942c27.566 0 49.105 20.106 58.04 29.981l.698-.632Zm-58.738-30.291H271.735v.942h325.851v-.942Zm-325.851 0c-27.997 0-49.779 20.389-58.738 30.291l.698.632c8.935-9.875 30.474-29.981 58.04-29.981v-.942Zm-58.738 30.291c-1.857 2.053-3.994 5.276-6.412 9.331-2.422 4.062-5.144 8.99-8.171 14.467l.824.456c3.029-5.482 5.744-10.395 8.156-14.44 2.416-4.053 4.512-7.205 6.301-9.182l-.698-.632Zm-14.583 23.798c-3.159 5.718-6.648 13.963-10.465 22.98l.867.367c3.825-9.036 7.292-17.227 10.422-22.891l-.824-.456Zm-10.465 22.98c-6.886 16.268-14.846 35.063-23.943 46.479l.736.587c9.196-11.54 17.207-30.476 24.074-46.699l-.867-.367Zm-23.943 46.479c-11.964 15.014-26.862 26.51-40.876 33.839-14.038 7.342-27.103 10.46-35.42 8.843l-.18.924c8.636 1.679 21.94-1.559 36.037-8.933 14.121-7.385 29.124-18.963 41.175-34.086l-.736-.587ZM87.71 610.507c-1.715-.334-3.111-.959-4.24-1.807l-.565.753c1.253.942 2.784 1.62 4.626 1.978l.18-.924Z" fill="#fff"/><path d="M458.931 60.497s-.076-.062-.235-.12m.235.12a34.372 34.372 0 0 1 10.273 24.562 34.356 34.356 0 0 1-6.694 20.433c.079-.335.135-.684.17-1.047m-3.749-43.948-.298.365h.001l.001.001.001.001.003.002.004.003.003.003-.001-.001-.011-.006-.003-.002m.3-.366-.33.336.03.03m.065-.487a2.363 2.363 0 0 0-.811-.13c-1.702 0-5.712 1.25-13.826 9.34m14.637-9.21-.154.445-.005-.001m.159-.444-.163.442.004.002m-14.478 8.766c6.774 8.023 19.881 27.244 18.014 35.706.207-.279.409-.562.607-.847m-18.621-34.86.359-.303.28.333m-.639-.03.332.334.307-.304m17.982 34.83c.159-1.645-.122-3.555-.693-5.591-.901-3.217-2.557-6.864-4.554-10.523-3.894-7.135-9.125-14.388-12.735-18.716m17.982 34.83a33.88 33.88 0 0 0 6.053-19.385v-.001a33.897 33.897 0 0 0-10.102-24.196m0 0a.605.605 0 0 0-.094-.043m0 0a1.894 1.894 0 0 0-.645-.104h-.007c-.737 0-2.081.272-4.268 1.57-2.129 1.265-5.033 3.488-8.919 7.329m-26.236-14.522c5.2-2.82 10.637-4.104 16.166-4.104h.045c5.546 0 10.967 1.283 16.187 4.1a10.259 10.259 0 0 0-1.107-.018c-3.4.121-7.24 1.445-10.2 2.716a55.606 55.606 0 0 0-4.731 2.31l-.161.09-.136-.076a55.253 55.253 0 0 0-4.73-2.316c-2.958-1.275-6.797-2.603-10.195-2.724l-1.138.022Zm0 0c.355-.027.735-.036 1.137-.022l-1.137.022Zm-7.764 5.783.009-.005.01-.006.11-.041c.2-.076.412-.112.626-.105h.015c.734 0 2.078.27 4.266 1.568 2.129 1.264 5.035 3.487 8.921 7.331-3.61 4.323-8.838 11.57-12.732 18.7-1.997 3.659-3.653 7.305-4.556 10.523-.572 2.04-.854 3.953-.697 5.603a33.894 33.894 0 0 1-6.057-19.385 33.919 33.919 0 0 1 10.085-24.183Zm23.976 58.234h-.002a33.913 33.913 0 0 1-22.404-8.411c-1.126-1.158-1.128-3.145-.068-5.844 1.048-2.668 3.06-5.83 5.585-9.093 4.954-6.4 11.796-13.078 16.888-16.983 5.097 3.905 11.939 10.583 16.892 16.983 2.524 3.263 4.537 6.425 5.585 9.093 1.061 2.699 1.061 4.686-.062 5.844a33.95 33.95 0 0 1-22.414 8.411Z" stroke="#fff" stroke-width=".942" opacity=".2"/><circle opacity=".2" cx="369.69" cy="173.575" r="16.481" stroke="#fff" stroke-width=".942"/><circle opacity=".2" cx="495.886" cy="173.575" r="16.481" stroke="#fff" stroke-width=".942"/><g opacity=".2" stroke="#fff"><circle cx="217.124" cy="175.458" r="79.579" stroke-width=".942"/><circle cx="217.124" cy="175.458" r="63.569" stroke-width=".942"/><circle cx="217.124" cy="175.459" r="50.297" stroke-width="3"/><circle cx="217.124" cy="175.459" r="30.607" stroke-width=".942"/></g><g opacity=".2" stroke="#fff"><circle cx="527.906" cy="316.724" r="79.579" stroke-width=".942"/><circle cx="527.906" cy="316.724" r="63.569" stroke-width=".942"/><circle cx="527.906" cy="316.723" r="50.297" stroke-width="3"/><circle cx="527.906" cy="316.723" r="30.607" stroke-width=".942"/></g><g opacity=".2" stroke="#fff"><circle cx="326.369" cy="317.666" r="71.103" stroke-width=".942"/><circle cx="326.369" cy="317.666" r="56.035" stroke-width=".942"/><path d="M377.269 335.56c1.621 0 3.073-1.034 3.511-2.595a56.566 56.566 0 0 0 2.095-15.299c0-5.302-.73-10.433-2.095-15.299-.438-1.561-1.89-2.595-3.511-2.595h-31.123a1.883 1.883 0 0 1-1.883-1.883v-31.123c0-1.621-1.034-3.072-2.595-3.51a56.527 56.527 0 0 0-15.299-2.096c-5.302 0-10.433.73-15.299 2.096-1.56.438-2.594 1.889-2.594 3.51v31.123c0 1.04-.844 1.884-1.884 1.884H275.47c-1.622 0-3.073 1.033-3.511 2.594a56.527 56.527 0 0 0-2.096 15.299c0 5.302.73 10.433 2.096 15.299.438 1.561 1.889 2.595 3.511 2.595h31.122c1.04 0 1.884.843 1.884 1.883v31.123c0 1.621 1.034 3.072 2.594 3.51a56.527 56.527 0 0 0 15.299 2.096c5.302 0 10.433-.73 15.299-2.096 1.561-.438 2.595-1.889 2.595-3.51v-31.123c0-1.04.843-1.883 1.883-1.883h31.123Z" stroke-width="3"/></g><circle cx="659.754" cy="118.011" r="28.253" stroke="#fff" stroke-width="6"/><circle cx="659.754" cy="232.907" r="28.253" stroke="#fff" stroke-width="6"/><circle cx="602.306" cy="174.517" r="28.253" stroke="#fff" stroke-width="6"/><circle cx="716.26" cy="174.517" r="28.253" stroke="#fff" stroke-width="6"/><path d="M655.978 134.022v-11.189l-9.571-18.271h6.03l5.604 11.028c.176.364.331.701.466 1.011.148.311.29.641.425.992h.101c.135-.351.27-.681.404-.992.149-.31.317-.647.506-1.011l5.605-11.028h5.422l-9.469 18.19v11.27h-5.523Zm-66.118 55.563 9.915-16.875h.971l7.021-12.585h5.341l-9.287 16.126h-.93l-7.608 13.334h-5.423Zm.486-29.46h6.11l7.163 12.565h.04l9.935 16.895h-6.151l-7.668-13.334h-.041l-9.388-16.126Zm55.92 86.907 9.995-29.52h6.009l9.975 29.52h-5.605l-6.859-21.387a33.426 33.426 0 0 1-.404-1.375 89.843 89.843 0 0 1-.304-1.214h-.101c-.094.391-.196.795-.303 1.214-.108.404-.243.863-.405 1.375l-6.738 21.387h-5.26Zm5.179-6.778 1.052-3.925h13.253l1.093 3.925h-15.398Zm55.121-50.669v-29.46h10.542c2.927 0 5.166.634 6.717 1.902 1.552 1.268 2.327 3.163 2.327 5.685 0 1.66-.371 3.035-1.113 4.128-.728 1.079-1.659 1.821-2.792 2.226v.081c1.403.377 2.556 1.166 3.46 2.367.904 1.187 1.356 2.785 1.356 4.795 0 2.617-.85 4.654-2.55 6.111-1.686 1.443-3.972 2.165-6.859 2.165h-11.088Zm5.382-3.905h4.958c1.591 0 2.765-.425 3.52-1.275.756-.85 1.133-2.003 1.133-3.46 0-1.47-.377-2.637-1.133-3.5-.755-.877-1.929-1.316-3.52-1.316h-4.958v9.551Zm0-12.97h4.432c1.578 0 2.718-.384 3.419-1.153.701-.769 1.052-1.841 1.052-3.217 0-1.376-.351-2.422-1.052-3.136-.701-.715-1.841-1.08-3.419-1.093h-4.432v8.599Z" fill="#fff"/></svg>