<svg width="869" height="425" fill="none" xmlns="http://www.w3.org/2000/svg"><path opacity=".2" d="M318.639 257.96h232.616v93.234H318.639V257.96Z" stroke="#fff" stroke-width=".942"/><path opacity=".2" d="M318.403 295.395H551.49v44.733H318.403v-44.733Z" stroke="#fff" stroke-width=".471"/><path opacity=".2" d="M410.51 275.848c0-4.6 3.73-8.33 8.331-8.33h32.212a8.33 8.33 0 0 1 8.33 8.33 8.33 8.33 0 0 1-8.33 8.331h-32.212a8.331 8.331 0 0 1-8.331-8.331Z" stroke="#fff" stroke-width="1.111"/><path opacity=".2" stroke="#fff" stroke-width="2.221" d="M419.951 275.849h29.99"/><path opacity=".2" d="M553.844 257.724h50.2c4.384 0 7.731-.292 10.256-1.525 2.5-1.22 4.163-3.347 5.259-6.918l112.689 19.696c-3.938 14.373-8.849 25.985-16.019 35.327-7.209 9.392-16.711 16.502-29.833 21.809-26.23 10.61-66.899 14.007-132.552 14.015v-82.404Zm-237.795 0h-50.2c-4.385 0-7.732-.292-10.256-1.525-2.5-1.22-4.164-3.347-5.259-6.918l-112.69 19.696c3.938 14.373 8.85 25.985 16.02 35.327 7.209 9.392 16.711 16.502 29.832 21.809 26.231 10.61 66.9 14.007 132.553 14.015v-82.404Z" stroke="#fff" stroke-width=".471"/><path opacity=".2" d="M553.844 257.724h50.2c4.384 0 7.731-.292 10.256-1.525 2.5-1.22 4.163-3.347 5.259-6.918l112.689 19.696c-3.938 14.373-8.849 25.985-16.019 35.327-7.209 9.392-16.711 16.502-29.833 21.809-26.23 10.61-66.899 14.007-132.552 14.015v-82.404Zm-237.795 0h-50.2c-4.385 0-7.732-.292-10.256-1.525-2.5-1.22-4.164-3.347-5.259-6.918l-112.69 19.696c3.938 14.373 8.85 25.985 16.02 35.327 7.209 9.392 16.711 16.502 29.832 21.809 26.231 10.61 66.9 14.007 132.553 14.015v-82.404Z" stroke="#fff" stroke-width=".471"/><path opacity=".2" d="M554.55 258.537h49.494c4.331 0 7.85-.079 10.541-1.299 2.629-1.193 4.351-3.399 5.483-7.147l111.323 20.011c-3.901 15.8-8.751 28.659-15.757 39.088-7.138 10.625-16.542 18.767-29.552 24.913-25.97 12.268-66.282 16.579-131.532 16.62v-92.186Zm-239.208 0h-49.493c-4.332 0-7.85-.079-10.542-1.299-2.629-1.193-4.35-3.399-5.482-7.147l-111.323 20.011c3.9 15.8 8.75 28.659 15.757 39.088 7.138 10.625 16.542 18.767 29.551 24.913 25.97 12.268 66.283 16.579 131.532 16.62v-92.186Z" stroke="#fff" stroke-width="1.884"/><circle opacity=".2" cx="352.071" cy="317.762" r="9.889" stroke="#fff" stroke-width=".942"/><circle opacity=".2" cx="352.071" cy="317.762" r="12.008" stroke="#fff" stroke-width=".471"/><path opacity=".2" d="M605.611 259.225c-1.516-.013 2.332-.296.736-.296-2.656 0-5.064-.059-6.798-.881h4.738c8.771 0 13.082.109 15.245-8.093l12.256 2.119v1.177c-2.069 5.38-15.168 6.071-26.177 5.974Zm-341.33 0c1.516-.013-2.332-.296-.736-.296 2.656 0 5.064-.059 6.799-.881h-4.739c-8.771 0-13.081.109-15.244-8.093l-12.257 2.119v1.177c2.07 5.38 15.169 6.071 26.177 5.974Z" stroke="#fff" stroke-width=".471"/><path opacity=".2" d="m737.44 265.691-.001.012-.319 2.038-.001.007-.002.008-.362 1.914-.002.013-.003.013-.038.152-.457-.113.457.113c-7.976 32.268-20.284 54.381-47.553 67.871-26.415 13.068-66.19 17.631-127.609 18.044H307.81l429.63-90.072Zm0 0 .009-.066c4.204-31.833 4.173-59.822.349-89.594-4.596-35.772-39.026-57.614-73.663-53.096-21.017 2.741-34.029 19.106-48.04 39.882-4.376 6.489-8.649 11.662-14.199 15.221-5.54 3.553-12.395 5.522-21.979 5.522H289.444c-9.586 0-16.7-1.97-22.37-5.524-5.673-3.557-9.942-8.726-13.794-15.197-8.017-13.467-14.782-22.765-22.171-29.034-7.407-6.284-15.418-9.505-25.883-10.87-34.638-4.518-69.068 17.324-73.663 53.096-3.825 29.772-3.855 57.761.349 89.594l.009.067.001.011.319 2.038.001.007.001.008.362 1.914.003.013.003.013.037.152.456-.112m604.336-4.045-604.336 4.045m0 0-.456.112c7.977 32.268 20.285 54.381 47.553 67.871 26.416 13.068 66.19 17.631 127.609 18.044l-174.706-86.027Z" stroke="#fff" stroke-width=".942"/><g opacity=".2"><path d="M632.679 166.137c2.466-17.565 16.369-31.327 33.958-33.621 31.176-4.067 61.148 15.601 65.118 46.509 3.676 28.614 3.432 55.572-.496 86.131l-109.127-19.258c3.372-28.014 6.299-49.503 10.547-79.761Z" stroke="#fff" stroke-width="3"/><path d="M642.675 185.827c1.985-13.085 13.22-22.775 26.454-22.775 17.234 0 30.783 14.799 28.863 31.918-.756 6.743-1.495 12.918-2.234 19.101-1.557 13.016-3.118 26.073-4.862 44.556l-58.378-9.807c3.986-23.142 6.58-39.417 10.157-62.993Z" stroke="#fff" stroke-width=".471"/><path d="m662.944 219.73.576-3.081 16.171 3.02-.575 3.081-6.119-1.143-3.357 17.98-3.934-.734 3.357-17.98-6.119-1.143Zm-18.342 15.183 3.932-21.061 7.435 1.388c2.218.414 3.835 1.32 4.852 2.717 1.018 1.388 1.343 3.07.974 5.047-.375 2.006-1.302 3.494-2.78 4.466-1.479.971-3.318 1.251-5.516.841l-3.501-.654-1.491 7.985-3.905-.729Zm5.926-10.091 3.138.586c1.293.241 2.263.068 2.912-.519.648-.588 1.074-1.426 1.278-2.516.201-1.08.104-2.001-.293-2.764-.396-.762-1.24-1.264-2.533-1.506l-3.139-.586-1.363 7.305Zm5.168 12.162-2.915-10.439 3.95.169 3.305 11.081-4.34-.811Z" fill="#fff"/></g><g opacity=".2"><path d="M237.214 166.137c-2.466-17.565-16.37-31.327-33.959-33.621-31.175-4.067-61.147 15.601-65.118 46.509-3.675 28.614-3.431 55.572.497 86.131l109.126-19.258c-3.372-28.014-6.298-49.503-10.546-79.761Z" stroke="#fff" stroke-width="3"/><path d="M227.218 185.827c-1.985-13.085-13.221-22.775-26.455-22.775-17.234 0-30.783 14.799-28.862 31.918.756 6.743 1.494 12.918 2.234 19.101 1.556 13.016 3.118 26.073 4.862 44.556l58.377-9.807c-3.986-23.142-6.579-39.417-10.156-62.993Z" stroke="#fff" stroke-width=".471"/><path d="m200.903 219.652-.571-3.082 16.176-2.998.571 3.082-6.12 1.134 3.333 17.985-3.936.729-3.333-17.984-6.12 1.134Zm-7.693 20.028-3.903-21.067 3.906-.724 3.333 17.985 8.913-1.652.571 3.082-12.82 2.376Z" fill="#fff"/></g><path d="M553.844 295.395h50.2c3.587 0 5.419.733 7.229 1.457l.165.067c1.893.756 3.811 1.474 7.634 1.301 11.315-.512 26.825-2.875 40.661-8.472 13.767-5.569 25.92-14.359 30.589-27.756l41.926 6.987c-3.938 14.372-8.85 25.983-16.019 35.325-7.209 9.392-16.711 16.502-29.833 21.809-26.23 10.61-66.899 14.007-132.552 14.015v-44.733Z" stroke="#fff" stroke-width=".471"/><path d="M556.608 260.596h47.436c4.213 0 8.217-.043 11.392-1.483 2.845-1.29 4.731-3.512 5.996-6.685l107.424 19.311c-3.776 14.7-8.423 26.618-14.931 36.304-6.92 10.301-16.031 18.205-28.722 24.2-25.23 11.919-64.527 16.289-128.595 16.42v-88.067Z" stroke="#fff" stroke-width="6"/><path d="m648.79 300.588 3.672-21.108 7.553 1.314c2.146.373 3.719 1.115 4.721 2.225 1.013 1.102 1.359 2.577 1.038 4.423-.205 1.179-.641 2.109-1.307 2.789-.664.671-1.427 1.076-2.287 1.215l-.011.058a4.667 4.667 0 0 1 2.184 2.128c.5.963.626 2.155.379 3.576-.328 1.884-1.217 3.243-2.666 4.077-1.438.825-3.21 1.054-5.317.687l-7.959-1.384Zm4.345-2.142 3.697.643c1.179.206 2.097.052 2.754-.461s1.076-1.292 1.258-2.336c.181-1.044.05-1.923-.393-2.637s-1.254-1.174-2.434-1.379l-3.696-.643-1.186 6.813Zm1.627-9.351 3.32.578c1.16.202 2.043.077 2.649-.375.607-.453.995-1.167 1.164-2.143.169-.966.041-1.75-.382-2.352-.423-.601-1.215-1.003-2.374-1.204l-3.32-.578-1.057 6.074Zm-23.572 8.431 3.672-21.108 7.452 1.296c2.223.387 3.851 1.273 4.885 2.658 1.035 1.375 1.38 3.053 1.036 5.034-.35 2.01-1.258 3.51-2.725 4.5-1.466.989-3.302 1.292-5.505.909l-3.508-.61-1.393 8.002-3.914-.681Zm5.801-10.163 3.146.547c1.295.226 2.263.041 2.904-.555.642-.595 1.057-1.439 1.247-2.531.189-1.083.08-2.003-.326-2.76-.406-.758-1.256-1.249-2.552-1.475l-3.145-.547-1.274 7.321Zm5.318 12.098-3.044-10.403 3.952.12 3.442 11.039-4.35-.756Z" fill="#fff"/><path d="M316.049 295.395h-50.2c-3.587 0-5.419.733-7.229 1.457l-.166.067c-1.892.756-3.81 1.474-7.633 1.301-11.315-.512-26.825-2.875-40.661-8.472-13.767-5.569-25.921-14.359-30.589-27.756l-41.926 6.987c3.938 14.372 8.849 25.983 16.019 35.325 7.209 9.392 16.711 16.502 29.832 21.809 26.231 10.61 66.9 14.007 132.553 14.015v-44.733Z" stroke="#fff" stroke-width=".471"/><path d="M313.284 260.596h-47.435c-4.214 0-8.217-.043-11.392-1.483-2.845-1.29-4.732-3.512-5.997-6.685l-107.424 19.311c3.776 14.7 8.424 26.618 14.931 36.304 6.921 10.301 16.031 18.205 28.723 24.2 25.23 11.919 64.527 16.289 128.594 16.42v-88.067Z" stroke="#fff" stroke-width="6"/><path d="m215.773 300.014-3.721-21.099 7.55-1.332c2.144-.378 3.877-.216 5.196.488 1.328.692 2.154 1.961 2.479 3.806.208 1.179.115 2.201-.28 3.068-.397.857-.976 1.497-1.739 1.92l.011.058c1.054.103 1.98.523 2.777 1.259.797.736 1.321 1.814 1.571 3.234.333 1.884-.041 3.464-1.121 4.74-1.072 1.265-2.661 2.083-4.767 2.455l-7.956 1.403Zm3.359-3.491 3.695-.652c1.179-.208 1.99-.665 2.433-1.37.444-.706.573-1.581.389-2.624-.184-1.044-.606-1.826-1.265-2.347-.66-.521-1.579-.678-2.758-.47l-3.695.652 1.201 6.811Zm-1.649-9.347 3.319-.585c1.159-.205 1.947-.623 2.364-1.254.417-.631.539-1.435.367-2.411-.171-.966-.557-1.66-1.159-2.081-.603-.422-1.484-.531-2.643-.326l-3.318.585 1.07 6.072Zm-17.012 15.537-3.722-21.099 3.913-.69 3.177 18.013 8.926-1.575.545 3.087-12.839 2.264Z" fill="#fff"/><path opacity=".2" d="M737.871 267.55c35.453-.753 87.602-42.379 109.245-63.098M132.145 267.55c-35.856-.753-88.597-42.379-110.485-63.098" stroke="#fff" stroke-width=".942"/><path opacity=".2" stroke="#fff" stroke-width=".471" d="M286.236 186.385h303.719v71.339H286.236z"/><path opacity=".2" d="M554.629 380.791a5.554 5.554 0 0 1 5.554-5.553h19.971a10.58 10.58 0 0 0 9.643-6.229c.999-4.189-1.52-5.209 7.545-6.622L461.61 364.13c-4.306 0 3.368.69 4.367 4.878a10.58 10.58 0 0 0 9.644 6.23h20.621a5.554 5.554 0 0 1 5.554 5.553v18.401a3.332 3.332 0 0 1-3.333 3.332h-17.117c-4.306 0-7.482 4.022-6.483 8.211l1.997 8.37a4.443 4.443 0 0 0 4.321 3.413h93.412a4.443 4.443 0 0 0 4.322-3.413l1.996-8.37c.999-4.189-2.176-8.211-6.482-8.211h-16.467a3.332 3.332 0 0 1-3.333-3.332v-18.401Z" stroke="#fff" stroke-width="2"/><path opacity=".2" d="M434.218 183.524c5.59-.023 10.636-.046 14.957-.067v.122c36.9.119 103.642.247 131.642-.055 28.679 0 36.736-20.595 49.48-52.271 3.697-9.19 7.002-17.407 9.851-23.314 23.074-47.845 54.686-60.78 78.873-69.022 15.539-5.294 32.726-7.255 54.622-5.294 19.007 1.702 34.768 8.613 47.559 15.883 10.365 5.89 44.233 26.009 44.233 88.73 0 62.722-77.225 157.8-97.002 181.694-19.777 23.895-47.689 31.844-87.584 37.833-30.308 4.549-138.284 6.2-246.631 5.863-108.348.337-216.324-1.314-246.632-5.863-39.895-5.989-67.807-13.938-87.584-37.833C80.225 296.036 3 200.958 3 138.236c0-62.721 33.868-82.84 44.233-88.73 12.791-7.27 28.552-14.181 47.559-15.883 21.896-1.961 39.083 0 54.622 5.294 24.187 8.241 55.8 21.177 78.873 69.022 2.849 5.907 6.154 14.124 9.851 23.314 12.744 31.676 20.551 52.271 49.48 52.271 28 .302 94.742.174 131.642.055v-.122c4.321.021 9.367.044 14.958.067Z" stroke="#fff" stroke-width="6"/><path opacity=".2" d="m142.451 344.643.377-.927-1.074 1.643.697-.716Zm12.741 24.365-.972.232.022.092.039.087.911-.411Zm8.886 41.726.973-.232-.973.232Zm1.997 8.371-.973.232.973-.232Zm102.055 0-.972-.232.972.232Zm1.997-8.371-.973-.232.973.232Zm8.886-41.726.911.411.039-.087.022-.092-.972-.232Zm.057-.241.973.231-.973-.231Zm5.253-6.416.266.964-.241-1.964-.025 1Zm-96.739-5.788.178-.984-.178.984Zm-45.83-11.204c8.772 8.531 11.606 20.277 12.466 23.881l1.945-.464c-.862-3.617-3.794-15.882-13.017-24.85l-1.394 1.433Zm12.527 24.06a11.579 11.579 0 0 0 10.555 6.818v-2a9.58 9.58 0 0 1-8.732-5.64l-1.823.822Zm10.555 6.818h20.621v-2h-20.621v2Zm20.621 0a4.554 4.554 0 0 1 4.554 4.554h2a6.554 6.554 0 0 0-6.554-6.554v2Zm4.554 4.554v18.4h2v-18.4h-2Zm0 18.4a2.332 2.332 0 0 1-2.332 2.332v2a4.332 4.332 0 0 0 4.332-4.332h-2Zm-2.332 2.332h-17.118v2h17.118v-2Zm-17.118 0c-4.952 0-8.604 4.626-7.455 9.443l1.945-.464c-.849-3.56 1.85-6.979 5.51-6.979v-2Zm-7.455 9.443 1.996 8.371 1.945-.464-1.996-8.371-1.945.464Zm1.996 8.371a5.443 5.443 0 0 0 5.295 4.18v-2a3.444 3.444 0 0 1-3.35-2.644l-1.945.464Zm5.295 4.18h93.412v-2h-93.412v2Zm93.412 0a5.442 5.442 0 0 0 5.294-4.18l-1.945-.464a3.444 3.444 0 0 1-3.349 2.644v2Zm5.294-4.18 1.996-8.371-1.945-.464-1.996 8.371 1.945.464Zm1.996-8.371c1.149-4.817-2.503-9.443-7.455-9.443v2c3.66 0 6.359 3.419 5.51 6.979l1.945.464Zm-7.455-9.443h-16.467v2h16.467v-2Zm-16.467 0a2.332 2.332 0 0 1-2.332-2.332h-2a4.331 4.331 0 0 0 4.332 4.332v-2Zm-2.332-2.332v-18.4h-2v18.4h2Zm0-18.4a4.553 4.553 0 0 1 4.553-4.554v-2a6.553 6.553 0 0 0-6.553 6.554h2Zm4.553-4.554h19.971v-2h-19.971v2Zm19.971 0c4.553 0 8.683-2.668 10.555-6.818l-1.823-.822a9.58 9.58 0 0 1-8.732 5.64v2Zm10.616-6.997.058-.242-1.946-.463-.057.241 1.945.464Zm.058-.242c.358-1.508.641-2.651 1.253-3.576.57-.862 1.485-1.609 3.293-2.107l-.532-1.928c-2.182.601-3.545 1.594-4.43 2.932-.843 1.275-1.191 2.79-1.53 4.216l1.946.463Zm4.305-7.647c-45.638-1.121-81.219-3.002-96.586-5.772l-.355 1.968c15.551 2.803 51.301 4.684 96.891 5.804l.05-2Zm-96.586-5.772c-17.137-3.088-31.999-6.602-44.934-11.863l-.754 1.853c13.129 5.339 28.152 8.882 45.333 11.978l.355-1.968Z" fill="#fff"/><g opacity=".2" fill="#fff"><mask id="Device Type=Xbox, View=Top-bumppers__a"><path fill-rule="evenodd" clip-rule="evenodd" d="m307.547 361.524-.228 14.167a3.766 3.766 0 0 0 3.706 3.827l30.132.486a3.767 3.767 0 0 0 3.828-3.706l.229-14.256c-12.962-.128-25.57-.3-37.667-.518Z"/></mask><path d="m307.319 375.691-1.883-.03 1.883.03Zm.228-14.167.034-1.883-1.887-.034-.03 1.887 1.883.03Zm3.478 17.994.03-1.883-.03 1.883Zm30.132.486-.03 1.884.03-1.884Zm3.828-3.706 1.883.031-1.883-.031Zm.229-14.256 1.884.031.03-1.895-1.895-.019-.019 1.883Zm-36.012 13.679.229-14.167-3.767-.06-.228 14.167 3.766.06Zm1.853 1.914a1.883 1.883 0 0 1-1.853-1.914l-3.766-.06a5.65 5.65 0 0 0 5.558 5.741l.061-3.767Zm30.133.486-30.133-.486-.061 3.767 30.133.486.061-3.767Zm1.913-1.853a1.883 1.883 0 0 1-1.913 1.853l-.061 3.767a5.651 5.651 0 0 0 5.741-5.559l-3.767-.061Zm.23-14.256-.23 14.256 3.767.061.23-14.256-3.767-.061Zm1.902-1.853a4728.946 4728.946 0 0 1-37.652-.518l-.068 3.766c12.102.218 24.716.39 37.683.519l.037-3.767Z" mask="url(#Device Type=Xbox, View=Top-bumppers__a)"/></g><path opacity=".2" d="m582.378 369.055-.427-4.747c46.636-1.114 83.275-3.01 99.066-5.856 28.203-5.082 50.596-11.366 68.364-24.856a2.8 2.8 0 0 1 .47 1.28l2.049 18.768c.727 6.663-3.665 12.817-10.206 14.229-51.648 11.155-87.186 14.829-146.691 13.116-6.618-.19-12.031-5.33-12.625-11.934l-.938.084.938-.084Z" stroke="#fff" stroke-width="1.884"/><path opacity=".2" d="M639.571 362.509c18.626-1.002 33-2.248 41.445-3.77 8.227-1.483 15.956-3.068 23.216-4.901l1.179 13.111c.408 4.533-2.836 8.579-7.345 9.133-16.998 2.089-29.91 3.236-48.673 4.351-4.551.27-8.491-3.137-8.9-7.682l-.922-10.242Zm-368.977 12.726.218-13.486c32.371.949 70.818 1.469 111.117 1.619l-.221 13.659a2.824 2.824 0 0 1-2.87 2.779l-105.464-1.7a2.826 2.826 0 0 1-2.78-2.871Z" stroke="#fff" stroke-width="1.884"/></svg>