<svg width="869" height="425" viewBox="0 0 869 425" fill="none" xmlns="http://www.w3.org/2000/svg">
<path d="M318.639 258.491H551.255V351.726H318.639V258.491Z" stroke="white" stroke-width="0.941764"/>
<path d="M318.403 295.926H551.49V340.66H318.403V295.926Z" stroke="white" stroke-width="0.470882"/>
<path d="M410.508 276.38C410.508 271.779 414.238 268.049 418.839 268.049H451.051C455.652 268.049 459.382 271.779 459.382 276.38C459.382 280.981 455.652 284.71 451.051 284.71H418.839C414.238 284.71 410.508 280.981 410.508 276.38Z" stroke="white" stroke-width="1.11075"/>
<line x1="419.953" y1="276.38" x2="449.943" y2="276.38" stroke="white" stroke-width="2.2215"/>
<path d="M553.845 258.255H604.045C608.429 258.255 611.776 257.964 614.301 256.731C616.801 255.51 618.464 253.383 619.56 249.812L732.249 269.508C728.311 283.881 723.4 295.493 716.23 304.835C709.021 314.227 699.519 321.337 686.397 326.644C660.167 337.254 619.498 340.652 553.845 340.66V258.255Z" stroke="white" stroke-width="0.470882"/>
<path d="M316.05 258.255H265.85C261.465 258.255 258.118 257.964 255.594 256.731C253.094 255.51 251.43 253.383 250.335 249.812L137.645 269.508C141.583 283.881 146.495 295.493 153.665 304.835C160.874 314.227 170.376 321.337 183.497 326.644C209.728 337.254 250.397 340.652 316.05 340.66V258.255Z" stroke="white" stroke-width="0.470882"/>
<path d="M553.845 258.255H604.045C608.429 258.255 611.776 257.964 614.301 256.731C616.801 255.51 618.464 253.383 619.56 249.812L732.249 269.508C728.311 283.881 723.4 295.493 716.23 304.835C709.021 314.227 699.519 321.337 686.397 326.644C660.167 337.254 619.498 340.652 553.845 340.66V258.255Z" stroke="white" stroke-width="0.470882"/>
<path d="M316.05 258.255H265.85C261.465 258.255 258.118 257.964 255.594 256.731C253.094 255.51 251.43 253.383 250.335 249.812L137.645 269.508C141.583 283.881 146.495 295.493 153.665 304.835C160.874 314.227 170.376 321.337 183.497 326.644C209.728 337.254 250.397 340.652 316.05 340.66V258.255Z" stroke="white" stroke-width="0.470882"/>
<path d="M554.551 259.068H604.045C608.376 259.068 611.895 258.989 614.586 257.769C617.215 256.577 618.937 254.37 620.069 250.622L731.392 270.634C727.491 286.433 722.641 299.293 715.635 309.722C708.497 320.346 699.093 328.488 686.083 334.634C660.113 346.903 619.801 351.213 554.551 351.254V259.068Z" stroke="white" stroke-width="1.88353"/>
<path d="M315.343 259.068H265.85C261.518 259.068 258 258.989 255.308 257.769C252.679 256.577 250.958 254.37 249.826 250.622L138.503 270.634C142.403 286.433 147.253 299.293 154.26 309.722C161.398 320.346 170.802 328.488 183.811 334.634C209.781 346.903 250.094 351.213 315.343 351.254V259.068Z" stroke="white" stroke-width="1.88353"/>
<circle cx="352.07" cy="318.293" r="9.88853" stroke="white" stroke-width="0.941764"/>
<circle cx="352.071" cy="318.293" r="12.0075" stroke="white" stroke-width="0.470882"/>
<path d="M605.613 259.756C604.097 259.743 607.945 259.46 606.349 259.46C603.693 259.46 601.285 259.401 599.551 258.579H604.289C613.06 258.579 617.371 258.688 619.534 250.486L631.79 252.605V253.782C629.721 259.162 616.622 259.854 605.613 259.756Z" stroke="white" stroke-width="0.470882"/>
<path d="M264.281 259.756C265.797 259.743 261.949 259.46 263.545 259.46C266.201 259.46 268.609 259.401 270.344 258.579H265.605C256.834 258.579 252.524 258.688 250.361 250.486L238.104 252.605V253.782C240.174 259.162 253.273 259.854 264.281 259.756Z" stroke="white" stroke-width="0.470882"/>
<path d="M737.438 266.234L737.439 266.222L737.448 266.156C741.652 234.324 741.621 206.335 737.797 176.562C733.201 140.79 698.771 118.948 664.134 123.466C643.117 126.207 630.105 142.573 616.094 163.348C611.718 169.837 607.445 175.011 601.895 178.57C596.355 182.122 589.5 184.092 579.916 184.092H289.443C279.857 184.092 272.743 182.121 267.073 178.567C261.4 175.01 257.131 169.841 253.279 163.37C245.262 149.903 238.497 140.605 231.108 134.336C223.701 128.052 215.69 124.831 205.225 123.466C170.587 118.948 136.157 140.79 131.562 176.562C127.737 206.335 127.707 234.324 131.911 266.156L131.92 266.223L131.92 266.223L131.921 266.234L132.24 268.272L132.241 268.28L132.242 268.287L132.604 270.202L132.607 270.215L132.61 270.227L132.647 270.38L133.103 270.267L132.647 270.38C140.624 302.647 152.932 324.76 180.2 338.25C206.615 351.317 244.075 355.882 305.497 356.294H305.5L561.527 356.294L561.531 356.294L561.549 356.294C622.968 355.882 662.743 351.318 689.158 338.25C716.427 324.76 728.735 302.647 736.711 270.38L736.254 270.267L736.711 270.38L736.749 270.227L736.752 270.214L736.755 270.202L737.116 268.287L737.118 268.28L737.119 268.272L737.438 266.234Z" stroke="white" stroke-width="0.941764"/>
<path d="M632.678 166.668C635.144 149.103 649.047 135.341 666.636 133.047C697.812 128.981 727.784 148.649 731.754 179.557C735.43 208.17 735.186 235.128 731.258 265.687L622.131 246.43C625.503 218.416 628.43 196.927 632.678 166.668Z" stroke="white" stroke-width="3"/>
<path d="M642.675 186.358C644.66 173.273 655.895 163.583 669.129 163.583C686.363 163.583 699.912 178.382 697.992 195.501C697.236 202.244 696.497 208.419 695.758 214.603C694.201 227.619 692.64 240.675 690.896 259.158L632.518 249.351C636.504 226.209 639.098 209.934 642.675 186.358Z" stroke="white" stroke-width="0.470882"/>
<path d="M662.944 220.262L663.52 217.181L679.691 220.2L679.116 223.281L672.997 222.139L669.64 240.119L665.706 239.384L669.063 221.404L662.944 220.262Z" fill="white"/>
<path d="M644.603 235.444L648.535 214.383L655.97 215.771C658.188 216.185 659.805 217.091 660.822 218.488C661.84 219.876 662.165 221.558 661.796 223.535C661.421 225.541 660.494 227.03 659.016 228.001C657.537 228.972 655.698 229.253 653.5 228.842L649.999 228.188L648.508 236.173L644.603 235.444ZM650.528 225.353L653.667 225.939C654.96 226.181 655.93 226.008 656.579 225.42C657.227 224.833 657.653 223.994 657.857 222.904C658.058 221.824 657.961 220.903 657.564 220.14C657.168 219.378 656.324 218.876 655.031 218.635L651.892 218.048L650.528 225.353ZM655.697 237.516L652.781 227.076L656.732 227.245L660.037 238.326L655.697 237.516Z" fill="white"/>
<path d="M237.213 166.668C234.747 149.103 220.843 135.341 203.254 133.047C172.079 128.981 142.107 148.649 138.136 179.557C134.461 208.17 134.705 235.128 138.633 265.687L247.759 246.43C244.387 218.416 241.461 196.927 237.213 166.668Z" stroke="white" stroke-width="3"/>
<path d="M227.216 186.358C225.231 173.273 213.995 163.583 200.762 163.583C183.528 163.583 169.978 178.382 171.899 195.501C172.655 202.244 173.393 208.419 174.133 214.603C175.689 227.619 177.251 240.675 178.995 259.158L237.372 249.351C233.386 226.209 230.793 209.934 227.216 186.358Z" stroke="white" stroke-width="0.470882"/>
<path d="M200.899 220.183L200.328 217.101L216.504 214.103L217.075 217.185L210.955 218.319L214.288 236.304L210.352 237.033L207.019 219.049L200.899 220.183Z" fill="white"/>
<path d="M193.209 240.211L189.305 219.145L193.211 218.421L196.544 236.405L205.457 234.754L206.028 237.835L193.209 240.211Z" fill="white"/>
<path d="M553.845 295.926H604.045C607.632 295.926 609.464 296.659 611.274 297.384C611.329 297.406 611.384 297.428 611.439 297.45C613.332 298.206 615.25 298.924 619.073 298.751C630.388 298.239 645.898 295.876 659.734 290.279C673.501 284.71 685.654 275.921 690.323 262.523L732.249 269.51C728.311 283.882 723.399 295.494 716.23 304.835C709.021 314.227 699.519 321.337 686.397 326.644C660.167 337.254 619.498 340.652 553.845 340.66V295.926Z" stroke="white" stroke-width="0.470882"/>
<path d="M555.109 259.628H604.045C608.344 259.628 611.994 259.558 614.817 258.278C617.521 257.052 619.288 254.828 620.454 251.259L730.706 271.079C726.839 286.582 722.042 299.185 715.171 309.411C708.092 319.948 698.768 328.025 685.845 334.131C660.076 346.304 620.04 350.631 555.109 350.697V259.628Z" stroke="white" stroke-width="3"/>
<path d="M648.793 301.119L652.465 280.011L660.018 281.325C662.164 281.698 663.737 282.44 664.739 283.55C665.752 284.653 666.098 286.127 665.777 287.973C665.572 289.152 665.136 290.082 664.47 290.763C663.806 291.434 663.043 291.839 662.182 291.978L662.172 292.036C663.129 292.491 663.857 293.2 664.356 294.163C664.856 295.126 664.982 296.318 664.735 297.739C664.407 299.624 663.518 300.983 662.069 301.816C660.631 302.641 658.858 302.87 656.752 302.504L648.793 301.119ZM653.138 298.977L656.835 299.621C658.014 299.826 658.932 299.672 659.589 299.159C660.246 298.646 660.665 297.867 660.846 296.824C661.028 295.78 660.897 294.901 660.454 294.186C660.011 293.472 659.199 293.012 658.02 292.807L654.324 292.164L653.138 298.977ZM654.765 289.627L658.085 290.204C659.245 290.406 660.128 290.281 660.734 289.829C661.34 289.377 661.729 288.663 661.898 287.686C662.067 286.72 661.939 285.936 661.516 285.335C661.093 284.733 660.301 284.332 659.142 284.13L655.822 283.552L654.765 289.627Z" fill="white"/>
<path d="M631.191 298.057L634.863 276.949L642.315 278.246C644.538 278.632 646.166 279.518 647.2 280.903C648.235 282.278 648.58 283.956 648.236 285.937C647.886 287.948 646.978 289.447 645.511 290.437C644.045 291.426 642.209 291.73 640.006 291.346L636.497 290.736L635.105 298.738L631.191 298.057ZM636.992 287.894L640.138 288.442C641.433 288.667 642.401 288.482 643.042 287.886C643.684 287.291 644.099 286.447 644.289 285.355C644.478 284.273 644.369 283.353 643.963 282.595C643.557 281.837 642.707 281.346 641.411 281.12L638.266 280.573L636.992 287.894ZM642.31 299.992L639.266 289.589L643.218 289.709L646.66 300.748L642.31 299.992Z" fill="white"/>
<path d="M316.046 295.926H265.846C262.259 295.926 260.427 296.659 258.617 297.384C258.562 297.406 258.507 297.428 258.451 297.45C256.559 298.206 254.641 298.924 250.818 298.751C239.503 298.239 223.993 295.876 210.157 290.279C196.39 284.71 184.236 275.921 179.568 262.523L137.642 269.51C141.58 283.882 146.491 295.494 153.661 304.835C160.87 314.227 170.372 321.337 183.494 326.644C209.724 337.254 250.393 340.652 316.046 340.66V295.926Z" stroke="white" stroke-width="0.470882"/>
<path d="M314.781 259.628H265.846C261.546 259.628 257.896 259.558 255.074 258.278C252.37 257.052 250.602 254.828 249.437 251.259L139.184 271.079C143.052 286.582 147.849 299.185 154.719 309.411C161.798 319.948 171.123 328.025 184.046 334.131C209.814 346.304 249.851 350.631 314.781 350.697V259.628Z" stroke="white" stroke-width="3"/>
<path d="M215.772 300.545L212.051 279.446L219.601 278.114C221.746 277.736 223.478 277.899 224.797 278.602C226.125 279.294 226.951 280.563 227.276 282.408C227.484 283.587 227.391 284.61 226.996 285.476C226.599 286.333 226.02 286.973 225.257 287.397L225.268 287.455C226.322 287.558 227.248 287.977 228.045 288.713C228.842 289.449 229.366 290.527 229.616 291.947C229.949 293.831 229.575 295.411 228.495 296.687C227.423 297.952 225.834 298.771 223.728 299.142L215.772 300.545ZM219.131 297.054L222.826 296.402C224.005 296.194 224.816 295.738 225.259 295.032C225.703 294.326 225.832 293.451 225.648 292.408C225.464 291.365 225.042 290.582 224.383 290.061C223.723 289.54 222.804 289.383 221.625 289.591L217.93 290.243L219.131 297.054ZM217.483 287.707L220.801 287.122C221.96 286.917 222.748 286.499 223.165 285.868C223.582 285.237 223.704 284.433 223.532 283.457C223.361 282.491 222.975 281.797 222.373 281.376C221.77 280.954 220.889 280.845 219.73 281.05L216.412 281.635L217.483 287.707Z" fill="white"/>
<path d="M200.468 303.245L196.746 282.145L200.659 281.455L203.836 299.468L212.763 297.893L213.307 300.98L200.468 303.245Z" fill="white"/>
<path d="M737.871 268.082C773.324 267.328 825.473 225.702 847.116 204.983" stroke="white" stroke-width="0.941764"/>
<path d="M132.145 268.082C96.2891 267.328 43.5482 225.702 21.6596 204.983" stroke="white" stroke-width="0.941764"/>
<rect x="286.237" y="186.917" width="303.719" height="71.3387" stroke="white" stroke-width="0.470882"/>
<path d="M554.629 381.323C554.629 378.255 557.116 375.769 560.183 375.769H580.154C584.313 375.769 588.087 373.331 589.797 369.54V369.54C590.796 365.351 588.277 364.331 597.342 362.918L461.61 364.661C457.304 364.661 464.978 365.351 465.977 369.54V369.54C467.688 373.331 471.461 375.769 475.621 375.769H496.242C499.309 375.769 501.796 378.255 501.796 381.323V399.723C501.796 401.564 500.304 403.055 498.463 403.055H481.346C477.04 403.055 473.864 407.078 474.863 411.266L476.86 419.637C477.337 421.637 479.125 423.049 481.181 423.049H574.593C576.65 423.049 578.438 421.637 578.915 419.637L580.911 411.266C581.91 407.078 578.735 403.055 574.429 403.055H557.962C556.121 403.055 554.629 401.564 554.629 399.723V381.323Z" stroke="white" stroke-width="2"/>
<path d="M434.218 184.055C439.808 184.032 444.854 184.01 449.175 183.988V184.11C486.075 184.229 552.817 184.357 580.817 184.055C609.496 184.055 617.553 163.46 630.297 131.784C633.994 122.595 637.299 114.377 640.148 108.47C663.222 60.6255 694.834 47.6895 719.021 39.4484C734.56 34.154 751.747 32.1931 773.643 34.154C792.65 35.8561 808.411 42.7672 821.202 50.0368C831.567 55.9269 865.435 76.0459 865.435 138.768C865.435 201.489 788.21 296.568 768.433 320.462C748.656 344.356 720.744 352.306 680.849 358.294C650.541 362.843 542.565 364.495 434.218 364.157C325.87 364.495 217.894 362.843 187.586 358.294C147.691 352.306 119.779 344.356 100.002 320.462C80.2247 296.568 3 201.489 3 138.768C3 76.0458 36.8683 55.9269 47.2326 50.0368C60.0241 42.7672 75.7847 35.8561 94.7917 34.154C116.688 32.1931 133.875 34.154 149.414 39.4484C173.601 47.6895 205.214 60.6255 228.287 108.47C231.136 114.377 234.441 122.595 238.138 131.784C250.882 163.46 258.689 184.055 287.618 184.055C315.618 184.357 382.36 184.229 419.26 184.11V183.988C423.581 184.01 428.627 184.032 434.218 184.055Z" stroke="white" stroke-width="6"/>
<path d="M142.453 345.174L142.83 344.248L141.756 345.891L142.453 345.174ZM155.194 369.539L154.222 369.771L154.244 369.863L154.283 369.95L155.194 369.539ZM164.08 411.265L165.053 411.033L164.08 411.265ZM166.077 419.636L165.104 419.868H165.104L166.077 419.636ZM268.132 419.636L267.16 419.404V419.404L268.132 419.636ZM270.129 411.265L269.156 411.033L270.129 411.265ZM279.015 369.539L279.926 369.95L279.965 369.864L279.987 369.771L279.015 369.539ZM279.072 369.298L280.045 369.529L280.045 369.529L279.072 369.298ZM284.325 362.882L284.591 363.846L284.349 361.882L284.325 362.882ZM187.586 357.094L187.764 356.11L187.586 357.094ZM141.756 345.891C150.528 354.421 153.362 366.167 154.222 369.771L156.167 369.307C155.305 365.69 152.373 353.425 143.15 344.457L141.756 345.891ZM154.283 369.95C156.155 374.1 160.285 376.768 164.838 376.768V374.768C161.072 374.768 157.655 372.561 156.106 369.128L154.283 369.95ZM164.838 376.768H185.459V374.768H164.838V376.768ZM185.459 376.768C187.974 376.768 190.013 378.807 190.013 381.322H192.013C192.013 377.702 189.079 374.768 185.459 374.768V376.768ZM190.013 381.322V399.722H192.013V381.322H190.013ZM190.013 399.722C190.013 401.011 188.969 402.055 187.681 402.055V404.055C190.073 404.055 192.013 402.115 192.013 399.722H190.013ZM187.681 402.055H170.563V404.055H187.681V402.055ZM170.563 402.055C165.611 402.055 161.959 406.68 163.108 411.497L165.053 411.033C164.204 407.473 166.903 404.055 170.563 404.055V402.055ZM163.108 411.497L165.104 419.868L167.049 419.404L165.053 411.033L163.108 411.497ZM165.104 419.868C165.688 422.319 167.879 424.048 170.398 424.048V422.048C168.805 422.048 167.419 420.954 167.049 419.404L165.104 419.868ZM170.398 424.048H263.81V422.048H170.398V424.048ZM263.81 424.048C266.33 424.048 268.52 422.319 269.105 419.868L267.16 419.404C266.79 420.954 265.404 422.048 263.81 422.048V424.048ZM269.105 419.868L271.101 411.497L269.156 411.033L267.16 419.404L269.105 419.868ZM271.101 411.497C272.25 406.68 268.598 402.055 263.646 402.055V404.055C267.306 404.055 270.005 407.473 269.156 411.033L271.101 411.497ZM263.646 402.055H247.179V404.055H263.646V402.055ZM247.179 402.055C245.891 402.055 244.847 401.011 244.847 399.722H242.847C242.847 402.115 244.786 404.055 247.179 404.055V402.055ZM244.847 399.722V381.322H242.847V399.722H244.847ZM244.847 381.322C244.847 378.807 246.885 376.768 249.4 376.768V374.768C245.781 374.768 242.847 377.702 242.847 381.322H244.847ZM249.4 376.768H269.371V374.768H249.4V376.768ZM269.371 376.768C273.924 376.768 278.054 374.1 279.926 369.95L278.103 369.128C276.554 372.561 273.137 374.768 269.371 374.768V376.768ZM279.987 369.771C280.007 369.69 280.026 369.609 280.045 369.529L278.099 369.067C278.08 369.147 278.061 369.227 278.042 369.307L279.987 369.771ZM280.045 369.529C280.403 368.022 280.686 366.878 281.298 365.954C281.868 365.092 282.783 364.344 284.591 363.846L284.059 361.918C281.877 362.519 280.514 363.513 279.629 364.85C278.786 366.125 278.438 367.64 278.099 369.067L280.045 369.529ZM284.349 361.882C238.712 360.761 203.131 358.88 187.764 356.11L187.409 358.079C202.96 360.881 238.709 362.762 284.3 363.882L284.349 361.882ZM187.764 356.11C170.627 353.022 155.765 349.508 142.83 344.248L142.076 346.1C155.205 351.439 170.228 354.982 187.409 358.079L187.764 356.11Z" fill="white"/>
<mask id="path-38-inside-1_581_95378" fill="white">
<path fill-rule="evenodd" clip-rule="evenodd" d="M307.545 362.055L307.317 376.222C307.283 378.303 308.943 380.016 311.023 380.05L341.155 380.536C343.235 380.569 344.949 378.91 344.983 376.83L345.212 362.574C332.25 362.445 319.642 362.273 307.545 362.055Z"/>
</mask>
<path d="M307.317 376.222L305.434 376.192L307.317 376.222ZM307.545 362.055L307.579 360.172L305.693 360.138L305.662 362.025L307.545 362.055ZM311.023 380.05L311.053 378.166H311.053L311.023 380.05ZM341.155 380.536L341.125 382.419L341.155 380.536ZM344.983 376.83L346.866 376.86V376.86L344.983 376.83ZM345.212 362.574L347.096 362.604L347.126 360.709L345.231 360.69L345.212 362.574ZM309.2 376.253L309.429 362.086L305.662 362.025L305.434 376.192L309.2 376.253ZM311.053 378.166C310.013 378.15 309.183 377.293 309.2 376.253L305.434 376.192C305.383 379.312 307.872 381.883 310.992 381.933L311.053 378.166ZM341.186 378.652L311.053 378.166L310.992 381.933L341.125 382.419L341.186 378.652ZM343.099 376.799C343.083 377.839 342.226 378.669 341.186 378.652L341.125 382.419C344.245 382.469 346.816 379.98 346.866 376.86L343.099 376.799ZM343.329 362.543L343.099 376.799L346.866 376.86L347.096 362.604L343.329 362.543ZM345.231 360.69C332.273 360.562 319.67 360.39 307.579 360.172L307.511 363.938C319.614 364.156 332.227 364.328 345.194 364.457L345.231 360.69Z" fill="white" mask="url(#path-38-inside-1_581_95378)"/>
<path d="M582.377 369.586L581.95 364.839C628.586 363.726 665.225 361.829 681.016 358.984C709.219 353.901 731.612 347.617 749.38 334.127C749.632 334.496 749.798 334.931 749.85 335.407L751.899 354.175C752.626 360.838 748.234 366.992 741.693 368.405C690.045 379.559 654.507 383.233 595.002 381.52C588.384 381.33 582.971 376.19 582.377 369.586L581.439 369.67L582.377 369.586Z" stroke="white" stroke-width="1.88353"/>
<path d="M639.572 363.04C658.198 362.038 672.572 360.792 681.017 359.27L681.017 359.27C689.244 357.787 696.973 356.203 704.233 354.369L705.412 367.48C705.82 372.013 702.576 376.059 698.067 376.613C681.069 378.702 668.157 379.85 649.394 380.964C644.843 381.234 640.903 377.827 640.494 373.282L639.572 363.04Z" stroke="white" stroke-width="1.88353"/>
<path d="M270.594 375.767L270.812 362.28C303.183 363.229 341.63 363.749 381.929 363.9L381.708 377.559C381.683 379.118 380.398 380.363 378.838 380.338L273.374 378.637C271.814 378.612 270.569 377.327 270.594 375.767L270.594 375.767Z" stroke="white" stroke-width="1.88353"/>
</svg>
