<svg width="869" height="614" fill="none" xmlns="http://www.w3.org/2000/svg"><path d="M361.652 24.58h-19.71a3.296 3.296 0 0 1 3.263-2.825h13.184a3.296 3.296 0 0 1 3.263 2.825Z" stroke="#fff" stroke-width=".942"/><path d="M314.349 40.588c-39.306 1.725-81.186 4.272-128.08 7.645-20.393 1.467-36.186 6.977-49.195 16.733 3.896-8.071 8.616-14.351 15.718-20.355 25.359-21.439 67.9-35.73 101.443-40.025a2903 2903 0 0 0 2.986-.384h.002c20.397-2.632 33.816-4.364 37.4 4.622l.488 1.225.063.159c4.222 10.614 9.503 13.816 19.175 14.48v15.9Zm235.441-.056c-81.503-3.535-152.058-3.555-233.558-.026V24.688H549.79v15.844Zm180.107 26.473c-14.056-11.159-30.558-17.373-50.144-18.772-46.895-3.351-88.774-5.892-128.08-7.62V24.689c9.671-.664 14.952-3.866 19.175-14.48l.023-.06.528-1.324c3.584-8.986 17.003-7.254 37.4-4.622h.002l.008.001 2.978.383C645.33 8.88 687.871 23.172 713.23 44.611c7.688 6.5 12.586 13.324 16.667 22.394Z" stroke="#fff" stroke-width="2.825"/><path d="M187.93 47.699c-45.205 3.252-67.807 26.37-87.585 71.574C80.568 164.478 3.344 344.355 3.344 463.017c0 118.662 65.923 143.148 73.457 145.032.936.234 1.916.541 2.937.86 7.2 2.254 16.478 5.159 27.2-12.161 12.243-19.777 34.845-48.03 65.923-84.759 31.079-36.729 55.564-69.691 101.711-70.632 28-.572 108.132-.457 145.032-.231v.231c4.349-.042 9.434-.085 15.068-.128 5.634.043 10.718.086 15.068.128v-.231c36.9-.226 117.032-.341 145.032.231 46.146.941 70.632 33.903 101.71 70.632 31.079 36.729 53.681 64.982 65.924 84.759 10.722 17.32 19.999 14.415 27.199 12.161 1.022-.319 2.001-.626 2.937-.86 7.534-1.884 73.458-26.37 73.458-145.032s-77.225-298.539-97.002-343.744c-19.777-45.205-47.088-68.68-87.584-71.574-192.733-13.772-300.759-13.863-493.484 0Z" stroke="#fff" stroke-width="6"/><path d="m83.188 609.397.114-.457-.397.834.282-.377Zm23.715-13.176-.4-.248.4.248Zm65.924-84.759-.36-.304.36.304Zm6.07-7.208.36.303-.36-.303Zm95.64-63.424-.01-.471.01.471Zm145.032-.231h.471v-.468l-.468-.003-.003.471Zm0 .231h-.471v.475l.475-.004-.004-.471Zm15.068-.128.004-.471h-.008l.004.471Zm15.068.128-.004.471.475.004v-.475h-.471Zm0-.231-.003-.471-.468.003v.468h.471Zm145.032.231.01-.471-.01.471Zm95.64 63.424-.36.302.36-.302Zm6.071 7.208-.36.305.36-.305Zm65.923 84.759.4-.248-.4.248Zm23.786 13.159.284.375-.399-.832.115.457Zm-4.456 1.909-.09-.462.09.462Zm-84.288-50.384.368-.293-.368.293Zm-17.855-38.784-.447.148.447-.148Zm-9.063-23.207.412-.228-.412.228Zm-14.52-23.71-.349.316.349-.316Zm-442.629 0 .349.316-.349-.316Zm-14.52 23.71-.412-.228.412.228Zm-10.444 22.936-.433-.184.433.184Zm-24.008 46.589-.368-.293.368.293Zm-76.754 42.85.09-.462-.09.462Zm-4.547-1.435c3.359.84 7.137 1.227 11.237-.499 4.091-1.722 8.432-5.517 12.993-12.886l-.8-.496c-4.504 7.275-8.712 10.895-12.558 12.514-3.837 1.615-7.384 1.268-10.643.453l-.229.914Zm24.23-13.385c12.222-19.743 34.801-47.97 65.883-84.702l-.719-.609c-31.075 36.725-53.7 65.004-65.964 84.815l.8.496Zm65.883-84.702c2.05-2.423 4.071-4.829 6.071-7.21l-.721-.606c-2 2.381-4.02 4.786-6.069 7.207l.719.609Zm6.071-7.21c28.358-33.76 52.432-62.382 95.29-63.256l-.02-.942c-43.349.885-67.686 29.895-95.991 63.592l.721.606Zm95.29-63.256c27.992-.571 108.118-.457 145.019-.231l.006-.942c-36.899-.225-117.037-.34-145.045.231l.02.942Zm144.551-.702v.231h.942v-.231h-.942Zm.475.702c4.35-.041 9.434-.085 15.068-.128l-.008-.942c-5.634.043-10.719.087-15.069.128l.009.942Zm15.06-.128c5.634.043 10.718.087 15.068.128l.009-.942c-4.35-.041-9.435-.085-15.069-.128l-.008.942Zm15.543-.343v-.231h-.942v.231h.942Zm-.468.24c36.901-.226 117.027-.34 145.019.231l.02-.942c-28.008-.571-108.146-.456-145.045-.231l.006.942Zm145.019.231c42.858.874 66.932 29.496 95.29 63.255l.721-.605c-28.305-33.697-52.642-62.707-95.991-63.592l-.02.942Zm95.29 63.255c2 2.382 4.021 4.788 6.071 7.211l.719-.609c-2.049-2.421-4.069-4.826-6.069-7.207l-.721.605Zm6.071 7.211c31.082 36.732 53.661 64.959 65.883 84.702l.8-.496c-12.264-19.811-34.889-48.09-65.964-84.815l-.719.609Zm65.883 84.702c4.578 7.395 8.933 11.191 13.037 12.904 4.112 1.717 7.9 1.312 11.264.463l-.23-.913c-3.267.824-6.824 1.188-10.672-.419-3.857-1.61-8.079-5.23-12.599-12.531l-.8.496Zm23.902 12.535c-1.132.856-2.535 1.487-4.262 1.823l.179.925c1.854-.361 3.393-1.046 4.651-1.997l-.568-.751Zm-4.262 1.823c-4.12.801-9.913-.023-16.709-2.23-6.782-2.202-14.506-5.762-22.461-10.37-15.911-9.218-32.696-22.602-44.66-37.615l-.737.586c12.052 15.124 28.934 28.58 44.925 37.844 7.997 4.633 15.782 8.224 22.642 10.451 6.844 2.223 12.823 3.106 17.179 2.259l-.179-.925Zm-83.83-50.215c-8.551-10.731-13.351-25.245-17.776-38.639l-.894.296c4.412 13.356 9.258 28.042 17.933 38.929l.737-.586Zm-17.776-38.639c-2.876-8.706-5.598-16.952-9.098-23.287l-.824.456c3.448 6.242 6.143 14.394 9.028 23.127l.894-.296Zm-9.098-23.287c-3.027-5.477-5.749-10.405-8.171-14.466-2.418-4.056-4.555-7.279-6.412-9.331l-.698.631c1.789 1.977 3.884 5.13 6.301 9.182 2.412 4.046 5.127 8.958 8.156 14.44l.824-.456Zm-14.583-23.797c-8.959-9.903-30.741-30.292-58.738-30.292v.942c27.566 0 49.105 20.106 58.04 29.981l.698-.631Zm-58.738-30.292H271.735v.942h325.851v-.942Zm-325.851 0c-27.997 0-49.779 20.389-58.738 30.292l.698.631c8.935-9.875 30.474-29.981 58.04-29.981v-.942Zm-58.738 30.292c-1.857 2.052-3.994 5.275-6.412 9.331-2.422 4.061-5.144 8.989-8.171 14.466l.824.456c3.029-5.482 5.744-10.394 8.156-14.44 2.416-4.052 4.512-7.205 6.301-9.182l-.698-.631Zm-14.583 23.797c-3.159 5.719-6.648 13.963-10.465 22.98l.867.368c3.825-9.037 7.292-17.227 10.422-22.892l-.824-.456Zm-10.465 22.98c-6.886 16.268-14.846 35.063-23.943 46.48l.736.587c9.196-11.54 17.207-30.477 24.074-46.699l-.867-.368Zm-23.943 46.48c-11.964 15.013-26.862 26.509-40.876 33.838-14.038 7.342-27.103 10.46-35.42 8.843l-.18.925c8.636 1.679 21.94-1.56 36.037-8.933 14.121-7.386 29.124-18.963 41.175-34.086l-.736-.587ZM87.71 610.827c-1.715-.333-3.111-.959-4.24-1.806l-.565.753c1.253.941 2.784 1.62 4.626 1.978l.18-.925Z" fill="#fff"/></svg>