<svg width="869" height="614" viewBox="0 0 869 614" fill="none" xmlns="http://www.w3.org/2000/svg">
<path opacity="0.2" d="M361.652 24.2591H341.942C342.17 22.6618 343.544 21.4338 345.205 21.4338H358.389C360.05 21.4338 361.424 22.6618 361.652 24.2591Z" stroke="white" stroke-width="0.941764"/>
<g opacity="0.2">
<path d="M314.349 40.2675C275.043 41.9924 233.163 44.5394 186.269 47.9126C165.876 49.3794 150.083 54.8892 137.074 64.6458C140.97 56.5747 145.69 50.2946 152.792 44.2908C178.151 22.8519 220.692 8.56002 254.235 4.26606C255.246 4.13658 256.242 4.00809 257.221 3.88167L257.223 3.88143C277.62 1.2492 291.039 -0.482525 294.623 8.50334C294.791 8.92284 294.953 9.33101 295.111 9.72816L295.174 9.88723C299.396 20.5014 304.677 23.7036 314.349 24.368V40.2675Z" stroke="white" stroke-width="2.82529"/>
<path d="M549.79 40.2112C468.287 36.6765 397.732 36.6562 316.232 40.1854V24.368H549.79V40.2112Z" stroke="white" stroke-width="2.82529"/>
<path d="M729.897 66.6842C715.841 55.5261 699.339 49.3121 679.753 47.9126C632.858 44.5616 590.979 42.0205 551.673 40.2934V24.368C561.344 23.7036 566.625 20.5014 570.848 9.88723L570.871 9.82813C571.042 9.39958 571.217 8.95812 571.399 8.50334C574.983 -0.482525 588.402 1.2492 608.799 3.88143L608.801 3.88167L608.809 3.88275C609.786 4.00882 610.779 4.13695 611.787 4.26606C645.33 8.56002 687.871 22.8519 713.23 44.2908C720.918 50.7908 725.816 57.6145 729.897 66.6842Z" stroke="white" stroke-width="2.82529"/>
</g>
<path opacity="0.2" d="M187.93 47.3787C142.725 50.6303 120.123 73.7481 100.345 118.953C80.5684 164.158 3.34375 344.035 3.34375 462.697C3.34375 581.359 69.2673 605.845 76.8014 607.729C77.7374 607.963 78.717 608.269 79.7384 608.589C86.9385 610.843 96.2159 613.747 106.938 596.427C119.181 576.65 141.783 548.397 172.861 511.669C203.94 474.94 228.425 441.978 274.572 441.036C302.572 440.465 382.704 440.58 419.604 440.805V441.036C423.953 440.995 429.038 440.951 434.672 440.908C440.306 440.951 445.39 440.995 449.74 441.036V440.805C486.64 440.58 566.772 440.465 594.772 441.036C640.918 441.978 665.404 474.94 696.482 511.669C727.561 548.397 750.163 576.65 762.406 596.427C773.128 613.747 782.405 610.843 789.605 608.589C790.627 608.269 791.606 607.963 792.542 607.729C800.076 605.845 866 581.359 866 462.697C866 344.035 788.775 164.158 768.998 118.953C749.221 73.7481 721.91 50.2725 681.414 47.3787C488.681 33.6064 380.655 33.5158 187.93 47.3787Z" stroke="white" stroke-width="6"/>
<path opacity="0.2" d="M83.1875 609.077L83.3017 608.62L82.9047 609.453L83.1875 609.077ZM106.903 595.901L106.503 595.653L106.903 595.901ZM172.827 511.142L172.467 510.838L172.827 511.142ZM178.897 503.933L179.257 504.236L178.897 503.933ZM274.537 440.51L274.527 440.039V440.039L274.537 440.51ZM419.569 440.279H420.04V439.811L419.572 439.808L419.569 440.279ZM419.569 440.51H419.098V440.985L419.573 440.981L419.569 440.51ZM434.637 440.382L434.641 439.911L434.633 439.911L434.637 440.382ZM449.705 440.51L449.701 440.981L450.176 440.985V440.51H449.705ZM449.705 440.279L449.702 439.808L449.234 439.811V440.279H449.705ZM594.737 440.51L594.747 440.039L594.747 440.039L594.737 440.51ZM690.377 503.933L690.017 504.236V504.236L690.377 503.933ZM696.448 511.142L696.088 511.446L696.448 511.142ZM762.371 595.901L762.771 595.653L762.371 595.901ZM786.157 609.059L786.441 609.435L786.042 608.603L786.157 609.059ZM781.701 610.969L781.611 610.507L781.701 610.969ZM697.413 560.585L697.781 560.291L697.413 560.585ZM679.558 521.801L679.111 521.949L679.558 521.801ZM670.495 498.594L670.907 498.366L670.495 498.594ZM655.975 474.884L655.626 475.2L655.975 474.884ZM213.346 474.884L213.695 475.2L213.346 474.884ZM198.826 498.594L198.414 498.366L198.826 498.594ZM188.382 521.53L187.949 521.346L188.382 521.53ZM164.374 568.119L164.006 567.825L164.374 568.119ZM87.6204 610.969L87.7103 610.507H87.7103L87.6204 610.969ZM83.0733 609.534C86.4319 610.373 90.2098 610.76 94.31 609.035C98.4011 607.313 102.742 603.518 107.303 596.149L106.503 595.653C101.999 602.928 97.7907 606.548 93.9447 608.167C90.1079 609.782 86.5607 609.435 83.3017 608.62L83.0733 609.534ZM107.303 596.149C119.525 576.406 142.104 548.179 173.186 511.446L172.467 510.838C141.392 547.563 118.767 575.842 106.503 595.653L107.303 596.149ZM173.186 511.446C175.236 509.024 177.257 506.617 179.257 504.236L178.536 503.631C176.536 506.012 174.516 508.417 172.467 510.838L173.186 511.446ZM179.257 504.236C207.615 470.477 231.689 441.855 274.547 440.981L274.527 440.039C231.178 440.924 206.841 469.934 178.536 503.631L179.257 504.236ZM274.547 440.981C302.539 440.409 382.665 440.524 419.566 440.75L419.572 439.808C382.673 439.582 302.535 439.467 274.527 440.039L274.547 440.981ZM419.098 440.279V440.51H420.04V440.279H419.098ZM419.573 440.981C423.923 440.939 429.007 440.896 434.641 440.853L434.633 439.911C428.999 439.954 423.914 439.997 419.564 440.039L419.573 440.981ZM434.633 440.853C440.267 440.896 445.351 440.939 449.701 440.981L449.71 440.039C445.36 439.997 440.275 439.954 434.641 439.911L434.633 440.853ZM450.176 440.51V440.279H449.234V440.51H450.176ZM449.708 440.75C486.609 440.524 566.735 440.409 594.727 440.981L594.747 440.039C566.739 439.467 486.601 439.582 449.702 439.808L449.708 440.75ZM594.727 440.981C637.585 441.855 661.659 470.477 690.017 504.236L690.738 503.63C662.433 469.934 638.096 440.924 594.747 440.039L594.727 440.981ZM690.017 504.236C692.017 506.617 694.038 509.023 696.088 511.446L696.807 510.838C694.758 508.417 692.738 506.012 690.738 503.63L690.017 504.236ZM696.088 511.446C727.17 548.179 749.749 576.406 761.971 596.149L762.771 595.653C750.507 575.842 727.882 547.563 696.807 510.838L696.088 511.446ZM761.971 596.149C766.549 603.544 770.904 607.34 775.008 609.053C779.12 610.77 782.908 610.365 786.272 609.516L786.042 608.603C782.775 609.427 779.218 609.79 775.37 608.184C771.513 606.574 767.291 602.954 762.771 595.653L761.971 596.149ZM785.873 608.684C784.741 609.54 783.338 610.171 781.611 610.507L781.79 611.431C783.644 611.071 785.183 610.386 786.441 609.435L785.873 608.684ZM781.611 610.507C777.491 611.308 771.698 610.484 764.902 608.277C758.12 606.075 750.396 602.515 742.441 597.907C726.53 588.689 709.745 575.305 697.781 560.291L697.044 560.878C709.096 576.001 725.978 589.457 741.969 598.722C749.966 603.354 757.751 606.946 764.611 609.173C771.455 611.395 777.434 612.278 781.79 611.431L781.611 610.507ZM697.781 560.291C689.23 549.56 684.43 535.047 680.005 521.653L679.111 521.949C683.523 535.304 688.369 549.991 697.044 560.878L697.781 560.291ZM680.005 521.653C677.129 512.947 674.407 504.701 670.907 498.366L670.083 498.822C673.531 505.064 676.226 513.216 679.111 521.949L680.005 521.653ZM670.907 498.366C667.88 492.889 665.158 487.961 662.736 483.899C660.318 479.844 658.181 476.621 656.324 474.568L655.626 475.2C657.415 477.177 659.51 480.329 661.927 484.382C664.339 488.427 667.054 493.34 670.083 498.822L670.907 498.366ZM656.324 474.568C647.365 464.666 625.583 444.277 597.586 444.277V445.219C625.152 445.219 646.691 465.325 655.626 475.2L656.324 474.568ZM597.586 444.277H271.735V445.219H597.586V444.277ZM271.735 444.277C243.738 444.277 221.956 464.666 212.997 474.568L213.695 475.2C222.63 465.325 244.169 445.219 271.735 445.219V444.277ZM212.997 474.568C211.14 476.621 209.003 479.844 206.585 483.899C204.163 487.961 201.441 492.889 198.414 498.366L199.238 498.822C202.267 493.34 204.982 488.427 207.394 484.382C209.81 480.329 211.906 477.177 213.695 475.2L212.997 474.568ZM198.414 498.366C195.255 504.084 191.766 512.329 187.949 521.346L188.816 521.713C192.641 512.677 196.108 504.486 199.238 498.822L198.414 498.366ZM187.949 521.346C181.063 537.614 173.103 556.409 164.006 567.825L164.742 568.412C173.938 556.872 181.949 537.936 188.816 521.713L187.949 521.346ZM164.006 567.825C152.042 582.839 137.144 594.335 123.13 601.664C109.092 609.006 96.0269 612.124 87.7103 610.507L87.5305 611.431C96.1657 613.11 109.47 609.872 123.567 602.498C137.688 595.113 152.691 583.535 164.742 568.412L164.006 567.825ZM87.7103 610.507C85.9946 610.173 84.5988 609.548 83.4703 608.7L82.9047 609.453C84.158 610.395 85.6888 611.073 87.5305 611.431L87.7103 610.507Z" fill="white"/>
<g opacity="0.2">
<path d="M458.93 60.4971C458.93 60.4971 458.854 60.435 458.695 60.3763M458.93 60.4971C462.189 63.7028 464.777 67.5262 466.54 71.7436C468.304 75.9611 469.21 80.4879 469.203 85.0593C469.215 92.4246 466.861 99.5841 462.509 105.492C462.588 105.157 462.644 104.808 462.679 104.445M458.93 60.4971C458.632 60.8616 458.632 60.8617 458.632 60.8617L458.633 60.8619L458.633 60.8622L458.634 60.8628L458.635 60.864L458.638 60.8661L458.642 60.8693L458.645 60.8719C458.645 60.8719 458.645 60.8716 458.644 60.8709C458.642 60.8697 458.639 60.8675 458.634 60.8645C458.633 60.8639 458.631 60.8633 458.63 60.8626M458.93 60.4971L458.6 60.8328C458.61 60.8428 458.62 60.8527 458.63 60.8626M458.695 60.3763C458.435 60.2856 458.16 60.2412 457.884 60.2451C456.182 60.2451 452.173 61.4951 444.058 69.5858M458.695 60.3763L458.541 60.821C458.539 60.8205 458.538 60.82 458.536 60.8195M458.695 60.3763L458.532 60.818C458.534 60.8185 458.535 60.819 458.536 60.8195M444.058 69.5858C450.832 77.6088 463.939 96.8296 462.072 105.292C462.279 105.012 462.481 104.73 462.679 104.445M444.058 69.5858L444.417 69.282C444.509 69.3909 444.603 69.5019 444.697 69.6148M444.058 69.5858L444.39 69.9193C444.493 69.8167 444.595 69.7152 444.697 69.6148M462.679 104.445C462.838 102.8 462.557 100.89 461.986 98.8535C461.085 95.6368 459.429 91.9897 457.432 88.3304C453.538 81.196 448.307 73.9426 444.697 69.6148M462.679 104.445C466.62 98.7707 468.744 92.0082 468.733 85.0601L468.732 85.0587C468.739 80.5498 467.846 76.085 466.106 71.9253C464.372 67.7787 461.831 64.0183 458.63 60.8626M458.63 60.8626C458.614 60.853 458.582 60.8368 458.536 60.8195M458.536 60.8195C458.329 60.7479 458.11 60.7128 457.891 60.7159L457.884 60.716C457.147 60.7159 455.803 60.9878 453.616 62.2863C451.487 63.5505 448.583 65.7735 444.697 69.6148M418.461 55.0929C423.661 52.2731 429.098 50.9885 434.627 50.9885H434.672C440.218 50.9885 445.639 52.2717 450.859 55.0891C450.513 55.0646 450.143 55.0568 449.752 55.0713C446.352 55.1919 442.512 56.516 439.552 57.7871C438.066 58.4255 436.789 59.0563 435.883 59.5275C435.43 59.7633 435.069 59.9593 434.821 60.0968C434.761 60.1303 434.707 60.1603 434.66 60.1866C434.619 60.1636 434.574 60.1382 434.524 60.1104C434.276 59.9725 433.915 59.7759 433.462 59.5395C432.557 59.0669 431.28 58.4344 429.794 57.7943C426.836 56.5197 422.997 55.192 419.599 55.0713L418.461 55.0929ZM418.461 55.0929C418.816 55.0661 419.196 55.0569 419.599 55.0713L418.461 55.0929ZM410.697 60.8762C410.7 60.8745 410.703 60.8727 410.706 60.8708C410.709 60.8691 410.712 60.8671 410.716 60.865L410.826 60.8234C411.026 60.7476 411.238 60.7122 411.452 60.7191L411.459 60.7194H411.467C412.201 60.7194 413.545 60.9897 415.733 62.2873C417.862 63.5506 420.768 65.7736 424.654 69.618C421.044 73.9407 415.816 81.1873 411.922 88.3187C409.925 91.9765 408.269 95.6231 407.366 98.8407C406.794 100.881 406.512 102.794 406.669 104.444C402.853 98.9407 400.612 92.2657 400.612 85.0593L400.612 85.0587C400.606 80.551 401.498 76.0874 403.237 71.9285C404.968 67.7871 407.504 64.0305 410.697 60.8762ZM434.673 119.109L434.671 119.109C426.429 119.122 418.465 116.132 412.267 110.699C411.141 109.541 411.139 107.554 412.199 104.855C413.247 102.187 415.26 99.0244 417.784 95.7622C422.738 89.3623 429.58 82.684 434.672 78.7793C439.769 82.6839 446.611 89.3622 451.564 95.7621C454.088 99.0244 456.101 102.187 457.149 104.855C458.21 107.554 458.21 109.541 457.087 110.699C450.885 116.131 442.918 119.121 434.673 119.109Z" stroke="white" stroke-width="0.941764"/>
</g>
<circle opacity="0.2" cx="369.69" cy="173.575" r="16.4809" stroke="white" stroke-width="0.941764"/>
<circle opacity="0.2" cx="495.885" cy="173.575" r="16.4809" stroke="white" stroke-width="0.941764"/>
<g opacity="0.2">
<circle cx="217.124" cy="175.458" r="79.5791" stroke="white" stroke-width="0.941764"/>
<circle cx="217.126" cy="175.458" r="63.5691" stroke="white" stroke-width="0.941764"/>
<circle cx="217.125" cy="175.459" r="50.297" stroke="white" stroke-width="3"/>
<circle cx="217.125" cy="175.459" r="30.6073" stroke="white" stroke-width="0.941764"/>
</g>
<g opacity="0.2">
<circle cx="527.905" cy="316.724" r="79.5791" stroke="white" stroke-width="0.941764"/>
<circle cx="527.907" cy="316.724" r="63.5691" stroke="white" stroke-width="0.941764"/>
<circle cx="527.906" cy="316.723" r="50.297" stroke="white" stroke-width="3"/>
<circle cx="527.906" cy="316.723" r="30.6073" stroke="white" stroke-width="0.941764"/>
</g>
<circle cx="326.371" cy="317.666" r="71.1032" stroke="white" stroke-width="0.941764"/>
<circle cx="326.373" cy="317.666" r="56.035" stroke="white" stroke-width="0.941764"/>
<path d="M377.273 335.56C378.894 335.56 380.345 334.526 380.783 332.965C382.149 328.099 382.879 322.968 382.879 317.666C382.879 312.364 382.149 307.233 380.783 302.367C380.345 300.806 378.894 299.772 377.273 299.772H346.15C345.11 299.772 344.267 298.929 344.267 297.889V266.766C344.267 265.145 343.233 263.694 341.672 263.256C336.806 261.89 331.675 261.16 326.373 261.16C321.071 261.16 315.94 261.89 311.074 263.256C309.513 263.694 308.48 265.145 308.48 266.766V297.889C308.48 298.929 307.636 299.773 306.596 299.773H275.473C273.852 299.773 272.401 300.806 271.963 302.367C270.597 307.233 269.867 312.364 269.867 317.666C269.867 322.968 270.597 328.099 271.963 332.965C272.401 334.526 273.852 335.56 275.473 335.56H306.596C307.636 335.56 308.48 336.403 308.48 337.443V368.566C308.48 370.187 309.513 371.638 311.074 372.076C315.94 373.442 321.071 374.172 326.373 374.172C331.675 374.172 336.806 373.442 341.672 372.076C343.233 371.638 344.267 370.187 344.267 368.566V337.443C344.267 336.403 345.11 335.56 346.15 335.56H377.273Z" stroke="white" stroke-width="6"/>
<g opacity="0.2">
<circle cx="659.757" cy="118.011" r="26.8403" stroke="white" stroke-width="2.82529"/>
<circle cx="659.757" cy="232.907" r="26.8403" stroke="white" stroke-width="2.82529"/>
<circle cx="602.308" cy="174.517" r="26.8403" stroke="white" stroke-width="2.82529"/>
<circle cx="716.261" cy="174.517" r="26.8403" stroke="white" stroke-width="2.82529"/>
<path d="M655.98 134.022V122.833L646.41 104.562H652.44L658.044 115.59C658.22 115.954 658.375 116.291 658.51 116.601C658.658 116.912 658.8 117.242 658.935 117.593H659.036C659.171 117.242 659.305 116.912 659.44 116.601C659.589 116.291 659.757 115.954 659.946 115.59L665.551 104.562H670.973L661.504 122.752V134.022H655.98Z" fill="white"/>
<path d="M589.863 189.585L599.778 172.71H600.749L607.77 160.125H613.111L603.824 176.251H602.893L595.286 189.585H589.863ZM590.349 160.125H596.459L603.622 172.69H603.662L613.597 189.585H607.446L599.778 176.251H599.737L590.349 160.125Z" fill="white"/>
<path d="M646.266 247.032L656.261 217.512H662.27L672.245 247.032H666.64L659.781 225.645C659.62 225.133 659.485 224.674 659.377 224.27C659.269 223.851 659.168 223.447 659.073 223.056H658.972C658.878 223.447 658.776 223.851 658.669 224.27C658.561 224.674 658.426 225.133 658.264 225.645L651.526 247.032H646.266ZM651.445 240.254L652.497 236.329H665.75L666.843 240.254H651.445Z" fill="white"/>
<path d="M706.57 189.585V160.125H717.112C720.039 160.125 722.278 160.759 723.829 162.027C725.38 163.295 726.156 165.19 726.156 167.712C726.156 169.372 725.785 170.747 725.043 171.84C724.315 172.919 723.384 173.661 722.251 174.066V174.147C723.654 174.524 724.807 175.313 725.711 176.514C726.615 177.701 727.067 179.299 727.067 181.309C727.067 183.926 726.217 185.963 724.517 187.42C722.831 188.863 720.545 189.585 717.658 189.585H706.57ZM711.952 185.68H716.909C718.501 185.68 719.675 185.255 720.43 184.405C721.185 183.555 721.563 182.402 721.563 180.945C721.563 179.475 721.185 178.308 720.43 177.445C719.675 176.568 718.501 176.129 716.909 176.129H711.952V185.68ZM711.952 172.71H716.383C717.962 172.71 719.101 172.326 719.803 171.557C720.504 170.788 720.855 169.716 720.855 168.34C720.855 166.964 720.504 165.918 719.803 165.204C719.101 164.489 717.962 164.124 716.383 164.111H711.952V172.71Z" fill="white"/>
</g>
<g opacity="0.2">
<rect x="367.472" y="172.859" width="11.037" height="7.42558" stroke="white" stroke-width="1.58365"/>
<path fill-rule="evenodd" clip-rule="evenodd" d="M362.584 168.584H372.037V170.942H373.621V168.584V167H372.037H362.584H361V168.584V174.426V176.009H362.584H365.417V174.426H362.584V168.584Z" fill="white"/>
</g>
<g opacity="0.2">
<path fill-rule="evenodd" clip-rule="evenodd" d="M488 168H503V169.714H488V168ZM488 173.143H503V174.857H488V173.143ZM503 178.286H488V180H503V178.286Z" fill="white"/>
</g>
</svg>
