<svg width="869" height="623" fill="none" xmlns="http://www.w3.org/2000/svg"><path d="M519.868 34.306h-19.71a3.296 3.296 0 0 1 3.262-2.825h13.185a3.297 3.297 0 0 1 3.263 2.825Z" stroke="#fff" stroke-width=".942"/><path d="M550.977 59.676c-81.299.221-152.203.47-233.558-.026V34.415h233.558v25.26Z" stroke="#fff" stroke-width="1.884"/><path d="M317.419 35.187h233.558" stroke="#fff" stroke-width="5.651"/><path d="M142.946 66.476c-1.723 2.549-3.26 5.263-4.685 8.217a77.99 77.99 0 0 1 2.386-1.715 50.775 50.775 0 0 1 2.299-6.502Zm106.636-13.827a38.833 38.833 0 0 0-4.278-8.644l-5.803-8.778-8.086-16.459c8.263-1.981 16.368-3.477 24.006-4.455l2.987-.385h.002c20.396-2.632 33.815-4.364 37.4 4.622l.488 1.225.063.16c4.222 10.613 9.503 13.816 19.174 14.48v25.317c-30.124 0-50.736-3.363-65.953-7.083Z" stroke="#fff" stroke-width="1.884"/><path d="M231.415 19.54c8.262-1.981 16.367-3.477 24.006-4.455l2.986-.385h.002c20.397-2.632 33.816-4.364 37.4 4.622l.488 1.225.063.159c4.223 10.614 9.504 13.816 19.175 14.48" stroke="#fff" stroke-width="5.651"/><path d="M726.787 68.19a50.745 50.745 0 0 1 2.086 6.69 78.01 78.01 0 0 1 2.434 1.851c-1.387-3.081-2.867-5.903-4.52-8.542Zm-107.388-15.4c-14.315 3.68-34.582 6.968-66.316 6.968V34.415c9.671-.664 14.952-3.867 19.174-14.48l.024-.06.527-1.325c3.585-8.986 17.004-7.254 37.4-4.622h.002l.009.002 2.978.383c7.752.992 15.984 2.519 24.374 4.544l-8.042 16.37-5.803 8.778a38.793 38.793 0 0 0-4.327 8.785Z" stroke="#fff" stroke-width="1.884"/><path d="M553.083 35.187c9.671-.665 14.952-3.867 19.174-14.481l.024-.06.527-1.324c3.585-8.986 17.004-7.254 37.4-4.622h.002l.009.001c.977.126 1.969.255 2.978.384 7.752.992 15.984 2.518 24.374 4.543" stroke="#fff" stroke-width="5.651"/><path d="M613.274 67.483H256.07c-6.997 39.477-37.039 71.803-77.248 80.873-23.439 5.287-45.513-13.099-44.553-37.107l1.081-27.017c-14.145 16.193-24.929 38.292-35.005 60.54C80.568 188.44 3.344 362.206 3.344 476.836c0 114.63 65.923 138.284 73.457 140.104.936.226 1.916.522 2.937.831 3.078.931 6.535 1.976 10.323 1.562 17.759 1.471 51.396-14.424 74.312-43.182 9.147-11.478 17.132-30.344 24.009-46.589 3.82-9.027 7.299-17.244 10.444-22.936 6.055-10.959 10.873-19.68 14.519-23.71a113.792 113.792 0 0 1 10.387-10.093c14.349-10.093 30.488-16.51 50.84-16.912 28-.552 108.132-.441 145.032-.223v.223c4.349-.04 9.434-.082 15.068-.123a7950.4 7950.4 0 0 1 15.068.123v-.223c36.9-.218 117.032-.329 145.032.223 20.287.4 36.388 6.778 50.703 16.816a113.78 113.78 0 0 1 10.499 10.189c3.646 4.03 8.465 12.751 14.52 23.71 3.474 6.288 6.183 14.487 9.063 23.206v.001c4.419 13.375 9.241 27.975 17.855 38.784 22.82 28.637 63.072 51.321 81.567 50.679 3.906.507 7.467-.569 10.626-1.525 1.022-.309 2.001-.605 2.937-.831C800.076 615.12 866 591.466 866 476.836c0-114.63-77.225-288.396-97.002-332.064-9.641-21.288-21.051-42.405-34.916-58.357l.993 24.834c.96 24.008-21.114 42.394-44.553 37.107-40.209-9.07-70.251-41.396-77.248-80.873Z" stroke="#fff" stroke-width=".942"/><path d="M135.35 84.232c-14.145 16.193-24.929 38.292-35.005 60.539C80.568 188.44 3.344 362.205 3.344 476.836c0 114.63 65.923 138.284 73.457 140.104.936.226 1.916.522 2.937.831 3.078.931 6.535 1.976 10.323 1.562 17.759 1.47 51.396-14.424 74.312-43.182 9.147-11.478 17.132-30.344 24.009-46.589 3.82-9.027 7.299-17.245 10.444-22.936 6.055-10.959 10.873-19.68 14.519-23.71a113.792 113.792 0 0 1 10.387-10.093c14.349-10.093 30.488-16.511 50.84-16.912 28-.552 108.132-.441 145.032-.223v.223c4.349-.04 9.434-.082 15.068-.123a7950.4 7950.4 0 0 1 15.068.123v-.223c36.9-.218 117.032-.329 145.032.223 20.287.4 36.388 6.778 50.703 16.816a113.65 113.65 0 0 1 10.499 10.189c3.646 4.03 8.465 12.751 14.52 23.71 3.474 6.288 6.183 14.486 9.063 23.206v.001c4.419 13.375 9.241 27.974 17.855 38.784 22.82 28.636 63.072 51.321 81.567 50.679 3.906.507 7.467-.57 10.626-1.525 1.022-.309 2.001-.605 2.937-.831C800.076 615.12 866 591.466 866 476.836c0-114.631-77.225-288.396-97.002-332.065-9.641-21.287-21.051-42.404-34.916-58.356" stroke="#fff" stroke-width="6" stroke-linecap="round" stroke-linejoin="round"/><path d="M286.491 58.537h-.471v186.397c0 4.201 0 7.381.207 9.913.208 2.542.626 4.471 1.487 6.16a15.54 15.54 0 0 0 6.791 6.791c1.689.861 3.618 1.279 6.16 1.487 2.532.207 5.712.207 9.913.207h255.074c4.201 0 7.382 0 9.913-.207 2.542-.208 4.472-.626 6.161-1.487a15.54 15.54 0 0 0 6.791-6.791c.86-1.689 1.279-3.618 1.486-6.16.207-2.532.207-5.712.207-9.913V58.537H286.491Z" stroke="#fff" stroke-width=".942"/><path d="M410.53 47.097a3.184 3.184 0 0 1 3.184-3.184h42.505a3.184 3.184 0 1 1 0 6.368h-42.505a3.183 3.183 0 0 1-3.184-3.184Z" stroke="#fff" stroke-width="1.111"/><path stroke="#fff" stroke-width="2.221" d="M420.294 48.337h29.99"/><path d="M680.148 146.592c0 91.148 28.253 153.813 54.623 222.175 26.369 68.362 45.204 159.51 43.321 250.659M187.297 146.592c0 91.148-28.253 153.813-54.622 222.175-26.37 68.362-45.205 159.51-43.322 250.659" stroke="#fff" stroke-width=".471"/><rect x="411.342" y="338.747" width="47.895" height="9.418" rx="4.709" stroke="#909090" stroke-width=".942"/><path d="M561.016 440.893c0 1.546-1.266 3.073-3.602 4.24-2.307 1.154-5.529 1.882-9.112 1.882-3.584 0-6.805-.728-9.113-1.882-2.335-1.167-3.601-2.694-3.601-4.24 0-1.546 1.266-3.072 3.601-4.24 2.308-1.154 5.529-1.881 9.113-1.881 3.583 0 6.805.727 9.112 1.881 2.336 1.168 3.602 2.694 3.602 4.24Z" stroke="#fff" stroke-width=".942"/><path d="M553.482 439.009c0 .506-.423 1.091-1.395 1.577-.944.472-2.282.778-3.785.778-1.503 0-2.841-.306-3.785-.778-.973-.486-1.395-1.071-1.395-1.577 0-.505.422-1.09 1.395-1.576.944-.472 2.282-.778 3.785-.778 1.503 0 2.841.306 3.785.778.972.486 1.395 1.071 1.395 1.576Z" stroke="#fff" stroke-width=".942"/><rect x="374.546" y="431.946" width="124.637" height="17.423" rx="3.296" stroke="#fff" stroke-width=".942"/><rect x="372.427" y="427.473" width="128.875" height="23.073" rx="4.473" stroke="#fff" stroke-width=".471"/><path d="m435.478 242.51-.188-.249-.188.249-9.599 12.714-.285.377h20.144l-.285-.377-9.599-12.714Z" stroke="#fff" stroke-width=".471"/><path d="m238.154 35.89.043.085.052.08 5.804 8.778a37.29 37.29 0 0 1 3.595 34.222l-1.06 2.692-4.381 10.28a49.671 49.671 0 0 1-4.013 7.54l-1.825 2.817a96.175 96.175 0 0 1-48.12 38.17l-3.832 1.379a36.835 36.835 0 0 1-32.909-4.009 23.26 23.26 0 0 1-8.792-10.964l-.531-1.373-1.399.541 1.399-.541a44.034 44.034 0 0 1-2.913-17.958l1.192-25.214a49.207 49.207 0 0 1 12.145-28.397l.585-.662a83.272 83.272 0 0 0 7.953-10.6l20.202-31.938-1.268-.801 1.268.801a13.713 13.713 0 0 1 2.194-2.66l-1.028-1.092 1.028 1.093a13.737 13.737 0 0 1 5.422-3.14l4.932-1.5a33.995 33.995 0 0 1 19.65-.033l5.493 1.648a11.236 11.236 0 0 1 4.72 2.82l1.061-1.062-1.061 1.061a11.242 11.242 0 0 1 2.142 2.994l12.252 24.942Zm392.626.165.053-.08.043-.086 12.252-24.943a11.241 11.241 0 0 1 2.142-2.993l-1.061-1.06 1.061 1.06a11.236 11.236 0 0 1 4.72-2.82l5.493-1.647a33.995 33.995 0 0 1 19.65.034l4.932 1.498a13.737 13.737 0 0 1 7.616 5.8l20.202 31.938a83.272 83.272 0 0 0 7.953 10.6l.585.662a49.199 49.199 0 0 1 12.144 28.397l1.193 25.214a44.018 44.018 0 0 1-2.914 17.958l-.53 1.373a23.26 23.26 0 0 1-8.792 10.964 36.835 36.835 0 0 1-32.909 4.009l-3.832-1.379a96.175 96.175 0 0 1-48.12-38.17l-1.825-2.817a49.671 49.671 0 0 1-4.013-7.54l-4.382-10.28-1.059-2.692a37.29 37.29 0 0 1 3.595-34.223l5.803-8.777Z" stroke="#fff" stroke-width="3"/><path stroke="#fff" stroke-width=".471" d="M424.695 258.309h21.19v2.59h-21.19z"/></svg>