<svg width="24" height="24" viewBox="0 0 24 24" fill="none" xmlns="http://www.w3.org/2000/svg">
<path d="M0.743605 12.6929L0.727273 12.738V12.7859C0.727273 13.8584 0.880449 14.9584 1.28437 15.801C1.69408 16.6556 2.38049 17.2727 3.42424 17.2727H19.7879C20.3456 17.2727 21.1682 17.0814 21.8565 16.5071C22.5557 15.9237 23.0909 14.9661 23.0909 13.4883C23.0909 11.7109 22.7856 9.37891 21.8483 7.56848C21.378 6.66026 20.7417 5.86974 19.8915 5.35369C19.037 4.83496 17.9872 4.60636 16.7185 4.79015C14.0984 5.16969 10.545 5.97755 7.43492 7.26142C5.87978 7.9034 4.42643 8.66808 3.25428 9.5642C2.08349 10.4593 1.1768 11.4982 0.743605 12.6929Z" stroke="black" stroke-width="0.545455"/>
<path d="M11.6591 11.9818C11.6591 12.2052 11.478 12.3864 11.2545 12.3864L7 12.3864C6.23433 12.3864 5.61363 11.7657 5.61363 11C5.61363 10.2343 6.23433 9.61363 7 9.61363L11.2545 9.61362C11.478 9.61362 11.6591 9.79475 11.6591 10.0182L11.6591 11.9818Z" fill="white" stroke="black" stroke-width="0.5"/>
<path d="M13 10.0182C13 9.6567 13.2931 9.36365 13.6545 9.36365H17.9091C18.8128 9.36365 19.5455 10.0963 19.5455 11C19.5455 11.9037 18.8128 12.6364 17.9091 12.6364H13.6545C13.293 12.6364 13 12.3433 13 11.9818V10.0182Z" fill="black"/>
</svg>
