<svg width="24" height="24" viewBox="0 0 24 24" fill="none" xmlns="http://www.w3.org/2000/svg">
<path fill-rule="evenodd" clip-rule="evenodd" d="M11.5 14.95C12.8807 14.95 14 13.8307 14 12.45L14 7.44998C14 6.2405 13.1411 5.23163 12 4.99999L12 11.1103L13 11.1103L11.5 13.95L10 11.1103L11 11.1103L11 4.99999C9.85888 5.23163 9 6.2405 9 7.44998L9 12.45C9 13.8307 10.1193 14.95 11.5 14.95Z" fill="black"/>
<path d="M11 4.03544V2C7.64378 2.25531 5 5.05944 5 8.48106V9.98106H8V7.5C8 5.73676 9.30385 4.27806 11 4.03544Z" fill="#E2E2E2"/>
<path d="M15 9.98106V7.5C15 5.73676 13.6961 4.27806 12 4.03544V2C15.3562 2.25531 18 5.05944 18 8.48106V9.98106H15Z" fill="#E2E2E2"/>
<path d="M8 11V12.5C8 14.433 9.567 16 11.5 16C13.433 16 15 14.433 15 12.5V11H18V14.6216C18 18.6966 14.6966 22 10.6216 22C7.51689 22 5 19.4831 5 16.3784V11H8Z" fill="#E2E2E2"/>
<path d="M4.25 8.5C4.25 4.49594 7.49594 1.25 11.5 1.25C15.5041 1.25 18.75 4.49594 18.75 8.5V14.6C18.75 19.1011 15.1011 22.75 10.6 22.75C7.09299 22.75 4.25 19.907 4.25 16.4V8.5Z" stroke="black" stroke-width="0.5"/>
</svg>
