<svg width="24" height="24" viewBox="0 0 24 24" fill="none" xmlns="http://www.w3.org/2000/svg">
<path d="M0.743605 12.6929L0.727273 12.738V12.7859C0.727273 13.8584 0.880449 14.9584 1.28437 15.801C1.69408 16.6556 2.38049 17.2727 3.42424 17.2727H19.7879C20.3456 17.2727 21.1682 17.0814 21.8565 16.5071C22.5557 15.9237 23.0909 14.9661 23.0909 13.4883C23.0909 11.7109 22.7856 9.37891 21.8483 7.56848C21.378 6.66026 20.7417 5.86974 19.8915 5.35369C19.037 4.83496 17.9872 4.60636 16.7185 4.79015C14.0984 5.16969 10.545 5.97755 7.43492 7.26142C5.87978 7.9034 4.42643 8.66808 3.25428 9.5642C2.08349 10.4593 1.1768 11.4982 0.743605 12.6929Z" stroke="black" stroke-width="0.545455"/>
<path d="M11.9091 11.9818C11.9091 12.3433 11.616 12.6364 11.2545 12.6364L7 12.6364C6.09626 12.6364 5.36363 11.9037 5.36363 11C5.36363 10.0963 6.09626 9.36363 7 9.36363L11.2545 9.36362C11.616 9.36362 11.9091 9.65667 11.9091 10.0182L11.9091 11.9818Z" fill="black"/>
<path d="M13.25 10.0182C13.25 9.79477 13.4311 9.61365 13.6545 9.61365H17.9091C18.6748 9.61365 19.2955 10.2343 19.2955 11C19.2955 11.7657 18.6748 12.3864 17.9091 12.3864H13.6545C13.4311 12.3864 13.25 12.2053 13.25 11.9818V10.0182Z" fill="white" stroke="black" stroke-width="0.5"/>
</svg>
