<svg width="24" height="24" viewBox="0 0 24 24" fill="none" xmlns="http://www.w3.org/2000/svg">
<rect x="10" y="7" width="3" height="5" rx="1.5" fill="black"/>
<path d="M11 6.03106V2C7.64378 2.25531 5 5.05944 5 8.48106V9.98106H9V8.48105C9 7.27157 9.85888 6.26269 11 6.03106Z" fill="#E2E2E2"/>
<path d="M18 8.48106C18 5.05944 15.3562 2.25531 12 2V6.03106C13.1411 6.26269 14 7.27157 14 8.48105V9.98106H18V8.48106Z" fill="#E2E2E2"/>
<path d="M9.05001 11H5V16.3784C5 19.4831 7.51689 22 10.6216 22C14.6966 22 18 18.6966 18 14.6216V11H13.95C13.7184 12.1411 12.7095 13 11.5 13C10.2905 13 9.28165 12.1411 9.05001 11Z" fill="#E2E2E2"/>
<path d="M4.25 8.5C4.25 4.49594 7.49594 1.25 11.5 1.25C15.5041 1.25 18.75 4.49594 18.75 8.5V14.6C18.75 19.1011 15.1011 22.75 10.6 22.75C7.09299 22.75 4.25 19.907 4.25 16.4V8.5Z" stroke="black" stroke-width="0.5"/>
</svg>
